<svg id="icon_menu_normal_13" xmlns="http://www.w3.org/2000/svg" width="24" height="24" viewBox="0 0 24 24">
  <rect id="background" width="24" height="24" fill="none"/>
  <g id="icon_aboard_studies">
    <rect id="Rectangle_17304" data-name="Rectangle 17304" width="24" height="24" fill="none"/>
    <path id="Path_32187" data-name="Path 32187" d="M4.891,15.977H18.665M5.021,12.209H18.535M6.07,9.788,2,7.6,11.778,3l9.778,4.6-4.31,1.787m3.421-1.368v3.767m0,0A1.258,1.258,0,1,0,22,13.047,1.3,1.3,0,0,0,20.667,11.791ZM5.382,11.372c0-2.774,2.96-5.023,6.4-5.023s6.4,2.249,6.4,5.023M11.778,21a6.914,6.914,0,0,0,7.111-6.7,6.914,6.914,0,0,0-7.111-6.7m0,13.4a6.914,6.914,0,0,1-7.111-6.7,6.914,6.914,0,0,1,7.111-6.7m0,13.4c1.964,0,3.556-3,3.556-6.7s-1.592-6.7-3.556-6.7m0,13.4c-1.964,0-3.556-3-3.556-6.7s1.592-6.7,3.556-6.7m0,13.4V7.6" fill="none" stroke="#454545" stroke-width="1"/>
  </g>
</svg>
