<svg xmlns="http://www.w3.org/2000/svg" width="66" height="66" viewBox="0 0 66 66">
  <g id="Image" transform="translate(-16 -94)">
    <rect id="Image_background" width="66" height="66" transform="translate(16 94)" fill="#fff"/>
    <g id="Group_41310" data-name="Group 41310" transform="translate(20515.75 23860.75)">
      <path id="Path_43385" data-name="Path 43385" d="M8,19.387A2.364,2.364,0,0,1,10.34,17H64.16a2.364,2.364,0,0,1,2.34,2.387v35.8a2.364,2.364,0,0,1-2.34,2.387H10.34A2.364,2.364,0,0,1,8,55.186Z" transform="translate(-20504 -23769.072)" fill="#fce6a7"/>
      <path id="Path_43386" data-name="Path 43386" d="M53.359,51.68A6.68,6.68,0,1,1,46.68,45,6.68,6.68,0,0,1,53.359,51.68Z" transform="translate(-20498.5 -23764.5)" fill="rgba(172,201,245,0.75)"/>
      <path id="Path_43387" data-name="Path 43387" d="M7.25,11.472a3.213,3.213,0,0,1,3.2-3.222H64.046a3.213,3.213,0,0,1,3.2,3.222V56a3.213,3.213,0,0,1-3.2,3.222H60.212a7.86,7.86,0,0,1-15.623.08l-34.142-.075A3.213,3.213,0,0,1,7.25,56Zm37.321,46.07a7.86,7.86,0,0,1,15.641-.08h3.834A1.46,1.46,0,0,0,65.5,56V19.381H9V56a1.461,1.461,0,0,0,1.453,1.465ZM9,17.624H65.5V11.472a1.46,1.46,0,0,0-1.456-1.465H10.454A1.46,1.46,0,0,0,9,11.472Zm2.913-3.808a.876.876,0,0,1,.874-.879h.583a.879.879,0,0,1,0,1.758h-.583A.876.876,0,0,1,11.91,13.816Zm4.078,0a.876.876,0,0,1,.874-.879h.583a.879.879,0,0,1,0,1.758h-.583A.876.876,0,0,1,15.988,13.816Zm4.66,0a.876.876,0,0,1,.874-.879H22.1a.879.879,0,0,1,0,1.758h-.583A.876.876,0,0,1,20.648,13.816Zm10.485,0a.876.876,0,0,1,.874-.879H59.386a.879.879,0,0,1,0,1.758H32.007A.876.876,0,0,1,31.133,13.816Zm-.192,10.253a13.847,13.847,0,0,0-11.692,6.4.871.871,0,0,1-1.207.264.882.882,0,0,1-.263-1.214,15.625,15.625,0,0,1,26.937,1.047l.555-1.777a.874.874,0,1,1,1.667.527l-1.132,3.625a1.5,1.5,0,0,1-2.215.873.881.881,0,0,1-.325-1.2.872.872,0,0,1,.418-.373.874.874,0,0,1-.232-.3A13.848,13.848,0,0,0,30.942,24.068ZM17.508,31.785a.88.88,0,0,1,.5,1.137,13.61,13.61,0,0,0-.688,2.456.874.874,0,1,1-1.719-.315,15.357,15.357,0,0,1,.777-2.775A.872.872,0,0,1,17.508,31.785Zm-1.3,6.417a.875.875,0,0,1,.945.8,13.649,13.649,0,0,0,.523,2.764A.874.874,0,1,1,16,42.274a15.411,15.411,0,0,1-.591-3.122A.877.877,0,0,1,16.205,38.2Zm1.481,6.06a.871.871,0,0,1,1.192.328,13.814,13.814,0,0,0,1.894,2.585.882.882,0,0,1-.042,1.242.87.87,0,0,1-1.235-.043,15.572,15.572,0,0,1-2.135-2.913A.881.881,0,0,1,17.686,44.262Zm4.142,5.106a.871.871,0,0,1,1.215-.225,13.828,13.828,0,0,0,2.749,1.476.878.878,0,0,1-.645,1.634,15.58,15.58,0,0,1-3.1-1.662A.882.882,0,0,1,21.828,49.368ZM52.4,52.189a6.134,6.134,0,0,0-6.117,6.152c0,.024,0,.048,0,.072A6.117,6.117,0,1,0,52.4,52.189Zm-24.421.021a.875.875,0,0,1,.988-.747,14.039,14.039,0,0,0,1.98.14.879.879,0,0,1,0,1.758,15.783,15.783,0,0,1-2.225-.157A.878.878,0,0,1,27.974,52.211Z" transform="translate(-20504 -23771)" fill="#4770ff" fill-rule="evenodd"/>
      <path id="Path_43388" data-name="Path 43388" d="M49.013,49.453a.75.75,0,0,1,.034,1.06l-2.686,2.864a.75.75,0,0,1-1.217.111.769.769,0,0,1-.049-.06l-1.178-1.456a.75.75,0,0,1,1.166-.944l.66.815,2.21-2.356A.75.75,0,0,1,49.013,49.453Z" transform="translate(-20498.256 -23764.5)" fill="#4770ff" fill-rule="evenodd"/>
      <path id="Path_43389" data-name="Path 43389" d="M25.235,25.186a.756.756,0,0,1,.5-.186H27.77a.756.756,0,0,1,.749.653l.2,1.475a6.855,6.855,0,0,1,1.315.545l1.186-.9a.757.757,0,0,1,.992.068l1.444,1.442a.756.756,0,0,1,.068.992l-.907,1.2c.093.188.183.387.262.573a1.353,1.353,0,0,0,1.037.834l.728.1a.756.756,0,0,1,.653.749v2.038a.756.756,0,0,1-.653.749l-1.475.2a6.876,6.876,0,0,1-.466,1.164.757.757,0,0,1,.024.142v0a.76.76,0,0,1,0,.138l.8,1.055a.757.757,0,0,1-.068.992l-1.442,1.443a.756.756,0,0,1-.992.068l-1.2-.907c-.186.093-.383.181-.567.259a1.355,1.355,0,0,0-.836,1.038l-.1.729a.756.756,0,0,1-.749.653H25.734a.756.756,0,0,1-.749-.653l-.2-1.475a6.9,6.9,0,0,1-1.314-.544L23.238,40l-.958.726a.757.757,0,0,1-.992-.068l-1.442-1.442a.756.756,0,0,1-.068-.991l.9-1.188a6.884,6.884,0,0,1-.545-1.314l-1.474-.2A.756.756,0,0,1,18,34.772l0-2.039a.756.756,0,0,1,.653-.751l1.476-.2a6.843,6.843,0,0,1,.546-1.315l-.9-1.187a.756.756,0,0,1,.068-.992l1.442-1.442a.757.757,0,0,1,.992-.068l1.186.9a6.814,6.814,0,0,1,1.315-.544l.2-1.476A.757.757,0,0,1,25.235,25.186ZM35.1,27.18a.75.75,0,0,1,1.023-.279l2.815,1.61a.75.75,0,1,1-.745,1.3L35.378,28.2A.75.75,0,0,1,35.1,27.18Zm-8.347,2.235a4.324,4.324,0,1,1-4.324,4.324A4.326,4.326,0,0,1,26.751,29.415Z" transform="translate(-20498.973 -23767.559)" fill="#4770ff" fill-rule="evenodd"/>
    </g>
  </g>
</svg>
