<svg xmlns="http://www.w3.org/2000/svg" xmlns:xlink="http://www.w3.org/1999/xlink" width="66" height="66" viewBox="0 0 66 66">
  <defs>
    <clipPath id="clip-path">
      <rect id="Rectangle_44370" data-name="Rectangle 44370" width="66" height="66" fill="#fff"/>
    </clipPath>
    <linearGradient id="linear-gradient" x1="0.5" x2="0.5" y2="1" gradientUnits="objectBoundingBox">
      <stop offset="0" stop-color="#f09819"/>
      <stop offset="1" stop-color="#ff512f"/>
    </linearGradient>
  </defs>
  <g id="Image" transform="translate(-16 -94)">
    <rect id="Image_background" width="66" height="66" transform="translate(16 94)" fill="#fff"/>
    <g id="illustrate_advance_data_structure_1_" data-name="illustrate_advance_data_structure (1)" transform="translate(16 94)" clip-path="url(#clip-path)">
      <path id="Path_43415" data-name="Path 43415" d="M33,10a3,3,0,0,1,3-3h6a3,3,0,0,1,3,3v6a3,3,0,0,1-3,3H40v2h9.5a3,3,0,0,1,3,3v3H54a3,3,0,0,1,3,3v6a3,3,0,0,1-3,3H48a3,3,0,0,1-3-3V30a3,3,0,0,1,3-3h2.5V24a1,1,0,0,0-1-1h-21a1,1,0,0,0-1,1v3H30a3,3,0,0,1,3,3v6a3,3,0,0,1-3,3H28v1.5h9a3,3,0,0,1,3,3V47h2a3,3,0,0,1,3,3v6a3,3,0,0,1-3,3H36a3,3,0,0,1-3-3V50a3,3,0,0,1,3-3h2V43.5a1,1,0,0,0-1-1H17a1,1,0,0,0-1,1V47h2a3,3,0,0,1,3,3v6a3,3,0,0,1-3,3H12a3,3,0,0,1-3-3V50a3,3,0,0,1,3-3h2V43.5a3,3,0,0,1,3-3h9V39H24a3,3,0,0,1-3-3V30a3,3,0,0,1,3-3h1.5V24a3,3,0,0,1,3-3H38V19H36a3,3,0,0,1-3-3Zm3-1a1,1,0,0,0-1,1v6a1,1,0,0,0,1,1h6a1,1,0,0,0,1-1V10a1,1,0,0,0-1-1ZM24,29a1,1,0,0,0-1,1v6a1,1,0,0,0,1,1h6a1,1,0,0,0,1-1V30a1,1,0,0,0-1-1Zm24,0a1,1,0,0,0-1,1v6a1,1,0,0,0,1,1h6a1,1,0,0,0,1-1V30a1,1,0,0,0-1-1ZM12,49a1,1,0,0,0-1,1v6a1,1,0,0,0,1,1h6a1,1,0,0,0,1-1V50a1,1,0,0,0-1-1Zm24,0a1,1,0,0,0-1,1v6a1,1,0,0,0,1,1h6a1,1,0,0,0,1-1V50a1,1,0,0,0-1-1Z" fill-rule="evenodd" fill="url(#linear-gradient)"/>
    </g>
  </g>
</svg>
