<svg width="98" height="22" viewBox="0 0 98 22" fill="none" xmlns="http://www.w3.org/2000/svg">
<path d="M12.073 5.42737H12.114L13.654 12.7604H8.994L12.073 5.42737ZM9.966 0.401367L0 21.5524H5.307L7.049 17.4204H14.666L15.517 21.5524H20.54L15.679 0.401367H9.966Z" fill="black"/>
<path d="M34.843 13.4494H21.801L22.53 8.54937H35.613L34.843 13.4494ZM37.882 5.30137H23.013L23.742 0.401367H38.611L37.882 5.30137ZM36.182 16.6014H21.311L20.582 21.5444H35.451L36.182 16.6014Z" fill="black"/>
<path d="M52.547 16.1231C51.0828 16.6645 49.5298 16.9257 47.969 16.8931C47.2215 16.9381 46.4732 16.8205 45.7755 16.5484C45.0778 16.2764 44.4473 15.8564 43.9275 15.3173C43.4078 14.7782 43.011 14.1329 42.7645 13.4258C42.5181 12.7186 42.4279 11.9665 42.5 11.2211C42.5139 10.3853 42.6948 9.56077 43.0321 8.79596C43.3694 8.03115 43.8562 7.34154 44.4641 6.76773C45.0719 6.19392 45.7884 5.7475 46.5713 5.45475C47.3542 5.162 48.1878 5.02884 49.023 5.0631C50.737 5.0477 52.3961 5.66674 53.681 6.8011L54.694 1.7371C52.8827 0.574425 50.7692 -0.0293354 48.617 0.00109624C45.6122 0.0781911 42.7536 1.31429 40.6393 3.45079C38.525 5.58728 37.3188 8.45863 37.273 11.4641C37.073 17.6641 41.081 21.9981 47.037 21.9981C48.6377 22.0318 50.2308 21.7708 51.737 21.2281L52.547 16.1231Z" fill="black"/>
<path d="M68.6697 11.707C69.4397 8.14197 68.1027 5.34597 65.3877 4.77897C62.4297 4.17097 59.7157 6.43997 58.9057 10.208C58.1357 13.773 59.4727 16.569 62.1877 17.136C65.1447 17.744 67.8597 15.475 68.6697 11.707ZM65.1857 0.0389703C70.8577 0.44397 74.3417 5.06297 73.6937 11.18C73.0457 17.541 67.9407 22.24 62.1477 21.835C56.4757 21.43 52.9917 16.811 53.6397 10.694C54.2877 4.33297 59.4327 -0.36603 65.1857 0.0389703Z" fill="black"/>
<path d="M92.0492 0.401367L85.9313 12.3154L83.4603 0.401367H78.7203L72.1562 21.5524H77.3822L80.9883 9.15237L83.2162 21.5524H85.8913L92.0912 9.15237L92.0103 21.5524H97.1963L96.8293 0.401367H92.0492Z" fill="black"/>
</svg>
