<svg width="24" height="24" viewBox="0 0 24 24" fill="none" xmlns="http://www.w3.org/2000/svg">
<g clip-path="url(#clip0_896_10433)">
<path d="M4.891 15.977H18.665M5.021 12.209H18.535M6.07 9.788L2 7.6L11.778 3L21.556 7.6L17.246 9.387M20.667 8.019V11.786M20.667 11.786C20.422 11.8006 20.1867 11.8866 19.99 12.0333C19.7933 12.18 19.6438 12.381 19.5598 12.6116C19.4759 12.8422 19.4613 13.0923 19.5177 13.3311C19.5742 13.5699 19.6992 13.787 19.8775 13.9556C20.0558 14.1243 20.2795 14.2371 20.521 14.2802C20.7626 14.3233 21.0115 14.2948 21.2371 14.1982C21.4627 14.1017 21.6551 13.9412 21.7907 13.7367C21.9262 13.5321 21.999 13.2924 22 13.047C21.9885 12.7041 21.8419 12.3797 21.5922 12.1444C21.3425 11.9091 21.01 11.7821 20.667 11.791V11.786ZM5.382 11.372C5.382 8.598 8.342 6.349 11.782 6.349C15.222 6.349 18.182 8.598 18.182 11.372M11.778 21C13.6091 21.053 15.3863 20.3773 16.7196 19.1211C18.0528 17.8649 18.8331 16.131 18.889 14.3C18.8331 12.469 18.0528 10.7351 16.7196 9.4789C15.3863 8.22271 13.6091 7.54695 11.778 7.6M11.778 21C9.94695 21.053 8.16968 20.3773 6.83643 19.1211C5.50318 17.8649 4.72293 16.131 4.667 14.3C4.72293 12.469 5.50318 10.7351 6.83643 9.4789C8.16968 8.22271 9.94695 7.54695 11.778 7.6M11.778 21C13.742 21 15.334 18 15.334 14.3C15.334 10.6 13.742 7.6 11.778 7.6M11.778 21C9.814 21 8.222 18 8.222 14.3C8.222 10.6 9.814 7.6 11.778 7.6M11.778 21V7.6" stroke="white"/>
</g>
<defs>
<clipPath id="clip0_896_10433">
<rect width="24" height="24" fill="white"/>
</clipPath>
</defs>
</svg>
