<svg id="Icon" xmlns="http://www.w3.org/2000/svg" xmlns:xlink="http://www.w3.org/1999/xlink" width="24" height="24" viewBox="0 0 24 24">
  <defs>
    <clipPath id="clip-path">
      <rect id="Rectangle_44434" data-name="Rectangle 44434" width="20" height="20" transform="translate(-0.415 -0.139)" fill="#fff" stroke="#707070" stroke-width="1"/>
    </clipPath>
  </defs>
  <rect id="background" width="24" height="24" fill="none"/>
  <g id="Mask_Group_374" data-name="Mask Group 374" transform="translate(2.415 2.139)" clip-path="url(#clip-path)">
    <g id="kolkata" transform="translate(0 1.453)">
      <path id="Path_44285" data-name="Path 44285" d="M12.187,8.693H8.8a.242.242,0,0,1-.242-.242V6.222A.242.242,0,0,1,8.8,5.98h3.391a.242.242,0,0,1,.242.242V8.451A.242.242,0,0,1,12.187,8.693ZM9.039,8.208h2.906V6.465H9.039Z" transform="translate(-0.707 -2.735)"/>
      <path id="Path_44286" data-name="Path 44286" d="M5.683,11.658H2.777a.242.242,0,0,1-.242-.242V10.3a.242.242,0,0,1,.242-.242H5.683a.242.242,0,0,1,.242.242v1.114A.242.242,0,0,1,5.683,11.658Zm-2.664-.484H5.441v-.63H3.019Z" transform="translate(-2.05 -1.825)"/>
      <path id="Path_44287" data-name="Path 44287" d="M4.624,16.237H3.51a.242.242,0,0,1-.242-.242V14.42a.242.242,0,0,1,.242-.242H4.624a.242.242,0,0,1,.242.242v1.574A.242.242,0,0,1,4.624,16.237Zm-.872-.484h.63v-1.09h-.63Z" transform="translate(-1.887 -0.906)"/>
      <path id="Path_44288" data-name="Path 44288" d="M17.059,16.237H15.945a.242.242,0,0,1-.242-.242V14.42a.242.242,0,0,1,.242-.242h1.114a.242.242,0,0,1,.242.242v1.574A.242.242,0,0,1,17.059,16.237Zm-.872-.484h.63v-1.09h-.63Z" transform="translate(0.887 -0.906)"/>
      <path id="Path_44289" data-name="Path 44289" d="M14.445,16.237H13.331a.242.242,0,0,1-.242-.242V14.42a.242.242,0,0,1,.242-.242h1.114a.242.242,0,0,1,.242.242v1.574a.242.242,0,0,1-.242.242Zm-.872-.484h.63v-1.09h-.63Z" transform="translate(0.304 -0.906)"/>
      <path id="Path_44290" data-name="Path 44290" d="M7.158,16.237H6.044a.242.242,0,0,1-.242-.242V14.42a.242.242,0,0,1,.242-.242H7.158a.242.242,0,0,1,.242.242v1.574A.242.242,0,0,1,7.158,16.237Zm-.872-.484h.63v-1.09h-.63Z" transform="translate(-1.321 -0.906)"/>
      <path id="Path_44291" data-name="Path 44291" d="M14.5,11.737H13.391a.242.242,0,0,1-.242-.242V9.945a.242.242,0,0,1,.242-.242H14.5a.242.242,0,0,1,.242.242V11.5A.242.242,0,0,1,14.5,11.737Zm-.872-.484h.63V10.187h-.63Z" transform="translate(0.317 -1.904)"/>
      <path id="Path_44292" data-name="Path 44292" d="M7.178,11.737H6.064a.242.242,0,0,1-.242-.242V9.945A.242.242,0,0,1,6.064,9.7H7.178a.242.242,0,0,1,.242.242V11.5A.242.242,0,0,1,7.178,11.737Zm-.872-.484h.63V10.187h-.63Z" transform="translate(-1.317 -1.904)"/>
      <path id="Path_44293" data-name="Path 44293" d="M17.456,12.569H5.153a.242.242,0,0,1-.242-.242V11.212a.242.242,0,0,1,.242-.242h12.3a.242.242,0,0,1,.242.242v1.114A.242.242,0,0,1,17.456,12.569ZM5.4,12.084H17.214v-.63H5.4Z" transform="translate(-1.52 -1.622)"/>
      <path id="Path_44294" data-name="Path 44294" d="M8.5,8.6H5.153a.242.242,0,0,1-.242-.242v-1.7a.242.242,0,0,1,.242-.242H8.5a.242.242,0,0,1,.242.242v1.7A.242.242,0,0,1,8.5,8.6ZM5.4,8.111H8.253V6.9H5.4Z" transform="translate(-1.52 -2.638)"/>
      <path id="Path_44295" data-name="Path 44295" d="M15.822,8.6H12.48a.242.242,0,0,1-.242-.242v-1.7a.242.242,0,0,1,.242-.242h3.342a.242.242,0,0,1,.242.242v1.7A.242.242,0,0,1,15.822,8.6Zm-3.1-.484H15.58V6.9H12.722Z" transform="translate(0.114 -2.638)"/>
      <path id="Path_44296" data-name="Path 44296" d="M18.119,11.658H15.212a.242.242,0,0,1-.242-.242V10.3a.242.242,0,0,1,.242-.242h2.906a.242.242,0,0,1,.242.242v1.114A.242.242,0,0,1,18.119,11.658Zm-2.664-.484h2.422v-.63H15.455Z" transform="translate(0.724 -1.825)"/>
      <path id="Path_44297" data-name="Path 44297" d="M4.56,9.614A.236.236,0,0,1,4.481,9.6a1.216,1.216,0,0,0-.785,0,.242.242,0,0,1-.242-.048.793.793,0,0,1-.062-1.16.946.946,0,0,1,.649-.326h.1a.948.948,0,0,1,.652.325.794.794,0,0,1-.062,1.16A.242.242,0,0,1,4.56,9.614Zm-.472-.563a1.664,1.664,0,0,1,.388.046.287.287,0,0,0,.045-.13.363.363,0,0,0-.1-.257.461.461,0,0,0-.312-.16H4.059a.458.458,0,0,0-.305.162.363.363,0,0,0-.1.257A.291.291,0,0,0,3.7,9.1,1.667,1.667,0,0,1,4.088,9.051Z" transform="translate(-1.909 -2.27)"/>
      <path id="Path_44298" data-name="Path 44298" d="M21.466,17.039H2.381a.242.242,0,0,1,0-.484H21.466a.242.242,0,0,1,0,.484Z" transform="translate(-2.139 -0.376)"/>
      <path id="Path_44299" data-name="Path 44299" d="M18.119,18.284H15.212a.242.242,0,0,1-.242-.242v-6.83a.242.242,0,0,1,.242-.242h2.906a.242.242,0,0,1,.242.242v6.83A.242.242,0,0,1,18.119,18.284ZM15.455,17.8h2.422V11.455H15.455Z" transform="translate(0.724 -1.622)"/>
      <path id="Path_44300" data-name="Path 44300" d="M15.822,19.3H12.48a.242.242,0,0,1-.242-.242V6.658a.242.242,0,0,1,.242-.242h3.342a.242.242,0,0,1,.242.242v12.4A.242.242,0,0,1,15.822,19.3Zm-3.1-.484H15.58V6.9H12.722Z" transform="translate(0.114 -2.638)"/>
      <path id="Path_44301" data-name="Path 44301" d="M5.683,18.284H2.777a.242.242,0,0,1-.242-.242v-6.83a.242.242,0,0,1,.242-.242H5.683a.242.242,0,0,1,.242.242v6.83A.242.242,0,0,1,5.683,18.284ZM3.019,17.8H5.441V11.455H3.019Z" transform="translate(-2.05 -1.622)"/>
      <path id="Path_44302" data-name="Path 44302" d="M13.5,18.284H7.886a.242.242,0,0,1-.242-.242v-6.83a.242.242,0,0,1,.242-.242H13.5a.242.242,0,0,1,.242.242v6.83A.242.242,0,0,1,13.5,18.284ZM8.128,17.8h5.134V11.455H8.128Z" transform="translate(-0.911 -1.622)"/>
      <path id="Path_44303" data-name="Path 44303" d="M5.683,11.923H2.777a.242.242,0,0,1-.242-.242V10.567a1.7,1.7,0,0,1,3.391,0v1.114A.242.242,0,0,1,5.683,11.923Zm-2.664-.484H5.441v-.872a1.211,1.211,0,1,0-2.422,0Z" transform="translate(-2.05 -2.09)"/>
      <path id="Path_44304" data-name="Path 44304" d="M18.119,11.923H15.212a.242.242,0,0,1-.242-.242V10.567a1.7,1.7,0,0,1,3.391,0v1.114A.242.242,0,0,1,18.119,11.923Zm-2.664-.484h2.422v-.872a1.211,1.211,0,0,0-2.422,0Z" transform="translate(0.724 -2.09)"/>
      <path id="Path_44305" data-name="Path 44305" d="M15.822,7.262H12.48a.242.242,0,0,1-.242-.242V6.705a1.913,1.913,0,0,1,3.827,0V7.02A.242.242,0,0,1,15.822,7.262Zm-3.1-.484H15.58V6.705a1.429,1.429,0,0,0-2.858,0Z" transform="translate(0.114 -3)"/>
      <path id="Path_44306" data-name="Path 44306" d="M12.139,6.933H8.8a.242.242,0,0,1-.242-.242v-.9a1.913,1.913,0,1,1,3.827,0v.9A.242.242,0,0,1,12.139,6.933Zm-3.1-.484H11.9V5.795a1.429,1.429,0,0,0-2.858,0Z" transform="translate(-0.707 -3.203)"/>
      <path id="Path_44307" data-name="Path 44307" d="M8.5,19.3H5.153a.242.242,0,0,1-.242-.242V6.658a.242.242,0,0,1,.242-.242H8.5a.242.242,0,0,1,.242.242v12.4A.242.242,0,0,1,8.5,19.3Zm-3.1-.484H8.253V6.9H5.4Z" transform="translate(-1.52 -2.638)"/>
      <path id="Path_44308" data-name="Path 44308" d="M8.5,7.262H5.153a.242.242,0,0,1-.242-.242V6.705a1.913,1.913,0,0,1,3.827,0V7.02A.242.242,0,0,1,8.5,7.262ZM5.4,6.778H8.253V6.705a1.429,1.429,0,0,0-2.858,0Z" transform="translate(-1.52 -3)"/>
      <path id="Path_44309" data-name="Path 44309" d="M17,9.614a.236.236,0,0,1-.079-.014,1.216,1.216,0,0,0-.785,0,.242.242,0,0,1-.242-.048.793.793,0,0,1-.062-1.16.946.946,0,0,1,.649-.325h.1a.948.948,0,0,1,.652.325.792.792,0,0,1-.062,1.158A.242.242,0,0,1,17,9.614Zm-.472-.563a1.664,1.664,0,0,1,.39.046.287.287,0,0,0,.045-.13.363.363,0,0,0-.1-.257.461.461,0,0,0-.312-.16H16.5a.458.458,0,0,0-.309.16.363.363,0,0,0-.1.257.291.291,0,0,0,.045.13A1.667,1.667,0,0,1,16.524,9.051Z" transform="translate(0.865 -2.269)"/>
      <path id="Path_44310" data-name="Path 44310" d="M14.441,5.535a.236.236,0,0,1-.079-.014,1.216,1.216,0,0,0-.785,0,.242.242,0,0,1-.242-.048.793.793,0,0,1-.062-1.16.946.946,0,0,1,.649-.325h.1a.948.948,0,0,1,.652.325.794.794,0,0,1-.064,1.158A.242.242,0,0,1,14.441,5.535Zm-.472-.563a1.664,1.664,0,0,1,.39.046.287.287,0,0,0,.045-.13.363.363,0,0,0-.1-.257.461.461,0,0,0-.312-.16h-.048a.458.458,0,0,0-.309.16.363.363,0,0,0-.1.257.291.291,0,0,0,.045.13,1.667,1.667,0,0,1,.391-.045Z" transform="translate(0.295 -3.179)"/>
      <path id="Path_44311" data-name="Path 44311" d="M13.846,4.449a.242.242,0,0,1-.242-.242V3.965a.242.242,0,0,1,.484,0v.242a.242.242,0,0,1-.242.242Z" transform="translate(0.419 -3.238)"/>
      <path id="Path_44312" data-name="Path 44312" d="M7.115,5.535a.236.236,0,0,1-.079-.014,1.216,1.216,0,0,0-.785,0,.242.242,0,0,1-.242-.048.793.793,0,0,1-.062-1.16.946.946,0,0,1,.649-.325h.1a.948.948,0,0,1,.652.325.794.794,0,0,1-.064,1.158.242.242,0,0,1-.164.063Zm-.472-.563a1.664,1.664,0,0,1,.39.046.287.287,0,0,0,.045-.13.363.363,0,0,0-.1-.257.461.461,0,0,0-.312-.16H6.616a.458.458,0,0,0-.309.16.363.363,0,0,0-.1.257.291.291,0,0,0,.045.13,1.667,1.667,0,0,1,.391-.045Z" transform="translate(-1.339 -3.179)"/>
      <path id="Path_44313" data-name="Path 44313" d="M6.519,4.449a.242.242,0,0,1-.242-.242V3.965a.242.242,0,0,1,.484,0v.242a.242.242,0,0,1-.242.242Z" transform="translate(-1.215 -3.238)"/>
      <path id="Path_44314" data-name="Path 44314" d="M10.222,4.489a.242.242,0,0,1-.242-.242V3.569a.242.242,0,0,1,.484,0v.678A.242.242,0,0,1,10.222,4.489Z" transform="translate(-0.389 -3.327)"/>
      <path id="Path_44315" data-name="Path 44315" d="M16.4,8.529a.242.242,0,0,1-.242-.242V8.044a.242.242,0,1,1,.484,0v.242A.242.242,0,0,1,16.4,8.529Z" transform="translate(0.989 -2.328)"/>
      <path id="Path_44316" data-name="Path 44316" d="M3.965,8.529a.242.242,0,0,1-.242-.242V8.044a.242.242,0,0,1,.484,0v.242A.242.242,0,0,1,3.965,8.529Z" transform="translate(-1.785 -2.328)"/>
      <path id="Path_44317" data-name="Path 44317" d="M6.806,7.573H6.321a.242.242,0,0,1,0-.484h.484a.242.242,0,0,1,0,.484Z" transform="translate(-1.26 -2.487)"/>
      <path id="Path_44318" data-name="Path 44318" d="M13.787,13.475a.226.226,0,0,1-.048,0,.242.242,0,0,1-.045-.014.265.265,0,0,1-.042-.022.247.247,0,0,1-.037-.03.242.242,0,0,1-.03-.037.291.291,0,0,1-.022-.042.242.242,0,0,1-.014-.045.222.222,0,0,1,0-.048.226.226,0,0,1,0-.048.242.242,0,0,1,.014-.045.291.291,0,0,1,.022-.042.242.242,0,0,1,.03-.037.247.247,0,0,1,.037-.03.265.265,0,0,1,.042-.022.243.243,0,0,1,.294.089.291.291,0,0,1,.022.042.242.242,0,0,1,.014.045.226.226,0,0,1,0,.048.222.222,0,0,1,0,.048.242.242,0,0,1-.014.045.29.29,0,0,1-.022.042A.242.242,0,0,1,13.787,13.475Z" transform="translate(0.406 -1.171)"/>
      <path id="Path_44319" data-name="Path 44319" d="M6.5,13.475a.226.226,0,0,1-.048,0,.242.242,0,0,1-.045-.014.29.29,0,0,1-.042-.022.27.27,0,0,1-.037-.03.242.242,0,0,1-.03-.037.291.291,0,0,1-.022-.042.242.242,0,0,1-.014-.045.222.222,0,0,1,0-.048.226.226,0,0,1,0-.048.242.242,0,0,1,.014-.045A.291.291,0,0,1,6.3,13.1a.242.242,0,0,1,.03-.037.27.27,0,0,1,.037-.03.291.291,0,0,1,.042-.022A.243.243,0,0,1,6.7,13.1a.291.291,0,0,1,.022.042.242.242,0,0,1,.014.045.226.226,0,0,1,0,.048.222.222,0,0,1,0,.048.242.242,0,0,1-.014.045.29.29,0,0,1-.022.042A.242.242,0,0,1,6.5,13.475Z" transform="translate(-1.22 -1.171)"/>
      <path id="Path_44320" data-name="Path 44320" d="M3.965,12.366a.226.226,0,0,1-.048,0,.242.242,0,0,1-.045-.014.29.29,0,0,1-.042-.022.242.242,0,0,1-.107-.2.226.226,0,0,1,0-.048.242.242,0,0,1,.014-.045.291.291,0,0,1,.022-.042.235.235,0,0,1,.067-.067.291.291,0,0,1,.042-.022.243.243,0,0,1,.294.089.291.291,0,0,1,.022.042.242.242,0,0,1,.014.045.226.226,0,0,1,0,.048A.242.242,0,0,1,3.965,12.366Z" transform="translate(-1.785 -1.419)"/>
      <path id="Path_44321" data-name="Path 44321" d="M16.4,12.366a.226.226,0,0,1-.048,0,.242.242,0,0,1-.045-.014.29.29,0,0,1-.042-.022.242.242,0,0,1-.107-.2.226.226,0,0,1,0-.048.242.242,0,0,1,.014-.045.291.291,0,0,1,.022-.042.235.235,0,0,1,.067-.067.29.29,0,0,1,.042-.022.243.243,0,0,1,.294.089.291.291,0,0,1,.022.042.242.242,0,0,1,.014.045.226.226,0,0,1,0,.048A.242.242,0,0,1,16.4,12.366Z" transform="translate(0.989 -1.419)"/>
      <path id="Path_44322" data-name="Path 44322" d="M10.183,7.891a.242.242,0,0,1-.242-.242V6.777a.242.242,0,0,1,.484,0v.872A.242.242,0,0,1,10.183,7.891Z" transform="translate(-0.398 -2.611)"/>
      <path id="Path_44323" data-name="Path 44323" d="M10.183,12.445a.242.242,0,0,1-.242-.242v-.872a.242.242,0,0,1,.484,0V12.2A.242.242,0,0,1,10.183,12.445Z" transform="translate(-0.398 -1.595)"/>
      <path id="Path_44324" data-name="Path 44324" d="M9.43,12.445a.242.242,0,0,1-.242-.242v-.872a.242.242,0,0,1,.484,0V12.2A.242.242,0,0,1,9.43,12.445Z" transform="translate(-0.566 -1.595)"/>
      <path id="Path_44325" data-name="Path 44325" d="M8.678,12.445a.242.242,0,0,1-.242-.242v-.872a.242.242,0,0,1,.484,0V12.2a.242.242,0,0,1-.242.242Z" transform="translate(-0.734 -1.595)"/>
      <path id="Path_44326" data-name="Path 44326" d="M7.212,12.445A.242.242,0,0,1,6.97,12.2v-.872a.242.242,0,0,1,.484,0V12.2A.242.242,0,0,1,7.212,12.445Z" transform="translate(-1.061 -1.595)"/>
      <path id="Path_44327" data-name="Path 44327" d="M6.5,12.445a.242.242,0,0,1-.242-.242v-.872a.242.242,0,0,1,.484,0V12.2a.242.242,0,0,1-.242.242Z" transform="translate(-1.22 -1.595)"/>
      <path id="Path_44328" data-name="Path 44328" d="M5.787,12.445a.242.242,0,0,1-.242-.242v-.872a.242.242,0,0,1,.484,0V12.2A.242.242,0,0,1,5.787,12.445Z" transform="translate(-1.379 -1.595)"/>
      <path id="Path_44329" data-name="Path 44329" d="M10.935,12.445a.242.242,0,0,1-.242-.242v-.872a.242.242,0,0,1,.484,0V12.2A.242.242,0,0,1,10.935,12.445Z" transform="translate(-0.23 -1.595)"/>
      <path id="Path_44330" data-name="Path 44330" d="M11.688,12.445a.242.242,0,0,1-.242-.242v-.872a.242.242,0,0,1,.484,0V12.2A.242.242,0,0,1,11.688,12.445Z" transform="translate(-0.063 -1.595)"/>
      <path id="Path_44331" data-name="Path 44331" d="M13.113,12.445a.242.242,0,0,1-.242-.242v-.872a.242.242,0,1,1,.484,0V12.2A.242.242,0,0,1,13.113,12.445Z" transform="translate(0.256 -1.595)"/>
      <path id="Path_44332" data-name="Path 44332" d="M13.826,12.445a.242.242,0,0,1-.242-.242v-.872a.242.242,0,0,1,.484,0V12.2A.242.242,0,0,1,13.826,12.445Z" transform="translate(0.415 -1.595)"/>
      <path id="Path_44333" data-name="Path 44333" d="M14.539,12.445A.242.242,0,0,1,14.3,12.2v-.872a.242.242,0,0,1,.484,0V12.2A.242.242,0,0,1,14.539,12.445Z" transform="translate(0.574 -1.595)"/>
      <path id="Path_44334" data-name="Path 44334" d="M9.47,7.891a.242.242,0,0,1-.242-.242V6.777a.242.242,0,0,1,.484,0v.872A.242.242,0,0,1,9.47,7.891Z" transform="translate(-0.557 -2.611)"/>
      <path id="Path_44335" data-name="Path 44335" d="M10.9,7.891a.242.242,0,0,1-.242-.242V6.777a.242.242,0,0,1,.484,0v.872A.242.242,0,0,1,10.9,7.891Z" transform="translate(-0.239 -2.611)"/>
      <path id="Path_44336" data-name="Path 44336" d="M14.133,7.573h-.484a.242.242,0,0,1,0-.484h.484a.242.242,0,1,1,0,.484Z" transform="translate(0.375 -2.487)"/>
      <path id="Path_44337" data-name="Path 44337" d="M17.456,8.286H5.153a.242.242,0,0,1,0-.484h12.3a.242.242,0,0,1,0,.484Z" transform="translate(-1.52 -2.328)"/>
      <path id="Path_44338" data-name="Path 44338" d="M12.579,11.905H8.559a.242.242,0,0,1-.242-.242V11.2a2.252,2.252,0,1,1,4.5,0v.46A.242.242,0,0,1,12.579,11.905ZM8.8,11.421h3.536V11.2a1.768,1.768,0,1,0-3.536,0Z" transform="translate(-0.76 -2.072)"/>
      <path id="Path_44339" data-name="Path 44339" d="M11.712,17.623H9.044V15.268a1.334,1.334,0,0,1,2.277-.943c.022.022.042.044.06.065a1.33,1.33,0,0,1,.33.878Zm-2.183-.484h1.7V15.268a.848.848,0,0,0-.211-.56c-.013-.015-.025-.028-.037-.04a.85.85,0,0,0-1.45.6Z" transform="translate(-0.598 -0.96)"/>
      <path id="Path_44340" data-name="Path 44340" d="M11.226,15.32l-.133-.154c-.012-.014-.024-.026-.036-.039a.85.85,0,0,0-1.224.023L9.7,15.3l-.17-.108a1.792,1.792,0,1,1,1.874.027Zm-.77-.926a1.323,1.323,0,0,1,.845.3,1.309,1.309,0,1,0-1.662-.025,1.34,1.34,0,0,1,.817-.279Z" transform="translate(-0.677 -1.418)"/>
    </g>
  </g>
</svg>
