<svg width="24" height="24" viewBox="0 0 24 24" fill="none" xmlns="http://www.w3.org/2000/svg">
<g clip-path="url(#clip0_896_10410)">
<path d="M4.727 17.384V11.055M8.363 17.383V11.055M12 17.384V11.055M15.636 17.383V11.055M19.272 17.383V11.055M2 21H22M13.364 7.439C13.3656 7.70911 13.2869 7.97361 13.138 8.19897C12.9891 8.42433 12.7766 8.6004 12.5275 8.70486C12.2785 8.80933 12.0039 8.83748 11.7388 8.78576C11.4737 8.73404 11.2299 8.60476 11.0384 8.41433C10.8468 8.22389 10.7161 7.98087 10.6628 7.71606C10.6095 7.45125 10.6361 7.17659 10.7391 6.92689C10.8421 6.67718 11.0169 6.46368 11.2414 6.31344C11.4659 6.16321 11.7299 6.08301 12 6.083C12.1786 6.08248 12.3556 6.11713 12.5208 6.18499C12.686 6.25285 12.8362 6.35259 12.9628 6.47851C13.0895 6.60442 13.1901 6.75405 13.2589 6.91886C13.3278 7.08366 13.3635 7.2604 13.364 7.439ZM12.336 3.054L20.518 6.309C20.6814 6.38319 20.8213 6.50088 20.9224 6.6492C21.0234 6.79752 21.0818 6.97077 21.091 7.15V10.15C21.0886 10.3895 20.9918 10.6184 20.8216 10.787C20.6514 10.9555 20.4215 11.05 20.182 11.05H3.818C3.57847 11.05 3.34862 10.9555 3.1784 10.787C3.00819 10.6184 2.91137 10.3895 2.909 10.15V7.15C2.91825 6.97077 2.97659 6.79752 3.07764 6.6492C3.1787 6.50088 3.31858 6.38319 3.482 6.309L11.664 3.054C11.8822 2.98184 12.1178 2.98184 12.336 3.054ZM21.091 21H2.909V18.288C2.91137 18.0485 3.00819 17.8196 3.1784 17.6511C3.34862 17.4825 3.57847 17.388 3.818 17.388H20.182C20.4215 17.388 20.6514 17.4825 20.8216 17.6511C20.9918 17.8196 21.0886 18.0485 21.091 18.288V21Z" stroke="white" stroke-width="1.5" stroke-miterlimit="10" stroke-linecap="round" stroke-linejoin="round"/>
</g>
<defs>
<clipPath id="clip0_896_10410">
<rect width="24" height="24" fill="white"/>
</clipPath>
</defs>
</svg>
