<svg id="icon_menu_normal_7" xmlns="http://www.w3.org/2000/svg" width="24" height="24" viewBox="0 0 24 24">
  <rect id="background" width="24" height="24" fill="none"/>
  <g id="Group_23575" data-name="Group 23575" transform="translate(1.5 2)">
    <path id="Path_32189" data-name="Path 32189" d="M8,20h.5v-.5H8Zm0-5.5a.5.5,0,0,0,0-1Zm-2.5-5a.5.5,0,0,0,0-1ZM8.836,6.3a.5.5,0,0,0,.734-.679ZM11.5,20A1.5,1.5,0,0,1,10,21.5v1A2.5,2.5,0,0,0,12.5,20ZM10,21.5A1.5,1.5,0,0,1,8.5,20h-1A2.5,2.5,0,0,0,10,22.5Zm-2-2A2.5,2.5,0,0,1,5.5,17h-1A3.5,3.5,0,0,0,8,20.5ZM5.5,17a2.5,2.5,0,0,1,.147-.846l-.941-.338A3.5,3.5,0,0,0,4.5,17Zm.147-.846A2.5,2.5,0,0,1,8,14.5v-1a3.5,3.5,0,0,0-3.295,2.316ZM5.5,15.5q-.141,0-.278-.013l-.091,1q.183.017.37.017Zm-.278-.013A3,3,0,0,1,2.5,12.5h-1a4,4,0,0,0,3.63,3.983ZM2.5,12.5a3,3,0,0,1,3-3v-1a4,4,0,0,0-4,4ZM4.5,8A2.5,2.5,0,0,1,7,5.5v-1A3.5,3.5,0,0,0,3.5,8ZM7,5.5a2.492,2.492,0,0,1,1.836.8l.734-.679A3.492,3.492,0,0,0,7,4.5ZM4.489,8.893s0-.005,0-.03,0-.052,0-.089c0-.073,0-.161,0-.256,0-.169.017-.4.017-.519h-1c0,.1-.01.266-.017.491a2.92,2.92,0,0,0,.028.616ZM8.5,5A1.5,1.5,0,0,1,10,3.5v-1A2.5,2.5,0,0,0,7.5,5ZM10,3.5A1.5,1.5,0,0,1,11.5,5h1A2.5,2.5,0,0,0,10,2.5ZM11.5,5V20h1V5Z" transform="translate(-1.5 -2.5)" fill="#454545"/>
    <path id="Path_32190" data-name="Path 32190" d="M14.75,8.2V6m0,2.2H16.5m-1.75,0H12M14.75,6a1,1,0,1,0-1-1A1,1,0,0,0,14.75,6ZM16.5,8.2h0a1,1,0,0,1,1,1h0m-1-1v-2h2m-1,3H19l1.5-1m-3,1v2.5m3-3.5a1,1,0,1,0,1-1A1,1,0,0,0,20.5,8.2Zm-3,3.5h3m-3,0v3m3-3a1,1,0,1,0,1-1A1,1,0,0,0,20.5,11.7Zm-3,3h0a1,1,0,0,1-1,1h0m1-1H19l1.5,1m0,0a1,1,0,1,0,1-1A1,1,0,0,0,20.5,15.7Zm-4,0v2H18m-1.5-2H14m4,2a1,1,0,1,0,1-1A1,1,0,0,0,18,17.7Zm-4-2v1.5m0-1.5H12.12M14,17.2a1,1,0,1,0,1,1A1,1,0,0,0,14,17.2ZM18,5.7a1,1,0,1,0,1-1A1,1,0,0,0,18,5.7Z" transform="translate(-1.5 -2.5)" fill="none" stroke="#454545" stroke-width="1"/>
  </g>
</svg>
