<svg width="52" height="52" viewBox="0 0 52 52" fill="none" xmlns="http://www.w3.org/2000/svg">
<path d="M44.6908 1.62354C44.0871 1.62339 43.4894 1.74211 42.9317 1.973C42.3739 2.20389 41.8671 2.54234 41.4402 2.9691C41.0133 3.39586 40.6747 3.90256 40.4436 4.46021C40.2125 5.01786 40.0935 5.61561 40.0935 6.21924C40.0955 6.85385 40.229 7.48111 40.4854 8.06159C36.283 11.56 32.6124 14.6024 28.7391 17.7608C27.7578 18.4891 28.8766 19.6443 29.4929 19.2049C33.272 16.1359 37.7701 12.4365 41.4122 9.43902C41.8399 9.8746 42.3501 10.2206 42.9131 10.4569C43.476 10.6931 44.0803 10.8147 44.6908 10.8149C45.9096 10.8147 47.0784 10.3306 47.9403 9.46873C48.8021 8.6069 49.2863 7.43806 49.2865 6.21924C49.2863 5.00043 48.8021 3.8315 47.9403 2.96966C47.0784 2.10783 45.9096 1.62367 44.6908 1.62354Z" fill="#55A1FF"/>
<path d="M10.3103 13.9856C9.49985 13.9641 9.14527 15.2257 9.91515 15.5249C13.8918 17.0851 17.8312 18.6477 21.4171 20.0619C21.409 20.1633 21.4042 20.2648 21.4028 20.3665C21.4029 21.5853 21.8872 22.7543 22.749 23.6161C23.6108 24.4779 24.7797 24.9621 25.9985 24.9622C27.2173 24.9621 28.3862 24.4779 29.248 23.6161C30.1099 22.7543 30.5941 21.5853 30.5942 20.3665C30.5941 19.1477 30.1099 17.9789 29.248 17.117C28.3862 16.2552 27.2173 15.7709 25.9985 15.7708C25.1122 15.7716 24.245 16.0287 23.5015 16.511C22.7579 16.9933 22.1696 17.6802 21.8075 18.4892C18.204 17.091 14.1515 15.4718 10.6832 14.0792C10.5508 14.0175 10.4261 13.9887 10.3103 13.9856Z" fill="#EF6356"/>
<path d="M4.06104 24.2417H10.6315C11.9818 24.2417 13.069 25.3289 13.069 26.6792V47.936C13.069 49.2863 11.9818 50.3734 10.6315 50.3734H4.06104C2.71066 50.3734 1.62354 49.2863 1.62354 47.936V26.6792C1.62354 25.3289 2.71066 24.2417 4.06104 24.2417Z" fill="#FFC861"/>
<path d="M22.7134 31.3025H29.2838C30.6342 31.3025 31.7213 32.3896 31.7213 33.74V47.9361C31.7213 49.2865 30.6342 50.3736 29.2838 50.3736H22.7134C21.363 50.3736 20.2759 49.2865 20.2759 47.9361V33.74C20.2759 32.3896 21.363 31.3025 22.7134 31.3025Z" fill="#EF6356"/>
<path d="M41.4053 15.3008H47.9757C49.3261 15.3008 50.4132 16.3878 50.4132 17.7382V47.936C50.4132 49.2864 49.3261 50.3735 47.9757 50.3735H41.4053C40.0549 50.3735 38.9678 49.2864 38.9678 47.936V17.7382C38.9678 16.3878 40.0549 15.3008 41.4053 15.3008Z" fill="#55A1FF"/>
<path d="M11.9424 13.5503C11.9424 14.1539 11.8235 14.7516 11.5925 15.3092C11.3615 15.8669 11.023 16.3735 10.5962 16.8003C10.1694 17.2271 9.66272 17.5656 9.10508 17.7966C8.54744 18.0276 7.94977 18.1465 7.34619 18.1465C6.74261 18.1465 6.14494 18.0276 5.58731 17.7966C5.02967 17.5656 4.52299 17.2271 4.09619 16.8003C3.6694 16.3735 3.33084 15.8669 3.09986 15.3092C2.86888 14.7516 2.75 14.1539 2.75 13.5503C2.75 12.9467 2.86888 12.3491 3.09986 11.7914C3.33084 11.2338 3.6694 10.7271 4.09619 10.3003C4.52299 9.87353 5.02967 9.53492 5.58731 9.30394C6.14494 9.07296 6.74261 8.9541 7.34619 8.9541C7.94977 8.9541 8.54744 9.07296 9.10508 9.30394C9.66272 9.53492 10.1694 9.87353 10.5962 10.3003C11.023 10.7271 11.3615 11.2338 11.5925 11.7914C11.8235 12.3491 11.9424 12.9467 11.9424 13.5503Z" fill="#FFC861"/>
<path d="M39.0308 47.808V48.013C39.0308 49.3655 40.1196 50.4544 41.4721 50.4544H46.9762C47.1701 50.2127 47.291 49.9207 47.3248 49.6127C47.3585 49.3047 47.3036 48.9935 47.1666 48.7156C47.0296 48.4377 46.8161 48.2047 46.5512 48.0439C46.2863 47.8832 45.9811 47.8013 45.6713 47.808H39.0308Z" fill="#488BFF"/>
<path d="M20.3091 47.8081V48.0131C20.3091 48.6894 20.5815 49.2996 21.0227 49.7408C21.464 50.1821 22.0742 50.4545 22.7504 50.4545H29.3306C30.0068 50.4545 30.617 50.1821 31.0583 49.7408C31.4996 49.2996 31.7719 48.6894 31.7719 48.0131V47.8081H20.3091Z" fill="#D85750"/>
<path d="M6.76903 50.4542H10.6488C11.325 50.4542 11.9352 50.1819 12.3765 49.7406C12.8177 49.2993 13.0901 48.6892 13.0901 48.0129V47.8079H8.03579C7.72926 47.8085 7.42914 47.8956 7.16995 48.0593C6.91076 48.2229 6.70304 48.4564 6.57069 48.7329C6.43835 49.0094 6.38675 49.3176 6.42183 49.6222C6.45692 49.9267 6.57727 50.2151 6.76903 50.4542Z" fill="#FFAB61"/>
</svg>
