<svg width="32" height="32" viewBox="0 0 32 32" fill="none" xmlns="http://www.w3.org/2000/svg">
<rect width="32" height="32" rx="5" fill="white"/>
<path d="M27.613 14.9739C27.3992 14.9739 27.2259 15.1518 27.2259 15.3713V21.177C27.2259 21.829 26.7091 22.3594 26.074 22.3594L25.1264 22.3587C25.9571 21.6834 26.4916 20.6401 26.4916 19.4704V15.0006C26.4916 14.4981 26.2723 14.0474 25.9272 13.7432C26.4655 13.3865 26.823 12.7658 26.823 12.0607C26.823 10.957 25.9483 10.0592 24.8732 10.0592C23.7982 10.0592 22.9235 10.957 22.9235 12.0607C22.9235 12.7665 23.2815 13.3877 23.8207 13.7442C23.4746 14.0484 23.2548 14.4986 23.2548 15.0006V15.181L22.2726 15.8317H18.6725C18.0234 15.8317 17.4954 16.3737 17.4954 17.0399C17.4954 17.1853 17.5199 17.3243 17.5649 17.4531H14.4335C14.4791 17.3223 14.5047 17.1817 14.5047 17.0351C14.5047 16.3688 13.9767 15.8268 13.3276 15.8268H9.7275L8.74528 15.1761V15.0006C8.74528 14.4986 8.52546 14.0484 8.1794 13.7441C8.71853 13.3877 9.07659 12.7665 9.07659 12.0606C9.07659 10.957 8.2019 10.0591 7.12683 10.0591C6.05176 10.0591 5.17707 10.957 5.17707 12.0606C5.17707 12.7658 5.53445 13.3865 6.07276 13.7431C5.72766 14.0474 5.50842 14.498 5.50842 15.0006V19.4703C5.50842 20.6401 6.043 21.6835 6.87381 22.3588L5.926 22.3593C5.29092 22.3594 4.7742 21.829 4.7742 21.1769V15.3713C4.7742 15.1518 4.60087 14.9739 4.3871 14.9739C4.17332 14.9739 4 15.1518 4 15.3713V21.177C4 22.2672 4.864 23.1541 5.926 23.1541H7.77043V27.6026C7.77043 27.8221 7.94375 28 8.15752 28H9.1963C9.41008 28 9.5834 27.8221 9.5834 27.6026V23.1541H10.1506C10.22 23.1541 10.3825 23.1541 10.5179 23.6272L11.6882 27.7147C11.7367 27.8838 11.8879 28 12.0596 28H19.9404C20.1121 28 20.2633 27.8838 20.3118 27.7147L21.4821 23.6272C21.6175 23.1541 21.78 23.1541 21.8494 23.1541H22.4166V27.6026C22.4166 27.8221 22.5899 28 22.8037 28H23.8425C24.0563 28 24.2296 27.8221 24.2296 27.6026V23.1541H26.0739C27.136 23.1541 28 22.2672 28 21.177V15.3713C28 15.1518 27.8267 14.9739 27.613 14.9739ZM24.8732 10.8539C25.5214 10.8539 26.0488 11.3952 26.0488 12.0607C26.0488 12.7261 25.5214 13.2675 24.8732 13.2675C24.225 13.2675 23.6977 12.7261 23.6977 12.0607C23.6977 11.3952 24.225 10.8539 24.8732 10.8539ZM18.2696 17.0399C18.2696 16.8119 18.4503 16.6264 18.6725 16.6264H22.3867C22.4611 16.6264 22.534 16.6044 22.5965 16.5629L23.9885 15.6408C24.1748 15.5182 24.4234 15.5739 24.5429 15.765C24.6623 15.9561 24.6081 16.2114 24.4212 16.3346L22.8331 17.3865C22.7681 17.4293 22.6928 17.4522 22.6153 17.4526L18.657 17.4531C18.4394 17.4448 18.2696 17.2641 18.2696 17.0399ZM12.7466 22.4286C12.4816 21.7555 12.1825 21.2403 11.8293 20.8436C11.2229 20.1625 10.462 19.8314 9.50288 19.8314H9.09687C8.90627 19.8314 8.74519 19.6661 8.74519 19.4704V18.0481L8.74867 18.0504C8.93786 18.1751 9.15687 18.2415 9.38196 18.2425H9.38259L10.3444 18.245V19.0045C10.3444 19.2239 10.5177 19.4019 10.7315 19.4019H12.7466V22.4286H12.7466ZM11.1187 18.6072V18.2479H20.8814V18.6072H11.1187ZM19.2534 19.402H21.2685C21.4823 19.402 21.6556 19.224 21.6556 19.0046V18.2476L22.6164 18.2474H22.618C22.8431 18.2464 23.0621 18.18 23.2521 18.0549L23.2548 18.053V19.4704C23.2548 19.6661 23.0938 19.8314 22.9031 19.8314H22.4971C21.538 19.8314 20.7771 20.1625 20.1707 20.8437C19.8176 21.2404 19.5185 21.7555 19.2534 22.4286V19.402ZM9.61345 16.6215H13.3276C13.5497 16.6215 13.7305 16.807 13.7305 17.0351C13.7305 17.2451 13.5899 17.4214 13.4006 17.4531L9.38482 17.4478C9.3073 17.4473 9.23196 17.4245 9.16775 17.3822L7.57814 16.3292C7.39199 16.2065 7.33775 15.9513 7.45722 15.7601C7.51509 15.6675 7.60465 15.6037 7.70936 15.5802C7.81407 15.5567 7.9214 15.5765 8.01081 15.6355L9.40359 16.5581C9.46616 16.5995 9.53898 16.6215 9.61345 16.6215ZM7.12683 10.8539C7.77502 10.8539 8.3024 11.3952 8.3024 12.0607C8.3024 12.7261 7.77502 13.2675 7.12683 13.2675C6.47863 13.2675 5.95126 12.7261 5.95126 12.0607C5.95126 11.3952 6.47859 10.8539 7.12683 10.8539ZM8.54462 27.2053V23.1541H8.8092V27.2053H8.54462ZM11.2607 23.4031C11.0138 22.5405 10.5208 22.3594 10.1506 22.3594H9.09691C7.54509 22.3594 6.28262 21.0634 6.28262 19.4704V15.0006C6.28262 14.5248 6.65965 14.1378 7.1231 14.1378C7.51741 14.1378 7.84877 14.4134 7.94322 14.7851C7.81194 14.768 7.67743 14.7739 7.54436 14.8037C7.23764 14.8724 6.97528 15.0596 6.80568 15.3308C6.4556 15.8907 6.61451 16.6386 7.15915 16.9975L7.97109 17.5353V19.4704C7.97109 20.1076 8.47615 20.6261 9.09696 20.6261H9.50298C10.8911 20.6261 11.7111 21.4962 12.3335 23.6292L12.7467 25.0449V27.2053H12.3494L11.2607 23.4031ZM13.5208 27.2053V19.402H18.4792V27.2053H13.5208ZM20.7393 23.403L19.6507 27.2052H19.2534V25.0449L19.6666 23.6291C20.289 21.4961 21.1091 20.6261 22.4972 20.6261H22.9032C23.524 20.6261 24.0291 20.1076 24.0291 19.4703V17.5401L24.8402 17.0028C25.3855 16.6434 25.5445 15.8955 25.1944 15.3356C24.9416 14.9314 24.4916 14.7341 24.0554 14.791C24.1478 14.4164 24.4806 14.1378 24.877 14.1378C25.3404 14.1378 25.7175 14.5248 25.7175 15.0006V19.4704C25.7175 21.0634 24.455 22.3594 22.9032 22.3594H21.8495C21.4793 22.3594 20.9863 22.5405 20.7393 23.403ZM23.4554 27.2053H23.1908V23.1541H23.4554V27.2053ZM19.5306 11.3518C19.8792 11.3518 20.2227 11.3004 20.5535 11.1987L22.4126 11.7101C22.4458 11.7192 22.4794 11.7236 22.5128 11.7236C22.6141 11.7236 22.713 11.6827 22.7865 11.6072C22.8843 11.5068 22.9225 11.3605 22.8867 11.2233L22.4953 9.72385C22.8876 9.12243 23.0939 8.42474 23.0939 7.69392C23.0939 5.67696 21.4954 4.03601 19.5305 4.03601C17.5657 4.03601 15.9673 5.67696 15.9673 7.69392C15.9673 9.71089 17.5658 11.3518 19.5306 11.3518ZM19.5306 4.83081C21.0685 4.83081 22.3197 6.11521 22.3197 7.69397C22.3197 8.31785 22.1278 8.91068 21.7646 9.40844C21.6934 9.50604 21.6698 9.63176 21.7005 9.74953L21.9654 10.7643L20.6446 10.401C20.6118 10.392 20.5781 10.3875 20.5444 10.3875C20.5026 10.3875 20.4609 10.3945 20.4209 10.4083C20.135 10.5071 19.8354 10.5572 19.5306 10.5572C17.9928 10.5572 16.7416 9.27278 16.7416 7.69402C16.7416 6.11526 17.9927 4.83081 19.5306 4.83081ZM9.02637 10.1638H9.27043V11.3263C9.27043 11.4884 9.36643 11.6343 9.513 11.6949C9.55988 11.7142 9.60885 11.7236 9.65743 11.7236C9.76079 11.7236 9.86221 11.6811 9.93667 11.6015L11.2821 10.1638H14.4896C15.1143 10.1638 15.6227 9.64209 15.6227 9.00073V5.16311C15.6227 4.5218 15.1144 4 14.4896 4H9.02637C8.40164 4 7.89333 4.52175 7.89333 5.16311V9.00078C7.89333 9.64209 8.40164 10.1638 9.02637 10.1638ZM8.66753 5.16311C8.66753 4.96 8.82851 4.79474 9.02637 4.79474H14.4897C14.6875 4.79474 14.8485 4.96 14.8485 5.16311V9.00078C14.8485 9.20389 14.6875 9.36915 14.4897 9.36915H11.1172C11.0119 9.36915 10.911 9.41325 10.8381 9.49124L10.0447 10.339V9.76652C10.0447 9.54707 9.87135 9.36915 9.65758 9.36915H9.02641C8.82856 9.36915 8.66757 9.20389 8.66757 9.00078L8.66753 5.16311ZM9.65738 7.99454C9.65738 7.77509 9.83071 7.59716 10.0445 7.59716H13.4715C13.6853 7.59716 13.8586 7.77509 13.8586 7.99454C13.8586 8.21398 13.6853 8.39191 13.4715 8.39191H10.0445C9.83066 8.39191 9.65738 8.21398 9.65738 7.99454ZM9.65738 6.16931C9.65738 5.94986 9.83071 5.77193 10.0445 5.77193H13.4715C13.6853 5.77193 13.8586 5.94986 13.8586 6.16931C13.8586 6.38875 13.6853 6.56668 13.4715 6.56668H10.0445C9.83066 6.56668 9.65738 6.3888 9.65738 6.16931ZM17.7213 6.78136C17.7213 6.56191 17.8946 6.38399 18.1084 6.38399H20.9528C21.1666 6.38399 21.3399 6.56191 21.3399 6.78136C21.3399 7.00081 21.1666 7.17873 20.9528 7.17873H18.1084C17.8946 7.17873 17.7213 7.00081 17.7213 6.78136ZM17.7213 8.60654C17.7213 8.38709 17.8946 8.20917 18.1084 8.20917H20.9528C21.1666 8.20917 21.3399 8.38709 21.3399 8.60654C21.3399 8.82599 21.1666 9.00391 20.9528 9.00391H18.1084C17.8946 9.00391 17.7213 8.82604 17.7213 8.60654Z" fill="url(#paint0_linear_6355_9193)"/>
<defs>
<linearGradient id="paint0_linear_6355_9193" x1="6.29389" y1="26.2515" x2="24.9456" y2="8.08206" gradientUnits="userSpaceOnUse">
<stop stop-color="#FCC60E"/>
<stop offset="1" stop-color="#E92E29"/>
</linearGradient>
</defs>
</svg>
