<svg width="60" height="60" viewBox="0 0 60 60" fill="none" xmlns="http://www.w3.org/2000/svg">
<rect width="60" height="60" rx="30" fill="white"/>
<path d="M20.2431 26.2075C20.2431 26.7859 20.3057 27.2548 20.4151 27.5987C20.5401 27.9426 20.6964 28.3178 20.9153 28.7242C20.9934 28.8493 21.0247 28.9743 21.0247 29.0837C21.0247 29.2401 20.9309 29.3964 20.7277 29.5527L19.7429 30.2092C19.6022 30.303 19.4615 30.3499 19.3365 30.3499C19.1802 30.3499 19.0239 30.2717 18.8675 30.1311C18.6487 29.8966 18.4611 29.6465 18.3048 29.3964C18.1485 29.1306 17.9922 28.8336 17.8202 28.4741C16.6009 29.9122 15.069 30.6313 13.2245 30.6313C11.9114 30.6313 10.8641 30.2561 10.0982 29.5058C9.3322 28.7555 8.94141 27.755 8.94141 26.5045C8.94141 25.1758 9.41036 24.0972 10.3639 23.2844C11.3174 22.4715 12.5836 22.0651 14.1937 22.0651C14.7251 22.0651 15.2722 22.112 15.8506 22.1902C16.429 22.2683 17.023 22.3934 17.6483 22.5341V21.3929C17.6483 20.2049 17.3982 19.3764 16.9136 18.8919C16.4134 18.4073 15.5692 18.1728 14.3656 18.1728C13.8185 18.1728 13.2558 18.2353 12.6774 18.376C12.099 18.5167 11.5363 18.6887 10.9892 18.9075C10.7391 19.0169 10.5515 19.0794 10.442 19.1107C10.3326 19.142 10.2545 19.1576 10.1919 19.1576C9.9731 19.1576 9.86368 19.0013 9.86368 18.673V17.9071C9.86368 17.657 9.89494 17.4694 9.9731 17.36C10.0513 17.2505 10.1919 17.1411 10.4108 17.0317C10.9579 16.7503 11.6144 16.5158 12.3804 16.3283C13.1463 16.1251 13.9592 16.0313 14.8189 16.0313C16.6791 16.0313 18.0391 16.4533 18.9144 17.2974C19.7742 18.1415 20.2119 19.4233 20.2119 21.1428V26.2075H20.2431ZM13.8967 28.5835C14.4125 28.5835 14.944 28.4897 15.5067 28.3021C16.0695 28.1146 16.5697 27.7707 16.9917 27.3017C17.2418 27.0047 17.4294 26.6765 17.5232 26.3013C17.617 25.9261 17.6795 25.4728 17.6795 24.9413V24.2848C17.2262 24.1754 16.7416 24.0816 16.2414 24.0191C15.7412 23.9565 15.2566 23.9253 14.772 23.9253C13.7247 23.9253 12.9588 24.1285 12.4429 24.5505C11.9271 24.9726 11.677 25.5666 11.677 26.3482C11.677 27.0829 11.8645 27.63 12.2553 28.0051C12.6305 28.3959 13.1776 28.5835 13.8967 28.5835ZM26.4489 30.2717C26.1675 30.2717 25.98 30.2248 25.8549 30.1154C25.7299 30.0216 25.6204 29.8028 25.5266 29.5058L21.8532 17.4225C21.7594 17.1099 21.7125 16.9066 21.7125 16.7972C21.7125 16.5471 21.8376 16.4064 22.0877 16.4064H23.6196C23.9166 16.4064 24.1198 16.4533 24.2292 16.5627C24.3543 16.6565 24.4481 16.8754 24.5418 17.1724L27.168 27.5206L29.6065 17.1724C29.6847 16.8597 29.7785 16.6565 29.9035 16.5627C30.0286 16.469 30.2474 16.4064 30.5288 16.4064H31.7793C32.0763 16.4064 32.2795 16.4533 32.4046 16.5627C32.5296 16.6565 32.6391 16.8754 32.7016 17.1724L35.1714 27.6456L37.8757 17.1724C37.9695 16.8597 38.0789 16.6565 38.1883 16.5627C38.3134 16.469 38.5166 16.4064 38.798 16.4064H40.2517C40.5018 16.4064 40.6425 16.5315 40.6425 16.7972C40.6425 16.8754 40.6269 16.9535 40.6112 17.0473C40.5956 17.1411 40.5643 17.2662 40.5018 17.4381L36.7346 29.5214C36.6408 29.8341 36.5314 30.0373 36.4063 30.1311C36.2813 30.2248 36.078 30.2874 35.8123 30.2874H34.468C34.171 30.2874 33.9678 30.2405 33.8427 30.1311C33.7177 30.0216 33.6082 29.8184 33.5457 29.5058L31.1228 19.4233L28.7155 29.4902C28.6373 29.8028 28.5436 30.006 28.4185 30.1154C28.2935 30.2248 28.0746 30.2717 27.7932 30.2717H26.4489ZM46.5356 30.6938C45.7228 30.6938 44.91 30.6 44.1284 30.4124C43.3468 30.2248 42.7371 30.0216 42.3307 29.7872C42.0806 29.6465 41.9087 29.4902 41.8461 29.3495C41.7836 29.2088 41.7523 29.0525 41.7523 28.9118V28.1146C41.7523 27.7863 41.8774 27.63 42.1119 27.63C42.2057 27.63 42.2995 27.6456 42.3932 27.6769C42.487 27.7081 42.6277 27.7707 42.784 27.8332C43.3155 28.0677 43.8939 28.2553 44.5035 28.3803C45.1288 28.5054 45.7384 28.5679 46.3637 28.5679C47.3485 28.5679 48.1144 28.3959 48.6459 28.052C49.1774 27.7081 49.4588 27.2079 49.4588 26.567C49.4588 26.1293 49.3181 25.7698 49.0367 25.4728C48.7553 25.1758 48.2239 24.9101 47.4579 24.66L45.1913 23.9565C44.0502 23.597 43.2061 23.0655 42.6903 22.3621C42.1744 21.6743 41.9087 20.9084 41.9087 20.0955C41.9087 19.439 42.0494 18.8606 42.3307 18.3604C42.6121 17.8602 42.9873 17.4225 43.4562 17.0786C43.9252 16.7191 44.4566 16.4533 45.0819 16.2657C45.7072 16.0782 46.3637 16 47.0515 16C47.3954 16 47.7549 16.0156 48.0988 16.0625C48.4583 16.1094 48.7866 16.1719 49.1149 16.2345C49.4275 16.3126 49.7245 16.3908 50.0059 16.4846C50.2873 16.5784 50.5061 16.6722 50.6624 16.766C50.8813 16.891 51.0376 17.0161 51.1314 17.1567C51.2252 17.2818 51.2721 17.4537 51.2721 17.6726V18.4073C51.2721 18.7355 51.147 18.9075 50.9125 18.9075C50.7875 18.9075 50.5843 18.845 50.3185 18.7199C49.4275 18.3135 48.4271 18.1103 47.3172 18.1103C46.4262 18.1103 45.7228 18.251 45.2382 18.548C44.7536 18.845 44.5035 19.2983 44.5035 19.9392C44.5035 20.3769 44.6598 20.752 44.9725 21.049C45.2851 21.346 45.8635 21.643 46.692 21.9088L48.9117 22.6122C50.0372 22.9717 50.85 23.472 51.3346 24.1129C51.8192 24.7538 52.0536 25.4884 52.0536 26.3013C52.0536 26.9735 51.913 27.5831 51.6472 28.1146C51.3658 28.646 50.9907 29.115 50.5061 29.4902C50.0215 29.881 49.4431 30.1623 48.771 30.3655C48.0676 30.5844 47.3329 30.6938 46.5356 30.6938Z" fill="#252F3E"/>
<path d="M49.492 38.2909C44.3491 42.0894 36.8772 44.1059 30.4526 44.1059C21.4487 44.1059 13.3358 40.7763 7.20822 35.2427C6.72363 34.805 7.16132 34.211 7.73969 34.5549C14.3675 38.4003 22.5429 40.7294 30.9997 40.7294C36.7052 40.7294 42.9735 39.5414 48.7416 37.1029C49.6014 36.7121 50.3361 37.6656 49.492 38.2909Z" fill="#FF9900"/>
<path d="M51.6335 35.8522C50.977 35.0081 47.2879 35.4458 45.6153 35.649C45.1151 35.7115 45.0369 35.2738 45.4903 34.9456C48.429 32.8822 53.2592 33.4762 53.822 34.164C54.3847 34.8674 53.6656 39.6976 50.9145 42.0111C50.4924 42.3706 50.086 42.1831 50.2736 41.7141C50.8988 40.1666 52.29 36.6807 51.6335 35.8522Z" fill="#FF9900"/>
</svg>
