<svg width="24" height="24" viewBox="0 0 24 24" fill="none" xmlns="http://www.w3.org/2000/svg">
<g clip-path="url(#clip0_896_10395)">
<path d="M11.571 3L10 4.684C9.9102 4.78298 9.86045 4.91185 9.86045 5.0455C9.86045 5.17915 9.9102 5.30802 10 5.407L11.575 7.091M19.286 21L20.857 19.32C20.9468 19.221 20.9966 19.0922 20.9966 18.9585C20.9966 18.8248 20.9468 18.696 20.857 18.597L19.282 16.913M10.711 5.049C12.7102 5.00365 14.6456 5.75377 16.092 7.13457C17.5384 8.51536 18.3775 10.4139 18.425 12.413C18.4112 13.7856 18.0124 15.1267 17.274 16.2838C16.5355 17.4409 15.4871 18.3674 14.248 18.958C13.1472 19.499 11.9375 19.7789 10.711 19.776H3.857M14.252 18.958H21M7.714 5.623C6.34017 6.15364 5.15682 7.08372 4.31659 8.29327C3.47636 9.50281 3.01778 10.9364 3 12.409C3.00433 14.2845 3.74436 16.0834 5.061 17.419" stroke="white" stroke-width="2" stroke-miterlimit="10" stroke-linecap="round" stroke-linejoin="round"/>
</g>
<defs>
<clipPath id="clip0_896_10395">
<rect width="24" height="24" fill="white"/>
</clipPath>
</defs>
</svg>
