<svg width="52" height="52" viewBox="0 0 52 52" fill="none" xmlns="http://www.w3.org/2000/svg">
<g clip-path="url(#clip0_8888_27340)">
<mask id="mask0_8888_27340" style="mask-type:luminance" maskUnits="userSpaceOnUse" x="0" y="0" width="52" height="52">
<path d="M0 3.8147e-06H52V52H0V3.8147e-06Z" fill="white"/>
</mask>
<g mask="url(#mask0_8888_27340)">
<path d="M0.761719 14.3403L24.5227 1.16768C25.4417 0.658242 26.5583 0.658242 27.4773 1.16768L51.2383 14.3403H0.761719Z" fill="#AEE69C"/>
<path d="M27.4773 1.16768C26.5583 0.658242 25.4417 0.658242 24.5227 1.16768L24.0703 1.41844L47.3789 14.3403H51.2383L27.4773 1.16768Z" fill="#89DAA4"/>
<path d="M33.9664 32.7893C33.9664 37.1889 30.3997 40.7556 26.0001 40.7556C21.6003 40.7556 18.0337 37.1889 18.0337 32.7893C18.0337 28.3896 21.6003 24.8229 26.0001 24.8229C30.3997 24.8229 33.9664 28.3896 33.9664 32.7893Z" fill="#FFE179"/>
<path d="M26 24.8229C25.4788 24.8229 24.9699 24.8745 24.4766 24.9701C28.1473 25.6812 30.9195 28.9108 30.9195 32.7893C30.9195 36.6677 28.1473 39.8973 24.4766 40.6085C24.9699 40.704 25.4788 40.7556 26 40.7556C30.3997 40.7556 33.9664 37.1889 33.9664 32.7893C33.9664 28.3896 30.3997 24.8229 26 24.8229Z" fill="#FBD268"/>
<path d="M28.7422 8.12451C28.7422 9.63901 27.5145 10.8667 26 10.8667C24.4855 10.8667 23.2578 9.63901 23.2578 8.12451C23.2578 6.61001 24.4855 5.38232 26 5.38232C27.5145 5.38232 28.7422 6.61001 28.7422 8.12451Z" fill="#3D6D93"/>
<path d="M26 5.38232C25.4362 5.38232 24.9124 5.55264 24.4766 5.84443C25.2114 6.3364 25.6953 7.17389 25.6953 8.12451C25.6953 9.07524 25.2114 9.91262 24.4766 10.4046C24.9124 10.6964 25.4362 10.8667 26 10.8667C27.5145 10.8667 28.7422 9.63901 28.7422 8.12451C28.7422 6.61001 27.5145 5.38232 26 5.38232Z" fill="#335E80"/>
<path d="M48.1915 46.668H35.9785L39.0254 42.3793H45.1446L48.1915 46.668Z" fill="#AEE69C"/>
<path d="M45.1445 42.3793H42.0977L45.1445 46.668H48.1914L45.1445 42.3793Z" fill="#89DAA4"/>
<path d="M48.1915 18.9107H35.9785L39.0254 23.1995H45.1446L48.1915 18.9107Z" fill="#AEE69C"/>
<path d="M45.1445 18.9107L42.0977 23.1995H45.1445L48.1914 18.9107H45.1445Z" fill="#89DAA4"/>
<path d="M45.1446 42.3794H39.0254V23.1995H45.1446V42.3794Z" fill="#EAF6FF"/>
<path d="M42.0977 42.3794H45.1445V23.1995H42.0977V42.3794Z" fill="#D8ECFE"/>
<path d="M16.0216 46.668H3.80859L6.85547 42.3793H12.9747L16.0216 46.668Z" fill="#AEE69C"/>
<path d="M16.0216 18.9107H3.80859L6.85547 23.1995H12.9747L16.0216 18.9107Z" fill="#AEE69C"/>
<path d="M12.9747 42.3794H6.85547V23.1995H12.9747V42.3794Z" fill="#EAF6FF"/>
<path d="M12.9746 42.3793H9.92773L12.9746 46.668H16.0215L12.9746 42.3793Z" fill="#89DAA4"/>
<path d="M12.9746 18.9107L9.92773 23.1995H12.9746L16.0215 18.9107H12.9746Z" fill="#89DAA4"/>
<path d="M9.92773 42.3794H12.9746V23.1995H9.92773V42.3794Z" fill="#D8ECFE"/>
<path d="M0.761719 14.3403H51.2383V16.6255C51.2383 17.8876 50.2152 18.9106 48.9531 18.9106H3.04687C1.78486 18.9106 0.761719 17.8876 0.761719 16.6255V14.3403Z" fill="#3D6D93"/>
<path d="M48.1914 14.3403V16.6255C48.1914 17.8876 47.1684 18.9106 45.9062 18.9106H48.9531C50.2152 18.9106 51.2383 17.8876 51.2383 16.6255V14.3403H48.1914Z" fill="#335E80"/>
<path d="M1.77734 46.668H50.2227C50.7835 46.668 51.2383 47.1227 51.2383 47.6836V50.2227C51.2383 50.7836 50.7835 51.2383 50.2227 51.2383H1.77734C1.21641 51.2383 0.761719 50.7836 0.761719 50.2227V47.6836C0.761719 47.1227 1.21641 46.668 1.77734 46.668Z" fill="#3D6D93"/>
<path d="M50.2227 46.668H47.1758C47.7366 46.668 48.1914 47.1227 48.1914 47.6836V50.2227C48.1914 50.7836 47.7366 51.2383 47.1758 51.2383H50.2227C50.7835 51.2383 51.2383 50.7836 51.2383 50.2227V47.6836C51.2383 47.1227 50.7835 46.668 50.2227 46.668Z" fill="#335E80"/>
<path fill-rule="evenodd" clip-rule="evenodd" d="M0.0243388 14.5311C0.111286 14.8672 0.414567 15.1021 0.76179 15.1021H51.2383C51.5856 15.1021 51.8888 14.8672 51.9758 14.5311C52.0627 14.1949 51.9113 13.8425 51.6077 13.6741L27.8467 0.501484L27.8467 0.501465C26.6979 -0.135314 25.3022 -0.135314 24.1534 0.501465L24.1534 0.501485L14.57 5.81442C14.202 6.0184 14.0691 6.48201 14.2731 6.84994C14.4771 7.21787 14.9407 7.35078 15.3086 7.14681L24.892 1.83389C24.892 1.83388 24.8921 1.83388 24.8921 1.83387C25.5814 1.4518 26.4188 1.4518 27.1081 1.83387C27.1081 1.83388 27.1081 1.83388 27.1081 1.83389L48.2933 13.5786H3.70679L12.1645 8.88982C12.5324 8.68585 12.6653 8.22223 12.4613 7.8543C12.2573 7.48637 11.7937 7.35346 11.4258 7.55744L0.392463 13.6741C0.0887845 13.8425 -0.0626084 14.1949 0.0243388 14.5311Z" fill="black"/>
<path fill-rule="evenodd" clip-rule="evenodd" d="M0 16.6255C0 18.3083 1.3642 19.6724 3.04687 19.6724H48.9531C50.6359 19.6724 52 18.3083 52 16.6255V14.3403C52 13.9196 51.659 13.5786 51.2383 13.5786H0.761719C0.341033 13.5786 0 13.9196 0 14.3403V16.6255ZM3.04687 18.1489C2.20552 18.1489 1.52344 17.4669 1.52344 16.6255V15.1021H50.4766V16.6255C50.4766 17.4669 49.7946 18.1489 48.9531 18.1489H3.04687Z" fill="black"/>
<path fill-rule="evenodd" clip-rule="evenodd" d="M0 50.2227C0 51.2043 0.795728 52 1.77734 52H50.2227C51.2041 52 52 51.2043 52 50.2227V47.6836C52 46.7019 51.2041 45.9062 50.2227 45.9062H1.77734C0.795728 45.9062 0 46.702 0 47.6836V50.2227ZM1.77734 50.4766C1.6371 50.4766 1.52344 50.3629 1.52344 50.2227V47.6836C1.52344 47.5433 1.6371 47.4297 1.77734 47.4297H50.2227C50.3628 47.4297 50.4766 47.5434 50.4766 47.6836V50.2227C50.4766 50.3629 50.3628 50.4766 50.2227 50.4766H1.77734Z" fill="black"/>
<path fill-rule="evenodd" clip-rule="evenodd" d="M17.272 32.7893C17.272 37.6096 21.1796 41.5173 26 41.5173C30.8204 41.5173 34.7281 37.6096 34.7281 32.7893C34.7281 27.9689 30.8204 24.0612 26 24.0612C21.1796 24.0612 17.272 27.9689 17.272 32.7893ZM26 39.9939C22.021 39.9939 18.7954 36.7683 18.7954 32.7893C18.7954 28.8102 22.021 25.5846 26 25.5846C29.9791 25.5846 33.2047 28.8103 33.2047 32.7893C33.2047 36.7683 29.9791 39.9939 26 39.9939Z" fill="black"/>
<path fill-rule="evenodd" clip-rule="evenodd" d="M26 38.9006C26.4207 38.9006 26.7617 38.5596 26.7617 38.1389V27.4396C26.7617 27.0189 26.4207 26.6779 26 26.6779C25.5793 26.6779 25.2383 27.0189 25.2383 27.4396V38.1389C25.2383 38.5596 25.5793 38.9006 26 38.9006Z" fill="black"/>
<path fill-rule="evenodd" clip-rule="evenodd" d="M25.0739 36.1943C24.8095 36.1943 24.4468 35.9226 24.4468 35.3935C24.4468 34.9728 24.1057 34.6318 23.6851 34.6318C23.2644 34.6318 22.9233 34.9728 22.9233 35.3935C22.9233 36.5903 23.8044 37.7178 25.0739 37.7178H26.9258C28.1955 37.7178 29.0764 36.5903 29.0764 35.3935V34.3518C29.0764 33.1549 28.1953 32.0275 26.9257 32.0275L25.0739 32.0276C24.8095 32.0276 24.4468 31.7559 24.4468 31.2268V30.1852C24.4468 29.6561 24.8095 29.3844 25.0739 29.3844H26.9258C27.1903 29.3844 27.553 29.656 27.553 30.1852C27.553 30.6059 27.894 30.9469 28.3147 30.9469C28.7354 30.9469 29.0764 30.6059 29.0764 30.1852C29.0764 28.9884 28.1955 27.8609 26.9258 27.8609H25.0739C23.8044 27.8609 22.9233 28.9884 22.9233 30.1852V31.2268C22.9233 32.4236 23.8044 33.5511 25.0739 33.5511L26.9257 33.551C27.1903 33.551 27.553 33.8227 27.553 34.3518V35.3935C27.553 35.9227 27.1903 36.1943 26.9258 36.1943H25.0739Z" fill="black"/>
<path fill-rule="evenodd" clip-rule="evenodd" d="M22.4961 8.12451C22.4961 10.0597 24.0648 11.6284 26 11.6284C27.9352 11.6284 29.5039 10.0597 29.5039 8.12451C29.5039 6.18933 27.9352 4.62061 26 4.62061C24.0648 4.62061 22.4961 6.18933 22.4961 8.12451ZM26 10.105C24.9062 10.105 24.0195 9.21833 24.0195 8.12451C24.0195 7.0307 24.9062 6.14404 26 6.14404C27.0938 6.14404 27.9805 7.0307 27.9805 8.12451C27.9805 9.21833 27.0938 10.105 26 10.105Z" fill="black"/>
<path fill-rule="evenodd" clip-rule="evenodd" d="M35.3017 47.0174C35.4324 47.2706 35.6935 47.4297 35.9785 47.4297H48.1915C48.4765 47.4297 48.7376 47.2706 48.8684 47.0174C48.9991 46.7641 48.9775 46.4591 48.8125 46.2268L45.7656 41.9381C45.6227 41.737 45.3913 41.6176 45.1446 41.6176H39.0254C38.7787 41.6176 38.5473 41.737 38.4044 41.9381L35.3576 46.2268C35.1925 46.4591 35.1709 46.7641 35.3017 47.0174ZM37.4541 45.9063L39.4186 43.141H44.7514L46.716 45.9063H37.4541Z" fill="black"/>
<path fill-rule="evenodd" clip-rule="evenodd" d="M38.4044 23.6406C38.5473 23.8417 38.7787 23.9612 39.0254 23.9612H45.1446C45.3913 23.9612 45.6227 23.8417 45.7656 23.6406L48.8125 19.3518C48.9775 19.1195 48.9991 18.8145 48.8684 18.5613C48.7376 18.308 48.4765 18.149 48.1915 18.149H35.9785C35.6935 18.149 35.4324 18.308 35.3017 18.5613C35.1709 18.8145 35.1925 19.1195 35.3576 19.3518L38.4044 23.6406ZM39.4186 22.4377L37.454 19.6724H46.716L44.7514 22.4377H39.4186Z" fill="black"/>
<path fill-rule="evenodd" clip-rule="evenodd" d="M38.2637 42.3794C38.2637 42.8001 38.6047 43.1411 39.0254 43.1411H45.1446C45.5653 43.1411 45.9063 42.8001 45.9063 42.3794V23.1995C45.9063 22.7788 45.5653 22.4378 45.1446 22.4378H39.0254C38.6047 22.4378 38.2637 22.7788 38.2637 23.1995V32.6818C38.2637 33.1025 38.6047 33.4435 39.0254 33.4435C39.4461 33.4435 39.7871 33.1025 39.7871 32.6818V23.9612H44.3829V41.6177H39.7871V36.2365C39.7871 35.8158 39.4461 35.4748 39.0254 35.4748C38.6047 35.4748 38.2637 35.8158 38.2637 36.2365V42.3794Z" fill="black"/>
<path fill-rule="evenodd" clip-rule="evenodd" d="M3.13175 47.0174C3.26247 47.2706 3.52361 47.4297 3.8086 47.4297H16.0216C16.3066 47.4297 16.5677 47.2706 16.6984 47.0174C16.8292 46.7641 16.8076 46.4591 16.6425 46.2268L13.5957 41.9381C13.4528 41.737 13.2214 41.6176 12.9747 41.6176H6.85547C6.60879 41.6176 6.37738 41.737 6.23451 41.9381L3.18763 46.2268C3.02258 46.4591 3.00102 46.7641 3.13175 47.0174ZM5.28414 45.9063L7.24869 43.141H12.5815L14.546 45.9063H5.28414Z" fill="black"/>
<path fill-rule="evenodd" clip-rule="evenodd" d="M6.2345 23.6406C6.37737 23.8417 6.60879 23.9612 6.85547 23.9612H12.9747C13.2214 23.9612 13.4528 23.8417 13.5957 23.6406L16.6426 19.3518C16.8076 19.1195 16.8292 18.8145 16.6984 18.5613C16.5677 18.308 16.3066 18.149 16.0216 18.149H3.8086C3.52362 18.149 3.26247 18.308 3.13175 18.5613C3.00102 18.8145 3.02258 19.1195 3.18763 19.3518L6.2345 23.6406ZM7.2487 22.4377L5.28412 19.6724H14.5461L12.5815 22.4377H7.2487Z" fill="black"/>
<path fill-rule="evenodd" clip-rule="evenodd" d="M6.09375 42.3794C6.09375 42.8001 6.43478 43.1411 6.85547 43.1411H12.9747C13.3954 43.1411 13.7364 42.8001 13.7364 42.3794V23.1995C13.7364 22.7788 13.3954 22.4378 12.9747 22.4378H6.85547C6.43478 22.4378 6.09375 22.7788 6.09375 23.1995V42.3794ZM7.61719 41.6177V23.9612H12.213V41.6177H7.61719Z" fill="black"/>
</g>
</g>
<defs>
<clipPath id="clip0_8888_27340">
<rect width="52" height="52" fill="white"/>
</clipPath>
</defs>
</svg>
