<svg id="icon_menu_normal_9" xmlns="http://www.w3.org/2000/svg" width="24" height="24" viewBox="0 0 24 24">
  <rect id="background" width="24" height="24" fill="none"/>
  <path id="Path_32233" data-name="Path 32233" d="M4.727,17.384V11.055m3.636,6.328V11.055M12,17.384V11.055m3.636,6.328V11.055m3.636,6.328V11.055M2,21H22M13.364,7.439A1.364,1.364,0,1,1,12,6.083,1.36,1.36,0,0,1,13.364,7.439ZM12.336,3.054l8.182,3.255a.979.979,0,0,1,.573.841v3a.909.909,0,0,1-.909.9H3.818a.909.909,0,0,1-.909-.9v-3a.979.979,0,0,1,.573-.841l8.182-3.255A1.07,1.07,0,0,1,12.336,3.054ZM21.091,21H2.909V18.288a.909.909,0,0,1,.909-.9H20.182a.909.909,0,0,1,.909.9Z" fill="none" stroke="#454545" stroke-linecap="round" stroke-linejoin="round" stroke-width="1.5"/>
</svg>
