<svg id="Icon" xmlns="http://www.w3.org/2000/svg" xmlns:xlink="http://www.w3.org/1999/xlink" width="24" height="24" viewBox="0 0 24 24">
  <defs>
    <clipPath id="clip-path">
      <rect id="Rectangle_44411" data-name="Rectangle 44411" width="20" height="20" fill="#fff" stroke="#707070" stroke-width="1"/>
    </clipPath>
  </defs>
  <rect id="background" width="24" height="24" fill="none"/>
  <g id="Mask_Group_364" data-name="Mask Group 364" transform="translate(2)" clip-path="url(#clip-path)">
    <g id="Layer_2" data-name="Layer 2" transform="translate(0.53 0)">
      <path id="Path_44110" data-name="Path 44110" d="M12.035,5.285H7.2a.175.175,0,0,1-.175-.175,2.037,2.037,0,0,1,.826-1.594l.769-.6a.175.175,0,0,1,.252.041h1.493a.175.175,0,0,1,.252-.041l.769.6a2.037,2.037,0,0,1,.826,1.594A.175.175,0,0,1,12.035,5.285ZM7.382,4.935H11.85a1.728,1.728,0,0,0-.681-1.144L10.542,3.3a.181.181,0,0,1-.035,0H8.724a.183.183,0,0,1-.035,0l-.627.489A1.728,1.728,0,0,0,7.382,4.935Z" transform="translate(-0.361 -0.756)"/>
      <path id="Path_44111" data-name="Path 44111" d="M5.123,18.107H2.5a.175.175,0,0,1-.175-.175V9.511A.175.175,0,0,1,2.5,9.336H5.123a.175.175,0,0,1,.175.175v8.422A.175.175,0,0,1,5.123,18.107Zm-2.444-.349H4.948V9.685H2.679Z" transform="translate(-1.408 0.685)"/>
      <path id="Path_44112" data-name="Path 44112" d="M16.323,18.107H13.7a.175.175,0,0,1-.175-.175V9.511a.175.175,0,0,1,.175-.175h2.619a.175.175,0,0,1,.175.175v8.422A.175.175,0,0,1,16.323,18.107Zm-2.444-.349h2.269V9.685H13.879Z" transform="translate(1.09 0.685)"/>
      <path id="Path_44113" data-name="Path 44113" d="M8.241,17.532H6.975a.175.175,0,0,1-.175-.175V12.09a.175.175,0,0,1,.175-.175H8.241a.175.175,0,0,1,.175.175v5.267A.175.175,0,0,1,8.241,17.532Zm-1.092-.349h.917V12.265H7.149Z" transform="translate(-0.411 1.26)"/>
      <path id="Path_44114" data-name="Path 44114" d="M10.859,17.532H8.01a.175.175,0,0,1-.175-.175V12.09a.175.175,0,0,1,.175-.175h2.849a.175.175,0,0,1,.175.175v5.267A.175.175,0,0,1,10.859,17.532Zm-2.674-.349h2.5V12.265h-2.5Z" transform="translate(-0.18 1.26)"/>
      <path id="Path_44115" data-name="Path 44115" d="M5.912,17.532H4.645a.175.175,0,0,1-.175-.175V12.09a.175.175,0,0,1,.175-.175H5.912a.175.175,0,0,1,.175.175v5.267A.175.175,0,0,1,5.912,17.532ZM4.82,17.182h.917V12.265H4.82Z" transform="translate(-0.931 1.26)"/>
      <path id="Path_44116" data-name="Path 44116" d="M7.263,17.532H5.681a.175.175,0,0,1-.175-.175V12.09a.175.175,0,0,1,.175-.175H7.263a.175.175,0,0,1,.175.175v5.267A.175.175,0,0,1,7.263,17.532Zm-1.408-.349H7.089V12.265H5.855Z" transform="translate(-0.7 1.26)"/>
      <path id="Path_44117" data-name="Path 44117" d="M13.935,17.532H12.669a.175.175,0,0,1-.175-.175V12.09a.175.175,0,0,1,.175-.175h1.267a.175.175,0,0,1,.175.175v5.267A.175.175,0,0,1,13.935,17.532Zm-1.092-.349h.917V12.265h-.917Z" transform="translate(0.859 1.26)"/>
      <path id="Path_44118" data-name="Path 44118" d="M11.606,17.532H10.339a.175.175,0,0,1-.175-.175V12.09a.175.175,0,0,1,.175-.175h1.266a.175.175,0,0,1,.175.175v5.267A.175.175,0,0,1,11.606,17.532Zm-1.092-.349h.917V12.265h-.917Z" transform="translate(0.339 1.26)"/>
      <path id="Path_44119" data-name="Path 44119" d="M12.957,17.532H11.375a.175.175,0,0,1-.175-.175V12.09a.175.175,0,0,1,.175-.175h1.583a.175.175,0,0,1,.175.175v5.267A.175.175,0,0,1,12.957,17.532Zm-1.408-.349h1.233V12.265H11.549Z" transform="translate(0.57 1.26)"/>
      <path id="Path_44120" data-name="Path 44120" d="M15.725,12.407H4.645a.175.175,0,0,1-.175-.175v-.777a.175.175,0,0,1,.175-.175h11.08a.175.175,0,0,1,.175.175v.777A.175.175,0,0,1,15.725,12.407ZM4.82,12.057H15.551V11.63H4.82Z" transform="translate(-0.931 1.118)"/>
      <path id="Path_44121" data-name="Path 44121" d="M19.91,17.348H1.751a.175.175,0,0,1-.175-.175V16.4a.175.175,0,0,1,.175-.175H19.91a.175.175,0,0,1,.175.175v.777A.175.175,0,0,1,19.91,17.348ZM1.926,17h17.81v-.428H1.926Z" transform="translate(-1.576 2.221)"/>
      <path id="Path_44122" data-name="Path 44122" d="M15.725,11.868H4.645a.175.175,0,0,1-.175-.175v-1.3a.175.175,0,0,1,.175-.175h11.08a.175.175,0,0,1,.175.175v1.3A.175.175,0,0,1,15.725,11.868ZM4.82,11.518H15.551v-.955H4.82Z" transform="translate(-0.931 0.881)"/>
      <path id="Path_44123" data-name="Path 44123" d="M8.53,10.759H5.681a.175.175,0,0,1-.175-.175V9.51a.175.175,0,0,1,.175-.175H8.53A.175.175,0,0,1,8.7,9.51v1.075A.175.175,0,0,1,8.53,10.759ZM5.855,10.41h2.5V9.685h-2.5Z" transform="translate(-0.7 0.685)"/>
      <path id="Path_44124" data-name="Path 44124" d="M13.188,10.759H10.339a.175.175,0,0,1-.175-.175V9.51a.175.175,0,0,1,.175-.175h2.849a.175.175,0,0,1,.175.175v1.075A.175.175,0,0,1,13.188,10.759Zm-2.674-.349h2.5V9.685h-2.5Z" transform="translate(0.339 0.685)"/>
      <path id="Path_44125" data-name="Path 44125" d="M8.177,9.919H6.143a.175.175,0,0,1-.175-.175V8.46a.175.175,0,0,1,.175-.175H8.177a.175.175,0,0,1,.175.175V9.746a.175.175,0,0,1-.175.173ZM6.318,9.569H8V8.635H6.318Z" transform="translate(-0.597 0.45)"/>
      <path id="Path_44126" data-name="Path 44126" d="M7.91,8.852H6.328a.175.175,0,0,1-.175-.175V7.392a.175.175,0,0,1,.175-.175H7.91a.175.175,0,0,1,.175.175V8.678A.175.175,0,0,1,7.91,8.852ZM6.5,8.5H7.736V7.567H6.5Z" transform="translate(-0.555 0.212)"/>
      <path id="Path_44127" data-name="Path 44127" d="M12.311,8.852H10.728a.175.175,0,0,1-.175-.175V7.392a.175.175,0,0,1,.175-.175h1.583a.175.175,0,0,1,.175.175V8.678A.175.175,0,0,1,12.311,8.852ZM10.9,8.5h1.233V7.567H10.9Z" transform="translate(0.426 0.212)"/>
      <path id="Path_44128" data-name="Path 44128" d="M13.672,7.712H6.065a.175.175,0,0,1-.175-.175V6.655a.175.175,0,0,1,.175-.175h7.607a.175.175,0,0,1,.175.175v.883A.175.175,0,0,1,13.672,7.712ZM6.239,7.363H13.5V6.83H6.239Z" transform="translate(-0.614 0.048)"/>
      <path id="Path_44129" data-name="Path 44129" d="M12.577,9.919H10.543a.175.175,0,0,1-.175-.175V8.46a.175.175,0,0,1,.175-.175h2.034a.175.175,0,0,1,.175.175V9.746a.175.175,0,0,1-.175.173Zm-1.859-.349H12.4V8.635H10.718Z" transform="translate(0.385 0.45)"/>
      <path id="Path_44130" data-name="Path 44130" d="M11.421,8.8h-3.8a.175.175,0,0,1-.175-.175V7.377A.175.175,0,0,1,7.622,7.2h3.8a.175.175,0,0,1,.175.175V8.624A.175.175,0,0,1,11.421,8.8ZM7.8,8.449h3.45v-.9H7.8Z" transform="translate(-0.267 0.209)"/>
      <path id="Path_44131" data-name="Path 44131" d="M5.123,9.475H2.5A.175.175,0,0,1,2.329,9.3a1.6,1.6,0,0,1,.463-1.128l.9-.893a.175.175,0,0,1,.246,0l.9.893A1.6,1.6,0,0,1,5.3,9.3a.175.175,0,0,1-.175.176ZM2.691,9.125H4.936a1.235,1.235,0,0,0-.349-.7l-.773-.771-.775.771A1.236,1.236,0,0,0,2.691,9.125Z" transform="translate(-1.408 0.215)"/>
      <path id="Path_44132" data-name="Path 44132" d="M5.123,9.809H2.5a.175.175,0,0,1-.175-.175v-.68A.175.175,0,0,1,2.5,8.779H5.123a.175.175,0,0,1,.175.175v.68A.175.175,0,0,1,5.123,9.809ZM2.679,9.459H4.948v-.33H2.679Z" transform="translate(-1.408 0.561)"/>
      <path id="Path_44133" data-name="Path 44133" d="M16.323,9.475H13.7A.175.175,0,0,1,13.53,9.3a1.6,1.6,0,0,1,.463-1.128l.9-.893a.175.175,0,0,1,.246,0l.9.893A1.6,1.6,0,0,1,16.5,9.3a.175.175,0,0,1-.175.176Zm-2.432-.349h2.245a1.239,1.239,0,0,0-.349-.7l-.773-.771-.775.771a1.235,1.235,0,0,0-.347.7Z" transform="translate(1.09 0.215)"/>
      <path id="Path_44134" data-name="Path 44134" d="M16.323,9.809H13.7a.175.175,0,0,1-.175-.175v-.68a.175.175,0,0,1,.175-.175h2.619a.175.175,0,0,1,.175.175v.68A.175.175,0,0,1,16.323,9.809Zm-2.444-.349h2.269v-.33H13.879Z" transform="translate(1.09 0.561)"/>
      <path id="Path_44135" data-name="Path 44135" d="M12.035,6.165H7.2a.175.175,0,0,1-.175-.175V4.734A.175.175,0,0,1,7.2,4.559h4.838a.175.175,0,0,1,.175.175V5.99A.175.175,0,0,1,12.035,6.165ZM7.372,5.815H11.86V4.909H7.372Z" transform="translate(-0.361 -0.381)"/>
      <path id="Path_44136" data-name="Path 44136" d="M13.292,7.029H6.328a.175.175,0,0,1-.175-.175V5.761a.175.175,0,0,1,.175-.175h6.965a.175.175,0,0,1,.175.175V6.854A.175.175,0,0,1,13.292,7.029ZM6.5,6.68h6.615V5.936H6.5Z" transform="translate(-0.555 -0.152)"/>
      <path id="Path_44137" data-name="Path 44137" d="M10.229,3.5H8.446a.175.175,0,0,1-.175-.175V2.168a.175.175,0,0,1,.175-.175h1.782a.175.175,0,0,1,.175.175V3.329A.175.175,0,0,1,10.229,3.5ZM8.621,3.155h1.433V2.343H8.621Z" transform="translate(-0.083 -0.953)"/>
      <path id="Path_44138" data-name="Path 44138" d="M9.8,2.533H8.74a.175.175,0,0,1-.175-.175V1.85a.707.707,0,0,1,1.414,0v.509A.175.175,0,0,1,9.8,2.533Zm-.89-.349h.715V1.85a.357.357,0,1,0-.715,0Z" transform="translate(-0.017 -1.143)"/>
    </g>
  </g>
</svg>
