<svg id="Icon" xmlns="http://www.w3.org/2000/svg" xmlns:xlink="http://www.w3.org/1999/xlink" width="24" height="24" viewBox="0 0 24 24">
  <defs>
    <clipPath id="clip-path">
      <rect id="Rectangle_44430" data-name="Rectangle 44430" width="20" height="20" transform="translate(-0.139 -0.139)" fill="#fff" stroke="#707070" stroke-width="1"/>
    </clipPath>
  </defs>
  <rect id="background" width="24" height="24" fill="none"/>
  <g id="Mask_Group_372" data-name="Mask Group 372" transform="translate(2.139 2.139)" clip-path="url(#clip-path)">
    <g id="royal-palace_1_" data-name="royal-palace (1)" transform="translate(0 0)">
      <path id="Path_44260" data-name="Path 44260" d="M12.162,9.8a.287.287,0,0,0-.287.287v.573a.287.287,0,1,0,.573,0v-.573A.287.287,0,0,0,12.162,9.8Zm0,0" transform="translate(2.649 2.185)"/>
      <path id="Path_44261" data-name="Path 44261" d="M12.162,12.609a.287.287,0,0,0-.287.287v.573a.287.287,0,1,0,.573,0V12.9A.287.287,0,0,0,12.162,12.609Zm0,0" transform="translate(2.649 2.813)"/>
      <path id="Path_44262" data-name="Path 44262" d="M3.927,10.944a.287.287,0,0,0,.287-.287v-.573a.287.287,0,1,0-.573,0v.573A.287.287,0,0,0,3.927,10.944Zm0,0" transform="translate(0.812 2.185)"/>
      <path id="Path_44263" data-name="Path 44263" d="M3.927,13.756a.287.287,0,0,0,.287-.287V12.9a.287.287,0,1,0-.573,0v.573A.287.287,0,0,0,3.927,13.756Zm0,0" transform="translate(0.812 2.813)"/>
      <path id="Path_44264" data-name="Path 44264" d="M19.282,11.734H16.435v-.44h.153a.287.287,0,0,0,.287-.287V9.861a.287.287,0,0,0-.287-.287h-.153V8.37h.153a.287.287,0,1,0,0-.573H16.1a2.414,2.414,0,0,0-.719-1.724.872.872,0,0,0-1.147,0A2.414,2.414,0,0,0,13.518,7.8h-.484a.287.287,0,1,0,0,.573h.153v1.2h-.875V7.15s0,0,0,0a8.134,8.134,0,0,0-.143-1.562.287.287,0,0,0-.563.111,7.269,7.269,0,0,1,.127,1.165h-.571a10.473,10.473,0,0,0-.432-3.131,3.644,3.644,0,0,1,.528.852.287.287,0,1,0,.523-.236,3.852,3.852,0,0,0-1.071-1.439.364.364,0,0,0,.01-.085V1.828a.364.364,0,0,0-.363-.363h-.287V.287a.287.287,0,1,0-.573,0V1.465H9.211a.364.364,0,0,0-.363.363v.994a.367.367,0,0,0,.01.084c-.591.474-1.6,1.661-1.6,4.242h0V9.574H6.383V8.37h.153a.287.287,0,1,0,0-.573H6.052a2.414,2.414,0,0,0-.719-1.724.872.872,0,0,0-1.147,0A2.414,2.414,0,0,0,3.466,7.8H2.981a.287.287,0,1,0,0,.573h.153v1.2H2.981a.287.287,0,0,0-.287.287v1.147a.287.287,0,0,0,.287.287h.153v.44H.287A.287.287,0,0,0,0,12.02v7.262a.287.287,0,0,0,.287.287h19a.287.287,0,0,0,.287-.287V17.1a.287.287,0,1,0-.573,0v.784H16.435v-3.23H19v1.223a.287.287,0,1,0,.573,0V12.02a.287.287,0,0,0-.287-.287ZM14.617,6.5A.3.3,0,0,1,15,6.5a1.826,1.826,0,0,1,.524,1.281H14.093A1.827,1.827,0,0,1,14.617,6.5ZM4.565,6.5a.3.3,0,0,1,.386,0,1.827,1.827,0,0,1,.524,1.281H4.041A1.827,1.827,0,0,1,4.565,6.5ZM19,12.307v.631H16.435v-.631ZM8.561,10.721a.287.287,0,1,0,0,.573h4.625v6.593H11.868V14.065a2.083,2.083,0,1,0-4.166,0v3.822H6.383V11.294h.959a.287.287,0,1,0,0-.573H3.268v-.573H16.3v.573Zm2.733,5.5H8.275v-.956h3.019Zm0-1.529H8.275v-.631a1.51,1.51,0,0,1,3.019,0ZM8.275,16.8h3.019v1.089H8.275ZM13.76,8.37h2.1v1.2h-2.1ZM9.727,3.185h.115c.183.261.709,1.22.748,3.676H8.98c.038-2.456.565-3.415.748-3.676ZM9.421,2.038h.726v.573H9.421Zm-.747,1.9c.055-.078.11-.148.165-.213a10.459,10.459,0,0,0-.433,3.133H7.835A5.243,5.243,0,0,1,8.674,3.94ZM7.831,7.434h3.908v2.14H7.831ZM3.707,8.37h2.1v1.2h-2.1Zm2.1,2.924v6.593h-2.1V11.294ZM.573,17.887v-3.23H3.134v3.23Zm0-4.376H3.134v.573H.573Zm2.561-1.2v.631H.573v-.631ZM19,18.461V19H.573v-.535Zm-5.236-.573V11.294h2.1v6.593Zm2.675-3.8v-.573H19v.573Zm0,0" transform="translate(0 0)"/>
      <path id="Path_44265" data-name="Path 44265" d="M7.115,6.484a.287.287,0,0,0-.287.287v.612a.287.287,0,0,0,.573,0V6.771A.287.287,0,0,0,7.115,6.484Zm0,0" transform="translate(1.523 1.446)"/>
      <path id="Path_44266" data-name="Path 44266" d="M8.052,6.484a.287.287,0,0,0-.287.287v.612a.287.287,0,0,0,.573,0V6.771A.287.287,0,0,0,8.052,6.484Zm0,0" transform="translate(1.732 1.446)"/>
      <path id="Path_44267" data-name="Path 44267" d="M8.99,6.484a.287.287,0,0,0-.287.287v.612a.287.287,0,0,0,.573,0V6.771A.287.287,0,0,0,8.99,6.484Zm0,0" transform="translate(1.941 1.446)"/>
    </g>
  </g>
</svg>
