<svg width="60" height="60" viewBox="0 0 60 60" fill="none" xmlns="http://www.w3.org/2000/svg">
<rect width="60" height="60" rx="30" fill="white"/>
<path d="M8.33636 22.8536V19.0731H9.7203C9.99788 19.0731 10.2279 19.1096 10.3905 19.1787C10.5649 19.2599 10.7037 19.3776 10.7949 19.532C10.898 19.6984 10.9456 19.8609 10.9456 20.0274C10.9456 20.1939 10.898 20.3482 10.8187 20.4862C10.7275 20.6284 10.6006 20.7461 10.4262 20.8273C10.6443 20.8964 10.8187 21.0182 10.9456 21.1684C11.0606 21.3349 11.1201 21.5217 11.1201 21.7491C11.1201 21.9278 11.0844 22.0902 11.017 22.2445C10.9377 22.3867 10.8544 22.5044 10.7394 22.5856C10.6363 22.6668 10.4975 22.7399 10.3349 22.7765C10.1724 22.8252 9.97806 22.8455 9.74806 22.8455L8.33636 22.8536ZM8.82014 20.6527H9.6172C9.8353 20.6527 9.98599 20.6405 10.0891 20.604C10.2041 20.5674 10.2953 20.5106 10.3667 20.4131C10.4262 20.3319 10.4579 20.2223 10.4579 20.0842C10.4579 19.9665 10.4262 19.8528 10.3667 19.7553C10.3072 19.6619 10.2279 19.601 10.1248 19.5644C10.0098 19.5279 9.82341 19.5035 9.55772 19.5035H8.82014V20.6527ZM8.82014 22.4029H9.7441C9.89478 22.4029 10.0098 22.3907 10.0653 22.3785C10.1803 22.3542 10.2715 22.3298 10.3548 22.273C10.4301 22.2202 10.4936 22.1511 10.5412 22.074C10.5887 21.9806 10.6086 21.875 10.6086 21.7532C10.6086 21.6111 10.5729 21.4811 10.5055 21.3877C10.4381 21.2821 10.3429 21.209 10.216 21.1644C10.0891 21.1278 9.90271 21.1035 9.67272 21.1035H8.82014V22.4029ZM17.5441 22.8536L18.9638 19.0731H19.4952L20.9941 22.8536H20.4389L20.0107 21.7085H18.4641L18.0636 22.8536H17.5441ZM18.6069 21.2943H19.8639L19.4714 20.2426C19.3564 19.934 19.2771 19.6619 19.2176 19.4629C19.17 19.7106 19.1026 19.9502 19.0114 20.1817L18.6069 21.2943ZM27.549 22.8536V19.0731H28.0447L29.9838 22.0374V19.0731H30.4557V22.8536H29.9481L28.009 19.8771V22.8536H27.549ZM40.0719 21.5177L40.5557 21.6476C40.4526 22.0618 40.2662 22.3663 40.0005 22.5938C39.7348 22.8049 39.4136 22.9145 39.033 22.9145C38.6285 22.9145 38.3073 22.8333 38.0535 22.6668C37.8116 22.5004 37.6133 22.2648 37.4864 21.944C37.3595 21.6232 37.2921 21.2943 37.2921 20.9288C37.2921 20.539 37.3714 20.1979 37.5102 19.9015C37.6609 19.605 37.8671 19.3817 38.1447 19.2274C38.4104 19.0731 38.7118 19.0041 39.033 19.0041C39.4017 19.0041 39.715 19.0975 39.9688 19.3005C40.2226 19.4913 40.3971 19.7594 40.5002 20.1045L40.0164 20.2223C39.9252 19.9502 39.8102 19.7512 39.6476 19.6213C39.485 19.5035 39.2788 19.4304 39.025 19.4304C38.7474 19.4304 38.5056 19.4995 38.3192 19.6416C38.1249 19.7837 37.998 19.9705 37.9147 20.1979C37.8354 20.4334 37.7997 20.6811 37.7997 20.9288C37.7997 21.2496 37.8473 21.5298 37.9385 21.7694C38.0297 22.0049 38.1685 22.1958 38.3668 22.3136C38.5611 22.4313 38.7712 22.4922 38.9893 22.4922C39.2669 22.4922 39.4969 22.411 39.6833 22.2445C39.8736 22.0862 40.0005 21.8344 40.0719 21.5177ZM47.1661 21.0101C47.1661 20.3847 47.3287 19.8893 47.6618 19.532C47.983 19.1787 48.4113 19 48.9307 19C49.2757 19 49.5771 19.0812 49.8547 19.2477C50.1323 19.4142 50.3385 19.6497 50.4773 19.9462C50.628 20.2426 50.6954 20.5837 50.6954 20.9613C50.6954 21.339 50.6279 21.6841 50.4654 21.9887C50.3147 22.2973 50.1085 22.5207 49.8309 22.675C49.5533 22.8293 49.2559 22.9105 48.9307 22.9105C48.5857 22.9105 48.2725 22.8293 47.9949 22.6506C47.7292 22.4841 47.523 22.2486 47.3723 21.9522C47.2375 21.6476 47.1661 21.339 47.1661 21.0101ZM47.6737 21.0101C47.6737 21.4689 47.7887 21.8263 48.0306 22.0862C48.2725 22.3582 48.5738 22.4882 48.9307 22.4882C49.2995 22.4882 49.6009 22.3582 49.8309 22.0862C50.0728 21.8263 50.1878 21.4486 50.1878 20.9654C50.1878 20.6568 50.1402 20.3847 50.0371 20.1614C49.934 19.9258 49.7833 19.7472 49.5969 19.6172C49.4026 19.4995 49.1806 19.4264 48.9268 19.4264C48.5818 19.4264 48.2923 19.5563 48.0385 19.7918C47.7927 20.0395 47.6737 20.4416 47.6737 21.0101ZM14.697 35.2023L14.7644 35.2145L14.8238 35.2511L14.8833 35.2754L14.9309 35.312L14.9904 35.3607L15.038 35.4094L15.0856 35.4582L15.1213 35.5191L15.1569 35.58L15.1807 35.6409L15.2045 35.7018L15.2164 35.7708L15.2283 35.8399L15.2402 35.9089L15.2283 35.9779L15.2164 36.047L15.2045 36.1079L15.1807 36.1769L15.1569 36.2378L15.1213 36.2987L15.0856 36.3475L15.038 36.4084L14.9904 36.4571L14.9309 36.4936L14.8833 36.5424L14.8238 36.5667L14.7644 36.6033L14.697 36.6155L14.6295 36.6398L14.5502 36.652H13.3725V35.1861H14.5502L14.6295 35.1983L14.697 35.2023ZM14.697 29.5539L14.7644 29.5782L14.8238 29.6026L14.8833 29.6391L14.9309 29.6757L14.9904 29.7244L15.038 29.7731L15.0856 29.8219L15.1213 29.8828L15.1569 29.9437L15.1807 30.0046L15.2045 30.0655L15.2164 30.1345L15.2283 30.2036L15.2402 30.2726L15.2283 30.3416L15.2164 30.4107L15.2045 30.4716L15.1688 30.5325L15.145 30.5934L15.1094 30.6543L15.0737 30.703L15.0261 30.7639L14.9785 30.8127L14.919 30.8492L14.8714 30.8858L14.8119 30.9223L14.7525 30.9467L14.6851 30.971L14.6176 30.9832L14.5383 30.9954H13.3606V29.5417H14.5383L14.6176 29.5539H14.697ZM14.5463 35.779L14.5582 35.7911H14.5701L14.582 35.8033H14.5938V35.8155L14.6057 35.8277L14.6176 35.8399L14.6295 35.852V35.9454H14.6137V35.9576L14.6018 35.9698L14.5899 35.982V35.9942H14.578L14.5661 36.0064H14.5542L14.5423 36.0185H13.9554V35.783H14.5463V35.779ZM14.5463 30.1427H14.5582L14.5701 30.1548H14.582L14.5938 30.167V30.1792L14.6057 30.1914H14.6176V30.2036L14.6295 30.2157V30.297L14.6176 30.3091V30.3213L14.6057 30.3335V30.3457H14.5938L14.582 30.3579L14.5701 30.3701H14.5463V30.3822H13.9594V30.1345H14.5145L14.5383 30.1467L14.5463 30.1427ZM12.7697 34.5607H14.6057C15.2878 34.6216 15.8192 35.1983 15.8192 35.8967C15.8192 36.5952 15.2878 37.1718 14.6057 37.2205V37.2327H12.7697V34.5607ZM12.7697 28.9244H14.6057C15.2878 28.9853 15.8192 29.5498 15.8192 30.2604C15.8192 30.9589 15.2878 31.5355 14.6057 31.5842V31.5964H12.7697V28.9244ZM46.6585 31.2756H46.6228L46.5554 31.2512L46.488 31.2391L46.4206 31.2147L46.3532 31.2025L46.2858 31.1781L46.2184 31.1538H46.2065L46.1708 31.1416L46.0796 31.105L46.032 31.0929L45.9844 31.0807L45.9368 31.0685L45.8773 31.0563L45.8297 31.0441L45.7822 31.032L45.7346 31.0198H45.687L45.6275 31.0076H45.5799L45.5323 30.9954H45.4292L45.3698 30.9832H45.3341L45.1953 30.9954H45.0803L44.9534 31.0198L44.8384 31.032L44.7353 31.0563L44.6203 31.0929L44.5172 31.1172L44.4141 31.166L44.3229 31.2025L44.2317 31.2512L44.1405 31.3L44.0493 31.3609L43.9699 31.4218L43.8906 31.4827L43.8113 31.5517L43.732 31.6208L43.6646 31.6898L43.5972 31.7588L43.5377 31.84L43.4703 31.9334L43.4108 32.0147L43.3513 32.1081L43.3038 32.2136L43.2562 32.307L43.2086 32.4126L43.1729 32.5304L43.1372 32.6359L43.1015 32.7537L43.0777 32.8837L43.0539 33.0136L43.0301 33.1435V33.2735L43.0182 33.4156V33.5334L43.0301 33.6633L43.042 33.7811L43.0658 33.8988L43.0896 34.0044L43.1253 34.11L43.161 34.2156L43.1967 34.3212L43.2443 34.4145L43.2919 34.5079L43.3513 34.6013L43.4108 34.6947L43.4782 34.776L43.5377 34.8572L43.6051 34.9262L43.6844 34.9952L43.7519 35.0643L43.8312 35.1252L43.9224 35.1861L44.0017 35.247L44.0929 35.2957L44.1841 35.3323L44.2872 35.381L44.3903 35.4175L44.4934 35.4419L44.5965 35.4663L44.6877 35.4785L44.5489 35.3607L44.422 35.2186L44.3189 35.0643L44.2158 34.8978L44.1365 34.7191L44.0691 34.5404L44.0215 34.3496L43.9977 34.1506L43.9858 33.9841V33.2044L43.9977 33.0258L44.0215 32.8349L44.0691 32.6441L44.1365 32.4532L44.2158 32.2745L44.3189 32.1202L44.422 31.9659L44.5489 31.8238L44.6877 31.6939L44.8384 31.5883L44.9891 31.4827L45.1636 31.4015L45.3499 31.3325L45.5363 31.2837L45.7227 31.2594L45.8972 31.2472L46.6585 31.2756ZM45.3341 25.6758C46.2303 25.6758 47.1185 25.8302 47.9632 26.1388L47.9513 26.151C48.7245 26.4555 49.2321 27.2189 49.2321 28.0636C49.2321 29.1965 48.3201 30.1183 47.2137 30.1183C46.9599 30.1183 46.718 30.0696 46.4999 29.9762V29.9883C46.1232 29.8543 45.7306 29.7894 45.3341 29.7894C43.4188 29.7894 41.9634 31.1822 41.8484 33.2288C41.7334 35.2632 43.2562 36.9038 45.3222 36.7129C45.806 36.7007 46.2342 36.5952 46.6149 36.4165V34.7394H45.921C45.5165 34.7394 45.1715 34.3983 45.1715 33.9719V33.2491C45.1715 32.8349 45.5165 32.4816 45.921 32.4816H49.3471C50.1878 32.4816 50.8698 33.1801 50.8698 34.041V38.1423C50.8698 39.523 49.7159 40.2458 48.5025 40.5422C47.2811 40.8386 45.8813 40.7655 45.3301 40.7655C41.1188 40.7655 37.6807 37.3748 37.6807 33.2248C37.6807 29.0666 41.1188 25.6758 45.3341 25.6758ZM38.5373 38.52C38.5373 39.6894 37.5895 40.66 36.4356 40.66C35.4085 40.66 34.5441 39.8803 34.3815 38.8773L33.1799 34.1141L31.9467 38.5565C31.8555 38.8976 31.7722 39.1453 31.6017 39.4539C31.1972 40.1645 30.3565 40.66 29.3969 40.66C28.4174 40.66 27.5609 40.1402 27.1564 39.3971C27.0057 39.1128 26.9383 38.8286 26.855 38.5118L25.6535 34.2237L24.4916 39.0194H24.4797C24.2616 39.9656 23.4289 40.66 22.4494 40.66C21.3074 40.66 20.3596 39.6894 20.3596 38.52C20.3596 38.321 20.3834 38.1667 20.427 37.9758L22.5486 27.8971H22.5605C22.6636 26.7519 23.8651 25.8545 25.3164 25.8545C26.5497 25.8545 27.6124 26.5042 27.9574 27.3895C28.0486 27.6128 28.0962 27.8727 28.1636 28.1001L29.385 32.5182L30.5984 28.2179C30.6777 27.9458 30.7491 27.6615 30.8522 27.3895C31.1972 26.5042 32.2481 25.8545 33.4813 25.8545C34.5996 25.8545 35.5711 26.3865 36.0073 27.1418C36.0668 27.2474 36.1104 27.3529 36.1461 27.4626C36.2492 27.759 36.3087 28.0757 36.3761 28.3844L38.3826 37.5291C38.454 37.8946 38.5373 38.1667 38.5373 38.52ZM16.5647 25.7124H9.23652C8.66153 25.7124 8.18567 26.1956 8.18567 26.7885V39.5392C8.18567 40.1321 8.65756 40.6153 9.23652 40.6153H16.9335C18.9202 40.6153 20.5341 38.8083 20.5341 36.5992C20.5341 34.9221 19.6102 33.4806 18.3055 32.8755C19.0788 32.1568 19.5745 30.9832 19.5745 29.6635C19.5784 27.4829 18.2262 25.7124 16.5647 25.7124ZM35.1547 41.5939L35.0278 41.533L34.9009 41.4721L34.7741 41.4031L34.6591 41.3219L34.5441 41.2406L34.4291 41.1594L34.3141 41.066L34.211 40.9726L34.1198 40.8792L34.0167 40.7737L33.9254 40.6681L33.8461 40.5503L33.7668 40.4326L33.6875 40.3148L33.6082 40.1849L33.5487 40.0671L33.4813 39.925L33.4218 39.795L33.3743 39.6529L33.3267 39.523L33.2791 39.3686L33.2434 39.2265V39.2022L33.1284 38.7514L33.0808 38.9057L33.0689 38.9666L33.0451 39.0357L33.0332 39.0966L33.0094 39.1656L32.9856 39.2346L32.9618 39.3037L32.938 39.3727L32.9143 39.4417L32.8786 39.523L32.8548 39.592L32.8191 39.661L32.7834 39.7422L32.7477 39.8234L32.7001 39.8925L32.6525 39.9737L32.605 40.0549L32.5455 40.1605L32.4781 40.2539L32.4186 40.3595L32.3393 40.4529L32.2719 40.5341L32.1925 40.6275L32.1132 40.7087L32.0339 40.8021L31.9427 40.8833L31.8515 40.9523L31.7603 41.0214L31.6691 41.1026L31.5779 41.1635L31.4748 41.2325L31.3836 41.2934L31.2805 41.3543L31.1655 41.4153L31.0624 41.4762L30.9593 41.5249L30.8443 41.5736L30.7412 41.6102L30.6262 41.6589L30.5112 41.6954L30.3843 41.732L30.2693 41.7564L30.1543 41.7807L30.0274 41.8051L29.9124 41.8173L29.7855 41.8416H29.6586L29.5317 41.8538H29.2779L29.151 41.8416H29.0241L28.8973 41.8173L28.7704 41.8051L28.6435 41.7807L28.5285 41.7564L28.4016 41.7198L28.2866 41.6833L28.1597 41.6467L28.0447 41.598L27.9297 41.5614L27.8147 41.5005L27.7116 41.4518L27.5966 41.3909L27.4935 41.33L27.3904 41.2691L27.2873 41.2L27.1842 41.131L27.093 41.062L27.0018 40.9929L26.9106 40.9117L26.8194 40.8305L26.7281 40.7493L26.6488 40.6559L26.5695 40.5747L26.4902 40.4813L26.4228 40.3757L26.3435 40.2823L26.284 40.1767L26.2166 40.0712L26.1571 39.9656L26.1095 39.8844L26.0619 39.8031L26.0263 39.7219L25.9906 39.6407L25.9668 39.5595L25.9311 39.4905L25.9073 39.4214L25.8835 39.3402L25.8597 39.2712L25.8359 39.2103L25.8121 39.1412L25.8002 39.0803L25.7764 39.0113L25.7645 38.9626L25.7526 38.9017L25.6376 39.3524L25.5702 39.5757L25.5226 39.7179L25.4751 39.8356L25.4156 39.9656L25.3561 40.0955L25.2887 40.2133L25.2213 40.331L25.142 40.4366L25.0627 40.5544L24.9833 40.66L24.904 40.7655L24.8128 40.8589L24.7097 40.9523L24.6185 41.0457L24.5154 41.1269L24.4123 41.2082L24.2973 41.2894L24.1823 41.3584L24.0673 41.4274L23.9523 41.4965L23.8254 41.5574L23.7104 41.6061L23.5716 41.667L23.4447 41.7036L23.3179 41.7523L23.1791 41.7888L23.0403 41.8132L22.9015 41.8376L22.7627 41.8498L22.6239 41.8619H22.3106L22.1361 41.8498L21.9736 41.8254L21.811 41.7888L21.6484 41.7523L21.4977 41.7036L21.347 41.6548L21.1963 41.5939L21.0456 41.5249L20.9069 41.4559L20.7681 41.3746L20.6412 41.2934L20.5143 41.2L20.3874 41.0945L20.2724 40.9889L20.1574 40.8833L20.0543 40.7655L19.9512 40.66L19.8481 40.7534L19.6617 40.8955L19.4674 41.0376L19.2731 41.1676L19.0669 41.2853L18.8488 41.3909L18.6307 41.4843L18.4126 41.5777L18.1826 41.6467L17.9407 41.7076L17.6988 41.7564L17.4569 41.7929L17.215 41.8173H9.00652L8.78842 41.7807L8.57032 41.7198L8.37601 41.6386L8.18171 41.5452L7.99533 41.4274L7.82085 41.2975L7.65827 41.1554L7.51947 40.9889L7.39258 40.8102L7.27758 40.6194L7.18638 40.4204L7.10707 40.2092L7.04759 39.9981L7.0119 39.7625L7 39.5636V26.7519L7.0119 26.553L7.04759 26.3296L7.10707 26.1063L7.18638 25.8951L7.27758 25.6962L7.39258 25.5053L7.51947 25.3388L7.65827 25.1723L7.82085 25.018L7.99533 24.8881L8.18171 24.7825L8.37601 24.6769L8.57032 24.6079L8.78842 24.547L9.00652 24.5104L9.20083 24.4982H16.5845L16.7907 24.5104L17.0207 24.5348L17.2388 24.5713L17.4569 24.6201L17.675 24.6891L17.8812 24.7581L18.0874 24.8515L18.2817 24.9571L18.476 25.0627L18.6624 25.1926L18.8369 25.3226L19.0114 25.4647L19.174 25.619L19.3246 25.7855L19.4753 25.952L19.6141 26.1185L19.7529 26.3093L19.8798 26.5002L19.9948 26.691L20.0979 26.89L20.201 27.1012L20.2922 27.3001L20.3715 27.5235L20.4508 27.7468L20.5182 27.9702L20.5777 28.1935L20.6253 28.429L20.6729 28.6645L20.7086 28.9123L20.7324 29.1478L20.7443 29.3955L20.7562 29.6432V29.8097L20.7443 29.9518L20.7324 30.1061L20.7205 30.2604L20.7086 30.4147L20.6848 30.5568L20.661 30.7112L20.6372 30.8533L20.6015 30.9954L20.5777 31.1375L20.5301 31.2797L20.4944 31.4218L20.4469 31.5517L20.3993 31.6939L20.3517 31.8238L20.3041 31.9537L20.2446 32.0837L20.1851 32.2136L20.1257 32.3436L20.0582 32.4735L19.9908 32.5913L20.0939 32.6969L20.2208 32.8268L20.2684 32.8755L21.3748 27.6291L21.3986 27.5478L21.4224 27.4301L21.47 27.2636L21.5175 27.0849L21.577 26.9184L21.6444 26.7641L21.7237 26.6098L21.8149 26.4555L21.9062 26.3134L21.9974 26.1713L22.1005 26.0413L22.2155 25.9114L22.3305 25.7936L22.4573 25.6758L22.5842 25.5703L22.7111 25.4647L22.8499 25.3713L22.9887 25.2779L23.1394 25.1967L23.2901 25.1155L23.4408 25.0464L23.5915 24.9774L23.7541 24.9165L23.9166 24.8556L24.0911 24.8069L24.2537 24.7703L24.4282 24.7216L24.6027 24.6972L24.7771 24.6728L24.9516 24.6485L25.138 24.6363H25.4711L25.6218 24.6485L25.7725 24.6607L25.9232 24.685L26.0738 24.6972L26.2126 24.7338L26.3633 24.7581L26.5021 24.7947L26.6409 24.8434L26.7797 24.8921L26.9185 24.9409L27.0573 24.9896L27.1842 25.0505L27.3111 25.1114L27.438 25.1804L27.5649 25.2495L27.6799 25.3185L27.8067 25.3997L27.9217 25.4809L28.0249 25.5743L28.1398 25.6555L28.243 25.7489L28.3461 25.8545L28.4373 25.9601L28.5285 26.0657L28.6197 26.1713L28.699 26.289L28.7783 26.419L28.8576 26.5367L28.925 26.6667L28.9845 26.7966L29.044 26.9266L29.0678 27.0078L29.0916 27.0687L29.1154 27.1377L29.1391 27.1986L29.1629 27.2595L29.1748 27.3204L29.1867 27.3814L29.2105 27.4301L29.2224 27.491L29.2343 27.5397L29.2462 27.5885L29.2581 27.6372L29.27 27.6737V27.7103L29.2819 27.7468L29.2938 27.7834L29.385 28.1245L29.4524 27.9011L29.4643 27.8524L29.4762 27.8037L29.4881 27.7549L29.5 27.7062L29.5238 27.6453L29.5357 27.5844L29.5476 27.5357L29.5714 27.4748L29.5833 27.4057L29.6071 27.3448L29.619 27.2839L29.6428 27.2149L29.6665 27.154L29.6903 27.0849L29.7141 27.0159L29.7498 26.9347L29.8093 26.8047L29.8688 26.6748L29.9362 26.5448L30.0155 26.4271L30.0948 26.2971L30.1741 26.1794L30.2653 26.0738L30.3565 25.9682L30.4477 25.8626L30.5508 25.7571L30.6539 25.6637L30.7689 25.5825L30.872 25.4891L30.987 25.4078L31.102 25.3266L31.2289 25.2576L31.3558 25.1886L31.4827 25.1195L31.6096 25.0586L31.7365 24.9977L31.8753 24.949L32.0141 24.9002L32.141 24.8515L32.2917 24.8028L32.4305 24.7662L32.5812 24.7419L32.7199 24.7053L32.8706 24.6932L33.0213 24.6688L33.172 24.6566L33.3227 24.6444H33.6122L33.751 24.6566L33.8898 24.6688L34.0285 24.681L34.1554 24.6932L34.2942 24.7175L34.4211 24.7419L34.5599 24.7784L34.6868 24.815L34.8137 24.8515L34.9406 24.8881L35.0556 24.9368L35.1825 24.9855L35.2975 25.0343L35.4125 25.0952L35.5275 25.1561L35.6425 25.217L35.7575 25.286L35.8606 25.355L35.9637 25.4241L36.0668 25.4931L36.1699 25.5743L36.273 25.6555L36.3642 25.7368L36.4554 25.818L36.5466 25.9114L36.6259 26.0048L36.7052 26.1103L36.7845 26.2037L36.8639 26.3093L36.9313 26.4271L36.9987 26.5327L37.0344 26.6017L37.0701 26.6626L37.1057 26.7235L37.1295 26.7926L37.1652 26.8535L37.189 26.9225L37.2128 26.9834L37.2485 27.0524L37.2723 27.1337L37.2961 27.2027L37.3199 27.2839L37.3437 27.3529L37.3675 27.422L37.3794 27.491L37.4032 27.56L37.4151 27.6291L37.4269 27.6981L37.4507 27.759L37.4626 27.8199L37.4745 27.8808L37.4864 27.9417L37.5102 28.0595L37.5221 28.1082L37.6847 28.8513L37.7878 28.6727L38.0178 28.3072L38.2716 27.9661L38.5254 27.6372L38.803 27.3286L39.1043 27.02L39.4057 26.7357L39.7269 26.4514L40.06 26.2037L40.405 25.956L40.7619 25.7327L41.1307 25.5215L41.5114 25.3307L41.9039 25.152L42.2965 24.9977L42.7129 24.8556L43.1293 24.7378L43.5575 24.6444L43.9858 24.5754L44.426 24.5145L44.8741 24.4779L45.3142 24.4657H45.5204L45.6235 24.4779H45.8179L45.9091 24.4901H46.0122L46.1034 24.5023L46.2065 24.5145L46.2977 24.5267L46.3889 24.5388L46.492 24.551L46.5832 24.5632L46.6744 24.5754L46.7656 24.5876L46.8687 24.6119L46.9599 24.6241L47.0511 24.6485L47.1423 24.6607L47.2335 24.685L47.3247 24.7094L47.4159 24.7338L47.5071 24.7581L47.5983 24.7825L47.6895 24.8069L47.7808 24.8312L47.872 24.8556L47.9632 24.8921L48.0544 24.9165L48.1337 24.953L48.2249 24.9774L48.3756 25.0383L48.5818 25.1317L48.673 25.1926L48.7761 25.2535L48.8792 25.3144L48.9704 25.3754L49.0735 25.4444L49.1647 25.5256L49.2559 25.5946L49.3352 25.6758L49.4145 25.7571L49.4938 25.8383L49.5731 25.9317L49.6524 26.0129L49.7199 26.1063L49.7873 26.2119L49.8547 26.3053L49.9142 26.4108L49.9736 26.5164L50.0331 26.622L50.0807 26.7276L50.1283 26.8332L50.1759 26.9509L50.2116 27.0687L50.2473 27.1864L50.283 27.3042L50.3067 27.422L50.3305 27.5519L50.3424 27.6697L50.3543 27.7996L50.3662 27.9296V28.226L50.3543 28.3925L50.3305 28.559L50.2949 28.7133L50.2592 28.8798L50.2235 29.0341L50.164 29.1884L50.1045 29.3305L50.045 29.4848L49.9657 29.6269L49.8983 29.7569L49.819 29.8868L49.7278 30.0168L49.6366 30.1467L49.5335 30.2645L49.4304 30.3701L49.3154 30.4756L49.2004 30.5812L49.0854 30.6746L48.9585 30.768L48.8316 30.8492L48.6928 30.9304L48.554 30.9995L48.4152 31.0604L48.2645 31.1213L48.1257 31.1822L47.9632 31.2309L47.8125 31.2675L47.7213 31.2797H49.4423L49.5811 31.2918L49.7199 31.3162L49.8468 31.3406L49.9855 31.3649L50.1124 31.4137L50.2393 31.4502L50.3543 31.5111L50.4812 31.5599L50.5962 31.6208L50.7112 31.6898L50.8143 31.7588L50.9174 31.84L51.0205 31.9213L51.1117 32.0025L51.2148 32.0959L51.2941 32.1893L51.3854 32.2827L51.4647 32.3882L51.5321 32.4938L51.5995 32.5994L51.6669 32.7172L51.7264 32.8349L51.7859 32.9649L51.8335 33.0826L51.881 33.2126L51.9167 33.3425L51.9405 33.4846L51.9643 33.6146L51.9881 33.7567L52 33.8988V38.3291L51.9762 38.52L51.9524 38.7108L51.9167 38.9017L51.8691 39.0803L51.8097 39.259L51.7502 39.4255L51.6828 39.592L51.6035 39.7585L51.5122 39.9006L51.421 40.0549L51.3179 40.1849L51.2148 40.3148L51.0998 40.4447L50.9848 40.5625L50.8698 40.6681L50.7548 40.7737L50.6279 40.8671L50.5011 40.9605L50.3742 41.0417L50.2354 41.1229L50.1085 41.2041L49.9697 41.2731L49.8309 41.334L49.704 41.4031L49.5652 41.4518L49.4264 41.5127L49.2876 41.5614L49.1488 41.6102L49.01 41.6589L48.8713 41.6954L48.7325 41.732L48.5937 41.7564L48.4549 41.7929L48.3161 41.8173L48.1892 41.8416L48.0504 41.866L47.9116 41.8904L47.7847 41.9025L47.6459 41.9147L47.519 41.9391L47.3921 41.9513H47.2652L47.1383 41.9635L47.0115 41.9756H46.8846L46.7696 41.9878H46.6546L46.5396 42H45.5125L45.4451 41.9878H45.2706L44.8305 41.9756L44.3784 41.9513L43.9382 41.8904L43.51 41.8091L43.0817 41.7157L42.6653 41.598L42.2489 41.468L41.8564 41.3016L41.4638 41.1351L41.0831 40.9361L40.7143 40.7371L40.3574 40.5016L40.0124 40.2661L39.6793 40.0062L39.4255 39.7828L39.4017 39.8438L39.3343 39.9981L39.2669 40.1402L39.1876 40.2823L39.0964 40.4123L39.0052 40.5422L38.914 40.6721L38.8109 40.7899L38.7078 40.9077L38.5928 41.0132L38.4778 41.1188L38.3509 41.2244L38.224 41.3178L38.0852 41.399L37.9583 41.4802L37.8076 41.5493L37.6688 41.6183L37.5182 41.6792L37.3675 41.7279L37.2049 41.7767L37.0542 41.8132L36.8916 41.8498L36.7171 41.8741L36.5545 41.8863H36.2333L36.0946 41.8741L35.9439 41.8619L35.7932 41.8376L35.7099 41.7807L35.5592 41.7442L35.4204 41.6954L35.2935 41.6467L35.1547 41.5939ZM37.7521 30.0493L37.6014 30.4147L37.4983 30.7233L36.9551 28.2544L36.9432 28.1935L36.9194 28.0757L36.9075 28.0148L36.8956 27.9539L36.8837 27.893L36.8599 27.8321L36.848 27.7712L36.8361 27.7022L36.8242 27.6412L36.8004 27.5803L36.7885 27.5113L36.7647 27.4423L36.7409 27.3814L36.7171 27.3123L36.6933 27.2514L36.6814 27.1905L36.6576 27.1296L36.6339 27.0809L36.6101 27.0321L36.5863 26.9712L36.5625 26.9225L36.5268 26.8616L36.503 26.8129L36.4435 26.7195L36.384 26.6382L36.3246 26.5448L36.2571 26.4636L36.1897 26.3824L36.1223 26.3134L36.043 26.2322L35.9756 26.1631L35.8963 26.0941L35.8051 26.0251L35.7258 25.956L35.6346 25.8951L35.5553 25.8342L35.464 25.7733L35.3609 25.7124L35.2697 25.6637L35.1666 25.6028L35.0754 25.554L34.9723 25.5175L34.8692 25.4687L34.7542 25.4322L34.6511 25.3957L34.5361 25.3591L34.433 25.3347L34.318 25.3104L34.203 25.286L34.088 25.2617L33.973 25.2495L33.858 25.2373L33.7311 25.2251H33.6082L33.4813 25.2129L33.3544 25.2251H33.2156L33.0887 25.2373L32.9499 25.2495L32.8231 25.2738L32.6962 25.2982L32.5693 25.3226L32.4543 25.3591L32.3274 25.3957L32.2124 25.4322L32.0974 25.4809L31.9824 25.5297L31.8674 25.5784L31.7524 25.6271L31.6493 25.688L31.5462 25.7489L31.4431 25.818L31.34 25.8789L31.2488 25.9479L31.1457 26.0291L31.0545 26.0982L30.9751 26.1794L30.8958 26.2606L30.8165 26.3418L30.7372 26.4352L30.6579 26.5286L30.5905 26.622L30.531 26.7154L30.4715 26.821L30.4121 26.9266L30.3526 27.0321L30.305 27.1377L30.2812 27.1986L30.2574 27.2595L30.2336 27.3204L30.2217 27.3814L30.1979 27.4423L30.186 27.5032L30.1622 27.5641L30.1503 27.625L30.1265 27.6737L30.1146 27.7346L30.1027 27.7955L30.0909 27.8443L30.0671 27.9052L30.0552 27.9539L30.0433 28.0026L30.0314 28.0514L29.3969 30.3091L28.7386 27.9336L28.7267 27.8971L28.7148 27.8483L28.7029 27.8118L28.691 27.7631L28.6792 27.7265L28.6673 27.6778L28.6554 27.6291L28.6435 27.5803L28.6316 27.5194L28.6197 27.4707L28.6078 27.422L28.584 27.3611L28.5721 27.3123L28.5483 27.2514L28.5245 27.2027L28.5126 27.1418L28.465 27.0362L28.4055 26.9306L28.3461 26.825L28.2866 26.7195L28.2192 26.6261L28.1517 26.5327L28.0843 26.4393L28.005 26.3459L27.9257 26.2647L27.8464 26.1834L27.7552 26.1022L27.664 26.0332L27.5728 25.952L27.4816 25.8829L27.3785 25.822L27.2754 25.753L27.1723 25.6921L27.0692 25.6312L26.9542 25.5825L26.8392 25.5337L26.7242 25.485L26.6092 25.4363L26.4942 25.3997L26.3673 25.3632L26.2404 25.3266L26.1135 25.3023L25.9866 25.2779L25.8597 25.2535L25.7328 25.2413L25.6059 25.2292H25.4671L25.3283 25.217L25.1777 25.2292H25.0151L24.8644 25.2535L24.7018 25.2657L24.5511 25.3023L24.4123 25.3266L24.2616 25.3754L24.1228 25.4119L23.9722 25.4606L23.8453 25.5215L23.7065 25.5825L23.5796 25.6434L23.4527 25.7124L23.3258 25.7814L23.2108 25.8626L23.0958 25.9439L22.9808 26.0251L22.8777 26.1185L22.7746 26.2119L22.6715 26.3053L22.5803 26.4108L22.501 26.5286L22.4217 26.6342L22.3424 26.7519L22.2749 26.8697L22.2155 26.9996L22.156 27.1296L22.0965 27.2595L22.0608 27.4017L22.0251 27.5316L22.0013 27.6372L21.9775 27.7428L20.5936 34.3008L20.5698 34.2643L20.5024 34.1222L20.4112 33.9801L20.3319 33.8501L20.2407 33.708L20.1495 33.578L20.0464 33.4603L19.9432 33.3303L19.8401 33.2126L19.7251 33.107L19.6102 33.0014L19.4833 32.8958L19.3683 32.7903L19.2414 32.6969L19.2533 32.6725L19.3207 32.5791L19.3881 32.4735L19.4555 32.3679L19.515 32.2624L19.5745 32.1568L19.6339 32.0512L19.6934 31.9334L19.741 31.8279L19.7886 31.7101L19.8362 31.5923L19.8838 31.4746L19.9314 31.3446L19.967 31.2269L20.0027 31.0969L20.0384 30.9792L20.0622 30.8492L20.0979 30.7193L20.1217 30.5893L20.1455 30.4594L20.1574 30.3173L20.1693 30.1873L20.1812 30.0574L20.1931 29.9153V29.7731L20.205 29.631L20.1931 29.4077L20.1812 29.1843L20.1574 28.9732L20.1336 28.7498L20.086 28.5387L20.0384 28.3275L19.9908 28.1285L19.9234 27.9296L19.856 27.7306L19.7886 27.5397L19.7093 27.3489L19.6181 27.158L19.515 26.9793L19.4238 26.8129L19.3088 26.6342L19.1938 26.4799L19.0669 26.3256L18.94 26.1834L18.8131 26.0413L18.6624 25.9114L18.5236 25.7936L18.3729 25.6758L18.2103 25.5703L18.0478 25.4769L17.8733 25.3957L17.6988 25.3144L17.5243 25.2454L17.3379 25.1967L17.1516 25.148L16.9652 25.1114L16.7788 25.0992L16.5924 25.087H9.22462L9.07393 25.0992L8.90342 25.1317L8.75273 25.1804L8.60204 25.2413L8.45136 25.3104L8.31257 25.3916L8.18567 25.485L8.07067 25.5906L7.96757 25.7083L7.87637 25.8383L7.79706 25.9804L7.72964 26.1225L7.67016 26.2768L7.62258 26.4433L7.59878 26.6098V39.7016L7.62258 39.8681L7.67016 40.0346L7.72964 40.1889L7.79706 40.3432L7.87637 40.4732L7.96757 40.6031L8.07067 40.7209L8.18567 40.8386L8.31257 40.932L8.45136 41.0132L8.60204 41.0823L8.75273 41.1432L8.90342 41.1797L9.0779 41.2163H17.1516L17.3697 41.1919L17.5759 41.1676L17.7821 41.1188L17.9883 41.0701L18.1826 41.0011L18.3769 40.932L18.5712 40.8508L18.7576 40.7574L18.944 40.6518L19.1184 40.5341L19.2929 40.4163L19.4555 40.2864L19.6181 40.1442L19.7688 40.0021L19.9076 39.8478L20.0345 39.7057L20.0939 39.8234L20.1613 39.9412L20.2288 40.059L20.2962 40.1645L20.3755 40.2579L20.4548 40.3635L20.546 40.4569L20.6372 40.5503L20.7403 40.6315L20.8315 40.7127L20.9346 40.7818L21.0496 40.8508L21.1646 40.9198L21.2796 40.9808L21.3946 41.0417L21.5096 41.0904L21.6365 41.1391L21.7634 41.1757L21.9022 41.2L22.0291 41.2244L22.1679 41.2488L22.2948 41.2609H22.5486L22.6636 41.2488L22.7786 41.2366L22.8935 41.2244L23.0085 41.2L23.1235 41.1635L23.2266 41.1391L23.3297 41.1026L23.4329 41.0538L23.536 41.0051L23.6391 40.9564L23.7303 40.9077L23.8334 40.8468L23.9246 40.7858L24.0039 40.7168L24.0951 40.6478L24.1744 40.5787L24.2537 40.5097L24.333 40.4285L24.4123 40.3473L24.4797 40.2661L24.5471 40.1849L24.6066 40.0915L24.674 39.9981L24.7335 39.9047L24.7811 39.8113L24.8406 39.7057L24.8882 39.6001L24.9239 39.4945L24.9714 39.3889L25.0309 39.19L25.6654 36.5667L26.2523 38.6824L26.2761 38.7433L26.288 38.8042L26.3118 38.8651L26.3237 38.926L26.3475 38.9869L26.3594 39.0478L26.3832 39.1088L26.395 39.1697L26.4188 39.2387L26.4426 39.2996L26.4664 39.3686L26.4902 39.4296L26.5259 39.4986L26.5616 39.5676L26.5854 39.6367L26.633 39.7057L26.6806 39.7869L26.7281 39.8681L26.7876 39.9615L26.8471 40.0427L26.9145 40.1118L26.974 40.193L27.0414 40.262L27.1088 40.3432L27.1881 40.4123L27.2556 40.4732L27.3349 40.5422L27.4142 40.6031L27.4935 40.6721L27.5728 40.7209L27.664 40.7818L27.7433 40.8427L27.8345 40.8914L27.9257 40.9401L28.0169 40.9889L28.1081 41.0254L28.2112 41.062L28.3024 41.0985L28.4055 41.1351L28.5086 41.1594L28.6117 41.196L28.7148 41.2203L28.8179 41.2325L28.921 41.2569L29.036 41.2691H29.1391L29.2541 41.2812H29.4722L29.5753 41.2691H29.6784L29.7815 41.2569L29.8846 41.2325L29.9878 41.2203L30.0909 41.196L30.194 41.1716L30.2852 41.1472L30.3883 41.1107L30.4795 41.0742L30.5826 41.0376L30.6738 41.0011L30.765 40.9523L30.8443 40.9036L30.9355 40.8549L31.0267 40.8061L31.106 40.7574L31.1853 40.6965L31.2646 40.6356L31.3439 40.5747L31.4232 40.5138L31.4907 40.4447L31.5581 40.3757L31.6255 40.3148L31.6929 40.2336L31.7603 40.1645L31.8198 40.0955L31.8793 40.0143L31.9388 39.9331L31.9982 39.8519L32.0458 39.7707L32.0934 39.7016L32.1291 39.6326L32.1648 39.5717L32.2005 39.5026L32.2243 39.4417L32.2481 39.3727L32.2837 39.3118L32.3075 39.2428L32.3313 39.1819L32.3551 39.1209L32.367 39.0519L32.3908 38.991L32.4146 38.9301L32.4265 38.8611L32.4503 38.8001L32.4622 38.7392L33.1086 36.4368L33.7668 39.0722V39.0966L33.8025 39.2143L33.8382 39.3321L33.8739 39.4499L33.9215 39.5676L33.9691 39.6732L34.0167 39.7788L34.0761 39.8844L34.1356 39.9778L34.203 40.0833L34.2625 40.1767L34.3418 40.2701L34.4092 40.3513L34.4885 40.4447L34.5679 40.526L34.6591 40.595L34.7384 40.6762L34.8296 40.7452L34.9327 40.8061L35.0239 40.8752L35.127 40.9361L35.2301 40.9848L35.3332 41.0335L35.4482 41.0823L35.5513 41.131L35.6663 41.1554L35.7813 41.1919L35.8963 41.2163L36.0232 41.2406L36.1382 41.2528L36.2651 41.265H36.5189L36.6576 41.2528L36.7964 41.2285L36.9233 41.2041L37.0502 41.1797L37.1771 41.1432L37.304 41.0945L37.4309 41.0457L37.5459 40.9848L37.6609 40.9239L37.7759 40.8549L37.879 40.7858L37.9821 40.7168L38.0852 40.6356L38.1883 40.5544L38.2795 40.461L38.3588 40.3676L38.45 40.262L38.5174 40.1686L38.5968 40.063L38.6642 39.9453L38.7316 39.8275L38.7911 39.7097L38.8386 39.592L38.8981 39.4742L38.9338 39.3443L38.9695 39.2143L39.0052 39.0722L39.029 38.9423L39.0528 38.8001V38.6702L39.0647 38.5646L39.1916 38.7189L39.4573 39.0032L39.7467 39.2631L40.0481 39.523L40.3614 39.7585L40.6826 39.994L41.0157 40.193L41.3607 40.3919L41.7176 40.5706L42.0745 40.7371L42.4551 40.8792L42.8358 41.0092L43.2165 41.1148L43.621 41.2082L44.0255 41.2772L44.4299 41.3381L44.8582 41.3625L45.2627 41.3746H45.5839L45.6513 41.3868H46.4008L46.5158 41.3746H46.7339L46.8489 41.3625H46.9639L47.0789 41.3503L47.2058 41.3381H47.3208L47.4477 41.3259L47.5745 41.3137L47.7014 41.2894L47.8164 41.2772L47.9433 41.2528L48.0702 41.2406L48.1971 41.2163L48.324 41.1919L48.4509 41.1554L48.5778 41.131L48.7047 41.0945L48.8316 41.0579L48.9585 41.0214L49.0854 40.9848L49.2004 40.9361L49.3273 40.8874L49.4542 40.8264L49.5692 40.7777L49.6842 40.7168L49.7992 40.6559L49.9142 40.5869L50.0292 40.5178L50.1442 40.4488L50.2473 40.3676L50.3623 40.2864L50.4654 40.2052L50.5566 40.1118L50.6478 40.0062L50.739 39.9128L50.8302 39.8072L50.9095 39.6894L50.9888 39.5717L51.0562 39.4539L51.1236 39.324L51.1831 39.1819L51.2307 39.0519L51.2783 38.9098L51.314 38.7555L51.3497 38.6133L51.3616 38.459L51.3854 38.2925V33.9232L51.3735 33.8176L51.3616 33.712L51.3378 33.6065L51.314 33.5009L51.2902 33.3953L51.2545 33.3019L51.2069 33.2085L51.1712 33.1151L51.1236 33.0217L51.0641 32.9283L51.0166 32.8471L50.9571 32.7659L50.8897 32.6847L50.8223 32.6035L50.7548 32.5344L50.6874 32.4654L50.6081 32.3964L50.5407 32.3355L50.4495 32.2745L50.3702 32.2136L50.279 32.1527L50.1997 32.104L50.0966 32.0674L50.0054 32.0187L49.9142 31.9822L49.8111 31.9578L49.708 31.9334L49.6049 31.9091L49.5018 31.8969L49.3987 31.8847H45.8456L45.7306 31.8969L45.5918 31.9213L45.4649 31.9456L45.338 31.9944L45.223 32.0553L45.108 32.1243L45.0049 32.2055L44.9137 32.2867L44.8344 32.3801L44.7551 32.4857L44.6877 32.6035L44.6282 32.7212L44.5806 32.8512L44.5568 32.9811L44.533 33.1232L44.5211 33.241V33.9841L44.533 34.1141L44.5568 34.244L44.5806 34.3861L44.6282 34.5039L44.6877 34.6338L44.7551 34.7394L44.8344 34.845L44.9137 34.9384L45.0049 35.0318L45.108 35.1008L45.223 35.1698L45.338 35.2308L45.4649 35.2795L45.5918 35.316L45.7306 35.3404H45.9606V35.9901L45.9368 36.0023L45.8694 36.0267L45.8099 36.0388L45.7425 36.051L45.6751 36.0632L45.6077 36.0754L45.5403 36.0876L45.4729 36.0998L45.3936 36.1119H45.231L45.0446 36.1241H44.7313L44.5806 36.0998L44.4418 36.0876L44.303 36.051L44.1643 36.0145L44.0255 35.9657L43.8986 35.917L43.7717 35.8561L43.6567 35.7871L43.5417 35.718L43.4267 35.649L43.3236 35.5678L43.2205 35.4744L43.1293 35.381L43.0381 35.2876L42.9588 35.182L42.8794 35.0643L42.8001 34.9587L42.7327 34.8409L42.6653 34.711L42.6058 34.581L42.5582 34.4511L42.5107 34.3212L42.475 34.179L42.4393 34.0369L42.4155 33.8826L42.3917 33.7283L42.3798 33.574V33.2654L42.3917 33.0989L42.4155 32.9324L42.4393 32.7781L42.475 32.6359L42.5107 32.4816L42.5582 32.3395L42.6058 32.2096L42.6653 32.0674L42.7248 31.9375L42.7922 31.8197L42.8596 31.702L42.927 31.5842L43.0063 31.4786L43.0857 31.3731L43.1769 31.2797L43.2681 31.1863L43.3593 31.0929L43.4624 31.0117L43.5655 30.9304L43.6805 30.8614L43.7836 30.7924L43.9105 30.7233L44.0255 30.6624L44.1524 30.6137L44.2793 30.565L44.4062 30.5162L44.5449 30.4797L44.6837 30.4553L44.8225 30.431L44.9732 30.4066H45.1239L45.2746 30.3944H45.4015L45.4689 30.4066H45.5284L45.5879 30.4188H45.6553L45.7148 30.431L45.7742 30.4431L45.8416 30.4553L45.9011 30.4675L45.9606 30.4797L46.0201 30.4919L46.0796 30.5162L46.1391 30.5284L46.1985 30.5528L46.2897 30.5772L46.3254 30.5893H46.3492L46.4087 30.6137L46.4682 30.6259L46.5277 30.6502L46.5872 30.6624L46.6466 30.6746L46.7061 30.6868L46.7656 30.699L46.8251 30.7112L46.8846 30.7233H46.944L47.0115 30.7355H47.3247L47.4516 30.7233L47.5904 30.7112L47.7173 30.6868L47.8442 30.6502L47.9592 30.6137L48.0861 30.565L48.2011 30.5162L48.3161 30.4675L48.4311 30.4066L48.5342 30.3376L48.6373 30.2685L48.7404 30.1995L48.8435 30.1305L48.9347 30.0371L49.0259 29.9559L49.1052 29.8625L49.1845 29.7691L49.2638 29.6757L49.3312 29.5701L49.3987 29.4645L49.4581 29.3468L49.5176 29.229L49.5771 29.1112L49.6247 28.9935L49.6723 28.8757L49.708 28.7458L49.7318 28.6158L49.7556 28.4859L49.7793 28.3559L49.7912 28.2138V27.9783L49.7793 27.8727L49.7674 27.7671L49.7556 27.6737L49.7437 27.5681L49.7199 27.4748L49.6961 27.3814L49.6604 27.288L49.6366 27.1824L49.6009 27.1012L49.5533 27.0078L49.5176 26.9144L49.47 26.8332L49.4225 26.7519L49.363 26.6707L49.3154 26.5895L49.2559 26.5083L49.1964 26.4271L49.1369 26.3581L49.0695 26.289L49.0021 26.22L48.9347 26.151L48.8673 26.09L48.7999 26.0291L48.7206 25.9601L48.6413 25.9114L48.5738 25.8505L48.4826 25.8017L48.4033 25.753L48.324 25.7043L48.1495 25.6231L48.0345 25.5865L47.9552 25.55L47.8759 25.5256L47.7966 25.5012L47.7054 25.4647L47.6261 25.4403L47.5468 25.416L47.4556 25.3916L47.3763 25.3672L47.2851 25.3429L47.2058 25.3307L47.1146 25.3063L47.0352 25.282L46.944 25.2698L46.8647 25.2454L46.7735 25.2332L46.6823 25.221L46.5911 25.2089L46.5118 25.1845L46.4206 25.1723L46.3294 25.1601H46.2382L46.1589 25.148L46.0677 25.1358L45.9765 25.1236H45.8853L45.7941 25.1114H45.6077L45.5165 25.0992H45.3301L44.9137 25.1114L44.4855 25.148L44.081 25.1967L43.6765 25.2657L43.272 25.3591L42.8913 25.4647L42.5107 25.5946L42.13 25.7368L41.7731 25.9032L41.4162 26.0819L41.0712 26.2809L40.7381 26.4921L40.4169 26.7154L40.1036 26.9509L39.8023 27.2108L39.5128 27.4829L39.2471 27.7671L38.9814 28.0636L38.7395 28.3722L38.5095 28.693L38.2914 29.0219L38.0971 29.363L37.9107 29.7041L37.7521 30.0493Z" fill="#FAA831"/>
</svg>
