<svg width="18" height="18" viewBox="0 0 18 18" fill="none" xmlns="http://www.w3.org/2000/svg">
<path d="M15.7297 13.2728C15.7297 13.5158 15.6757 13.7655 15.561 14.0085C15.4462 14.2515 15.2978 14.481 15.102 14.697C14.7713 15.0615 14.4067 15.3248 13.995 15.4935C13.59 15.6623 13.1513 15.75 12.6788 15.75C11.9903 15.75 11.2545 15.588 10.4782 15.2573C9.702 14.9265 8.92575 14.481 8.15625 13.9208C7.38 13.3538 6.64425 12.726 5.94225 12.0308C5.247 11.3288 4.61925 10.593 4.059 9.8235C3.5055 9.054 3.06 8.2845 2.736 7.52175C2.412 6.75225 2.25 6.0165 2.25 5.3145C2.25 4.8555 2.331 4.41675 2.493 4.01175C2.655 3.6 2.9115 3.222 3.26925 2.8845C3.70125 2.45925 4.17375 2.25 4.67325 2.25C4.86225 2.25 5.05125 2.2905 5.22 2.3715C5.3955 2.4525 5.55075 2.574 5.67225 2.7495L7.23825 4.95675C7.35975 5.1255 7.4475 5.28075 7.50825 5.42925C7.569 5.571 7.60275 5.71275 7.60275 5.841C7.60275 6.003 7.5555 6.165 7.461 6.32025C7.37325 6.4755 7.245 6.6375 7.083 6.7995L6.57 7.33275C6.49575 7.407 6.462 7.49475 6.462 7.60275C6.462 7.65675 6.46875 7.704 6.48225 7.758C6.5025 7.812 6.52275 7.8525 6.53625 7.893C6.65775 8.11575 6.867 8.406 7.164 8.757C7.46775 9.108 7.79175 9.46575 8.14275 9.8235C8.50725 10.1813 8.85825 10.512 9.216 10.8157C9.567 11.1127 9.85725 11.3152 10.0867 11.4367C10.1205 11.4502 10.161 11.4705 10.2083 11.4907C10.2623 11.511 10.3163 11.5177 10.377 11.5177C10.4918 11.5177 10.5795 11.4773 10.6538 11.403L11.1668 10.8968C11.3355 10.728 11.4975 10.5998 11.6528 10.5188C11.808 10.4243 11.9632 10.377 12.132 10.377C12.2602 10.377 12.3953 10.404 12.5438 10.4648C12.6923 10.5255 12.8475 10.6133 13.0163 10.728L15.2505 12.3143C15.426 12.4358 15.5475 12.5775 15.6217 12.7462C15.6892 12.915 15.7297 13.0838 15.7297 13.2728Z" stroke="black" stroke-width="1.5" stroke-miterlimit="10"/>
</svg>
