<svg id="Icon" xmlns="http://www.w3.org/2000/svg" xmlns:xlink="http://www.w3.org/1999/xlink" width="24" height="24" viewBox="0 0 24 24">
  <defs>
    <clipPath id="clip-path">
      <rect id="Rectangle_44435" data-name="Rectangle 44435" width="20" height="20" transform="translate(0.447 -0.139)" fill="#fff" stroke="#707070" stroke-width="1"/>
    </clipPath>
  </defs>
  <rect id="background" width="24" height="24" fill="none"/>
  <g id="Mask_Group_375" data-name="Mask Group 375" transform="translate(1.553 2.139)" clip-path="url(#clip-path)">
    <g id="castle_1_" data-name="castle (1)" transform="translate(0.492 0)">
      <path id="Path_44341" data-name="Path 44341" d="M19.776.533H18.431a.326.326,0,0,0-.326.326V3.243h-.4V.859a.326.326,0,0,0-.326-.326H16.033a.326.326,0,0,0-.326.326V3.243h-.4V.859A.326.326,0,0,0,14.98.533H13.635a.326.326,0,0,0-.326.326V5.051L10.547,2.335a.326.326,0,0,0-.457,0L7.328,5.051V.859A.326.326,0,0,0,7,.533H5.657a.326.326,0,0,0-.326.326V3.243h-.4V.859A.326.326,0,0,0,4.6.533H3.258a.326.326,0,0,0-.326.326V3.243h-.4V.859A.326.326,0,0,0,2.205.533H.859A.326.326,0,0,0,.533.859V19.776a.326.326,0,0,0,.326.326H19.776a.326.326,0,0,0,.326-.326V.859A.326.326,0,0,0,19.776.533ZM13.96,7.841h5.49v6.608H13.96Zm0-6.655h.693V3.569a.326.326,0,0,0,.326.326h1.053a.326.326,0,0,0,.326-.326V1.186h.693V3.569a.326.326,0,0,0,.326.326h1.053a.326.326,0,0,0,.326-.326V1.186h.693v6H13.96v-6ZM10.318,3.025l2.99,2.941v6.17H12.139V10.3a1.821,1.821,0,0,0-3.642,0v1.836H7.328V5.966Zm1.169,9.111H9.149V10.3a1.169,1.169,0,1,1,2.338,0ZM1.186,7.841h5.49v6.608H1.186Zm.693-6.655V3.569a.326.326,0,0,0,.326.326H3.258a.326.326,0,0,0,.326-.326V1.186h.693V3.569a.326.326,0,0,0,.326.326H5.656a.326.326,0,0,0,.326-.326V1.186h.693v6H1.186v-6ZM1.186,15.1h5.49V19.45H1.186Zm6.142-2.313h5.98V19.45H12.139V17.614a1.821,1.821,0,0,0-3.642,0V19.45H7.328ZM9.149,19.45V17.614a1.169,1.169,0,1,1,2.338,0V19.45Zm4.811,0V15.1h5.49V19.45Z" transform="translate(-0.533 -0.533)"/>
      <path id="Path_44342" data-name="Path 44342" d="M8.593,5.9a.326.326,0,0,0,.326-.326V4.849a.326.326,0,1,0-.652,0v.727A.326.326,0,0,0,8.593,5.9Z" transform="translate(1.192 0.357)"/>
      <path id="Path_44343" data-name="Path 44343" d="M2.469,13.8a.326.326,0,0,0-.326.326V14.8a.326.326,0,1,0,.652,0v-.675A.326.326,0,0,0,2.469,13.8Z" transform="translate(-0.174 2.426)"/>
      <path id="Path_44344" data-name="Path 44344" d="M4.272,13.8a.326.326,0,0,0-.326.326V14.8a.326.326,0,1,0,.652,0v-.675a.326.326,0,0,0-.326-.326Z" transform="translate(0.228 2.426)"/>
      <path id="Path_44345" data-name="Path 44345" d="M2.469,8.667a.326.326,0,0,0-.326.326v.675a.326.326,0,1,0,.652,0V8.993A.326.326,0,0,0,2.469,8.667Z" transform="translate(-0.174 1.281)"/>
      <path id="Path_44346" data-name="Path 44346" d="M4.272,8.667a.326.326,0,0,0-.326.326v.675a.326.326,0,1,0,.652,0V8.993a.326.326,0,0,0-.326-.326Z" transform="translate(0.228 1.281)"/>
      <path id="Path_44347" data-name="Path 44347" d="M14.717,13.8a.326.326,0,0,0-.326.326V14.8a.326.326,0,1,0,.652,0v-.675A.326.326,0,0,0,14.717,13.8Z" transform="translate(2.558 2.426)"/>
      <path id="Path_44348" data-name="Path 44348" d="M12.914,13.8a.326.326,0,0,0-.326.326V14.8a.326.326,0,1,0,.652,0v-.675A.326.326,0,0,0,12.914,13.8Z" transform="translate(2.156 2.426)"/>
      <path id="Path_44349" data-name="Path 44349" d="M14.717,8.667a.326.326,0,0,0-.326.326v.675a.326.326,0,1,0,.652,0V8.993A.326.326,0,0,0,14.717,8.667Z" transform="translate(2.558 1.281)"/>
      <path id="Path_44350" data-name="Path 44350" d="M12.914,8.667a.326.326,0,0,0-.326.326v.675a.326.326,0,1,0,.652,0V8.993A.326.326,0,0,0,12.914,8.667Z" transform="translate(2.156 1.281)"/>
    </g>
  </g>
</svg>
