<svg id="Icon" xmlns="http://www.w3.org/2000/svg" xmlns:xlink="http://www.w3.org/1999/xlink" width="24" height="24" viewBox="0 0 24 24">
  <defs>
    <clipPath id="clip-path">
      <rect id="Rectangle_44413" data-name="Rectangle 44413" width="20" height="20" transform="translate(-0.276)" fill="#fff" stroke="#707070" stroke-width="1"/>
    </clipPath>
    <clipPath id="clip-path-2">
      <path id="path7626" d="M0-16H19.569V3.569H0Z" transform="translate(0 16)"/>
    </clipPath>
  </defs>
  <rect id="background" width="24" height="24" fill="none"/>
  <g id="Mask_Group_366" data-name="Mask Group 366" transform="translate(2.276 2)" clip-path="url(#clip-path)">
    <g id="g7620" transform="translate(0 0)">
      <g id="g7622">
        <g id="g7624" clip-path="url(#clip-path-2)">
          <g id="g7630" transform="translate(7.615 15.279)">
            <path id="path7632" d="M.791,0V4H-3.547V0" transform="translate(3.547)" fill="none" stroke="#000" stroke-linecap="round" stroke-linejoin="round" stroke-width="0.469"/>
          </g>
          <path id="path7634" d="M5.268.5H6.44v-4H5.268Z" transform="translate(1.175 18.787)" fill="none" stroke="#000" stroke-linecap="round" stroke-linejoin="round" stroke-width="0.469"/>
          <path id="path7636" d="M9.774.5h1.172v-4H9.774Z" transform="translate(2.18 18.787)" fill="none" stroke="#000" stroke-linecap="round" stroke-linejoin="round" stroke-width="0.469"/>
        </g>
      </g>
      <path id="path7638" d="M9.713-4h-2.9V-6.57h2.9Z" transform="translate(1.52 18.103)" fill="none" stroke="#000" stroke-linecap="round" stroke-linejoin="round" stroke-width="0.469"/>
      <path id="path7640" d="M5.857-4H7.029V-6.57H5.857Z" transform="translate(1.307 18.103)" fill="none" stroke="#000" stroke-linecap="round" stroke-linejoin="round" stroke-width="0.469"/>
      <path id="path7642" d="M9.185-4h1.172V-6.57H9.185Z" transform="translate(2.049 18.103)" fill="none" stroke="#000" stroke-linecap="round" stroke-linejoin="round" stroke-width="0.469"/>
      <path id="path7644" d="M11.1-6.357H5.857V-7.529H11.1Z" transform="translate(1.307 17.89)" fill="none" stroke="#000" stroke-linecap="round" stroke-linejoin="round" stroke-width="0.469"/>
      <path id="path7646" d="M9.374-7.059H7.05V-9.633H9.374Z" transform="translate(1.573 17.42)" fill="none" stroke="#000" stroke-linecap="round" stroke-linejoin="round" stroke-width="0.469"/>
      <path id="path7648" d="M6.092-7.059H7.264V-9.633H6.092Z" transform="translate(1.359 17.42)" fill="none" stroke="#000" stroke-linecap="round" stroke-linejoin="round" stroke-width="0.469"/>
      <path id="path7650" d="M8.95-7.059h1.172V-9.633H8.95Z" transform="translate(1.997 17.42)" fill="none" stroke="#000" stroke-linecap="round" stroke-linejoin="round" stroke-width="0.469"/>
      <path id="path7652" d="M10.76-9.419H6.092v-1.172H10.76Z" transform="translate(1.359 17.207)" fill="none" stroke="#000" stroke-linecap="round" stroke-linejoin="round" stroke-width="0.469"/>
      <path id="path7654" d="M9.374-10.15H7.05V-12.57H9.374Z" transform="translate(1.573 16.765)" fill="none" stroke="#000" stroke-linecap="round" stroke-linejoin="round" stroke-width="0.469"/>
      <path id="path7656" d="M9.374-12.357H7.05v-1.172H9.374Z" transform="translate(1.573 16.551)" fill="none" stroke="#000" stroke-linecap="round" stroke-linejoin="round" stroke-width="0.469"/>
      <path id="path7658" d="M8.95-12.357H13.2v-1.172H8.95Z" transform="translate(1.997 16.551)" fill="none" stroke="#000" stroke-linecap="round" stroke-linejoin="round" stroke-width="0.469"/>
      <path id="path7660" d="M8.95-14.464H11.8v1.143H8.95Z" transform="translate(1.997 16.343)" fill="none" stroke="#000" stroke-linecap="round" stroke-linejoin="round" stroke-width="0.469"/>
      <g id="g7662">
        <g id="g7664" clip-path="url(#clip-path-2)">
          <g id="g7670" transform="translate(13.795 1.061)">
            <path id="path7672" d="M.2,0H-.627A.287.287,0,0,0-.914.287V1.962H.49V.287A.287.287,0,0,0,.2,0Z" transform="translate(0.914)" fill="none" stroke="#000" stroke-linecap="round" stroke-linejoin="round" stroke-width="0.469"/>
          </g>
          <path id="path7674" d="M8.95-11.36H13.2v-1.21H8.95Z" transform="translate(1.997 16.765)" fill="none" stroke="#000" stroke-linecap="round" stroke-linejoin="round" stroke-width="0.469"/>
          <g id="g7676" transform="translate(10.947 5.405)">
            <path id="path7678" d="M.842.024a.13.13,0,0,0-.13-.13H-3.773V1.1H.842Z" transform="translate(3.773 0.106)" fill="none" stroke="#000" stroke-linecap="round" stroke-linejoin="round" stroke-width="0.469"/>
          </g>
          <g id="g7680" transform="translate(12.119 7.864)">
            <path id="path7682" d="M.759.024a.13.13,0,0,0-.13-.13H-3.4V1.142H.759Z" transform="translate(3.405 0.106)" fill="none" stroke="#000" stroke-linecap="round" stroke-linejoin="round" stroke-width="0.469"/>
          </g>
          <g id="g7684" transform="translate(12.119 6.615)">
            <path id="path7686" d="M.694.024a.13.13,0,0,0-.13-.13H-3.109V1.142h3.8Z" transform="translate(3.109 0.106)" fill="none" stroke="#000" stroke-linecap="round" stroke-linejoin="round" stroke-width="0.469"/>
          </g>
          <g id="g7688" transform="translate(12.119 9.112)">
            <path id="path7690" d="M.825.024A.13.13,0,0,0,.7-.106H-3.7V1.142H.825Z" transform="translate(3.7 0.106)" fill="none" stroke="#000" stroke-linecap="round" stroke-linejoin="round" stroke-width="0.469"/>
          </g>
          <g id="g7692" transform="translate(12.405 12.858)">
            <path id="path7694" d="M.971.024a.13.13,0,0,0-.13-.13H-4.351V1.142H.971Z" transform="translate(4.351 0.106)" fill="none" stroke="#000" stroke-linecap="round" stroke-linejoin="round" stroke-width="0.469"/>
          </g>
          <g id="g7696" transform="translate(12.405 10.361)">
            <path id="path7698" d="M.839.024a.13.13,0,0,0-.13-.13h-4.47V1.142h4.6Z" transform="translate(3.761 0.106)" fill="none" stroke="#000" stroke-linecap="round" stroke-linejoin="round" stroke-width="0.469"/>
          </g>
          <g id="g7700" transform="translate(12.405 11.61)">
            <path id="path7702" d="M.9.024a.13.13,0,0,0-.13-.13H-4.056V1.142H.9Z" transform="translate(4.056 0.106)" fill="none" stroke="#000" stroke-linecap="round" stroke-linejoin="round" stroke-width="0.469"/>
          </g>
          <g id="g7704" transform="translate(13.126 15.355)">
            <path id="path7706" d="M.947,0H-4.246V1.249H1.077V.13A.13.13,0,0,0,.947,0Z" transform="translate(4.246)" fill="none" stroke="#000" stroke-linecap="round" stroke-linejoin="round" stroke-width="0.469"/>
          </g>
          <g id="g7708" transform="translate(13.126 14.107)">
            <path id="path7710" d="M.905.024a.13.13,0,0,0-.13-.13H-4.057V1.142H.905Z" transform="translate(4.057 0.106)" fill="none" stroke="#000" stroke-linecap="round" stroke-linejoin="round" stroke-width="0.469"/>
          </g>
          <g id="g7712" transform="translate(13.126 16.604)">
            <path id="path7714" d="M1.013,0H-4.542V2.679H1.143V.13A.13.13,0,0,0,1.013,0Z" transform="translate(4.542)" fill="none" stroke="#000" stroke-linecap="round" stroke-linejoin="round" stroke-width="0.469"/>
          </g>
          <g id="g7716" transform="translate(9.785 9.074)">
            <path id="path7718" d="M0,0V1.14" fill="none" stroke="#000" stroke-linecap="round" stroke-linejoin="round" stroke-width="0.469"/>
          </g>
          <g id="g7720" transform="translate(9.785 5.421)">
            <path id="path7722" d="M0,0V1.064" transform="translate(0 0)" fill="none" stroke="#000" stroke-linecap="round" stroke-linejoin="round" stroke-width="0.469"/>
          </g>
          <g id="g7724" transform="translate(9.785 12.785)">
            <path id="path7726" d="M0,0V1.14" fill="none" stroke="#000" stroke-linecap="round" stroke-linejoin="round" stroke-width="0.469"/>
          </g>
          <g id="g7728" transform="translate(8.622 0.736)">
            <path id="path7730" d="M.378.12-.534-.54l-.912.66A.6.6,0,0,0-1.7.609V1.747H.628V.609A.6.6,0,0,0,.378.12Z" transform="translate(1.696 0.54)" fill="none" stroke="#000" stroke-linecap="round" stroke-linejoin="round" stroke-width="0.469"/>
          </g>
          <g id="g7732" transform="translate(9.785 2.258)">
            <path id="path7734" d="M0,0V.6" fill="none" stroke="#000" stroke-linecap="round" stroke-linejoin="round" stroke-width="0.469"/>
          </g>
          <g id="g7736" transform="translate(9.785 0.287)">
            <path id="path7738" d="M0,.082V-.367" transform="translate(0 0.367)" fill="none" stroke="#000" stroke-linecap="round" stroke-linejoin="round" stroke-width="0.469"/>
          </g>
          <g id="g7740" transform="translate(14.498 0.287)">
            <path id="path7742" d="M0,.128v-.7" transform="translate(0 0.574)" fill="none" stroke="#000" stroke-linecap="round" stroke-linejoin="round" stroke-width="0.469"/>
          </g>
          <path id="path7744" d="M7.826-12.357H3.573v-1.172H7.826Z" transform="translate(0.797 16.551)" fill="none" stroke="#000" stroke-linecap="round" stroke-linejoin="round" stroke-width="0.469"/>
          <path id="path7746" d="M7.569-14.464H4.721v1.143H7.569Z" transform="translate(1.053 16.343)" fill="none" stroke="#000" stroke-linecap="round" stroke-linejoin="round" stroke-width="0.469"/>
          <g id="g7748" transform="translate(4.369 1.061)">
            <path id="path7750" d="M.052,0H.883A.287.287,0,0,1,1.17.287V1.962h-1.4V.287A.287.287,0,0,1,.052,0Z" transform="translate(0.234)" fill="none" stroke="#000" stroke-linecap="round" stroke-linejoin="round" stroke-width="0.469"/>
          </g>
          <path id="path7752" d="M7.826-11.36H3.573v-1.21H7.826Z" transform="translate(0.797 16.765)" fill="none" stroke="#000" stroke-linecap="round" stroke-linejoin="round" stroke-width="0.469"/>
          <g id="g7754" transform="translate(4.008 5.405)">
            <path id="path7756" d="M0,.024a.13.13,0,0,1,.13-.13H4.614V1.1H0Z" transform="translate(0 0.106)" fill="none" stroke="#000" stroke-linecap="round" stroke-linejoin="round" stroke-width="0.469"/>
          </g>
          <g id="g7758" transform="translate(3.286 7.864)">
            <path id="path7760" d="M0,.024a.13.13,0,0,1,.13-.13H4.164V1.142H0Z" transform="translate(0 0.106)" fill="none" stroke="#000" stroke-linecap="round" stroke-linejoin="round" stroke-width="0.469"/>
          </g>
          <g id="g7762" transform="translate(3.647 6.615)">
            <path id="path7764" d="M0,.024a.13.13,0,0,1,.13-.13H3.8V1.142H0Z" transform="translate(0 0.106)" fill="none" stroke="#000" stroke-linecap="round" stroke-linejoin="round" stroke-width="0.469"/>
          </g>
          <g id="g7766" transform="translate(2.925 9.112)">
            <path id="path7768" d="M0,.024a.13.13,0,0,1,.13-.13h4.4V1.142H0Z" transform="translate(0 0.106)" fill="none" stroke="#000" stroke-linecap="round" stroke-linejoin="round" stroke-width="0.469"/>
          </g>
          <g id="g7770" transform="translate(1.842 12.858)">
            <path id="path7772" d="M0,.024a.13.13,0,0,1,.13-.13H5.322V1.142H0Z" transform="translate(0 0.106)" fill="none" stroke="#000" stroke-linecap="round" stroke-linejoin="round" stroke-width="0.469"/>
          </g>
          <g id="g7774" transform="translate(2.564 10.361)">
            <path id="path7776" d="M0,.024a.13.13,0,0,1,.13-.13H4.6V1.142H0Z" transform="translate(0 0.106)" fill="none" stroke="#000" stroke-linecap="round" stroke-linejoin="round" stroke-width="0.469"/>
          </g>
          <g id="g7778" transform="translate(2.203 11.61)">
            <path id="path7780" d="M0,.024a.13.13,0,0,1,.13-.13H4.961V1.142H0Z" transform="translate(0 0.106)" fill="none" stroke="#000" stroke-linecap="round" stroke-linejoin="round" stroke-width="0.469"/>
          </g>
          <g id="g7782" transform="translate(1.119 15.355)">
            <path id="path7784" d="M.024,0H5.217V1.249H-.106V.13A.13.13,0,0,1,.024,0Z" transform="translate(0.106)" fill="none" stroke="#000" stroke-linecap="round" stroke-linejoin="round" stroke-width="0.469"/>
          </g>
          <g id="g7786" transform="translate(1.481 14.107)">
            <path id="path7788" d="M0,.024a.13.13,0,0,1,.13-.13H4.963V1.142H0Z" transform="translate(0 0.106)" fill="none" stroke="#000" stroke-linecap="round" stroke-linejoin="round" stroke-width="0.469"/>
          </g>
          <g id="g7790" transform="translate(0.758 16.604)">
            <path id="path7792" d="M.024,0H5.578V2.679H-.106V.13A.13.13,0,0,1,.024,0Z" transform="translate(0.106)" fill="none" stroke="#000" stroke-linecap="round" stroke-linejoin="round" stroke-width="0.469"/>
          </g>
          <g id="g7794" transform="translate(5.072 0.287)">
            <path id="path7796" d="M0,.128v-.7" transform="translate(0 0.574)" fill="none" stroke="#000" stroke-linecap="round" stroke-linejoin="round" stroke-width="0.469"/>
          </g>
          <g id="g7798" transform="translate(0.287 19.282)">
            <path id="path7800" d="M0,0H19" fill="none" stroke="#000" stroke-linecap="round" stroke-linejoin="round" stroke-width="0.469"/>
          </g>
          <g id="g7802" transform="translate(8.705 16.349)">
            <path id="path7804" d="M.394.139V-.418A.207.207,0,0,0,.187-.625H-1.558a.207.207,0,0,0-.207.207V2.309H.394V1.477" transform="translate(1.765 0.625)" fill="none" stroke="#000" stroke-linecap="round" stroke-linejoin="round" stroke-width="0.469"/>
          </g>
          <g id="g7806" transform="translate(6.443 14.107)">
            <path id="path7808" d="M.731.214H3.4V-.958H-3.279V.214H-.606" transform="translate(3.279 0.958)" fill="none" stroke="#000" stroke-linecap="round" stroke-linejoin="round" stroke-width="0.469"/>
          </g>
        </g>
      </g>
    </g>
  </g>
</svg>
