<svg xmlns="http://www.w3.org/2000/svg" width="66" height="66" viewBox="0 0 66 66">
  <g id="Image" transform="translate(-16 -94)">
    <rect id="Image_background" width="66" height="66" transform="translate(16 94)" fill="#fff"/>
    <g id="illustrate_cloud_solution_architect_aws" transform="translate(16 94)">
      <rect id="Rectangle_44367" data-name="Rectangle 44367" width="66" height="66" fill="#fff"/>
      <path id="Path_43399" data-name="Path 43399" d="M19.909,28.031a6.037,6.037,0,0,0,.219,1.776,10.678,10.678,0,0,0,.639,1.437.869.869,0,0,1,.14.459.79.79,0,0,1-.379.6l-1.257.838a.956.956,0,0,1-.519.18.918.918,0,0,1-.6-.279,6.183,6.183,0,0,1-.718-.938c-.2-.339-.4-.718-.619-1.177a7.372,7.372,0,0,1-5.867,2.754,5.468,5.468,0,0,1-3.991-1.437A5.126,5.126,0,0,1,5.481,28.41,5.137,5.137,0,0,1,7.3,24.3a7.26,7.26,0,0,1,4.889-1.556,15.8,15.8,0,0,1,2.115.16c.738.1,1.5.259,2.295.439V21.885a4.422,4.422,0,0,0-.938-3.193,4.594,4.594,0,0,0-3.253-.918,9.079,9.079,0,0,0-2.155.259,15.9,15.9,0,0,0-2.155.679,5.721,5.721,0,0,1-.7.259,1.225,1.225,0,0,1-.319.06c-.279,0-.419-.2-.419-.619v-.978a1.263,1.263,0,0,1,.14-.7,1.493,1.493,0,0,1,.559-.419,11.485,11.485,0,0,1,2.514-.9,12.1,12.1,0,0,1,3.113-.379c2.375,0,4.111.539,5.228,1.616a6.6,6.6,0,0,1,1.656,4.909v6.466Zm-8.1,3.033a6.469,6.469,0,0,0,2.055-.359,4.447,4.447,0,0,0,1.9-1.277,3.168,3.168,0,0,0,.679-1.277,7.165,7.165,0,0,0,.2-1.736v-.838a16.679,16.679,0,0,0-1.836-.339,15.041,15.041,0,0,0-1.876-.12,4.6,4.6,0,0,0-2.973.8,2.781,2.781,0,0,0-.978,2.295,2.785,2.785,0,0,0,.738,2.115A2.767,2.767,0,0,0,11.807,31.064Zm16.024,2.155a1.114,1.114,0,0,1-.758-.2,1.625,1.625,0,0,1-.419-.778l-4.69-15.426a3.5,3.5,0,0,1-.18-.8.438.438,0,0,1,.479-.5h1.956a1.106,1.106,0,0,1,.778.2,1.633,1.633,0,0,1,.4.778l3.352,13.21L31.862,16.5a1.4,1.4,0,0,1,.379-.778,1.373,1.373,0,0,1,.8-.2h1.6a1.2,1.2,0,0,1,.8.2,1.345,1.345,0,0,1,.379.778l3.153,13.37L42.418,16.5a1.712,1.712,0,0,1,.4-.778,1.3,1.3,0,0,1,.778-.2h1.856a.444.444,0,0,1,.5.5,1.984,1.984,0,0,1-.04.319,2.828,2.828,0,0,1-.14.5L40.962,32.261a1.53,1.53,0,0,1-.419.778,1.277,1.277,0,0,1-.758.2H38.068a1.2,1.2,0,0,1-.8-.2,1.415,1.415,0,0,1-.379-.8L33.8,19.37,30.725,32.222a1.557,1.557,0,0,1-.379.8,1.237,1.237,0,0,1-.8.2Zm25.643.539A13.209,13.209,0,0,1,50.4,33.4a9.077,9.077,0,0,1-2.295-.8,1.438,1.438,0,0,1-.619-.559,1.409,1.409,0,0,1-.12-.559V30.465c0-.419.16-.619.459-.619a1.13,1.13,0,0,1,.359.06c.12.04.3.12.5.2a10.862,10.862,0,0,0,2.2.7,11.987,11.987,0,0,0,2.375.239,5.384,5.384,0,0,0,2.913-.659,2.149,2.149,0,0,0,1.038-1.9,1.943,1.943,0,0,0-.539-1.4,5.007,5.007,0,0,0-2.015-1.038l-2.894-.9a6.087,6.087,0,0,1-3.193-2.036,4.754,4.754,0,0,1-1-2.893,4.441,4.441,0,0,1,.539-2.215,5.13,5.13,0,0,1,1.437-1.636,6.335,6.335,0,0,1,2.075-1.038A8.7,8.7,0,0,1,54.132,15a10.03,10.03,0,0,1,1.337.08c.459.06.878.14,1.3.22.4.1.778.2,1.137.319a4.353,4.353,0,0,1,.838.359,1.726,1.726,0,0,1,.6.5,1.075,1.075,0,0,1,.18.659v.938c0,.419-.16.639-.459.639a2.075,2.075,0,0,1-.758-.24,9.13,9.13,0,0,0-3.831-.778,5.151,5.151,0,0,0-2.654.559,1.927,1.927,0,0,0-.938,1.776,1.885,1.885,0,0,0,.6,1.417,5.96,5.96,0,0,0,2.2,1.1l2.834.9A6.07,6.07,0,0,1,59.6,25.357a4.516,4.516,0,0,1,.918,2.794A5.129,5.129,0,0,1,60,30.465a5.367,5.367,0,0,1-1.457,1.756,6.432,6.432,0,0,1-2.215,1.118A9.488,9.488,0,0,1,53.474,33.758Z" fill="#252f3e"/>
      <path id="Path_43400" data-name="Path 43400" d="M57.245,43.456c-6.565,4.849-16.1,7.423-24.306,7.423A43.972,43.972,0,0,1,3.266,39.565c-.619-.559-.06-1.317.678-.878a59.844,59.844,0,0,0,29.694,7.882,59.255,59.255,0,0,0,22.649-4.63C57.385,41.441,58.323,42.658,57.245,43.456Z" fill="#f90" fill-rule="evenodd"/>
      <path id="Path_43401" data-name="Path 43401" d="M59.979,40.343c-.838-1.078-5.548-.519-7.683-.259-.639.08-.738-.479-.16-.9,3.752-2.634,9.918-1.876,10.636-1,.718.9-.2,7.064-3.712,10.018-.539.459-1.058.22-.818-.379C59.041,45.851,60.817,41.4,59.979,40.343Z" fill="#f90" fill-rule="evenodd"/>
    </g>
  </g>
</svg>
