<svg width="24" height="24" viewBox="0 0 24 24" fill="none" xmlns="http://www.w3.org/2000/svg">
<g clip-path="url(#clip0_896_10351)">
<path d="M8 19.5H8.5V19H8V19.5ZM8 14C8.13261 14 8.25979 13.9473 8.35355 13.8536C8.44732 13.7598 8.5 13.6326 8.5 13.5C8.5 13.3674 8.44732 13.2402 8.35355 13.1464C8.25979 13.0527 8.13261 13 8 13V14ZM5.5 9C5.63261 9 5.75979 8.94732 5.85355 8.85355C5.94732 8.75979 6 8.63261 6 8.5C6 8.36739 5.94732 8.24021 5.85355 8.14645C5.75979 8.05268 5.63261 8 5.5 8V9ZM8.836 5.8C8.92658 5.89516 9.05097 5.95084 9.18227 5.95502C9.31358 5.95919 9.44126 5.91152 9.5377 5.82231C9.63414 5.7331 9.69159 5.60951 9.69763 5.47828C9.70368 5.34704 9.65783 5.2187 9.57 5.121L8.836 5.8ZM11.5 19.5C11.5 19.8978 11.342 20.2794 11.0607 20.5607C10.7794 20.842 10.3978 21 10 21V22C10.663 22 11.2989 21.7366 11.7678 21.2678C12.2366 20.7989 12.5 20.163 12.5 19.5H11.5ZM10 21C9.60218 21 9.22064 20.842 8.93934 20.5607C8.65804 20.2794 8.5 19.8978 8.5 19.5H7.5C7.5 20.163 7.76339 20.7989 8.23223 21.2678C8.70107 21.7366 9.33696 22 10 22V21ZM8 19C7.33696 19 6.70107 18.7366 6.23223 18.2678C5.76339 17.7989 5.5 17.163 5.5 16.5H4.5C4.5 17.4283 4.86875 18.3185 5.52513 18.9749C6.1815 19.6313 7.07174 20 8 20V19ZM5.5 16.5C5.49984 16.2116 5.54957 15.9254 5.647 15.654L4.706 15.316C4.56958 15.6958 4.49989 16.0964 4.5 16.5H5.5ZM5.647 15.654C5.8212 15.1696 6.14069 14.7508 6.56183 14.4547C6.98297 14.1587 7.48522 13.9999 8 14V13C7.27913 12.9997 6.57576 13.222 5.986 13.6366C5.39624 14.0511 4.94986 14.6376 4.706 15.316L5.647 15.654ZM5.5 15C5.406 15 5.31333 14.9957 5.222 14.987L5.131 15.987C5.253 15.9983 5.37633 16.004 5.501 16.004L5.5 15ZM5.222 14.987C4.47771 14.9177 3.78609 14.5731 3.2826 14.0206C2.77911 13.4681 2.50002 12.7475 2.5 12H1.5C1.49996 12.9968 1.87213 13.9578 2.5436 14.6945C3.21507 15.4313 4.13744 15.8908 5.13 15.983L5.222 14.987ZM2.5 12C2.5 11.2044 2.81607 10.4413 3.37868 9.87868C3.94129 9.31607 4.70435 9 5.5 9V8C4.43913 8 3.42172 8.42143 2.67157 9.17157C1.92143 9.92172 1.5 10.9391 1.5 12H2.5ZM4.5 7.5C4.5 6.83696 4.76339 6.20107 5.23223 5.73223C5.70107 5.26339 6.33696 5 7 5V4C6.07174 4 5.1815 4.36875 4.52513 5.02513C3.86875 5.6815 3.5 6.57174 3.5 7.5H4.5ZM7 5C7.34472 4.99911 7.68588 5.06974 8.0019 5.20745C8.31793 5.34515 8.60194 5.54692 8.836 5.8L9.57 5.121C9.24233 4.76671 8.84479 4.48417 8.40245 4.29123C7.96011 4.09829 7.48259 3.99913 7 4V5ZM4.489 8.393C4.489 8.393 4.489 8.388 4.489 8.363C4.489 8.338 4.489 8.311 4.489 8.274C4.489 8.201 4.489 8.113 4.489 8.018C4.489 7.849 4.506 7.618 4.506 7.499H3.506C3.506 7.599 3.496 7.765 3.489 7.99C3.47657 8.19575 3.48595 8.40223 3.517 8.606L4.489 8.393ZM8.5 4.5C8.5 4.10218 8.65804 3.72064 8.93934 3.43934C9.22064 3.15804 9.60218 3 10 3V2C9.33696 2 8.70107 2.26339 8.23223 2.73223C7.76339 3.20107 7.5 3.83696 7.5 4.5H8.5ZM10 3C10.3978 3 10.7794 3.15804 11.0607 3.43934C11.342 3.72064 11.5 4.10218 11.5 4.5H12.5C12.5 3.83696 12.2366 3.20107 11.7678 2.73223C11.2989 2.26339 10.663 2 10 2V3ZM11.5 4.5V19.5H12.5V4.5H11.5Z" fill="white"/>
<path d="M14.75 7.7V5.5M14.75 7.7H16.5M14.75 7.7H12M14.75 5.5C14.9478 5.5 15.1411 5.44135 15.3056 5.33147C15.47 5.22159 15.5982 5.06541 15.6739 4.88268C15.7496 4.69996 15.7694 4.49889 15.7308 4.30491C15.6922 4.11093 15.597 3.93275 15.4571 3.79289C15.3173 3.65304 15.1391 3.5578 14.9451 3.51922C14.7511 3.48063 14.55 3.50043 14.3673 3.57612C14.1846 3.65181 14.0284 3.77998 13.9185 3.94443C13.8086 4.10888 13.75 4.30222 13.75 4.5C13.75 4.76522 13.8554 5.01957 14.0429 5.20711C14.2304 5.39464 14.4848 5.5 14.75 5.5ZM16.5 7.7C16.7652 7.7 17.0196 7.80536 17.2071 7.99289C17.3946 8.18043 17.5 8.43478 17.5 8.7M16.5 7.7V5.7H18.5M17.5 8.7H19L20.5 7.7M17.5 8.7V11.2M20.5 7.7C20.5 7.89778 20.5586 8.09112 20.6685 8.25557C20.7784 8.42002 20.9346 8.54819 21.1173 8.62388C21.3 8.69957 21.5011 8.71937 21.6951 8.68079C21.8891 8.6422 22.0673 8.54696 22.2071 8.40711C22.347 8.26725 22.4422 8.08907 22.4808 7.89509C22.5194 7.70111 22.4996 7.50004 22.4239 7.31732C22.3482 7.13459 22.22 6.97841 22.0556 6.86853C21.8911 6.75865 21.6978 6.7 21.5 6.7C21.2348 6.7 20.9804 6.80536 20.7929 6.99289C20.6054 7.18043 20.5 7.43478 20.5 7.7ZM17.5 11.2H20.5M17.5 11.2V14.2M20.5 11.2C20.5 11.3978 20.5586 11.5911 20.6685 11.7556C20.7784 11.92 20.9346 12.0482 21.1173 12.1239C21.3 12.1996 21.5011 12.2194 21.6951 12.1808C21.8891 12.1422 22.0673 12.047 22.2071 11.9071C22.347 11.7673 22.4422 11.5891 22.4808 11.3951C22.5194 11.2011 22.4996 11 22.4239 10.8173C22.3482 10.6346 22.22 10.4784 22.0556 10.3685C21.8911 10.2586 21.6978 10.2 21.5 10.2C21.2348 10.2 20.9804 10.3054 20.7929 10.4929C20.6054 10.6804 20.5 10.9348 20.5 11.2ZM17.5 14.2C17.5 14.4652 17.3946 14.7196 17.2071 14.9071C17.0196 15.0946 16.7652 15.2 16.5 15.2M17.5 14.2H19L20.5 15.2M16.5 15.2V17.2H18M16.5 15.2H14M20.5 15.2C20.5 15.3978 20.5586 15.5911 20.6685 15.7556C20.7784 15.92 20.9346 16.0482 21.1173 16.1239C21.3 16.1996 21.5011 16.2194 21.6951 16.1808C21.8891 16.1422 22.0673 16.047 22.2071 15.9071C22.347 15.7673 22.4422 15.5891 22.4808 15.3951C22.5194 15.2011 22.4996 15 22.4239 14.8173C22.3482 14.6346 22.22 14.4784 22.0556 14.3685C21.8911 14.2586 21.6978 14.2 21.5 14.2C21.2348 14.2 20.9804 14.3054 20.7929 14.4929C20.6054 14.6804 20.5 14.9348 20.5 15.2ZM18 17.2C18 17.3978 18.0586 17.5911 18.1685 17.7556C18.2784 17.92 18.4346 18.0482 18.6173 18.1239C18.8 18.1996 19.0011 18.2194 19.1951 18.1808C19.3891 18.1422 19.5673 18.047 19.7071 17.9071C19.847 17.7673 19.9422 17.5891 19.9808 17.3951C20.0194 17.2011 19.9996 17 19.9239 16.8173C19.8482 16.6346 19.72 16.4784 19.5556 16.3685C19.3911 16.2586 19.1978 16.2 19 16.2C18.7348 16.2 18.4804 16.3054 18.2929 16.4929C18.1054 16.6804 18 16.9348 18 17.2ZM14 15.2V16.7M14 15.2H12.12M14 16.7C13.8022 16.7 13.6089 16.7586 13.4444 16.8685C13.28 16.9784 13.1518 17.1346 13.0761 17.3173C13.0004 17.5 12.9806 17.7011 13.0192 17.8951C13.0578 18.0891 13.153 18.2673 13.2929 18.4071C13.4327 18.547 13.6109 18.6422 13.8049 18.6808C13.9989 18.7194 14.2 18.6996 14.3827 18.6239C14.5654 18.5482 14.7216 18.42 14.8315 18.2556C14.9414 18.0911 15 17.8978 15 17.7C15 17.4348 14.8946 17.1804 14.7071 16.9929C14.5196 16.8054 14.2652 16.7 14 16.7ZM18 5.2C18 5.39778 18.0586 5.59112 18.1685 5.75557C18.2784 5.92002 18.4346 6.04819 18.6173 6.12388C18.8 6.19957 19.0011 6.21937 19.1951 6.18079C19.3891 6.1422 19.5673 6.04696 19.7071 5.90711C19.847 5.76725 19.9422 5.58907 19.9808 5.39509C20.0194 5.20111 19.9996 5.00004 19.9239 4.81732C19.8482 4.63459 19.72 4.47841 19.5556 4.36853C19.3911 4.25865 19.1978 4.2 19 4.2C18.7348 4.2 18.4804 4.30536 18.2929 4.49289C18.1054 4.68043 18 4.93478 18 5.2Z" stroke="white"/>
</g>
<defs>
<clipPath id="clip0_896_10351">
<rect width="24" height="24" fill="white"/>
</clipPath>
</defs>
</svg>
