<svg width="199" height="51" viewBox="0 0 199 51" fill="none" xmlns="http://www.w3.org/2000/svg">
<path d="M191 0H8C3.58172 0 0 3.58172 0 8V43C0 47.4183 3.58172 51 8 51H191C195.418 51 199 47.4183 199 43V8C199 3.58172 195.418 0 191 0Z" fill="white"/>
<path d="M191 0.5H8C3.85786 0.5 0.5 3.85786 0.5 8V43C0.5 47.1421 3.85786 50.5 8 50.5H191C195.142 50.5 198.5 47.1421 198.5 43V8C198.5 3.85786 195.142 0.5 191 0.5Z" stroke="#C3DCD4"/>
<mask id="mask0_723_20786" style="mask-type:luminance" maskUnits="userSpaceOnUse" x="28" y="15" width="143" height="22">
<path d="M171 15H28V37H171V15Z" fill="white"/>
</mask>
<g mask="url(#mask0_723_20786)">
<path d="M62.9771 20.4301H63.0181L64.5581 27.7631H59.8981L62.9771 20.4301ZM60.8701 15.4041L50.9041 36.5551H56.2111L57.9531 32.4231H65.5701L66.4211 36.5551H71.4441L66.5831 15.4041H60.8701Z" fill="black"/>
<path d="M85.7461 28.4521H72.7041L73.4331 23.5521H86.5161L85.7461 28.4521ZM88.7851 20.3041H73.9161L74.6451 15.4041H89.5141L88.7851 20.3041ZM87.0851 31.6041H72.2141L71.4851 36.5471H86.3541L87.0851 31.6041Z" fill="black"/>
<path d="M103.451 31.126C101.987 31.6674 100.434 31.9287 98.8731 31.896C98.1256 31.941 97.3772 31.8234 96.6795 31.5514C95.9818 31.2793 95.3514 30.8593 94.8316 30.3202C94.3118 29.7812 93.915 29.1358 93.6686 28.4287C93.4222 27.7215 93.3319 26.9694 93.4041 26.224C93.4179 25.3883 93.5988 24.5637 93.9361 23.7989C94.2734 23.0341 94.7603 22.3445 95.3681 21.7707C95.9759 21.1968 96.6924 20.7504 97.4754 20.4577C98.2583 20.1649 99.0919 20.0318 99.9271 20.066C101.641 20.0506 103.3 20.6697 104.585 21.804L105.598 16.74C103.787 15.5774 101.673 14.9736 99.5211 15.004C96.5163 15.0811 93.6576 16.3172 91.5433 18.4537C89.429 20.5902 88.2228 23.4616 88.1771 26.467C87.9771 32.667 91.9851 37.001 97.9411 37.001C99.5417 37.0347 101.135 36.7737 102.641 36.231L103.451 31.126Z" fill="black"/>
<path d="M119.575 26.71C120.345 23.145 119.008 20.349 116.293 19.782C113.335 19.174 110.621 21.443 109.811 25.211C109.041 28.776 110.378 31.572 113.093 32.139C116.05 32.747 118.765 30.478 119.575 26.71ZM116.091 15.042C121.763 15.447 125.247 20.066 124.599 26.183C123.951 32.544 118.846 37.243 113.053 36.838C107.381 36.433 103.897 31.814 104.545 25.697C105.193 19.336 110.338 14.637 116.091 15.042Z" fill="black"/>
<path d="M142.952 15.4041L136.834 27.3181L134.363 15.4041H129.623L123.059 36.5551H128.285L131.891 24.1551L134.119 36.5551H136.794L142.994 24.1551L142.913 36.5551H148.099L147.732 15.4041H142.952Z" fill="black"/>
</g>
</svg>
