<svg width="199" height="51" viewBox="0 0 199 51" fill="none" xmlns="http://www.w3.org/2000/svg">
<path d="M191 0H8C3.58172 0 0 3.58172 0 8V43C0 47.4183 3.58172 51 8 51H191C195.418 51 199 47.4183 199 43V8C199 3.58172 195.418 0 191 0Z" fill="white"/>
<path d="M191 0.5H8C3.85786 0.5 0.5 3.85786 0.5 8V43C0.5 47.1421 3.85786 50.5 8 50.5H191C195.142 50.5 198.5 47.1421 198.5 43V8C198.5 3.85786 195.142 0.5 191 0.5Z" stroke="#C3DCD4"/>
<mask id="mask0_723_21026" style="mask-type:luminance" maskUnits="userSpaceOnUse" x="28" y="15" width="143" height="22">
<path d="M171 15H28V37H171V15Z" fill="white"/>
</mask>
<g mask="url(#mask0_723_21026)">
<path fill-rule="evenodd" clip-rule="evenodd" d="M140.198 35.652H138.823C138.503 35.652 138.336 35.889 138.336 36.338C138.336 36.763 138.503 37 138.823 37H144.115C144.453 37 144.621 36.763 144.621 36.338C144.621 35.889 144.452 35.652 144.115 35.652H140.198Z" fill="black"/>
<path fill-rule="evenodd" clip-rule="evenodd" d="M132.123 35.652H130.753C130.439 35.652 130.253 35.889 130.253 36.338C130.253 36.763 130.439 37 130.753 37H136.04C136.371 37 136.54 36.763 136.54 36.338C136.54 35.889 136.373 35.652 136.04 35.652H132.123Z" fill="black"/>
<path fill-rule="evenodd" clip-rule="evenodd" d="M124.485 35.652H123.109C122.774 35.652 122.622 35.889 122.622 36.338C122.622 36.763 122.773 37 123.109 37H128.401C128.739 37 128.907 36.763 128.907 36.338C128.907 35.889 128.738 35.652 128.401 35.652H124.485Z" fill="black"/>
<path fill-rule="evenodd" clip-rule="evenodd" d="M116.414 35.652H115.046C114.708 35.652 114.54 35.889 114.54 36.338C114.54 36.763 114.709 37 115.046 37H120.323C120.661 37 120.823 36.763 120.823 36.338C120.823 35.889 120.656 35.652 120.323 35.652H116.414Z" fill="black"/>
<path fill-rule="evenodd" clip-rule="evenodd" d="M108.334 35.652H106.964C106.629 35.652 106.464 35.889 106.464 36.338C106.464 36.763 106.633 37 106.964 37H112.24C112.575 37 112.74 36.763 112.74 36.338C112.74 35.889 112.571 35.652 112.24 35.652H108.334Z" fill="black"/>
<path fill-rule="evenodd" clip-rule="evenodd" d="M100.701 35.652H99.333C98.995 35.652 98.827 35.889 98.827 36.338C98.827 36.763 98.996 37 99.333 37H104.607C104.945 37 105.107 36.763 105.107 36.338C105.107 35.889 104.94 35.652 104.607 35.652H100.701Z" fill="black"/>
<path fill-rule="evenodd" clip-rule="evenodd" d="M92.623 35.652H91.253C90.918 35.652 90.753 35.889 90.753 36.338C90.753 36.763 90.922 37 91.253 37H96.523C96.876 37 97.023 36.763 97.023 36.338C97.023 35.889 96.872 35.652 96.523 35.652H92.623Z" fill="black"/>
<path fill-rule="evenodd" clip-rule="evenodd" d="M84.539 35.652H83.171C82.833 35.652 82.665 35.889 82.665 36.338C82.665 36.763 82.834 37 83.171 37H88.463C88.783 37 88.952 36.763 88.952 36.338C88.952 35.889 88.783 35.652 88.463 35.652H84.539Z" fill="black"/>
<path fill-rule="evenodd" clip-rule="evenodd" d="M76.91 35.652H75.536C75.201 35.652 75.036 35.889 75.036 36.338C75.036 36.763 75.203 37 75.536 37H80.815C81.15 37 81.315 36.763 81.315 36.338C81.315 35.889 81.146 35.652 80.815 35.652H76.91Z" fill="black"/>
<path fill-rule="evenodd" clip-rule="evenodd" d="M68.815 35.652H67.456C67.121 35.652 66.956 35.889 66.956 36.338C66.956 36.763 67.125 37 67.456 37H72.735C73.07 37 73.235 36.763 73.235 36.338C73.235 35.889 73.066 35.652 72.735 35.652H68.815Z" fill="black"/>
<path fill-rule="evenodd" clip-rule="evenodd" d="M60.743 35.652H59.373C59.038 35.652 58.873 35.889 58.873 36.338C58.873 36.763 59.04 37 59.373 37H64.654C64.989 37 65.154 36.763 65.154 36.338C65.154 35.889 64.987 35.652 64.654 35.652H60.743Z" fill="black"/>
<path fill-rule="evenodd" clip-rule="evenodd" d="M53.102 35.652H51.723C51.388 35.652 51.234 35.889 51.234 36.338C51.234 36.763 51.387 37 51.723 37H57.023C57.358 37 57.523 36.763 57.523 36.338C57.523 35.889 57.354 35.652 57.023 35.652H53.102Z" fill="black"/>
<path fill-rule="evenodd" clip-rule="evenodd" d="M51.238 19.334H52.676V21.309C53.0701 20.6787 53.5895 20.1362 54.202 19.715C54.8821 19.2814 55.6705 19.0482 56.477 19.042C57.0074 19.0402 57.5322 19.1492 58.018 19.362C58.4749 19.557 58.8794 19.8567 59.199 20.237C59.5554 20.6945 59.8243 21.2138 59.992 21.769C60.41 20.9542 61.0212 20.2542 61.772 19.73C62.4571 19.2806 63.2587 19.0415 64.078 19.042C64.8011 19.0251 65.5117 19.2326 66.112 19.636C66.7066 20.0513 67.1649 20.6335 67.429 21.309C67.7575 22.3378 67.8994 23.4172 67.848 24.496V30.713H66.399V24.496C66.4396 23.65 66.354 22.8027 66.145 21.982C65.9758 21.5304 65.6663 21.1449 65.262 20.882C64.8276 20.5955 64.3151 20.4509 63.795 20.468C63.1107 20.4691 62.4448 20.6896 61.895 21.097C61.3218 21.5159 60.8847 22.0943 60.638 22.76C60.3243 23.8988 60.1926 25.08 60.248 26.26V30.714H58.812V24.895C58.8587 23.9532 58.7783 23.0093 58.573 22.089C58.4095 21.6131 58.1006 21.2007 57.69 20.91C57.2543 20.6115 56.7361 20.4566 56.208 20.467C55.5394 20.4666 54.8884 20.6811 54.351 21.079C53.778 21.4902 53.3365 22.0589 53.08 22.716C52.7643 23.7422 52.6289 24.8155 52.68 25.888V30.713H51.238V19.334Z" fill="black"/>
<path fill-rule="evenodd" clip-rule="evenodd" d="M76.388 20.5C75.806 20.493 75.2293 20.6108 74.6966 20.8454C74.164 21.0799 73.6877 21.4259 73.3 21.86C72.8763 22.2983 72.5433 22.816 72.3202 23.3833C72.0972 23.9507 71.9883 24.5565 72 25.166C71.998 25.9795 72.1998 26.7805 72.587 27.496C72.9522 28.1895 73.5072 28.7649 74.187 29.155C74.8526 29.5413 75.6085 29.7447 76.378 29.7447C77.1476 29.7447 77.9034 29.5413 78.569 29.155C79.248 28.7638 79.8026 28.1887 80.169 27.496C80.5581 26.7811 80.761 25.9799 80.759 25.166C80.7706 24.5565 80.6618 23.9507 80.4387 23.3833C80.2156 22.816 79.8827 22.2983 79.459 21.86C79.0737 21.4266 78.6001 21.0807 78.0701 20.8455C77.5401 20.6102 76.9659 20.4911 76.386 20.496L76.388 20.5ZM76.388 19.042C77.1991 19.0274 78.0033 19.1925 78.7431 19.5253C79.4829 19.8581 80.1399 20.3504 80.667 20.967C81.6824 22.1316 82.234 23.6289 82.2166 25.1739C82.1993 26.7189 81.6143 28.2035 80.573 29.345C80.0355 29.9186 79.386 30.3758 78.6647 30.6884C77.9434 31.001 77.1656 31.1623 76.3795 31.1623C75.5934 31.1623 74.8156 31.001 74.0943 30.6884C73.373 30.3758 72.7235 29.9186 72.186 29.345C71.1147 28.2109 70.526 26.705 70.544 25.145C70.5186 23.6132 71.0721 22.1283 72.094 20.987C72.6195 20.3633 73.2779 19.8649 74.0208 19.5284C74.7638 19.1919 75.5726 19.0257 76.388 19.042Z" fill="black"/>
<path fill-rule="evenodd" clip-rule="evenodd" d="M90.381 20.528C89.5962 20.5206 88.8243 20.7281 88.149 21.128C87.4641 21.541 86.9047 22.1329 86.531 22.84C86.1343 23.5451 85.9259 24.3405 85.9259 25.1495C85.9259 25.9585 86.1343 26.7539 86.531 27.459C86.9103 28.1696 87.4727 28.7659 88.16 29.186C88.8267 29.5851 89.588 29.7985 90.365 29.804C91.1557 29.797 91.9308 29.584 92.614 29.186C93.2972 28.7929 93.8614 28.2224 94.247 27.535C94.628 26.8112 94.8196 26.0028 94.804 25.185C94.8239 24.5739 94.7201 23.9652 94.499 23.3952C94.2778 22.8252 93.9438 22.3057 93.517 21.868C93.1186 21.4358 92.6331 21.0929 92.0926 20.862C91.5521 20.631 90.9687 20.5172 90.381 20.528ZM96.133 15V30.871H94.714V28.896C94.1629 29.5941 93.4735 30.1709 92.689 30.59C91.9193 30.9694 91.0721 31.1652 90.214 31.162C89.4497 31.1709 88.6922 31.0175 87.9916 30.7118C87.2911 30.4062 86.6633 29.9553 86.15 29.389C85.5988 28.8208 85.1658 28.1488 84.8761 27.4121C84.5863 26.6754 84.4456 25.8885 84.462 25.097C84.4505 24.3138 84.5954 23.5362 84.8882 22.8097C85.181 22.0832 85.6157 21.4224 86.167 20.866C86.6876 20.3026 87.3209 19.855 88.0256 19.5522C88.7304 19.2493 89.491 19.098 90.258 19.108C91.1261 19.0937 91.9836 19.3002 92.75 19.708C93.5419 20.1421 94.216 20.7627 94.714 21.516V15H96.133Z" fill="black"/>
<path fill-rule="evenodd" clip-rule="evenodd" d="M108.9 23.928C108.749 23.2461 108.458 22.6027 108.047 22.038C107.655 21.5432 107.145 21.1538 106.565 20.905C105.968 20.612 105.312 20.462 104.647 20.467C103.588 20.4476 102.563 20.8369 101.784 21.554C101.133 22.2086 100.675 23.03 100.46 23.928H108.9ZM108.9 27.028L110.119 27.697C109.771 28.4178 109.303 29.0739 108.734 29.637C108.214 30.1213 107.609 30.506 106.95 30.772C106.233 31.0346 105.474 31.1654 104.71 31.158C103.896 31.1977 103.084 31.0522 102.334 30.7325C101.585 30.4127 100.918 29.927 100.383 29.312C99.3751 28.1564 98.8208 26.6743 98.823 25.141C98.7981 23.7251 99.2618 22.3439 100.136 21.23C100.653 20.5283 101.333 19.9626 102.116 19.5814C102.9 19.2003 103.765 19.0152 104.636 19.042C105.528 19.0162 106.412 19.2056 107.215 19.5941C108.018 19.9827 108.715 20.5589 109.248 21.274C110.097 22.4113 110.538 23.8013 110.5 25.22H100.323C100.305 26.4377 100.758 27.6154 101.586 28.508C101.967 28.9221 102.431 29.2511 102.948 29.4736C103.465 29.6961 104.023 29.8069 104.586 29.799C105.159 29.7956 105.727 29.6892 106.263 29.485C106.771 29.3023 107.242 29.0281 107.651 28.676C108.155 28.2001 108.577 27.6447 108.901 27.032L108.9 27.028Z" fill="black"/>
<path fill-rule="evenodd" clip-rule="evenodd" d="M112.744 19.334H114.254V21C114.63 20.4214 115.116 19.9217 115.683 19.529C116.103 19.2303 116.602 19.0612 117.117 19.0425C117.633 19.0238 118.142 19.1565 118.583 19.424L117.802 20.66C117.559 20.5428 117.295 20.4749 117.026 20.46C116.491 20.4715 115.981 20.6835 115.595 21.054C115.067 21.5609 114.699 22.2108 114.536 22.924C114.294 24.2221 114.199 25.5436 114.255 26.863V30.706H112.745L112.744 19.334Z" fill="black"/>
<path fill-rule="evenodd" clip-rule="evenodd" d="M120.377 19.334H121.763V21.37C122.244 20.6605 122.874 20.0649 123.609 19.625C124.279 19.2382 125.04 19.037 125.814 19.042C126.582 19.0281 127.335 19.2535 127.969 19.687C128.59 20.123 129.072 20.7289 129.357 21.432C129.712 22.5382 129.863 23.6997 129.804 24.86V30.713H128.423V25.292C128.452 24.41 128.399 23.5272 128.265 22.655C128.16 21.9977 127.831 21.397 127.333 20.955C126.818 20.5608 126.181 20.3598 125.533 20.387C124.699 20.3873 123.895 20.6986 123.278 21.26C122.622 21.8272 122.162 22.5875 121.965 23.432C121.799 24.4565 121.732 25.4946 121.765 26.532V30.712H120.377V19.334Z" fill="black"/>
<path fill-rule="evenodd" clip-rule="evenodd" d="M138.423 20.467C137.638 20.4615 136.866 20.6688 136.189 21.067C135.506 21.486 134.947 22.0811 134.573 22.79C134.175 23.4986 133.966 24.2977 133.966 25.1105C133.966 25.9233 134.175 26.7224 134.573 27.431C134.95 28.1461 135.512 28.7472 136.2 29.172C136.866 29.5738 137.627 29.7887 138.405 29.794C139.197 29.7876 139.973 29.5731 140.656 29.172C141.342 28.7772 141.906 28.2025 142.289 27.51C142.668 26.7831 142.859 25.9727 142.844 25.153C142.863 24.5404 142.762 23.93 142.544 23.3569C142.327 22.7839 141.998 22.2595 141.577 21.814C141.175 21.381 140.687 21.0373 140.143 20.8052C139.6 20.5732 139.014 20.4579 138.423 20.467ZM144.175 19.338V30.866H142.754V28.878C142.206 29.586 141.514 30.1695 140.723 30.59C139.953 30.9694 139.106 31.1652 138.248 31.162C137.483 31.1718 136.724 31.0177 136.024 30.71C135.323 30.4023 134.696 29.9481 134.186 29.378C133.634 28.8056 133.2 28.1295 132.91 27.3888C132.62 26.6481 132.479 25.8573 132.496 25.062C132.485 24.2755 132.63 23.4945 132.923 22.7645C133.215 22.0344 133.65 21.3697 134.202 20.809C134.722 20.2434 135.355 19.7936 136.06 19.4892C136.765 19.1847 137.527 19.0323 138.295 19.042C139.162 19.0278 140.019 19.2342 140.785 19.642C141.576 20.079 142.25 20.701 142.749 21.455V19.338H144.175Z" fill="black"/>
<path fill-rule="evenodd" clip-rule="evenodd" d="M146.623 20.327H146.803C146.903 20.327 146.961 20.327 146.989 20.292C147.008 20.282 147.024 20.2669 147.035 20.2483C147.045 20.2297 147.051 20.2085 147.05 20.187C147.046 20.1586 147.036 20.1313 147.02 20.1072C147.005 20.083 146.984 20.0625 146.96 20.047C146.927 20.047 146.86 20.036 146.791 20.036H146.623V20.327ZM146.467 20.882V19.907H146.791C146.878 19.9018 146.965 19.9079 147.05 19.925C147.098 19.9533 147.14 19.9915 147.173 20.037C147.204 20.0749 147.22 20.1223 147.219 20.171C147.22 20.2055 147.214 20.2397 147.201 20.2717C147.188 20.3037 147.168 20.3327 147.144 20.357C147.082 20.4077 147.007 20.4402 146.927 20.451C146.977 20.469 146.988 20.486 147.021 20.497C147.049 20.547 147.093 20.609 147.155 20.697L147.28 20.881H147.08L147.001 20.73C146.957 20.6442 146.9 20.5651 146.834 20.495C146.794 20.4792 146.752 20.4698 146.709 20.467H146.619V20.881L146.467 20.882ZM146.853 19.615C146.723 19.6163 146.595 19.6525 146.483 19.72C146.364 19.7813 146.267 19.88 146.209 20.001C146.135 20.1168 146.098 20.2519 146.102 20.389C146.1 20.5202 146.138 20.6489 146.209 20.759C146.267 20.8804 146.363 20.9792 146.483 21.04C146.596 21.1102 146.726 21.1474 146.859 21.1474C146.992 21.1474 147.122 21.1102 147.235 21.04C147.356 20.98 147.453 20.881 147.511 20.759C147.574 20.6454 147.61 20.5188 147.616 20.389C147.612 20.2532 147.576 20.1203 147.511 20.001C147.447 19.8831 147.352 19.7857 147.235 19.72C147.121 19.6507 146.991 19.6141 146.858 19.614L146.853 19.615ZM146.853 19.49C147.006 19.4925 147.157 19.5266 147.296 19.59C147.442 19.6642 147.56 19.7825 147.634 19.928C147.723 20.0663 147.766 20.2289 147.757 20.393C147.762 20.5493 147.726 20.7041 147.652 20.842C147.566 20.9796 147.451 21.0965 147.314 21.184C147.171 21.2547 147.014 21.2913 146.854 21.291C146.698 21.2917 146.544 21.255 146.405 21.184C146.269 21.0963 146.155 20.9795 146.07 20.842C145.996 20.7042 145.959 20.5494 145.963 20.393C145.957 20.2313 145.994 20.071 146.07 19.928C146.153 19.7902 146.268 19.6743 146.405 19.59C146.547 19.5294 146.698 19.4955 146.853 19.49Z" fill="black"/>
</g>
</svg>
