<svg width="199" height="51" viewBox="0 0 199 51" fill="none" xmlns="http://www.w3.org/2000/svg">
<path d="M191 0H8C3.58172 0 0 3.58172 0 8V43C0 47.4183 3.58172 51 8 51H191C195.418 51 199 47.4183 199 43V8C199 3.58172 195.418 0 191 0Z" fill="white"/>
<path d="M191 0.5H8C3.85786 0.5 0.5 3.85786 0.5 8V43C0.5 47.1421 3.85786 50.5 8 50.5H191C195.142 50.5 198.5 47.1421 198.5 43V8C198.5 3.85786 195.142 0.5 191 0.5Z" stroke="#C3DCD4"/>
<mask id="mask0_723_21056" style="mask-type:luminance" maskUnits="userSpaceOnUse" x="28" y="15" width="143" height="22">
<path d="M171 15H28V37H171V15Z" fill="white"/>
</mask>
<g mask="url(#mask0_723_21056)">
<path d="M143.799 19.0141C143.523 18.7425 143.152 18.5896 142.765 18.5881H142.751C137.974 18.6351 135.573 20.5721 134.368 22.6041C133.487 21.4212 132.347 20.4559 131.035 19.7824C129.723 19.1088 128.274 18.7448 126.799 18.7183C125.325 18.6919 123.864 19.0037 122.528 19.6297C121.193 20.2558 120.019 21.1796 119.096 22.3301C118.436 21.1593 117.467 20.1928 116.294 19.5363C115.122 18.8798 113.791 18.5586 112.448 18.6081H112.393C111.524 18.6101 110.661 18.7582 109.841 19.0461V16.4711C109.841 16.2775 109.803 16.0859 109.728 15.9071C109.654 15.7284 109.545 15.5661 109.408 15.4294C109.271 15.2928 109.108 15.1845 108.929 15.1109C108.75 15.0372 108.559 14.9995 108.365 15.0001H104.923C104.533 15.0003 104.159 15.1554 103.883 15.4312C103.607 15.707 103.452 16.081 103.452 16.4711V18.5871H99.057V16.4711C99.0568 16.081 98.9017 15.707 98.6259 15.4312C98.3501 15.1554 97.9761 15.0003 97.586 15.0001H94.143C93.753 15.0003 93.379 15.1554 93.1032 15.4312C92.8273 15.707 92.6723 16.081 92.672 16.4711V21.4011C90.898 19.6588 88.5115 18.6815 86.025 18.6791C84.3171 18.669 82.6389 19.1262 81.172 20.0011C81.1568 19.6212 80.9951 19.2619 80.7209 18.9985C80.4467 18.7351 80.0812 18.588 79.701 18.5881H79.687C74.946 18.6351 72.603 20.5511 71.452 22.5751C69.136 19.3001 64.827 17.7161 61.152 19.3221V16.4711C61.1517 16.081 60.9967 15.707 60.7209 15.4312C60.4451 15.1554 60.0711 15.0003 59.681 15.0001H56.412C56.2058 14.9814 55.9979 15.0053 55.8013 15.0703C55.6047 15.1353 55.4236 15.24 55.2691 15.3779C55.1147 15.5159 54.9902 15.6841 54.9035 15.8721C54.8168 16.0602 54.7697 16.264 54.765 16.4711L54.772 27.8431C54.7762 29.6444 55.3104 31.4047 56.3079 32.9047C57.3054 34.4046 58.7223 35.5779 60.3819 36.2783C62.0415 36.9787 63.8705 37.1754 65.6411 36.8437C67.4116 36.512 69.0455 35.6667 70.339 34.4131C70.339 34.6344 70.339 34.8654 70.339 35.1061C70.3393 35.4962 70.4943 35.8703 70.7701 36.1463C71.0459 36.4222 71.4199 36.5775 71.81 36.5781H75.255C75.6451 36.5778 76.0191 36.4227 76.2949 36.1469C76.5707 35.8711 76.7257 35.4971 76.726 35.1071V28.7491C76.9823 31.0306 78.0745 33.1364 79.7919 34.6601C81.5093 36.1838 83.7302 37.0174 86.026 37.0001C87.5015 36.9986 88.9563 36.6528 90.2747 35.9902C91.593 35.3275 92.7385 34.3663 93.62 33.1831C94.827 35.2981 97.199 36.9221 100.827 36.9221C101.89 36.9049 102.933 36.6351 103.871 36.1351C104.008 36.2756 104.171 36.3872 104.352 36.4635C104.532 36.5398 104.726 36.5791 104.922 36.5791H108.365C108.755 36.5788 109.129 36.4237 109.405 36.1479C109.681 35.8721 109.836 35.4981 109.836 35.1081V26.9161C109.872 26.3371 110.108 24.6021 111.627 24.6021C113.454 24.6021 113.546 25.5901 113.546 25.7881V35.1061C113.546 35.4961 113.701 35.8701 113.977 36.1459C114.253 36.4217 114.627 36.5768 115.017 36.5771H118.465C118.855 36.5768 119.229 36.4217 119.505 36.1459C119.781 35.8701 119.936 35.4961 119.936 35.1061V34.2751C121.735 36.0008 124.131 36.9645 126.624 36.9651C127.826 36.9911 129.022 36.7781 130.142 36.3383C131.261 35.8985 132.282 35.2407 133.145 34.4031V35.1091C133.145 35.4991 133.3 35.8731 133.576 36.1489C133.852 36.4247 134.226 36.5798 134.616 36.5801H138.059C138.449 36.5798 138.823 36.4247 139.099 36.1489C139.375 35.8731 139.53 35.4991 139.53 35.1091V31.8331C139.535 31.6579 139.505 31.4836 139.441 31.3204C139.377 31.1571 139.281 31.0083 139.159 30.8827C139.037 30.7571 138.891 30.6573 138.73 30.5891C138.568 30.521 138.395 30.4859 138.22 30.4859C138.044 30.4859 137.871 30.521 137.709 30.5891C137.548 30.6573 137.402 30.7571 137.28 30.8827C137.158 31.0083 137.062 31.1571 136.998 31.3204C136.934 31.4836 136.904 31.6579 136.909 31.8331V33.9571H135.765V29.2801C135.765 28.89 135.61 28.516 135.334 28.2402C135.058 27.9644 134.684 27.8093 134.294 27.8091H122.643C122.416 27.8089 122.192 27.8614 121.988 27.9624C121.785 28.0634 121.607 28.2103 121.47 28.3914C121.333 28.5725 121.24 28.7829 121.197 29.0061C121.155 29.2294 121.165 29.4594 121.227 29.6781C121.523 30.8971 122.213 31.9847 123.189 32.7731C124.165 33.5614 125.373 34.0066 126.627 34.0401C127.561 34.0277 128.477 33.7784 129.288 33.3154C130.099 32.8524 130.779 32.1909 131.265 31.3931H132.159C131.594 32.3422 130.779 33.1186 129.804 33.6381C128.829 34.1575 127.73 34.4003 126.627 34.3401C125.179 34.3572 123.763 33.9135 122.583 33.0732C121.404 32.2329 120.522 31.0394 120.065 29.6651C119.975 29.3356 119.767 29.0504 119.481 28.8633C119.196 28.6762 118.851 28.6001 118.513 28.6492C118.175 28.6984 117.867 28.8695 117.646 29.1303C117.425 29.3911 117.308 29.7235 117.315 30.0651V33.9521H116.171V25.7891C116.171 24.4721 115.222 21.9811 111.63 21.9811C108.766 21.9811 107.352 24.4021 107.219 26.8121C107.219 26.8321 107.219 26.8631 107.219 26.8831V33.9561H106.059C106.029 33.7041 105.935 33.4642 105.784 33.26C105.634 33.0557 105.433 32.8941 105.201 32.7911C104.926 32.6798 104.625 32.6524 104.334 32.7124C104.044 32.7724 103.778 32.917 103.57 33.1281C103.541 33.1551 103.513 33.1841 103.487 33.2141C101.665 35.2991 95.665 34.4741 95.305 29.9451C95.3016 29.5887 95.1648 29.2465 94.9214 28.9861C94.678 28.7258 94.3458 28.5661 93.9905 28.5387C93.6351 28.5113 93.2824 28.6182 93.002 28.8382C92.7216 29.0582 92.5339 29.3754 92.476 29.7271C92.0321 31.0856 91.1683 32.2681 90.0091 33.1042C88.8499 33.9402 87.4552 34.3866 86.026 34.3791C84.8107 34.3959 83.6141 34.0784 82.567 33.4611C81.5199 32.8438 80.6627 31.9506 80.089 30.8791C79.5302 29.8662 79.2604 28.7192 79.3091 27.5634C79.3578 26.4076 79.723 25.2874 80.365 24.3251C80.4581 24.1854 80.5258 24.0303 80.565 23.8671C80.6586 23.8153 80.7462 23.7533 80.826 23.6821C80.8656 23.647 80.903 23.6096 80.938 23.5701C81.7378 22.6757 82.7595 22.0084 83.8998 21.6355C85.0402 21.2626 86.2587 21.1973 87.4324 21.4463C88.606 21.6953 89.6932 22.2497 90.5839 23.0535C91.4746 23.8573 92.1373 24.882 92.505 26.0241C92.515 26.0561 92.525 26.0871 92.537 26.1181C92.6373 26.4467 92.8542 26.7274 93.1469 26.9074C93.4396 27.0874 93.7879 27.1543 94.1264 27.0957C94.465 27.037 94.7705 26.8567 94.9855 26.5886C95.2005 26.3206 95.3102 25.9833 95.294 25.6401V17.6211H96.436V19.7371C96.4363 20.1271 96.5913 20.5011 96.8672 20.7769C97.143 21.0527 97.517 21.2078 97.907 21.2081H102.341V22.1731H97.907C97.517 22.1733 97.143 22.3284 96.8672 22.6042C96.5913 22.88 96.4363 23.254 96.436 23.6441V28.2241C96.436 31.5541 98.162 33.4631 101.171 33.4631C104.355 33.4631 106.071 30.6311 106.071 27.9631V17.6211H107.215V21.2841C107.206 21.5833 107.295 21.8774 107.467 22.1222C107.64 22.3669 107.887 22.5493 108.172 22.6419C108.456 22.7346 108.763 22.7326 109.047 22.6361C109.33 22.5397 109.575 22.3541 109.744 22.1071C110.482 21.4782 111.437 21.1631 112.405 21.2291H112.446C115.296 21.2291 117.246 23.0061 117.31 25.6551C117.313 25.9939 117.439 26.3201 117.664 26.5732C117.889 26.8264 118.199 26.9892 118.535 27.0316C118.871 27.0739 119.211 26.993 119.492 26.8036C119.773 26.6143 119.976 26.3295 120.063 26.0021C120.538 24.6366 121.427 23.4533 122.606 22.6172C123.786 21.7812 125.196 21.3341 126.642 21.3383C128.088 21.3425 129.496 21.7977 130.671 22.6406C131.845 23.4834 132.727 24.6719 133.194 26.0401L133.202 26.0651C133.272 26.3839 133.455 26.6671 133.715 26.8635C133.976 27.0598 134.299 27.1565 134.625 27.136C134.951 27.1155 135.259 26.9791 135.493 26.7516C135.727 26.524 135.872 26.2202 135.902 25.8951C136.424 23.1361 138.344 21.5841 141.614 21.2691V22.2351C140.684 22.2839 139.788 22.5981 139.032 23.1404C138.275 23.6827 137.69 24.4304 137.345 25.2951C137.278 25.4563 137.244 25.6292 137.245 25.8038C137.245 25.9784 137.281 26.1511 137.349 26.3117C137.418 26.4724 137.517 26.6177 137.643 26.7393C137.768 26.8609 137.916 26.9562 138.079 27.0197C138.242 27.0831 138.415 27.1135 138.59 27.1089C138.764 27.1044 138.936 27.065 139.095 26.9931C139.254 26.9212 139.398 26.8183 139.516 26.6904C139.635 26.5624 139.727 26.4121 139.787 26.2481C140.187 25.2311 141.05 24.8101 142.777 24.7951C143.165 24.7909 143.535 24.6341 143.808 24.3588C144.081 24.0835 144.234 23.7117 144.235 23.3241V20.0591C144.234 19.6667 144.077 19.2908 143.799 19.0141ZM126.624 31.4141C126.226 31.4074 125.833 31.3158 125.473 31.1454C125.113 30.975 124.794 30.7298 124.536 30.4261H128.713C128.455 30.7302 128.135 30.9761 127.775 31.1473C127.415 31.3185 127.023 31.4111 126.624 31.4191V31.4141ZM78.553 22.2431C74.894 22.7101 74.104 25.5321 74.104 27.8811V33.9571H72.965C72.965 33.3841 72.965 32.8831 72.965 32.4471C72.965 31.4251 72.965 30.7471 72.965 30.3281C72.956 29.7541 72.94 28.6851 71.839 28.4861C71.5171 28.4309 71.186 28.4943 70.9072 28.6646C70.6285 28.8349 70.4209 29.1004 70.323 29.4121C70.309 29.4511 70.296 29.4901 70.285 29.5301C69.873 31.066 68.9168 32.3998 67.5947 33.2833C66.2725 34.1669 64.6743 34.5399 63.0976 34.333C61.5209 34.126 60.0731 33.3532 59.0237 32.1585C57.9743 30.9637 57.3948 29.4283 57.393 27.8381L57.387 17.6211H58.531V21.3811C58.531 21.6609 58.6109 21.9349 58.7612 22.1709C58.9116 22.4069 59.1262 22.5951 59.3798 22.7134C59.6334 22.8316 59.9156 22.875 60.193 22.8385C60.4704 22.8019 60.7317 22.687 60.946 22.5071C64.183 19.7871 69.091 22.0281 70.246 26.0191C70.3231 26.3399 70.5068 26.6251 70.7672 26.8279C71.0275 27.0307 71.349 27.139 71.679 27.1351C72.0192 27.125 72.3448 26.9942 72.5974 26.7661C72.85 26.538 73.0133 26.2275 73.058 25.8901C73.475 23.1371 75.321 21.5901 78.551 21.2701L78.553 22.2431ZM103.453 27.9661C103.453 28.7121 103.034 30.8411 101.172 30.8411C100.103 30.8411 99.058 30.6411 99.058 28.2231V24.7931H103.458L103.453 27.9661Z" fill="black"/>
<path d="M85.943 22.1351C85.1788 22.1321 84.4219 22.2832 83.7174 22.5795C83.013 22.8757 82.3755 23.3109 81.843 23.8591C81.6085 24.1092 81.4814 24.4413 81.4888 24.7841C81.4963 25.1268 81.6377 25.4531 81.8828 25.6928C82.1279 25.9325 82.4572 26.0667 82.8001 26.0666C83.1429 26.0664 83.4721 25.932 83.717 25.6921C84.1485 25.2495 84.7025 24.946 85.3078 24.8205C85.913 24.6951 86.542 24.7535 87.1138 24.9883C87.6857 25.223 88.1743 25.6233 88.5169 26.1378C88.8595 26.6522 89.0405 27.2574 89.0366 27.8755C89.0328 28.4937 88.8442 29.0965 88.4951 29.6067C88.1461 30.1168 87.6525 30.5109 87.0777 30.7385C86.503 30.966 85.8733 31.0165 85.2697 30.8835C84.666 30.7505 84.1159 30.44 83.69 29.9921C83.4501 29.7401 83.12 29.5938 82.7722 29.5852C82.4244 29.5767 82.0875 29.7067 81.8355 29.9466C81.5836 30.1864 81.4372 30.5166 81.4287 30.8644C81.4201 31.2122 81.5501 31.5491 81.79 31.8011C82.4423 32.4886 83.2551 33.0033 84.1555 33.2991C85.0559 33.5949 86.0156 33.6625 86.9485 33.4958C87.8815 33.3291 88.7584 32.9333 89.5006 32.3439C90.2428 31.7546 90.827 30.9902 91.2008 30.1193C91.5746 29.2484 91.7263 28.2983 91.6422 27.3543C91.5581 26.4103 91.2409 25.502 90.7191 24.7109C90.1973 23.9198 89.4871 23.2706 88.6525 22.8217C87.8178 22.3728 86.8847 22.1383 85.937 22.1391L85.943 22.1351Z" fill="black"/>
<path d="M63.733 22.1351C62.6025 22.1376 61.498 22.4752 60.5593 23.1052C59.6205 23.7352 58.8895 24.6293 58.4586 25.6745C58.0278 26.7197 57.9164 27.8692 58.1385 28.9777C58.3606 30.0863 58.9063 31.1041 59.7067 31.9026C60.507 32.7011 61.526 33.2445 62.6351 33.4641C63.7441 33.6837 64.8933 33.5697 65.9376 33.1365C66.9818 32.7032 67.8742 31.9702 68.5021 31.03C69.1299 30.0898 69.465 28.9846 69.465 27.8541C69.4621 26.3359 68.8568 24.881 67.7821 23.8088C66.7074 22.7365 65.2511 22.1345 63.733 22.1351ZM63.733 30.9521C63.1202 30.9505 62.5217 30.7673 62.0129 30.4257C61.5042 30.0842 61.1081 29.5994 60.8747 29.0329C60.6413 28.4663 60.581 27.8432 60.7016 27.2424C60.8221 26.6416 61.1179 26.09 61.5518 25.6572C61.9857 25.2245 62.538 24.93 63.1392 24.8111C63.7403 24.6921 64.3632 24.754 64.9292 24.9888C65.4952 25.2237 65.9788 25.621 66.3191 26.1306C66.6594 26.6403 66.841 27.2393 66.841 27.8521C66.8397 28.6752 66.5116 29.4642 65.9287 30.0455C65.3459 30.6268 64.5562 30.9529 63.733 30.9521Z" fill="black"/>
<path d="M131.965 25.323C131.596 24.2441 130.898 23.3076 129.97 22.6446C129.042 21.9816 127.93 21.6251 126.79 21.6251C125.65 21.6251 124.538 21.9816 123.61 22.6446C122.682 23.3076 121.984 24.2441 121.615 25.323C121.526 25.5462 121.492 25.788 121.518 26.027C121.544 26.2661 121.627 26.4952 121.762 26.6943C121.897 26.8934 122.079 27.0564 122.291 27.169C122.504 27.2816 122.741 27.3403 122.981 27.34H130.599C130.839 27.3403 131.076 27.2816 131.289 27.169C131.501 27.0564 131.683 26.8934 131.818 26.6943C131.953 26.4952 132.036 26.2661 132.062 26.027C132.088 25.788 132.054 25.5462 131.965 25.323ZM125.294 24.717C125.733 24.4102 126.255 24.2456 126.791 24.2456C127.326 24.2456 127.848 24.4102 128.287 24.717H125.294Z" fill="black"/>
</g>
</svg>
