<svg width="199" height="51" viewBox="0 0 199 51" fill="none" xmlns="http://www.w3.org/2000/svg">
<path d="M191 0H8C3.58172 0 0 3.58172 0 8V43C0 47.4183 3.58172 51 8 51H191C195.418 51 199 47.4183 199 43V8C199 3.58172 195.418 0 191 0Z" fill="white"/>
<path d="M191 0.5H8C3.85786 0.5 0.5 3.85786 0.5 8V43C0.5 47.1421 3.85786 50.5 8 50.5H191C195.142 50.5 198.5 47.1421 198.5 43V8C198.5 3.85786 195.142 0.5 191 0.5Z" stroke="#C3DCD4"/>
<mask id="mask0_723_20758" style="mask-type:luminance" maskUnits="userSpaceOnUse" x="28" y="15" width="143" height="22">
<path d="M171 15H28V37H171V15Z" fill="white"/>
</mask>
<g mask="url(#mask0_723_20758)">
<path d="M73.308 23.835H67.508C67.3879 23.8348 67.2729 23.7869 67.188 23.702C67.1031 23.6171 67.0553 23.5021 67.055 23.382V15.895C67.0547 15.775 67.0069 15.6599 66.922 15.575C66.8371 15.4901 66.722 15.4423 66.602 15.442H61.063C60.9429 15.4423 60.8279 15.4901 60.743 15.575C60.6581 15.6599 60.6102 15.775 60.61 15.895V36.108C60.6102 36.2281 60.6581 36.3432 60.743 36.428C60.8279 36.5129 60.9429 36.5608 61.063 36.561H66.602C66.722 36.5608 66.8371 36.5129 66.922 36.428C67.0069 36.3432 67.0547 36.2281 67.055 36.108V28.708C67.0549 28.6484 67.0665 28.5893 67.0892 28.5342C67.1119 28.4791 67.1452 28.429 67.1873 28.3867C67.2293 28.3444 67.2793 28.3109 67.3343 28.288C67.3894 28.265 67.4484 28.2531 67.508 28.253H73.308C73.428 28.2533 73.5431 28.3011 73.628 28.386C73.7129 28.4709 73.7607 28.586 73.761 28.706V36.106C73.7612 36.2261 73.8091 36.3412 73.894 36.426C73.9789 36.5109 74.0939 36.5588 74.214 36.559H79.753C79.873 36.5593 79.9883 36.512 80.0736 36.4275C80.1589 36.3429 80.2072 36.2281 80.208 36.108V15.895C80.2077 15.775 80.1599 15.6599 80.075 15.575C79.9901 15.4901 79.875 15.4423 79.755 15.442H74.217C74.0969 15.4423 73.9819 15.4901 73.897 15.575C73.8121 15.6599 73.7643 15.775 73.764 15.895V23.382C73.7639 23.4417 73.7519 23.5008 73.7289 23.5559C73.7059 23.611 73.6723 23.661 73.63 23.7031C73.5876 23.7452 73.5374 23.7785 73.4821 23.8011C73.4269 23.8238 73.3677 23.8353 73.308 23.835Z" fill="#579ADD"/>
<path d="M85.43 36.559H90.968C91.088 36.5588 91.2031 36.5109 91.288 36.426C91.3729 36.3412 91.4207 36.2261 91.421 36.106V15.895C91.4207 15.775 91.3729 15.6599 91.288 15.575C91.2031 15.4901 91.088 15.4423 90.968 15.442H85.43C85.3099 15.4423 85.1949 15.4901 85.11 15.575C85.0251 15.6599 84.9773 15.775 84.977 15.895V36.108C84.9778 36.2277 85.0258 36.3423 85.1107 36.4268C85.1955 36.5112 85.3103 36.5588 85.43 36.559Z" fill="#579ADD"/>
<path d="M47.366 15C44.8765 15.0076 42.389 15.1411 39.913 15.4C39.8027 15.4132 39.7011 15.4664 39.6273 15.5495C39.5536 15.6326 39.5129 15.7399 39.513 15.851V36.108C39.5133 36.2281 39.5611 36.3431 39.646 36.428C39.7309 36.5129 39.8459 36.5607 39.966 36.561H45.499C45.6191 36.5607 45.7341 36.5129 45.819 36.428C45.9039 36.3431 45.9517 36.2281 45.952 36.108V31.976C45.9523 31.8559 46.0001 31.7409 46.085 31.656C46.1699 31.5711 46.2849 31.5233 46.405 31.523H48.249C54.249 31.523 58.049 28.43 58.049 23.041C58.049 17.12 53.987 15 47.366 15ZM47.013 27.723H46.408C46.2879 27.7227 46.1729 27.6749 46.088 27.59C46.0031 27.5051 45.9553 27.3901 45.955 27.27V19.434C45.955 19.3155 46.0013 19.2016 46.0841 19.1168C46.1668 19.032 46.2795 18.9829 46.398 18.98C46.611 18.98 46.817 18.98 47.015 18.98C50.193 18.98 51.694 20.48 51.694 23.133C51.692 25.868 50.367 27.723 47.013 27.723Z" fill="#579ADD"/>
<path d="M130.27 15C127.781 15.0076 125.294 15.1411 122.818 15.4C122.708 15.4132 122.606 15.4664 122.532 15.5495C122.459 15.6326 122.418 15.7399 122.418 15.851V36.108C122.418 36.2281 122.466 36.3431 122.551 36.428C122.636 36.5129 122.751 36.5607 122.871 36.561H128.408C128.528 36.5607 128.643 36.5129 128.728 36.428C128.813 36.3431 128.861 36.2281 128.861 36.108V31.976C128.861 31.8559 128.909 31.7409 128.994 31.656C129.079 31.5711 129.194 31.5233 129.314 31.523H131.156C137.156 31.523 140.956 28.43 140.956 23.041C140.953 17.12 136.89 15 130.27 15ZM129.916 27.723H129.308C129.188 27.7227 129.073 27.6749 128.988 27.59C128.903 27.5051 128.855 27.3901 128.855 27.27V19.434C128.855 19.3155 128.901 19.2016 128.984 19.1168C129.067 19.032 129.18 18.9829 129.298 18.98C129.511 18.98 129.717 18.98 129.914 18.98C133.092 18.98 134.594 20.48 134.594 23.133C134.596 25.868 133.271 27.723 129.916 27.723Z" fill="#579ADD"/>
<path d="M102.181 15.442H96.643C96.5229 15.4423 96.4079 15.4901 96.323 15.575C96.2381 15.6599 96.1903 15.775 96.19 15.895V36.108C96.1903 36.2281 96.2381 36.3432 96.323 36.428C96.4079 36.5129 96.5229 36.5608 96.643 36.561H107.482C107.585 36.5609 107.684 36.5261 107.764 36.4622C107.845 36.3982 107.901 36.309 107.924 36.209L108.687 32.875C108.702 32.8086 108.702 32.7397 108.687 32.6733C108.672 32.6069 108.642 32.5447 108.6 32.4915C108.557 32.4383 108.503 32.3953 108.442 32.3658C108.38 32.3363 108.313 32.321 108.245 32.321H103.088C102.968 32.3208 102.853 32.2729 102.768 32.1881C102.683 32.1032 102.635 31.9881 102.635 31.868V15.895C102.635 15.8354 102.623 15.7765 102.6 15.7214C102.578 15.6664 102.544 15.6164 102.502 15.5743C102.46 15.5323 102.41 15.4989 102.355 15.4762C102.3 15.4535 102.241 15.4419 102.181 15.442Z" fill="#579ADD"/>
<path d="M149.34 20.831C149.34 19.682 150.487 19.152 152.34 19.152C154.06 19.1611 155.768 19.4346 157.404 19.963C157.476 19.9867 157.553 19.9918 157.628 19.978C157.702 19.9641 157.772 19.9317 157.831 19.8836C157.89 19.8356 157.936 19.7735 157.964 19.7032C157.993 19.6328 158.003 19.5564 157.994 19.481L157.587 15.944C157.576 15.8493 157.536 15.7605 157.471 15.6901C157.407 15.6197 157.322 15.5714 157.229 15.552C155.391 15.1581 153.514 14.9733 151.634 15.001C146.425 15.001 142.893 17.055 142.893 21.362C142.893 28.784 152.958 27.282 152.958 30.728C152.958 32.054 151.987 32.76 149.603 32.76C147.347 32.6884 145.119 32.2332 143.016 31.414C142.942 31.3833 142.861 31.3728 142.782 31.3834C142.703 31.3941 142.628 31.4256 142.565 31.4746C142.501 31.5237 142.452 31.5886 142.422 31.6628C142.392 31.737 142.383 31.8178 142.394 31.897L142.941 35.666C142.953 35.7485 142.987 35.8261 143.04 35.8904C143.093 35.9546 143.162 36.0029 143.241 36.03C145.33 36.6753 147.505 37.0019 149.692 36.999C155.078 36.999 159.492 35.233 159.492 29.93C159.492 22.863 149.34 24.189 149.34 20.831Z" fill="#579ADD"/>
<path d="M111.564 36.559H117.103C117.223 36.5588 117.338 36.5109 117.423 36.426C117.508 36.3412 117.556 36.2261 117.556 36.106V15.895C117.556 15.775 117.508 15.6599 117.423 15.575C117.338 15.4901 117.223 15.4423 117.103 15.442H111.564C111.444 15.4423 111.329 15.4901 111.244 15.575C111.159 15.6599 111.111 15.775 111.111 15.895V36.108C111.112 36.2277 111.16 36.3423 111.245 36.4268C111.33 36.5112 111.444 36.5588 111.564 36.559Z" fill="#579ADD"/>
<path d="M65.197 36.108V15.895C65.197 15.7749 65.2447 15.6597 65.3297 15.5747C65.4146 15.4897 65.5298 15.442 65.65 15.442H61.063C60.9428 15.442 60.8276 15.4897 60.7427 15.5747C60.6577 15.6597 60.61 15.7749 60.61 15.895V36.108C60.61 36.2282 60.6577 36.3434 60.7427 36.4283C60.8276 36.5133 60.9428 36.561 61.063 36.561H65.65C65.5298 36.561 65.4146 36.5133 65.3297 36.4283C65.2447 36.3434 65.197 36.2282 65.197 36.108Z" fill="#4987CE"/>
<path d="M78.351 23.382V15.895C78.351 15.7749 78.3987 15.6597 78.4837 15.5747C78.5686 15.4897 78.6838 15.442 78.804 15.442H74.217C74.0968 15.442 73.9816 15.4897 73.8967 15.5747C73.8117 15.6597 73.764 15.7749 73.764 15.895V23.382C73.764 23.5022 73.7162 23.6174 73.6313 23.7023C73.5463 23.7873 73.4311 23.835 73.311 23.835H77.898C78.0181 23.835 78.1333 23.7873 78.2183 23.7023C78.3032 23.6174 78.351 23.5022 78.351 23.382Z" fill="#4987CE"/>
<path d="M78.351 36.108V28.708C78.351 28.5879 78.3033 28.4726 78.2183 28.3877C78.1333 28.3027 78.0181 28.255 77.898 28.255H73.308C73.3675 28.255 73.4264 28.2667 73.4813 28.2895C73.5363 28.3123 73.5862 28.3456 73.6283 28.3877C73.6704 28.4297 73.7037 28.4797 73.7265 28.5346C73.7493 28.5896 73.761 28.6485 73.761 28.708V36.108C73.761 36.1675 73.7727 36.2264 73.7955 36.2814C73.8182 36.3363 73.8516 36.3863 73.8937 36.4283C73.9357 36.4704 73.9857 36.5038 74.0406 36.5265C74.0956 36.5493 74.1545 36.561 74.214 36.561H78.808C78.7482 36.5615 78.6888 36.5502 78.6334 36.5277C78.578 36.5051 78.5276 36.4719 78.4851 36.4297C78.4426 36.3876 78.4089 36.3375 78.3858 36.2823C78.3628 36.2271 78.351 36.1678 78.351 36.108Z" fill="#4987CE"/>
<path d="M89.564 36.108V15.895C89.564 15.8355 89.5757 15.7766 89.5985 15.7217C89.6212 15.6667 89.6546 15.6168 89.6967 15.5747C89.7387 15.5326 89.7887 15.4993 89.8436 15.4765C89.8986 15.4537 89.9575 15.442 90.017 15.442H85.43C85.3098 15.442 85.1946 15.4897 85.1097 15.5747C85.0247 15.6597 84.977 15.7749 84.977 15.895V36.108C84.977 36.2282 85.0247 36.3434 85.1097 36.4283C85.1946 36.5133 85.3098 36.561 85.43 36.561H90.018C89.8978 36.561 89.7824 36.5133 89.6973 36.4284C89.6122 36.3435 89.5643 36.2283 89.564 36.108Z" fill="#4987CE"/>
<path d="M44.095 36.0901V15.1551C44.0953 15.1302 44.0977 15.1055 44.102 15.0811C42.621 15.1501 41.152 15.2591 39.913 15.3951C39.8027 15.4083 39.7011 15.4615 39.6273 15.5446C39.5536 15.6277 39.5129 15.735 39.513 15.8461V36.1081C39.513 36.2282 39.5607 36.3434 39.6457 36.4284C39.7306 36.5133 39.8459 36.5611 39.966 36.5611H44.566C44.504 36.5615 44.4426 36.5495 44.3853 36.526C44.328 36.5025 44.2759 36.4678 44.2321 36.424C44.1882 36.3802 44.1536 36.3281 44.13 36.2708C44.1065 36.2134 44.0946 36.152 44.095 36.0901Z" fill="#4987CE"/>
<path d="M127 36.0901V15.1461C127 15.1243 127.002 15.1026 127.006 15.0811C125.525 15.1501 124.056 15.2591 122.818 15.3951C122.708 15.4083 122.606 15.4615 122.532 15.5446C122.459 15.6277 122.418 15.735 122.418 15.8461V36.1081C122.418 36.2282 122.466 36.3434 122.551 36.4284C122.636 36.5133 122.751 36.5611 122.871 36.5611H127.471C127.409 36.5613 127.348 36.5493 127.29 36.5257C127.233 36.5022 127.181 36.4675 127.137 36.4237C127.094 36.3799 127.059 36.3279 127.035 36.2706C127.012 36.2133 127 36.152 127 36.0901Z" fill="#4987CE"/>
<path d="M100.777 36.108V15.895C100.777 15.7749 100.825 15.6597 100.91 15.5747C100.995 15.4897 101.11 15.442 101.23 15.442H96.643C96.5835 15.442 96.5246 15.4537 96.4696 15.4765C96.4147 15.4993 96.3648 15.5326 96.3227 15.5747C96.2806 15.6168 96.2473 15.6667 96.2245 15.7217C96.2017 15.7766 96.19 15.8355 96.19 15.895V36.108C96.19 36.1675 96.2017 36.2264 96.2245 36.2814C96.2473 36.3363 96.2806 36.3863 96.3227 36.4283C96.3648 36.4704 96.4147 36.5038 96.4696 36.5265C96.5246 36.5493 96.5835 36.561 96.643 36.561H101.23C101.11 36.5608 100.995 36.5129 100.91 36.428C100.825 36.3432 100.777 36.2281 100.777 36.108Z" fill="#4987CE"/>
<path d="M115.698 36.108V15.895C115.698 15.7749 115.746 15.6597 115.831 15.5747C115.916 15.4897 116.031 15.442 116.151 15.442H111.564C111.444 15.442 111.329 15.4897 111.244 15.5747C111.159 15.6597 111.111 15.7749 111.111 15.895V36.108C111.111 36.2282 111.159 36.3434 111.244 36.4283C111.329 36.5133 111.444 36.561 111.564 36.561H116.151C116.031 36.5608 115.916 36.5129 115.831 36.428C115.746 36.3432 115.698 36.2281 115.698 36.108Z" fill="#4987CE"/>
<path d="M148.208 18.384C149.268 16.506 151.43 15.427 154.289 15.104C153.531 15.038 152.674 15.004 151.638 15.004C146.429 15.004 142.897 17.058 142.897 21.365C142.897 27.195 149.106 27.519 151.77 29.059C144.432 24.635 148.208 18.384 148.208 18.384Z" fill="#4987CE"/>
<path d="M147.072 32.519C145.685 32.2935 144.326 31.9228 143.017 31.413C142.943 31.3823 142.862 31.3718 142.783 31.3824C142.704 31.3931 142.629 31.4246 142.566 31.4736C142.502 31.5227 142.453 31.5876 142.423 31.6618C142.393 31.736 142.384 31.8168 142.395 31.896L142.942 35.665C142.954 35.7475 142.988 35.8251 143.041 35.8894C143.094 35.9536 143.163 36.0019 143.242 36.029C144.796 36.518 146.403 36.8201 148.028 36.929C147.295 35.5804 146.963 34.0501 147.072 32.519Z" fill="#4987CE"/>
</g>
</svg>
