<svg width="199" height="51" viewBox="0 0 199 51" fill="none" xmlns="http://www.w3.org/2000/svg">
<path d="M191 0H8C3.58172 0 0 3.58172 0 8V43C0 47.4183 3.58172 51 8 51H191C195.418 51 199 47.4183 199 43V8C199 3.58172 195.418 0 191 0Z" fill="white"/>
<path d="M191 0.5H8C3.85786 0.5 0.5 3.85786 0.5 8V43C0.5 47.1421 3.85786 50.5 8 50.5H191C195.142 50.5 198.5 47.1421 198.5 43V8C198.5 3.85786 195.142 0.5 191 0.5Z" stroke="#C3DCD4"/>
<mask id="mask0_723_20740" style="mask-type:luminance" maskUnits="userSpaceOnUse" x="28" y="15" width="143" height="22">
<path d="M171 15H28V37H171V15Z" fill="white"/>
</mask>
<g mask="url(#mask0_723_20740)">
<path d="M130.517 32.2829C130.345 32.1118 130.113 32.0158 129.87 32.0159C123.993 32.0369 118.885 32.1159 117.794 32.0159C117.233 32.015 116.695 31.797 116.291 31.4078C115.888 31.0185 115.651 30.4881 115.63 29.9279C115.546 29.0383 115.544 28.1428 115.624 27.2529C115.672 26.676 115.906 26.1305 116.292 25.6993C116.679 25.2681 117.195 24.9748 117.763 24.8639C118.414 24.8289 119.663 24.8459 129.871 24.8639C130.114 24.8639 130.348 24.7673 130.52 24.5954C130.692 24.4234 130.789 24.1902 130.789 23.9469V20.8049C130.789 20.5618 130.693 20.3288 130.521 20.1568C130.349 19.9849 130.116 19.8881 129.873 19.8879C118.992 19.8659 118.541 19.8539 117.546 19.8879C113.492 20.0439 110.857 22.9649 110.637 27.0389C110.476 29.8639 110.615 32.8229 112.674 34.9079C113.984 36.1977 115.736 36.9407 117.574 36.9859C118.774 37.0009 128.674 36.9859 129.874 36.9859C130.117 36.9853 130.35 36.8885 130.521 36.7166C130.693 36.5447 130.789 36.3117 130.789 36.0689C130.787 32.7209 130.869 32.6339 130.517 32.2829ZM128.953 35.1589C126.282 35.1589 118.628 35.1709 117.593 35.1589C116.239 35.1182 114.95 34.5719 113.979 33.6279C113.053 32.5881 112.517 31.2585 112.463 29.8669C112.405 28.9611 112.405 28.0526 112.463 27.1469C112.496 25.7127 113.032 24.3358 113.977 23.2569C115.767 21.4389 117.577 21.6919 122.011 21.7129C123.379 21.7189 127.188 21.7239 128.95 21.7259V23.0349C119.61 23.0169 118.385 22.9989 117.663 23.0349C116.651 23.1599 115.714 23.6302 115.009 24.3665C114.304 25.1027 113.874 26.0597 113.793 27.0759C113.7 28.0737 113.7 29.078 113.793 30.0759C113.851 31.0668 114.274 32.0009 114.982 32.6967C115.69 33.3926 116.631 33.8004 117.623 33.8409C118.774 33.9409 123.323 33.8739 128.946 33.8479V35.1539L128.953 35.1589Z" fill="black"/>
<path d="M108.716 20.0609H90.606C90.3628 20.0609 90.1295 20.1575 89.9575 20.3295C89.7856 20.5015 89.689 20.7347 89.689 20.9779V24.1179C89.689 24.3611 89.7856 24.5944 89.9575 24.7663C90.1295 24.9383 90.3628 25.0349 90.606 25.0349H97.167V36.0199C97.167 36.1403 97.1907 36.2596 97.2368 36.3708C97.2829 36.4821 97.3504 36.5832 97.4355 36.6683C97.5207 36.7535 97.6218 36.821 97.733 36.8671C97.8443 36.9132 97.9635 36.9369 98.084 36.9369H101.24C101.36 36.9369 101.48 36.9132 101.591 36.8671C101.702 36.821 101.803 36.7535 101.888 36.6683C101.974 36.5832 102.041 36.4821 102.087 36.3708C102.133 36.2596 102.157 36.1403 102.157 36.0199V31.8529C102.149 31.6151 102.049 31.3896 101.878 31.2242C101.707 31.0587 101.478 30.9662 101.24 30.9662C101.003 30.9662 100.774 31.0587 100.603 31.2242C100.432 31.3896 100.332 31.6151 100.324 31.8529V35.1049H98.999V24.1179C98.999 23.8747 98.9024 23.6415 98.7304 23.4695C98.5584 23.2975 98.3252 23.2009 98.082 23.2009H91.52V21.8939H107.799V23.2049H101.238C100.995 23.2049 100.762 23.3015 100.59 23.4735C100.418 23.6455 100.321 23.8787 100.321 24.1219V27.5749C100.329 27.8127 100.429 28.0382 100.6 28.2037C100.771 28.3691 101 28.4616 101.237 28.4616C101.475 28.4616 101.704 28.3691 101.875 28.2037C102.046 28.0382 102.146 27.8127 102.154 27.5749V25.0349H108.716C108.959 25.0349 109.192 24.9383 109.364 24.7663C109.536 24.5944 109.633 24.3611 109.633 24.1179V20.9779C109.633 20.8575 109.609 20.7382 109.563 20.6268C109.517 20.5155 109.45 20.4144 109.365 20.3292C109.279 20.244 109.178 20.1765 109.067 20.1304C108.956 20.0844 108.836 20.0608 108.716 20.0609Z" fill="black"/>
<path d="M88.242 26.9049C88.2392 25.0655 87.516 23.3005 86.2273 21.988C84.9386 20.6756 83.187 19.9203 81.348 19.8839C81.14 19.8719 80.814 19.8629 80.379 19.8559H80.365C80.127 19.8619 79.9006 19.9602 79.7338 20.1301C79.567 20.2999 79.4728 20.528 79.4711 20.7661C79.4694 21.0042 79.5604 21.2336 79.7248 21.4058C79.8892 21.578 80.1141 21.6795 80.352 21.6889C80.862 21.6969 81.119 21.7069 81.252 21.7139C82.6247 21.7281 83.9363 22.2838 84.9015 23.26C85.8667 24.2363 86.4074 25.5541 86.406 26.9269C86.412 27.4959 86.406 32.9539 86.406 35.1579H85.086C85.094 32.8809 85.109 27.4669 85.086 26.9379C85.0678 25.9367 84.6743 24.9788 83.9833 24.2541C83.2922 23.5294 82.3542 23.0907 81.355 23.0249C80.138 22.9429 76.39 22.9129 75.09 23.0249C74.1169 23.1176 73.2085 23.5537 72.5276 24.2551C71.8467 24.9565 71.4378 25.8774 71.374 26.8529C71.314 27.6119 71.342 32.9119 71.357 35.1579H70.04V16.8329H71.364V21.6329C71.3651 21.7981 71.4105 21.96 71.4955 22.1018C71.5805 22.2435 71.7019 22.3598 71.8471 22.4386C71.9923 22.5175 72.156 22.5559 72.3212 22.55C72.4863 22.5441 72.6468 22.494 72.786 22.4049C73.7927 21.8363 74.9485 21.5873 76.1 21.6909C76.3383 21.6803 76.5631 21.5774 76.7267 21.4038C76.8903 21.2302 76.9798 20.9998 76.9763 20.7613C76.9728 20.5228 76.8765 20.2951 76.7078 20.1264C76.5392 19.9578 76.3115 19.8614 76.073 19.8579C75.1025 19.8231 74.1324 19.9381 73.197 20.1989V15.9159C73.1971 15.7954 73.1735 15.6761 73.1275 15.5648C73.0814 15.4535 73.0139 15.3524 72.9287 15.2672C72.8435 15.182 72.7424 15.1145 72.6311 15.0684C72.5198 15.0224 72.4005 14.9988 72.28 14.9989H69.123C69.0026 14.9989 68.8833 15.0226 68.7721 15.0687C68.6608 15.1148 68.5597 15.1823 68.4746 15.2675C68.3894 15.3526 68.3219 15.4537 68.2758 15.565C68.2297 15.6762 68.206 15.7955 68.206 15.9159V36.0749C68.206 36.3181 68.3026 36.5513 68.4746 36.7233C68.6465 36.8953 68.8798 36.9919 69.123 36.9919H72.276C72.397 36.9919 72.5168 36.968 72.6285 36.9214C72.7403 36.8749 72.8417 36.8067 72.9269 36.7208C73.0121 36.635 73.0795 36.533 73.1252 36.421C73.1709 36.3089 73.1939 36.1889 73.193 36.0679C73.168 32.7679 73.149 27.6269 73.198 26.9959C73.2288 26.4536 73.4516 25.9401 73.8264 25.547C74.2013 25.154 74.7038 24.9073 75.244 24.8509C76.424 24.7509 80.117 24.7789 81.226 24.8509C81.7771 24.889 82.2931 25.1354 82.6692 25.5401C83.0453 25.9448 83.2533 26.4774 83.251 27.0299C83.273 27.4679 83.261 32.6749 83.251 36.0679C83.2506 36.1885 83.2739 36.308 83.3198 36.4195C83.3656 36.531 83.4329 36.6324 83.518 36.7179C83.867 37.0679 83.894 36.9879 87.327 36.9879C87.57 36.9879 87.8031 36.8914 87.9751 36.7197C88.147 36.5479 88.2437 36.3149 88.244 36.0719C88.242 35.7309 88.25 27.6289 88.242 26.9049Z" fill="black"/>
</g>
</svg>
