<svg width="199" height="51" viewBox="0 0 199 51" fill="none" xmlns="http://www.w3.org/2000/svg">
<path d="M191 0H8C3.58172 0 0 3.58172 0 8V43C0 47.4183 3.58172 51 8 51H191C195.418 51 199 47.4183 199 43V8C199 3.58172 195.418 0 191 0Z" fill="white"/>
<path d="M191 0.5H8C3.85786 0.5 0.5 3.85786 0.5 8V43C0.5 47.1421 3.85786 50.5 8 50.5H191C195.142 50.5 198.5 47.1421 198.5 43V8C198.5 3.85786 195.142 0.5 191 0.5Z" stroke="#C3DCD4"/>
<mask id="mask0_723_20716" style="mask-type:luminance" maskUnits="userSpaceOnUse" x="28" y="15" width="143" height="22">
<path d="M171 15H28V37H171V15Z" fill="white"/>
</mask>
<g mask="url(#mask0_723_20716)">
<path d="M107.606 30.7691C105.589 30.6401 103.764 27.4691 101.999 24.3971C99.592 20.2101 96.599 14.9971 91.021 14.9971C85.443 14.9971 82.45 20.2071 80.043 24.3971C78.158 27.6761 76.377 30.7731 74.297 30.7731C72.217 30.7731 70.436 27.6731 68.55 24.3961C66.198 20.3061 63.271 15.2151 57.906 15.0061C57.6987 14.9983 57.492 15.0324 57.2982 15.1063C57.1044 15.1801 56.9275 15.2923 56.778 15.4361C56.6285 15.5817 56.5097 15.7559 56.4286 15.9483C56.3475 16.1406 56.3058 16.3473 56.306 16.5561V19.5301C56.3056 19.9355 56.4563 20.3265 56.7287 20.6267C57.001 20.927 57.3755 21.115 57.779 21.1541C59.711 21.3541 61.497 24.4541 63.224 27.4601C65.647 31.6741 68.662 36.9181 74.296 36.9181C79.93 36.9181 82.945 31.6741 85.368 27.4601C87.153 24.3551 88.999 21.1441 91.021 21.1441C93.043 21.1441 94.888 24.3551 96.674 27.4611C99.03 31.5611 101.963 36.6611 107.336 36.9081C107.552 36.9175 107.767 36.8833 107.969 36.8074C108.171 36.7316 108.355 36.6156 108.511 36.4667C108.667 36.3177 108.791 36.1387 108.876 35.9404C108.961 35.7422 109.006 35.5288 109.006 35.3131V32.2731C109.006 31.8918 108.862 31.5246 108.602 31.2455C108.342 30.9664 107.986 30.7961 107.606 30.7691ZM106.48 34.2521C103.072 33.5101 100.938 29.7981 98.867 26.1971C96.624 22.2971 94.506 18.6121 91.021 18.6121C87.536 18.6121 85.421 22.2961 83.174 26.1981C80.86 30.2231 78.466 34.3861 74.297 34.3861C70.128 34.3861 67.734 30.2231 65.419 26.1971C63.462 22.7971 61.605 19.5651 58.838 18.7881V17.6681C62.191 18.4141 64.305 22.0921 66.356 25.6591C68.617 29.5911 70.756 33.3051 74.297 33.3051C77.838 33.3051 79.977 29.5911 82.238 25.6591C84.538 21.6591 86.911 17.5311 91.022 17.5311C95.133 17.5311 97.506 21.6631 99.806 25.6601C101.783 29.0981 103.661 32.3601 106.481 33.1351L106.48 34.2521Z" fill="black"/>
<path d="M94.924 28.8731C94.8295 28.1439 94.5327 27.4557 94.0671 26.8866C93.6015 26.3175 92.9859 25.8902 92.2898 25.6531C91.5938 25.416 90.8453 25.3786 90.1291 25.5451C89.413 25.7116 88.7578 26.0755 88.2378 26.5953C87.7178 27.1152 87.3538 27.7703 87.1871 28.4865C87.0204 29.2026 87.0576 29.9511 87.2946 30.6472C87.5315 31.3433 87.9587 31.959 88.5277 32.4247C89.0967 32.8904 89.7848 33.1874 90.514 33.2821C90.6825 33.3033 90.8522 33.314 91.022 33.3141C91.5812 33.3136 92.1339 33.1939 92.6433 32.9631C93.1527 32.7322 93.607 32.3955 93.976 31.9753C94.345 31.5551 94.6203 31.061 94.7834 30.5261C94.9465 29.9912 94.9938 29.4277 94.922 28.8731H94.924ZM92.014 30.3731C91.8503 30.5335 91.6496 30.6513 91.4297 30.716C91.2098 30.7808 90.9774 30.7905 90.7528 30.7445C90.5283 30.6984 90.3185 30.5979 90.1418 30.4518C89.9652 30.3056 89.8272 30.1184 89.7398 29.9064C89.6525 29.6945 89.6185 29.4643 89.6409 29.2362C89.6633 29.0081 89.7414 28.7889 89.8683 28.598C89.9952 28.4071 90.1671 28.2503 90.3687 28.1413C90.5704 28.0324 90.7958 27.9746 91.025 27.9731C91.0869 27.9732 91.1486 27.9772 91.21 27.9851C91.4699 28.0193 91.715 28.1258 91.9173 28.2925C92.1196 28.4592 92.2711 28.6793 92.3545 28.9279C92.4378 29.1764 92.4497 29.4433 92.3888 29.6983C92.3279 29.9533 92.1967 30.186 92.01 30.3701L92.014 30.3731Z" fill="black"/>
<path d="M139.04 25.2061C138.89 23.8259 138.353 22.5163 137.491 21.4284C136.628 20.3404 135.476 19.5184 134.167 19.0573C132.857 18.5961 131.444 18.5146 130.09 18.8221C128.737 19.1296 127.497 19.8136 126.516 20.7952C125.534 21.7768 124.85 23.0159 124.542 24.3696C124.234 25.7233 124.316 27.1364 124.777 28.4459C125.238 29.7554 126.06 30.9078 127.148 31.7702C128.235 32.6327 129.545 33.1699 130.925 33.3201C131.188 33.348 131.452 33.362 131.717 33.3621C132.751 33.3615 133.773 33.1435 134.717 32.7221C135.661 32.3007 136.506 31.6854 137.196 30.9162C137.887 30.147 138.408 29.241 138.726 28.2573C139.043 27.2735 139.15 26.2339 139.04 25.2061ZM135.134 29.4151C134.572 29.976 133.881 30.3896 133.121 30.6194C132.361 30.8492 131.556 30.888 130.777 30.7325C129.999 30.5769 129.27 30.2317 128.657 29.7275C128.044 29.2233 127.564 28.5756 127.261 27.8419C126.958 27.1081 126.84 26.3109 126.919 25.5208C126.997 24.7308 127.269 23.9723 127.711 23.3125C128.153 22.6527 128.75 22.112 129.451 21.7383C130.151 21.3646 130.933 21.1694 131.727 21.1701C131.901 21.1702 132.076 21.1795 132.249 21.1981C133.154 21.2975 134.012 21.6507 134.725 22.2169C135.438 22.7832 135.976 23.5395 136.278 24.3984C136.58 25.2574 136.632 26.1842 136.43 27.0718C136.227 27.9594 135.778 28.7717 135.134 29.4151Z" fill="black"/>
<path d="M135.059 15.5451C134.9 15.4909 134.731 15.4689 134.564 15.4806C134.396 15.4922 134.232 15.5371 134.082 15.6128C133.932 15.6884 133.798 15.7932 133.689 15.9211C133.579 16.0489 133.497 16.1973 133.445 16.3575C133.394 16.5177 133.375 16.6864 133.39 16.854C133.405 17.0215 133.452 17.1845 133.531 17.3333C133.609 17.4821 133.716 17.6139 133.846 17.7208C133.976 17.8277 134.126 17.9077 134.287 17.9561C136.206 18.5683 137.843 19.8465 138.902 21.5598C139.962 23.2732 140.374 25.3088 140.064 27.2993C139.754 29.2897 138.743 31.1038 137.213 32.4141C135.683 33.7244 133.735 34.4446 131.72 34.4446C129.706 34.4446 127.758 33.7244 126.228 32.4141C124.698 31.1038 123.687 29.2897 123.377 27.2993C123.067 25.3088 123.479 23.2732 124.538 21.5598C125.598 19.8465 127.235 18.5683 129.154 17.9561C129.466 17.8474 129.723 17.621 129.871 17.3253C130.018 17.0296 130.044 16.688 129.943 16.3734C129.842 16.0589 129.622 15.7962 129.33 15.6417C129.038 15.4871 128.697 15.4528 128.38 15.5461C125.887 16.3444 123.762 18.0074 122.388 20.235C121.014 22.4625 120.481 25.1079 120.885 27.6938C121.29 30.2797 122.606 32.6358 124.595 34.337C126.584 36.0382 129.116 36.9724 131.733 36.9711C131.967 36.9711 132.2 36.9637 132.433 36.9491C134.982 36.7808 137.393 35.7283 139.249 33.9732C141.105 32.218 142.291 29.8701 142.602 27.3344C142.913 24.7986 142.329 22.2339 140.951 20.0825C139.573 17.9311 137.488 16.3278 135.055 15.5491L135.059 15.5451Z" fill="black"/>
<path d="M118.135 18.4711L116.267 15.6351C116.167 15.483 116.038 15.3525 115.886 15.2511C115.735 15.1497 115.565 15.0796 115.387 15.0447C115.208 15.0099 115.024 15.0111 114.846 15.0482C114.668 15.0854 114.499 15.1578 114.349 15.2611C113.455 15.9104 112.734 16.7703 112.252 17.7646C111.77 18.7589 111.54 19.8568 111.583 20.9611V35.7341C111.583 36.0696 111.716 36.3913 111.954 36.6286C112.191 36.8658 112.513 36.9991 112.848 36.9991H116.46C116.796 36.9991 117.117 36.8658 117.354 36.6286C117.592 36.3913 117.725 36.0696 117.725 35.7341V29.0711C117.725 28.7355 117.592 28.4136 117.354 28.1762C117.117 27.9389 116.795 27.8056 116.46 27.8056C116.124 27.8056 115.802 27.9389 115.565 28.1762C115.327 28.4136 115.194 28.7355 115.194 29.0711V34.4711H114.115V21.0841C114.115 21.0431 114.115 21.0011 114.115 20.9591V20.8591C114.115 20.8411 114.115 20.8231 114.115 20.8051C114.116 19.874 114.399 18.9651 114.927 18.1981L115.578 19.1871C115.328 19.6941 115.198 20.2518 115.197 20.8171C115.197 20.8401 115.197 20.8621 115.197 20.8851V23.1661C115.197 23.5017 115.33 23.8236 115.568 24.0609C115.805 24.2983 116.127 24.4316 116.463 24.4316C116.798 24.4316 117.12 24.2983 117.357 24.0609C117.595 23.8236 117.728 23.5017 117.728 23.1661V20.8511C117.728 20.8331 117.728 20.8151 117.728 20.7961V20.7871C117.729 20.6219 117.769 20.4594 117.846 20.3131C118.115 20.0975 118.294 19.789 118.348 19.4482C118.401 19.1073 118.325 18.7588 118.135 18.4711Z" fill="black"/>
</g>
</svg>
