<svg width="50" height="42" viewBox="0 0 50 42" fill="none" xmlns="http://www.w3.org/2000/svg">
<path d="M47.7443 8.05136H2.25569C1.0099 8.05136 0 9.06126 0 10.307V38.93C0 40.1758 1.0099 41.1857 2.25569 41.1857H47.7442C48.99 41.1857 49.9999 40.1758 49.9999 38.93V10.307C50 9.06126 48.9901 8.05136 47.7443 8.05136Z" fill="url(#paint0_linear_1351_2107)"/>
<path d="M1.44214 11.3127V37.9244C1.44214 38.7344 2.09881 39.3911 2.90881 39.3911H47.0912C47.9012 39.3911 48.5578 38.7344 48.5578 37.9244V11.3127C48.5578 10.5027 47.9012 9.84607 47.0912 9.84607H2.90881C2.09881 9.84607 1.44214 10.5027 1.44214 11.3127Z" fill="url(#paint1_linear_1351_2107)"/>
<path d="M27.1895 41.1858H47.7442C48.99 41.1858 49.9999 40.1759 49.9999 38.9301V10.307C49.9999 9.06126 48.99 8.05136 47.7442 8.05136H27.1895V41.1858Z" fill="url(#paint2_linear_1351_2107)"/>
<path d="M47.7443 8.05136H15.9804V23.8996L33.2666 41.1858H47.7443C48.9901 41.1858 50 40.1759 50 38.9301V10.307C50 9.06126 48.9901 8.05136 47.7443 8.05136Z" fill="url(#paint3_linear_1351_2107)"/>
<path d="M44.4647 12.901V36.3353C44.4647 37.0689 43.8699 37.6637 43.1363 37.6637H4.46472C3.73158 37.6637 3.13727 37.0694 3.13727 36.3363V30.2397C3.13727 29.7705 3.51756 29.3902 3.98678 29.3902C4.45599 29.3902 4.83629 29.0099 4.83629 28.5407V20.6966C4.83629 20.2273 4.45599 19.847 3.98678 19.847C3.51756 19.847 3.13727 19.4668 3.13727 18.9975V12.9019C3.13727 12.1683 3.73207 11.5735 4.4657 11.5735H43.1373C43.8704 11.5735 44.4647 12.1678 44.4647 12.901Z" fill="url(#paint4_linear_1351_2107)"/>
<path d="M43.1373 11.5738H15.9804V23.8996L29.7441 37.6633H43.1373C43.8705 37.6633 44.4649 37.0689 44.4649 36.3357V12.9015C44.4649 12.1682 43.8705 11.5738 43.1373 11.5738Z" fill="url(#paint5_linear_1351_2107)"/>
<path d="M6.44267 35.008H14.2113C14.569 35.008 14.859 35.298 14.859 35.6558C14.859 36.0135 14.569 36.3035 14.2113 36.3035H6.44267C6.08492 36.3035 5.79492 36.0135 5.79492 35.6558C5.79492 35.298 6.08492 35.008 6.44267 35.008Z" fill="#CA6E59"/>
<path d="M6.44267 32.3937H9.37924C9.73698 32.3937 10.027 32.6837 10.027 33.0415C10.027 33.3992 9.73698 33.6892 9.37924 33.6892H6.44267C6.08492 33.6892 5.79492 33.3992 5.79492 33.0415C5.79492 32.6837 6.08492 32.3937 6.44267 32.3937Z" fill="#CA6E59"/>
<path d="M11.6249 32.3937H12.359C12.7168 32.3937 13.0068 32.6837 13.0068 33.0415C13.0068 33.3992 12.7168 33.6892 12.359 33.6892H11.6249C11.2672 33.6892 10.9772 33.3992 10.9772 33.0415C10.9772 32.6837 11.2672 32.3937 11.6249 32.3937Z" fill="#CA6E59"/>
<path d="M6.44267 28.7663H41.1595C41.5173 28.7663 41.8073 29.0563 41.8073 29.414C41.8073 29.7718 41.5173 30.0618 41.1595 30.0618H6.44267C6.08492 30.0618 5.79492 29.7718 5.79492 29.414C5.79492 29.0563 6.08492 28.7663 6.44267 28.7663Z" fill="white"/>
<path d="M20.4412 28.7663H6.44267C6.08492 28.7663 5.79492 29.0563 5.79492 29.414C5.79492 29.7718 6.08492 30.0618 6.44267 30.0618H20.4412V28.7663Z" fill="url(#paint6_linear_1351_2107)"/>
<path d="M20.4901 30.9826C21.3564 30.9826 22.0587 30.2803 22.0587 29.414C22.0587 28.5477 21.3564 27.8454 20.4901 27.8454C19.6237 27.8454 18.9214 28.5477 18.9214 29.414C18.9214 30.2803 19.6237 30.9826 20.4901 30.9826Z" fill="url(#paint7_linear_1351_2107)"/>
<path d="M35.2431 32.3937H38.1797C38.5375 32.3937 38.8275 32.6837 38.8275 33.0415C38.8275 33.3992 38.5375 33.6892 38.1797 33.6892H35.2431C34.8854 33.6892 34.5954 33.3992 34.5954 33.0415C34.5953 32.6837 34.8854 32.3937 35.2431 32.3937Z" fill="#CA6E59"/>
<path d="M40.4254 32.3937H41.1595C41.5173 32.3937 41.8073 32.6837 41.8073 33.0415C41.8073 33.3992 41.5173 33.6892 41.1595 33.6892H40.4254C40.0676 33.6892 39.7776 33.3992 39.7776 33.0415C39.7776 32.6837 40.0676 32.3937 40.4254 32.3937Z" fill="#CA6E59"/>
<path d="M33.3039 9.19293L21.776 1.5846C18.7103 -0.438733 14.625 1.75989 14.625 5.43303V20.6499C14.625 24.323 18.7103 26.5217 21.776 24.4983L33.3039 16.8898C36.0653 15.0672 36.0653 11.0156 33.3039 9.19293Z" fill="url(#paint8_linear_1351_2107)"/>
<path d="M33.3039 9.19293L28.8944 6.28264L14.6251 15.7004V20.6497C14.6251 24.3228 18.7104 26.5215 21.7761 24.4981L33.3039 16.8898C36.0653 15.0672 36.0653 11.0156 33.3039 9.19293Z" fill="url(#paint9_linear_1351_2107)"/>
<defs>
<linearGradient id="paint0_linear_1351_2107" x1="9.84128" y1="9.45989" x2="39.399" y2="39.0175" gradientUnits="userSpaceOnUse">
<stop stop-color="#5A5A5A"/>
<stop offset="1" stop-color="#444444"/>
</linearGradient>
<linearGradient id="paint1_linear_1351_2107" x1="37.1194" y1="36.7379" x2="10.9108" y2="10.5293" gradientUnits="userSpaceOnUse">
<stop stop-color="#5A5A5A"/>
<stop offset="1" stop-color="#444444"/>
</linearGradient>
<linearGradient id="paint2_linear_1351_2107" x1="41.9302" y1="24.6186" x2="49.4651" y2="24.6186" gradientUnits="userSpaceOnUse">
<stop stop-color="#433F43" stop-opacity="0"/>
<stop offset="1" stop-color="#1A1A1A"/>
</linearGradient>
<linearGradient id="paint3_linear_1351_2107" x1="34.9268" y1="20.4188" x2="29.8287" y2="10.9417" gradientUnits="userSpaceOnUse">
<stop stop-color="#433F43" stop-opacity="0"/>
<stop offset="1" stop-color="#1A1A1A"/>
</linearGradient>
<linearGradient id="paint4_linear_1351_2107" x1="13.8004" y1="14.618" x2="33.1612" y2="33.9788" gradientUnits="userSpaceOnUse">
<stop stop-color="#FFEEE6"/>
<stop offset="1" stop-color="#FFC4C8"/>
</linearGradient>
<linearGradient id="paint5_linear_1351_2107" x1="36.7901" y1="25.5193" x2="27.1823" y2="14.735" gradientUnits="userSpaceOnUse">
<stop stop-color="#FE99A0" stop-opacity="0"/>
<stop offset="1" stop-color="#FD8087"/>
</linearGradient>
<linearGradient id="paint6_linear_1351_2107" x1="11.5271" y1="25.0763" x2="14.3212" y2="32.2331" gradientUnits="userSpaceOnUse">
<stop stop-color="#7BACDF" stop-opacity="0"/>
<stop offset="1" stop-color="#7BACDF"/>
</linearGradient>
<linearGradient id="paint7_linear_1351_2107" x1="19.3424" y1="28.2663" x2="21.7278" y2="30.6517" gradientUnits="userSpaceOnUse">
<stop stop-color="#AEFFD1"/>
<stop offset="0.1201" stop-color="#A3F9CB"/>
<stop offset="0.3288" stop-color="#87EAB9"/>
<stop offset="0.6012" stop-color="#59D19D"/>
<stop offset="0.9235" stop-color="#19AF77"/>
<stop offset="1" stop-color="#09A76D"/>
</linearGradient>
<linearGradient id="paint8_linear_1351_2107" x1="16.4025" y1="8.24882" x2="30.6149" y2="22.4613" gradientUnits="userSpaceOnUse">
<stop stop-color="#FE860A"/>
<stop offset="0.2435" stop-color="#FB7C0E"/>
<stop offset="0.6648" stop-color="#F55F19"/>
<stop offset="1" stop-color="#EF4424"/>
</linearGradient>
<linearGradient id="paint9_linear_1351_2107" x1="25.9742" y1="18.2588" x2="27.8697" y2="21.0039" gradientUnits="userSpaceOnUse">
<stop stop-color="#CA2E43" stop-opacity="0"/>
<stop offset="0.7782" stop-color="#C30C47" stop-opacity="0.778"/>
<stop offset="1" stop-color="#C00148"/>
</linearGradient>
</defs>
</svg>
