<svg width="1280" height="304" viewBox="0 0 1280 304" fill="none" xmlns="http://www.w3.org/2000/svg">
<g clip-path="url(#clip0_3181_110716)">
<path d="M0.0117188 1001.54C139.379 925.416 319.244 738.749 503.329 547.691C569.48 479.032 636.167 409.815 701.727 344.956C962.301 87.1532 1204.85 -101.674 1323.73 87.9015C1780.5 816.285 2048.29 997.936 2203.99 977.312V977.743C2048.15 998.324 1780.24 816.578 1323.46 88.1758C1204.76 -101.113 962.364 87.6423 701.943 345.299C636.398 410.145 569.705 479.366 503.554 548.03C319.407 739.155 139.474 925.888 0.0117188 1002V1001.54Z" fill="url(#paint0_linear_3181_110716)"/>
<path d="M0.0117188 973.447C137.365 900.218 313.336 722.67 493.725 540.647C821.183 210.227 1163.17 -134.853 1315.38 102.748C1779.87 839.63 2048.97 995.198 2203.99 954.395V954.937C2048.84 995.68 1779.63 839.947 1315.1 103.017C1163.12 -134.24 821.274 210.701 493.945 540.988C313.49 723.075 137.457 900.687 0.0117188 973.905V973.446" fill="url(#paint1_linear_3181_110716)"/>
<path d="M0.0117188 945.42C135.339 875.123 307.45 706.522 484.177 533.373C809.972 214.176 1151.39 -120.325 1307.02 117.594C1779.01 862.347 2049.52 989.913 2203.99 929.251V929.78C2049.4 990.389 1778.77 862.66 1306.75 117.868C1151.33 -119.72 810.054 214.649 484.388 533.719C307.602 706.928 135.428 875.59 0.0117188 945.879V945.42Z" fill="url(#paint2_linear_3181_110716)"/>
<path d="M0.0117188 917.532C133.294 850.188 301.603 690.302 474.678 525.878C798.785 217.969 1139.59 -105.795 1298.66 132.441C1778.05 884.652 2049.93 981.659 2203.98 901.526V902.06C2049.81 982.135 1777.79 884.957 1298.39 132.72C1139.53 -105.199 798.865 218.437 474.881 526.221C301.75 690.713 133.381 850.65 0.0117188 917.991V917.532Z" fill="url(#paint3_linear_3181_110716)"/>
<path d="M0.0117188 889.717C131.237 825.352 295.777 674.026 465.235 518.153C787.628 221.609 1127.77 -91.2684 1290.3 147.287C1776.81 906.23 2050.17 970.48 2203.99 871.72V872.213C2050.02 970.907 1776.51 906.467 1290.04 147.568C1127.71 -90.6682 787.703 222.08 465.438 518.507C295.922 674.432 131.323 825.815 0.0117188 890.176V889.717Z" fill="url(#paint4_linear_3181_110716)"/>
<path d="M0.0117188 862.024C129.165 800.656 289.981 657.684 455.837 510.211C776.494 225.097 1115.94 -76.7247 1281.94 162.131C1775.25 927.025 2050.18 956.113 2203.98 839.818V840.333C2050.02 956.566 1774.94 927.244 1281.68 162.412C1115.87 -76.146 776.565 225.555 456.036 510.56C290.121 658.093 129.246 801.118 0.0117188 862.481V862.022" fill="url(#paint5_linear_3181_110716)"/>
<path d="M0.0117188 834.464C127.073 776.107 284.214 641.285 446.489 502.045C765.376 228.426 1104.08 -62.1911 1273.59 176.976V176.985C1773.36 947.013 2049.95 938.497 2203.98 806.092V806.619C2049.79 938.972 1773.06 947.229 1273.32 177.266C1104.02 -61.6123 765.448 228.887 446.679 502.406C284.347 641.695 127.153 776.569 0.0117188 834.919V834.459" fill="url(#paint6_linear_3181_110716)"/>
<path d="M0.0117188 806.977C124.971 751.657 278.461 624.837 437.179 493.669C754.291 231.613 1092.21 -47.6493 1265.23 191.825V191.834C1771 965.967 2049.44 917.646 2203.99 770.964V771.514C2049.28 918.157 1770.69 966.169 1264.97 192.12C1092.15 -47.0766 754.362 232.072 437.371 494.035C278.594 625.247 125.048 752.117 0.0117188 807.432V806.973" fill="url(#paint7_linear_3181_110716)"/>
<path d="M0.0117188 779.642C122.849 727.368 272.736 608.328 427.912 485.076C743.218 234.639 1080.32 -33.1124 1256.87 206.671L1256.88 206.68C1768.15 983.836 2048.63 893.504 2203.99 734.689V735.254C2048.46 894.05 1767.83 984.043 1256.61 206.961C1080.25 -32.5397 743.28 235.107 428.098 485.443C272.868 608.741 122.923 727.827 0.0117188 780.096V779.636" fill="url(#paint8_linear_3181_110716)"/>
<path d="M0.0117188 752.416C120.711 703.198 267.027 591.777 418.681 476.275C732.158 237.523 1068.41 -18.5683 1248.51 221.518L1248.52 221.532C1757.51 989.638 2039.58 869.716 2197.4 704.723C2199.62 702.404 2201.81 700.075 2203.99 697.736V698.31C2201.89 700.567 2199.77 702.815 2197.63 705.054C2039.69 870.167 1757.44 990.213 1248.26 221.815C1068.35 -18.0164 732.225 237.983 418.861 476.65C267.152 592.189 120.784 703.655 0.0117188 752.869V752.409" fill="url(#paint9_linear_3181_110716)"/>
<path d="M0.0117188 725.319C118.557 679.163 261.333 575.173 409.483 467.26C721.116 240.251 1056.48 -4.03694 1240.16 236.363L1240.17 236.376C1760.56 1015.77 2045.97 835.642 2203.99 660.381V660.971C2045.83 836.266 1760.27 1016.02 1239.9 236.661C1056.41 -3.48019 721.178 240.712 409.657 467.639C261.455 575.595 118.627 679.617 0.0117188 725.769V725.319Z" fill="url(#paint10_linear_3181_110716)"/>
<path d="M0.0117188 698.365C116.383 655.282 255.657 558.532 400.313 458.039C710.087 242.834 1044.52 10.4952 1231.8 251.209L1231.81 251.223C1755.73 1029.69 2044.11 802.115 2203.99 623.09V623.676C2043.97 802.771 1755.45 1029.96 1231.54 251.51C1044.45 11.0473 710.141 243.298 400.482 458.423C255.774 558.951 116.45 655.73 0.0117188 698.819V698.36" fill="url(#paint11_linear_3181_110716)"/>
<path d="M0.0117188 671.528C114.192 631.507 249.985 541.846 391.169 448.605C699.069 245.261 1032.55 25.0288 1223.44 266.054L1223.45 266.067C1750.15 1042.17 2041.88 765.716 2203.99 586.202V586.788C2041.75 766.408 1749.88 1042.43 1223.19 266.357C1032.48 25.5639 699.12 245.722 391.334 448.988C250.097 542.269 114.257 631.962 0.0117188 671.978V671.528Z" fill="url(#paint12_linear_3181_110716)"/>
<path d="M0.0117188 644.861C111.979 607.913 244.328 525.119 382.044 438.97C688.049 247.546 1020.54 39.5521 1215.08 280.903L1215.09 280.916C1740.03 1047.67 2035.13 731.18 2200.5 553.822L2203.99 550.088V550.662L2200.73 554.153C2035.26 731.618 1739.99 1048.28 1214.84 281.209C1020.47 40.0837 688.098 248.008 382.2 439.36C244.436 525.541 112.04 608.362 0.0117188 645.309V644.861Z" fill="url(#paint13_linear_3181_110716)"/>
<path d="M0.0117188 618.298C109.751 584.414 238.668 508.355 372.936 429.123C677.037 249.671 1008.51 54.0688 1206.73 295.748L1206.74 295.762C1710.81 1025.29 2006.7 719.049 2178.65 541.082C2187.41 532.013 2195.85 523.278 2203.99 515.024V515.588C2195.92 523.769 2187.55 532.431 2178.87 541.416C2006.83 719.478 1710.78 1025.89 1206.48 296.051C1008.44 54.5967 677.077 250.133 373.08 429.522C238.77 508.787 109.808 584.868 0.0117188 618.757V618.308" fill="url(#paint14_linear_3181_110716)"/>
<path d="M0.0103311 591.924C107.492 561.095 233.013 491.555 363.835 419.076C666.016 251.653 996.458 68.5782 1198.37 310.599L1198.38 310.608C1682.39 1004.32 1978.4 706.918 2156.36 528.136C2173.28 511.134 2189.13 495.208 2203.98 481.301V481.844C2189.19 495.698 2173.41 511.553 2156.57 528.471C1978.52 707.354 1682.34 1004.92 1198.12 310.909C996.373 69.0971 666.046 252.109 363.966 419.476C233.105 491.978 107.538 561.54 0 592.373V591.923" fill="url(#paint15_linear_3181_110716)"/>
<path d="M0.0117188 565.685C105.217 537.893 227.352 474.722 354.74 408.814C654.993 253.479 984.372 83.0749 1190.01 325.442L1190.02 325.456C1654.69 984.66 1950.25 694.882 2133.67 515.046C2159.23 489.983 2182.61 467.057 2203.98 449.125V449.65C2182.68 467.55 2159.36 490.4 2133.88 515.39C1950.36 695.323 1654.65 985.251 1189.77 325.756C984.295 83.5833 655.019 253.933 354.869 409.217C227.443 475.146 105.269 538.338 0.0117188 566.13V565.685Z" fill="url(#paint16_linear_3181_110716)"/>
<path d="M0.0117188 539.621C102.912 514.853 221.686 457.849 345.645 398.348C643.961 255.15 972.256 97.5617 1181.66 340.29L1181.67 340.299C1627.67 966.184 1922.22 683.007 2110.59 501.907C2145.21 468.618 2176.25 438.785 2203.99 418.659V419.162C2176.32 439.271 2145.34 469.047 2110.8 502.256C1922.33 683.454 1627.63 966.775 1181.42 340.603C972.171 98.069 643.985 255.609 345.76 398.757C221.771 458.278 102.961 515.297 0.0117188 540.067V539.621Z" fill="url(#paint17_linear_3181_110716)"/>
<path d="M0.0117188 513.716C100.583 491.953 216.001 440.939 336.528 387.67C632.9 256.666 960.098 112.036 1173.3 355.14L1173.31 355.149C1601.24 948.825 1894.28 671.371 2087.12 488.794C2131.15 447.099 2169.97 410.354 2203.98 390.037V390.523C2170.04 410.84 2131.29 447.522 2087.33 489.142C1894.39 671.816 1601.2 949.41 1173.06 355.458C960.009 112.533 632.919 257.117 336.639 388.08C216.08 441.368 100.628 492.39 0.0117188 514.156V513.712" fill="url(#paint18_linear_3181_110716)"/>
<path d="M0.0117188 487.983C98.2206 469.196 210.301 423.998 327.394 376.766C621.821 258.007 947.906 126.478 1164.94 369.977L1164.95 369.991C1575.38 932.484 1866.46 659.998 2063.29 475.751C2117.04 425.438 2163.76 381.707 2203.98 363.317V363.785C2163.84 382.178 2117.17 425.857 2063.5 476.103C1866.57 660.443 1575.34 933.071 1164.7 370.294C947.816 126.972 621.83 258.456 327.497 377.175C210.374 424.428 98.2631 469.639 0.0117188 488.431V487.985" fill="url(#paint19_linear_3181_110716)"/>
<path d="M0.0117188 462.428C95.8283 446.587 204.568 407.019 318.224 365.652C610.702 259.196 935.665 140.913 1156.58 384.822L1156.59 384.836C1550.04 917.126 1838.74 648.968 2039.1 462.866C2102.81 403.694 2157.58 352.821 2203.98 338.562V339.012C2157.67 353.28 2102.94 404.107 2039.31 463.215C1838.85 649.413 1550 917.705 1156.35 385.147C935.575 141.395 610.709 259.64 318.318 366.064C204.636 407.449 95.8616 447.028 0.0117188 462.87V462.428Z" fill="url(#paint20_linear_3181_110716)"/>
<path d="M0.0117188 437.075C93.3959 424.142 198.806 390.003 309.01 354.311C599.544 260.209 923.38 155.318 1148.22 399.677L1148.23 399.686V399.695C1525.19 902.686 1811.11 638.31 2014.56 450.198C2088.42 381.904 2151.41 323.667 2203.98 315.778V316.219C2151.51 324.114 2088.56 382.307 2014.76 450.548C1811.21 638.758 1525.15 903.266 1147.98 400.001C923.283 155.801 599.541 260.656 309.095 354.732C198.865 390.432 93.4315 424.582 0.0117188 437.516V437.075Z" fill="url(#paint21_linear_3181_110716)"/>
<path d="M0.0117188 411.892C90.9257 401.824 192.99 372.944 299.729 342.727C588.319 261.035 911.034 169.684 1139.86 414.519L1139.87 414.529V414.537C1500.79 889.101 1783.56 628.047 1989.67 437.772C2070.6 363.052 2139.73 299.238 2197.16 295.117C2199.45 294.954 2201.72 294.918 2203.97 294.945V295.386C2201.72 295.355 2199.46 295.386 2197.17 295.553C2139.85 299.666 2070.76 363.445 1989.86 438.123C1783.65 628.493 1500.74 889.678 1139.62 414.844C910.923 170.16 588.302 261.485 299.792 343.153C193.044 373.376 90.9578 402.266 0.0117188 412.329V411.893" fill="url(#paint22_linear_3181_110716)"/>
<path d="M0.0117188 386.926C88.4072 379.673 187.12 355.836 290.375 330.908C577.034 261.682 898.634 184.023 1131.51 429.369L1131.52 429.382C1476.82 876.335 1756.09 618.227 1964.43 425.671C2049.43 347.112 2122.63 279.458 2183.74 274.981C2190.5 274.46 2197.3 274.793 2203.98 275.973V276.419C2197.31 275.234 2190.52 274.898 2183.76 275.418C2122.76 279.888 2049.59 347.506 1964.64 426.022C1756.2 618.676 1476.79 876.911 1131.28 429.696C898.53 184.481 577.018 262.123 290.443 331.329C187.169 356.272 88.4347 380.111 0.0117188 387.362V386.926Z" fill="url(#paint23_linear_3181_110716)"/>
<path d="M0.0117188 362.147C85.837 357.656 181.177 338.68 280.912 318.822C565.657 262.123 886.159 198.304 1123.15 444.214L1123.16 444.228C1453.26 864.361 1728.69 608.882 1938.85 413.937C2027.96 331.279 2105.34 259.501 2170.23 254.656C2181.65 253.718 2193.14 255.16 2203.98 258.892V259.351C2193.15 255.607 2181.66 254.158 2170.24 255.097C2105.46 259.937 2028.12 331.681 1939.06 414.294C1728.79 609.333 1453.23 864.937 1122.92 444.555C886.053 198.766 565.635 262.571 280.967 319.254C181.214 339.112 85.8611 358.092 0.0117188 362.583V362.147Z" fill="url(#paint24_linear_3181_110716)"/>
<path d="M0.0117188 337.596C83.2037 335.794 175.143 321.464 271.318 306.463C554.161 262.352 873.6 212.535 1114.8 459.062L1114.81 459.07C1430.09 853.131 1701.35 600.032 1912.92 402.626C2006.2 315.596 2087.87 239.383 2156.66 234.154C2173 232.726 2189.42 235.98 2203.98 243.535V244.002C2189.43 236.431 2173.02 233.167 2156.68 234.595C2088 239.813 2006.36 315.988 1913.13 402.974C1701.46 600.481 1430.06 853.704 1114.57 459.388C873.49 212.992 554.134 262.798 271.36 306.899C175.174 321.9 83.2232 336.235 0.0117188 338.032V337.596Z" fill="url(#paint25_linear_3181_110716)"/>
<path d="M0.0117188 313.268C80.4981 314.071 168.993 304.169 261.555 293.806C542.537 262.347 860.941 226.695 1106.44 473.905V473.914C1407.27 842.635 1674.05 591.72 1886.63 391.793C1984.13 300.099 2070.22 219.121 2143.02 213.501C2164.64 211.595 2186.24 217.411 2203.97 229.916V230.414C2186.26 217.874 2164.66 212.036 2143.03 213.942C2070.35 219.558 1984.29 300.494 1886.84 392.147C1674.16 592.175 1407.24 843.206 1106.21 474.239C860.831 227.148 542.498 262.787 261.584 294.243C169.016 304.607 80.513 314.515 0.0117188 313.7V313.264" fill="url(#paint26_linear_3181_110716)"/>
<path d="M0.0089604 289.16C77.7048 292.489 162.697 286.79 251.575 280.825C530.729 262.083 848.164 240.774 1098.08 488.752L1098.09 488.761C1384.81 832.842 1646.82 583.979 1859.99 381.494C1961.77 284.832 2052.41 198.738 2129.35 192.702C2155.9 190.622 2180.81 198.088 2203.98 217.93V218.449C2180.82 198.552 2155.92 191.058 2129.37 193.14C2052.54 199.165 1961.93 285.228 1860.21 381.855C1646.93 584.434 1384.79 833.421 1097.86 489.089C848.044 241.223 530.677 262.526 251.593 281.264C162.71 287.233 77.7151 292.933 0.0078125 289.599V289.163" fill="url(#paint27_linear_3181_110716)"/>
<path d="M0.00918323 265.297C74.8088 271.036 156.223 269.303 241.328 267.478C518.705 261.531 835.253 254.747 1089.72 503.601V503.609C1362.67 823.733 1619.62 576.826 1832.98 371.79C1939.08 269.839 2034.41 178.228 2115.63 171.77C2147.3 169.254 2176.81 179.691 2203.97 207.487V208.03C2176.82 180.154 2147.31 169.69 2115.65 172.207C2034.54 178.66 1939.25 270.226 1833.19 372.139C1619.72 577.275 1362.66 824.298 1089.49 503.934C835.12 255.183 518.638 261.97 241.325 267.912C156.219 269.737 74.8065 271.47 0 265.73V265.29" fill="url(#paint28_linear_3181_110716)"/>
<path d="M0.0117188 241.684C71.7889 249.72 149.521 251.671 230.74 253.718C506.405 260.652 822.172 268.599 1081.37 518.446L1081.38 518.46C1340.88 815.292 1592.47 570.306 1805.63 362.74C1916.11 255.156 2016.27 157.621 2101.91 150.722C2138.75 147.756 2172.88 161.605 2203.99 198.576V199.15C2172.89 162.078 2138.77 148.183 2101.93 151.161C2016.4 158.048 1916.27 255.546 1805.84 363.087C1592.57 570.754 1340.86 815.862 1081.15 518.793C822.045 269.034 506.344 261.088 230.733 254.157C149.524 252.112 71.7947 250.156 0.0151625 242.128V241.688" fill="url(#paint29_linear_3181_110716)"/>
<path d="M0.0117188 218.326C68.6081 228.489 142.52 233.86 219.693 239.47C493.738 259.38 808.866 282.28 1073.01 533.291L1073.02 533.305C1319.37 807.501 1565.32 564.437 1777.86 354.395C1892.78 240.824 1997.94 136.906 2088.15 129.549C2130.2 126.12 2168.98 143.712 2203.99 191.001V191.618C2168.99 144.202 2130.21 126.558 2088.18 129.987C1998.06 137.333 1892.95 241.213 1778.08 354.738C1565.44 564.883 1319.36 808.061 1072.8 533.643C808.742 282.712 493.671 259.812 219.683 239.906C142.519 234.3 68.6184 228.927 0.020902 218.767V218.326" fill="url(#paint30_linear_3181_110716)"/>
<path d="M0.0117188 195.237C65.2241 207.341 135.13 215.813 208.059 224.642C480.597 257.64 795.289 295.747 1064.66 548.141L1064.66 548.15C1298.16 800.355 1538.21 559.263 1749.71 346.83C1869.11 226.904 1979.43 116.109 2074.39 108.273C2121.66 104.37 2165.12 126.01 2203.99 184.701V185.346C2165.13 126.5 2121.68 104.808 2074.41 108.709C1979.56 116.538 1869.29 227.287 1749.93 347.17C1538.32 559.708 1298.16 800.915 1064.44 548.49C795.154 296.169 480.519 258.071 208.027 225.079C135.112 216.249 65.2126 207.777 0.0117188 195.677V195.237Z" fill="url(#paint31_linear_3181_110716)"/>
<path d="M0.0117188 172.421C61.5749 186.244 127.226 197.436 195.636 209.094C466.826 255.322 781.347 308.931 1056.3 562.987L1056.31 562.996C1277.24 793.84 1511.1 554.815 1721.15 340.112C1845.08 213.441 1960.73 95.2325 2060.62 86.8976C2113.15 82.516 2161.3 108.585 2203.99 179.72V180.409C2161.31 109.089 2113.17 82.9523 2060.65 87.3362C1960.87 95.6585 1845.26 213.822 1721.38 340.449C1511.22 555.257 1277.25 794.402 1056.1 563.336C781.21 309.353 466.739 255.746 195.59 209.532C127.199 197.873 61.5634 186.68 0.0117188 172.868V172.421Z" fill="url(#paint32_linear_3181_110716)"/>
<path d="M0 149.959C57.5547 165.189 118.603 178.669 182.122 192.689C452.175 252.313 766.907 321.789 1047.93 577.892V577.901C1256.58 788.024 1483.97 551.197 1692.15 334.383C1820.65 200.549 1941.83 74.3452 2046.83 65.4938C2104.62 60.6232 2157.5 91.3778 2203.97 175.922V176.639C2157.51 91.8828 2104.65 61.0548 2046.85 65.9253C1941.97 74.7642 1820.83 200.931 1692.38 334.714C1484.1 551.633 1256.6 788.577 1047.72 578.238C766.768 322.192 452.08 252.725 182.06 193.116C118.566 179.101 57.5386 165.63 0 150.403V149.959Z" fill="url(#paint33_linear_3181_110716)"/>
<path d="M0.0117188 127.677C53.0598 143.92 109.005 159.141 167.107 174.943C436.331 248.179 751.818 333.991 1039.58 592.681C1236.22 782.712 1456.88 548.267 1662.74 329.544C1795.84 188.122 1922.76 53.2766 2033.06 43.8867C2096.13 38.5226 2153.76 74.1695 2203.99 173.04V173.794C2153.78 74.686 2096.16 38.96 2033.09 44.3242C1922.89 53.6991 1796.02 188.508 1662.97 329.879C1457.01 548.712 1236.24 783.272 1039.38 593.033C751.673 334.4 436.225 248.595 167.032 175.37C108.959 159.577 53.0448 144.365 0.0117188 128.127V127.677Z" fill="url(#paint34_linear_3181_110716)"/>
<path d="M0.0117188 105.769C47.8219 122.467 97.9279 138.714 149.841 155.534C418.672 242.676 735.725 345.45 1031.22 607.526C1216.12 778.096 1429.76 546.26 1632.84 325.867C1770.57 176.41 1903.45 32.2091 2019.29 22.2648C2087.64 16.3933 2150.04 57.3082 2203.98 171.378V172.181C2150.05 57.835 2087.66 16.8238 2019.31 22.6942C1903.59 32.6293 1770.75 176.783 1633.07 326.2C1429.88 546.698 1216.13 778.653 1031.01 607.876C735.562 345.846 418.546 243.082 149.747 155.946C97.8774 139.141 47.7966 122.907 0.0117188 106.224V105.765" fill="url(#paint35_linear_3181_110716)"/>
<path d="M0.0117188 84.1816C41.451 100.5 84.5881 116.766 129.112 133.56C398.211 235.034 718.101 355.671 1022.87 622.375C1196.28 774.118 1402.62 545.161 1602.47 323.406C1744.84 165.429 1883.93 11.1025 2005.54 0.571634C2079.16 -5.80726 2146.36 40.5865 2203.99 170.683V171.524C2146.37 41.1328 2079.19 -5.36747 2005.56 1.00798C1884.07 11.5297 1745.03 165.804 1602.7 323.732C1402.75 545.601 1196.3 774.673 1022.67 622.731C717.943 356.073 398.086 235.449 129.012 133.979C84.5249 117.202 41.4258 100.941 0.0117188 84.6407V84.1816Z" fill="url(#paint36_linear_3181_110716)"/>
</g>
<defs>
<linearGradient id="paint0_linear_3181_110716" x1="-33.0479" y1="-146.736" x2="827.682" y2="1493.82" gradientUnits="userSpaceOnUse">
<stop stop-color="#F09819"/>
<stop offset="1" stop-color="#FF512F"/>
</linearGradient>
<linearGradient id="paint1_linear_3181_110716" x1="-33.0479" y1="-127.029" x2="771.693" y2="1473.41" gradientUnits="userSpaceOnUse">
<stop stop-color="#F09819"/>
<stop offset="1" stop-color="#FF512F"/>
</linearGradient>
<linearGradient id="paint2_linear_3181_110716" x1="-33.0479" y1="-107.435" x2="716.383" y2="1450.38" gradientUnits="userSpaceOnUse">
<stop stop-color="#F09819"/>
<stop offset="1" stop-color="#FF512F"/>
</linearGradient>
<linearGradient id="paint3_linear_3181_110716" x1="-33.0479" y1="-89.1352" x2="671.662" y2="1431.88" gradientUnits="userSpaceOnUse">
<stop stop-color="#F09819"/>
<stop offset="1" stop-color="#FF512F"/>
</linearGradient>
<linearGradient id="paint4_linear_3181_110716" x1="-33.0479" y1="-71.4871" x2="631.925" y2="1414.94" gradientUnits="userSpaceOnUse">
<stop stop-color="#F09819"/>
<stop offset="1" stop-color="#FF512F"/>
</linearGradient>
<linearGradient id="paint5_linear_3181_110716" x1="-33.0478" y1="-54.024" x2="593.285" y2="1396.93" gradientUnits="userSpaceOnUse">
<stop stop-color="#F09819"/>
<stop offset="1" stop-color="#FF512F"/>
</linearGradient>
<linearGradient id="paint6_linear_3181_110716" x1="-33.0479" y1="-36.7697" x2="555.795" y2="1377.92" gradientUnits="userSpaceOnUse">
<stop stop-color="#F09819"/>
<stop offset="1" stop-color="#FF512F"/>
</linearGradient>
<linearGradient id="paint7_linear_3181_110716" x1="-33.0479" y1="-19.7365" x2="519.598" y2="1358.06" gradientUnits="userSpaceOnUse">
<stop stop-color="#F09819"/>
<stop offset="1" stop-color="#FF512F"/>
</linearGradient>
<linearGradient id="paint8_linear_3181_110716" x1="-33.0479" y1="-2.9488" x2="484.723" y2="1337.42" gradientUnits="userSpaceOnUse">
<stop stop-color="#F09819"/>
<stop offset="1" stop-color="#FF512F"/>
</linearGradient>
<linearGradient id="paint9_linear_3181_110716" x1="-33.0479" y1="13.5807" x2="451.253" y2="1316.14" gradientUnits="userSpaceOnUse">
<stop stop-color="#F09819"/>
<stop offset="1" stop-color="#FF512F"/>
</linearGradient>
<linearGradient id="paint10_linear_3181_110716" x1="-33.0479" y1="29.8162" x2="419.256" y2="1294.35" gradientUnits="userSpaceOnUse">
<stop stop-color="#F09819"/>
<stop offset="1" stop-color="#FF512F"/>
</linearGradient>
<linearGradient id="paint11_linear_3181_110716" x1="-33.0479" y1="45.7455" x2="388.759" y2="1272.16" gradientUnits="userSpaceOnUse">
<stop stop-color="#F09819"/>
<stop offset="1" stop-color="#FF512F"/>
</linearGradient>
<linearGradient id="paint12_linear_3181_110716" x1="-33.048" y1="61.3356" x2="359.816" y2="1249.72" gradientUnits="userSpaceOnUse">
<stop stop-color="#F09819"/>
<stop offset="1" stop-color="#FF512F"/>
</linearGradient>
<linearGradient id="paint13_linear_3181_110716" x1="-33.0479" y1="76.5566" x2="332.453" y2="1227.16" gradientUnits="userSpaceOnUse">
<stop stop-color="#F09819"/>
<stop offset="1" stop-color="#FF512F"/>
</linearGradient>
<linearGradient id="paint14_linear_3181_110716" x1="-33.0479" y1="91.365" x2="306.716" y2="1204.65" gradientUnits="userSpaceOnUse">
<stop stop-color="#F09819"/>
<stop offset="1" stop-color="#FF512F"/>
</linearGradient>
<linearGradient id="paint15_linear_3181_110716" x1="-33.0597" y1="105.725" x2="282.619" y2="1182.37" gradientUnits="userSpaceOnUse">
<stop stop-color="#F09819"/>
<stop offset="1" stop-color="#FF512F"/>
</linearGradient>
<linearGradient id="paint16_linear_3181_110716" x1="-33.0478" y1="119.581" x2="260.208" y2="1160.44" gradientUnits="userSpaceOnUse">
<stop stop-color="#F09819"/>
<stop offset="1" stop-color="#FF512F"/>
</linearGradient>
<linearGradient id="paint17_linear_3181_110716" x1="-33.048" y1="132.884" x2="239.449" y2="1139.05" gradientUnits="userSpaceOnUse">
<stop stop-color="#F09819"/>
<stop offset="1" stop-color="#FF512F"/>
</linearGradient>
<linearGradient id="paint18_linear_3181_110716" x1="-33.0478" y1="145.564" x2="220.374" y2="1118.36" gradientUnits="userSpaceOnUse">
<stop stop-color="#F09819"/>
<stop offset="1" stop-color="#FF512F"/>
</linearGradient>
<linearGradient id="paint19_linear_3181_110716" x1="-33.0479" y1="157.527" x2="202.983" y2="1098.53" gradientUnits="userSpaceOnUse">
<stop stop-color="#F09819"/>
<stop offset="1" stop-color="#FF512F"/>
</linearGradient>
<linearGradient id="paint20_linear_3181_110716" x1="-33.0479" y1="168.699" x2="187.287" y2="1079.78" gradientUnits="userSpaceOnUse">
<stop stop-color="#F09819"/>
<stop offset="1" stop-color="#FF512F"/>
</linearGradient>
<linearGradient id="paint21_linear_3181_110716" x1="-33.0478" y1="178.948" x2="173.314" y2="1062.3" gradientUnits="userSpaceOnUse">
<stop stop-color="#F09819"/>
<stop offset="1" stop-color="#FF512F"/>
</linearGradient>
<linearGradient id="paint22_linear_3181_110716" x1="-33.0477" y1="188.119" x2="161.077" y2="1046.26" gradientUnits="userSpaceOnUse">
<stop stop-color="#F09819"/>
<stop offset="1" stop-color="#FF512F"/>
</linearGradient>
<linearGradient id="paint23_linear_3181_110716" x1="-33.0479" y1="196.04" x2="150.627" y2="1031.92" gradientUnits="userSpaceOnUse">
<stop stop-color="#F09819"/>
<stop offset="1" stop-color="#FF512F"/>
</linearGradient>
<linearGradient id="paint24_linear_3181_110716" x1="-33.0478" y1="188.025" x2="152.489" y2="1027.92" gradientUnits="userSpaceOnUse">
<stop stop-color="#F09819"/>
<stop offset="1" stop-color="#FF512F"/>
</linearGradient>
<linearGradient id="paint25_linear_3181_110716" x1="-33.0479" y1="164.95" x2="166.15" y2="1033.65" gradientUnits="userSpaceOnUse">
<stop stop-color="#F09819"/>
<stop offset="1" stop-color="#FF512F"/>
</linearGradient>
<linearGradient id="paint26_linear_3181_110716" x1="-33.0477" y1="141.595" x2="181.078" y2="1040.48" gradientUnits="userSpaceOnUse">
<stop stop-color="#F09819"/>
<stop offset="1" stop-color="#FF512F"/>
</linearGradient>
<linearGradient id="paint27_linear_3181_110716" x1="-33.0518" y1="117.991" x2="197.31" y2="1048.33" gradientUnits="userSpaceOnUse">
<stop stop-color="#F09819"/>
<stop offset="1" stop-color="#FF512F"/>
</linearGradient>
<linearGradient id="paint28_linear_3181_110716" x1="-33.0596" y1="94.0496" x2="214.978" y2="1057.15" gradientUnits="userSpaceOnUse">
<stop stop-color="#F09819"/>
<stop offset="1" stop-color="#FF512F"/>
</linearGradient>
<linearGradient id="paint29_linear_3181_110716" x1="-33.048" y1="69.8371" x2="234.151" y2="1066.88" gradientUnits="userSpaceOnUse">
<stop stop-color="#F09819"/>
<stop offset="1" stop-color="#FF512F"/>
</linearGradient>
<linearGradient id="paint30_linear_3181_110716" x1="-33.0479" y1="45.343" x2="254.858" y2="1077.41" gradientUnits="userSpaceOnUse">
<stop stop-color="#F09819"/>
<stop offset="1" stop-color="#FF512F"/>
</linearGradient>
<linearGradient id="paint31_linear_3181_110716" x1="-33.0479" y1="20.589" x2="277.173" y2="1088.67" gradientUnits="userSpaceOnUse">
<stop stop-color="#F09819"/>
<stop offset="1" stop-color="#FF512F"/>
</linearGradient>
<linearGradient id="paint32_linear_3181_110716" x1="-33.048" y1="-4.41632" x2="301.147" y2="1100.55" gradientUnits="userSpaceOnUse">
<stop stop-color="#F09819"/>
<stop offset="1" stop-color="#FF512F"/>
</linearGradient>
<linearGradient id="paint33_linear_3181_110716" x1="-33.0596" y1="-29.6065" x2="326.825" y2="1113.01" gradientUnits="userSpaceOnUse">
<stop stop-color="#F09819"/>
<stop offset="1" stop-color="#FF512F"/>
</linearGradient>
<linearGradient id="paint34_linear_3181_110716" x1="-33.0479" y1="-55.1575" x2="354.304" y2="1125.76" gradientUnits="userSpaceOnUse">
<stop stop-color="#F09819"/>
<stop offset="1" stop-color="#FF512F"/>
</linearGradient>
<linearGradient id="paint35_linear_3181_110716" x1="-33.0478" y1="-80.877" x2="383.567" y2="1138.85" gradientUnits="userSpaceOnUse">
<stop stop-color="#F09819"/>
<stop offset="1" stop-color="#FF512F"/>
</linearGradient>
<linearGradient id="paint36_linear_3181_110716" x1="-33.0479" y1="-106.824" x2="414.677" y2="1152.1" gradientUnits="userSpaceOnUse">
<stop stop-color="#F09819"/>
<stop offset="1" stop-color="#FF512F"/>
</linearGradient>
<clipPath id="clip0_3181_110716">
<rect width="1280" height="304" fill="white"/>
</clipPath>
</defs>
</svg>
