<svg width="24" height="24" viewBox="0 0 24 24" fill="none" xmlns="http://www.w3.org/2000/svg">
<g clip-path="url(#clip0_896_10422)">
<path d="M17.5 14H19C19.5304 14 20.0391 13.7893 20.4142 13.4142C20.7893 13.0391 21 12.5304 21 12V5C21 4.46957 20.7893 3.96086 20.4142 3.58579C20.0391 3.21071 19.5304 3 19 3H12C11.4696 3 10.9609 3.21071 10.5858 3.58579C10.2107 3.96086 10 4.46957 10 5V6.5M5 21H12C12.5304 21 13.0391 20.7893 13.4142 20.4142C13.7893 20.0391 14 19.5304 14 19V12C14 11.4696 13.7893 10.9609 13.4142 10.5858C13.0391 10.2107 12.5304 10 12 10H5C4.46957 10 3.96086 10.2107 3.58579 10.5858C3.21071 10.9609 3 11.4696 3 12V19C3 19.5304 3.21071 20.0391 3.58579 20.4142C3.96086 20.7893 4.46957 21 5 21Z" stroke="white" stroke-width="2" stroke-linecap="round" stroke-linejoin="round"/>
</g>
<defs>
<clipPath id="clip0_896_10422">
<rect width="24" height="24" fill="white"/>
</clipPath>
</defs>
</svg>
