<svg width="40" height="40" viewBox="0 0 40 40" fill="none" xmlns="http://www.w3.org/2000/svg">
<path d="M25.7705 33.8252H34.1404C34.7875 33.8252 35.3122 33.3005 35.3122 32.6533C35.3122 32.0061 34.7875 31.4814 34.1404 31.4814H25.7705C25.1233 31.4814 24.5986 32.0061 24.5986 32.6533C24.5986 33.3005 25.1233 33.8252 25.7705 33.8252Z" fill="#CFDBFD"/>
<path d="M27.9736 10.6784C28.6208 10.6784 29.1455 10.1537 29.1455 9.50651V5.82104H34.1403C34.7875 5.82104 35.3122 5.29636 35.3122 4.64917C35.3122 4.00198 34.7875 3.47729 34.1403 3.47729H27.9736C27.3264 3.47729 26.8018 4.00198 26.8018 4.64917V9.50651C26.8018 10.1537 27.3264 10.6784 27.9736 10.6784Z" fill="#CFDBFD"/>
<path d="M32.958 19.7537H38.8283C39.4755 19.7537 40.0002 19.229 40.0002 18.5818C40.0002 17.9346 39.4755 17.4099 38.8283 17.4099H32.958C32.3108 17.4099 31.7861 17.9346 31.7861 18.5818C31.7861 19.229 32.3108 19.7537 32.958 19.7537Z" fill="#CFDBFD"/>
<path d="M31.2324 25.304H36.163C36.8102 25.304 37.3348 24.7793 37.3348 24.1321C37.3348 23.4849 36.8102 22.9602 36.163 22.9602H31.2324C30.5852 22.9602 30.0605 23.4849 30.0605 24.1321C30.0605 24.7793 30.5852 25.304 31.2324 25.304Z" fill="#CFDBFD"/>
<path d="M36.4843 6.77897C37.6606 6.77897 38.6142 5.82541 38.6142 4.64913C38.6142 3.47285 37.6606 2.51929 36.4843 2.51929C35.3081 2.51929 34.3545 3.47285 34.3545 4.64913C34.3545 5.82541 35.3081 6.77897 36.4843 6.77897Z" fill="#FFE370"/>
<path d="M36.4843 34.7831C37.6606 34.7831 38.6142 33.8296 38.6142 32.6533C38.6142 31.477 37.6606 30.5234 36.4843 30.5234C35.3081 30.5234 34.3545 31.477 34.3545 32.6533C34.3545 33.8296 35.3081 34.7831 36.4843 34.7831Z" fill="#FFE370"/>
<path d="M32.9688 4.64917C32.9688 2.71065 34.5459 1.13354 36.4844 1.13354C38.4229 1.13354 40 2.71065 40 4.64917C40 6.58769 38.4229 8.16479 36.4844 8.16479C34.5459 8.16479 32.9688 6.58776 32.9688 4.64917ZM35.3125 4.64917C35.3125 5.29534 35.8382 5.82104 36.4844 5.82104C37.1305 5.82104 37.6562 5.29534 37.6562 4.64917C37.6562 4.003 37.1305 3.47729 36.4844 3.47729C35.8382 3.47729 35.3125 4.003 35.3125 4.64917Z" fill="#FFB54C"/>
<path d="M32.9688 32.6533C32.9688 30.7148 34.5459 29.1377 36.4844 29.1377C38.4229 29.1377 40 30.7148 40 32.6533C40 34.5918 38.4229 36.1689 36.4844 36.1689C34.5459 36.1689 32.9688 34.5918 32.9688 32.6533ZM35.3125 32.6533C35.3125 33.2995 35.8382 33.8252 36.4844 33.8252C37.1305 33.8252 37.6562 33.2995 37.6562 32.6533C37.6562 32.0071 37.1305 31.4814 36.4844 31.4814C35.8382 31.4814 35.3125 32.0071 35.3125 32.6533Z" fill="#FFB54C"/>
<path d="M14.2292 33.8252H5.85938C5.21219 33.8252 4.6875 33.3005 4.6875 32.6533C4.6875 32.0061 5.21219 31.4814 5.85938 31.4814H14.2292C14.8764 31.4814 15.4011 32.0061 15.4011 32.6533C15.4011 33.3005 14.8764 33.8252 14.2292 33.8252Z" fill="#E8F1FD"/>
<path d="M12.026 10.6784C11.3788 10.6784 10.8541 10.1537 10.8541 9.50651V5.82104H5.85938C5.21219 5.82104 4.6875 5.29636 4.6875 4.64917C4.6875 4.00198 5.21219 3.47729 5.85938 3.47729H12.026C12.6732 3.47729 13.1979 4.00198 13.1979 4.64917V9.50651C13.1979 10.1537 12.6732 10.6784 12.026 10.6784Z" fill="#E8F1FD"/>
<path d="M7.04219 19.7537H1.17187C0.524687 19.7537 0 19.229 0 18.5818C0 17.9346 0.524687 17.4099 1.17187 17.4099H7.04219C7.68937 17.4099 8.21406 17.9346 8.21406 18.5818C8.21406 19.229 7.68937 19.7537 7.04219 19.7537Z" fill="#E8F1FD"/>
<path d="M8.76746 25.304H3.83691C3.18973 25.304 2.66504 24.7793 2.66504 24.1321C2.66504 23.4849 3.18973 22.9602 3.83691 22.9602H8.76746C9.41465 22.9602 9.93934 23.4849 9.93934 24.1321C9.93934 24.7793 9.41465 25.304 8.76746 25.304Z" fill="#E8F1FD"/>
<path d="M3.51559 6.77897C4.69187 6.77897 5.64543 5.82541 5.64543 4.64913C5.64543 3.47285 4.69187 2.51929 3.51559 2.51929C2.33931 2.51929 1.38574 3.47285 1.38574 4.64913C1.38574 5.82541 2.33931 6.77897 3.51559 6.77897Z" fill="#FFEFB2"/>
<path d="M3.51559 34.7831C4.69187 34.7831 5.64543 33.8296 5.64543 32.6533C5.64543 31.477 4.69187 30.5234 3.51559 30.5234C2.33931 30.5234 1.38574 31.477 1.38574 32.6533C1.38574 33.8296 2.33931 34.7831 3.51559 34.7831Z" fill="#FFEFB2"/>
<path d="M3.51562 8.16479C1.57711 8.16479 0 6.58769 0 4.64917C0 2.71065 1.57711 1.13354 3.51562 1.13354C5.45414 1.13354 7.03125 2.71065 7.03125 4.64917C7.03125 6.58769 5.45414 8.16479 3.51562 8.16479ZM3.51562 3.47729C2.86945 3.47729 2.34375 4.003 2.34375 4.64917C2.34375 5.29534 2.86945 5.82104 3.51562 5.82104C4.1618 5.82104 4.6875 5.29534 4.6875 4.64917C4.6875 4.003 4.1618 3.47729 3.51562 3.47729Z" fill="#FFE370"/>
<path d="M3.51562 36.1689C1.57711 36.1689 0 34.5918 0 32.6533C0 30.7148 1.57711 29.1377 3.51562 29.1377C5.45414 29.1377 7.03125 30.7148 7.03125 32.6533C7.03125 34.5918 5.45414 36.1689 3.51562 36.1689ZM3.51562 31.4814C2.86945 31.4814 2.34375 32.0071 2.34375 32.6533C2.34375 33.2995 2.86945 33.8252 3.51562 33.8252C4.1618 33.8252 4.6875 33.2995 4.6875 32.6533C4.6875 32.0071 4.1618 31.4814 3.51562 31.4814Z" fill="#FFE370"/>
<path d="M32.5309 20.1752C31.1559 25.0838 27.8653 32.0658 19.9997 37.8299C13.7012 33.2229 9.49889 27.3252 7.49967 20.2846C6.34967 16.2338 6.28795 12.9033 6.33639 11.4252C14.4051 8.8541 18.3364 6.10801 19.9997 4.64941C21.6629 6.10801 25.5942 8.85488 33.6645 11.4252C33.7145 12.8846 33.6575 16.1518 32.5309 20.1752Z" fill="#94E671"/>
<path d="M32.5312 20.1752C31.1562 25.0838 27.8656 32.0658 20 37.8299V4.64941C21.6633 6.10801 25.5945 8.85488 33.6648 11.4252C33.7148 12.8846 33.6578 16.1518 32.5312 20.1752Z" fill="#52CC7B"/>
<path d="M20.7247 37.1295L20 36.255C14.3 32.0854 10.4961 26.7472 8.68675 20.3753C7.64613 16.7089 7.59066 13.6948 7.63441 12.3573C14.9368 10.03 18.4946 7.54482 20 6.22451L20.7247 5.50412V4.47178L20 3.37842C19.625 3.37842 19.2883 3.55811 19.068 3.86123C18.9453 4.00967 16.1133 7.31748 6.17191 10.3589C5.7266 10.4948 5.40394 10.8823 5.35081 11.3456C5.33128 11.5136 4.89457 15.5261 6.4016 20.9081C7.28441 24.0597 8.6555 27.0362 10.4766 29.7558C12.7477 33.1479 15.7258 36.1425 19.3297 38.6558C19.5313 38.7964 19.7657 38.8667 20 38.8667L20.7247 37.924V37.1295Z" fill="#52CC7B"/>
<path d="M20.6758 12.2112L19.9996 11.2495C17.2332 11.2495 14.9824 13.5003 14.9824 16.2667V18.0815C14.9824 18.7284 15.5074 19.2534 16.1543 19.2534C16.802 19.2534 17.3262 18.7284 17.3262 18.0815V16.2667C17.3262 14.7925 18.5254 13.5933 19.9996 13.5933L20.6758 12.8444V12.2112Z" fill="#404A80"/>
<path d="M33.5984 20.9081C32.7156 24.0597 31.3445 27.0362 29.5234 29.7558C27.2523 33.1479 24.2742 36.1425 20.6703 38.6558C20.4687 38.7964 20.2344 38.8667 20 38.8667V36.255C27.1188 31.0378 30.0969 24.719 31.3414 20.2761C32.3609 16.6347 32.4125 13.6776 32.3672 12.3573C25.0633 10.0308 21.5055 7.54482 20 6.22451V3.37842C20.375 3.37842 20.7117 3.55811 20.932 3.86123C21.0547 4.00967 23.8867 7.31748 33.8281 10.3589C34.2734 10.4948 34.5961 10.8823 34.6492 11.3456C34.6688 11.5136 35.1055 15.5261 33.5984 20.9081Z" fill="#3D997A"/>
<path d="M25.0172 16.2667V18.0815C25.0172 18.7284 24.4922 19.2534 23.8453 19.2534C23.1977 19.2534 22.6734 18.7284 22.6734 18.0815V16.2667C22.6734 14.7925 21.4742 13.5933 20 13.5933V11.2495C22.7664 11.2495 25.0172 13.5003 25.0172 16.2667Z" fill="#283366"/>
<path d="M21.0488 19.2531L20.0002 16.9097H15.6877C14.5096 16.9097 13.5518 17.8675 13.5518 19.0456V25.7565C13.5518 26.9347 14.5096 27.8925 15.6877 27.8925H20.0002L21.0488 25.0956V19.2531Z" fill="#FFE370"/>
<path d="M26.4484 19.0456V25.7565C26.4484 26.9347 25.4906 27.8925 24.3125 27.8925H20V16.9097H24.3125C25.4906 16.9097 26.4484 17.8675 26.4484 19.0456Z" fill="#FFB54C"/>
<path d="M21.1719 21.8315V22.9706C21.1719 23.6183 20.6469 24.1425 20 24.1425C19.3531 24.1425 18.8281 23.6183 18.8281 22.9706V21.8315C18.8281 21.1839 19.3531 20.6597 20 20.6597C20.6469 20.6597 21.1719 21.1838 21.1719 21.8315Z" fill="#404A80"/>
<path d="M21.1719 21.8315V22.9706C21.1719 23.6183 20.6469 24.1425 20 24.1425V20.6597C20.6469 20.6597 21.1719 21.1838 21.1719 21.8315Z" fill="#283366"/>
</svg>
