<svg width="24" height="24" viewBox="0 0 24 24" fill="none" xmlns="http://www.w3.org/2000/svg">
<g clip-path="url(#clip0_896_10344)">
<path d="M5.23799 6.086L12 3L18.762 6.086C19.0536 8.13267 19.0536 10.2103 18.762 12.257C17.904 16.005 15.236 17.692 12.962 19.342C12.6818 19.553 12.342 19.67 11.9913 19.6765C11.6406 19.6829 11.2968 19.5785 11.009 19.378C8.97 17.922 6.07 15.907 5.235 12.258C4.94435 10.2109 4.94536 8.13286 5.23799 6.086Z" stroke="white" stroke-width="2"/>
<path d="M12 14.25C13.7949 14.25 15.25 12.7949 15.25 11C15.25 9.20507 13.7949 7.75 12 7.75C10.2051 7.75 8.75 9.20507 8.75 11C8.75 12.7949 10.2051 14.25 12 14.25Z" stroke="white" stroke-width="1.5"/>
<path d="M11 11.2L11.857 12L13 10" stroke="white" stroke-width="1.5" stroke-linecap="round" stroke-linejoin="round"/>
</g>
<defs>
<clipPath id="clip0_896_10344">
<rect width="24" height="24" fill="white"/>
</clipPath>
</defs>
</svg>
