<svg width="52" height="52" viewBox="0 0 52 52" fill="none" xmlns="http://www.w3.org/2000/svg">
<path d="M14.1383 37.0394H13.127V14.2883H26.0933C27.0826 14.2883 27.8875 15.0932 27.8875 16.0823V21.1675H26.8762V16.0823C26.8762 15.6507 26.5249 15.2996 26.0933 15.2996H14.1383V37.0394Z" fill="#272D4F"/>
<path d="M3.17432 35.4409H25.4242V44.0668H3.17432V35.4409Z" fill="#18293D"/>
<path d="M25.715 42.9558H2.88316C2.25221 42.9558 1.74072 42.4444 1.74072 41.8134V37.6947C1.74072 37.0637 2.25221 36.5522 2.88316 36.5522H25.715C26.346 36.5522 26.8575 37.0637 26.8575 37.6947V41.8134C26.8575 42.4444 26.346 42.9558 25.715 42.9558Z" fill="#5E6D84"/>
<path d="M24.9048 38.2555V39.2934C24.9048 39.4461 24.7827 39.5743 24.6301 39.5743H23.586C23.4334 39.5743 23.3052 39.4461 23.3052 39.2934V38.2555C23.3052 38.0968 23.4334 37.9746 23.586 37.9746H24.6301C24.7827 37.9746 24.9048 38.0968 24.9048 38.2555Z" fill="white"/>
<path d="M24.9571 40.3231V41.361C24.9571 41.5137 24.835 41.642 24.6823 41.642H23.6383C23.4857 41.642 23.3574 41.5137 23.3574 41.361V40.3231C23.3574 40.1644 23.4857 40.0422 23.6383 40.0422H24.6823C24.835 40.0422 24.9571 40.1644 24.9571 40.3231Z" fill="#FEC400"/>
<path d="M22.7852 38.2555V39.2934C22.7852 39.4461 22.6631 39.5743 22.5104 39.5743H21.4664C21.3138 39.5743 21.1855 39.4461 21.1855 39.2934V38.2555C21.1855 38.0968 21.3138 37.9746 21.4664 37.9746H22.5104C22.6631 37.9746 22.7852 38.0968 22.7852 38.2555Z" fill="white"/>
<path d="M22.7852 40.2426V41.2805C22.7852 41.4331 22.6631 41.5614 22.5104 41.5614H21.4664C21.3138 41.5614 21.1855 41.4331 21.1855 41.2805V40.2426C21.1855 40.0838 21.3138 39.9617 21.4664 39.9617H22.5104C22.6631 39.9617 22.7852 40.0838 22.7852 40.2426Z" fill="white"/>
<path d="M20.6128 38.175V39.2129C20.6128 39.3655 20.4907 39.4938 20.3381 39.4938H19.2941C19.1414 39.4938 19.0132 39.3655 19.0132 39.2129V38.175C19.0132 38.0162 19.1414 37.894 19.2941 37.894H20.3381C20.4907 37.894 20.6128 38.0162 20.6128 38.175Z" fill="#FEC400"/>
<path d="M20.6128 40.3234V41.3613C20.6128 41.5139 20.4907 41.6422 20.3381 41.6422H19.2941C19.1414 41.6422 19.0132 41.5139 19.0132 41.3613V40.3234C19.0132 40.1646 19.1414 40.0425 19.2941 40.0425H20.3381C20.4907 40.0425 20.6128 40.1646 20.6128 40.3234Z" fill="white"/>
<path d="M10.493 38.2853V40.0425C10.493 40.2134 10.3526 40.3538 10.1816 40.3538H3.96617C3.79524 40.3538 3.65479 40.2134 3.65479 40.0425V38.2853C3.65479 38.1143 3.79524 37.9739 3.96617 37.9739H10.1816C10.3526 37.9739 10.493 38.1143 10.493 38.2853Z" fill="white"/>
<path d="M5.47692 39.1637C5.47692 39.4891 5.21203 39.754 4.88663 39.754C4.56123 39.754 4.29639 39.4891 4.29639 39.1637C4.29639 38.8382 4.56123 38.5735 4.88663 38.5735C5.21203 38.5735 5.47692 38.8382 5.47692 39.1637Z" fill="#FEC400"/>
<path d="M6.93883 39.1637C6.93883 39.4891 6.67394 39.754 6.34854 39.754C6.02315 39.754 5.7583 39.4891 5.7583 39.1637C5.7583 38.8382 6.02315 38.5735 6.34854 38.5735C6.67394 38.5735 6.93883 38.8382 6.93883 39.1637Z" fill="#FF4F5A"/>
<path d="M25.715 50.4705H2.88316C2.25221 50.4705 1.74072 49.959 1.74072 49.3281V45.2093C1.74072 44.5784 2.25221 44.0669 2.88316 44.0669H25.715C26.346 44.0669 26.8575 44.5784 26.8575 45.2093V49.3281C26.8575 49.959 26.346 50.4705 25.715 50.4705Z" fill="#5E6D84"/>
<path d="M24.9571 45.7165V46.7544C24.9571 46.907 24.8349 47.0353 24.6823 47.0353H23.6383C23.4857 47.0353 23.3574 46.907 23.3574 46.7544V45.7165C23.3574 45.5577 23.4857 45.4355 23.6383 45.4355H24.6823C24.8349 45.4355 24.9571 45.5577 24.9571 45.7165Z" fill="#FEC400"/>
<path d="M24.9571 47.7841V48.822C24.9571 48.9746 24.835 49.1029 24.6823 49.1029H23.6383C23.4857 49.1029 23.3574 48.9746 23.3574 48.822V47.7841C23.3574 47.6253 23.4857 47.5032 23.6383 47.5032H24.6823C24.835 47.5032 24.9571 47.6253 24.9571 47.7841Z" fill="white"/>
<path d="M22.7852 45.7165V46.7544C22.7852 46.907 22.6631 47.0353 22.5104 47.0353H21.4664C21.3138 47.0353 21.1855 46.907 21.1855 46.7544V45.7165C21.1855 45.5577 21.3138 45.4355 21.4664 45.4355H22.5104C22.6631 45.4355 22.7852 45.5577 22.7852 45.7165Z" fill="white"/>
<path d="M22.7852 47.7841V48.822C22.7852 48.9746 22.6631 49.1029 22.5104 49.1029H21.4664C21.3138 49.1029 21.1855 48.9746 21.1855 48.822V47.7841C21.1855 47.6253 21.3138 47.5032 21.4664 47.5032H22.5104C22.6631 47.5032 22.7852 47.6253 22.7852 47.7841Z" fill="white"/>
<path d="M20.6128 45.7165V46.7544C20.6128 46.907 20.4907 47.0353 20.3381 47.0353H19.2941C19.1414 47.0353 19.0132 46.907 19.0132 46.7544V45.7165C19.0132 45.5577 19.1414 45.4355 19.2941 45.4355H20.3381C20.4907 45.4355 20.6128 45.5577 20.6128 45.7165Z" fill="white"/>
<path d="M20.6128 47.7841V48.822C20.6128 48.9746 20.4907 49.1029 20.3381 49.1029H19.2941C19.1414 49.1029 19.0132 48.9746 19.0132 48.822V47.7841C19.0132 47.6253 19.1414 47.5032 19.2941 47.5032H20.3381C20.4907 47.5032 20.6128 47.6253 20.6128 47.7841Z" fill="#FEC400"/>
<path d="M10.493 45.746V47.5032C10.493 47.6741 10.3526 47.8145 10.1816 47.8145H3.96617C3.79524 47.8145 3.65479 47.6741 3.65479 47.5032V45.746C3.65479 45.575 3.79524 45.4346 3.96617 45.4346H10.1816C10.3526 45.4346 10.493 45.575 10.493 45.746Z" fill="white"/>
<path d="M5.47692 46.6244C5.47692 46.9498 5.21203 47.2147 4.88663 47.2147C4.56123 47.2147 4.29639 46.9498 4.29639 46.6244C4.29639 46.2989 4.56123 46.0342 4.88663 46.0342C5.21203 46.0342 5.47692 46.2989 5.47692 46.6244Z" fill="#FEC400"/>
<path d="M6.93883 46.6244C6.93883 46.9498 6.67394 47.2147 6.34854 47.2147C6.02315 47.2147 5.7583 46.9498 5.7583 46.6244C5.7583 46.2989 6.02315 46.0342 6.34854 46.0342C6.67394 46.0342 6.93883 46.2989 6.93883 46.6244Z" fill="#FF4F5A"/>
<path d="M25.715 35.4412H2.88316C2.25221 35.4412 1.74072 34.9297 1.74072 34.2988V30.18C1.74072 29.5491 2.25221 29.0376 2.88316 29.0376H25.715C26.346 29.0376 26.8575 29.5491 26.8575 30.18V34.2988C26.8575 34.9297 26.346 35.4412 25.715 35.4412Z" fill="#5E6D84"/>
<path d="M24.9048 30.7409V31.7788C24.9048 31.9314 24.7827 32.0597 24.6301 32.0597H23.586C23.4334 32.0597 23.3052 31.9314 23.3052 31.7788V30.7409C23.3052 30.5821 23.4334 30.46 23.586 30.46H24.6301C24.7827 30.46 24.9048 30.5821 24.9048 30.7409Z" fill="white"/>
<path d="M24.9571 32.8085V33.8464C24.9571 33.999 24.835 34.1273 24.6823 34.1273H23.6383C23.4857 34.1273 23.3574 33.999 23.3574 33.8464V32.8085C23.3574 32.6497 23.4857 32.5276 23.6383 32.5276H24.6823C24.835 32.5276 24.9571 32.6497 24.9571 32.8085Z" fill="#FEC400"/>
<path d="M22.7852 30.7409V31.7788C22.7852 31.9314 22.6631 32.0597 22.5104 32.0597H21.4664C21.3138 32.0597 21.1855 31.9314 21.1855 31.7788V30.7409C21.1855 30.5821 21.3138 30.46 21.4664 30.46H22.5104C22.6631 30.46 22.7852 30.5821 22.7852 30.7409Z" fill="white"/>
<path d="M22.7852 32.7279V33.7658C22.7852 33.9185 22.6631 34.0467 22.5104 34.0467H21.4664C21.3138 34.0467 21.1855 33.9185 21.1855 33.7658V32.7279C21.1855 32.5692 21.3138 32.447 21.4664 32.447H22.5104C22.6631 32.447 22.7852 32.5692 22.7852 32.7279Z" fill="white"/>
<path d="M20.6128 30.6603V31.6982C20.6128 31.8508 20.4907 31.9791 20.3381 31.9791H19.2941C19.1414 31.9791 19.0132 31.8508 19.0132 31.6982V30.6603C19.0132 30.5016 19.1414 30.3794 19.2941 30.3794H20.3381C20.4907 30.3794 20.6128 30.5016 20.6128 30.6603Z" fill="#FEC400"/>
<path d="M20.6128 32.8087V33.8466C20.6128 33.9993 20.4907 34.1276 20.3381 34.1276H19.2941C19.1414 34.1276 19.0132 33.9993 19.0132 33.8466V32.8087C19.0132 32.65 19.1414 32.5278 19.2941 32.5278H20.3381C20.4907 32.5278 20.6128 32.65 20.6128 32.8087Z" fill="white"/>
<path d="M10.493 30.7706V32.5278C10.493 32.6987 10.3526 32.8391 10.1816 32.8391H3.96617C3.79524 32.8391 3.65479 32.6987 3.65479 32.5278V30.7706C3.65479 30.5996 3.79524 30.4592 3.96617 30.4592H10.1816C10.3526 30.4592 10.493 30.5996 10.493 30.7706Z" fill="white"/>
<path d="M5.47692 31.649C5.47692 31.9745 5.21203 32.2393 4.88663 32.2393C4.56123 32.2393 4.29639 31.9745 4.29639 31.649C4.29639 31.3236 4.56123 31.0588 4.88663 31.0588C5.21203 31.0588 5.47692 31.3236 5.47692 31.649Z" fill="#FEC400"/>
<path d="M6.93883 31.649C6.93883 31.9745 6.67394 32.2393 6.34854 32.2393C6.02315 32.2393 5.7583 31.9745 5.7583 31.649C5.7583 31.3236 6.02315 31.0588 6.34854 31.0588C6.67394 31.0588 6.93883 31.3236 6.93883 31.649Z" fill="#FF4F5A"/>
<path d="M41.2997 50.2691L43.2152 35.6575H33.686L33.6884 50.2691H41.2997Z" fill="#2B9BED"/>
<path d="M40.3164 50.2691L38.4009 35.6575H47.9301L47.9277 50.2691H40.3164Z" fill="#64B5F4"/>
<path d="M30.1227 24.3828L30.6405 21.4888H37.6687C37.6734 23.7311 37.6781 27.1008 37.664 27.1712C37.6387 27.2768 28.5646 30.3423 28.3915 30.2494C28.2184 30.1564 24.2788 29.5399 24.2788 29.5399L30.1227 24.3828Z" fill="#FEB69E"/>
<path d="M30.6577 24.5265H38.0707C38.066 22.3134 38.0614 19.523 38.0614 19.523L35.6567 15.3999C33.4993 15.3999 31.6805 17.0734 31.4169 19.301L30.815 24.3869L30.6577 24.5265Z" fill="#FF4F5A"/>
<path d="M33.686 17.7866V35.9242H47.946L48.0614 18.2052C48.071 16.656 46.8202 15.3955 45.271 15.3955H36.0771C34.7589 15.3955 33.686 16.4636 33.686 17.7866Z" fill="#FF4F5A"/>
<path d="M33.6079 18.9248H33.8274V24.5278H33.6079V18.9248Z" fill="#F73F4B"/>
<path d="M36.1213 8.32688C36.8304 8.32688 37.4053 7.3833 37.4053 6.21935C37.4053 5.05539 36.8304 4.11182 36.1213 4.11182C35.4122 4.11182 34.8374 5.05539 34.8374 6.21935C34.8374 7.3833 35.4122 8.32688 36.1213 8.32688Z" fill="#272D4F"/>
<path d="M45.4708 7.97956C45.4708 9.3286 44.3786 11.1592 43.0634 11.2806C43.0169 11.2849 42.9705 11.2849 42.924 11.2849C41.7947 11.2849 40.8792 10.0009 40.5864 8.76904C40.5771 8.72998 40.5678 8.69527 40.5631 8.65625C40.512 8.42634 40.4888 8.19645 40.4888 7.97956C40.4888 7.64988 40.5492 7.33324 40.6654 7.04693C40.9163 6.39192 41.4322 5.87141 42.0782 5.61981C42.357 5.50702 42.6637 5.44629 42.9798 5.44629C43.003 5.44629 43.0216 5.44629 43.0448 5.45063C43.5932 5.45931 44.0951 5.65452 44.4995 5.97551C44.5273 5.99285 44.5552 6.01888 44.5831 6.0449C44.6946 6.13601 44.8015 6.24445 44.8991 6.35724C45.2523 6.79533 45.4708 7.35926 45.4708 7.97956Z" fill="#272D4F"/>
<path d="M38.6235 10.3701H42.7361V15.3912H38.6235V10.3701Z" fill="#FEB69E"/>
<path d="M38.6221 15.3938L40.0494 15.5596L42.7369 15.3938H38.6221Z" fill="#FEB69E"/>
<path d="M38.624 9.52246V13.3567C38.624 13.3567 40.4422 14.2967 42.7365 13.9442V9.52246H38.624Z" fill="#F8957E"/>
<path d="M42.7332 7.61928V10.0941C42.7332 12.0796 41.1217 13.6911 39.1361 13.6911C37.1506 13.6911 35.5391 12.0796 35.5391 10.0941V7.61928C35.5391 6.62651 35.9419 5.72479 36.5942 5.07739C37.2417 4.42507 38.1434 4.02222 39.1361 4.02222C41.1217 4.02222 42.7332 5.63369 42.7332 7.61928Z" fill="#FEB69E"/>
<path d="M44.899 6.35712C44.6273 -0.406311 36.2916 1.74111 35.3962 2.28258C32.9109 3.78554 32.4827 7.33628 35.3871 7.33628C38.8993 7.78759 42.0804 7.72854 44.899 6.35712Z" fill="#272D4F"/>
<path d="M39.3093 9.35678C39.4947 9.35678 39.645 9.13493 39.645 8.86125C39.645 8.58758 39.4947 8.36572 39.3093 8.36572C39.1239 8.36572 38.9736 8.58758 38.9736 8.86125C38.9736 9.13493 39.1239 9.35678 39.3093 9.35678Z" fill="#272D4F"/>
<path d="M36.9212 9.35678C37.1066 9.35678 37.2569 9.13493 37.2569 8.86125C37.2569 8.58758 37.1066 8.36572 36.9212 8.36572C36.7358 8.36572 36.5854 8.58758 36.5854 8.86125C36.5854 9.13493 36.7358 9.35678 36.9212 9.35678Z" fill="#272D4F"/>
<path d="M39.4017 10.8394C39.4025 10.8592 39.4076 10.8778 39.4076 10.8978C39.4076 11.6514 38.7967 12.2623 38.0432 12.2623C37.2896 12.2623 36.6787 11.6514 36.6787 10.8978C36.6787 10.8778 36.6838 10.8592 36.6846 10.8394H39.4017Z" fill="white"/>
<path d="M43.9988 8.22011C44.0165 8.89784 43.4634 9.46208 42.7633 9.48037C42.0632 9.49867 41.9991 7.04438 42.6992 7.02609C43.3992 7.0078 43.9811 7.54238 43.9988 8.22011Z" fill="#FEB69E"/>
<path d="M41.4702 6.29146C41.4702 6.29146 41.5711 8.59894 42.1247 9.03607C42.4097 9.26109 42.7834 8.74469 42.7834 8.38156V6.29146C42.7834 5.92411 42.4878 5.63696 42.1247 5.63696C41.7616 5.63696 41.4702 5.92411 41.4702 6.29146Z" fill="#272D4F"/>
<path d="M38.6238 14.3645L37.9341 15.3986L39.0668 16.9143L40.0493 15.5595L38.6238 14.3645Z" fill="#F2F6FF"/>
<path d="M40.0493 15.5596L40.7491 17.1614L43.0916 15.3915L42.7368 14.3167L40.0493 15.5596Z" fill="#F2F6FF"/>
<path d="M23.1069 29.4226V30.0168C23.1069 30.4356 23.4464 30.775 23.8651 30.775H37.6962C38.0696 30.775 38.3724 30.4723 38.3724 30.0988C38.3724 29.7254 38.0696 29.4226 37.6962 29.4226H23.1069Z" fill="#70AFFF"/>
<path d="M33.9631 25.9884C33.5769 26.4115 33.4985 28.2321 33.4985 28.2321C33.4746 28.5143 33.6776 28.7651 33.9585 28.8006C34.0939 28.8177 34.2851 28.6983 34.4498 28.5413C34.7417 28.2631 35.1725 28.1867 35.555 28.3143L37.1914 28.8603L38.3724 25.5514L36.8145 24.3704C36.6323 24.2322 36.3784 24.2399 36.2049 24.3888C35.9484 24.6088 35.9895 25.0172 36.2848 25.1816L36.4023 25.247C36.4023 25.247 34.3928 25.5178 33.9631 25.9884Z" fill="#FEB69E"/>
<path d="M21.1179 20.2903L23.1058 29.4207H34.9944L32.9251 19.9571C32.8476 19.6199 32.5453 19.3835 32.2043 19.3835H21.8387C21.362 19.3835 21.0094 19.8292 21.1179 20.2903Z" fill="#B3D4FF"/>
<path d="M26.5146 25.2604C26.6375 25.8938 27.2662 26.4043 27.9186 26.4043C28.5662 26.4043 28.9963 25.8938 28.8734 25.2604C28.7458 24.6317 28.1218 24.1165 27.4695 24.1165C26.8219 24.1165 26.3917 24.6317 26.5146 25.2604Z" fill="#70AFFF"/>
<path d="M38.3726 25.5516L44.0405 26.321C44.0405 26.321 44.1667 24.534 44.2627 22.9915L49.9942 22.5852V28.652C49.6664 31.1459 47.181 32.7512 44.7731 32.0241L37.1758 28.8131L38.3726 25.5516Z" fill="#FEB69E"/>
<path d="M43.9609 15.3953V24.1369H50.2586V20.1775C50.2586 17.5362 48.1177 15.3953 45.4764 15.3953H43.9609Z" fill="#FF4F5A"/>
<path d="M44.2847 24.3609L44.2598 23.8552H44.2847V24.3609Z" fill="#F26678"/>
<path d="M44.0676 19.8618V24.0026H44.2597C44.3181 24.0026 44.3653 24.0501 44.3653 24.1082C44.3653 24.1663 44.3181 24.2138 44.2597 24.2138H43.962C43.9037 24.2138 43.8564 24.1663 43.8564 24.1082V19.8618H44.0676Z" fill="#F73F4B"/>
<path d="M26.762 31.2052H29.5225C29.7077 31.2052 29.8577 31.0551 29.8577 30.87C29.8577 30.1377 29.264 29.5439 28.5317 29.5439H27.7528C27.0205 29.5439 26.4268 30.1376 26.4268 30.87C26.4268 31.0551 26.5768 31.2052 26.762 31.2052Z" fill="#FEB69E"/>
<path d="M2.13916 14.3226C2.13916 16.2932 3.67305 17.8893 5.56468 17.8893H18.7934C21.3101 17.8893 23.3499 15.7643 23.3499 13.1425C23.3499 10.5225 21.3101 8.39574 18.7934 8.39574C18.6434 8.39574 18.4935 8.40323 18.3471 8.4183C18.3706 8.21501 18.3815 8.00801 18.3815 7.79907C18.3815 4.67472 15.9496 2.14136 12.9505 2.14136C10.3705 2.14136 8.2115 4.01597 7.65865 6.52861H7.62251C5.73089 6.52861 4.197 8.12656 4.197 10.0953C4.197 10.4096 4.23494 10.7126 4.30902 11.0025C3.0389 11.5238 2.13916 12.8131 2.13916 14.3226Z" fill="#DEEBFE"/>
<path d="M17.9368 9.90657C17.932 9.75177 17.8192 9.61853 17.6644 9.58977L17.3584 9.52977C17.2528 9.50815 17.1604 9.43977 17.1172 9.34017C17.104 9.30536 17.086 9.26939 17.0692 9.23582C17.0224 9.13621 17.0284 9.02102 17.0836 8.92499L17.2396 8.65857C17.3176 8.52299 17.2924 8.35021 17.1784 8.24463L16.4776 7.59063C16.3648 7.48388 16.1908 7.47063 16.0612 7.55823L15.8045 7.73107C15.7145 7.79107 15.5993 7.80665 15.4985 7.76705C15.4625 7.75386 15.4253 7.73822 15.3881 7.72504C15.2849 7.68906 15.2081 7.60147 15.1793 7.49706L15.1013 7.19824C15.0617 7.04708 14.9213 6.9439 14.7641 6.94864L13.8065 6.98228C13.6517 6.98708 13.5197 7.09987 13.491 7.25226L13.431 7.55946C13.4094 7.66627 13.3386 7.75744 13.239 7.80062C13.2018 7.81626 13.167 7.83185 13.131 7.84861C13.0338 7.89542 12.9186 7.88821 12.8238 7.83425L12.5574 7.67945C12.4218 7.60147 12.2502 7.62783 12.1434 7.74062L11.4894 8.44143C11.3826 8.55422 11.3694 8.72818 11.457 8.85778L11.631 9.11582C11.6922 9.20459 11.7066 9.31978 11.667 9.42055C11.6526 9.45659 11.637 9.49497 11.6238 9.53217C11.5902 9.63535 11.5026 9.71099 11.397 9.73976L11.0994 9.81775C10.9471 9.85735 10.8439 9.99897 10.8499 10.1549L10.8835 11.1125C10.8883 11.2685 11.0011 11.4017 11.1558 11.4305L11.4582 11.4881C11.565 11.5097 11.6574 11.5781 11.6994 11.6801C11.715 11.7149 11.7318 11.7509 11.7498 11.7881C11.7966 11.8853 11.7894 12.0004 11.733 12.0953L11.5782 12.3617C11.5002 12.4972 11.5266 12.67 11.6394 12.7757L12.3414 13.4296C12.4554 13.5364 12.6282 13.5496 12.759 13.462L13.0158 13.2892C13.1058 13.2292 13.221 13.2136 13.3206 13.2532C13.3578 13.2688 13.3938 13.282 13.4322 13.2952C13.5366 13.3312 13.6109 13.4188 13.6397 13.5232L13.7177 13.822C13.7561 13.9732 13.8977 14.0764 14.0537 14.0716L15.0125 14.038C15.1697 14.032 15.3005 13.9204 15.3293 13.7656L15.3893 13.4608C15.4109 13.3552 15.4793 13.2628 15.5789 13.2208C15.6161 13.204 15.6521 13.1884 15.6869 13.1716C15.7841 13.1224 15.9016 13.1296 15.9952 13.186L16.2616 13.3408C16.3984 13.4188 16.57 13.3924 16.6756 13.2796L17.3296 12.5776C17.4364 12.4624 17.4508 12.2909 17.3632 12.1601L17.188 11.9009C17.128 11.8121 17.1124 11.6993 17.1532 11.5985C17.1676 11.5613 17.1808 11.5253 17.1916 11.4905C17.2276 11.3861 17.3152 11.3117 17.4208 11.2829L17.7208 11.2025C17.872 11.1629 17.9752 11.0213 17.9704 10.8677L17.9368 9.90657ZM14.4101 12.1757C13.4897 12.1757 12.7446 11.4293 12.7446 10.5101C12.7446 9.591 13.4897 8.8446 14.4101 8.8446C15.3293 8.8446 16.0756 9.591 16.0756 10.5101C16.0756 11.4293 15.3293 12.1757 14.4101 12.1757Z" fill="#FF4F5A"/>
<path d="M14.4102 8.46411C13.2798 8.46411 12.3643 9.37966 12.3643 10.51C12.3643 11.6403 13.2798 12.556 14.4102 12.556C15.5405 12.556 16.4561 11.6403 16.4561 10.51C16.4561 9.37966 15.5405 8.46411 14.4102 8.46411ZM14.4102 12.1756C13.4898 12.1756 12.7446 11.4292 12.7446 10.51C12.7446 9.59088 13.4898 8.84449 14.4102 8.84449C15.3293 8.84449 16.0757 9.59088 16.0757 10.51C16.0757 11.4292 15.3293 12.1756 14.4102 12.1756Z" fill="#F73F4B"/>
<path d="M11.1852 13.9774C11.208 13.8588 11.145 13.7382 11.0321 13.6899L10.8095 13.5919C10.7329 13.5575 10.6743 13.4896 10.6584 13.4065C10.6543 13.3777 10.6468 13.3473 10.6397 13.3189C10.6211 13.2351 10.6454 13.1485 10.7038 13.0848L10.868 12.9088C10.9505 12.819 10.9608 12.6832 10.8921 12.5834L10.4707 11.9661C10.4031 11.8656 10.273 11.8258 10.1594 11.8703L9.93448 11.9579C9.85576 11.9882 9.76545 11.9804 9.69553 11.933C9.67039 11.9168 9.64476 11.8986 9.61871 11.8822C9.54633 11.8372 9.50287 11.7574 9.4988 11.6731L9.4905 11.4324C9.48619 11.3106 9.397 11.2081 9.27659 11.1849L8.54227 11.0469C8.42367 11.0241 8.30398 11.0873 8.25603 11.1984L8.1579 11.4218C8.12322 11.4994 8.05377 11.5567 7.97062 11.5725C7.93964 11.5781 7.9105 11.584 7.88025 11.5906C7.7983 11.6096 7.71188 11.5845 7.64898 11.5272L7.47274 11.3639C7.38289 11.2814 7.24783 11.2722 7.1473 11.3397L6.53 11.7612C6.42947 11.8288 6.38971 11.9589 6.43421 12.0725L6.52252 12.2985C6.55392 12.3765 6.54519 12.4666 6.49785 12.5365C6.48073 12.5615 6.46231 12.588 6.44591 12.6141C6.40272 12.6868 6.32315 12.7294 6.23789 12.7333L5.99814 12.7418C5.87543 12.7459 5.77272 12.836 5.75063 12.9557L5.61261 13.69C5.58962 13.8095 5.65268 13.9301 5.76554 13.9785L5.98577 14.074C6.06333 14.1087 6.12195 14.1765 6.13649 14.2613C6.1424 14.2904 6.14903 14.3207 6.15638 14.352C6.17538 14.434 6.15023 14.5204 6.09112 14.5829L5.92783 14.7591C5.84532 14.849 5.83589 14.985 5.90366 15.0846L6.32605 15.7021C6.39454 15.8028 6.52375 15.8424 6.63823 15.7981L6.86313 15.7105C6.94186 15.6802 7.03217 15.688 7.10119 15.7351C7.12682 15.7534 7.15196 15.7696 7.17893 15.7862C7.2522 15.8314 7.29384 15.9108 7.29792 15.9951L7.30622 16.2358C7.30961 16.3573 7.3997 16.4601 7.51922 16.4831L8.25445 16.6213C8.37507 16.6436 8.49365 16.581 8.542 16.4682L8.63973 16.2465C8.67421 16.1699 8.74203 16.1112 8.82497 16.0963C8.85615 16.0899 8.88622 16.0841 8.91555 16.0773C8.99792 16.0565 9.08616 16.0821 9.14773 16.141L9.32397 16.3043C9.41473 16.387 9.5498 16.3962 9.64941 16.3284L10.2669 15.906C10.3679 15.8366 10.4081 15.7086 10.3638 15.594L10.2748 15.3669C10.2443 15.2891 10.2517 15.2006 10.3 15.1309C10.3173 15.1051 10.3335 15.0799 10.3477 15.0553C10.3929 14.982 10.4722 14.9404 10.5575 14.9365L10.7995 14.9266C10.9213 14.9223 11.024 14.8322 11.0466 14.7145L11.1852 13.9774ZM8.11427 15.1014C7.414 14.9442 6.97454 14.249 7.13157 13.5496C7.2886 12.8503 7.98308 12.4097 8.68335 12.5669C9.38271 12.724 9.82308 13.4194 9.66605 14.1187C9.50902 14.8181 8.81363 15.2585 8.11427 15.1014Z" fill="#FEC400"/>
<path d="M8.74854 12.2774C7.8885 12.0843 7.03547 12.6245 6.84236 13.4845C6.64926 14.3446 7.18945 15.1976 8.04949 15.3907C8.90953 15.5839 9.76257 15.0436 9.95568 14.1836C10.1488 13.3235 9.60858 12.4705 8.74854 12.2774ZM8.11448 15.1013C7.41421 14.9441 6.97475 14.2489 7.13178 13.5495C7.2888 12.8502 7.98329 12.4096 8.68356 12.5668C9.38291 12.7239 9.82328 13.4193 9.66626 14.1186C9.50923 14.818 8.81383 15.2584 8.11448 15.1013Z" fill="#FFAB00"/>
</svg>
