<svg width="40" height="40" viewBox="0 0 40 40" fill="none" xmlns="http://www.w3.org/2000/svg">
<g clip-path="url(#clip0_7780_2796)">
<path d="M25.2485 21.8433V25.4632C25.2485 26.1905 24.1182 26.8223 22.459 27.141C21.6498 27.2904 20.8287 27.364 20.0059 27.3606C17.11 27.3606 14.7627 26.5115 14.7627 25.4632V21.8433C14.7627 22.8916 17.11 23.7407 20.0059 23.7407C22.9018 23.7407 25.2485 22.8916 25.2485 21.8433Z" fill="#00ACEA"/>
<path d="M25.2485 21.7681V21.8433C25.2485 22.8917 22.9018 23.7408 20.0059 23.7408C17.11 23.7408 14.7627 22.8917 14.7627 21.8433V18.249C14.7627 19.2974 17.11 20.1458 20.0059 20.1458C22.9018 20.1458 25.2485 19.2974 25.2485 18.249V21.7681Z" fill="#00EFD1"/>
<path d="M25.2485 14.6536V18.2489C25.2485 19.2972 22.9018 20.1456 20.0059 20.1456C17.11 20.1456 14.7627 19.2972 14.7627 18.2489V14.6536C14.7627 15.7013 17.11 16.551 20.0059 16.551C22.9018 16.551 25.2485 15.7013 25.2485 14.6536Z" fill="#00ACEA"/>
<path d="M20.0059 12.7559C22.9008 12.7559 25.2485 13.6059 25.2485 14.6537C25.2485 15.7014 22.9008 16.5511 20.0059 16.5511C17.111 16.5511 14.7627 15.7014 14.7627 14.6537C14.7627 13.6059 17.11 12.7559 20.0059 12.7559Z" fill="#00EFD1"/>
<path d="M1.64359 8.91796C1.55908 7.95675 1.61498 6.98789 1.80995 6.04299C2.07146 4.86519 2.58384 3.88868 3.33344 3.14007C4.38348 2.08937 5.86005 1.51311 7.71692 1.42727C8.61657 1.39367 9.51723 1.45489 10.4039 1.60993L10.6391 0.267437C9.65597 0.0957576 8.65717 0.0278843 7.65969 0.0654808C5.44749 0.167623 3.66748 0.877964 2.37057 2.17621C1.43365 3.11213 0.797171 4.31555 0.479098 5.75286L0.477101 5.76185C0.254517 6.8385 0.190303 7.94178 0.286457 9.03707L1.64359 8.91796Z" fill="#083863"/>
<path d="M0.682617 11.5501C0.853299 12.2807 1.06124 13.0021 1.30479 13.7117L2.59438 13.2709C2.36581 12.6051 2.17084 11.9284 2.01014 11.2427L0.682617 11.5501Z" fill="#083863"/>
<path d="M4.63372 17.8225C4.22282 17.0735 3.84652 16.3206 3.51481 15.585L2.27246 16.1452C2.61881 16.9131 3.01108 17.6977 3.43862 18.4776L4.63372 17.8225Z" fill="#083863"/>
<path d="M9.95477 25.3267C9.89555 25.2592 9.83633 25.1917 9.77777 25.1238L8.74902 26.0171C8.80924 26.087 8.87013 26.1565 8.93135 26.2261C9.26872 26.6103 9.62905 27.0076 10.002 27.4072C10.1647 27.5812 10.3294 27.7549 10.4961 27.9279L11.4789 26.9843C11.3166 26.8153 11.1562 26.6459 10.9975 26.4766C10.6338 26.0876 10.2832 25.7007 9.95477 25.3267Z" fill="#083863"/>
<path d="M7.10214 24.0151L8.17847 23.179C8.07932 23.0515 7.9815 22.9238 7.88402 22.7957C7.46946 22.2507 7.06787 21.6971 6.69157 21.1494L5.56934 21.9226C5.95794 22.4873 6.37217 23.0585 6.79937 23.6201C6.89919 23.7522 7 23.8836 7.10214 24.0151Z" fill="#083863"/>
<path d="M11.6553 29.095C12.9422 30.3516 14.2967 31.5371 15.713 32.6463C17.6338 34.1575 19.684 35.4967 21.8396 36.6485C23.0982 37.3189 24.4031 37.8995 25.7436 38.386L24.4996 38.7423L24.8746 40.0522L28.3335 39.062L28.3548 39.056C28.5294 39.0071 28.6775 38.8907 28.766 38.7323C28.8548 38.5739 28.8765 38.3866 28.8266 38.2123L27.9176 35.0389L26.6074 35.4142L27.185 37.4304C25.558 36.9157 23.9823 36.2513 22.4784 35.4448C20.394 34.3309 18.412 33.0356 16.5545 31.5743C15.177 30.4957 13.8595 29.3425 12.6075 28.1201L11.6553 29.095Z" fill="#083863"/>
<path d="M39.5729 29.3176C39.2945 27.5802 38.7195 25.7104 37.8641 23.76L36.6161 24.3077C37.4253 26.1519 37.9673 27.9099 38.2271 29.5329C38.7145 32.5809 38.1789 34.9851 36.678 36.4856C35.9351 37.2289 34.9682 37.7389 33.8054 38.0011C32.8661 38.2124 31.7994 38.2629 30.6343 38.1511C30.3485 38.1239 30.0527 38.0859 29.7549 38.039L29.542 39.3845C29.8667 39.4357 30.1904 39.4773 30.5042 39.5076C30.9487 39.5502 31.3816 39.5715 31.8028 39.5715C32.5767 39.5762 33.3489 39.4953 34.1048 39.3303C35.5238 39.0102 36.7139 38.3774 37.6419 37.4491C39.4641 35.6269 40.1319 32.8151 39.5729 29.3176Z" fill="#083863"/>
<path d="M36.2701 20.6045L35.0859 21.2792C35.415 21.8568 35.7247 22.4367 36.0052 23.0027L37.2259 22.3971C36.9335 21.8072 36.6118 21.2044 36.2701 20.6045Z" fill="#083863"/>
<path d="M33.1058 15.8674L32.0234 16.6956C32.5305 17.3586 33.0266 18.0454 33.4977 18.7364L34.6239 17.9688C34.1385 17.2572 33.6281 16.5505 33.1058 15.8674Z" fill="#083863"/>
<path d="M29.7378 11.9294L28.752 12.8704C29.3292 13.4752 29.8971 14.1034 30.4401 14.7382L31.4759 13.8525C30.9166 13.1987 30.3317 12.5516 29.7378 11.9294Z" fill="#083863"/>
<path d="M12.1616 1.62562L12.8507 4.84761L14.1835 4.5628L13.7434 2.50431C14.994 2.94782 16.2107 3.48182 17.3839 4.10266C19.4414 5.18864 21.3997 6.45294 23.2363 7.88094C24.103 8.54936 24.9754 9.27434 25.8291 10.0356C26.2946 10.4511 26.7714 10.8943 27.2468 11.3538C27.4448 11.5444 27.6517 11.7474 27.8613 11.957L28.8249 10.9935C28.6093 10.7779 28.3963 10.5686 28.193 10.3726C27.7056 9.90184 27.2155 9.44635 26.7364 9.01849C25.8584 8.23595 24.9611 7.49001 24.0714 6.80395C23.2054 6.13054 22.308 5.4924 21.3884 4.8882C21.9111 4.59341 22.4358 4.31427 22.9502 4.05875L22.344 2.83802C21.7328 3.14179 21.1086 3.47583 20.4888 3.83084L20.922 4.58643C19.9771 3.98455 19.0099 3.42193 18.0207 2.89825C17.1407 2.43311 16.2367 2.0139 15.3128 1.64259L16.5138 1.38574L16.2287 0.0532227L12.6847 0.811141C12.3347 0.888996 12.1031 1.22271 12.1533 1.57771C12.1553 1.59368 12.1583 1.60965 12.1616 1.62562Z" fill="#083863"/>
<path d="M0.215094 29.4253C0.0430813 30.4081 -0.024792 31.4066 0.0131373 32.4037C0.11528 34.6166 0.825288 36.3966 2.1232 37.6945C3.06111 38.6324 4.26487 39.2683 5.70917 39.586C6.46077 39.742 7.22667 39.8209 7.99457 39.8206C8.32429 39.8206 8.65434 39.8063 8.98472 39.7773L8.86561 38.4198C7.90541 38.5047 6.93788 38.4485 5.99397 38.2531C4.81584 37.994 3.83767 37.4819 3.08673 36.731C2.03669 35.6806 1.46044 34.2037 1.37493 32.3465C1.34099 31.4472 1.40221 30.5469 1.55725 29.6602L0.215094 29.4253Z" fill="#083863"/>
<path d="M11.4979 39.3809C12.2282 39.2102 12.9495 39.0026 13.6588 38.7591L13.2183 37.4695C12.5526 37.6981 11.8758 37.893 11.1904 38.0537L11.4979 39.3809Z" fill="#083863"/>
<path d="M16.0925 37.7921C16.8601 37.4461 17.6449 37.0538 18.4248 36.6263L17.77 35.4312C17.0204 35.8421 16.2679 36.2183 15.5322 36.5497L16.0925 37.7921Z" fill="#083863"/>
<path d="M21.0977 33.373L21.8705 34.4952C22.4415 34.1019 23.0131 33.6877 23.568 33.2652C23.6998 33.165 23.8316 33.0639 23.963 32.9617L23.1262 31.8857C22.9991 31.9849 22.8713 32.083 22.7429 32.1802C22.2046 32.5904 21.651 32.992 21.0977 33.373Z" fill="#083863"/>
<path d="M25.0713 30.2869L25.9643 31.3163C26.0338 31.256 26.1034 31.1952 26.1736 31.1336C26.5552 30.7982 26.9518 30.4382 27.354 30.0636C27.5284 29.9006 27.702 29.7355 27.8751 29.5685L26.9311 28.5857C26.7621 28.7474 26.5931 28.9091 26.4241 29.0675C26.0325 29.4324 25.6452 29.7835 25.2742 30.1098C25.2067 30.1691 25.1388 30.228 25.0713 30.2869Z" fill="#083863"/>
<path d="M29.4796 1.83664C32.5276 1.34955 34.9314 1.88488 36.4323 3.38575C37.1756 4.12869 37.6856 5.09589 37.9478 6.25938C38.1591 7.1983 38.2096 8.26497 38.0978 9.42947C38.0706 9.71527 38.0326 10.011 37.9854 10.3088L39.3315 10.5218C39.3828 10.1967 39.4244 9.87297 39.4543 9.55989C39.5801 8.25133 39.5202 7.04026 39.2773 5.95994C38.9576 4.54059 38.3247 3.35015 37.3961 2.42188C35.5735 0.598949 32.7621 -0.0688041 29.2643 0.490818C27.5269 0.768965 25.6571 1.34389 23.707 2.19963L24.2543 3.44763C26.0989 2.63848 27.857 2.09649 29.4796 1.83664Z" fill="#083863"/>
<path d="M14.6851 9.62378L13.7991 8.58838C13.1453 9.14767 12.4981 9.73258 11.876 10.3265L12.8172 11.3123C13.4218 10.7347 14.0503 10.1671 14.6851 9.62378Z" fill="#083863"/>
<path d="M18.6841 6.56651L17.9168 5.43994C17.2058 5.92437 16.4988 6.43508 15.8154 6.95777L16.6432 8.04042C17.307 7.5327 17.9937 7.03663 18.6841 6.56651Z" fill="#083863"/>
<path d="M39.0093 11.7297L39.0033 11.7084C38.9541 11.5341 38.8376 11.3864 38.6792 11.2982C38.5212 11.2097 38.3342 11.1881 38.1599 11.238L34.9865 12.146L35.3611 13.4562L37.3773 12.8793C36.8623 14.5059 36.1979 16.0816 35.3917 17.5855C34.2781 19.6699 32.9832 21.6519 31.5216 23.5091C30.4426 24.8868 29.2894 26.2047 28.0674 27.457L29.0422 28.4089C30.2989 27.1217 31.484 25.7669 32.5933 24.3505C34.1048 22.4301 35.4439 20.3799 36.5955 18.2243C37.2659 16.9653 37.8465 15.6604 38.3332 14.3199L38.6896 15.5642L39.9998 15.1896L39.0093 11.7297Z" fill="#083863"/>
<path d="M1.42933 27.9169C1.46094 27.9169 1.49255 27.9149 1.52415 27.9106C1.54046 27.9083 1.55676 27.9053 1.57273 27.902L4.79505 27.2129L4.50991 25.8804L2.45142 26.3206C2.8946 25.0696 3.42893 23.8529 4.05011 22.6797C5.13608 20.6226 6.40039 18.6639 7.82805 16.827C8.49681 15.9603 9.22179 15.0879 9.98203 14.2348C10.4096 13.7567 10.8527 13.2799 11.3006 12.8165C11.4799 12.6302 11.6719 12.4352 11.9041 12.2033L10.9402 11.2397C10.7017 11.4783 10.5047 11.6786 10.3197 11.8706C9.86059 12.346 9.40511 12.8358 8.96526 13.3275C8.18306 14.2052 7.43712 15.1029 6.75073 15.9929C5.27515 17.892 3.96826 19.9162 2.84536 22.0432C2.37989 22.9233 1.96067 23.8269 1.5897 24.7509L1.33285 23.5501L0 23.8346L0.757919 27.3786C0.827455 27.6934 1.10693 27.9176 1.42933 27.9169Z" fill="#083863"/>
<path d="M14.123 14.6536V25.463C14.123 26.0396 14.4468 26.8521 16.0874 27.4457C17.1501 27.8303 18.5388 28.0419 20.0141 28.0419H20.065C20.9174 28.0416 21.7681 27.9637 22.6062 27.81C24.7306 27.4021 25.9623 26.5467 25.9623 25.4627V14.6536C25.9623 14.077 25.6016 13.2652 23.9607 12.6709C22.8977 12.2863 21.4906 12.0747 20.0137 12.0747C18.5368 12.0747 17.1541 12.2866 16.091 12.6709C14.4508 13.2648 14.123 14.077 14.123 14.6536ZM24.5995 25.463C24.5995 25.5908 24.0479 26.1451 22.352 26.4708C21.5808 26.6126 20.7983 26.6824 20.0141 26.6791C18.6905 26.6791 17.4731 26.4965 16.5552 26.1641C15.6578 25.8393 15.4858 25.5136 15.4858 25.463V23.5609C15.6798 23.6637 15.8808 23.7522 16.0874 23.8258C17.1501 24.2104 18.5388 24.422 20.0167 24.422C21.4943 24.422 22.904 24.2101 23.9667 23.8258C24.1996 23.7416 24.344 23.6528 24.5995 23.5609V25.463ZM24.5995 21.7679V21.8431C24.5995 21.894 24.3945 22.2198 23.4975 22.5445C22.5803 22.8765 21.3379 23.0592 20.0141 23.0592C18.6902 23.0592 17.4728 22.8765 16.5548 22.5442C15.6578 22.2194 15.4858 21.8937 15.4858 21.8431V19.966C15.6798 20.0691 15.8808 20.1576 16.0877 20.2311C17.1501 20.6151 18.5388 20.8274 20.0167 20.8274C21.4943 20.8274 22.904 20.6154 23.9663 20.2311C24.1992 20.1466 24.344 20.0581 24.5995 19.9663V21.7679ZM24.5995 18.2488C24.5995 18.2994 24.3945 18.6251 23.4979 18.9495C22.5803 19.2816 21.3379 19.4642 20.0141 19.4642C18.6902 19.4642 17.4728 19.2813 16.5552 18.9495C15.6578 18.6251 15.4858 18.2994 15.4858 18.2488V16.3707C15.6795 16.4738 15.8808 16.5623 16.0874 16.6359C17.1504 17.0208 18.5391 17.2321 20.0167 17.2321C21.494 17.2321 22.9033 17.0201 23.9663 16.6359C24.1992 16.5517 24.344 16.4628 24.5995 16.371V18.2488ZM16.5302 13.9525C17.4485 13.6202 18.6829 13.4372 20.0061 13.4372C21.3296 13.4372 22.5633 13.6202 23.4812 13.9525C24.3786 14.2773 24.5672 14.603 24.5672 14.6536C24.5672 14.7041 24.3786 15.0295 23.4812 15.3546C22.5633 15.6866 21.3293 15.8696 20.0061 15.8696C18.6829 15.8696 17.4485 15.687 16.5302 15.3546C15.6329 15.0295 15.4442 14.7041 15.4442 14.6536C15.4442 14.603 15.6329 14.2773 16.5302 13.9525Z" fill="#083863"/>
</g>
<defs>
<clipPath id="clip0_7780_2796">
<rect width="40" height="40" fill="white"/>
</clipPath>
</defs>
</svg>
