<svg width="40" height="40" viewBox="0 0 40 40" fill="none" xmlns="http://www.w3.org/2000/svg">
<g clip-path="url(#clip0_7780_16616)">
<path d="M19.9925 39.985C31.0341 39.985 39.985 31.0341 39.985 19.9925C39.985 8.95095 31.0341 0 19.9925 0C8.95095 0 0 8.95095 0 19.9925C0 31.0341 8.95095 39.985 19.9925 39.985Z" fill="#F44C71"/>
<path fill-rule="evenodd" clip-rule="evenodd" d="M26.8318 22.9321C26.7118 22.9321 26.5918 22.8871 26.5168 22.7672L25.6169 21.5073L24.672 22.7822C24.3721 23.1871 23.7571 22.7222 24.0571 22.3172L25.152 20.8474L24.0871 19.3626C23.7871 18.9576 24.4171 18.4927 24.717 18.9126L25.6319 20.2025L26.5618 18.9576C26.8618 18.5527 27.4767 19.0176 27.1767 19.4226L26.1119 20.8624L27.1467 22.3172C27.3267 22.5722 27.1317 22.9321 26.8318 22.9321ZM27.4167 13.8283H12.5685C12.0736 13.8283 12.0736 13.0634 12.5685 13.0634H27.4167C27.9266 13.0634 27.9266 13.8283 27.4167 13.8283ZM27.4167 16.003H12.5685C12.0736 16.003 12.0736 15.2231 12.5685 15.2231H27.4167C27.9266 15.2231 27.9266 16.003 27.4167 16.003ZM30.2213 26.7567V13.1084C30.2213 11.0086 29.0065 9.31384 27.5217 9.31384H12.4786C10.9787 9.31384 9.7789 11.0086 9.7789 13.1084V26.7567H17.7279H17.7429H17.7579H17.7729H17.7879H17.8029L17.8179 26.7717H17.8329H17.8479L17.8629 26.7867H17.8779H17.8929V26.8017H17.9079L17.9229 26.8167H17.9379L17.9529 26.8316L17.9679 26.8466H17.9829V26.8616H17.9979C17.9979 26.8766 18.1029 27.0266 18.1029 27.1466V28.3015H21.8824V27.1466C21.8824 26.8616 22.0324 26.8466 22.1973 26.7567H22.2573H22.2723H22.2873H30.2213ZM8.99899 26.7567V13.1084C8.99899 10.5887 10.5588 8.53394 12.4786 8.53394H27.5217C29.4414 8.53394 31.0012 10.5887 31.0012 13.1084V26.7567H32.4111C32.621 26.7567 32.801 26.9216 32.801 27.1466C32.801 29.5163 30.8663 31.4511 28.4816 31.4511H11.5187C9.13398 31.4511 7.19922 29.5163 7.19922 27.1466C7.19922 26.9216 7.3792 26.7567 7.58917 26.7567H8.99899ZM17.338 27.5216H7.99412C8.1891 29.2913 9.68891 30.6862 11.5187 30.6862H28.4816C30.2963 30.6862 31.8111 29.2913 32.0061 27.5216H22.6623V28.6914C22.6623 28.9014 22.4823 29.0814 22.2723 29.0814H17.7129C17.5029 29.0814 17.338 28.9164 17.338 28.6914V27.5216ZM18.0129 23.772C17.7579 23.772 17.5629 23.5321 17.6379 23.2771L19.0627 17.9378C19.1977 17.4578 19.9476 17.6678 19.8126 18.1477L18.3878 23.4871C18.3428 23.652 18.1778 23.772 18.0129 23.772ZM21.8224 22.9471C20.9675 22.9471 20.3226 22.3922 20.3676 21.5073V19.1226C20.3676 18.6277 21.1325 18.6277 21.1325 19.1226C21.1325 19.6026 21.1625 21.2223 21.1325 21.5673C21.0575 22.3772 22.5723 22.3772 22.4973 21.5673C22.4673 21.2373 22.4973 19.5876 22.4973 19.1226C22.4973 18.6277 23.2772 18.6277 23.2772 19.1226V21.5073C23.3072 22.3922 22.6623 22.9471 21.8224 22.9471ZM14.2033 22.6922C13.3485 22.6922 12.7035 22.1372 12.7485 21.2523V18.8676C12.7485 18.3727 13.5134 18.3727 13.5134 18.8676C13.5134 19.3626 13.5434 20.9374 13.5134 21.3123C13.4534 22.1222 14.9532 22.1222 14.8783 21.3123C14.8483 20.9374 14.8783 19.3626 14.8783 18.8676C14.8783 18.3727 15.6582 18.3727 15.6582 18.8676V21.2523C15.6882 22.1372 15.0432 22.6922 14.2033 22.6922ZM16.798 22.6772C16.588 22.6772 16.4081 22.5122 16.4081 22.2872V18.8826C16.4081 18.3727 17.188 18.3727 17.188 18.8826V22.2872C17.188 22.5122 17.008 22.6772 16.798 22.6772Z" fill="white"/>
</g>
<defs>
<clipPath id="clip0_7780_16616">
<rect width="40" height="40" fill="white"/>
</clipPath>
</defs>
</svg>
