<svg id="icon_menu_normal_4" xmlns="http://www.w3.org/2000/svg" width="24" height="24" viewBox="0 0 24 24">
  <rect id="background" width="24" height="24" fill="none"/>
  <path id="Path_32232" data-name="Path 32232" d="M4.434,16.231l-.146.736.073.014h.074ZM2.007,13.242l.748.049Zm3.034-3.092v.75h.946L5.771,9.98ZM7.367,4.483l.3.686Zm5.865,2.164-.69.295.323.756.723-.391Zm5.056,3.195-.748-.054-.057.794.8.01Zm3.64,2.473.738-.134Zm-3.19,1.151a.75.75,0,1,0-.671-1.341Zm-1.574-.051-.336-.671h0ZM17,13.832l.708-.248ZM16.755,15.4a.75.75,0,0,0,1.416-.5ZM11.17,19.345a.75.75,0,1,0,.731,1.31Zm1.575-.02.366.655h0Zm.148-.424.7-.279h0Zm.174-1.58a.75.75,0,1,0-1.392.558ZM4.434,16.231c.146-.736.147-.735.147-.735h0l-.01,0-.056-.014c-.053-.014-.133-.038-.23-.073a3.042,3.042,0,0,1-.7-.357,1.85,1.85,0,0,1-.834-1.758l-1.5-.1a3.345,3.345,0,0,0,1.472,3.085,4.542,4.542,0,0,0,1.046.538c.143.052.264.088.352.111l.107.027.033.007.011,0h.007S4.288,16.966,4.434,16.231ZM2.756,13.291A2.3,2.3,0,0,1,3.95,11.2a2.721,2.721,0,0,1,.778-.263c.106-.019.193-.028.249-.033l.059,0h.005s0,0,0-.75,0-.75,0-.75H4.982l-.121.007c-.1.008-.236.023-.4.052a4.22,4.22,0,0,0-1.212.413,3.792,3.792,0,0,0-1.991,3.32Zm2.285-3.141.73-.17h0v0l-.005-.025c0-.024-.012-.062-.021-.113-.018-.1-.04-.253-.059-.44a6.284,6.284,0,0,1,.021-1.431,3.335,3.335,0,0,1,1.964-2.8L7.063,3.8A4.829,4.829,0,0,0,4.22,7.766a7.782,7.782,0,0,0-.027,1.778c.022.229.05.418.074.552.012.067.022.12.03.159l.01.046,0,.014v.007h0ZM7.67,5.169a3.981,3.981,0,0,1,2.249-.383,3.05,3.05,0,0,1,1.464.671,4.387,4.387,0,0,1,.888,1c.1.15.168.277.214.365.023.044.039.077.048.1l.009.021v0h0l.689-.3.689-.3h0v0l0-.005-.006-.014-.021-.045c-.017-.037-.042-.088-.075-.151-.064-.124-.16-.3-.288-.492a5.884,5.884,0,0,0-1.2-1.348A4.549,4.549,0,0,0,10.151,3.3,5.466,5.466,0,0,0,7.063,3.8Zm5.561,1.478.356.66h0L13.6,7.3l.058-.029c.053-.026.134-.063.237-.1a4.689,4.689,0,0,1,.813-.25,2.046,2.046,0,0,1,1.781.3l.971-1.143a3.525,3.525,0,0,0-3.053-.627,6.19,6.19,0,0,0-1.077.33c-.134.055-.243.1-.32.142l-.092.046-.027.014-.009,0,0,0h0Zm3.256.572a3.009,3.009,0,0,1,.958,1.656,3.9,3.9,0,0,1,.093.677c0,.084,0,.149,0,.19,0,.021,0,.035,0,.043s0,.006,0,.007h0l.748.054.748.053h0s0,0,0,0V9.881c0-.007,0-.016,0-.026s0-.05,0-.085c0-.071,0-.168,0-.287a5.405,5.405,0,0,0-.128-.94,4.505,4.505,0,0,0-1.449-2.466Zm1.8,2.623c-.01.75-.01.75-.01.75H18.3l.081,0c.073,0,.183.014.317.033a4.8,4.8,0,0,1,.99.241,2.1,2.1,0,0,1,1.507,1.579l1.476-.268A3.588,3.588,0,0,0,20.2,9.463,6.3,6.3,0,0,0,18.9,9.143c-.173-.024-.317-.036-.42-.043l-.124-.007H18.3S18.3,9.092,18.288,9.842Zm2.9,2.607a2.8,2.8,0,0,1-.562,2.391,3.145,3.145,0,0,1-.6.559c-.084.06-.153.1-.2.129l-.048.027-.008,0h0s0,0,.329.674.329.674.329.674h0l0,0,.011-.005.031-.016.1-.055c.08-.047.189-.114.315-.2a4.649,4.649,0,0,0,.889-.829,4.29,4.29,0,0,0,.879-3.611Zm-8.363,5.505a1.7,1.7,0,0,1-1.677-1.723H9.65a3.2,3.2,0,0,0,3.177,3.223ZM11.15,16.231a1.7,1.7,0,0,1,1.677-1.723v-1.5A3.2,3.2,0,0,0,9.65,16.231Zm1.677-1.723A1.7,1.7,0,0,1,14.5,16.231H16a3.2,3.2,0,0,0-3.177-3.223Zm6.531,1.723a1.7,1.7,0,0,1-1.677,1.723v1.5a3.2,3.2,0,0,0,3.177-3.223Zm-1.677,1.723A1.7,1.7,0,0,1,16,16.231H14.5a3.2,3.2,0,0,0,3.177,3.223Zm0-3.446a1.7,1.7,0,0,1,1.677,1.723h1.5a3.2,3.2,0,0,0-3.177-3.223ZM4.434,16.981H10.4v-1.5H4.434Zm13.633-4.856-1.238.619.671,1.341,1.238-.619Zm-1.238.619a1.1,1.1,0,0,0-.538,1.336l1.416-.5a.406.406,0,0,1,0,.286.415.415,0,0,1-.2.216Zm-.538,1.336.464,1.324,1.416-.5-.464-1.324ZM11.9,20.655l1.21-.675-.731-1.31-1.21.675Zm1.21-.675a1.1,1.1,0,0,0,.478-1.358l-1.392.558a.406.406,0,0,1-.009-.286.414.414,0,0,1,.192-.224Zm.478-1.358-.522-1.3-1.392.558.522,1.3Z" fill="#454545"/>
</svg>
