<svg width="24" height="24" viewBox="0 0 24 24" fill="none" xmlns="http://www.w3.org/2000/svg">
<g clip-path="url(#clip0_896_10296)">
<path d="M8.11001 11.85C7.5392 11.8881 7.00419 12.1417 6.61336 12.5595C6.22253 12.9772 6.0051 13.5279 6.0051 14.1C6.0051 14.6721 6.22253 15.2228 6.61336 15.6406C7.00419 16.0583 7.5392 16.3119 8.11001 16.35H14.78C15.5981 16.3705 16.3929 16.0768 17.0012 15.5293C17.6094 14.9818 17.9847 14.2221 18.05 13.4064C18.1153 12.5907 17.8656 11.7809 17.3523 11.1436C16.8389 10.5063 16.1009 10.0899 15.29 9.98001C14.36 4.34001 6.21001 6.48001 8.14001 11.85" stroke="white" stroke-width="2" stroke-miterlimit="10" stroke-linecap="round" stroke-linejoin="round"/>
<path d="M2 15C2 16.8565 2.7375 18.637 4.05025 19.9497C5.36301 21.2625 7.14348 22 9 22L7.95 20.25" stroke="white" stroke-width="2" stroke-linecap="round" stroke-linejoin="round"/>
<path d="M22 9C22 7.14348 21.2625 5.36301 19.9497 4.05025C18.637 2.7375 16.8565 2 15 2L16.05 3.75" stroke="white" stroke-width="2" stroke-linecap="round" stroke-linejoin="round"/>
</g>
<defs>
<clipPath id="clip0_896_10296">
<rect width="24" height="24" fill="white"/>
</clipPath>
</defs>
</svg>
