<svg width="16" height="16" viewBox="0 0 16 16" fill="none" xmlns="http://www.w3.org/2000/svg">
<g clip-path="url(#clip0_5562_84571)">
<path d="M13.1 3H2.42701C2.25744 3 2.16481 3.19777 2.27336 3.32804L7 9V13.0172C7 13.1953 7.21543 13.2846 7.34142 13.1586L8.5 12L9 9L13.26 3.32C13.3589 3.18815 13.2648 3 13.1 3Z" fill="#F09819" stroke="#F09819"/>
<path d="M6.4989 14.75C6.36629 14.75 6.23911 14.6973 6.14534 14.6036C6.05158 14.5098 5.9989 14.3826 5.9989 14.25V9.4425L1.3639 4.345C1.18144 4.14394 1.06127 3.89424 1.01796 3.62621C0.97465 3.35818 1.01007 3.08334 1.11992 2.83505C1.22978 2.58676 1.40933 2.37569 1.63681 2.22746C1.86428 2.07923 2.12989 2.00021 2.4014 2H13.0964C13.3679 2.00021 13.6335 2.07923 13.861 2.22746C14.0885 2.37569 14.268 2.58676 14.3779 2.83505C14.4877 3.08334 14.5231 3.35818 14.4798 3.62621C14.4365 3.89424 14.3164 4.14394 14.1339 4.345L9.4989 9.4425V12.25C9.49885 12.3249 9.48198 12.3988 9.44952 12.4663C9.41707 12.5338 9.36987 12.5932 9.3114 12.64L6.8114 14.64C6.72276 14.7111 6.61254 14.7499 6.4989 14.75ZM2.4014 3C2.32359 3.00019 2.24751 3.02293 2.18236 3.06547C2.11721 3.108 2.06579 3.16851 2.03431 3.23966C2.00283 3.31082 1.99265 3.38957 2.005 3.46639C2.01735 3.54321 2.0517 3.6148 2.1039 3.6725L6.8689 8.9225C6.95053 9.01227 6.99674 9.12868 6.9989 9.25V13.21L8.4989 12V9.25C8.4986 9.12522 8.54497 9.00484 8.6289 8.9125L13.3939 3.6625C13.443 3.60454 13.4747 3.53387 13.4853 3.45867C13.4959 3.38346 13.485 3.30679 13.4539 3.2375C13.4228 3.16821 13.3727 3.10914 13.3095 3.06712C13.2462 3.02509 13.1723 3.00182 13.0964 3H2.4014Z" fill="#F09819"/>
</g>
<defs>
<clipPath id="clip0_5562_84571">
<rect width="16" height="16" fill="white"/>
</clipPath>
</defs>
</svg>
