<svg width="16" height="17" viewBox="0 0 16 17" fill="none" xmlns="http://www.w3.org/2000/svg">
<g clip-path="url(#clip0_2578_113325)">
<path d="M15.3957 6.89509L8.86944 6.89478C8.58125 6.89478 8.34766 7.12834 8.34766 7.41653V9.50137C8.34766 9.78949 8.58125 10.0231 8.86941 10.0231H12.5446C12.1422 11.0675 11.391 11.9422 10.4327 12.4979L11.9998 15.2107C14.5136 13.7569 15.9998 11.206 15.9998 8.3504C15.9998 7.94381 15.9698 7.65315 15.9099 7.32587C15.8643 7.07721 15.6485 6.89509 15.3957 6.89509Z" fill="#167EE6"/>
<path d="M7.99985 13.1557C6.20129 13.1557 4.63116 12.173 3.78788 10.7188L1.0752 12.2824C2.45566 14.6749 5.04173 16.2861 7.99985 16.2861C9.45101 16.2861 10.8203 15.8954 11.9999 15.2145V15.2107L10.4328 12.4979C9.71595 12.9137 8.88645 13.1557 7.99985 13.1557Z" fill="#12B347"/>
<path d="M12 15.2145V15.2107L10.4329 12.4979C9.71609 12.9136 8.88666 13.1556 8 13.1556V16.2861C9.45116 16.2861 10.8205 15.8954 12 15.2145Z" fill="#0F993E"/>
<path d="M3.13044 8.28608C3.13044 7.39954 3.37238 6.57014 3.78803 5.85336L1.07534 4.28979C0.390687 5.46564 0 6.8312 0 8.28608C0 9.74095 0.390687 11.1065 1.07534 12.2824L3.78803 10.7188C3.37238 10.002 3.13044 9.17261 3.13044 8.28608Z" fill="#FFD500"/>
<path d="M7.99985 3.41651C9.1727 3.41651 10.25 3.83326 11.0915 4.52648C11.2991 4.69748 11.6008 4.68513 11.7909 4.49498L13.2681 3.01779C13.4839 2.80204 13.4685 2.44888 13.238 2.24895C11.8282 1.02585 9.99382 0.286072 7.99985 0.286072C5.04173 0.286072 2.45566 1.89723 1.0752 4.28979L3.78788 5.85335C4.63116 4.3992 6.20129 3.41651 7.99985 3.41651Z" fill="#FF4B26"/>
<path d="M11.0916 4.52648C11.2992 4.69748 11.601 4.68513 11.7911 4.49498L13.2683 3.01779C13.484 2.80204 13.4686 2.44888 13.2382 2.24895C11.8283 1.02582 9.99397 0.286072 8 0.286072V3.41651C9.17281 3.41651 10.2502 3.83326 11.0916 4.52648Z" fill="#D93F21"/>
</g>
<defs>
<clipPath id="clip0_2578_113325">
<rect width="16" height="16" fill="white" transform="translate(0 0.286072)"/>
</clipPath>
</defs>
</svg>
