<svg width="60" height="60" viewBox="0 0 60 60" fill="none" xmlns="http://www.w3.org/2000/svg">
<rect width="60" height="60" rx="30" fill="white"/>
<mask id="mask0_4899_91509" style="mask-type:luminance" maskUnits="userSpaceOnUse" x="10" y="9" width="40" height="41">
<path d="M49.2229 26.1185H30.5015V33.8811H41.2777C40.2732 38.8126 36.0723 41.6437 30.5015 41.6437C23.9261 41.6437 18.6293 36.3468 18.6293 29.7715C18.6293 23.1962 23.9261 17.8994 30.5015 17.8994C33.3325 17.8994 35.8896 18.9039 37.8987 20.5478L43.7435 14.703C40.1818 11.598 35.6156 9.68018 30.5015 9.68018C19.3599 9.68018 10.4102 18.6299 10.4102 29.7715C10.4102 40.9131 19.3599 49.8628 30.5015 49.8628C40.5471 49.8628 49.6796 42.5569 49.6796 29.7715C49.6796 28.5843 49.4969 27.3057 49.2229 26.1185Z" fill="white"/>
</mask>
<g mask="url(#mask0_4899_91509)">
<path d="M8.58203 41.6437V17.8994L24.1071 29.7716L8.58203 41.6437Z" fill="#FBBC05"/>
</g>
<mask id="mask1_4899_91509" style="mask-type:luminance" maskUnits="userSpaceOnUse" x="10" y="9" width="40" height="41">
<path d="M49.2229 26.1185H30.5015V33.8811H41.2777C40.2732 38.8126 36.0723 41.6437 30.5015 41.6437C23.9261 41.6437 18.6293 36.3468 18.6293 29.7715C18.6293 23.1962 23.9261 17.8994 30.5015 17.8994C33.3325 17.8994 35.8896 18.9039 37.8987 20.5478L43.7435 14.703C40.1818 11.598 35.6156 9.68018 30.5015 9.68018C19.3599 9.68018 10.4102 18.6299 10.4102 29.7715C10.4102 40.9131 19.3599 49.8628 30.5015 49.8628C40.5471 49.8628 49.6796 42.5569 49.6796 29.7715C49.6796 28.5843 49.4969 27.3057 49.2229 26.1185Z" fill="white"/>
</mask>
<g mask="url(#mask1_4899_91509)">
<path d="M8.58203 17.8992L24.1071 29.7713L30.4998 24.2006L52.4176 20.6389V7.85352H8.58203V17.8992Z" fill="#EA4335"/>
</g>
<mask id="mask2_4899_91509" style="mask-type:luminance" maskUnits="userSpaceOnUse" x="10" y="9" width="40" height="41">
<path d="M49.2229 26.1185H30.5015V33.8811H41.2777C40.2732 38.8126 36.0723 41.6437 30.5015 41.6437C23.9261 41.6437 18.6293 36.3468 18.6293 29.7715C18.6293 23.1962 23.9261 17.8994 30.5015 17.8994C33.3325 17.8994 35.8896 18.9039 37.8987 20.5478L43.7435 14.703C40.1818 11.598 35.6156 9.68018 30.5015 9.68018C19.3599 9.68018 10.4102 18.6299 10.4102 29.7715C10.4102 40.9131 19.3599 49.8628 30.5015 49.8628C40.5471 49.8628 49.6796 42.5569 49.6796 29.7715C49.6796 28.5843 49.4969 27.3057 49.2229 26.1185Z" fill="white"/>
</mask>
<g mask="url(#mask2_4899_91509)">
<path d="M8.58203 41.6435L35.9793 20.6389L43.1939 21.5521L52.4176 7.85352V51.6891H8.58203V41.6435Z" fill="#34A853"/>
</g>
<mask id="mask3_4899_91509" style="mask-type:luminance" maskUnits="userSpaceOnUse" x="10" y="9" width="40" height="41">
<path d="M49.2229 26.1185H30.5015V33.8811H41.2777C40.2732 38.8126 36.0723 41.6437 30.5015 41.6437C23.9261 41.6437 18.6293 36.3468 18.6293 29.7715C18.6293 23.1962 23.9261 17.8994 30.5015 17.8994C33.3325 17.8994 35.8896 18.9039 37.8987 20.5478L43.7435 14.703C40.1818 11.598 35.6156 9.68018 30.5015 9.68018C19.3599 9.68018 10.4102 18.6299 10.4102 29.7715C10.4102 40.9131 19.3599 49.8628 30.5015 49.8628C40.5471 49.8628 49.6796 42.5569 49.6796 29.7715C49.6796 28.5843 49.4969 27.3057 49.2229 26.1185Z" fill="white"/>
</mask>
<g mask="url(#mask3_4899_91509)">
<path d="M52.4205 51.6894L24.11 29.7716L20.457 27.0318L52.4205 17.8994V51.6894Z" fill="#4285F4"/>
</g>
</svg>
