<svg width="270" height="95" viewBox="0 0 270 95" fill="none" xmlns="http://www.w3.org/2000/svg">
<path d="M38.854 90.6605C37.8135 92.0791 35.0716 93.6867 31.7618 93.3086C28.452 92.9305 20.0357 85.743 17.2931 71.8422C14.5504 57.9413 16.6928 51.3334 22.5624 50.2302C28.4292 49.1283 38.854 59.6428 39.2321 73.6389C39.6102 87.6343 38.854 90.6605 38.854 90.6605Z" fill="#734F3E"/>
<path d="M152.731 59.1653L147.489 78.8978L154.28 73.8989L160.796 76.2835L156.846 58.5063L152.731 59.1653Z" fill="#DB0B35"/>
<path d="M162.77 58.0128L188.283 67.5592L185.65 63.28C185.65 63.28 197.83 59.165 197.337 59.3292C196.843 59.4941 166.392 54.7202 166.392 54.7202L162.77 58.0128Z" fill="#DB0B35"/>
<path d="M152.763 59.1653L150.963 65.9422C153.467 64.4215 156.164 64.4229 158.284 64.8334L156.878 58.5063L152.763 59.1653Z" fill="#881620"/>
<path d="M183.678 57.3863C175.395 56.1264 166.424 54.7202 166.424 54.7202L162.803 58.0121L174.18 62.2692C173.937 60.2834 177.856 58.5013 183.678 57.3863Z" fill="#881620"/>
<path d="M95.9423 38.0464C95.9423 38.0464 166.739 20.8405 183.098 16.8918C199.457 12.9431 242.485 0.987276 246.198 0.0585735C246.885 -0.11323 248.366 0.0316493 250.533 1.33225C252.701 2.63285 255.129 5.7536 255.129 5.7536C255.129 5.7536 182.897 25.5496 162.313 30.6375C141.729 35.726 95.9423 38.0464 95.9423 38.0464Z" fill="#D1BB9E"/>
<path d="M251.199 1.78369C229.989 9.94262 184.91 19.1827 153.85 23.9815C127.913 30.2768 95.9432 38.0466 95.9432 38.0466C95.9432 38.0466 141.73 35.7262 162.314 30.6377C182.898 25.5498 255.13 5.75379 255.13 5.75379C255.13 5.75379 253.169 3.23884 251.199 1.78369Z" fill="#B9997B"/>
<path d="M151.697 24.5151C147.129 25.6239 142.41 26.77 137.741 27.9036C143.106 27.747 147.243 29.1593 150.286 32.9542C152.812 32.5637 155.221 32.149 157.455 31.7115C155.578 28.5604 153.521 26.2125 151.697 24.5151Z" fill="#B9997B"/>
<path d="M39.5767 90.66C38.5362 92.0786 35.7942 93.6862 32.4844 93.3081C29.1746 92.93 20.7584 85.7426 18.0157 71.8417C15.2731 57.9408 17.4154 51.3329 23.285 50.2297C29.1519 49.1278 39.5767 59.6423 39.9548 73.6384C40.3329 87.6338 39.5767 90.66 39.5767 90.66Z" fill="url(#paint0_linear_1330_98696)"/>
<path d="M23.1805 73.386L39.0885 70.5454C39.0885 70.5454 40.7673 79.4295 39.1472 84.9106C38.0584 88.5958 38.135 89.8943 33.6191 91.1086C29.4883 92.2195 23.8001 84.8002 23.1805 73.386Z" fill="#734F3E"/>
<path d="M23.7003 73.386L39.6083 70.5454C39.6083 70.5454 41.2863 79.4295 39.6669 84.9106C38.5781 88.5958 38.6547 89.8943 34.1388 91.1086C30.008 92.2195 24.3205 84.8002 23.7003 73.386Z" fill="#D1BB9E"/>
<path d="M36.1543 47.3037L22.5018 50.2354C22.5018 50.2354 33.1384 51.3649 37.2431 71.677C39.471 82.7027 36.9471 88.0245 34.8827 90.1344C33.9202 91.1177 32.7686 91.208 32.7686 91.208C32.7686 91.208 32.9749 91.3384 33.8636 91.1756C34.7523 91.0128 41.85 88.8476 41.85 88.8476C45.4517 82.3985 46.2893 73.8552 45.7863 66.7354C45.2833 59.6156 39.8395 50.4866 36.1543 47.3037Z" fill="#734F3E"/>
<path d="M36.8194 47.3037L23.1669 50.2354C23.1669 50.2354 33.8035 51.3649 37.9081 71.677C41.1745 87.8423 34.1388 91.1087 34.1388 91.1087L42.5144 88.847C46.1161 82.3978 46.9537 73.8545 46.4514 66.7347C45.9491 59.6156 40.5052 50.4866 36.8194 47.3037Z" fill="#D1BB9E"/>
<path d="M46.452 66.7354C45.949 59.6163 40.5052 50.4866 36.82 47.3037L32.0682 48.3242C37.2119 55.4281 40.9895 69.2276 38.7533 78.4463C39.1135 88.7959 34.1395 91.1087 34.1395 91.1087L42.515 88.847C46.1167 82.3978 46.9543 73.8545 46.452 66.7354Z" fill="#B99B78"/>
<path d="M31.0035 40.9939C39.1632 46.7055 51.1038 87.7064 34.4189 93.3131C44.7092 91.7186 68.794 83.1298 85.777 78.3856C115.213 70.1631 142.616 62.9557 160.338 58.9456C188.285 52.622 251.117 40.9939 254.584 40.3819C258.052 39.7699 260.5 37.3218 262.132 34.2618C263.764 31.2018 272.74 14.4741 261.316 0.397949C246.87 7.15071 229.169 11.6894 176.745 23.2637C114.901 36.9175 55.5583 39.8306 31.0035 40.9939Z" fill="#F3F0DB"/>
<path d="M188.979 48.4933C149.092 57.6099 73.6858 76.3095 42.7827 78.2904C42.4211 85.5131 40.0524 91.4234 34.4305 93.3125C44.7208 91.718 68.805 83.1292 85.7886 78.385C115.224 70.1626 142.627 62.9551 160.349 58.945C188.296 52.6214 251.128 40.9933 254.596 40.3813C258.064 39.7693 260.512 37.3213 262.144 34.2612C262.575 33.4512 263.522 31.6766 264.469 29.2534C250.785 35.221 229.815 39.1594 188.979 48.4933Z" fill="#D1BB9E"/>
<path d="M159.873 36.589C158.354 32.9101 156.504 30.0005 154.668 27.7305C151.671 28.2831 148.689 28.813 145.726 29.3195C148.595 30.676 150.878 33.0674 152.615 36.8091C155.031 42.0122 157.837 54.202 151.421 61.0416C154.576 60.2813 157.53 59.5886 160.256 58.971C162.842 53.5071 163.563 45.5269 159.873 36.589Z" fill="#D1BB9E"/>
<path d="M32.2366 40.9375C40.214 46.5221 51.7152 85.7892 36.6317 92.7786C35.6802 93.0787 35.1372 93.2022 34.419 93.3133C51.1039 87.7066 39.1722 46.7064 31.0126 40.9941L32.2366 40.9375Z" fill="#A68160"/>
<path d="M153.802 23.7136C153.802 23.7136 157.749 22.2591 158.99 21.7906C159.429 21.625 159.915 21.692 160.299 21.9597C165.415 25.5234 168.217 35.6687 165.397 42.5795C163.034 38.9482 153.802 23.7136 153.802 23.7136Z" fill="#981724"/>
<path d="M141.039 27.0916C157.236 26.3616 159.308 55.8586 155.154 60.1123C155.154 60.1123 154.718 60.2455 154.349 60.3124C154.316 60.8478 154.316 61.4509 156.426 61.0155C158.535 60.5801 162.72 59.5086 164.762 58.8393C166.805 58.1694 167.565 51.3407 167.095 46.1735C166.418 38.7308 164.367 29.944 155.867 23.5258C154.046 22.7455 153.492 23.0739 152.496 23.3878C151.501 23.7025 141.918 25.9946 140.791 26.3616C139.664 26.7287 139.507 27.122 139.585 27.4883C140.477 27.3048 141.039 27.0916 141.039 27.0916Z" fill="#DB0B35"/>
<path d="M155.153 60.1124C155.153 60.1124 154.717 60.2455 154.349 60.3125C154.315 60.8479 154.315 61.4509 156.425 61.0156C158.534 60.5802 162.72 59.5087 164.762 58.8394C166.63 58.2267 167.422 52.4668 167.185 47.5342C164.159 48.5036 160.68 49.1542 156.929 49.3536C157.243 54.3891 156.551 58.6814 155.153 60.1124Z" fill="#A80F27"/>
<path d="M155.867 23.5258C154.046 22.7455 153.492 23.0739 152.496 23.3878C151.5 23.7025 141.918 25.9946 140.791 26.3616C139.664 26.7287 139.507 27.1213 139.585 27.4883C140.476 27.3048 141.038 27.0916 141.038 27.0916C146.032 26.8667 149.682 29.5169 152.222 33.4124C155.624 32.2071 158.784 31.2984 162.421 30.6443C160.83 28.0997 158.718 25.6786 155.867 23.5258Z" fill="#A80F27"/>
<path d="M157.275 58.6254C158.568 54.9906 159.152 47.2698 156.149 38.4478C153.52 30.7236 148.337 26.2429 142.708 25.8496C141.76 26.0904 141.05 26.2774 140.791 26.3616C139.664 26.7286 139.507 27.1212 139.586 27.4883C140.476 27.3048 141.039 27.0916 141.039 27.0916C157.237 26.3616 159.308 55.8586 155.154 60.1123C155.154 60.1123 154.717 60.2454 154.349 60.3124C154.32 60.776 154.319 61.288 155.683 61.1362C156.326 60.6346 156.856 59.8018 157.275 58.6254Z" fill="#981724"/>
<path d="M34.1513 71.5195L23.7003 73.3859C24.0038 78.9816 25.5273 83.6134 27.4868 86.7548C34.0084 82.8737 34.7012 75.9912 34.1513 71.5195Z" fill="#F3F0DB"/>
<path d="M226.023 12.8929C226.023 12.8929 254.021 5.84274 260.765 1.34619C266.385 5.12655 265.772 20.2494 265.772 20.2494C265.772 20.2494 264.852 12.0753 256.371 7.88575C244.518 10.6449 226.023 12.8929 226.023 12.8929Z" fill="#F2F2E9"/>
<defs>
<linearGradient id="paint0_linear_1330_98696" x1="27.463" y1="71.5266" x2="41.4435" y2="74.0945" gradientUnits="userSpaceOnUse">
<stop stop-color="#A68160"/>
<stop offset="1" stop-color="#966540"/>
</linearGradient>
</defs>
</svg>
