<svg id="Icon" xmlns="http://www.w3.org/2000/svg" xmlns:xlink="http://www.w3.org/1999/xlink" width="24" height="24" viewBox="0 0 24 24">
  <defs>
    <clipPath id="clip-path">
      <rect id="Rectangle_44428" data-name="Rectangle 44428" width="19" height="20" transform="translate(0.171)" fill="#fff" stroke="#707070" stroke-width="1"/>
    </clipPath>
  </defs>
  <rect id="background" width="24" height="24" fill="none"/>
  <g id="Mask_Group_370" data-name="Mask Group 370" transform="translate(-0.171)" clip-path="url(#clip-path)">
    <g id="building_1_" data-name="building (1)" transform="translate(0 0)">
      <g id="Group_41958" data-name="Group 41958">
        <g id="Group_41957" data-name="Group 41957">
          <path id="Path_44244" data-name="Path 44244" d="M19.243,18.917H17.286V8.154a.326.326,0,0,0-.326-.326H12.394V.326A.326.326,0,0,0,12.068,0H3.588a.326.326,0,0,0-.326.326V18.917H.326a.326.326,0,1,0,0,.652H19.243a.326.326,0,0,0,0-.652Zm-12.394,0h-1.3V15.981a.326.326,0,0,1,.326-.326h.652a.326.326,0,0,1,.326.326Zm1.3-10.763V18.917H7.5V15.981A.978.978,0,0,0,6.523,15H5.871a.978.978,0,0,0-.978.978v2.935H3.914V.652h7.828V7.828H8.48A.326.326,0,0,0,8.154,8.154Zm8.48,10.763H8.806V8.48h7.828Z"/>
          <path id="Path_44245" data-name="Path 44245" d="M8.95,3.733H6.993a.326.326,0,0,0-.326.326V6.016a.326.326,0,0,0,.326.326H8.95a.326.326,0,0,0,.326-.326V4.059A.326.326,0,0,0,8.95,3.733ZM8.624,5.69h-1.3v-1.3h1.3Z" transform="translate(1.487 0.833)"/>
          <path id="Path_44246" data-name="Path 44246" d="M8.95,1.067H6.993a.326.326,0,0,0-.326.326V3.35a.326.326,0,0,0,.326.326H8.95a.326.326,0,0,0,.326-.326V1.393A.326.326,0,0,0,8.95,1.067ZM8.624,3.024h-1.3v-1.3h1.3Z" transform="translate(1.487 0.238)"/>
          <path id="Path_44247" data-name="Path 44247" d="M6.283,3.733H4.326A.326.326,0,0,0,4,4.059V6.016a.326.326,0,0,0,.326.326H6.283a.326.326,0,0,0,.326-.326V4.059A.326.326,0,0,0,6.283,3.733ZM5.957,5.69h-1.3v-1.3h1.3Z" transform="translate(0.892 0.833)"/>
          <path id="Path_44248" data-name="Path 44248" d="M6.283,1.067H4.326A.326.326,0,0,0,4,1.393V3.35a.326.326,0,0,0,.326.326H6.283a.326.326,0,0,0,.326-.326V1.393A.326.326,0,0,0,6.283,1.067ZM5.957,3.024h-1.3v-1.3h1.3Z" transform="translate(0.892 0.238)"/>
          <path id="Path_44249" data-name="Path 44249" d="M6.283,6.4H4.326A.326.326,0,0,0,4,6.726V8.683a.326.326,0,0,0,.326.326H6.283a.326.326,0,0,0,.326-.326V6.726A.326.326,0,0,0,6.283,6.4ZM5.957,8.357h-1.3v-1.3h1.3Z" transform="translate(0.892 1.428)"/>
          <path id="Path_44250" data-name="Path 44250" d="M6.283,9.067H4.326A.326.326,0,0,0,4,9.393V11.35a.326.326,0,0,0,.326.326H6.283a.326.326,0,0,0,.326-.326V9.393A.326.326,0,0,0,6.283,9.067Zm-.326,1.957h-1.3v-1.3h1.3Z" transform="translate(0.892 2.022)"/>
          <path id="Path_44251" data-name="Path 44251" d="M10.993,12.743H12.95a.326.326,0,0,0,.326-.326V10.459a.326.326,0,0,0-.326-.326H10.993a.326.326,0,0,0-.326.326v1.957A.326.326,0,0,0,10.993,12.743Zm.326-1.957h1.3v1.3h-1.3Z" transform="translate(2.379 2.26)"/>
          <path id="Path_44252" data-name="Path 44252" d="M10.993,10.076H12.95a.326.326,0,0,0,.326-.326V7.793a.326.326,0,0,0-.326-.326H10.993a.326.326,0,0,0-.326.326V9.75A.326.326,0,0,0,10.993,10.076Zm.326-1.957h1.3v1.3h-1.3Z" transform="translate(2.379 1.666)"/>
          <path id="Path_44253" data-name="Path 44253" d="M10.993,15.409H12.95a.326.326,0,0,0,.326-.326V13.126a.326.326,0,0,0-.326-.326H10.993a.326.326,0,0,0-.326.326v1.957A.326.326,0,0,0,10.993,15.409Zm.326-1.957h1.3v1.3h-1.3Z" transform="translate(2.379 2.855)"/>
          <path id="Path_44254" data-name="Path 44254" d="M8.326,12.743h1.957a.326.326,0,0,0,.326-.326V10.459a.326.326,0,0,0-.326-.326H8.326A.326.326,0,0,0,8,10.459v1.957A.326.326,0,0,0,8.326,12.743Zm.326-1.957h1.3v1.3h-1.3Z" transform="translate(1.785 2.26)"/>
          <path id="Path_44255" data-name="Path 44255" d="M8.326,10.076h1.957a.326.326,0,0,0,.326-.326V7.793a.326.326,0,0,0-.326-.326H8.326A.326.326,0,0,0,8,7.793V9.75A.326.326,0,0,0,8.326,10.076Zm.326-1.957h1.3v1.3h-1.3Z" transform="translate(1.785 1.666)"/>
          <path id="Path_44256" data-name="Path 44256" d="M8.326,15.409h1.957a.326.326,0,0,0,.326-.326V13.126a.326.326,0,0,0-.326-.326H8.326A.326.326,0,0,0,8,13.126v1.957A.326.326,0,0,0,8.326,15.409Zm.326-1.957h1.3v1.3h-1.3Z" transform="translate(1.785 2.855)"/>
        </g>
      </g>
    </g>
  </g>
</svg>
