<svg width="54" height="22" viewBox="0 0 54 22" fill="none" xmlns="http://www.w3.org/2000/svg">
<path fill-rule="evenodd" clip-rule="evenodd" d="M42.4696 0.000155895C40.4038 -0.0106224 38.378 0.569228 36.6307 1.6714C34.8835 2.77357 33.4876 4.35214 32.6076 6.22116C32.6176 3.53316 29.9666 0.361157 26.8706 0.358157H16.8906V21.8882H26.1966C27.8323 21.8781 29.4038 21.25 30.5958 20.1297C31.7877 19.0095 32.5121 17.4801 32.6236 15.8482C33.526 17.6924 34.9276 19.2466 36.6692 20.3341C38.4107 21.4216 40.4224 21.9988 42.4756 22.0002C45.3857 21.9709 48.1666 20.7943 50.214 18.7262C52.2614 16.658 53.4098 13.8653 53.4096 10.9552C53.4193 9.51509 53.1431 8.08742 52.5969 6.75491C52.0507 5.42239 51.2455 4.21154 50.2279 3.19254C49.2103 2.17353 48.0005 1.36665 46.6688 0.818652C45.337 0.270655 43.9097 -0.00755225 42.4696 0.000155895ZM25.4146 16.8792H22.4536V13.2452H25.4176C25.8478 13.3168 26.2386 13.5387 26.5205 13.8714C26.8025 14.2041 26.9572 14.6261 26.9572 15.0622C26.9572 15.4983 26.8025 15.9202 26.5205 16.2529C26.2386 16.5856 25.8478 16.8075 25.4176 16.8792H25.4146ZM25.4246 8.79916H22.4636V5.16116H25.4276C25.8699 5.20508 26.2777 5.41938 26.5648 5.7587C26.8518 6.09802 26.9956 6.53572 26.9656 6.97916C26.9951 7.42332 26.8506 7.86153 26.5629 8.20116C26.2751 8.54079 25.8676 8.75523 25.4246 8.79916ZM29.3656 10.9632C30.2149 10.7308 30.98 10.2603 31.5706 9.60715C31.4228 10.6019 31.4262 11.6134 31.5806 12.6072C31.0513 11.8203 30.268 11.2389 29.3616 10.9602L29.3656 10.9632ZM42.4796 16.4432C41.3958 16.443 40.3364 16.1214 39.4354 15.5191C38.5343 14.9169 37.8321 14.0609 37.4175 13.0596C37.0029 12.0582 36.8945 10.9564 37.106 9.89345C37.3176 8.8305 37.8396 7.85415 38.606 7.08786C39.3725 6.32157 40.3489 5.79975 41.4119 5.58838C42.4749 5.37701 43.5767 5.48559 44.578 5.90039C45.5792 6.31519 46.435 7.01758 47.0371 7.91874C47.6393 8.8199 47.9606 9.87936 47.9606 10.9632C47.9606 11.6829 47.8188 12.3956 47.5434 13.0605C47.2679 13.7254 46.8642 14.3296 46.3552 14.8385C45.8462 15.3473 45.242 15.751 44.577 16.0263C43.9121 16.3016 43.1994 16.4433 42.4796 16.4432Z" fill="black"/>
<path d="M42.4799 15.2713C44.8591 15.2713 46.7879 13.3425 46.7879 10.9633C46.7879 8.58403 44.8591 6.65527 42.4799 6.65527C40.1006 6.65527 38.1719 8.58403 38.1719 10.9633C38.1719 13.3425 40.1006 15.2713 42.4799 15.2713Z" fill="black"/>
<path fill-rule="evenodd" clip-rule="evenodd" d="M15.67 21.9001H9.821V13.5481H6.027V21.9001H0.021L0 0.370117H6.026V8.38012H9.826V0.370117H15.675V21.9001H15.67Z" fill="black"/>
<path fill-rule="evenodd" clip-rule="evenodd" d="M52.212 1.86047C52.2566 1.8633 52.3007 1.85057 52.337 1.82447C52.3526 1.81301 52.3651 1.7979 52.3735 1.78046C52.3818 1.76302 52.3858 1.7438 52.385 1.72447C52.3865 1.70546 52.3833 1.68637 52.3756 1.66891C52.3679 1.65145 52.356 1.63618 52.341 1.62447C52.3051 1.60022 52.2623 1.58829 52.219 1.59047H52.008V1.86247H52.222L52.212 1.86047ZM51.836 1.44147H52.219C52.2668 1.4398 52.3145 1.4478 52.3592 1.46498C52.4038 1.48216 52.4446 1.50818 52.479 1.54147C52.5028 1.56483 52.5214 1.59292 52.5336 1.62393C52.5458 1.65494 52.5514 1.68817 52.55 1.72147V1.72847C52.553 1.79012 52.5331 1.8507 52.494 1.89847C52.4563 1.94295 52.4061 1.97502 52.35 1.99047L52.581 2.31347H52.386L52.177 2.01347H52V2.31347H51.837V1.44547L51.836 1.44147ZM52.165 2.63547C52.2987 2.63591 52.4302 2.60017 52.5453 2.53205C52.6604 2.46392 52.755 2.36594 52.819 2.24847C52.83 2.22847 52.839 2.20747 52.848 2.18647C52.9211 2.00041 52.9211 1.79353 52.848 1.60747C52.7951 1.47933 52.7067 1.36903 52.5931 1.28963C52.4795 1.21023 52.3455 1.16506 52.207 1.15947H52.174C52.0744 1.1587 51.9758 1.17951 51.885 1.22047C51.7748 1.27004 51.6782 1.34531 51.6032 1.43996C51.5282 1.5346 51.477 1.64586 51.4539 1.7644C51.4307 1.88293 51.4364 2.00529 51.4703 2.12118C51.5043 2.23708 51.5655 2.34314 51.649 2.43047C51.7159 2.49771 51.7958 2.55064 51.8838 2.58606C51.9718 2.62147 52.0661 2.63862 52.161 2.63647L52.165 2.63547ZM52.165 2.72647C52.0558 2.72743 51.9475 2.70671 51.8464 2.66551C51.7453 2.62431 51.6534 2.56346 51.576 2.48647C51.5047 2.40881 51.4484 2.31862 51.41 2.22047C51.345 2.06358 51.3304 1.89039 51.3681 1.72483C51.4058 1.55927 51.494 1.4095 51.6205 1.2962C51.7469 1.18289 51.9054 1.11163 52.0741 1.09227C52.2428 1.0729 52.4134 1.10638 52.5622 1.18808C52.7111 1.26978 52.8309 1.39568 52.9051 1.54839C52.9794 1.70109 53.0044 1.87308 52.9767 2.04061C52.949 2.20814 52.87 2.36294 52.7506 2.48364C52.6311 2.60435 52.4772 2.685 52.31 2.71447C52.2628 2.72297 52.2149 2.72732 52.167 2.72747L52.165 2.72647Z" fill="black"/>
</svg>
