<svg width="104" height="104" viewBox="0 0 104 104" fill="none" xmlns="http://www.w3.org/2000/svg">
<path d="M53.341 59.0735C53.7866 57.7321 53.8107 56.2805 53.4098 54.9243L59.7105 41.9603C59.8647 41.6529 59.958 41.317 59.985 40.9722C60.0121 40.6275 59.9723 40.2806 59.868 39.9517C59.7636 39.6229 59.5969 39.3186 59.3774 39.0566C59.1579 38.7946 58.8899 38.58 58.5892 38.4254C58.2884 38.2707 57.9608 38.1791 57.6254 38.1557C57.2899 38.1323 56.9533 38.1778 56.635 38.2893C56.3167 38.4008 56.0231 38.5763 55.7713 38.8055C55.5195 39.0347 55.3144 39.313 55.1679 39.6244L49.7903 50.6813C46.5787 49.0354 41.6971 46.5321 37.7655 44.5343C34.1072 42.6625 31.4916 40.9844 27.0432 40.9844H24.7995C27.3426 40.9849 29.808 40.0833 31.7802 38.4316C33.7523 36.7799 35.1106 34.4792 35.626 31.9173C36.1415 29.3554 35.7825 26.689 34.6096 24.3677C33.4368 22.0464 31.5218 20.2121 29.1875 19.174C26.8532 18.136 24.2424 17.9577 21.7952 18.6692C19.348 19.3808 17.2142 20.9386 15.7533 23.0801C14.2925 25.2216 13.5941 27.8157 13.7759 30.4252C13.9577 33.0348 15.0084 35.5 16.7511 37.4053C17.784 38.537 19.0316 39.4387 20.4167 40.0546C21.8018 40.6705 23.2951 40.9875 24.804 40.986C20.5284 40.9957 16.4295 42.7421 13.3991 45.8452C11.8942 47.3815 10.7009 49.2101 9.88853 51.2248C9.07616 53.2395 8.66089 55.4001 8.66681 57.5813V65.975C8.66859 67.6943 9.19426 69.3698 10.1699 70.7658C11.1455 72.1617 12.522 73.2079 14.1056 73.7571V88.3562C14.1056 88.6993 14.1713 89.039 14.2989 89.3559C14.4266 89.6729 14.6136 89.9609 14.8494 90.2035C15.0852 90.4461 15.3652 90.6385 15.6733 90.7698C15.9814 90.9011 16.3116 90.9687 16.645 90.9687H32.963C33.2965 90.9687 33.6267 90.9011 33.9348 90.7698C34.2429 90.6385 34.5228 90.4461 34.7586 90.2035C34.9944 89.9609 35.1815 89.6729 35.3091 89.3559C35.4367 89.039 35.5024 88.6993 35.5024 88.3562V59.0043L43.6315 63.1858C44.519 63.6436 45.4914 63.9006 46.4835 63.9396C47.4755 63.9786 48.4642 63.7987 49.383 63.4118C50.3019 63.025 51.1295 62.4403 51.8104 61.6971C52.4913 60.9538 53.0097 60.0692 53.3306 59.1027L53.341 59.0735Z" fill="white"/>
<path d="M87.3552 13H49.2789C48.2312 12.9998 47.1936 13.212 46.2256 13.6244C45.2575 14.0368 44.3779 14.6413 43.637 15.4035C42.8961 16.1658 42.3085 17.0706 41.9076 18.0666C41.5067 19.0625 41.3005 20.1299 41.3007 21.2078V40.5078L47.5178 43.6873L50.6233 37.2944C51.0609 36.3572 51.6753 35.5189 52.4308 34.8283C53.1863 34.1377 54.0679 33.6087 55.0241 33.2721C55.9803 32.9355 56.9921 32.7979 58.0005 32.8675C59.0089 32.9371 59.9937 33.2124 60.8977 33.6773C61.8016 34.1423 62.6066 34.7877 63.2657 35.5759C63.9249 36.364 64.425 37.2793 64.7369 38.2682C65.0489 39.2572 65.1664 40.3001 65.0828 41.3363C64.9991 42.3724 64.7158 43.3811 64.2495 44.3036L58.7151 55.6924C58.8632 57.2046 58.7283 58.732 58.3178 60.192H61.973L52.3367 87.4646C52.218 87.7881 52.1628 88.1326 52.1745 88.4782C52.1861 88.8237 52.2644 89.1635 52.4046 89.4777C52.5449 89.7919 52.7443 90.0744 52.9915 90.3087C53.2387 90.543 53.5286 90.7245 53.8444 90.8427C54.1603 90.9608 54.4958 91.0133 54.8315 90.9971C55.1672 90.9809 55.4965 90.8963 55.8002 90.7482C56.1039 90.6 56.376 90.3914 56.6007 90.1343C56.8254 89.8771 56.9983 89.5767 57.1093 89.2503L67.3805 60.1935H69.1595L79.5353 89.2596C79.7676 89.91 80.2417 90.4389 80.8531 90.7299C81.4645 91.0208 82.1631 91.0499 82.7954 90.8109C83.4277 90.5719 83.9418 90.0842 84.2246 89.4552C84.5074 88.8262 84.5358 88.1074 84.3034 87.457L74.564 60.192H87.3552C89.4711 60.192 91.5004 59.3272 92.9966 57.788C94.4929 56.2487 95.3334 54.161 95.3334 51.9842V21.2078C95.3334 19.0309 94.4929 16.9433 92.9966 15.404C91.5004 13.8647 89.4711 13 87.3552 13ZM81.9134 49.0014H70.5234C69.8499 49.0014 69.204 48.7261 68.7277 48.2362C68.2515 47.7463 67.9839 47.0818 67.9839 46.3889C67.9839 45.696 68.2515 45.0316 68.7277 44.5416C69.204 44.0517 69.8499 43.7764 70.5234 43.7764H81.9134C82.5869 43.7764 83.2328 44.0517 83.709 44.5416C84.1852 45.0316 84.4528 45.696 84.4528 46.3889C84.4528 47.0818 84.1852 47.7463 83.709 48.2362C83.2328 48.7261 82.5869 49.0014 81.9134 49.0014ZM81.9134 39.2077H70.5234C69.8499 39.2077 69.204 38.9324 68.7277 38.4425C68.2515 37.9526 67.9839 37.2881 67.9839 36.5952C67.9839 35.9023 68.2515 35.2379 68.7277 34.7479C69.204 34.258 69.8499 33.9827 70.5234 33.9827H81.9134C82.5869 33.9827 83.2328 34.258 83.709 34.7479C84.1852 35.2379 84.4528 35.9023 84.4528 36.5952C84.4528 37.2881 84.1852 37.9526 83.709 38.4425C83.2328 38.9324 82.5869 39.2077 81.9134 39.2077ZM81.9134 29.4155H54.7267C54.0532 29.4155 53.4073 29.1403 52.9311 28.6504C52.4549 28.1604 52.1873 27.4959 52.1873 26.8031C52.1873 26.1102 52.4549 25.4457 52.9311 24.9558C53.4073 24.4658 54.0532 24.1906 54.7267 24.1906H81.9134C82.5869 24.1906 83.2328 24.4658 83.709 24.9558C84.1852 25.4457 84.4528 26.1102 84.4528 26.8031C84.4528 27.4959 84.1852 28.1604 83.709 28.6504C83.2328 29.1403 82.5869 29.4155 81.9134 29.4155Z" fill="white"/>
</svg>
