<svg width="24" height="24" viewBox="0 0 24 24" fill="none" xmlns="http://www.w3.org/2000/svg">
<path d="M7.53683 8.86105H11.1842M7.53683 11.6242H11.1842M9.34211 18.9926V16.2295M4.81051 18.9926V7.22528C4.81051 5.74422 5.54739 5 7.0137 5H11.6042C13.0705 5 13.8 5.74422 13.8 7.22528V18.9926M4 18.9926H20.2105M17.8379 19V15.7137M17.8526 10.8063C16.9537 10.8063 16.2316 11.5284 16.2316 12.4274V14.1C16.2316 14.9989 16.9537 15.721 17.8526 15.721C18.7516 15.721 19.4737 14.9989 19.4737 14.1V12.4274C19.4737 11.5284 18.7516 10.8063 17.8526 10.8063Z" stroke="#6E6E6E" stroke-width="1.5" stroke-miterlimit="10" stroke-linecap="round" stroke-linejoin="round"/>
</svg>
