<svg width="120" height="120" viewBox="0 0 120 120" fill="none" xmlns="http://www.w3.org/2000/svg">
<mask id="mask0_8408_28909" style="mask-type:luminance" maskUnits="userSpaceOnUse" x="0" y="0" width="120" height="120">
<path d="M120 0H0V120H120V0Z" fill="white"/>
</mask>
<g mask="url(#mask0_8408_28909)">
<path d="M103.501 15.0002H97.3147C96.9171 15.0002 96.5357 15.1581 96.2546 15.4393C95.9734 15.7205 95.8154 16.1018 95.8154 16.4995V27.4637H93.9758V16.4995C93.9758 16.1018 93.8178 15.7205 93.5366 15.4393C93.2555 15.1581 92.8741 15.0002 92.4765 15.0002H86.2861C85.8884 15.0002 85.5071 15.1581 85.2259 15.4393C84.9447 15.7205 84.7868 16.1018 84.7868 16.4995V27.4637H82.9471V16.4995C82.9471 16.3022 82.9082 16.1069 82.8326 15.9247C82.7569 15.7425 82.6461 15.577 82.5064 15.4377C82.3667 15.2984 82.2008 15.1881 82.0184 15.113C81.836 15.0379 81.6405 14.9996 81.4432 15.0002H75.2574C75.0605 15.0002 74.8656 15.039 74.6837 15.1143C74.5018 15.1897 74.3365 15.3001 74.1973 15.4393C74.058 15.5785 73.9476 15.7438 73.8723 15.9257C73.7969 16.1076 73.7581 16.3026 73.7581 16.4995V35.7789L61.0554 23.2878C60.775 23.0122 60.3976 22.8578 60.0045 22.8578C59.6114 22.8578 59.234 23.0122 58.9536 23.2878L46.2509 35.7789V16.4995C46.2509 16.3018 46.2118 16.1061 46.1359 15.9236C46.06 15.7411 45.9487 15.5754 45.8085 15.436C45.6683 15.2967 45.5019 15.1865 45.319 15.1117C45.136 15.0368 44.9401 14.999 44.7424 15.0002H38.5658C38.1682 15.0002 37.7868 15.1581 37.5056 15.4393C37.2245 15.7205 37.0665 16.1018 37.0665 16.4995V27.4637H35.2269V16.4995C35.2269 16.3006 35.1873 16.1038 35.1106 15.9204C35.0338 15.7369 34.9213 15.5706 34.7796 15.4311C34.6379 15.2916 34.4699 15.1816 34.2854 15.1076C34.1008 15.0337 33.9034 14.9971 33.7045 15.0002H27.5326C27.1349 15.0002 26.7536 15.1581 26.4724 15.4393C26.1912 15.7205 26.0332 16.1018 26.0332 16.4995V27.4637H24.1936V16.4995C24.1936 16.3022 24.1547 16.1069 24.079 15.9247C24.0034 15.7425 23.8926 15.577 23.7528 15.4377C23.6131 15.2984 23.4473 15.1881 23.2649 15.113C23.0824 15.0379 22.887 14.9996 22.6897 15.0002H16.4993C16.1017 15.0002 15.7203 15.1581 15.4391 15.4393C15.158 15.7205 15 16.1018 15 16.4995V103.501C15 103.698 15.0388 103.893 15.1141 104.074C15.1895 104.256 15.2999 104.422 15.4391 104.561C15.5784 104.7 15.7436 104.811 15.9255 104.886C16.1075 104.961 16.3024 105 16.4993 105H103.501C103.697 105 103.892 104.961 104.074 104.886C104.256 104.811 104.421 104.7 104.561 104.561C104.7 104.422 104.81 104.256 104.886 104.074C104.961 103.893 105 103.698 105 103.501V16.4995C105 16.3026 104.961 16.1076 104.886 15.9257C104.81 15.7438 104.7 15.5785 104.561 15.4393C104.421 15.3001 104.256 15.1897 104.074 15.1143C103.892 15.039 103.697 15.0002 103.501 15.0002ZM76.7521 48.6104H102.001V79.0013H76.7521V48.6104ZM76.7521 18.0034H79.9393V28.963C79.9393 29.3607 80.0973 29.742 80.3785 30.0232C80.6596 30.3044 81.041 30.4624 81.4386 30.4624H86.2815C86.6791 30.4624 87.0605 30.3044 87.3417 30.0232C87.6228 29.742 87.7808 29.3607 87.7808 28.963V18.0034H90.968V28.963C90.968 29.3607 91.1259 29.742 91.4071 30.0232C91.6883 30.3044 92.0696 30.4624 92.4673 30.4624H97.3101C97.7078 30.4624 98.0891 30.3044 98.3703 30.0232C98.6515 29.742 98.8094 29.3607 98.8094 28.963V18.0034H101.997V45.598H76.7521V18.0034ZM60.0022 26.4611L73.7535 39.9871V68.3636H68.3772V59.9196C68.3772 57.6984 67.4948 55.5682 65.9242 53.9976C64.3536 52.427 62.2234 51.5446 60.0022 51.5446C57.781 51.5446 55.6508 52.427 54.0802 53.9976C52.5096 55.5682 51.6272 57.6984 51.6272 59.9196V68.3636H46.2509V39.9871L60.0022 26.4611ZM65.3786 68.3636H54.6259V59.9196C54.6259 59.2136 54.7649 58.5145 55.0351 57.8622C55.3053 57.2099 55.7013 56.6172 56.2006 56.118C56.6998 55.6187 57.2925 55.2227 57.9448 54.9525C58.5971 54.6823 59.2962 54.5433 60.0022 54.5433C60.7082 54.5433 61.4074 54.6823 62.0597 54.9525C62.7119 55.2227 63.3046 55.6187 63.8039 56.118C64.3031 56.6172 64.6991 57.2099 64.9693 57.8622C65.2395 58.5145 65.3786 59.2136 65.3786 59.9196V68.3636ZM18.0032 48.6104H43.2523V79.0013H18.0032V48.6104ZM21.1904 18.0034V28.963C21.1904 29.3607 21.3484 29.742 21.6295 30.0232C21.9107 30.3044 22.2921 30.4624 22.6897 30.4624H27.5326C27.9302 30.4624 28.3115 30.3044 28.5927 30.0232C28.8739 29.742 29.0319 29.3607 29.0319 28.963V18.0034H32.219V28.963C32.219 29.3607 32.377 29.742 32.6582 30.0232C32.9394 30.3044 33.3207 30.4624 33.7183 30.4624H38.5612C38.9588 30.4624 39.3402 30.3044 39.6214 30.0232C39.9025 29.742 40.0605 29.3607 40.0605 28.963V18.0034H43.2477V45.598H18.0032V18.0034H21.1904ZM18.0032 81.9953H43.2523V102.001H18.0032V81.9953ZM46.2509 71.3576H73.7535V102.001H68.3772V93.5574C68.3772 91.3363 67.4948 89.2061 65.9242 87.6354C64.3536 86.0648 62.2234 85.1825 60.0022 85.1825C57.781 85.1825 55.6508 86.0648 54.0802 87.6354C52.5096 89.2061 51.6272 91.3363 51.6272 93.5574V102.001H46.2509V71.3576ZM54.6259 102.001V93.5574C54.6259 92.8514 54.7649 92.1523 55.0351 91.5C55.3053 90.8477 55.7013 90.255 56.2006 89.7558C56.6998 89.2565 57.2925 88.8605 57.9448 88.5903C58.5971 88.3202 59.2962 88.1811 60.0022 88.1811C60.7082 88.1811 61.4074 88.3202 62.0597 88.5903C62.7119 88.8605 63.3046 89.2565 63.8039 89.7558C64.3031 90.255 64.6991 90.8477 64.9693 91.5C65.2395 92.1523 65.3786 92.8514 65.3786 93.5574V102.001H54.6259ZM76.7521 102.001V81.9953H102.001V102.001H76.7521Z" fill="#454545"/>
<path d="M60.0032 43.7763C60.4009 43.7763 60.7822 43.6184 61.0634 43.3372C61.3446 43.056 61.5025 42.6747 61.5025 42.277V38.9427C61.5025 38.7458 61.4637 38.5508 61.3884 38.3689C61.313 38.187 61.2026 38.0217 61.0634 37.8825C60.9242 37.7433 60.7589 37.6328 60.577 37.5575C60.3951 37.4821 60.2001 37.4434 60.0032 37.4434C59.8063 37.4434 59.6114 37.4821 59.4295 37.5575C59.2476 37.6328 59.0823 37.7433 58.943 37.8825C58.8038 38.0217 58.6934 38.187 58.618 38.3689C58.5427 38.5508 58.5039 38.7458 58.5039 38.9427V42.2862C58.5063 42.6823 58.6654 43.0613 58.9463 43.3404C59.2272 43.6196 59.6072 43.7763 60.0032 43.7763Z" fill="#454545"/>
<path d="M25.554 89.625C25.1564 89.625 24.775 89.783 24.4938 90.0641C24.2127 90.3453 24.0547 90.7267 24.0547 91.1243V94.2241C24.0547 94.6217 24.2127 95.0031 24.4938 95.2843C24.775 95.5654 25.1564 95.7234 25.554 95.7234C25.9516 95.7234 26.333 95.5654 26.6142 95.2843C26.8953 95.0031 27.0533 94.6217 27.0533 94.2241V91.1197C27.0521 90.7229 26.8936 90.3427 26.6125 90.0625C26.3315 89.7823 25.9508 89.625 25.554 89.625Z" fill="#454545"/>
<path d="M35.6946 89.6252C35.297 89.6252 34.9156 89.7832 34.6344 90.0643C34.3533 90.3455 34.1953 90.7269 34.1953 91.1245V94.2243C34.1953 94.4212 34.2341 94.6162 34.3094 94.7981C34.3848 94.98 34.4952 95.1452 34.6344 95.2845C34.7737 95.4237 34.939 95.5341 35.1209 95.6095C35.3028 95.6848 35.4977 95.7236 35.6946 95.7236C35.8915 95.7236 36.0865 95.6848 36.2684 95.6095C36.4503 95.5341 36.6156 95.4237 36.7548 95.2845C36.894 95.1452 37.0044 94.98 37.0798 94.7981C37.1551 94.6162 37.1939 94.4212 37.1939 94.2243V91.1199C37.1939 90.7223 37.036 90.3409 36.7548 90.0597C36.4736 89.7786 36.0923 89.6206 35.6946 89.6206V89.6252Z" fill="#454545"/>
<path d="M25.554 60.752C25.1564 60.752 24.775 60.9099 24.4938 61.1911C24.2127 61.4723 24.0547 61.8536 24.0547 62.2513V65.3557C24.0547 65.7533 24.2127 66.1347 24.4938 66.4158C24.775 66.697 25.1564 66.855 25.554 66.855C25.9516 66.855 26.333 66.697 26.6142 66.4158C26.8953 66.1347 27.0533 65.7533 27.0533 65.3557V62.2513C27.0533 61.8536 26.8953 61.4723 26.6142 61.1911C26.333 60.9099 25.9516 60.752 25.554 60.752Z" fill="#454545"/>
<path d="M35.6946 60.752C35.297 60.752 34.9156 60.9099 34.6344 61.1911C34.3533 61.4723 34.1953 61.8536 34.1953 62.2513V65.3557C34.1953 65.5525 34.2341 65.7475 34.3094 65.9294C34.3848 66.1113 34.4952 66.2766 34.6344 66.4158C34.7737 66.555 34.939 66.6655 35.1209 66.7408C35.3028 66.8162 35.4977 66.855 35.6946 66.855C35.8915 66.855 36.0865 66.8162 36.2684 66.7408C36.4503 66.6655 36.6156 66.555 36.7548 66.4158C36.894 66.2766 37.0044 66.1113 37.0798 65.9294C37.1551 65.7475 37.1939 65.5525 37.1939 65.3557V62.2513C37.1939 61.8536 37.036 61.4723 36.7548 61.1911C36.4736 60.9099 36.0923 60.752 35.6946 60.752Z" fill="#454545"/>
<path d="M94.4485 89.625C94.0509 89.625 93.6695 89.783 93.3884 90.0641C93.1072 90.3453 92.9492 90.7267 92.9492 91.1243V94.2241C92.9492 94.6217 93.1072 95.0031 93.3884 95.2843C93.6695 95.5654 94.0509 95.7234 94.4485 95.7234C94.8462 95.7234 95.2275 95.5654 95.5087 95.2843C95.7899 95.0031 95.9478 94.6217 95.9478 94.2241V91.1197C95.9466 90.7229 95.7881 90.3427 95.5071 90.0625C95.226 89.7823 94.8454 89.625 94.4485 89.625Z" fill="#454545"/>
<path d="M84.3079 89.625C84.111 89.625 83.916 89.6638 83.7341 89.7391C83.5522 89.8145 83.387 89.9249 83.2477 90.0641C83.1085 90.2034 82.9981 90.3686 82.9227 90.5505C82.8474 90.7325 82.8086 90.9274 82.8086 91.1243V94.2241C82.8086 94.6217 82.9666 95.0031 83.2477 95.2843C83.5289 95.5654 83.9103 95.7234 84.3079 95.7234C84.7055 95.7234 85.0869 95.5654 85.3681 95.2843C85.6492 95.0031 85.8072 94.6217 85.8072 94.2241V91.1197C85.806 90.7229 85.6475 90.3427 85.3664 90.0625C85.0854 89.7823 84.7047 89.625 84.3079 89.625Z" fill="#454545"/>
<path d="M94.4485 60.752C94.0509 60.752 93.6695 60.9099 93.3884 61.1911C93.1072 61.4723 92.9492 61.8536 92.9492 62.2513V65.3557C92.9492 65.7533 93.1072 66.1347 93.3884 66.4158C93.6695 66.697 94.0509 66.855 94.4485 66.855C94.8462 66.855 95.2275 66.697 95.5087 66.4158C95.7899 66.1347 95.9478 65.7533 95.9478 65.3557V62.2513C95.9478 61.8536 95.7899 61.4723 95.5087 61.1911C95.2275 60.9099 94.8462 60.752 94.4485 60.752Z" fill="#454545"/>
<path d="M84.3079 60.752C84.111 60.752 83.916 60.7907 83.7341 60.8661C83.5522 60.9414 83.387 61.0519 83.2477 61.1911C83.1085 61.3303 82.9981 61.4956 82.9227 61.6775C82.8474 61.8594 82.8086 62.0544 82.8086 62.2513V65.3557C82.8086 65.7533 82.9666 66.1347 83.2477 66.4158C83.5289 66.697 83.9103 66.855 84.3079 66.855C84.7055 66.855 85.0869 66.697 85.3681 66.4158C85.6492 66.1347 85.8072 65.7533 85.8072 65.3557V62.2513C85.8072 61.8536 85.6492 61.4723 85.3681 61.1911C85.0869 60.9099 84.7055 60.752 84.3079 60.752Z" fill="#454545"/>
</g>
</svg>
