<svg width="120" height="120" viewBox="0 0 120 120" fill="none" xmlns="http://www.w3.org/2000/svg">
<mask id="mask0_8408_28948" style="mask-type:luminance" maskUnits="userSpaceOnUse" x="10" y="10" width="100" height="100">
<path d="M110 10H10V110H110V10Z" fill="white"/>
</mask>
<g mask="url(#mask0_8408_28948)">
<path d="M84.75 70.6201C84.3694 70.6201 84.0044 70.7713 83.7353 71.0404C83.4662 71.3095 83.315 71.6745 83.315 72.0551V74.9201C83.3035 75.1153 83.332 75.3109 83.3987 75.4947C83.4655 75.6785 83.5691 75.8468 83.7033 75.9891C83.8375 76.1314 83.9993 76.2448 84.1788 76.3223C84.3584 76.3998 84.5519 76.4398 84.7475 76.4398C84.9431 76.4398 85.1366 76.3998 85.3162 76.3223C85.4957 76.2448 85.6576 76.1314 85.7917 75.9891C85.9259 75.8468 86.0295 75.6785 86.0963 75.4947C86.1631 75.3109 86.1915 75.1153 86.18 74.9201V72.0551C86.18 71.6754 86.0295 71.3112 85.7615 71.0422C85.4934 70.7732 85.1297 70.6214 84.75 70.6201Z" fill="#454545"/>
<path d="M84.75 87.8052C84.3694 87.8052 84.0044 87.9564 83.7353 88.2255C83.4662 88.4946 83.315 88.8596 83.315 89.2402V92.1052C83.3035 92.3004 83.332 92.4959 83.3987 92.6798C83.4655 92.8636 83.5691 93.0318 83.7033 93.1741C83.8375 93.3165 83.9993 93.4299 84.1788 93.5074C84.3584 93.5849 84.5519 93.6248 84.7475 93.6248C84.9431 93.6248 85.1366 93.5849 85.3162 93.5074C85.4957 93.4299 85.6576 93.3165 85.7917 93.1741C85.9259 93.0318 86.0295 92.8636 86.0963 92.6798C86.1631 92.4959 86.1915 92.3004 86.18 92.1052V89.2602C86.1826 89.0705 86.1477 88.8821 86.077 88.706C86.0064 88.5299 85.9016 88.3696 85.7686 88.2343C85.6356 88.099 85.4771 87.9914 85.3023 87.9177C85.1274 87.8441 84.9397 87.8058 84.75 87.8052Z" fill="#454545"/>
<path d="M34.3895 76.3402C34.7701 76.3402 35.1351 76.189 35.4042 75.9199C35.6733 75.6508 35.8245 75.2858 35.8245 74.9052V72.0402C35.8361 71.8449 35.8076 71.6494 35.7408 71.4656C35.674 71.2817 35.5704 71.1135 35.4362 70.9712C35.3021 70.8289 35.1403 70.7155 34.9607 70.638C34.7811 70.5605 34.5876 70.5205 34.392 70.5205C34.1965 70.5205 34.0029 70.5605 33.8234 70.638C33.6438 70.7155 33.482 70.8289 33.3478 70.9712C33.2137 71.1135 33.11 71.2817 33.0433 71.4656C32.9765 71.6494 32.948 71.8449 32.9595 72.0402V74.9052C32.9595 75.2849 33.11 75.6491 33.3781 75.9181C33.6461 76.1871 34.0098 76.3389 34.3895 76.3402Z" fill="#454545"/>
<path d="M34.3895 93.5399C34.7701 93.5399 35.1351 93.3887 35.4042 93.1196C35.6733 92.8505 35.8245 92.4855 35.8245 92.1049V89.2599C35.8361 89.0647 35.8076 88.8691 35.7408 88.6853C35.674 88.5015 35.5704 88.3332 35.4362 88.1909C35.3021 88.0486 35.1403 87.9352 34.9607 87.8577C34.7811 87.7802 34.5876 87.7402 34.392 87.7402C34.1965 87.7402 34.0029 87.7802 33.8234 87.8577C33.6438 87.9352 33.482 88.0486 33.3478 88.1909C33.2137 88.3332 33.11 88.5015 33.0433 88.6853C32.9765 88.8691 32.948 89.0647 32.9595 89.2599V92.1249C32.9648 92.5011 33.1176 92.8603 33.3851 93.1249C33.6525 93.3896 34.0133 93.5386 34.3895 93.5399Z" fill="#454545"/>
<path d="M107.105 69.365H92.8703V67.165H93.6353C94.0159 67.165 94.3809 67.0138 94.65 66.7447C94.9191 66.4756 95.0703 66.1106 95.0703 65.73V60C95.0703 59.6194 94.9191 59.2544 94.65 58.9853C94.3809 58.7162 94.0159 58.565 93.6353 58.565H92.8703V52.545H93.6353C93.8305 52.5566 94.0261 52.5281 94.2099 52.4613C94.3937 52.3945 94.562 52.2909 94.7043 52.1567C94.8466 52.0226 94.96 51.8607 95.0375 51.6812C95.115 51.5016 95.155 51.3081 95.155 51.1125C95.155 50.9169 95.115 50.7234 95.0375 50.5439C94.96 50.3643 94.8466 50.2025 94.7043 50.0683C94.562 49.9342 94.3937 49.8305 94.2099 49.7637C94.0261 49.697 93.8305 49.6685 93.6353 49.68H91.1953C91.1987 48.0764 90.8826 46.4882 90.2654 45.0082C89.6481 43.5282 88.7421 42.186 87.6003 41.06C86.806 40.3665 85.7873 39.9844 84.7328 39.9844C83.6784 39.9844 82.6596 40.3665 81.8653 41.06C80.7244 42.189 79.8202 43.5342 79.2055 45.0169C78.5907 46.4996 78.2779 48.09 78.2853 49.695H75.8653C75.6701 49.6835 75.4745 49.712 75.2907 49.7787C75.1069 49.8455 74.9387 49.9492 74.7963 50.0833C74.654 50.2175 74.5406 50.3793 74.4631 50.5589C74.3856 50.7384 74.3456 50.9319 74.3456 51.1275C74.3456 51.3231 74.3856 51.5166 74.4631 51.6962C74.5406 51.8757 74.654 52.0376 74.7963 52.1717C74.9387 52.3059 75.1069 52.4095 75.2907 52.4763C75.4745 52.5431 75.6701 52.5716 75.8653 52.56H76.6303V58.56H72.2553V46.445C72.2691 43.8247 72.0297 41.2092 71.5403 38.635C71.4591 38.2692 71.2381 37.9497 70.9244 37.7447C70.6108 37.5398 70.2294 37.4656 69.8618 37.5381C69.4942 37.6106 69.1695 37.8239 68.9572 38.1326C68.7448 38.4413 68.6616 38.8208 68.7253 39.19C69.0934 41.1114 69.3058 43.0594 69.3603 45.015H66.5053C66.5814 39.7175 65.8531 34.439 64.3453 29.36C65.4173 30.6516 66.3057 32.0852 66.9853 33.62C67.0593 33.7969 67.1681 33.9572 67.3051 34.0914C67.4421 34.2256 67.6047 34.3309 67.7831 34.4012C67.9615 34.4715 68.1522 34.5054 68.344 34.5007C68.5357 34.496 68.7245 34.453 68.8993 34.3741C69.0741 34.2952 69.2314 34.1821 69.3617 34.0414C69.4921 33.9008 69.5929 33.7354 69.6582 33.5551C69.7236 33.3748 69.7521 33.1832 69.7422 32.9917C69.7322 32.8002 69.684 32.6126 69.6003 32.44C68.4064 29.6537 66.5717 27.1885 64.2453 25.245C64.2786 25.1058 64.2954 24.9632 64.2953 24.82V19.835C64.294 19.3541 64.1023 18.8932 63.7623 18.5531C63.4222 18.213 62.9613 18.0213 62.4803 18.02H61.0453V12.13C61.0569 11.9348 61.0284 11.7392 60.9616 11.5554C60.8948 11.3716 60.7912 11.2034 60.657 11.061C60.5229 10.9187 60.361 10.8053 60.1815 10.7278C60.0019 10.6503 59.8084 10.6104 59.6128 10.6104C59.4172 10.6104 59.2237 10.6503 59.0442 10.7278C58.8646 10.8053 58.7028 10.9187 58.5686 11.061C58.4345 11.2034 58.3308 11.3716 58.264 11.5554C58.1973 11.7392 58.1688 11.9348 58.1803 12.13V18.02H56.7503C56.2694 18.0213 55.8085 18.213 55.4684 18.5531C55.1283 18.8932 54.9366 19.3541 54.9353 19.835V24.805C54.9357 24.9465 54.9525 25.0874 54.9853 25.225C52.0303 27.595 46.9853 33.53 46.9853 46.435V58.565H42.6103V52.545H43.3753C43.5705 52.5566 43.7661 52.5281 43.9499 52.4613C44.1337 52.3945 44.302 52.2909 44.4443 52.1567C44.5866 52.0226 44.7 51.8607 44.7775 51.6812C44.855 51.5016 44.895 51.3081 44.895 51.1125C44.895 50.9169 44.855 50.7234 44.7775 50.5439C44.7 50.3643 44.5866 50.2025 44.4443 50.0683C44.302 49.9342 44.1337 49.8305 43.9499 49.7637C43.7661 49.697 43.5705 49.6685 43.3753 49.68H40.9553C40.9587 48.0764 40.6426 46.4882 40.0253 45.0082C39.4081 43.5282 38.5021 42.186 37.3603 41.06C36.566 40.3665 35.5473 39.9844 34.4928 39.9844C33.4384 39.9844 32.4196 40.3665 31.6253 41.06C30.4808 42.1873 29.5729 43.5318 28.9547 45.0145C28.3365 46.4973 28.0205 48.0886 28.0253 49.695H25.6003C25.4051 49.6835 25.2095 49.712 25.0257 49.7787C24.8419 49.8455 24.6737 49.9492 24.5313 50.0833C24.389 50.2175 24.2756 50.3793 24.1981 50.5589C24.1206 50.7384 24.0806 50.9319 24.0806 51.1275C24.0806 51.3231 24.1206 51.5166 24.1981 51.6962C24.2756 51.8757 24.389 52.0376 24.5313 52.1717C24.6737 52.3059 24.8419 52.4095 25.0257 52.4763C25.2095 52.5431 25.4051 52.5716 25.6003 52.56H26.3653V58.56H25.6003C25.2197 58.56 24.8547 58.7112 24.5856 58.9803C24.3165 59.2494 24.1653 59.6144 24.1653 59.995V65.73C24.1653 66.1106 24.3165 66.4756 24.5856 66.7447C24.8547 67.0138 25.2197 67.165 25.6003 67.165H26.3653V69.365H12.1303C11.7506 69.365 11.3863 69.5155 11.1174 69.7836C10.8484 70.0516 10.6966 70.4153 10.6953 70.795V107.105C10.6953 107.486 10.8465 107.851 11.1156 108.12C11.3847 108.389 11.7497 108.54 12.1303 108.54H107.13C107.511 108.54 107.876 108.389 108.145 108.12C108.414 107.851 108.565 107.486 108.565 107.105V96.195C108.577 95.9998 108.548 95.8042 108.482 95.6204C108.415 95.4366 108.311 95.2684 108.177 95.126C108.043 94.9837 107.881 94.8703 107.701 94.7928C107.522 94.7153 107.328 94.6754 107.133 94.6754C106.937 94.6754 106.744 94.7153 106.564 94.7928C106.385 94.8703 106.223 94.9837 106.089 95.126C105.954 95.2684 105.851 95.4366 105.784 95.6204C105.717 95.8042 105.689 95.9998 105.7 96.195V100.115H92.8703V83.965H105.695V90.08C105.684 90.2753 105.712 90.4708 105.779 90.6546C105.846 90.8384 105.949 91.0067 106.084 91.149C106.218 91.2913 106.38 91.4047 106.559 91.4822C106.739 91.5597 106.932 91.5997 107.128 91.5997C107.323 91.5997 107.517 91.5597 107.696 91.4822C107.876 91.4047 108.038 91.2913 108.172 91.149C108.306 91.0067 108.41 90.8384 108.477 90.6546C108.543 90.4708 108.572 90.2753 108.56 90.08V70.795C108.56 70.6066 108.523 70.42 108.451 70.2459C108.379 70.0718 108.273 69.9136 108.14 69.7803C108.007 69.6471 107.849 69.5414 107.674 69.4693C107.5 69.3971 107.314 69.36 107.125 69.36L107.105 69.365ZM83.7803 43.195C84.0495 42.9718 84.3882 42.8497 84.7378 42.8497C85.0875 42.8497 85.4262 42.9718 85.6953 43.195C87.3753 44.9035 88.3163 47.2039 88.3153 49.6H81.1603C81.1599 47.204 82.1008 44.9038 83.7803 43.195ZM33.5203 43.195C33.7906 42.9679 34.1323 42.8434 34.4853 42.8434C34.8383 42.8434 35.18 42.9679 35.4503 43.195C37.1298 44.9038 38.0707 47.204 38.0703 49.6H30.9003C30.8999 47.204 31.8408 44.9038 33.5203 43.195ZM105.695 72.23V75.385H92.8703V72.23H105.695ZM53.5003 64.3C53.3051 64.2885 53.1095 64.317 52.9257 64.3837C52.7419 64.4505 52.5737 64.5542 52.4313 64.6883C52.289 64.8225 52.1756 64.9843 52.0981 65.1639C52.0206 65.3434 51.9806 65.5369 51.9806 65.7325C51.9806 65.9281 52.0206 66.1216 52.0981 66.3012C52.1756 66.4807 52.289 66.6426 52.4313 66.7767C52.5737 66.9109 52.7419 67.0145 52.9257 67.0813C53.1095 67.1481 53.3051 67.1766 53.5003 67.165H76.6253V100.13H70.0353V81.02C70.0353 78.2578 68.938 75.6087 66.9848 73.6555C65.0316 71.7023 62.3825 70.605 59.6203 70.605C56.8581 70.605 54.209 71.7023 52.2558 73.6555C50.3026 75.6087 49.2053 78.2578 49.2053 81.02V100.13H42.6103V67.165H47.4053C47.6005 67.1766 47.7961 67.1481 47.9799 67.0813C48.1637 67.0145 48.332 66.9109 48.4743 66.7767C48.6166 66.6426 48.73 66.4807 48.8075 66.3012C48.885 66.1216 48.925 65.9281 48.925 65.7325C48.925 65.5369 48.885 65.3434 48.8075 65.1639C48.73 64.9843 48.6166 64.8225 48.4743 64.6883C48.332 64.5542 48.1637 64.4505 47.9799 64.3837C47.7961 64.317 47.6005 64.2885 47.4053 64.3H27.0353V61.435H92.1953V64.3H53.5003ZM67.1653 91.8H52.0703V87.02H67.1653V91.8ZM67.1653 84.155H52.0703V81C52.121 79.0319 52.9384 77.1615 54.3483 75.7874C55.7582 74.4133 57.6491 73.6443 59.6178 73.6443C61.5866 73.6443 63.4774 74.4133 64.8873 75.7874C66.2972 77.1615 67.1147 79.0319 67.1653 81V84.155ZM52.0703 94.695H67.1653V100.14H52.0703V94.695ZM79.4953 52.545H89.9953V58.545H79.4953V52.545ZM59.3303 26.62H59.9053C60.8203 27.925 63.4503 32.72 63.6453 45H55.5953C55.7853 32.72 58.4153 27.925 59.3303 26.62ZM57.8003 20.885H61.4303V23.75H57.8003V20.885ZM54.0653 30.385C54.3403 29.995 54.6153 29.645 54.8903 29.32C53.3787 34.4018 52.6487 39.6838 52.7253 44.985H49.8703C49.799 39.8144 51.2586 34.7382 54.0653 30.395V30.385ZM49.8503 47.865H69.3903V58.565H49.8503V47.865ZM29.2303 52.545H39.7303V58.545H29.2303V52.545ZM39.7303 67.165V100.13H29.2303V67.165H39.7303ZM13.5603 100.13V83.98H26.3653V100.13H13.5603ZM13.5603 78.25H26.3653V81.115H13.5603V78.25ZM26.3653 72.25V75.405H13.5603V72.25H26.3653ZM105.695 103V105.695H13.5603V103.02L105.695 103ZM79.5153 100.135V67.165H90.0153V100.13L79.5153 100.135ZM92.8903 81.135V78.27H105.695V81.135H92.8903Z" fill="#454545"/>
<path d="M53.8842 50.3452C53.5036 50.3452 53.1386 50.4964 52.8695 50.7655C52.6004 51.0346 52.4492 51.3996 52.4492 51.7802V54.8402C52.4708 55.2055 52.6311 55.5487 52.8974 55.7997C53.1637 56.0508 53.5158 56.1905 53.8817 56.1905C54.2476 56.1905 54.5998 56.0508 54.866 55.7997C55.1323 55.5487 55.2926 55.2055 55.3142 54.8402V51.7802C55.3142 51.4005 55.1637 51.0363 54.8957 50.7673C54.6277 50.4983 54.2639 50.3465 53.8842 50.3452Z" fill="#454545"/>
<path d="M59.6147 50.3452C59.2341 50.3452 58.8691 50.4964 58.6 50.7655C58.3309 51.0346 58.1797 51.3996 58.1797 51.7802V54.8402C58.2013 55.2055 58.3616 55.5487 58.6279 55.7997C58.8942 56.0508 59.2463 56.1905 59.6122 56.1905C59.9781 56.1905 60.3302 56.0508 60.5965 55.7997C60.8628 55.5487 61.0231 55.2055 61.0447 54.8402V51.7802C61.0447 51.4005 60.8942 51.0363 60.6262 50.7673C60.3581 50.4983 59.9944 50.3465 59.6147 50.3452Z" fill="#454545"/>
<path d="M65.3491 50.3452C65.1606 50.3452 64.974 50.3823 64.7999 50.4544C64.6258 50.5266 64.4676 50.6323 64.3344 50.7655C64.2011 50.8988 64.0954 51.057 64.0233 51.2311C63.9512 51.4052 63.9141 51.5918 63.9141 51.7802V54.8402C63.9357 55.2055 64.096 55.5487 64.3623 55.7997C64.6285 56.0508 64.9806 56.1905 65.3466 56.1905C65.7125 56.1905 66.0646 56.0508 66.3309 55.7997C66.5971 55.5487 66.7575 55.2055 66.7791 54.8402V51.7802C66.7791 51.4005 66.6286 51.0363 66.3605 50.7673C66.0925 50.4983 65.7288 50.3465 65.3491 50.3452Z" fill="#454545"/>
</g>
</svg>
