<svg width="120" height="120" viewBox="0 0 120 120" fill="none" xmlns="http://www.w3.org/2000/svg">
<mask id="mask0_8408_29076" style="mask-type:luminance" maskUnits="userSpaceOnUse" x="10" y="10" width="100" height="100">
<path d="M110 10H10V110H110V10Z" fill="white"/>
</mask>
<g mask="url(#mask0_8408_29076)">
<path d="M60.3047 18.2499V12.1299" stroke="#454545" stroke-width="3" stroke-miterlimit="10" stroke-linecap="round" stroke-linejoin="round"/>
<path d="M65.8047 25.25L63.4347 19.22C63.3221 18.9338 63.126 18.6882 62.8718 18.5152C62.6176 18.3422 62.3172 18.2498 62.0097 18.25H58.6047C58.2972 18.2498 57.9968 18.3422 57.7426 18.5152C57.4884 18.6882 57.2922 18.9338 57.1797 19.22L54.8047 25.25" stroke="#454545" stroke-width="3" stroke-miterlimit="10" stroke-linecap="round" stroke-linejoin="round"/>
<path d="M85.3892 64.96V66.795C85.3892 67.0482 85.2886 67.2911 85.1095 67.4702C84.9304 67.6493 84.6875 67.75 84.4342 67.75H36.1692C35.9159 67.75 35.673 67.6493 35.4939 67.4702C35.3148 67.2911 35.2142 67.0482 35.2142 66.795V64.96H16.4492V106.16C16.4492 106.413 16.5498 106.656 16.7289 106.835C16.908 107.014 17.1509 107.115 17.4042 107.115H103.199C103.453 107.115 103.695 107.014 103.875 106.835C104.054 106.656 104.154 106.413 104.154 106.16V64.96H85.3892Z" stroke="#454545" stroke-width="3" stroke-miterlimit="10" stroke-linecap="round" stroke-linejoin="round"/>
<path d="M40.9257 57.6148H18.6457C18.4728 57.6138 18.3028 57.6598 18.154 57.7479C18.0052 57.8359 17.8831 57.9627 17.8007 58.1148L14.6507 64.1148C14.6056 64.2016 14.5834 64.2986 14.5862 64.3965C14.589 64.4943 14.6168 64.5898 14.6668 64.674C14.7169 64.7581 14.7876 64.828 14.8723 64.8772C14.957 64.9263 15.0528 64.953 15.1507 64.9548H35.2157V63.6048C35.2157 63.4793 35.2404 63.3552 35.2884 63.2393C35.3364 63.1234 35.4067 63.0182 35.4954 62.9295C35.5841 62.8408 35.6894 62.7704 35.8052 62.7225C35.9211 62.6745 36.0453 62.6498 36.1707 62.6498H40.9257V57.6148Z" stroke="#454545" stroke-width="3" stroke-miterlimit="10" stroke-linecap="round" stroke-linejoin="round"/>
<path d="M84.9597 57.6148H79.6797V62.6448H84.4347C84.5601 62.6448 84.6843 62.6695 84.8002 62.7175C84.916 62.7654 85.0213 62.8358 85.11 62.9245C85.1987 63.0132 85.269 63.1184 85.317 63.2343C85.365 63.3502 85.3897 63.4744 85.3897 63.5998V64.9548H105.45C105.548 64.953 105.643 64.9263 105.728 64.8772C105.813 64.828 105.883 64.7581 105.934 64.674C105.984 64.5898 106.011 64.4943 106.014 64.3965C106.017 64.2986 105.995 64.2016 105.95 64.1148L102.8 58.1148C102.717 57.9627 102.595 57.8359 102.446 57.7479C102.298 57.6598 102.128 57.6138 101.955 57.6148H91.6447" stroke="#454545" stroke-width="3" stroke-miterlimit="10" stroke-linecap="round" stroke-linejoin="round"/>
<path d="M70.5044 33.7101V27.0951C70.5044 26.5885 70.3031 26.1027 69.9449 25.7445C69.5868 25.3863 69.1009 25.1851 68.5944 25.1851H52.0194C51.5128 25.1851 51.027 25.3863 50.6688 25.7445C50.3106 26.1027 50.1094 26.5885 50.1094 27.0951V33.7101H70.5044Z" stroke="#454545" stroke-width="3" stroke-miterlimit="10" stroke-linecap="round" stroke-linejoin="round"/>
<path d="M63.235 33.7051H57.375V42.4751H63.235V33.7051Z" stroke="#454545" stroke-width="3" stroke-miterlimit="10" stroke-linecap="round" stroke-linejoin="round"/>
<path d="M73.5619 42.48V35.62C73.5619 35.1134 73.3606 34.6276 73.0024 34.2694C72.6443 33.9112 72.1584 33.71 71.6519 33.71H48.9569C48.4503 33.71 47.9645 33.9112 47.6063 34.2694C47.2481 34.6276 47.0469 35.1134 47.0469 35.62V42.48H73.5619Z" stroke="#454545" stroke-width="3" stroke-miterlimit="10" stroke-linecap="round" stroke-linejoin="round"/>
<path d="M76.6272 52.175V44.39C76.6272 43.8834 76.426 43.3976 76.0678 43.0394C75.7096 42.6812 75.2238 42.48 74.7172 42.48H45.9022C45.3956 42.48 44.9098 42.6812 44.5516 43.0394C44.1934 43.3976 43.9922 43.8834 43.9922 44.39V52.175" stroke="#454545" stroke-width="3" stroke-miterlimit="10" stroke-linecap="round" stroke-linejoin="round"/>
<path d="M79.6797 62.6448V54.0848C79.6797 53.5782 79.4785 53.0924 79.1203 52.7342C78.7621 52.376 78.2763 52.1748 77.7697 52.1748H42.8397C42.3331 52.1748 41.8473 52.376 41.4891 52.7342C41.1309 53.0924 40.9297 53.5782 40.9297 54.0848V62.6448H79.6797Z" stroke="#454545" stroke-width="3" stroke-miterlimit="10" stroke-linecap="round" stroke-linejoin="round"/>
<path d="M64.5845 52.1748H56.0195V62.6498H64.5845V52.1748Z" stroke="#454545" stroke-width="3" stroke-miterlimit="10" stroke-linecap="round" stroke-linejoin="round"/>
<path d="M38.4805 67.7451V88.6151" stroke="#454545" stroke-width="3" stroke-miterlimit="10" stroke-linecap="round" stroke-linejoin="round"/>
<path d="M82.1328 88.6151V67.7451" stroke="#454545" stroke-width="3" stroke-miterlimit="10" stroke-linecap="round" stroke-linejoin="round"/>
<path d="M46.7344 67.7451V88.6001H51.9394V82.2901C51.9394 80.0729 52.8202 77.9465 54.388 76.3787C55.9558 74.8109 58.0822 73.9301 60.2994 73.9301C61.3972 73.9301 62.4843 74.1464 63.4986 74.5665C64.5129 74.9866 65.4345 75.6024 66.2108 76.3787C66.9871 77.155 67.6029 78.0766 68.023 79.0909C68.4431 80.1052 68.6594 81.1923 68.6594 82.2901V88.6001H73.8644V67.7451H46.7344Z" stroke="#454545" stroke-width="3" stroke-miterlimit="10" stroke-linecap="round" stroke-linejoin="round"/>
<path d="M84.173 98.6047V89.5697C84.173 89.3165 84.0723 89.0736 83.8932 88.8945C83.7142 88.7154 83.4712 88.6147 83.218 88.6147H68.668V98.6147L84.173 98.6047Z" stroke="#454545" stroke-width="3" stroke-miterlimit="10" stroke-linecap="round" stroke-linejoin="round"/>
<path d="M51.9514 98.605V88.605H37.3964C37.271 88.605 37.1468 88.6297 37.0309 88.6777C36.9151 88.7257 36.8098 88.796 36.7211 88.8847C36.6324 88.9734 36.5621 89.0787 36.5141 89.1945C36.4661 89.3104 36.4414 89.4346 36.4414 89.56V98.605H51.9514Z" stroke="#454545" stroke-width="3" stroke-miterlimit="10" stroke-linecap="round" stroke-linejoin="round"/>
<path d="M68.6703 98.6097V82.2947C68.671 81.196 68.455 80.1079 68.0349 79.0928C67.6148 78.0776 66.9986 77.1552 66.2217 76.3783C65.4448 75.6014 64.5224 74.9852 63.5072 74.5651C62.4921 74.145 61.404 73.929 60.3053 73.9297C59.2075 73.9297 58.1204 74.1459 57.1061 74.5661C56.0918 74.9862 55.1702 75.602 54.3939 76.3783C53.6176 77.1546 53.0018 78.0762 52.5817 79.0905C52.1616 80.1047 51.9453 81.1918 51.9453 82.2897V98.6047L68.6703 98.6097Z" stroke="#454545" stroke-width="3" stroke-miterlimit="10" stroke-linecap="round" stroke-linejoin="round"/>
<path d="M63.8927 98.6001V82.2901C63.8927 81.3393 63.515 80.4274 62.8426 79.7551C62.1703 79.0828 61.2585 78.7051 60.3077 78.7051C59.3569 78.7051 58.445 79.0828 57.7727 79.7551C57.1004 80.4274 56.7227 81.3393 56.7227 82.2901V98.6001H63.8927Z" stroke="#454545" stroke-width="3" stroke-miterlimit="10" stroke-linecap="round" stroke-linejoin="round"/>
<path d="M87.0209 107.11H33.5859V99.5649C33.5859 99.3116 33.6866 99.0687 33.8657 98.8896C34.0447 98.7105 34.2877 98.6099 34.5409 98.6099H86.0659C86.3192 98.6099 86.5621 98.7105 86.7412 98.8896C86.9203 99.0687 87.0209 99.3116 87.0209 99.5649V107.11Z" stroke="#454545" stroke-width="3" stroke-miterlimit="10" stroke-linecap="round" stroke-linejoin="round"/>
<path d="M84.4355 67.745H36.1755C35.9239 67.7424 35.6836 67.6406 35.5066 67.4618C35.3297 67.283 35.2305 67.0416 35.2305 66.79V63.6C35.2305 63.4746 35.2552 63.3504 35.3032 63.2346C35.3512 63.1187 35.4215 63.0134 35.5102 62.9247C35.5989 62.8361 35.7041 62.7657 35.82 62.7177C35.9359 62.6697 36.0601 62.645 36.1855 62.645H84.4505C84.5759 62.645 84.7001 62.6697 84.8159 62.7177C84.9318 62.7657 85.0371 62.8361 85.1258 62.9247C85.2144 63.0134 85.2848 63.1187 85.3328 63.2346C85.3808 63.3504 85.4055 63.4746 85.4055 63.6V66.79C85.4055 66.9167 85.3803 67.0421 85.3314 67.159C85.2824 67.2758 85.2108 67.3818 85.1205 67.4707C85.0302 67.5595 84.9231 67.6296 84.8055 67.6767C84.6879 67.7238 84.5621 67.747 84.4355 67.745Z" stroke="#454545" stroke-width="3" stroke-miterlimit="10" stroke-linecap="round" stroke-linejoin="round"/>
<path d="M22.4692 88.4648V96.8248C22.4665 97.0763 22.5632 97.3188 22.7383 97.4995C22.9134 97.6802 23.1527 97.7845 23.4042 97.7898H27.8142C28.0675 97.7898 28.3104 97.6891 28.4895 97.5101C28.6686 97.331 28.7692 97.088 28.7692 96.8348V73.4648C28.7692 73.2115 28.6686 72.9686 28.4895 72.7895C28.3104 72.6104 28.0675 72.5098 27.8142 72.5098H23.4042C23.1509 72.5098 22.908 72.6104 22.7289 72.7895C22.5498 72.9686 22.4492 73.2115 22.4492 73.4648V81.7948" stroke="#454545" stroke-width="3" stroke-miterlimit="10" stroke-linecap="round" stroke-linejoin="round"/>
<path d="M97.1775 97.7898H92.7675C92.6421 97.7898 92.5179 97.7651 92.402 97.7171C92.2862 97.6691 92.1809 97.5987 92.0922 97.5101C92.0035 97.4214 91.9332 97.3161 91.8852 97.2002C91.8372 97.0844 91.8125 96.9602 91.8125 96.8348V73.4648C91.8125 73.3394 91.8372 73.2152 91.8852 73.0993C91.9332 72.9834 92.0035 72.8782 92.0922 72.7895C92.1809 72.7008 92.2862 72.6305 92.402 72.5825C92.5179 72.5345 92.6421 72.5098 92.7675 72.5098H97.1775C97.4308 72.5098 97.6737 72.6104 97.8528 72.7895C98.0319 72.9686 98.1325 73.2115 98.1325 73.4648V96.8448C98.1299 97.0963 98.0281 97.3367 97.8493 97.5136C97.6705 97.6905 97.4291 97.7898 97.1775 97.7898Z" stroke="#454545" stroke-width="3" stroke-miterlimit="10" stroke-linecap="round" stroke-linejoin="round"/>
</g>
</svg>
