<svg width="120" height="120" viewBox="0 0 120 120" fill="none" xmlns="http://www.w3.org/2000/svg">
<mask id="mask0_8408_29110" style="mask-type:luminance" maskUnits="userSpaceOnUse" x="10" y="10" width="100" height="100">
<path d="M110 10H10V110H110V10Z" fill="white"/>
</mask>
<g mask="url(#mask0_8408_29110)">
<path d="M106.215 105.97H99.715V52.1548C99.715 51.7225 99.5433 51.3079 99.2376 51.0022C98.9319 50.6965 98.5173 50.5248 98.085 50.5248H70.34V13.0148C70.34 12.8003 70.2977 12.5879 70.2155 12.3898C70.1332 12.1918 70.0127 12.0118 69.8608 11.8604C69.7089 11.709 69.5286 11.589 69.3303 11.5074C69.132 11.4258 68.9195 11.3841 68.705 11.3848H19.785C19.5709 11.3848 19.359 11.4269 19.1612 11.5088C18.9635 11.5908 18.7838 11.7108 18.6324 11.8622C18.4811 12.0135 18.361 12.1932 18.2791 12.391C18.1972 12.5888 18.155 12.8007 18.155 13.0148V105.97H11.63C11.1977 105.97 10.7831 106.142 10.4774 106.447C10.1717 106.753 10 107.167 10 107.6C10 108.032 10.1717 108.447 10.4774 108.752C10.7831 109.058 11.1977 109.23 11.63 109.23H106.215C106.647 109.23 107.062 109.058 107.368 108.752C107.673 108.447 107.845 108.032 107.845 107.6C107.845 107.167 107.673 106.753 107.368 106.447C107.062 106.142 106.647 105.97 106.215 105.97ZM67.075 52.1548V105.97H21.415V14.6448H67.075V52.1448V52.1548ZM96.43 105.97H70.34V53.7848H96.43V105.97Z" fill="#454545"/>
<path d="M29.5636 34.2149H39.3486C39.5626 34.2149 39.7746 34.1728 39.9724 34.0908C40.1701 34.0089 40.3498 33.8889 40.5012 33.7375C40.6525 33.5861 40.7726 33.4065 40.8545 33.2087C40.9364 33.0109 40.9786 32.799 40.9786 32.5849V22.7999C40.9786 22.3676 40.8069 21.953 40.5012 21.6473C40.1955 21.3417 39.7809 21.1699 39.3486 21.1699H29.5636C29.3495 21.1699 29.1376 21.2121 28.9398 21.294C28.7421 21.3759 28.5624 21.496 28.411 21.6473C28.2596 21.7987 28.1396 21.9784 28.0577 22.1761C27.9758 22.3739 27.9336 22.5859 27.9336 22.7999V32.5849C27.9336 33.0172 28.1053 33.4318 28.411 33.7375C28.7167 34.0432 29.1313 34.2149 29.5636 34.2149ZM31.1936 24.4299H37.6936V30.9299H31.1936V24.4299Z" fill="#454545"/>
<path d="M49.1339 34.2149H58.9189C59.133 34.2149 59.3449 34.1728 59.5427 34.0908C59.7404 34.0089 59.9201 33.8889 60.0715 33.7375C60.2228 33.5861 60.3429 33.4065 60.4248 33.2087C60.5067 33.0109 60.5489 32.799 60.5489 32.5849V22.7999C60.5489 22.3676 60.3772 21.953 60.0715 21.6473C59.7658 21.3417 59.3512 21.1699 58.9189 21.1699H49.1339C48.9199 21.1699 48.7079 21.2121 48.5101 21.294C48.3124 21.3759 48.1327 21.496 47.9813 21.6473C47.83 21.7987 47.7099 21.9784 47.628 22.1761C47.5461 22.3739 47.5039 22.5859 47.5039 22.7999V32.5849C47.5039 33.0172 47.6756 33.4318 47.9813 33.7375C48.287 34.0432 48.7016 34.2149 49.1339 34.2149ZM50.7639 24.4299H57.2639V30.9299H50.7639V24.4299Z" fill="#454545"/>
<path d="M29.5636 53.7847H39.3486C39.7809 53.7847 40.1955 53.613 40.5012 53.3073C40.8069 53.0016 40.9786 52.587 40.9786 52.1547V42.3697C40.9786 42.1557 40.9364 41.9437 40.8545 41.746C40.7726 41.5482 40.6525 41.3685 40.5012 41.2172C40.3498 41.0658 40.1701 40.9457 39.9724 40.8638C39.7746 40.7819 39.5626 40.7397 39.3486 40.7397H29.5636C29.1313 40.7397 28.7167 40.9115 28.411 41.2172C28.1053 41.5228 27.9336 41.9374 27.9336 42.3697V52.1547C27.9336 52.587 28.1053 53.0016 28.411 53.3073C28.7167 53.613 29.1313 53.7847 29.5636 53.7847ZM31.1936 43.9997H37.6936V50.4997H31.1936V43.9997Z" fill="#454545"/>
<path d="M49.1339 53.7847H58.9189C59.3512 53.7847 59.7658 53.613 60.0715 53.3073C60.3772 53.0016 60.5489 52.587 60.5489 52.1547V42.3697C60.5489 42.1557 60.5067 41.9437 60.4248 41.746C60.3429 41.5482 60.2228 41.3685 60.0715 41.2172C59.9201 41.0658 59.7404 40.9457 59.5427 40.8638C59.3449 40.7819 59.133 40.7397 58.9189 40.7397H49.1339C48.7016 40.7397 48.287 40.9115 47.9813 41.2172C47.6756 41.5228 47.5039 41.9374 47.5039 42.3697V52.1547C47.5039 52.587 47.6756 53.0016 47.9813 53.3073C48.287 53.613 48.7016 53.7847 49.1339 53.7847ZM50.7639 43.9997H57.2639V50.4997H50.7639V43.9997Z" fill="#454545"/>
<path d="M29.5636 73.3546H39.3486C39.5626 73.3546 39.7746 73.3124 39.9724 73.2305C40.1701 73.1486 40.3498 73.0285 40.5012 72.8772C40.6525 72.7258 40.7726 72.5461 40.8545 72.3483C40.9364 72.1506 40.9786 71.9386 40.9786 71.7246V61.9396C40.9786 61.5073 40.8069 61.0927 40.5012 60.787C40.1955 60.4813 39.7809 60.3096 39.3486 60.3096H29.5636C29.1313 60.3096 28.7167 60.4813 28.411 60.787C28.1053 61.0927 27.9336 61.5073 27.9336 61.9396V71.7246C27.9336 72.1569 28.1053 72.5715 28.411 72.8772C28.7167 73.1828 29.1313 73.3546 29.5636 73.3546ZM31.1936 63.5696H37.6936V70.0696H31.1936V63.5696Z" fill="#454545"/>
<path d="M49.1339 73.3546H58.9189C59.133 73.3546 59.3449 73.3124 59.5427 73.2305C59.7404 73.1486 59.9201 73.0285 60.0715 72.8772C60.2228 72.7258 60.3429 72.5461 60.4248 72.3483C60.5067 72.1506 60.5489 71.9386 60.5489 71.7246V61.9396C60.5489 61.5073 60.3772 61.0927 60.0715 60.787C59.7658 60.4813 59.3512 60.3096 58.9189 60.3096H49.1339C48.7016 60.3096 48.287 60.4813 47.9813 60.787C47.6756 61.0927 47.5039 61.5073 47.5039 61.9396V71.7246C47.5039 72.1569 47.6756 72.5715 47.9813 72.8772C48.287 73.1828 48.7016 73.3546 49.1339 73.3546ZM50.7639 63.5696H57.2639V70.0696H50.7639V63.5696Z" fill="#454545"/>
<path d="M29.5636 92.92H39.3486C39.7809 92.92 40.1955 92.7483 40.5012 92.4426C40.8069 92.1369 40.9786 91.7223 40.9786 91.29V81.505C40.9786 81.0727 40.8069 80.6581 40.5012 80.3524C40.1955 80.0467 39.7809 79.875 39.3486 79.875H29.5636C29.1313 79.875 28.7167 80.0467 28.411 80.3524C28.1053 80.6581 27.9336 81.0727 27.9336 81.505V91.29C27.9336 91.7223 28.1053 92.1369 28.411 92.4426C28.7167 92.7483 29.1313 92.92 29.5636 92.92ZM31.1936 83.135H37.6936V89.635H31.1936V83.135Z" fill="#454545"/>
<path d="M49.1339 92.92H58.9189C59.3512 92.92 59.7658 92.7483 60.0715 92.4426C60.3772 92.1369 60.5489 91.7223 60.5489 91.29V81.505C60.5489 81.0727 60.3772 80.6581 60.0715 80.3524C59.7658 80.0467 59.3512 79.875 58.9189 79.875H49.1339C48.7016 79.875 48.287 80.0467 47.9813 80.3524C47.6756 80.6581 47.5039 81.0727 47.5039 81.505V91.29C47.5039 91.7223 47.6756 92.1369 47.9813 92.4426C48.287 92.7483 48.7016 92.92 49.1339 92.92ZM50.7639 83.135H57.2639V89.635H50.7639V83.135Z" fill="#454545"/>
<path d="M78.4894 73.3546H88.2744C88.4884 73.3546 88.7004 73.3124 88.8981 73.2305C89.0959 73.1486 89.2756 73.0285 89.427 72.8772C89.5783 72.7258 89.6984 72.5461 89.7803 72.3483C89.8622 72.1506 89.9044 71.9386 89.9044 71.7246V61.9396C89.9044 61.5073 89.7326 61.0927 89.427 60.787C89.1213 60.4813 88.7067 60.3096 88.2744 60.3096H78.4894C78.2753 60.3096 78.0634 60.3517 77.8656 60.4336C77.6678 60.5156 77.4882 60.6356 77.3368 60.787C77.1854 60.9383 77.0654 61.118 76.9835 61.3158C76.9015 61.5136 76.8594 61.7255 76.8594 61.9396V71.7246C76.8594 71.9386 76.9015 72.1506 76.9835 72.3483C77.0654 72.5461 77.1854 72.7258 77.3368 72.8772C77.4882 73.0285 77.6678 73.1486 77.8656 73.2305C78.0634 73.3124 78.2753 73.3546 78.4894 73.3546ZM80.1194 63.5696H86.6194V70.0696H80.1194V63.5696Z" fill="#454545"/>
<path d="M78.4894 92.92H88.2744C88.7067 92.92 89.1213 92.7483 89.427 92.4426C89.7326 92.1369 89.9044 91.7223 89.9044 91.29V81.505C89.9044 81.0727 89.7326 80.6581 89.427 80.3524C89.1213 80.0467 88.7067 79.875 88.2744 79.875H78.4894C78.2753 79.875 78.0634 79.9172 77.8656 79.9991C77.6678 80.081 77.4882 80.2011 77.3368 80.3524C77.1854 80.5038 77.0654 80.6835 76.9835 80.8812C76.9015 81.079 76.8594 81.2909 76.8594 81.505V91.29C76.8594 91.5041 76.9015 91.716 76.9835 91.9138C77.0654 92.1115 77.1854 92.2912 77.3368 92.4426C77.4882 92.5939 77.6678 92.714 77.8656 92.7959C78.0634 92.8778 78.2753 92.92 78.4894 92.92ZM80.1194 83.135H86.6194V89.635H80.1194V83.135Z" fill="#454545"/>
</g>
</svg>
