<svg width="24" height="24" viewBox="0 0 24 24" fill="none" xmlns="http://www.w3.org/2000/svg">
<path d="M19 17.53V16.27C19 15.22 18.552 14.8 17.439 14.8H14.611C13.498 14.8 13.05 15.22 13.05 16.27V17.53C13.05 18.58 13.498 19 14.611 19H17.439C18.552 19 19 18.58 19 17.53Z" stroke="#6E6E6E" stroke-width="1.5" stroke-linecap="round" stroke-linejoin="round"/>
<path d="M10.95 12.77V17.53C10.95 18.58 10.502 19 9.389 19H6.561C5.448 19 5 18.58 5 17.53V12.77C5 11.72 5.448 11.3 6.561 11.3H9.389C10.502 11.3 10.95 11.72 10.95 12.77Z" stroke="#6E6E6E" stroke-width="1.5" stroke-linecap="round" stroke-linejoin="round"/>
<path d="M19 11.23V6.47C19 5.42 18.552 5 17.439 5H14.611C13.498 5 13.05 5.42 13.05 6.47V11.23C13.05 12.28 13.498 12.7 14.611 12.7H17.439C18.552 12.7 19 12.28 19 11.23Z" stroke="#6E6E6E" stroke-width="1.5" stroke-linecap="round" stroke-linejoin="round"/>
<path d="M10.95 6.47V7.73C10.95 8.78 10.502 9.2 9.389 9.2H6.561C5.448 9.2 5 8.78 5 7.73V6.47C5 5.42 5.448 5 6.561 5H9.389C10.502 5 10.95 5.42 10.95 6.47Z" stroke="#6E6E6E" stroke-width="1.5" stroke-linecap="round" stroke-linejoin="round"/>
</svg>
