<svg width="24" height="24" viewBox="0 0 24 24" fill="none" xmlns="http://www.w3.org/2000/svg">
<path d="M6.18667 15.2761C6.45145 16.34 7.37819 17.0679 9.04778 17.5929L12.3649 18.6428C15.1304 19.5177 16.6014 18.8177 17.5208 16.186L18.624 13.0294C19.3889 10.8386 19.0065 9.49479 17.2486 8.60589M6.18667 15.2761C6.74566 15.6541 7.51058 15.9061 8.50351 16.0531L11.953 16.571C14.8288 16.998 16.1601 16.0741 16.6161 13.3374L17.153 10.0547C17.2413 9.51579 17.278 9.03285 17.2486 8.60589M6.18667 15.2761C5.12019 14.5692 4.81129 13.4075 5.10549 11.6157L5.64976 8.33309C6.10578 5.5964 7.43703 4.6725 10.3128 5.09945L13.7624 5.6174C16.0718 5.96036 17.153 6.85609 17.2486 8.60589M10.8865 8.66896C10.8865 9.34156 10.3136 9.88682 9.60676 9.88682C8.89996 9.88682 8.32699 9.34156 8.32699 8.66896C8.32699 7.99635 8.89996 7.45109 9.60676 7.45109C10.3136 7.45109 10.8865 7.99635 10.8865 8.66896Z" stroke="white" stroke-width="1.5" stroke-linecap="round" stroke-linejoin="round"/>
</svg>
