<svg width="60" height="60" viewBox="0 0 60 60" fill="none" xmlns="http://www.w3.org/2000/svg">
<path d="M30.8307 5.0058C30.1684 5.00778 29.5337 5.27181 29.0653 5.74018C28.597 6.20855 28.333 6.84318 28.331 7.50555V20.8375C28.3334 21.5002 28.5974 22.1353 29.0655 22.6043C29.5336 23.0734 30.1681 23.3387 30.8307 23.3424H31.664V27.5086C31.6631 27.6687 31.7083 27.8255 31.7943 27.9606C31.8802 28.0956 32.0032 28.203 32.1486 28.27C32.2939 28.3369 32.4555 28.3606 32.614 28.3382C32.7725 28.3158 32.9211 28.2482 33.0422 28.1435L38.6391 23.3456H52.4953C53.1589 23.3399 53.7936 23.0728 54.2615 22.6022C54.7295 22.1316 54.993 21.4954 54.995 20.8317V7.49975C54.9913 6.83706 54.726 6.20262 54.257 5.73448C53.7879 5.26635 53.1529 5.00241 52.4902 5L30.8307 5.0058ZM7.49975 6.66569C6.83706 6.66942 6.20265 6.93466 5.73452 7.40373C5.26639 7.8728 5.00241 8.50772 5 9.17042V35.8344C5.00198 36.4968 5.26598 37.1314 5.73435 37.5998C6.20271 38.0682 6.83738 38.3322 7.49975 38.3342H49.1623C49.8241 38.3307 50.4579 38.0662 50.926 37.5982C51.394 37.1301 51.6585 36.4963 51.662 35.8344V25.0022H48.329V34.1679C48.329 34.3889 48.2412 34.6009 48.0849 34.7572C47.9287 34.9134 47.7167 35.0012 47.4958 35.0012H9.16625C9.05641 35.0018 8.94752 34.9808 8.84584 34.9392C8.74417 34.8976 8.65172 34.8363 8.57382 34.7589C8.49591 34.6814 8.43409 34.5893 8.3919 34.4879C8.34972 34.3865 8.328 34.2778 8.328 34.1679V10.8369C8.328 10.7271 8.34972 10.6183 8.3919 10.5169C8.43409 10.4155 8.49591 10.3234 8.57382 10.246C8.65172 10.1685 8.74417 10.1072 8.84584 10.0656C8.94752 10.024 9.05641 10.003 9.16625 10.0037H26.6645V7.50392C26.6679 7.21917 26.7209 6.9372 26.8211 6.67067L7.49975 6.66569ZM38.3608 9.17042C38.506 9.17352 38.6477 9.21582 38.7708 9.29289L45.4368 13.4641C45.5574 13.5388 45.6569 13.6432 45.7259 13.7671C45.7949 13.8911 45.8311 14.0306 45.8311 14.1725C45.8311 14.3143 45.7949 14.4538 45.7259 14.5777C45.6569 14.7016 45.5574 14.806 45.4368 14.8807L38.7708 19.047C38.6446 19.1252 38.4998 19.1683 38.3513 19.1718C38.2028 19.1753 38.0561 19.139 37.9264 19.0668C37.7966 18.9946 37.6886 18.8891 37.6133 18.761C37.5381 18.633 37.4984 18.4872 37.4984 18.3387V10.0062C37.4956 9.89341 37.5162 9.78121 37.5589 9.67676C37.6016 9.57231 37.6654 9.47781 37.7465 9.39928C37.8275 9.32075 37.9239 9.25986 38.0297 9.22046C38.1354 9.18107 38.2482 9.16405 38.3608 9.17042ZM19.9985 13.3367C18.6734 13.3393 17.4033 13.8669 16.4662 14.8039C15.5292 15.7409 15.0016 17.011 14.999 18.3362V20.8359C14.9983 20.9458 15.0194 21.0546 15.061 21.1563C15.1026 21.258 15.1638 21.3504 15.2413 21.4283C15.3187 21.5062 15.4108 21.5681 15.5122 21.6103C15.6136 21.6525 15.7224 21.6742 15.8322 21.6742V22.5074C15.8331 23.2088 15.9819 23.9023 16.2691 24.5422C16.5563 25.1822 16.9753 25.7543 17.4987 26.2212V28.3451H16.6655C15.341 28.3451 14.0706 28.8708 13.1333 29.8066C12.1959 30.7424 11.6682 32.0118 11.666 33.3363H29.9975C29.9953 32.0118 29.4676 30.7424 28.5302 29.8066C27.5929 28.8708 26.3225 28.3451 24.998 28.3451H24.1647V26.2229C24.6882 25.7556 25.1073 25.1832 25.3944 24.5429C25.6816 23.9027 25.8304 23.2091 25.8312 22.5074V21.6742C25.9411 21.6742 26.0499 21.6525 26.1513 21.6103C26.2527 21.5681 26.3448 21.5062 26.4222 21.4283C26.4997 21.3504 26.5609 21.258 26.6025 21.1563C26.6441 21.0546 26.6652 20.9458 26.6645 20.8359V18.3362C26.6619 17.011 26.1343 15.7409 25.1973 14.8039C24.2602 13.8669 22.9901 13.3393 21.665 13.3367H19.9985ZM23.2098 20.2277L24.1647 21.1759V22.5008C24.1821 22.949 24.1088 23.3961 23.9493 23.8154C23.7897 24.2346 23.5472 24.6173 23.2362 24.9405C22.9253 25.2638 22.5522 25.5209 22.1395 25.6966C21.7268 25.8722 21.2828 25.9629 20.8342 25.9629C20.3857 25.9629 19.9417 25.8722 19.529 25.6966C19.1163 25.5209 18.7432 25.2638 18.4323 24.9405C18.1213 24.6173 17.8788 24.2346 17.7192 23.8154C17.5597 23.3961 17.4864 22.949 17.5037 22.5008V21.6675H18.337C20.0562 21.5878 21.7303 21.092 23.2157 20.2227L23.2098 20.2277ZM19.1652 27.2078C20.2421 27.5972 21.4214 27.5972 22.4982 27.2078V29.0159C22.3726 29.3443 22.1395 29.6203 21.8368 29.7992C21.5342 29.978 21.1799 30.0491 20.8317 30.0009C20.4836 30.0491 20.1293 29.978 19.8267 29.7992C19.524 29.6203 19.2909 29.3443 19.1652 29.0159V27.2078ZM12.5076 39.9981C11.4028 40.0001 10.3437 40.4396 9.56201 41.2203C8.78032 42.0011 8.33964 43.0596 8.33633 44.1644V44.9976C8.34016 45.3413 8.38719 45.6832 8.47632 46.0151C8.97669 45.8936 9.48959 45.8312 10.0045 45.8293H15.004C15.5184 45.8299 16.0309 45.8923 16.5305 46.0151C16.6195 45.6831 16.6665 45.3413 16.6705 44.9976V44.1644C16.6692 43.0598 16.2298 42.001 15.4488 41.2199C14.6677 40.4389 13.6088 39.9995 12.5042 39.9981H12.5076ZM29.9942 39.9981C28.8901 40.001 27.832 40.4409 27.0513 41.2216C26.2706 42.0023 25.8308 43.0603 25.8279 44.1644V44.9976C25.8321 45.3419 25.8797 45.6843 25.9696 46.0167C26.4707 45.8931 26.9849 45.8304 27.5011 45.8301H32.5006C33.0127 45.8306 33.523 45.8924 34.0204 46.0143C34.1093 45.6829 34.1563 45.3416 34.1604 44.9985V44.1653C34.1587 43.0609 33.7191 42.0022 32.9382 41.2213C32.1573 40.4403 31.0986 40.0008 29.9942 39.999V39.9981ZM47.4924 39.9981C46.388 39.9999 45.3293 40.4395 44.5484 41.2204C43.7674 42.0014 43.3279 43.06 43.3262 44.1644V44.9976C43.3301 45.3413 43.3771 45.6831 43.4662 46.0151C43.9679 45.8916 44.4827 45.8292 44.9993 45.8293H49.9988C50.5109 45.8313 51.021 45.8932 51.5187 46.0135C51.6076 45.6821 51.6547 45.3407 51.6587 44.9976V44.1644C51.6558 43.0603 51.2159 42.0023 50.4352 41.2216C49.6545 40.4409 48.5965 40.001 47.4924 39.9981ZM10.0028 47.4974C8.67763 47.4998 7.40739 48.0274 6.47033 48.9644C5.53327 49.9015 5.00576 51.1717 5.00333 52.4969V54.1634C5.00333 54.3844 5.09112 54.5963 5.24739 54.7526C5.40365 54.9089 5.61559 54.9966 5.83658 54.9966H19.1652C19.3862 54.9966 19.5982 54.9089 19.7544 54.7526C19.9107 54.5963 19.9985 54.3844 19.9985 54.1634V52.4969C19.9961 51.1717 19.4686 49.9015 18.5315 48.9644C17.5944 48.0274 16.3242 47.4998 14.999 47.4974H10.0028ZM27.4961 47.4974C26.1709 47.4998 24.9006 48.0274 23.9636 48.9644C23.0265 49.9015 22.499 51.1717 22.4966 52.4969V54.1634C22.4966 54.3844 22.5844 54.5963 22.7406 54.7526C22.8969 54.9089 23.1088 54.9966 23.3298 54.9966H36.6635C36.8845 54.9966 37.0964 54.9089 37.2527 54.7526C37.409 54.5963 37.4967 54.3844 37.4967 54.1634V52.4969C37.4948 51.1715 36.9674 49.9011 36.0302 48.9639C35.0931 48.0267 33.8226 47.4994 32.4972 47.4974H27.4961ZM45.001 47.4974C43.6758 47.4998 42.4056 48.0274 41.4685 48.9644C40.5314 49.9015 40.0039 51.1717 40.0015 52.4969V54.1634C40.0015 54.3844 40.0893 54.5963 40.2456 54.7526C40.4018 54.9089 40.6138 54.9966 40.8348 54.9966H54.1667C54.3877 54.9966 54.5997 54.9089 54.7559 54.7526C54.9122 54.5963 55 54.3844 55 54.1634V52.4969C55 51.1718 54.474 49.9009 53.5374 48.9635C52.6009 48.0261 51.3306 47.4987 50.0055 47.4974H45.001Z" fill="white"/>
</svg>
