<svg width="18" height="18" viewBox="0 0 18 18" fill="none" xmlns="http://www.w3.org/2000/svg">
<path d="M8.34824 11.3625H10.0965M7.9125 9.2625H10.5375M12.8212 7.4985L12.48 12.7853C12.4222 13.6095 12.375 14.25 10.9102 14.25H7.53974C6.075 14.25 6.02775 13.6095 5.97 12.7853L5.62875 7.4985M7.3875 5.30925L7.503 4.6215C7.587 4.12275 7.65 3.75 8.53725 3.75H9.91275C10.8 3.75 10.8682 4.14375 10.947 4.62675L11.0625 5.30925M13.95 5.8395C12.2017 5.66625 10.443 5.577 8.6895 5.577C7.65 5.577 6.6105 5.6295 5.571 5.7345L4.5 5.8395" stroke="#4A4A4A" stroke-linecap="round" stroke-linejoin="round"/>
</svg>
