<svg width="32" height="32" viewBox="0 0 32 32" fill="none" xmlns="http://www.w3.org/2000/svg">
<rect width="32" height="32" rx="5" fill="white"/>
<path d="M17.0497 16.766C16.9745 16.8942 16.8379 16.9659 16.6975 16.9659C16.6286 16.9659 16.5587 16.9486 16.4948 16.9123L14.3097 15.6713C14.184 15.5999 14.1066 15.468 14.1066 15.3252V12.1058C14.1066 11.8851 14.2885 11.7061 14.5128 11.7061C14.7372 11.7061 14.9191 11.8851 14.9191 12.1058V15.0945L16.901 16.2202C17.0954 16.3305 17.1619 16.5749 17.0497 16.766ZM14.5129 9.68425C14.7372 9.68425 14.9191 9.50532 14.9191 9.28462V8.5502C14.9191 8.3295 14.7372 8.15057 14.5129 8.15057C14.2885 8.15057 14.1066 8.3295 14.1066 8.5502V9.28462C14.1066 9.50537 14.2885 9.68425 14.5129 9.68425ZM19.1422 11.3365L19.6701 10.8172C19.8288 10.6611 19.8288 10.4081 19.6701 10.252C19.5115 10.096 19.2543 10.096 19.0956 10.252L18.5677 10.7713C18.4091 10.9274 18.4091 11.1804 18.5677 11.3365C18.647 11.4145 18.751 11.4535 18.855 11.4535C18.959 11.4535 19.0629 11.4145 19.1422 11.3365ZM9.8835 19.314L9.35558 19.8333C9.19694 19.9893 9.19694 20.2424 9.35558 20.3984C9.4349 20.4764 9.53885 20.5155 9.64285 20.5155C9.74685 20.5155 9.8508 20.4764 9.93012 20.3984L10.458 19.8791C10.6167 19.723 10.6167 19.47 10.458 19.314C10.2994 19.1579 10.0421 19.1579 9.8835 19.314ZM9.93012 10.252C9.77148 10.096 9.51427 10.096 9.35563 10.252C9.19699 10.4081 9.19699 10.6611 9.35563 10.8172L9.88355 11.3365C9.96287 11.4145 10.0668 11.4535 10.1708 11.4535C10.2748 11.4535 10.3788 11.4145 10.4581 11.3365C10.6167 11.1804 10.6167 10.9274 10.4581 10.7713L9.93012 10.252ZM20.6535 15.7249H21.4001C21.6244 15.7249 21.8063 15.5459 21.8063 15.3252C21.8063 15.1046 21.6244 14.9256 21.4001 14.9256H20.6535C20.4291 14.9256 20.2472 15.1046 20.2472 15.3252C20.2472 15.5459 20.4291 15.7249 20.6535 15.7249ZM14.5129 20.9662C14.2885 20.9662 14.1066 21.1451 14.1066 21.3658V22.1002C14.1066 22.3209 14.2885 22.4999 14.5129 22.4999C14.7372 22.4999 14.9191 22.3209 14.9191 22.1002V21.3658C14.9191 21.1451 14.7372 20.9662 14.5129 20.9662ZM8.37225 14.9256H7.62566C7.40131 14.9256 7.21941 15.1046 7.21941 15.3252C7.21941 15.5459 7.40131 15.7249 7.62566 15.7249H8.3722C8.59655 15.7249 8.77845 15.5459 8.77845 15.3252C8.77845 15.1046 8.5966 14.9256 8.37225 14.9256ZM29 22.0607C29 25.3356 26.2915 28 22.9623 28C21.1576 28 19.5355 27.2168 18.4282 25.9781C17.1748 26.4243 15.8592 26.6505 14.5129 26.6505C11.4377 26.6505 8.54653 25.4725 6.37203 23.3335C4.19752 21.1944 3 18.3503 3 15.3252C3 12.3002 4.19757 9.45616 6.37203 7.31709C8.54653 5.17806 11.4377 4 14.5129 4C17.5881 4 20.4792 5.17806 22.6537 7.31709C24.8281 9.45616 26.0257 12.3001 26.0257 15.3252C26.0257 15.8439 25.9887 16.3664 25.9164 16.8825C27.7552 17.9016 29 19.8407 29 22.0607ZM22.9623 16.9206C20.0811 16.9206 17.7371 19.2264 17.7371 22.0607C17.7371 23.2371 18.1413 24.3223 18.8198 25.1895C19.2205 23.9179 20.2012 22.9167 21.448 22.4621C20.9112 22.0298 20.5678 21.3731 20.5678 20.6389C20.5678 19.3401 21.642 18.2834 22.9624 18.2834C24.2828 18.2834 25.357 19.3401 25.357 20.6389C25.357 21.3731 25.0136 22.0298 24.4767 22.4621C25.7234 22.9167 26.7042 23.9179 27.1049 25.1895C27.7834 24.3223 28.1875 23.2371 28.1875 22.0607C28.1875 19.2264 25.8435 16.9206 22.9623 16.9206ZM22.9629 22.1953C23.835 22.195 24.5445 21.497 24.5445 20.6389C24.5445 19.7808 23.8347 19.0827 22.9624 19.0827C22.09 19.0827 21.3803 19.7808 21.3803 20.6389C21.3803 21.4969 22.0897 22.195 22.9619 22.1953H22.9624H22.9629ZM22.7157 16.1267C22.7425 15.8595 22.7569 15.5912 22.7569 15.3252C22.7569 10.8535 19.0587 7.21558 14.5129 7.21558C9.96719 7.21558 6.26894 10.8536 6.26894 15.3252C6.26894 19.7969 9.96714 23.4349 14.5129 23.4349C15.3671 23.4349 16.2054 23.3075 17.0099 23.0561C16.9541 22.7323 16.9246 22.3998 16.9246 22.0606C16.9246 18.867 19.5005 16.2545 22.7157 16.1267ZM17.9103 25.3091C17.6086 24.8566 17.3677 24.3615 17.1999 23.8349C16.3329 24.0997 15.4311 24.2341 14.5129 24.2341C9.51914 24.2341 5.45644 20.2376 5.45644 15.3252C5.45644 10.4129 9.51909 6.41632 14.5129 6.41632C19.5066 6.41632 23.5693 10.4128 23.5693 15.3252C23.5693 15.5982 23.555 15.8734 23.5293 16.1477C24.0933 16.1996 24.635 16.3281 25.1435 16.5225C25.1894 16.1245 25.2132 15.7236 25.2132 15.3252C25.2132 9.52115 20.413 4.79921 14.5129 4.79921C8.61265 4.79926 3.8125 9.5212 3.8125 15.3252C3.8125 21.1293 8.61265 25.8513 14.5129 25.8513C15.6782 25.8513 16.8186 25.6689 17.9103 25.3091ZM22.9623 27.2007C24.2969 27.2007 25.516 26.7057 26.4405 25.8928C26.162 24.2274 24.7015 22.9948 22.9629 22.9945C22.9627 22.9945 22.9626 22.9945 22.9624 22.9945C22.9622 22.9945 22.962 22.9945 22.9619 22.9945C21.2232 22.9948 19.7626 24.2274 19.4842 25.8929C20.4086 26.7057 21.6277 27.2007 22.9623 27.2007Z" fill="url(#paint0_linear_6355_6013)"/>
<defs>
<linearGradient id="paint0_linear_6355_6013" x1="8.25941" y1="25.19" x2="24.2736" y2="8.9106" gradientUnits="userSpaceOnUse">
<stop stop-color="#FCC60E"/>
<stop offset="1" stop-color="#E92E29"/>
</linearGradient>
</defs>
</svg>
