<svg width="60" height="60" viewBox="0 0 60 60" fill="none" xmlns="http://www.w3.org/2000/svg">
<path d="M28.9652 24.2289L22.1949 23.4086L17.8313 20.508C18.7155 20.7434 19.5855 21.029 20.4371 21.3635C20.2583 20.7474 19.8854 20.2054 19.3738 19.8183C18.8622 19.4312 18.2393 19.2197 17.5978 19.2151L14.8577 19.1951C14.4642 19.1925 14.074 19.2678 13.7097 19.4168C13.3454 19.5658 13.0143 19.7855 12.7353 20.0632C12.4564 20.3409 12.2353 20.6711 12.0847 21.0347C11.9341 21.3984 11.8571 21.7882 11.858 22.1818L11.8828 32.2852C11.8848 32.9578 12.1146 33.6099 12.5346 34.1352C12.9546 34.6606 13.5401 35.0282 14.1958 35.1782H10.4508L7.91251 22.2651C7.83142 21.8876 7.60529 21.557 7.28283 21.3446C6.96038 21.1322 6.56738 21.0549 6.1885 21.1294C5.80961 21.2039 5.47515 21.4243 5.25715 21.743C5.03915 22.0617 4.95505 22.4533 5.02296 22.8334L7.79472 36.9367C7.86068 37.2718 8.04102 37.5735 8.30489 37.7902C8.56875 38.007 8.89974 38.1253 9.24121 38.1249H13.2521V43.2221L8.70601 45.7121C8.59294 45.774 8.49317 45.8576 8.41241 45.9581C8.33164 46.0586 8.27145 46.174 8.23528 46.2977C8.19911 46.4214 8.18767 46.5511 8.2016 46.6792C8.21553 46.8074 8.25457 46.9316 8.31649 47.0446C8.37841 47.1577 8.46199 47.2574 8.56246 47.3382C8.66293 47.419 8.77833 47.4792 8.90207 47.5153C9.0258 47.5515 9.15545 47.563 9.2836 47.549C9.41176 47.5351 9.53592 47.496 9.64899 47.4341L14.2344 44.9234L18.8198 47.4341C18.9328 47.496 19.057 47.5351 19.1851 47.549C19.3133 47.563 19.4429 47.5515 19.5667 47.5153C19.6904 47.4792 19.8058 47.419 19.9063 47.3382C20.0068 47.2574 20.0903 47.1577 20.1523 47.0446C20.2142 46.9316 20.2532 46.8074 20.2671 46.6792C20.2811 46.5511 20.2696 46.4214 20.2335 46.2977C20.1973 46.174 20.1371 46.0586 20.0563 45.9581C19.9756 45.8576 19.8758 45.774 19.7627 45.7121L15.2166 43.2221V38.1249H19.5492C19.8608 38.1251 20.1644 38.0264 20.4163 37.843C20.6682 37.6596 20.8553 37.4009 20.9508 37.1043C21.0462 36.8077 21.0451 36.4884 20.9474 36.1926C20.8498 35.8967 20.6607 35.6394 20.4075 35.4579L21.7775 35.7775V45.4566C21.7775 45.737 21.8327 46.0147 21.94 46.2737C22.0473 46.5328 22.2046 46.7682 22.4029 46.9665C22.6012 47.1647 22.8366 47.322 23.0956 47.4293C23.3547 47.5366 23.6324 47.5919 23.9128 47.5919C24.1932 47.5919 24.4709 47.5366 24.7299 47.4293C24.989 47.322 25.2244 47.1647 25.4227 46.9665C25.621 46.7682 25.7782 46.5328 25.8856 46.2737C25.9929 46.0147 26.0481 45.737 26.0481 45.4566V34.083C26.0478 33.6007 25.8842 33.1328 25.5841 32.7553C25.2839 32.3778 24.8648 32.1131 24.395 32.0042L20.413 31.0757L20.4632 28.0105L16.3883 23.8225L20.5748 26.6053C20.806 26.759 21.07 26.8565 21.3456 26.8898L28.5354 27.7611C28.7673 27.7892 29.0024 27.7714 29.2274 27.7086C29.4524 27.6458 29.6628 27.5393 29.8466 27.3952C30.0304 27.2511 30.1841 27.0722 30.2987 26.8687C30.4134 26.6652 30.4869 26.4411 30.515 26.2093C30.5431 25.9774 30.5252 25.7422 30.4624 25.5172C30.3996 25.2923 30.2932 25.0819 30.1491 24.898C30.005 24.7142 29.826 24.5606 29.6226 24.4459C29.4191 24.3312 29.195 24.2577 28.9631 24.2296L28.9652 24.2289Z" fill="white"/>
<path d="M18.5406 17.8524C20.709 17.8524 22.4668 16.0946 22.4668 13.9262C22.4668 11.7578 20.709 10 18.5406 10C16.3722 10 14.6144 11.7578 14.6144 13.9262C14.6144 16.0946 16.3722 17.8524 18.5406 17.8524Z" fill="white"/>
<path d="M53.6597 28.8384H27.3666C27.0104 28.8384 26.6687 28.9799 26.4169 29.2318C26.165 29.4837 26.0234 29.8253 26.0234 30.1816C26.0234 30.5378 26.165 30.8795 26.4169 31.1313C26.6687 31.3832 27.0104 31.5247 27.3666 31.5247H28.0189V46.1233C28.0189 46.5133 28.1739 46.8874 28.4496 47.1632C28.7254 47.439 29.0995 47.5939 29.4895 47.5939H29.495C29.8851 47.5939 30.2591 47.439 30.5349 47.1632C30.8107 46.8874 30.9656 46.5133 30.9656 46.1233V31.5213H50.1448V46.1199C50.1448 46.5099 50.2997 46.884 50.5755 47.1597C50.8513 47.4355 51.2253 47.5905 51.6154 47.5905H51.6209C52.0109 47.5905 52.3849 47.4355 52.6607 47.1597C52.9365 46.884 53.0915 46.5099 53.0915 46.1199V31.5213H53.657C54.0132 31.5213 54.3548 31.3798 54.6067 31.1279C54.8586 30.876 55.0001 30.5344 55.0001 30.1781C55.0001 29.8219 54.8586 29.4803 54.6067 29.2284C54.3548 28.9765 54.0132 28.835 53.657 28.835L53.6597 28.8384Z" fill="white"/>
<path d="M44.5053 25.5787H42.5043V18.7367L44.1891 14.6135C44.2876 14.3725 44.2862 14.1022 44.1854 13.8621C44.0846 13.6221 43.8925 13.4319 43.6515 13.3334C43.4104 13.2349 43.1401 13.2363 42.9001 13.3371C42.66 13.4379 42.4698 13.63 42.3713 13.871L38.5037 23.3366C38.4052 23.5776 38.4065 23.8479 38.5074 24.088C38.6082 24.3281 38.8002 24.5183 39.0413 24.6167C39.2823 24.7152 39.5526 24.7139 39.7927 24.6131C40.0328 24.5122 40.223 24.3202 40.3214 24.0791L40.5412 23.5412V26.5602C40.5412 26.6891 40.5666 26.8167 40.6159 26.9358C40.6652 27.0549 40.7375 27.1631 40.8287 27.2543C40.9198 27.3454 41.028 27.4177 41.1471 27.467C41.2662 27.5164 41.3938 27.5418 41.5227 27.5418H44.5053C44.7656 27.5418 45.0152 27.4383 45.1993 27.2543C45.3834 27.0702 45.4868 26.8205 45.4868 26.5602C45.4868 26.2999 45.3834 26.0502 45.1993 25.8661C45.0152 25.6821 44.7656 25.5787 44.5053 25.5787Z" fill="white"/>
<path d="M36.7351 25.6946H32.9591C32.6988 25.6946 32.4491 25.798 32.265 25.9821C32.0809 26.1661 31.9775 26.4158 31.9775 26.6761C31.9775 26.9364 32.0809 27.1861 32.265 27.3702C32.4491 27.5543 32.6988 27.6577 32.9591 27.6577H36.7351C36.9954 27.6577 37.2451 27.5543 37.4292 27.3702C37.6133 27.1861 37.7167 26.9364 37.7167 26.6761C37.7167 26.4158 37.6133 26.1661 37.4292 25.9821C37.2451 25.798 36.9954 25.6946 36.7351 25.6946Z" fill="white"/>
</svg>
