<svg width="32" height="32" viewBox="0 0 32 32" fill="none" xmlns="http://www.w3.org/2000/svg">
<rect width="32" height="32" rx="5" fill="white"/>
<path d="M28.7778 19.1107H22.1111C21.6396 19.1107 21.1875 19.298 20.8541 19.6314C20.5207 19.9648 20.3334 20.417 20.3334 20.8885V25.3329H17.2222V24.1862C17.2252 23.1122 16.928 22.0588 16.3641 21.1447C15.8003 20.2306 14.9922 19.4923 14.0311 19.0129L13.2134 18.6085C13.206 18.5458 13.1851 18.4855 13.1521 18.4318C13.1191 18.3781 13.0748 18.3322 13.0223 18.2973L11.8889 17.5373V16.9596C12.6112 16.6432 13.2366 16.1407 13.7012 15.5036C14.1658 14.8664 14.453 14.1174 14.5334 13.3329H14.7778C15.1904 13.3329 15.586 13.169 15.8778 12.8773C16.1695 12.5856 16.3334 12.1899 16.3334 11.7773C16.3334 11.3648 16.1695 10.9691 15.8778 10.6774C15.586 10.3857 15.1904 10.2218 14.7778 10.2218H14.5556V9.3329C14.554 8.79197 14.3548 8.27027 13.9955 7.86593C13.6362 7.46159 13.1415 7.20248 12.6045 7.13734C12.4347 6.73415 12.1498 6.39003 11.7853 6.1481C11.4208 5.90617 10.993 5.77719 10.5556 5.77734H6.11114C5.99327 5.77734 5.88022 5.82417 5.79687 5.90752C5.71352 5.99087 5.6667 6.10391 5.6667 6.22179V7.11068C5.66861 7.50028 5.77447 7.88232 5.97336 8.21734C5.77518 8.55591 5.66943 8.9406 5.6667 9.3329V10.2218H5.44447C5.03191 10.2218 4.63625 10.3857 4.34453 10.6774C4.05281 10.9691 3.88892 11.3648 3.88892 11.7773C3.88892 12.1899 4.05281 12.5856 4.34453 12.8773C4.63625 13.169 5.03191 13.3329 5.44447 13.3329H5.68892C5.76764 14.1179 6.05415 14.8677 6.51895 15.5051C6.98376 16.1426 7.61005 16.6446 8.33336 16.9596V17.5373L7.20003 18.2973C7.14748 18.3322 7.10315 18.3781 7.07015 18.4318C7.03714 18.4855 7.01625 18.5458 7.00892 18.6085L6.19114 19.0173C5.22988 19.4953 4.42155 20.2327 3.8576 21.1462C3.29365 22.0596 2.99659 23.1127 3.00003 24.1862V25.7773C3.00003 26.3667 3.23416 26.9319 3.6509 27.3487C4.06765 27.7654 4.63288 27.9996 5.22225 27.9996H15C15.351 27.9999 15.697 27.9161 16.0089 27.7551C16.2344 27.913 16.5026 27.9982 16.7778 27.9996H28.3334C28.6867 27.9985 29.0252 27.8577 29.275 27.6079C29.5248 27.3581 29.6656 27.0195 29.6667 26.6662V19.9996C29.666 19.764 29.5721 19.5384 29.4056 19.3718C29.239 19.2053 29.0133 19.1114 28.7778 19.1107ZM14.5556 11.1107H14.7778C14.9546 11.1107 15.1242 11.1809 15.2492 11.3059C15.3742 11.431 15.4445 11.6005 15.4445 11.7773C15.4445 11.9542 15.3742 12.1237 15.2492 12.2487C15.1242 12.3738 14.9546 12.444 14.7778 12.444H14.5556V11.1107ZM5.6667 12.444H5.44447C5.26766 12.444 5.09809 12.3738 4.97307 12.2487C4.84804 12.1237 4.77781 11.9542 4.77781 11.7773C4.77781 11.6005 4.84804 11.431 4.97307 11.3059C5.09809 11.1809 5.26766 11.1107 5.44447 11.1107H5.6667V12.444ZM12.2489 18.8485L11.6623 20.6085L10.6978 19.884L11.5867 18.404L12.2489 18.8485ZM10.1111 19.1373L9.22225 17.6529V17.244C9.80892 17.3625 10.4134 17.3625 11 17.244V17.6529L10.1111 19.1373ZM12.7778 8.07957C13.0368 8.17182 13.2611 8.34163 13.4201 8.56589C13.5792 8.79015 13.6653 9.05797 13.6667 9.3329V9.59512L12.7778 8.70623V8.07957ZM6.55558 6.66623H10.5556C10.9089 6.66729 11.2474 6.8081 11.4972 7.05792C11.747 7.30774 11.8879 7.64627 11.8889 7.99957V8.44401H7.88892C7.53562 8.44296 7.19709 8.30214 6.94727 8.05232C6.69745 7.8025 6.55664 7.46397 6.55558 7.11068V6.66623ZM6.55558 9.3329C6.55531 9.19678 6.57785 9.06157 6.62225 8.9329C6.80449 9.05582 7.0036 9.15163 7.21336 9.21734L6.55558 9.74179V9.3329ZM7.60003 15.3996C7.26723 15.0718 7.00337 14.6808 6.824 14.2496C6.64463 13.8183 6.55336 13.3555 6.55558 12.8885V10.8796L8.48892 9.3329H12.1511L13.6667 10.8485V12.8885C13.6654 13.831 13.2904 14.7347 12.6239 15.4012C11.9574 16.0677 11.0537 16.4427 10.1111 16.444C9.64407 16.4462 9.18128 16.355 8.75002 16.1756C8.31876 15.9962 7.92775 15.7324 7.60003 15.3996ZM8.63558 18.404L9.52447 19.884L8.56003 20.6085L7.97336 18.8485L8.63558 18.404ZM8.33336 27.1107H5.22225C4.86895 27.1096 4.53043 26.9688 4.28061 26.719C4.03079 26.4692 3.88997 26.1306 3.88892 25.7773V24.444H5.6667V24.7062L4.9067 25.4618L5.53781 26.0929L6.29336 25.3329H8.33336C8.56911 25.3329 8.7952 25.4265 8.9619 25.5932C9.1286 25.7599 9.22225 25.986 9.22225 26.2218C9.22225 26.4575 9.1286 26.6836 8.9619 26.8503C8.7952 27.017 8.56911 27.1107 8.33336 27.1107ZM10.36 27.1107H9.86225C10.0239 26.8423 10.1099 26.5351 10.1111 26.2218C10.1111 25.7503 9.92384 25.2981 9.59044 24.9647C9.25704 24.6313 8.80486 24.444 8.33336 24.444H6.55558V22.6662H5.6667V23.5551H3.93336C4.03325 22.7605 4.32821 22.0029 4.79195 21.35C5.25569 20.697 5.87378 20.169 6.59114 19.8129L7.24892 19.484L7.91114 21.4751C7.93388 21.5412 7.97189 21.601 8.02209 21.6497C8.07228 21.6983 8.13325 21.7345 8.20003 21.7551C8.24261 21.7711 8.2879 21.7787 8.33336 21.7773C8.42938 21.7764 8.52268 21.7453 8.60003 21.6885L10.1111 20.5551L11.6223 21.6885C11.6996 21.7453 11.7929 21.7764 11.8889 21.7773C11.9344 21.7787 11.9797 21.7711 12.0223 21.7551C12.089 21.7345 12.15 21.6983 12.2002 21.6497C12.2504 21.601 12.2884 21.5412 12.3111 21.4751L12.9734 19.484L13.6311 19.8085C14.3483 20.166 14.9661 20.695 15.4297 21.3486C15.8933 22.0022 16.1885 22.7601 16.2889 23.5551H14.5556V22.6662H13.6667V24.444H11.8889C11.4174 24.444 10.9652 24.6313 10.6318 24.9647C10.2984 25.2981 10.1111 25.7503 10.1111 26.2218C10.1124 26.5351 10.1984 26.8423 10.36 27.1107ZM15.8889 25.3329C15.771 25.3329 15.658 25.3797 15.5746 25.4631C15.4913 25.5464 15.4445 25.6595 15.4445 25.7773V26.6662C15.4467 26.7819 15.4631 26.8968 15.4934 27.0085C15.3376 27.0759 15.1697 27.1107 15 27.1107H11.8889C11.6532 27.1107 11.4271 27.017 11.2604 26.8503C11.0937 26.6836 11 26.4575 11 26.2218C11 25.986 11.0937 25.7599 11.2604 25.5932C11.4271 25.4265 11.6532 25.3329 11.8889 25.3329H13.9289L14.6845 26.0929L15.3156 25.4618L14.5556 24.7062V24.444H16.3334V25.3329H15.8889ZM21.6667 26.6662C21.6667 26.7841 21.6199 26.8972 21.5365 26.9805C21.4532 27.0639 21.3401 27.1107 21.2222 27.1107H16.7778C16.6599 27.1107 16.5469 27.0639 16.4635 26.9805C16.3802 26.8972 16.3334 26.7841 16.3334 26.6662V26.2218H21.6667V26.6662ZM21.6667 25.3329H21.2222V20.8885C21.2217 20.7324 21.2625 20.5791 21.3406 20.444C21.4187 20.3089 21.5312 20.1969 21.6667 20.1196V25.3329ZM28.7778 26.6662C28.7778 26.7841 28.731 26.8972 28.6476 26.9805C28.5643 27.0639 28.4512 27.1107 28.3334 27.1107H22.4756C22.5273 26.9682 22.5544 26.8179 22.5556 26.6662V26.2218H28.7778V26.6662ZM28.7778 25.3329H22.5556V19.9996H28.7778V25.3329Z" fill="url(#paint0_linear_6355_7084)"/>
<path d="M25.6654 24.0007C25.9291 24.0007 26.1869 23.9225 26.4061 23.7759C26.6254 23.6294 26.7963 23.4212 26.8972 23.1776C26.9981 22.9339 27.0245 22.6658 26.9731 22.4072C26.9216 22.1486 26.7946 21.911 26.6082 21.7245C26.4217 21.538 26.1841 21.4111 25.9255 21.3596C25.6668 21.3082 25.3988 21.3346 25.1551 21.4355C24.9115 21.5364 24.7032 21.7073 24.5567 21.9266C24.4102 22.1458 24.332 22.4036 24.332 22.6673C24.332 23.0209 24.4725 23.3601 24.7226 23.6101C24.9726 23.8602 25.3117 24.0007 25.6654 24.0007ZM25.6654 22.2229C25.7533 22.2229 25.8392 22.2489 25.9123 22.2978C25.9854 22.3466 26.0423 22.416 26.076 22.4972C26.1096 22.5784 26.1184 22.6678 26.1013 22.754C26.0841 22.8402 26.0418 22.9194 25.9796 22.9816C25.9175 23.0437 25.8383 23.0861 25.7521 23.1032C25.6659 23.1204 25.5765 23.1116 25.4953 23.0779C25.4141 23.0443 25.3447 22.9873 25.2958 22.9142C25.247 22.8411 25.2209 22.7552 25.2209 22.6673C25.2209 22.5494 25.2677 22.4364 25.3511 22.353C25.4344 22.2697 25.5475 22.2229 25.6654 22.2229Z" fill="url(#paint1_linear_6355_7084)"/>
<path d="M28.3338 4H18.556C18.2024 4 17.8632 4.14048 17.6132 4.39052C17.3631 4.64057 17.2227 4.97971 17.2227 5.33333V12.4444C17.2227 12.7981 17.3631 13.1372 17.6132 13.3873C17.8632 13.6373 18.2024 13.7778 18.556 13.7778H19.8893V16C19.8893 16.0879 19.9153 16.1738 19.9642 16.2469C20.013 16.32 20.0824 16.377 20.1635 16.4107C20.2175 16.4331 20.2753 16.4446 20.3338 16.4444C20.4516 16.4444 20.5647 16.3976 20.648 16.3142L23.1844 13.7778H28.3338C28.6874 13.7778 29.0265 13.6373 29.2766 13.3873C29.5266 13.1372 29.6671 12.7981 29.6671 12.4444V5.33333C29.6671 4.97971 29.5266 4.64057 29.2766 4.39052C29.0265 4.14048 28.6874 4 28.3338 4ZM28.7782 12.4444C28.7782 12.5623 28.7314 12.6754 28.648 12.7587C28.5647 12.8421 28.4516 12.8889 28.3338 12.8889H23.0004C22.8826 12.8889 22.7695 12.9358 22.6862 13.0191L20.7782 14.9271V13.3333C20.7782 13.2155 20.7314 13.1024 20.648 13.0191C20.5647 12.9357 20.4516 12.8889 20.3338 12.8889H18.556C18.4381 12.8889 18.3251 12.8421 18.2417 12.7587C18.1584 12.6754 18.1115 12.5623 18.1115 12.4444V5.33333C18.1115 5.21546 18.1584 5.10241 18.2417 5.01906C18.3251 4.93571 18.4381 4.88889 18.556 4.88889H28.3338C28.4516 4.88889 28.5647 4.93571 28.648 5.01906C28.7314 5.10241 28.7782 5.21546 28.7782 5.33333V12.4444Z" fill="url(#paint2_linear_6355_7084)"/>
<path d="M19.8906 5.77734H20.7795V6.66623H19.8906V5.77734Z" fill="url(#paint3_linear_6355_7084)"/>
<path d="M21.668 5.77734H27.0013V6.66623H21.668V5.77734Z" fill="url(#paint4_linear_6355_7084)"/>
<path d="M19.8906 7.55469H27.0017V8.44358H19.8906V7.55469Z" fill="url(#paint5_linear_6355_7084)"/>
<path d="M19.8906 9.33203H27.0017V10.2209H19.8906V9.33203Z" fill="url(#paint6_linear_6355_7084)"/>
<path d="M19.8906 11.1094H27.0017V11.9983H19.8906V11.1094Z" fill="url(#paint7_linear_6355_7084)"/>
<path d="M11.5802 14.5553L10.9922 13.8887C10.7455 14.0969 10.4332 14.2111 10.1104 14.2111C9.78764 14.2111 9.47528 14.0969 9.22863 13.8887L8.64062 14.5553C9.04656 14.9133 9.56918 15.1108 10.1104 15.1108C10.6516 15.1108 11.1742 14.9133 11.5802 14.5553Z" fill="url(#paint8_linear_6355_7084)"/>
<path d="M8.3342 12.8891C8.82512 12.8891 9.22309 12.4911 9.22309 12.0002C9.22309 11.5093 8.82512 11.1113 8.3342 11.1113C7.84328 11.1113 7.44531 11.5093 7.44531 12.0002C7.44531 12.4911 7.84328 12.8891 8.3342 12.8891Z" fill="url(#paint9_linear_6355_7084)"/>
<path d="M11.8889 12.8891C12.3798 12.8891 12.7778 12.4911 12.7778 12.0002C12.7778 11.5093 12.3798 11.1113 11.8889 11.1113C11.398 11.1113 11 11.5093 11 12.0002C11 12.4911 11.398 12.8891 11.8889 12.8891Z" fill="url(#paint10_linear_6355_7084)"/>
<defs>
<linearGradient id="paint0_linear_6355_7084" x1="16.3334" y1="29.7245" x2="16.3334" y2="3.04712" gradientUnits="userSpaceOnUse">
<stop stop-color="#E93E3A"/>
<stop offset="0.35" stop-color="#ED683C"/>
<stop offset="0.7" stop-color="#F3903F"/>
<stop offset="1" stop-color="#FDC70C"/>
</linearGradient>
<linearGradient id="paint1_linear_6355_7084" x1="25.6654" y1="29.7255" x2="25.6654" y2="3.04821" gradientUnits="userSpaceOnUse">
<stop stop-color="#E93E3A"/>
<stop offset="0.35" stop-color="#ED683C"/>
<stop offset="0.7" stop-color="#F3903F"/>
<stop offset="1" stop-color="#FDC70C"/>
</linearGradient>
<linearGradient id="paint2_linear_6355_7084" x1="23.4449" y1="29.7249" x2="23.4449" y2="3.04756" gradientUnits="userSpaceOnUse">
<stop stop-color="#E93E3A"/>
<stop offset="0.35" stop-color="#ED683C"/>
<stop offset="0.7" stop-color="#F3903F"/>
<stop offset="1" stop-color="#FDC70C"/>
</linearGradient>
<linearGradient id="paint3_linear_6355_7084" x1="20.3351" y1="29.7245" x2="20.3351" y2="3.04712" gradientUnits="userSpaceOnUse">
<stop stop-color="#E93E3A"/>
<stop offset="0.35" stop-color="#ED683C"/>
<stop offset="0.7" stop-color="#F3903F"/>
<stop offset="1" stop-color="#FDC70C"/>
</linearGradient>
<linearGradient id="paint4_linear_6355_7084" x1="24.3346" y1="29.7245" x2="24.3346" y2="3.04712" gradientUnits="userSpaceOnUse">
<stop stop-color="#E93E3A"/>
<stop offset="0.35" stop-color="#ED683C"/>
<stop offset="0.7" stop-color="#F3903F"/>
<stop offset="1" stop-color="#FDC70C"/>
</linearGradient>
<linearGradient id="paint5_linear_6355_7084" x1="23.4462" y1="29.724" x2="23.4462" y2="3.04669" gradientUnits="userSpaceOnUse">
<stop stop-color="#E93E3A"/>
<stop offset="0.35" stop-color="#ED683C"/>
<stop offset="0.7" stop-color="#F3903F"/>
<stop offset="1" stop-color="#FDC70C"/>
</linearGradient>
<linearGradient id="paint6_linear_6355_7084" x1="23.4462" y1="29.7236" x2="23.4462" y2="3.04625" gradientUnits="userSpaceOnUse">
<stop stop-color="#E93E3A"/>
<stop offset="0.35" stop-color="#ED683C"/>
<stop offset="0.7" stop-color="#F3903F"/>
<stop offset="1" stop-color="#FDC70C"/>
</linearGradient>
<linearGradient id="paint7_linear_6355_7084" x1="23.4462" y1="29.7232" x2="23.4462" y2="3.04582" gradientUnits="userSpaceOnUse">
<stop stop-color="#E93E3A"/>
<stop offset="0.35" stop-color="#ED683C"/>
<stop offset="0.7" stop-color="#F3903F"/>
<stop offset="1" stop-color="#FDC70C"/>
</linearGradient>
<linearGradient id="paint8_linear_6355_7084" x1="10.1104" y1="29.7247" x2="10.1104" y2="3.04734" gradientUnits="userSpaceOnUse">
<stop stop-color="#E93E3A"/>
<stop offset="0.35" stop-color="#ED683C"/>
<stop offset="0.7" stop-color="#F3903F"/>
<stop offset="1" stop-color="#FDC70C"/>
</linearGradient>
<linearGradient id="paint9_linear_6355_7084" x1="8.3342" y1="29.7251" x2="8.3342" y2="3.04777" gradientUnits="userSpaceOnUse">
<stop stop-color="#E93E3A"/>
<stop offset="0.35" stop-color="#ED683C"/>
<stop offset="0.7" stop-color="#F3903F"/>
<stop offset="1" stop-color="#FDC70C"/>
</linearGradient>
<linearGradient id="paint10_linear_6355_7084" x1="11.8889" y1="29.7251" x2="11.8889" y2="3.04777" gradientUnits="userSpaceOnUse">
<stop stop-color="#E93E3A"/>
<stop offset="0.35" stop-color="#ED683C"/>
<stop offset="0.7" stop-color="#F3903F"/>
<stop offset="1" stop-color="#FDC70C"/>
</linearGradient>
</defs>
</svg>
