<svg width="24" height="24" viewBox="0 0 24 24" fill="none" xmlns="http://www.w3.org/2000/svg">
<path d="M11.0446 5.09181C11.335 4.15213 12.665 4.15213 12.9554 5.09181L14.1429 8.93456C14.2724 9.35357 14.6598 9.63932 15.0983 9.63932H19.0437C20.0002 9.63932 20.4109 10.8533 19.6508 11.434L16.374 13.9372C16.0409 14.1916 15.9019 14.6267 16.0256 15.0271L17.2566 19.0108C17.5441 19.941 16.4678 20.6918 15.6941 20.1007L12.6071 17.7424C12.2487 17.4686 11.7513 17.4686 11.3929 17.7424L8.30585 20.1007C7.53216 20.6918 6.45591 19.941 6.74337 19.0108L7.9744 15.0271C8.09813 14.6267 7.95906 14.1916 7.62604 13.9372L4.34923 11.434C3.58912 10.8533 3.99976 9.63932 4.9563 9.63932H8.90168C9.34024 9.63932 9.72762 9.35357 9.8571 8.93456L11.0446 5.09181Z" fill="#F09819"/>
</svg>
