<svg width="120" height="120" viewBox="0 0 120 120" fill="none" xmlns="http://www.w3.org/2000/svg">
<mask id="mask0_8888_29308" style="mask-type:luminance" maskUnits="userSpaceOnUse" x="10" y="10" width="100" height="100">
<path d="M110 10H10V110H110V10Z" fill="white"/>
</mask>
<g mask="url(#mask0_8888_29308)">
<mask id="mask1_8888_29308" style="mask-type:luminance" maskUnits="userSpaceOnUse" x="10" y="10" width="99" height="99">
<path d="M10.9502 10.6951H108.795V108.54H10.9502V10.6951Z" fill="white"/>
</mask>
<g mask="url(#mask1_8888_29308)">
<path d="M31.5854 35.54H19.1654V106.63H100.575V35.54H88.1554M31.5854 35.54L39.2304 35.54V41.655M31.5854 35.54L31.5854 41.655H39.2304M88.1554 35.54L88.1554 24.26M88.1554 35.54L80.5104 35.54M88.1554 35.54L88.1554 41.655H80.5054M87.9654 12.605V16.425M93.6954 24.26V22.16C93.718 21.3929 93.5865 20.6291 93.3086 19.9138C93.0307 19.1985 92.6121 18.5463 92.0775 17.9957C91.543 17.4451 90.9034 17.0074 90.1966 16.7086C89.4898 16.4097 88.7302 16.2557 87.9629 16.2557C87.1955 16.2557 86.4359 16.4097 85.7291 16.7086C85.0223 17.0074 84.3827 17.4451 83.8482 17.9957C83.3136 18.5463 82.895 19.1985 82.6171 19.9138C82.3392 20.6291 82.2077 21.3929 82.2304 22.16V24.26M97.7303 24.26H78.6004M95.8004 24.26V35.54M80.5104 35.54V24.26M80.5104 35.54L80.5054 41.655M31.7654 16.425V12.605M31.7654 16.425C33.2864 16.425 34.7451 17.0292 35.8206 18.1047C36.8961 19.1802 37.5004 20.639 37.5004 22.16V24.26M31.7654 16.425C30.2469 16.429 28.7921 17.0349 27.7198 18.11C26.6475 19.1851 26.0453 20.6416 26.0454 22.16V24.26M22.0454 24.26H41.1554M23.9554 35.535V24.26M31.6004 24.26V35.54M39.2454 24.265V35.54M90.4454 61.91V78.91M92.7404 61.91H88.1554M29.2954 61.91V78.91M27.0004 61.91H31.5854M85.6704 92.87V89.05C85.6704 88.0362 85.2676 87.0639 84.5508 86.3471C83.8339 85.6302 82.8616 85.2275 81.8479 85.2275C80.8341 85.2275 79.8618 85.6302 79.1449 86.3471C78.4281 87.0639 78.0254 88.0362 78.0254 89.05V92.87M85.6704 92.87V106.605M85.6704 92.87H78.0254M78.0254 92.87V106.605M41.7154 92.87V89.05C41.7154 88.0369 41.3129 87.0652 40.5965 86.3488C39.8801 85.6324 38.9085 85.23 37.8954 85.23C36.8822 85.23 35.9106 85.6324 35.1942 86.3488C34.4778 87.0652 34.0754 88.0369 34.0754 89.05V92.87M41.7154 92.87V106.605M41.7154 92.87H34.0754M34.0754 92.87L34.0704 106.605M70.3804 106.605V92.87C70.3804 91.8569 69.9779 90.8852 69.2615 90.1688C68.5451 89.4524 67.5735 89.05 66.5604 89.05C66.0182 89.0499 65.4823 89.1653 64.9882 89.3886C64.4942 89.6119 64.0535 89.9379 63.6954 90.345C63.6848 89.3388 63.2777 88.3774 62.5625 87.6697C61.8472 86.9619 60.8816 86.5649 59.8754 86.565C58.8691 86.5649 57.9035 86.9619 57.1882 87.6697C56.473 88.3774 56.0659 89.3388 56.0554 90.345C55.6972 89.9379 55.2565 89.6119 54.7625 89.3886C54.2684 89.1653 53.7325 89.0499 53.1904 89.05C52.1772 89.05 51.2056 89.4524 50.4892 90.1688C49.7728 90.8852 49.3704 91.8569 49.3704 92.87V106.605M19.1754 78.895H100.575M59.8704 21.015V12.985M46.8704 33.985H72.8704M72.8704 41.63V34.01C72.8704 30.5622 71.5007 27.2556 69.0627 24.8176C66.6248 22.3796 63.3182 21.01 59.8704 21.01C56.4225 21.01 53.1159 22.3796 50.678 24.8176C48.24 27.2556 46.8704 30.5622 46.8704 34.01V41.655M80.5054 41.655V78.92M80.5054 41.655H39.2304M72.8654 64.205C72.866 62.4394 72.2951 60.721 71.2379 59.3068C70.1806 57.8927 68.694 56.8589 67.0004 56.36L59.8704 54.265L52.7654 56.36C51.067 56.8544 49.5749 57.8863 48.5129 59.3008C47.4508 60.7153 46.8763 62.4362 46.8754 64.205M46.8754 64.205H72.8754V78.92M46.8754 64.205V78.92M65.2204 78.92V64.205M54.5204 64.205V78.92M39.2304 41.655V78.92M12.8604 54.27H106.86" stroke="#454545" stroke-width="2.6" stroke-miterlimit="10" stroke-linecap="round" stroke-linejoin="round"/>
</g>
</g>
</svg>
