<svg width="120" height="120" viewBox="0 0 120 120" fill="none" xmlns="http://www.w3.org/2000/svg">
<mask id="mask0_8408_29065" style="mask-type:luminance" maskUnits="userSpaceOnUse" x="15" y="10" width="95" height="100">
<path d="M110 10H15V110H110V10Z" fill="white"/>
</mask>
<g mask="url(#mask0_8408_29065)">
<path d="M37.6769 81.3504C37.9938 81.3504 38.2978 81.2245 38.5219 81.0004C38.746 80.7763 38.8719 80.4723 38.8719 80.1554V78.2454C38.8824 78.0823 38.8594 77.9188 38.8043 77.7649C38.7491 77.6111 38.663 77.4702 38.5513 77.3509C38.4395 77.2317 38.3044 77.1366 38.1545 77.0716C38.0045 77.0067 37.8428 76.9731 37.6794 76.9731C37.5159 76.9731 37.3542 77.0067 37.2043 77.0716C37.0543 77.1366 36.9193 77.2317 36.8075 77.3509C36.6957 77.4702 36.6096 77.6111 36.5545 77.7649C36.4993 77.9188 36.4763 78.0823 36.4869 78.2454V80.1654C36.4882 80.4815 36.6147 80.7841 36.8386 81.0072C37.0626 81.2302 37.3658 81.3554 37.6819 81.3554L37.6769 81.3504Z" fill="#454545"/>
<path d="M37.6783 95.1302C37.9952 95.1302 38.2992 95.0043 38.5233 94.7802C38.7474 94.5561 38.8733 94.2521 38.8733 93.9352V84.6002C38.8537 84.2972 38.7195 84.0131 38.498 83.8055C38.2765 83.5979 37.9843 83.4824 37.6808 83.4824C37.3772 83.4824 37.085 83.5979 36.8636 83.8055C36.6421 84.0131 36.5079 84.2972 36.4883 84.6002V93.9302C36.4883 94.2471 36.6142 94.5511 36.8383 94.7752C37.0624 94.9993 37.3663 95.1252 37.6833 95.1252L37.6783 95.1302Z" fill="#454545"/>
<path d="M102.527 101.42H99.2069V75.2652H100.027C100.628 75.2652 101.204 75.0265 101.628 74.6018C102.053 74.177 102.292 73.6009 102.292 73.0002V71.2302C102.292 70.16 101.867 69.1337 101.11 68.377C100.353 67.6203 99.327 67.1952 98.2569 67.1952H96.5269V59.5352C96.5269 58.8324 96.2477 58.1583 95.7507 57.6613C95.2537 57.1644 94.5797 56.8852 93.8769 56.8852H93.8019V50.4452C93.8117 49.8334 93.6071 49.2374 93.2235 48.7607C92.8399 48.284 92.3016 47.9565 91.7019 47.8352V41.3352C91.729 40.6621 91.4887 40.0055 91.0334 39.509C90.5781 39.0125 89.9448 38.7163 89.2719 38.6852H88.8969V32.2602C88.9213 31.9345 88.881 31.6071 88.7781 31.2971C88.6752 30.9871 88.5118 30.7005 88.2975 30.4541C88.0831 30.2076 87.822 30.0061 87.5292 29.8613C87.2364 29.7164 86.9178 29.6311 86.5919 29.6102H86.0269V23.1702C86.0586 22.8533 86.0275 22.5332 85.9353 22.2283C85.8431 21.9235 85.6916 21.6398 85.4895 21.3936C85.2875 21.1474 85.0388 20.9435 84.7578 20.7937C84.4767 20.6438 84.1689 20.5508 83.8519 20.5202H83.6969V13.6802C83.6969 12.8845 83.3808 12.1215 82.8182 11.5589C82.2556 10.9962 81.4925 10.6802 80.6969 10.6802C79.9012 10.6802 79.1382 10.9962 78.5756 11.5589C78.0129 12.1215 77.6969 12.8845 77.6969 13.6802V13.9102H67.8969C67.4769 12.9639 66.7913 12.1597 65.9233 11.5953C65.0553 11.0309 64.0422 10.7305 63.0069 10.7305C61.9715 10.7305 60.9584 11.0309 60.0904 11.5953C59.2225 12.1597 58.5369 12.9639 58.1169 13.9102H48.6169V13.6802C48.6169 12.8845 48.3008 12.1215 47.7382 11.5589C47.1756 10.9962 46.4125 10.6802 45.6169 10.6802C44.8212 10.6802 44.0582 10.9962 43.4956 11.5589C42.9329 12.1215 42.6169 12.8845 42.6169 13.6802V20.5202H42.5269C42.2099 20.5508 41.902 20.6438 41.621 20.7937C41.3399 20.9435 41.0913 21.1474 40.8892 21.3936C40.6871 21.6398 40.5357 21.9235 40.4435 22.2283C40.3512 22.5332 40.3201 22.8533 40.3519 23.1702V29.6102H39.7719C39.4457 29.6304 39.1267 29.7153 38.8337 29.86C38.5406 30.0046 38.2792 30.2061 38.0647 30.4527C37.8502 30.6993 37.6869 30.9861 37.5842 31.2964C37.4816 31.6067 37.4417 31.9343 37.4669 32.2602V38.7052H37.0919C36.4189 38.7363 35.7857 39.0325 35.3304 39.529C34.8751 40.0255 34.6347 40.6821 34.6619 41.3552V47.8552C34.0622 47.9765 33.5238 48.304 33.1402 48.7807C32.7567 49.2574 32.5521 49.8534 32.5619 50.4652V56.8852H32.4919C31.7891 56.8852 31.115 57.1644 30.618 57.6613C30.1211 58.1583 29.8419 58.8324 29.8419 59.5352V67.2002H28.1169C27.587 67.2002 27.0623 67.3045 26.5727 67.5073C26.0832 67.7101 25.6384 68.0073 25.2637 68.382C24.889 68.7567 24.5918 69.2015 24.389 69.691C24.1862 70.1806 24.0819 70.7053 24.0819 71.2352V73.2352C24.0819 73.5018 24.1344 73.7657 24.2364 74.012C24.3384 74.2583 24.4879 74.4821 24.6764 74.6706C24.865 74.8591 25.0887 75.0086 25.335 75.1106C25.5813 75.2127 25.8453 75.2652 26.1119 75.2652H27.1869V101.42H23.6169C23.2999 101.42 22.996 101.546 22.7719 101.77C22.5478 101.994 22.4219 102.298 22.4219 102.615V107.345C22.4219 107.662 22.5478 107.966 22.7719 108.19C22.996 108.414 23.2999 108.54 23.6169 108.54H102.527C102.844 108.54 103.148 108.414 103.372 108.19C103.596 107.966 103.722 107.662 103.722 107.345V102.615C103.722 102.298 103.596 101.994 103.372 101.77C103.148 101.546 102.844 101.42 102.527 101.42ZM93.9019 59.2702C93.9713 59.2715 94.0374 59.3 94.086 59.3495C94.1347 59.3991 94.1619 59.4658 94.1619 59.5352V67.2002H73.1219V59.2702H93.9019ZM67.1469 67.1952H59.8219V66.2652C59.8219 65.2958 60.207 64.3661 60.8924 63.6807C61.5778 62.9953 62.5075 62.6102 63.4769 62.6102C64.4462 62.6102 65.3759 62.9953 66.0613 63.6807C66.7468 64.3661 67.1319 65.2958 67.1319 66.2652L67.1469 67.1952ZM63.4769 60.2252C61.8749 60.2278 60.3394 60.8657 59.2071 61.9989C58.0748 63.1322 57.4382 64.6682 57.4369 66.2702V67.2002H55.6719V59.2702H70.7369V67.1952H69.5269V66.2652C69.5242 64.6623 68.8857 63.1261 67.7513 61.9936C66.617 60.8612 65.0797 60.2252 63.4769 60.2252ZM57.6519 20.5202H55.6519V16.3002H57.6519V20.5202ZM61.6919 22.9052C60.4598 23.2888 59.3826 24.0559 58.6172 25.0948C57.8517 26.1336 57.4382 27.3898 57.4369 28.6802V29.6102H55.6719V22.9052H61.6919ZM70.7369 22.9052V29.6102H69.5269V28.6802C69.5255 27.3898 69.112 26.1336 68.3466 25.0948C67.5812 24.0559 66.5039 23.2888 65.2719 22.9052H70.7369ZM68.3619 20.5202V16.3002H70.7369V20.5202H68.3619ZM67.1319 29.6102H59.8219V28.6802C59.8219 27.7108 60.207 26.7811 60.8924 26.0957C61.5778 25.4103 62.5075 25.0252 63.4769 25.0252C64.4462 25.0252 65.3759 25.4103 66.0613 26.0957C66.7468 26.7811 67.1319 27.7108 67.1319 28.6802V29.6102ZM67.1319 38.7002H59.8219V37.7702C59.8219 36.8008 60.207 35.8711 60.8924 35.1857C61.5778 34.5003 62.5075 34.1152 63.4769 34.1152C64.4462 34.1152 65.3759 34.5003 66.0613 35.1857C66.7468 35.8711 67.1319 36.8008 67.1319 37.7702V38.7002ZM67.1319 47.7902H59.8219V46.8652C59.8219 45.8958 60.207 44.9661 60.8924 44.2807C61.5778 43.5953 62.5075 43.2102 63.4769 43.2102C64.4462 43.2102 65.3759 43.5953 66.0613 44.2807C66.7468 44.9661 67.1319 45.8958 67.1319 46.8652V47.7902ZM67.1319 56.8802H59.8219V55.9552C59.8219 54.9858 60.207 54.0561 60.8924 53.3707C61.5778 52.6853 62.5075 52.3002 63.4769 52.3002C64.4462 52.3002 65.3759 52.6853 66.0613 53.3707C66.7468 54.0561 67.1319 54.9858 67.1319 55.9552V56.8802ZM65.2619 50.1752H70.7319V56.8852H69.5269V55.9552C69.5255 54.6648 69.112 53.4086 68.3466 52.3698C67.5812 51.3309 66.5039 50.5638 65.2719 50.1802L65.2619 50.1752ZM69.5169 47.7902V46.8652C69.5209 45.5705 69.1098 44.3087 68.344 43.2648C67.5782 42.221 66.498 41.45 65.2619 41.0652H70.7319V47.7952L69.5169 47.7902ZM69.5169 38.7002V37.7702C69.5155 36.4798 69.102 35.2236 68.3366 34.1848C67.5712 33.1459 66.4939 32.3788 65.2619 31.9952H70.7319V38.7052L69.5169 38.7002ZM61.6919 32.0002C60.4598 32.3838 59.3826 33.1509 58.6172 34.1898C57.8517 35.2286 57.4382 36.4848 57.4369 37.7752V38.7052H55.6719V32.0002H61.6919ZM61.6919 41.0902C60.4598 41.4738 59.3826 42.2409 58.6172 43.2798C57.8517 44.3186 57.4382 45.5748 57.4369 46.8652V47.7952H55.6719V41.0652L61.6919 41.0902ZM61.6919 50.1802C60.4598 50.5638 59.3826 51.3309 58.6172 52.3698C57.8517 53.4086 57.4382 54.6648 57.4369 55.9552V56.8852H55.6719V50.1802H61.6919ZM91.3619 50.5802V56.8852H73.1219V50.1802H90.9619C91.068 50.1802 91.1697 50.2223 91.2447 50.2973C91.3197 50.3723 91.3619 50.4741 91.3619 50.5802ZM88.8919 41.0802C88.998 41.0802 89.0997 41.1223 89.1747 41.1973C89.2497 41.2723 89.2919 41.3741 89.2919 41.4802V47.7952H73.1219V41.0652L88.8919 41.0802ZM86.0969 31.9902C86.1494 31.9902 86.2014 32.0005 86.2499 32.0206C86.2985 32.0407 86.3426 32.0702 86.3797 32.1073C86.4169 32.1445 86.4463 32.1886 86.4664 32.2371C86.4865 32.2856 86.4969 32.3376 86.4969 32.3902V38.7052H73.1219V32.0002L86.0969 31.9902ZM80.1269 13.6802C80.1269 13.5204 80.1904 13.3671 80.3033 13.2541C80.4163 13.1412 80.5696 13.0777 80.7294 13.0777C80.8892 13.0777 81.0424 13.1412 81.1554 13.2541C81.2684 13.3671 81.3319 13.5204 81.3319 13.6802V20.5202H80.1269V13.6802ZM83.2419 22.9052C83.2944 22.9052 83.3464 22.9155 83.3949 22.9356C83.4435 22.9557 83.4876 22.9852 83.5247 23.0223C83.5619 23.0595 83.5913 23.1036 83.6114 23.1521C83.6315 23.2006 83.6419 23.2526 83.6419 23.3052V29.6102H73.1419V22.9052H83.2419ZM77.7419 20.5202H73.1219V16.3002H77.7419V20.5202ZM63.0269 13.1202C63.8121 13.128 64.563 13.4434 65.1183 13.9987C65.6736 14.554 65.9891 15.3049 65.9969 16.0902V20.5152H64.3669V16.2052C64.3472 15.9023 64.2131 15.6181 63.9916 15.4106C63.7701 15.203 63.4779 15.0874 63.1744 15.0874C62.8708 15.0874 62.5786 15.203 62.3572 15.4106C62.1357 15.6181 62.0015 15.9023 61.9819 16.2052V20.5202H60.0269V16.0902C60.0348 15.2997 60.3543 14.5444 60.9161 13.9882C61.4778 13.4321 62.2364 13.1201 63.0269 13.1202ZM48.6569 16.2952H53.3069V20.5152H48.6569V16.2952ZM45.0269 13.6802C45.0269 13.5204 45.0904 13.3671 45.2033 13.2541C45.3163 13.1412 45.4696 13.0777 45.6294 13.0777C45.7892 13.0777 45.9424 13.1412 46.0554 13.2541C46.1684 13.3671 46.2319 13.5204 46.2319 13.6802V20.5202H45.0269V13.6802ZM42.7419 23.3052C42.7419 23.2526 42.7522 23.2006 42.7723 23.1521C42.7924 23.1036 42.8219 23.0595 42.859 23.0223C42.8962 22.9852 42.9403 22.9557 42.9888 22.9356C43.0373 22.9155 43.0893 22.9052 43.1419 22.9052H53.2919V29.6102H42.7419V23.3052ZM39.8819 32.3952C39.8819 32.2891 39.924 32.1873 39.999 32.1123C40.074 32.0373 40.1758 31.9952 40.2819 31.9952H53.2819V38.7052H39.8819V32.3952ZM37.0869 41.4852C37.0869 41.3791 37.129 41.2773 37.204 41.2023C37.279 41.1273 37.3808 41.0852 37.4869 41.0852H53.2869V47.7952H37.0869V41.4852ZM35.0269 50.5652C35.0269 50.4591 35.069 50.3573 35.144 50.2823C35.219 50.2073 35.3208 50.1652 35.4269 50.1652H53.2869V56.8852H35.0269V50.5652ZM26.4769 72.8652V71.2202C26.4769 71.0037 26.5196 70.7894 26.6026 70.5895C26.6856 70.3896 26.8072 70.208 26.9605 70.0552C27.1137 69.9024 27.2957 69.7813 27.4958 69.699C27.696 69.6166 27.9104 69.5745 28.1269 69.5752H36.4869C36.65 69.5857 36.8135 69.5627 36.9674 69.5076C37.1212 69.4524 37.2621 69.3663 37.3814 69.2546C37.5006 69.1428 37.5957 69.0077 37.6606 68.8578C37.7256 68.7078 37.7591 68.5461 37.7591 68.3827C37.7591 68.2192 37.7256 68.0575 37.6606 67.9076C37.5957 67.7576 37.5006 67.6226 37.3814 67.5108C37.2621 67.399 37.1212 67.3129 36.9674 67.2578C36.8135 67.2026 36.65 67.1796 36.4869 67.1902H32.2269V59.5352C32.2269 59.4658 32.2541 59.3991 32.3027 59.3495C32.3513 59.3 32.4175 59.2715 32.4869 59.2702H53.2869V67.1952H46.4319C46.2688 67.1846 46.1052 67.2076 45.9514 67.2628C45.7975 67.3179 45.6566 67.404 45.5374 67.5158C45.4181 67.6276 45.3231 67.7626 45.2581 67.9126C45.1931 68.0625 45.1596 68.2242 45.1596 68.3877C45.1596 68.5511 45.1931 68.7128 45.2581 68.8628C45.3231 69.0127 45.4181 69.1478 45.5374 69.2596C45.6566 69.3713 45.7975 69.4574 45.9514 69.5126C46.1052 69.5677 46.2688 69.5907 46.4319 69.5802H98.2619C98.4779 69.5802 98.6918 69.6227 98.8914 69.7054C99.091 69.7881 99.2723 69.9092 99.4251 70.062C99.5778 70.2147 99.699 70.3961 99.7817 70.5957C99.8643 70.7952 99.9069 71.0092 99.9069 71.2252V72.8752L26.4769 72.8652ZM96.8119 75.2502V101.405H93.7469V75.2652L96.8119 75.2502ZM91.3569 75.2502V101.405H82.2919V75.2652L91.3569 75.2502ZM79.9069 75.2502V101.405H76.8419V75.2652L79.9069 75.2502ZM67.8069 101.405H58.4919V89.9852C58.4919 88.7506 58.9823 87.5666 59.8553 86.6936C60.7283 85.8206 61.9123 85.3302 63.1469 85.3302C64.3815 85.3302 65.5655 85.8206 66.4385 86.6936C67.3114 87.5666 67.8019 88.7506 67.8019 89.9852L67.8069 101.405ZM63.1519 82.9052C61.2847 82.9078 59.4948 83.6511 58.175 84.9718C56.8552 86.2926 56.1132 88.083 56.1119 89.9502V101.385H51.3869V75.2652H74.4469V101.42H70.1869V89.9852C70.1856 88.118 69.4436 86.3276 68.1237 85.0068C66.8039 83.6861 65.0141 82.9428 63.1469 82.9402L63.1519 82.9052ZM49.0269 75.2652V101.42H45.9369V75.2652H49.0269ZM43.5719 75.2652V101.42H35.0269V75.2652H43.5719ZM32.6669 75.2652V101.42H29.5769V75.2652H32.6669ZM101.347 106.15H24.8119V103.805H101.312L101.347 106.15Z" fill="#454545"/>
</g>
</svg>
