<svg width="120" height="120" viewBox="0 0 120 120" fill="none" xmlns="http://www.w3.org/2000/svg">
<mask id="mask0_6180_12983" style="mask-type:luminance" maskUnits="userSpaceOnUse" x="10" y="10" width="100" height="100">
<path d="M110 10H10V110H110V10Z" fill="white"/>
</mask>
<g mask="url(#mask0_6180_12983)">
<path d="M53.1099 69.9701H68.8899V44.7151H53.1099V69.9701ZM56.2649 47.8751H65.7349V66.8301H56.2649V47.8751Z" fill="black"/>
<path d="M56.26 74.7051H53.105V77.8601H56.26V74.7051Z" fill="black"/>
<path d="M53.1049 38.405H49.95V41.56H53.1049V38.405Z" fill="black"/>
<path d="M49.9499 32.095H46.7949V35.25H49.9499V32.095Z" fill="black"/>
<path d="M53.1049 88.9099H49.95V92.0649H53.1049V88.9099Z" fill="black"/>
<path d="M68.885 92.0649H65.73V95.2199H68.885V92.0649Z" fill="black"/>
<path d="M31.0149 76.28H21.5449V79.435H31.0149V76.28Z" fill="black"/>
<path d="M27.8549 82.595H24.7V85.75H27.8549V82.595Z" fill="black"/>
<path d="M100.455 76.28H94.1399V79.435H100.455V76.28Z" fill="black"/>
<path d="M94.1399 82.595H90.9849V85.75H94.1399V82.595Z" fill="black"/>
<path d="M87.8249 66.8149H84.6699V69.9699H87.8249V66.8149Z" fill="black"/>
<path d="M100.45 88.9099H97.2949V92.0649H100.45V88.9099Z" fill="black"/>
<path d="M97.295 35.25V44.72H90.9849V35.25H81.5149V28.94H86.25V19.47H83.075V10H70.465V19.47H67.31V10H54.685V19.47H51.5299V10H38.905V19.47H35.745V28.94H40.48V35.25H31.015V44.72H24.7V35.25H12.075V54.19H15.23V107.845H106.765V54.19H109.92V35.25H97.295ZM15.23 38.405H21.545V44.72H15.23V38.405ZM40.48 66.81H34.17V69.965H40.48V73.12H37.325V76.275H40.48V92.055H34.17V95.21H40.48V98.365H37.325V101.52H40.48V104.675H18.39V98.375H21.545V95.22H18.39V92.065H24.7V88.91H18.39V73.125H21.545V69.97H18.39V66.815H24.7V63.66H18.39V54.19H40.48V66.81ZM40.48 51.03H15.23V47.875H40.48V51.03ZM40.48 44.715H34.17V38.405H40.48V44.715ZM87.825 38.405V44.72H81.5149V38.405H87.825ZM73.625 13.155H79.9399V19.47H73.625V13.155ZM57.845 13.155H64.16V19.47H57.84L57.845 13.155ZM42.075 13.155H48.375V19.47H42.075V13.155ZM78.375 32.095H72.045V35.25H78.36V38.405H68.8899V41.56H78.36V47.875H72.045V51.03H78.36V76.28H68.8899V79.435H78.36V82.59H75.205V85.745H78.36V92.06H72.045V95.215H78.36V98.37H72.045V101.525H78.36V104.68H43.64V98.375H49.95V95.22H43.64V92.065H46.7949V88.91H43.64V84.175H49.95V81H43.64V47.875H49.95V44.72H43.64V41.565H46.7949V38.405H43.64V28.94H78.36L78.375 32.095ZM40.48 25.78H38.905V22.625H83.075V25.78H40.48ZM103.61 60.5H97.295V63.655H103.61V66.81H100.455V69.965H103.61V98.37H100.455V101.525H103.61V104.68H81.5149V98.375H89.405V95.22H81.5149V92.065H84.67V88.91H81.5149V76.28H87.825V73.125H81.5149V54.19H103.61V60.5ZM106.765 51.03H81.5149V47.875H106.765V51.03ZM106.765 44.715H100.45V38.405H106.765V44.715Z" fill="black"/>
</g>
</svg>
