<svg width="24" height="24" viewBox="0 0 24 24" fill="none" xmlns="http://www.w3.org/2000/svg">
<path fill-rule="evenodd" clip-rule="evenodd" d="M19.698 2.99266C20.6992 3.82769 20.8063 4.91827 20.9167 5.18359L20.9711 5.59052C21.115 6.46787 20.7072 7.66588 20.0786 8.41952L17.2654 11.7401C16.1843 13.0162 14.3803 13.4395 12.8705 12.777L12.8657 12.7835C13.4175 13.6999 13.3695 14.3526 13.4191 14.504C13.563 15.3846 13.1552 16.5777 12.5267 17.333L9.7119 20.6536C8.34769 22.2634 5.94072 22.4604 4.34941 21.0784C3.54336 20.258 3.09555 19.563 3.01078 18.3943C2.93562 17.3786 3.25548 16.3808 3.9048 15.5978L6.77077 12.2138C7.57202 11.3771 7.97025 11.2599 8.90265 10.9979L9.30248 10.9425L11.0073 11.1964C11.0425 11.2095 11.0777 11.2257 11.1113 11.2404L11.1161 11.2339C10.2605 9.81612 10.3852 7.9605 11.4583 6.6811L14.2715 3.36215C14.9289 2.58573 15.8693 2.10717 16.8544 2.02904C17.7133 1.88417 18.8967 2.29599 19.634 2.93732L19.698 2.99266ZM14.8713 10.4168L14.2859 11.1069L14.3883 11.1085H14.3915L14.4874 11.1053H14.489L14.5114 11.1037H14.5146C14.8521 11.0776 15.1847 10.9604 15.4678 10.7553C15.5222 10.7163 15.5766 10.6723 15.631 10.6218C15.6789 10.5779 15.7301 10.5258 15.7797 10.4672L15.7989 10.4461L18.5897 7.15152C18.8248 6.8748 18.9671 6.54112 19.0183 6.19767C19.0295 6.12605 19.0359 6.05605 19.0391 5.99257C19.0423 5.92584 19.0407 5.85422 19.0375 5.78422V5.77608L19.0359 5.75818C19.0103 5.41473 18.8951 5.07616 18.6936 4.78805C18.6553 4.73271 18.6121 4.67899 18.5689 4.63016L18.5641 4.62365C18.5177 4.57156 18.4665 4.51947 18.4138 4.47064L18.4042 4.4625L18.3962 4.45436L18.3786 4.44134C18.1083 4.20858 17.7868 4.06696 17.4542 4.0165H17.4494C17.3806 4.00674 17.3134 3.9986 17.2511 3.99697C17.1855 3.99372 17.1167 3.99534 17.0479 3.9986H17.0367L17.0208 4.00023C16.6833 4.02627 16.3506 4.14347 16.0676 4.34856C16.0132 4.38763 15.9588 4.43158 15.9108 4.47552L15.906 4.48041C15.8533 4.52761 15.8037 4.5797 15.7557 4.63504L15.7365 4.6562L12.9473 7.94911C12.7122 8.22582 12.5699 8.55951 12.5187 8.90296C12.5091 8.97295 12.5011 9.04295 12.4995 9.10806C12.4963 9.17479 12.4979 9.24641 12.5011 9.31641L12.5027 9.34082V9.34245V9.34571C12.5075 9.42058 12.5171 9.49383 12.5315 9.5687L13.104 8.89319L13.12 8.87366L13.1408 8.85087L13.144 8.84762C13.3503 8.62136 13.627 8.49277 13.9101 8.47324C14.1948 8.45208 14.489 8.53672 14.7257 8.73368L14.7289 8.7353L14.7433 8.74833L14.7465 8.75158L14.7497 8.75484L14.7513 8.75646L14.7545 8.75809L14.7657 8.76786C15.0952 9.06573 15.2167 9.51662 15.1192 9.92843C15.1 10.0098 15.0712 10.0912 15.0328 10.1693C14.9976 10.2442 14.9512 10.3158 14.9001 10.3826L14.8969 10.3858L14.8921 10.3923L14.8905 10.3956L14.8745 10.4151L14.8713 10.4168ZM9.40643 15.0591C9.77907 15.3862 10.3468 15.3439 10.6683 14.9646L11.5607 13.9115C11.6647 14.1475 11.727 14.3998 11.7462 14.6554C11.7862 15.2153 11.6199 15.7899 11.236 16.2424L8.44365 19.5369C8.05981 19.9911 7.52724 20.2434 6.97868 20.2841C6.43811 20.3248 5.88475 20.162 5.44494 19.7876L5.41935 19.7648C4.97474 19.3742 4.72525 18.8321 4.68526 18.2738C4.64528 17.7204 4.80681 17.1523 5.18105 16.7031L5.19544 16.6868L7.95426 13.4313L7.98784 13.3923C8.37168 12.9397 8.90425 12.6858 9.45281 12.6451C9.7055 12.6256 9.96139 12.6516 10.2061 12.7216L9.31367 13.7748C8.99221 14.154 9.03379 14.7319 9.40643 15.0591Z" fill="#CCCCCC"/>
</svg>
