<svg width="120" height="120" viewBox="0 0 120 120" fill="none" xmlns="http://www.w3.org/2000/svg">
<mask id="mask0_8888_28591" style="mask-type:luminance" maskUnits="userSpaceOnUse" x="10" y="10" width="100" height="100">
<path d="M110 10H10V110H110V10Z" fill="white"/>
</mask>
<g mask="url(#mask0_8888_28591)">
<mask id="mask1_8888_28591" style="mask-type:luminance" maskUnits="userSpaceOnUse" x="11" y="10" width="99" height="98">
<path d="M11.3799 10H109.225V107.845H11.3799V10Z" fill="white"/>
</mask>
<g mask="url(#mask1_8888_28591)">
<path fill-rule="evenodd" clip-rule="evenodd" d="M49.4547 85.2225C50.1023 85.2225 50.6272 85.7475 50.6272 86.395V105.223H69.9722V86.395C69.9722 85.7475 70.4972 85.2225 71.1447 85.2225C71.7923 85.2225 72.3172 85.7475 72.3172 86.395V106.395C72.3172 107.043 71.7923 107.568 71.1447 107.568H49.4547C48.8072 107.568 48.2822 107.043 48.2822 106.395V86.395C48.2822 85.7475 48.8072 85.2225 49.4547 85.2225Z" fill="#454545"/>
<path fill-rule="evenodd" clip-rule="evenodd" d="M42.4224 86.4351C42.4224 85.7875 42.9473 85.2626 43.5949 85.2626H49.4549C50.1024 85.2626 50.6274 85.7875 50.6274 86.4351V106.435C50.6274 107.083 50.1024 107.608 49.4549 107.608H43.5949C42.9473 107.608 42.4224 107.083 42.4224 106.435V86.4351ZM44.7674 87.6076V105.263H48.2824V87.6076H44.7674Z" fill="#454545"/>
<path fill-rule="evenodd" clip-rule="evenodd" d="M69.9775 86.4351C69.9775 85.7875 70.5025 85.2626 71.15 85.2626H77.01C77.6576 85.2626 78.1825 85.7875 78.1825 86.4351V106.435C78.1825 107.083 77.6576 107.608 77.01 107.608H71.15C70.5025 107.608 69.9775 107.083 69.9775 106.435V86.4351ZM72.3225 87.6076V105.263H75.8375V87.6076H72.3225Z" fill="#454545"/>
</g>
<path fill-rule="evenodd" clip-rule="evenodd" d="M51.8726 67.6651C51.8726 67.0175 52.3975 66.4926 53.0451 66.4926H67.5451C68.1926 66.4926 68.7176 67.0175 68.7176 67.6651V80.5151C68.7176 81.1626 68.1926 81.6876 67.5451 81.6876H53.0451C52.3975 81.6876 51.8726 81.1626 51.8726 80.5151V67.6651ZM54.2176 68.8376V79.3426H66.3726V68.8376H54.2176Z" fill="#454545"/>
<path fill-rule="evenodd" clip-rule="evenodd" d="M46.0273 67.6651C46.0273 67.0175 46.5523 66.4926 47.1998 66.4926H53.0598C53.7074 66.4926 54.2323 67.0175 54.2323 67.6651V80.5151C54.2323 81.1626 53.7074 81.6876 53.0598 81.6876H47.1998C46.5523 81.6876 46.0273 81.1626 46.0273 80.5151V67.6651ZM48.3723 68.8376V79.3426H51.8873V68.8376H48.3723Z" fill="#454545"/>
<path fill-rule="evenodd" clip-rule="evenodd" d="M66.3774 67.6651C66.3774 67.0175 66.9024 66.4926 67.5499 66.4926H73.4099C74.0575 66.4926 74.5824 67.0175 74.5824 67.6651V80.5151C74.5824 81.1626 74.0575 81.6876 73.4099 81.6876H67.5499C66.9024 81.6876 66.3774 81.1626 66.3774 80.5151V67.6651ZM68.7224 68.8376V79.3426H72.2374V68.8376H68.7224Z" fill="#454545"/>
<path fill-rule="evenodd" clip-rule="evenodd" d="M46.0273 61.8049C46.0273 61.1574 46.5523 60.6324 47.1998 60.6324H73.4148C74.0624 60.6324 74.5873 61.1574 74.5873 61.8049V67.6649C74.5873 68.3125 74.0624 68.8374 73.4148 68.8374H47.1998C46.5523 68.8374 46.0273 68.3125 46.0273 67.6649V61.8049ZM48.3723 62.9774V66.4924H72.2423V62.9774H48.3723Z" fill="#454545"/>
<path fill-rule="evenodd" clip-rule="evenodd" d="M53.3223 48.935C53.3223 48.2874 53.8472 47.7625 54.4948 47.7625H66.1148C66.7623 47.7625 67.2873 48.2874 67.2873 48.935V61.805C67.2873 62.4525 66.7623 62.9775 66.1148 62.9775H54.4948C53.8472 62.9775 53.3223 62.4525 53.3223 61.805V48.935ZM55.6673 50.1075V60.6325H64.9423V50.1075H55.6673Z" fill="#454545"/>
<path fill-rule="evenodd" clip-rule="evenodd" d="M47.4624 48.935C47.4624 48.2874 47.9873 47.7625 48.6349 47.7625H54.4949C55.1425 47.7625 55.6674 48.2874 55.6674 48.935V61.805C55.6674 62.4525 55.1425 62.9775 54.4949 62.9775H48.6349C47.9873 62.9775 47.4624 62.4525 47.4624 61.805V48.935ZM49.8074 50.1075V60.6325H53.3224V50.1075H49.8074Z" fill="#454545"/>
<path fill-rule="evenodd" clip-rule="evenodd" d="M64.9424 48.935C64.9424 48.2874 65.4673 47.7625 66.1149 47.7625H71.9749C72.6224 47.7625 73.1474 48.2874 73.1474 48.935V61.805C73.1474 62.4525 72.6224 62.9775 71.9749 62.9775H66.1149C65.4673 62.9775 64.9424 62.4525 64.9424 61.805V48.935ZM67.2874 50.1075V60.6325H70.8024V50.1075H67.2874Z" fill="#454545"/>
<path fill-rule="evenodd" clip-rule="evenodd" d="M47.4624 43.08C47.4624 42.4324 47.9873 41.9075 48.6349 41.9075H71.9749C72.6225 41.9075 73.1474 42.4324 73.1474 43.08V48.94C73.1474 49.5875 72.6225 50.1125 71.9749 50.1125H48.6349C47.9873 50.1125 47.4624 49.5875 47.4624 48.94V43.08ZM49.8074 44.2525V47.7675H70.8024V44.2525H49.8074Z" fill="#454545"/>
<path fill-rule="evenodd" clip-rule="evenodd" d="M53.3223 30.975C53.3223 30.3274 53.8472 29.8025 54.4948 29.8025H66.1148C66.7623 29.8025 67.2873 30.3274 67.2873 30.975V43.075C67.2873 43.7225 66.7623 44.2475 66.1148 44.2475H54.4948C53.8472 44.2475 53.3223 43.7225 53.3223 43.075V30.975ZM55.6673 32.1475V41.9025H64.9423V32.1475H55.6673Z" fill="#454545"/>
<path fill-rule="evenodd" clip-rule="evenodd" d="M53.3223 25.11C53.3223 24.4624 53.8472 23.9375 54.4948 23.9375H66.1148C66.7623 23.9375 67.2873 24.4624 67.2873 25.11V30.97C67.2873 31.6176 66.7623 32.1425 66.1148 32.1425H54.4948C53.8472 32.1425 53.3223 31.6176 53.3223 30.97V25.11ZM55.6673 26.2825V29.7975H64.9423V26.2825H55.6673Z" fill="#454545"/>
<path fill-rule="evenodd" clip-rule="evenodd" d="M64.9424 25.11C64.9424 24.4624 65.4673 23.9375 66.1149 23.9375H87.3649C88.0124 23.9375 88.5374 24.4624 88.5374 25.11V30.97C88.5374 31.6176 88.0124 32.1425 87.3649 32.1425H66.1149C65.4673 32.1425 64.9424 31.6176 64.9424 30.97V25.11ZM67.2874 26.2825V29.7975H86.1924V26.2825H67.2874Z" fill="#454545"/>
<path fill-rule="evenodd" clip-rule="evenodd" d="M64.9424 19.395C64.9424 18.7475 65.4673 18.2225 66.1149 18.2225H80.3649C81.0124 18.2225 81.5374 18.7475 81.5374 19.395V25.11C81.5374 25.7576 81.0124 26.2825 80.3649 26.2825H66.1149C65.4673 26.2825 64.9424 25.7576 64.9424 25.11V19.395ZM67.2874 20.5675V23.9375H79.1924V20.5675H67.2874Z" fill="#454545"/>
<mask id="mask2_8888_28591" style="mask-type:luminance" maskUnits="userSpaceOnUse" x="11" y="10" width="99" height="98">
<path d="M11.3799 10H109.225V107.845H11.3799V10Z" fill="white"/>
</mask>
<g mask="url(#mask2_8888_28591)">
<path fill-rule="evenodd" clip-rule="evenodd" d="M85.9199 14.1324C86.2622 14.1297 86.6017 14.1945 86.9191 14.3231C87.2386 14.4525 87.5293 14.644 87.7743 14.8865C88.0193 15.129 88.2138 15.4176 88.3466 15.7358C88.4793 16.0539 88.5476 16.3952 88.5476 16.7399C88.5476 16.7399 88.5476 16.7399 88.5476 16.7399V25.1149C88.5476 25.7625 88.0227 26.2874 87.3751 26.2874H80.3551C79.7076 26.2874 79.1826 25.7625 79.1826 25.1149V16.7399C79.1826 16.0484 79.4573 15.3851 79.9463 14.8961C80.4353 14.4071 81.0986 14.1324 81.7901 14.1324H85.9199ZM86.0387 16.4965C86.0065 16.4835 85.9721 16.477 85.9374 16.4773L85.9251 16.4775L81.7901 16.4774C81.7205 16.4774 81.6537 16.5051 81.6045 16.5543C81.5553 16.6035 81.5276 16.6703 81.5276 16.7399V23.9424H86.2026V16.7399C86.2026 16.7052 86.1957 16.6708 86.1824 16.6387C86.169 16.6067 86.1494 16.5777 86.1248 16.5532C86.1001 16.5288 86.0708 16.5096 86.0387 16.4965Z" fill="#454545"/>
<path fill-rule="evenodd" clip-rule="evenodd" d="M64.9424 30.975C64.9424 30.3274 65.4673 29.8025 66.1149 29.8025H87.3649C88.0124 29.8025 88.5374 30.3274 88.5374 30.975V37.025C88.5374 37.6725 88.0124 38.1975 87.3649 38.1975H66.1149C65.4673 38.1975 64.9424 37.6725 64.9424 37.025V30.975ZM67.2874 32.1475V35.8525H86.1924V32.1475H67.2874Z" fill="#454545"/>
<path fill-rule="evenodd" clip-rule="evenodd" d="M64.9424 37.0249C64.9424 36.3774 65.4673 35.8524 66.1149 35.8524H88.5399C89.0232 35.8524 89.4868 36.0444 89.8286 36.3862C90.1704 36.728 90.3624 37.1916 90.3624 37.6749V43.0549C90.3624 43.7025 89.8374 44.2274 89.1899 44.2274H66.1149C65.4673 44.2274 64.9424 43.7025 64.9424 43.0549V37.0249ZM67.2874 38.1974V41.8824H88.0174V38.1974H67.2874Z" fill="#454545"/>
<path fill-rule="evenodd" clip-rule="evenodd" d="M70.8276 49.32C70.8276 48.6724 71.3526 48.1475 72.0001 48.1475H92.1451C92.6285 48.1475 93.0921 48.3395 93.4338 48.6813C93.7756 49.023 93.9676 49.4866 93.9676 49.97V55.56C93.9676 56.2075 93.4427 56.7325 92.7951 56.7325H72.0001C71.3526 56.7325 70.8276 56.2075 70.8276 55.56V49.32ZM73.1726 50.4925V54.3875H91.6226V50.4925H73.1726Z" fill="#454545"/>
<path fill-rule="evenodd" clip-rule="evenodd" d="M70.8027 43.075C70.8027 42.4274 71.3277 41.9025 71.9752 41.9025H90.3402C90.8236 41.9025 91.2872 42.0945 91.6289 42.4363C91.9707 42.778 92.1627 43.2416 92.1627 43.725L92.1627 43.7281L92.1477 49.3181C92.146 49.9644 91.6216 50.4875 90.9752 50.4875H71.9752C71.3277 50.4875 70.8027 49.9625 70.8027 49.315V43.075ZM73.1477 44.2475V48.1425H89.8059L89.8163 44.2475H73.1477Z" fill="#454545"/>
<path fill-rule="evenodd" clip-rule="evenodd" d="M70.8027 55.56C70.8027 54.9124 71.3277 54.3875 71.9752 54.3875H94.0204C94.4915 54.4056 94.9372 54.6064 95.264 54.9463C95.5907 55.2861 95.7731 55.7394 95.7727 56.2108V61.8C95.7727 62.4475 95.2478 62.9725 94.6002 62.9725H71.9752C71.3277 62.9725 70.8027 62.4475 70.8027 61.8V55.56ZM73.1477 56.7325V60.6274H93.4277V56.7325H73.1477Z" fill="#454545"/>
<path fill-rule="evenodd" clip-rule="evenodd" d="M72.2324 74.2899C72.2324 73.6424 72.7574 73.1174 73.4049 73.1174H99.3649C99.8483 73.1174 100.312 73.3094 100.654 73.6512C100.995 73.993 101.187 74.4566 101.187 74.9399V80.5299C101.187 81.1775 100.662 81.7024 100.015 81.7024H73.4049C72.7574 81.7024 72.2324 81.1775 72.2324 80.5299V74.2899ZM74.5774 75.4624V79.3574H98.8424V75.4624H74.5774Z" fill="#454545"/>
<path fill-rule="evenodd" clip-rule="evenodd" d="M72.2324 61.8049C72.2324 61.1574 72.7574 60.6324 73.4049 60.6324H95.7549C96.2383 60.6324 96.7018 60.8245 97.0436 61.1662C97.3854 61.508 97.5774 61.9716 97.5774 62.4549V68.0449C97.5774 68.6925 97.0525 69.2174 96.4049 69.2174H73.4049C72.7574 69.2174 72.2324 68.6925 72.2324 68.0449V61.8049ZM74.5774 62.9774V66.8724H95.2324V62.9774H74.5774Z" fill="#454545"/>
<path fill-rule="evenodd" clip-rule="evenodd" d="M72.2324 68.0499C72.2324 67.4024 72.7574 66.8774 73.4049 66.8774H97.5349C98.0183 66.8774 98.4818 67.0695 98.8236 67.4112C99.1654 67.753 99.3574 68.2166 99.3574 68.6999V74.2899C99.3574 74.9375 98.8325 75.4624 98.1849 75.4624H73.4049C72.7574 75.4624 72.2324 74.9375 72.2324 74.2899V68.0499ZM74.5774 69.2224V73.1174H97.0124V69.2224H74.5774Z" fill="#454545"/>
<path fill-rule="evenodd" clip-rule="evenodd" d="M75.8374 86.7749C75.8374 86.1274 76.3623 85.6024 77.0099 85.6024H102.975C103.458 85.6024 103.922 85.7944 104.264 86.1362C104.605 86.478 104.797 86.9416 104.797 87.4249V93.0199C104.797 93.6675 104.272 94.1924 103.625 94.1924H77.0099C76.3623 94.1924 75.8374 93.6675 75.8374 93.0199V86.7749ZM78.1824 87.9474V91.8474H102.452V87.9474H78.1824Z" fill="#454545"/>
<path fill-rule="evenodd" clip-rule="evenodd" d="M75.8374 80.5349C75.8374 79.8874 76.3623 79.3624 77.0099 79.3624H101.17C101.653 79.3624 102.117 79.5544 102.459 79.8962C102.8 80.238 102.992 80.7016 102.992 81.1849V86.7749C102.992 87.4225 102.467 87.9474 101.82 87.9474H77.0099C76.3623 87.9474 75.8374 87.4225 75.8374 86.7749V80.5349ZM78.1824 81.7074V85.6024H100.647V81.7074H78.1824Z" fill="#454545"/>
<path fill-rule="evenodd" clip-rule="evenodd" d="M75.8374 93.0199C75.8374 92.3724 76.3623 91.8474 77.0099 91.8474H104.785C105.268 91.8474 105.732 92.0394 106.074 92.3812C106.415 92.723 106.607 93.1865 106.607 93.6699V106.415C106.607 107.062 106.082 107.587 105.435 107.587H77.0099C76.3623 107.587 75.8374 107.062 75.8374 106.415V93.0199ZM78.1824 94.1924V105.242H104.262V94.1924H78.1824Z" fill="#454545"/>
<path fill-rule="evenodd" clip-rule="evenodd" d="M60.3053 54.1975C60.9529 54.1975 61.4778 54.7225 61.4778 55.37V61.07C61.4778 61.7176 60.9529 62.2425 60.3053 62.2425C59.6578 62.2425 59.1328 61.7176 59.1328 61.07V55.37C59.1328 54.7225 59.6578 54.1975 60.3053 54.1975Z" fill="#454545"/>
<path fill-rule="evenodd" clip-rule="evenodd" d="M60.3053 35.9325C60.9529 35.9325 61.4778 36.4574 61.4778 37.105V42.425C61.4778 43.0725 60.9529 43.5975 60.3053 43.5975C59.6578 43.5975 59.1328 43.0725 59.1328 42.425V37.105C59.1328 36.4574 59.6578 35.9325 60.3053 35.9325Z" fill="#454545"/>
<path fill-rule="evenodd" clip-rule="evenodd" d="M60.3053 72.7524C60.9529 72.7524 61.4778 73.2774 61.4778 73.9249V79.6249C61.4778 80.2725 60.9529 80.7974 60.3053 80.7974C59.6578 80.7974 59.1328 80.2725 59.1328 79.6249V73.9249C59.1328 73.2774 59.6578 72.7524 60.3053 72.7524Z" fill="#454545"/>
<path fill-rule="evenodd" clip-rule="evenodd" d="M59.6125 12.7301C60.0227 12.4332 60.5771 12.4332 60.9873 12.7301L65.5438 16.0276C65.5432 16.0271 65.5444 16.0281 65.5438 16.0276C66.0825 16.4149 66.523 16.9265 66.825 17.5173C67.1272 18.1084 67.284 18.763 67.2824 19.4268C67.2824 19.4264 67.2824 19.4273 67.2824 19.4268V25.1149C67.2824 25.7625 66.7574 26.2874 66.1099 26.2874H54.4699C53.8223 26.2874 53.2974 25.7625 53.2974 25.1149V19.4249C53.2987 18.7582 53.4598 18.0992 53.7671 17.5076C54.0733 16.9181 54.5157 16.4103 55.0576 16.0264L55.0525 16.0301L55.7399 16.9799L55.0637 16.022C55.0617 16.0235 55.0596 16.0249 55.0576 16.0264L59.6125 12.7301ZM60.2999 15.1273L56.4161 17.9379C56.1775 18.1063 55.9827 18.3294 55.8481 18.5885C55.7136 18.8473 55.6431 19.1346 55.6424 19.4262V23.9424H64.9374V19.4249C64.9382 19.134 64.8695 18.8438 64.7371 18.5848C64.6046 18.3257 64.4122 18.102 64.1759 17.9323L60.2999 15.1273Z" fill="#454545"/>
<path fill-rule="evenodd" clip-rule="evenodd" d="M60.3053 20.1174C60.9529 20.1174 61.4778 20.6424 61.4778 21.2899V24.2899C61.4778 24.9375 60.9529 25.4624 60.3053 25.4624C59.6578 25.4624 59.1328 24.9375 59.1328 24.2899V21.2899C59.1328 20.6424 59.6578 20.1174 60.3053 20.1174Z" fill="#454545"/>
<path fill-rule="evenodd" clip-rule="evenodd" d="M60.3053 10.2625C60.9529 10.2625 61.4778 10.7874 61.4778 11.435V13.68C61.4778 14.3275 60.9529 14.8525 60.3053 14.8525C59.6578 14.8525 59.1328 14.3275 59.1328 13.68V11.435C59.1328 10.7874 59.6578 10.2625 60.3053 10.2625Z" fill="#454545"/>
<path fill-rule="evenodd" clip-rule="evenodd" d="M83.8703 10.2725C84.5178 10.2725 85.0428 10.7974 85.0428 11.445V14.945C85.0428 15.5925 84.5178 16.1175 83.8703 16.1175C83.2227 16.1175 82.6978 15.5925 82.6978 14.945V11.445C82.6978 10.7974 83.2227 10.2725 83.8703 10.2725Z" fill="#454545"/>
<path fill-rule="evenodd" clip-rule="evenodd" d="M32.0576 25.11C32.0576 24.4624 32.5826 23.9375 33.2301 23.9375H54.4951C55.1427 23.9375 55.6676 24.4624 55.6676 25.11V30.97C55.6676 31.6176 55.1427 32.1425 54.4951 32.1425H33.2301C32.5826 32.1425 32.0576 31.6176 32.0576 30.97V25.11ZM34.4026 26.2825V29.7975H53.3226V26.2825H34.4026Z" fill="#454545"/>
<path fill-rule="evenodd" clip-rule="evenodd" d="M39.0776 19.3949C39.0776 18.7474 39.6026 18.2224 40.2501 18.2224H54.4901C55.1377 18.2224 55.6626 18.7474 55.6626 19.3949V25.1099C55.6626 25.7575 55.1377 26.2824 54.4901 26.2824H40.2501C39.6026 26.2824 39.0776 25.7575 39.0776 25.1099V19.3949ZM41.4226 20.5674V23.9374H53.3176V20.5674H41.4226Z" fill="#454545"/>
<path fill-rule="evenodd" clip-rule="evenodd" d="M34.6553 14.1324H38.8103C39.5018 14.1324 40.165 14.4072 40.654 14.8962C41.143 15.3852 41.4178 16.0484 41.4178 16.7399V25.1149C41.4178 25.7625 40.8928 26.2874 40.2453 26.2874H33.2453C32.5977 26.2874 32.0728 25.7625 32.0728 25.1149V16.7401C32.0728 16.7401 32.0728 16.7402 32.0728 16.7401C32.0727 16.0564 32.3412 15.3999 32.8203 14.9122C33.2996 14.4245 33.9512 14.1445 34.6348 14.1326L34.6553 14.1324ZM34.6696 16.4774C34.603 16.4802 34.5398 16.5081 34.493 16.5558C34.4448 16.6049 34.4177 16.6709 34.4178 16.7398V23.9424H39.0728V16.7399C39.0728 16.6703 39.0451 16.6036 38.9959 16.5543C38.9466 16.5051 38.8799 16.4774 38.8103 16.4774H34.6696Z" fill="#454545"/>
<path fill-rule="evenodd" clip-rule="evenodd" d="M32.0576 30.975C32.0576 30.3274 32.5826 29.8025 33.2301 29.8025H54.4951C55.1427 29.8025 55.6676 30.3274 55.6676 30.975V37.025C55.6676 37.6725 55.1427 38.1975 54.4951 38.1975H33.2301C32.5826 38.1975 32.0576 37.6725 32.0576 37.025V30.975ZM34.4026 32.1475V35.8525H53.3226V32.1475H34.4026Z" fill="#454545"/>
<path fill-rule="evenodd" clip-rule="evenodd" d="M32.5926 38.1974V41.8824H53.3176V38.1974H32.5926ZM30.7814 36.3862C31.1231 36.0444 31.5867 35.8524 32.0701 35.8524H54.4901C55.1376 35.8524 55.6626 36.3774 55.6626 37.0249V43.0549C55.6626 43.7025 55.1376 44.2274 54.4901 44.2274H31.4201C30.7725 44.2274 30.2476 43.7025 30.2476 43.0549V37.6749C30.2476 37.1916 30.4396 36.728 30.7814 36.3862Z" fill="#454545"/>
<path fill-rule="evenodd" clip-rule="evenodd" d="M28.9827 50.4925V54.3875H47.4577V50.4925H28.9827ZM27.1715 48.6813C27.5133 48.3395 27.9768 48.1475 28.4602 48.1475H48.6302C49.2778 48.1475 49.8027 48.6724 49.8027 49.32V55.56C49.8027 56.2075 49.2778 56.7325 48.6302 56.7325H27.8102C27.1626 56.7325 26.6377 56.2075 26.6377 55.56V49.97C26.6377 49.4866 26.8297 49.023 27.1715 48.6813Z" fill="#454545"/>
<path fill-rule="evenodd" clip-rule="evenodd" d="M30.7874 44.2475V48.1425H47.4424V44.2475H30.7874ZM28.9762 42.4363C29.318 42.0945 29.7815 41.9025 30.2649 41.9025H48.6149C49.2624 41.9025 49.7874 42.4274 49.7874 43.075V49.315C49.7874 49.9625 49.2624 50.4875 48.6149 50.4875H29.6149C28.9673 50.4875 28.4424 49.9625 28.4424 49.315V43.725C28.4424 43.2416 28.6344 42.778 28.9762 42.4363Z" fill="#454545"/>
<path fill-rule="evenodd" clip-rule="evenodd" d="M27.1775 56.7325V60.6274H47.4825V56.7325H27.1775ZM25.3663 54.9212C25.7081 54.5795 26.1717 54.3875 26.655 54.3875H48.655C49.3026 54.3875 49.8275 54.9124 49.8275 55.56V61.8C49.8275 62.4475 49.3026 62.9725 48.655 62.9725H26.005C25.3575 62.9725 24.8325 62.4475 24.8325 61.8V56.21C24.8325 55.7266 25.0245 55.263 25.3663 54.9212Z" fill="#454545"/>
<path fill-rule="evenodd" clip-rule="evenodd" d="M21.7625 75.4624V79.3574H46.0275V75.4624H21.7625ZM19.9513 73.6512C20.2931 73.3094 20.7566 73.1174 21.24 73.1174H47.2C47.8475 73.1174 48.3725 73.6424 48.3725 74.2899V80.5299C48.3725 81.1775 47.8475 81.7024 47.2 81.7024H20.59C19.9424 81.7024 19.4175 81.1775 19.4175 80.5299V74.9399C19.4175 74.4566 19.6095 73.993 19.9513 73.6512Z" fill="#454545"/>
<path fill-rule="evenodd" clip-rule="evenodd" d="M25.3723 62.9774V66.8724H46.0273V62.9774H25.3723ZM23.5611 61.1662C23.9029 60.8245 24.3665 60.6324 24.8498 60.6324H47.1998C47.8474 60.6324 48.3723 61.1574 48.3723 61.8049V68.0449C48.3723 68.6925 47.8474 69.2174 47.1998 69.2174H24.1998C23.5523 69.2174 23.0273 68.6925 23.0273 68.0449V62.4549C23.0273 61.9716 23.2194 61.508 23.5611 61.1662Z" fill="#454545"/>
<path fill-rule="evenodd" clip-rule="evenodd" d="M23.5677 69.2224V73.1174H46.0277V69.2224H23.5677ZM21.7565 67.4112C22.0982 67.0695 22.5618 66.8774 23.0452 66.8774H47.2002C47.8477 66.8774 48.3727 67.4024 48.3727 68.0499V74.2899C48.3727 74.9375 47.8477 75.4624 47.2002 75.4624H22.3952C21.7476 75.4624 21.2227 74.9375 21.2227 74.2899V68.6999C21.2227 68.2166 21.4147 67.753 21.7565 67.4112Z" fill="#454545"/>
<path fill-rule="evenodd" clip-rule="evenodd" d="M18.1477 87.9474V91.8474H42.4177V87.9474H18.1477ZM16.3365 86.1362C16.6783 85.7944 17.1419 85.6024 17.6252 85.6024H43.5902C44.2378 85.6024 44.7627 86.1274 44.7627 86.7749V93.0199C44.7627 93.6675 44.2378 94.1924 43.5902 94.1924H16.9752C16.3277 94.1924 15.8027 93.6675 15.8027 93.0199V87.4249C15.8027 86.9416 15.9947 86.478 16.3365 86.1362Z" fill="#454545"/>
<path fill-rule="evenodd" clip-rule="evenodd" d="M19.9578 81.7074V85.6024H42.4278V81.7074H19.9578ZM18.1466 79.8962C18.4884 79.5544 18.9519 79.3624 19.4353 79.3624H43.6003C44.2478 79.3624 44.7728 79.8874 44.7728 80.5349V86.7749C44.7728 87.4225 44.2478 87.9474 43.6003 87.9474H18.7853C18.1377 87.9474 17.6128 87.4225 17.6128 86.7749V81.1849C17.6128 80.7016 17.8048 80.238 18.1466 79.8962Z" fill="#454545"/>
<path fill-rule="evenodd" clip-rule="evenodd" d="M16.3426 94.1924V105.242H42.4176V94.1924H16.3426ZM14.5314 92.3812C14.8731 92.0394 15.3367 91.8474 15.8201 91.8474H43.5901C44.2376 91.8474 44.7626 92.3724 44.7626 93.0199V106.415C44.7626 107.062 44.2376 107.587 43.5901 107.587H15.1701C14.5225 107.587 13.9976 107.062 13.9976 106.415V93.6699C13.9976 93.1866 14.1896 92.723 14.5314 92.3812Z" fill="#454545"/>
<path fill-rule="evenodd" clip-rule="evenodd" d="M36.7399 10.2725C37.3874 10.2725 37.9124 10.7974 37.9124 11.445V14.945C37.9124 15.5925 37.3874 16.1175 36.7399 16.1175C36.0923 16.1175 35.5674 15.5925 35.5674 14.945V11.445C35.5674 10.7974 36.0923 10.2725 36.7399 10.2725Z" fill="#454545"/>
<path fill-rule="evenodd" clip-rule="evenodd" d="M11.6426 106.41C11.6426 105.762 12.1675 105.238 12.8151 105.238H107.815C108.463 105.238 108.988 105.762 108.988 106.41C108.988 107.058 108.463 107.583 107.815 107.583H12.8151C12.1675 107.583 11.6426 107.058 11.6426 106.41Z" fill="#454545"/>
<path fill-rule="evenodd" clip-rule="evenodd" d="M55.0951 90.7405C55.363 90.6296 55.65 90.5725 55.9399 90.5725H64.6649C64.9548 90.5725 65.2419 90.6296 65.5097 90.7405C65.7775 90.8515 66.0209 91.0141 66.2259 91.2191C66.4308 91.4241 66.5934 91.6674 66.7044 91.9352C66.8153 92.2031 66.8724 92.4901 66.8724 92.78V95.565C66.8724 96.2126 66.3475 96.7375 65.6999 96.7375C65.0524 96.7375 64.5274 96.2126 64.5274 95.565V92.9175H56.0774V105.243H64.5274V102.255C64.5274 101.607 65.0524 101.083 65.6999 101.083C66.3475 101.083 66.8724 101.607 66.8724 102.255V106.415C66.8724 107.063 66.3475 107.588 65.6999 107.588H54.9049C54.2574 107.588 53.7324 107.063 53.7324 106.415V92.78C53.7324 92.4901 53.7895 92.2031 53.9005 91.9352C54.0114 91.6674 54.174 91.4241 54.379 91.2191C54.584 91.0141 54.8273 90.8515 55.0951 90.7405Z" fill="#454545"/>
<path fill-rule="evenodd" clip-rule="evenodd" d="M42.4224 80.5349C42.4224 79.8874 42.9473 79.3624 43.5949 79.3624H76.9899C77.6374 79.3624 78.1624 79.8874 78.1624 80.5349V86.3949C78.1624 87.0425 77.6374 87.5674 76.9899 87.5674H63.6449C62.9973 87.5674 62.4724 87.0425 62.4724 86.3949C62.4724 85.7474 62.9973 85.2224 63.6449 85.2224H75.8174V81.7074H44.7674V85.2224H56.9599C57.6074 85.2224 58.1324 85.7474 58.1324 86.3949C58.1324 87.0425 57.6074 87.5674 56.9599 87.5674H43.5949C42.9473 87.5674 42.4224 87.0425 42.4224 86.3949V80.5349Z" fill="#454545"/>
</g>
</g>
</svg>
