<svg width="32" height="32" viewBox="0 0 32 32" fill="none" xmlns="http://www.w3.org/2000/svg">
<rect width="32" height="32" rx="5" fill="white"/>
<path d="M5.56959 9.38381C5.47559 9.38381 5.38545 9.34647 5.31898 9.28C5.25251 9.21353 5.21517 9.12338 5.21517 9.02938V7.93755C5.21517 7.84355 5.25251 7.75341 5.31898 7.68694C5.38545 7.62047 5.47559 7.58313 5.56959 7.58313C5.66359 7.58313 5.75374 7.62047 5.82021 7.68694C5.88668 7.75341 5.92402 7.84355 5.92402 7.93755V9.02938C5.92402 9.12338 5.88668 9.21353 5.82021 9.28C5.75374 9.34647 5.66359 9.38381 5.56959 9.38381ZM5.93617 19.0722C5.93617 19.1661 5.97351 19.2563 6.03998 19.3228C6.10645 19.3892 6.19659 19.4266 6.29059 19.4266H17.4985C17.5925 19.4266 17.6827 19.3892 17.7491 19.3228C17.8156 19.2563 17.8529 19.1661 17.8529 19.0722C17.8529 18.9782 17.8156 18.888 17.7491 18.8215C17.6827 18.7551 17.5925 18.7177 17.4985 18.7177H6.29059C6.19659 18.7177 6.10645 18.7551 6.03998 18.8215C5.97351 18.888 5.93617 18.9782 5.93617 19.0722ZM6.29059 21.0464H18.5436C18.6376 21.0464 18.7277 21.0091 18.7942 20.9426C18.8606 20.8761 18.898 20.786 18.898 20.692C18.898 20.598 18.8606 20.5078 18.7942 20.4414C18.7277 20.3749 18.6376 20.3375 18.5436 20.3375H6.29059C6.19659 20.3375 6.10645 20.3749 6.03998 20.4414C5.97351 20.5078 5.93617 20.598 5.93617 20.692C5.93617 20.786 5.97351 20.8761 6.03998 20.9426C6.10645 21.0091 6.19659 21.0464 6.29059 21.0464ZM6.29059 22.6666H18.5436C18.6376 22.6666 18.7277 22.6293 18.7942 22.5628C18.8606 22.4963 18.898 22.4062 18.898 22.3122C18.898 22.2182 18.8606 22.128 18.7942 22.0616C18.7277 21.9951 18.6376 21.9578 18.5436 21.9578H6.29059C6.19659 21.9578 6.10645 21.9951 6.03998 22.0616C5.97351 22.128 5.93617 22.2182 5.93617 22.3122C5.93617 22.4062 5.97351 22.4963 6.03998 22.5628C6.10645 22.6293 6.19659 22.6666 6.29059 22.6666ZM6.29059 24.2868H18.5436C18.6376 24.2868 18.7277 24.2495 18.7942 24.183C18.8606 24.1166 18.898 24.0264 18.898 23.9324C18.898 23.8384 18.8606 23.7483 18.7942 23.6818C18.7277 23.6153 18.6376 23.578 18.5436 23.578H6.29059C6.19659 23.578 6.10645 23.6153 6.03998 23.6818C5.97351 23.7483 5.93617 23.8384 5.93617 23.9324C5.93617 24.0264 5.97351 24.1166 6.03998 24.183C6.10645 24.2495 6.19659 24.2868 6.29059 24.2868ZM6.29059 25.9071H18.5436C18.6376 25.9071 18.7277 25.8697 18.7942 25.8033C18.8606 25.7368 18.898 25.6466 18.898 25.5526C18.898 25.4586 18.8606 25.3685 18.7942 25.302C18.7277 25.2356 18.6376 25.1982 18.5436 25.1982H6.29059C6.19659 25.1982 6.10645 25.2356 6.03998 25.302C5.97351 25.3685 5.93617 25.4586 5.93617 25.5526C5.93617 25.6466 5.97351 25.7368 6.03998 25.8033C6.10645 25.8697 6.19659 25.9071 6.29059 25.9071ZM22.8017 19.0197C22.329 19.2604 21.7956 19.3556 21.2688 19.2932C20.742 19.2308 20.2455 19.0137 19.8422 18.6692C19.4388 18.3247 19.1466 17.8683 19.0026 17.3578C18.8586 16.8472 18.8691 16.3055 19.0329 15.8009C19.1968 15.2964 19.5065 14.8518 19.923 14.5232C20.3395 14.1947 20.844 13.997 21.3728 13.9552C21.9017 13.9134 22.431 14.0293 22.8939 14.2883C23.3569 14.5473 23.7327 14.9377 23.9737 15.4102C24.1357 15.7238 24.2338 16.0664 24.2625 16.4182C24.2912 16.77 24.2498 17.1239 24.1408 17.4596C24.0318 17.7953 23.8574 18.106 23.6275 18.3738C23.3976 18.6417 23.117 18.861 22.8017 19.0197ZM23.3421 15.7325C23.2248 15.5011 23.0628 15.2953 22.8654 15.127C22.6681 14.9587 22.4393 14.8313 22.1923 14.752C21.9942 14.6873 21.7872 14.6542 21.5788 14.654C21.2805 14.6547 20.9861 14.7231 20.718 14.8538C20.4498 14.9846 20.2147 15.1745 20.0305 15.4092C19.8462 15.6438 19.7175 15.9172 19.654 16.2088C19.5905 16.5003 19.594 16.8024 19.664 17.0925C19.7341 17.3825 19.8689 17.6529 20.0584 17.8833C20.248 18.1138 20.4873 18.2983 20.7583 18.423C21.0294 18.5477 21.3252 18.6093 21.6235 18.6033C21.9218 18.5973 22.2149 18.5237 22.4807 18.3882C22.9465 18.1497 23.2988 17.7362 23.4603 17.2384C23.6217 16.7405 23.5792 16.199 23.3421 15.7325ZM27.9374 27.1247C27.8547 27.3787 27.6939 27.6 27.478 27.7572C27.262 27.9144 27.0019 27.9994 26.7348 28C26.6016 27.9998 26.4692 27.9787 26.3425 27.9374C26.1842 27.8866 26.0376 27.8048 25.9111 27.6969C25.7847 27.5889 25.6809 27.4569 25.6059 27.3086L25.1919 26.4964L22.8005 21.8051C22.7579 21.7213 22.7503 21.624 22.7794 21.5346C22.8084 21.4453 22.8717 21.3711 22.9554 21.3283L23.4524 21.075L23.0304 20.2472C22.5724 20.4317 22.0833 20.5267 21.5896 20.5271C21.336 20.5268 21.0831 20.5017 20.8344 20.4524V27.6452C20.8344 27.6917 20.8252 27.7378 20.8074 27.7808C20.7896 27.8238 20.7635 27.8629 20.7306 27.8958C20.6977 27.9288 20.6586 27.9549 20.6156 27.9727C20.5726 27.9905 20.5265 27.9996 20.4799 27.9996H4.35442C4.26043 27.9996 4.17028 27.9623 4.10381 27.8958C4.03734 27.8293 4 27.7392 4 27.6452V18.4808C4 18.3868 4.03734 18.2966 4.10381 18.2302C4.17028 18.1637 4.26043 18.1263 4.35442 18.1263C4.44842 18.1263 4.53857 18.1637 4.60504 18.2302C4.67151 18.2966 4.70885 18.3868 4.70885 18.4808V27.2907H20.1253V20.2409C19.4311 19.9621 18.8319 19.4892 18.3994 18.8789C17.9668 18.2685 17.7193 17.5464 17.6862 16.7991C17.6532 16.0517 17.8361 15.3107 18.2132 14.6645C18.5902 14.0184 19.1453 13.4945 19.8122 13.1555C19.9153 13.103 20.02 13.0579 20.1253 13.0153V8.35436H16.8342C16.7877 8.35438 16.7416 8.34523 16.6986 8.32743C16.6555 8.30963 16.6165 8.28352 16.5835 8.25061C16.5506 8.21769 16.5245 8.17861 16.5067 8.1356C16.4889 8.09258 16.4798 8.04648 16.4798 7.99993V4.70885H4.70885V16.6289C4.70885 16.7228 4.67151 16.813 4.60504 16.8795C4.53857 16.9459 4.44842 16.9833 4.35442 16.9833C4.26043 16.9833 4.17028 16.9459 4.10381 16.8795C4.03734 16.813 4 16.7228 4 16.6289V4.35442C4 4.26043 4.03734 4.17028 4.10381 4.10381C4.17028 4.03734 4.26043 4 4.35442 4H16.8342C16.9282 4.00005 17.0183 4.03742 17.0847 4.1039L20.7303 7.74941C20.7632 7.78227 20.7893 7.82132 20.8072 7.86431C20.825 7.9073 20.8342 7.95339 20.8341 7.99993V12.8059C21.6653 12.6437 22.5266 12.7562 23.2883 13.1264C24.0499 13.4967 24.6704 14.1045 25.0563 14.8583C25.4964 15.725 25.5973 16.7246 25.3394 17.6617C25.0814 18.5988 24.4831 19.4059 23.6614 19.9252L24.0837 20.7531L24.5791 20.5006C24.6629 20.458 24.7601 20.4504 24.8495 20.4794C24.9389 20.5084 25.0132 20.5717 25.0561 20.6553L25.5543 21.6327C25.597 21.7165 25.6046 21.8138 25.5756 21.9032C25.5466 21.9926 25.4832 22.0669 25.3994 22.1096C25.3157 22.1523 25.2184 22.1599 25.1289 22.1309C25.0395 22.1019 24.9653 22.0385 24.9226 21.9547L24.5854 21.2931L23.593 21.7994L25.6626 25.8591L26.655 25.3528L26.2635 24.5848C26.2208 24.501 26.2131 24.4037 26.2422 24.3143C26.2712 24.2248 26.3346 24.1506 26.4184 24.1079C26.5021 24.0652 26.5994 24.0575 26.6889 24.0866C26.7783 24.1156 26.8525 24.179 26.8952 24.2627L27.4473 25.3457V25.3467L27.8607 26.1568C27.9369 26.305 27.983 26.4669 27.9962 26.633C28.0094 26.7992 27.9894 26.9663 27.9374 27.1247ZM17.1886 7.64551H19.6251L17.1886 5.21011V7.64551ZM23.0316 19.4709C23.5936 19.1844 24.0581 18.7376 24.3663 18.1871C24.6745 17.6366 24.8125 17.0071 24.7628 16.3782C24.7132 15.7492 24.4782 15.1492 24.0875 14.6538C23.6969 14.1584 23.1681 13.79 22.568 13.5952C21.968 13.4003 21.3236 13.3878 20.7165 13.5592C20.1093 13.7305 19.5666 14.0781 19.1569 14.5579C18.7473 15.0377 18.4891 15.6282 18.4151 16.2547C18.3411 16.8813 18.4545 17.5157 18.741 18.0777C19.126 18.8307 19.7939 19.4002 20.5982 19.6614C21.4026 19.9226 22.2777 19.8541 23.0316 19.4709ZM27.2296 26.4806L26.9768 25.9844L25.9844 26.4908L26.2374 26.987C26.2706 27.0521 26.3164 27.1101 26.372 27.1576C26.4277 27.205 26.4922 27.2411 26.5617 27.2637C26.6313 27.2862 26.7047 27.2949 26.7776 27.2891C26.8505 27.2833 26.9216 27.2632 26.9868 27.23C27.0519 27.1967 27.1099 27.151 27.1574 27.0953C27.2048 27.0397 27.2409 26.9752 27.2635 26.9056C27.286 26.8361 27.2947 26.7627 27.2889 26.6898C27.2831 26.6169 27.2628 26.5458 27.2296 26.4806ZM25.4095 22.9097L25.6971 23.4739C25.7182 23.5154 25.7473 23.5523 25.7827 23.5825C25.8181 23.6127 25.8591 23.6357 25.9034 23.6501C25.9477 23.6645 25.9944 23.67 26.0408 23.6663C26.0872 23.6626 26.1324 23.6499 26.1739 23.6287C26.2154 23.6076 26.2523 23.5785 26.2825 23.5431C26.3127 23.5077 26.3357 23.4667 26.3501 23.4224C26.3645 23.3781 26.37 23.3314 26.3663 23.285C26.3626 23.2386 26.3499 23.1934 26.3287 23.1519L26.0411 22.5876C26.02 22.5462 25.9909 22.5093 25.9555 22.479C25.9201 22.4488 25.8791 22.4258 25.8348 22.4115C25.7905 22.3971 25.7438 22.3916 25.6974 22.3952C25.651 22.3989 25.6058 22.4117 25.5643 22.4328C25.5228 22.4539 25.4859 22.4831 25.4557 22.5185C25.4255 22.5539 25.4025 22.5949 25.3881 22.6392C25.3737 22.6834 25.3682 22.7301 25.3719 22.7765C25.3756 22.8229 25.3883 22.8682 25.4095 22.9097ZM10.1893 13.5411V13.3953C9.61119 12.9994 9.20321 12.4006 9.0464 11.7177H8.92346C8.71954 11.7181 8.52079 11.6535 8.35601 11.5334C8.19123 11.4133 8.06897 11.2438 8.00693 11.0495C7.94489 10.8553 7.9463 10.6463 8.01094 10.4529C8.07559 10.2595 8.20013 10.0917 8.36651 9.97377V9.45145C8.36737 8.71315 8.66104 8.00533 9.18309 7.48327C9.70515 6.96122 10.413 6.66755 11.1513 6.66669H12.3664C12.5576 6.66674 12.7482 6.68621 12.9353 6.72481C13.0274 6.74388 13.1081 6.79874 13.1597 6.87733C13.2114 6.95591 13.2296 7.05178 13.2106 7.14385C13.1915 7.23591 13.1367 7.31663 13.0581 7.36825C12.9795 7.41986 12.8836 7.43815 12.7915 7.41908C12.6516 7.39007 12.5091 7.37547 12.3662 7.37554H11.1511C10.6007 7.37613 10.073 7.59503 9.68383 7.98421C9.29465 8.37339 9.07574 8.90107 9.07516 9.45145V9.79372H9.31819H9.32791C9.55373 9.79372 10.0791 9.36619 10.428 8.967C10.4597 8.9308 10.4984 8.90141 10.5417 8.88062C10.5851 8.85983 10.6322 8.84808 10.6802 8.84607C10.7283 8.84406 10.7762 8.85184 10.8212 8.86894C10.8661 8.88604 10.9071 8.9121 10.9417 8.94554C11.5557 9.54056 13.5063 9.7599 14.206 9.79393H14.2099H14.4424V9.45165C14.4433 9.02549 14.3123 8.60947 14.0673 8.26079C14.0154 8.18373 13.9958 8.08938 14.0127 7.99802C14.0296 7.90666 14.0817 7.82559 14.1578 7.77226C14.2339 7.71892 14.3278 7.69757 14.4195 7.7128C14.5112 7.72803 14.5932 7.77863 14.6479 7.85371C14.9766 8.32165 15.1524 8.87983 15.1512 9.45165V9.97235C15.3174 10.0905 15.4417 10.2585 15.5062 10.4519C15.5707 10.6453 15.572 10.8542 15.51 11.0485C15.4481 11.2427 15.326 11.4123 15.1614 11.5326C14.9967 11.6529 14.7982 11.7178 14.5943 11.7179H14.4713C14.3145 12.4007 13.9065 12.9995 13.3285 13.3953V13.5411L14.1037 13.6887C14.7401 13.8108 15.3141 14.1508 15.7271 14.6501C16.14 15.1495 16.3661 15.7771 16.3666 16.4251V17.4517C16.3665 17.5457 16.3291 17.6359 16.2626 17.7023C16.1961 17.7688 16.106 17.8061 16.0119 17.8061H7.50576C7.41176 17.8061 7.32162 17.7688 7.25515 17.7023C7.18868 17.6359 7.15134 17.5457 7.15134 17.4517V16.4251C7.15173 15.7771 7.37782 15.1495 7.79074 14.6502C8.20366 14.1508 8.77762 13.8108 9.41398 13.6887L10.1893 13.5411ZM10.2636 14.25L10.8019 15.0619L11.1521 14.8699L10.4349 14.2171L10.2636 14.25ZM11.5158 15.4787L11.7589 15.7217L12.0019 15.4787L11.7589 15.3454L11.5158 15.4787ZM13.2523 14.25L13.081 14.2171L12.3638 14.8699L12.714 15.0619L13.2523 14.25ZM12.5125 13.776C12.0193 13.9185 11.4958 13.9185 11.0026 13.776L11.758 14.4634L12.5125 13.776ZM7.86019 17.0969H10.4864L10.9886 15.953L10.8685 15.8329L10.857 15.8392C10.7791 15.882 10.688 15.8939 10.6017 15.8726C10.5154 15.8514 10.4403 15.7984 10.3912 15.7244L9.50897 14.394C9.04297 14.4922 8.62488 14.7477 8.32472 15.1174C8.02457 15.4872 7.86057 15.9488 7.86019 16.4251V17.0969ZM12.2573 17.0969L11.9901 16.4893C11.9265 16.546 11.8441 16.5774 11.7589 16.5774C11.6736 16.5774 11.5913 16.546 11.5276 16.4893L11.2606 17.0969H12.2573ZM14.0071 14.3935L13.1239 15.7244C13.0748 15.7984 12.9997 15.8514 12.9134 15.8726C12.8271 15.8939 12.736 15.882 12.6581 15.8392L12.6478 15.8335L12.5283 15.953L13.0305 17.0969H15.6575V16.4251C15.6571 15.9486 15.4929 15.4866 15.1924 15.1168C14.892 14.7469 14.4735 14.4916 14.0071 14.3935ZM14.8474 10.7557C14.8478 10.7041 14.8322 10.6536 14.8025 10.6113C14.7729 10.569 14.7308 10.537 14.6821 10.5198C14.6542 10.5086 14.6244 10.5027 14.5943 10.5026H14.5436V11.0089H14.5943C14.6613 11.0087 14.7256 10.982 14.7731 10.9346C14.8205 10.8871 14.8473 10.8228 14.8474 10.7557ZM8.92346 11.0089H8.97409V10.5026H8.92346C8.89806 10.5022 8.87281 10.5065 8.84893 10.5151C8.79125 10.533 8.74188 10.571 8.7098 10.6222C8.67771 10.6733 8.66503 10.7343 8.67404 10.794C8.68305 10.8538 8.71317 10.9083 8.75893 10.9477C8.80469 10.9871 8.86306 11.0088 8.92346 11.0089ZM11.7589 13.1729C12.3092 13.1723 12.8369 12.9534 13.2261 12.5642C13.6153 12.1751 13.8342 11.6474 13.8348 11.097V10.4781C13.1352 10.4195 11.595 10.232 10.7341 9.67646C10.4365 9.99421 10.0793 10.2503 9.68294 10.4303V11.097C9.68353 11.6474 9.90243 12.1751 10.2916 12.5642C10.6808 12.9534 11.2085 13.1723 11.7589 13.1729Z" fill="url(#paint0_linear_6355_4722)"/>
<defs>
<linearGradient id="paint0_linear_6355_4722" x1="24.9264" y1="30.3319" x2="1.40096" y2="6.80664" gradientUnits="userSpaceOnUse">
<stop stop-color="#F7527F"/>
<stop offset="1" stop-color="#F9D42F"/>
</linearGradient>
</defs>
</svg>
