<svg width="120" height="120" viewBox="0 0 120 120" fill="none" xmlns="http://www.w3.org/2000/svg">
<path d="M81.875 95H38.125C30.8757 95 25 89.1243 25 81.875V38.125C25 30.8757 30.8757 25 38.125 25H81.875C89.1243 25 95 30.8757 95 38.125V81.875C95 89.1243 89.1243 95 81.875 95Z" fill="#FFF2E8"/>
<path d="M60 42.5C50.3512 42.5 42.5 50.3512 42.5 60C42.5 69.6488 50.3512 77.5 60 77.5C69.6488 77.5 77.5 69.6488 77.5 60C77.5 50.3512 69.6488 42.5 60 42.5ZM60 70.209C59.1952 70.209 58.541 69.557 58.541 68.75C58.541 67.9452 59.193 67.291 60 67.291C60.8048 67.291 61.459 67.943 61.459 68.75C61.459 69.5548 60.8048 70.209 60 70.209ZM61.459 62.916C61.459 63.7229 60.8048 64.375 60 64.375C59.1952 64.375 58.541 63.7208 58.541 62.916V51.25C58.541 50.4452 59.1952 49.791 60 49.791C60.8048 49.791 61.459 50.4452 61.459 51.25V62.916Z" fill="#FF7B1B"/>
</svg>
