<svg width="120" height="120" viewBox="0 0 120 120" fill="none" xmlns="http://www.w3.org/2000/svg">
<rect width="120" height="120" fill="white"/>
<path d="M85.6341 54.6335H34.5762L39.1521 91.0335C39.6338 93.3668 41.5605 95.0001 43.9689 95.0001H76.0005C78.4089 95.0001 80.3357 93.3668 80.8173 91.0335L85.6341 54.6335Z" fill="#FFDFC8"/>
<path d="M87.8014 54.6334H32.4084C30.9634 54.6334 30 53.7 30 52.3V47.6334C30 46.2334 30.9634 45.3 32.4084 45.3H87.5606C89.0056 45.3 89.969 46.2334 89.969 47.6334V52.3C90.2098 53.7 89.0056 54.6334 87.8014 54.6334Z" fill="#FF7B1B"/>
<path d="M74.5555 25H45.6548C43.7281 25 41.8014 26.1667 41.0788 28.0333L34.5762 45.3H85.3933L78.8906 28.0333C78.4089 26.1667 76.4822 25 74.5555 25Z" fill="#FFDFC8"/>
<path d="M65.6482 35.9667H54.5696C52.6429 35.9667 50.957 34.3333 50.957 32.4667V25H69.2608V32.4667C69.2608 34.3333 67.5749 35.9667 65.6482 35.9667Z" fill="#FF7B1B"/>
<path d="M57.6992 76.1V66.3C57.6992 64.9 58.6626 63.9667 60.1076 63.9667C61.5526 63.9667 62.516 64.9 62.516 66.3V76.1C62.516 77.2667 61.5526 78.4333 60.1076 78.4333C58.6626 78.4333 57.6992 77.5 57.6992 76.1Z" fill="white"/>
<path d="M62.516 83.3333C62.516 84.5 61.5526 85.6666 60.1076 85.6666C58.6626 85.6666 57.6992 84.5 57.6992 83.3333C57.6992 81.9333 58.9034 81 60.1076 81C61.3118 81 62.516 81.9333 62.516 83.3333Z" fill="white"/>
</svg>
