<svg width="60" height="60" viewBox="0 0 60 60" fill="none" xmlns="http://www.w3.org/2000/svg">
<rect width="60" height="60" rx="30" fill="white"/>
<path fill-rule="evenodd" clip-rule="evenodd" d="M16.8241 13.8677L15.7656 16.0183L19.4264 16.8332L20.467 14.7L16.8241 13.8677ZM21.265 14.8912L20.224 17.0415L23.8851 17.8737L24.9073 15.7402L21.265 14.8912ZM33.147 17.6307L32.1238 19.781L35.7845 20.631L36.8247 18.4807L33.147 17.6307ZM37.6053 18.672L36.5647 20.8215L40.2419 21.6546L41.2651 19.521L37.6053 18.672ZM33.5118 32.5621C33.3034 32.5621 33.1129 32.6491 32.9395 32.8055C32.8002 32.944 32.6964 33.1691 32.6964 33.3943C32.6964 33.6206 32.8002 33.8108 32.9395 33.9841C33.1129 34.1228 33.3035 34.2272 33.5117 34.2272C33.7549 34.2272 33.9801 34.1228 34.1186 33.9843C34.292 33.8108 34.3617 33.6204 34.3617 33.3945C34.3617 33.1691 34.2922 32.944 34.1186 32.8055C33.9801 32.6491 33.7549 32.5621 33.5117 32.5621H33.5118ZM32.0022 34.6609V35.6494H37.8482C37.0501 35.8228 36.3396 36.2043 35.8186 36.7414C35.5415 37.0194 35.2811 37.4529 35.0381 38.008C34.9335 38.2502 34.8469 38.4934 34.7432 38.7706C36.4431 38.7883 37.5014 38.8572 37.9697 39.0306C38.2816 39.1521 38.5599 39.3255 38.8548 39.5336C39.2185 39.8107 39.4095 40.0717 39.4614 40.3319H36.0269L34.8647 41.4939H38.8895C40.0683 40.6092 40.6412 39.8805 40.6412 39.2906C40.6412 39.0304 40.52 38.7885 40.3115 38.5802C39.8432 38.1119 39.2184 37.8167 38.4382 37.6782C38.0395 37.6085 37.328 37.5567 36.3216 37.5567C36.4743 37.3462 36.6134 37.1262 36.7382 36.898C36.9465 36.6378 37.1367 36.5163 37.3628 36.5163C37.8831 36.5163 38.7678 36.8631 39.9467 37.5395L41.1265 36.3428C40.6761 36.0656 40.2078 35.8228 39.7734 35.6495H53.5475V34.6609H34.3617H32.0022ZM32.8003 36.4465V41.4939H34.2401V36.4467L32.8003 36.4465ZM41.8032 36.4465V41.4939H43.2601V38.0597C43.6417 37.9033 44.0233 37.7995 44.4228 37.7995C44.8215 37.7995 45.1343 37.9214 45.3765 38.1117C45.6714 38.4236 45.793 38.91 45.7411 39.5687L46.9726 38.3719C47.0075 37.7481 46.8512 37.2618 46.5394 36.9499C46.2784 36.7067 45.9665 36.5682 45.5679 36.5682C45.1862 36.5682 44.7526 36.6897 44.3013 36.9497C43.8849 37.1401 43.5381 37.4182 43.2601 37.6951V36.4467L41.8032 36.4465ZM47.718 36.4465V40.2104C47.718 40.2104 47.7529 40.9388 48.2392 41.3027C48.5682 41.5109 49.0365 41.4939 49.0365 41.4939H52.9743V37.7997C52.9743 37.435 52.8527 37.1231 52.6445 36.8629C52.4542 36.5858 52.1942 36.4467 51.8813 36.4467L47.718 36.4465ZM51.2713 37.7735C51.6478 37.7664 51.6213 37.8663 51.6213 38.4584V40.1405H49.3493C49.3493 40.1405 49.1232 40.1585 49.0714 40.0888C49.0025 40.0021 49.0365 39.8982 49.0365 39.3951V37.7819H51.0842C51.1465 37.7779 51.2089 37.7751 51.2713 37.7735Z" fill="#0E88D3"/>
<path fill-rule="evenodd" clip-rule="evenodd" d="M17.7617 33.6893L30.9279 7L30.8413 52.7832L27.2161 22.331L17.7617 33.6893Z" fill="#F47216"/>
<path fill-rule="evenodd" clip-rule="evenodd" d="M23.5016 31.9029C23.4172 31.906 23.3308 31.9118 23.2419 31.9205L22.7565 33.0825C24.1252 32.8353 24.7098 33.217 25.2264 34.6259H6V35.6315H10.6313V36.2043C10.6313 36.2043 8.79185 35.4759 7.23134 36.88C5.99968 38.302 7.04002 39.6902 7.04002 39.6902C7.04002 39.6902 8.04642 39.135 9.64184 39.3952C11.1337 39.6553 11.0647 40.366 11.0647 40.366C11.0647 40.366 10.8562 41.2507 9.65961 41.0774C8.46285 40.8862 8.54946 39.6902 8.54946 39.6902L7.23134 40.5742C7.23134 40.5742 7.73228 41.4269 8.86021 41.6995L9.86807 43.2109H11.3599L10.2094 41.7241C10.3454 41.7 10.4803 41.6695 10.6135 41.6326C13.5102 40.8692 12.4869 38.6838 10.3364 38.1118C8.84389 37.7303 7.23134 38.4584 7.23134 38.4584C7.23134 38.4584 7.43899 36.62 10.1105 37.0542C11.6021 37.3135 12.1401 37.9213 12.1401 37.9213V35.6315H15.1302L13.8751 36.2213C13.8751 36.2213 14.5168 36.9326 14.7421 37.8686C14.9332 38.8401 14.5168 39.0136 14.2566 39.0306C14.0832 38.9099 13.2682 37.748 13.2682 37.748L12.6953 38.2504L14.7597 41.4939H16.2166C16.2166 41.4939 14.8812 39.8808 14.6729 39.5859C15.0151 39.5742 15.4862 39.465 15.796 39.0464C16.0394 39.1751 16.3066 39.2524 16.5812 39.2737C17.5 39.3603 18.073 38.9097 18.073 38.9097V41.4939H19.5816V35.6313H22.8466L21.5765 36.2213C21.5765 36.2213 22.2531 36.9326 22.4443 37.8686C22.6346 38.8401 22.2361 39.0136 21.9582 39.0306C21.8197 38.9099 20.9697 37.748 20.9697 37.748L20.3969 38.2504L22.4443 41.4939H23.9182C23.9182 41.4939 22.6178 39.8808 22.4095 39.5859C22.8778 39.5687 23.6581 39.3435 23.7966 38.2333C23.9991 36.7607 23.3416 35.8862 23.1137 35.6315H24.9066V41.493H26.4162V35.6315H27.2145V34.6259H26.1132C25.4901 32.445 24.7287 31.8584 23.5016 31.9029ZM15.3967 35.6315H18.073V37.3315C18.073 37.3315 18.073 37.8001 17.1534 38.2504C16.7654 38.4616 16.3675 38.5432 16.0262 38.566C16.0558 38.4646 16.0799 38.3553 16.0951 38.2333C16.2974 36.7609 15.6286 35.8863 15.3967 35.6315Z" fill="#F47216"/>
</svg>
