<svg id="Icon" xmlns="http://www.w3.org/2000/svg" xmlns:xlink="http://www.w3.org/1999/xlink" width="24" height="24" viewBox="0 0 24 24">
  <defs>
    <clipPath id="clip-path">
      <rect id="Rectangle_44439" data-name="Rectangle 44439" width="20" height="20" transform="translate(0 -0.277)" fill="#fff" stroke="#707070" stroke-width="1"/>
    </clipPath>
  </defs>
  <rect id="background" width="24" height="24" fill="none"/>
  <g id="Mask_Group_379" data-name="Mask Group 379" transform="translate(2 2.277)" clip-path="url(#clip-path)">
    <g id="building_2_" data-name="building (2)" transform="translate(0 0)">
      <g id="Group_41964" data-name="Group 41964">
        <g id="Group_41963" data-name="Group 41963">
          <path id="Path_44354" data-name="Path 44354" d="M19.243,18.917h-1.3V8.154a.326.326,0,0,0-.326-.326H12.068V.326A.326.326,0,0,0,11.741,0H1.957a.326.326,0,0,0-.326.326V18.917H.326a.326.326,0,0,0,0,.652H19.243a.326.326,0,0,0,0-.652ZM11.415,8.154V18.917H2.283V.652h9.132v7.5Zm5.871,10.763H12.068V8.48h5.218V18.917Z"/>
          <path id="Path_44355" data-name="Path 44355" d="M3.259,4.209H5.216a.326.326,0,0,0,.326-.326V1.926A.326.326,0,0,0,5.216,1.6H3.259a.326.326,0,0,0-.326.326V3.883A.326.326,0,0,0,3.259,4.209Zm.326-1.957h1.3v1.3h-1.3Z" transform="translate(0.654 0.357)"/>
          <path id="Path_44356" data-name="Path 44356" d="M6.459,4.209H8.416a.326.326,0,0,0,.326-.326V1.926A.326.326,0,0,0,8.416,1.6H6.459a.326.326,0,0,0-.326.326V3.883A.326.326,0,0,0,6.459,4.209Zm.326-1.957h1.3v1.3h-1.3Z" transform="translate(1.368 0.357)"/>
          <path id="Path_44357" data-name="Path 44357" d="M3.259,7.409H5.216a.326.326,0,0,0,.326-.326V5.126A.326.326,0,0,0,5.216,4.8H3.259a.326.326,0,0,0-.326.326V7.083A.326.326,0,0,0,3.259,7.409Zm.326-1.957h1.3v1.3h-1.3Z" transform="translate(0.654 1.071)"/>
          <path id="Path_44358" data-name="Path 44358" d="M6.459,7.409H8.416a.326.326,0,0,0,.326-.326V5.126A.326.326,0,0,0,8.416,4.8H6.459a.326.326,0,0,0-.326.326V7.083A.326.326,0,0,0,6.459,7.409Zm.326-1.957h1.3v1.3h-1.3Z" transform="translate(1.368 1.071)"/>
          <path id="Path_44359" data-name="Path 44359" d="M3.259,10.609H5.216a.326.326,0,0,0,.326-.326V8.326A.326.326,0,0,0,5.216,8H3.259a.326.326,0,0,0-.326.326v1.957A.326.326,0,0,0,3.259,10.609Zm.326-1.957h1.3v1.3h-1.3Z" transform="translate(0.654 1.785)"/>
          <path id="Path_44360" data-name="Path 44360" d="M6.459,10.609H8.416a.326.326,0,0,0,.326-.326V8.326A.326.326,0,0,0,8.416,8H6.459a.326.326,0,0,0-.326.326v1.957A.326.326,0,0,0,6.459,10.609Zm.326-1.957h1.3v1.3h-1.3Z" transform="translate(1.368 1.785)"/>
          <path id="Path_44361" data-name="Path 44361" d="M3.259,13.809H5.216a.326.326,0,0,0,.326-.326V11.526a.326.326,0,0,0-.326-.326H3.259a.326.326,0,0,0-.326.326v1.957A.326.326,0,0,0,3.259,13.809Zm.326-1.957h1.3v1.3h-1.3Z" transform="translate(0.654 2.498)"/>
          <path id="Path_44362" data-name="Path 44362" d="M6.459,13.809H8.416a.326.326,0,0,0,.326-.326V11.526a.326.326,0,0,0-.326-.326H6.459a.326.326,0,0,0-.326.326v1.957A.326.326,0,0,0,6.459,13.809Zm.326-1.957h1.3v1.3h-1.3Z" transform="translate(1.368 2.498)"/>
          <path id="Path_44363" data-name="Path 44363" d="M11.259,10.609h1.957a.326.326,0,0,0,.326-.326V8.326A.326.326,0,0,0,13.216,8H11.259a.326.326,0,0,0-.326.326v1.957A.326.326,0,0,0,11.259,10.609Zm.326-1.957h1.3v1.3h-1.3Z" transform="translate(2.439 1.785)"/>
          <path id="Path_44364" data-name="Path 44364" d="M11.259,13.809h1.957a.326.326,0,0,0,.326-.326V11.526a.326.326,0,0,0-.326-.326H11.259a.326.326,0,0,0-.326.326v1.957A.326.326,0,0,0,11.259,13.809Zm.326-1.957h1.3v1.3h-1.3Z" transform="translate(2.439 2.498)"/>
        </g>
      </g>
    </g>
  </g>
</svg>
