<svg id="Icon" xmlns="http://www.w3.org/2000/svg" xmlns:xlink="http://www.w3.org/1999/xlink" width="24" height="24" viewBox="0 0 24 24">
  <defs>
    <clipPath id="clip-path">
      <rect id="Rectangle_44433" data-name="Rectangle 44433" width="20" height="20" transform="translate(-0.276 -0.139)" fill="#fff" stroke="#707070" stroke-width="1"/>
    </clipPath>
  </defs>
  <rect id="background" width="24" height="24" fill="none"/>
  <g id="Mask_Group_373" data-name="Mask Group 373" transform="translate(2.276 2.139)" clip-path="url(#clip-path)">
    <g id="temple_1_" data-name="temple (1)" transform="translate(0.641 0.287)">
      <line id="Line_436" data-name="Line 436" y1="1.224" transform="translate(9.144)" fill="none" stroke="#000" stroke-linecap="round" stroke-linejoin="round" stroke-width="0.469"/>
      <path id="Path_44268" data-name="Path 44268" d="M9.3,2.635,8.826,1.429a.306.306,0,0,0-.285-.194H7.86a.306.306,0,0,0-.285.194L7.1,2.635" transform="translate(0.944 -0.011)" fill="none" stroke="#000" stroke-linecap="round" stroke-linejoin="round" stroke-width="0.469"/>
      <path id="Path_44269" data-name="Path 44269" d="M14.617,8.873v.367a.191.191,0,0,1-.191.191H4.773a.191.191,0,0,1-.191-.191V8.873H.829v8.24a.191.191,0,0,0,.191.191H18.179a.191.191,0,0,0,.191-.191V8.873Z" transform="translate(-0.456 1.693)" fill="none" stroke="#000" stroke-linecap="round" stroke-linejoin="round" stroke-width="0.469"/>
      <g id="Group_41959" data-name="Group 41959" transform="translate(0 9.097)">
        <path id="Path_44270" data-name="Path 44270" d="M5.792,7.672H1.336a.191.191,0,0,0-.169.1l-.63,1.2a.115.115,0,0,0,.1.168H4.65V8.87a.191.191,0,0,1,.191-.191h.951V7.672Z" transform="translate(-0.524 -7.672)" fill="none" stroke="#000" stroke-linecap="round" stroke-linejoin="round" stroke-width="0.469"/>
        <path id="Path_44271" data-name="Path 44271" d="M12.224,7.672H11.168V8.678h.951a.191.191,0,0,1,.191.191V9.14h4.012a.115.115,0,0,0,.1-.168l-.63-1.2a.191.191,0,0,0-.169-.1H13.561" transform="translate(1.851 -7.672)" fill="none" stroke="#000" stroke-linecap="round" stroke-linejoin="round" stroke-width="0.469"/>
      </g>
      <path id="Path_44272" data-name="Path 44272" d="M10.412,4.074V2.751a.382.382,0,0,0-.382-.382H6.715a.382.382,0,0,0-.382.382V4.074Z" transform="translate(0.772 0.242)" fill="none" stroke="#000" stroke-linecap="round" stroke-linejoin="round" stroke-width="0.469"/>
      <rect id="Rectangle_44431" data-name="Rectangle 44431" width="1.172" height="1.754" transform="translate(8.558 4.315)" fill="none" stroke="#000" stroke-linecap="round" stroke-linejoin="round" stroke-width="0.469"/>
      <path id="Path_44273" data-name="Path 44273" d="M11.135,5.517V4.145a.382.382,0,0,0-.382-.382H6.214a.382.382,0,0,0-.382.382V5.517Z" transform="translate(0.66 0.553)" fill="none" stroke="#000" stroke-linecap="round" stroke-linejoin="round" stroke-width="0.469"/>
      <path id="Path_44274" data-name="Path 44274" d="M11.859,7.136V5.579a.382.382,0,0,0-.382-.382H5.714a.382.382,0,0,0-.382.382V7.136" transform="translate(0.549 0.873)" fill="none" stroke="#000" stroke-linecap="round" stroke-linejoin="round" stroke-width="0.469"/>
      <path id="Path_44275" data-name="Path 44275" d="M12.582,8.877V7.165a.382.382,0,0,0-.382-.382H5.214a.382.382,0,0,0-.382.382V8.877Z" transform="translate(0.437 1.226)" fill="none" stroke="#000" stroke-linecap="round" stroke-linejoin="round" stroke-width="0.469"/>
      <rect id="Rectangle_44432" data-name="Rectangle 44432" width="1.713" height="2.095" transform="translate(8.287 8.009)" fill="none" stroke="#000" stroke-linecap="round" stroke-linejoin="round" stroke-width="0.469"/>
      <line id="Line_437" data-name="Line 437" y2="4.174" transform="translate(4.779 11.123)" fill="none" stroke="#000" stroke-linecap="round" stroke-linejoin="round" stroke-width="0.469"/>
      <line id="Line_438" data-name="Line 438" y1="4.174" transform="translate(13.509 11.123)" fill="none" stroke="#000" stroke-linecap="round" stroke-linejoin="round" stroke-width="0.469"/>
      <path id="Path_44276" data-name="Path 44276" d="M5.781,9.329V13.5H6.822V12.238a1.672,1.672,0,0,1,1.672-1.672h0a1.672,1.672,0,0,1,1.672,1.672V13.5h1.041V9.329Z" transform="translate(0.649 1.794)" fill="none" stroke="#000" stroke-linecap="round" stroke-linejoin="round" stroke-width="0.469"/>
      <g id="Group_41960" data-name="Group 41960" transform="translate(4.371 15.297)">
        <path id="Path_44277" data-name="Path 44277" d="M12.468,14.74V12.933a.191.191,0,0,0-.191-.191H9.367v2Z" transform="translate(-2.922 -12.742)" fill="none" stroke="#000" stroke-linecap="round" stroke-linejoin="round" stroke-width="0.469"/>
        <path id="Path_44278" data-name="Path 44278" d="M7.2,14.74v-2H4.289a.191.191,0,0,0-.191.191V14.74Z" transform="translate(-4.098 -12.742)" fill="none" stroke="#000" stroke-linecap="round" stroke-linejoin="round" stroke-width="0.469"/>
      </g>
      <path id="Path_44279" data-name="Path 44279" d="M9.978,15.276V12.013A1.672,1.672,0,0,0,8.305,10.34h0a1.672,1.672,0,0,0-1.672,1.672v3.263Z" transform="translate(0.839 2.02)" fill="none" stroke="#000" stroke-linecap="round" stroke-linejoin="round" stroke-width="0.469"/>
      <path id="Path_44280" data-name="Path 44280" d="M8.848,15.1V11.838a.717.717,0,1,0-1.434,0V15.1Z" transform="translate(1.013 2.194)" fill="none" stroke="#000" stroke-linecap="round" stroke-linejoin="round" stroke-width="0.469"/>
      <path id="Path_44281" data-name="Path 44281" d="M14.318,16.076H3.631V14.567a.191.191,0,0,1,.191-.191H14.127a.191.191,0,0,1,.191.191v1.509Z" transform="translate(0.169 2.92)" fill="none" stroke="#000" stroke-linecap="round" stroke-linejoin="round" stroke-width="0.469"/>
      <path id="Path_44282" data-name="Path 44282" d="M13.741,9.515H4.089A.191.191,0,0,1,3.9,9.324V8.686a.191.191,0,0,1,.191-.191h9.653a.191.191,0,0,1,.191.191v.638A.191.191,0,0,1,13.741,9.515Z" transform="translate(0.229 1.608)" fill="none" stroke="#000" stroke-linecap="round" stroke-linejoin="round" stroke-width="0.469"/>
      <g id="Group_41962" data-name="Group 41962" transform="translate(1.577 12.074)">
        <g id="Group_41961" data-name="Group 41961">
          <path id="Path_44283" data-name="Path 44283" d="M1.813,13.3v1.672A.191.191,0,0,0,2,15.165h.882a.191.191,0,0,0,.191-.191V10.3a.191.191,0,0,0-.191-.191H2a.191.191,0,0,0-.191.191v1.666" transform="translate(-1.813 -10.107)" fill="none" stroke="#000" stroke-linecap="round" stroke-linejoin="round" stroke-width="0.469"/>
          <path id="Path_44284" data-name="Path 44284" d="M14.226,15.165h-.882a.191.191,0,0,1-.191-.191V10.3a.191.191,0,0,1,.191-.191h.882a.191.191,0,0,1,.191.191v4.676A.191.191,0,0,1,14.226,15.165Z" transform="translate(0.716 -10.107)" fill="none" stroke="#000" stroke-linecap="round" stroke-linejoin="round" stroke-width="0.469"/>
        </g>
      </g>
    </g>
  </g>
</svg>
