<svg xmlns="http://www.w3.org/2000/svg" xmlns:xlink="http://www.w3.org/1999/xlink" width="66" height="67" viewBox="0 0 66 67">
  <defs>
    <clipPath id="clip-path">
      <rect id="Rectangle_44369" data-name="Rectangle 44369" width="65" height="67" transform="translate(0.09 0.215)" fill="#fff" stroke="#4d2121" stroke-width="1"/>
    </clipPath>
  </defs>
  <g id="Image" transform="translate(-16 -94)">
    <rect id="Image_background" width="66" height="66" transform="translate(16 94)" fill="#fff"/>
    <g id="Mask_Group_347" data-name="Mask Group 347" transform="translate(15.91 93.785)" clip-path="url(#clip-path)">
      <g id="customer-service_2_" data-name="customer-service (2)" transform="translate(0.288 0.41)">
        <g id="Group_41375" data-name="Group 41375" transform="translate(0 0)">
          <g id="Group_41366" data-name="Group 41366" transform="translate(37.015 40.372)">
            <g id="Group_41365" data-name="Group 41365">
              <path id="Path_43490" data-name="Path 43490" d="M26.72,9.881a.986.986,0,0,0-.986.986V24.733a6.312,6.312,0,0,1-6.316,6.294H11.149a.986.986,0,0,0,0,1.973h8.269a8.287,8.287,0,0,0,8.289-8.267V10.868a.987.987,0,0,0-.987-.987Z" transform="translate(-5.656 -9.881)" fill="#d9ddff"/>
              <path id="Path_43491" data-name="Path 43491" d="M11.892,20.278H17.13a2.832,2.832,0,1,0,0-5.665H11.892a2.832,2.832,0,1,0,0,5.665Z" transform="translate(-9.06 4.721)" fill="#7776d0"/>
            </g>
          </g>
          <g id="Group_41374" data-name="Group 41374">
            <path id="Path_43492" data-name="Path 43492" d="M60.407,48.33H56.024V29.877a25.473,25.473,0,1,0-50.947,0V48.33H.695V29.877a29.856,29.856,0,1,1,59.712,0Z" transform="translate(2.145)" fill="#d9ddff"/>
            <g id="Group_41373" data-name="Group 41373" transform="translate(0 26.475)">
              <g id="Group_41369" data-name="Group 41369">
                <g id="Group_41368" data-name="Group 41368" transform="translate(0 2.912)">
                  <g id="Group_41367" data-name="Group 41367">
                    <path id="Path_43493" data-name="Path 43493" d="M10.032,7.193H5.577A5.577,5.577,0,0,0,0,12.77V22.3A5.577,5.577,0,0,0,5.577,27.88h4.455Z" transform="translate(0 -7.193)" fill="#7776d0"/>
                  </g>
                </g>
                <path id="Path_43494" data-name="Path 43494" d="M4.525,6.48A2.741,2.741,0,0,1,7.266,9.221V29.913a2.741,2.741,0,1,1-5.481,0V9.221A2.741,2.741,0,0,1,4.525,6.48Z" transform="translate(5.507 -6.48)" fill="#e8f3ff"/>
              </g>
              <g id="Group_41372" data-name="Group 41372" transform="translate(52.598 0)">
                <g id="Group_41371" data-name="Group 41371" transform="translate(2.741 2.574)">
                  <g id="Group_41370" data-name="Group 41370">
                    <path id="Path_43495" data-name="Path 43495" d="M13.545,27.8H18a5.577,5.577,0,0,0,5.577-5.577V12.687A5.577,5.577,0,0,0,18,7.11H13.545Z" transform="translate(-13.545 -7.11)" fill="#7776d0"/>
                  </g>
                </g>
                <path id="Path_43496" data-name="Path 43496" d="M15.614,32.653a2.741,2.741,0,0,1-2.741-2.741V9.221a2.741,2.741,0,1,1,5.481,0V29.913A2.741,2.741,0,0,1,15.614,32.653Z" transform="translate(-12.874 -6.48)" fill="#e8f3ff"/>
              </g>
            </g>
          </g>
        </g>
        <g id="Group_41378" data-name="Group 41378" transform="translate(18.859 26.01)">
          <g id="Group_41376" data-name="Group 41376" transform="translate(0 0)">
            <path id="Path_43497" data-name="Path 43497" d="M18.443,6.366a13.823,13.823,0,0,1,9.359,24v3.645l-3.3-1.393A13.826,13.826,0,1,1,18.443,6.366Z" transform="translate(-4.616 -6.366)" fill="#ff8ccc"/>
          </g>
          <path id="Path_43498" data-name="Path 43498" d="M10.016,6.366a13.9,13.9,0,0,0-2.631.25,13.829,13.829,0,0,1,11.2,13.574A14.085,14.085,0,0,1,7.347,33.757a13.886,13.886,0,0,0,8.73-1.139l3.3,1.393V30.366a13.823,13.823,0,0,0-9.358-24Z" transform="translate(3.811 -6.366)" fill="#ff78c2"/>
          <g id="Group_41377" data-name="Group 41377" transform="translate(7.378 7.305)">
            <path id="Path_43499" data-name="Path 43499" d="M8.1,10.127h5.277a.986.986,0,0,0,0-1.973H8.1a.986.986,0,1,0,0,1.973Z" transform="translate(-4.29 -8.154)" fill="#fff"/>
            <path id="Path_43500" data-name="Path 43500" d="M13.376,10.862H8.1a.986.986,0,0,0,0,1.973h5.277a.986.986,0,1,0,0-1.973Z" transform="translate(-4.29 0.204)" fill="#fff"/>
            <path id="Path_43501" data-name="Path 43501" d="M18.332,9.508H7.408a.986.986,0,0,0,0,1.973H18.332a.986.986,0,0,0,0-1.973Z" transform="translate(-6.422 -3.975)" fill="#fff"/>
          </g>
        </g>
        <g id="Group_41382" data-name="Group 41382" transform="translate(35.067 0)">
          <g id="Group_41379" data-name="Group 41379" transform="translate(0 0)">
            <path id="Path_43502" data-name="Path 43502" d="M20.347,0a11.761,11.761,0,0,0-7.962,20.419v3.1l2.805-1.185A11.763,11.763,0,1,0,20.347,0Z" transform="translate(-8.583 0)" fill="#ffd54d"/>
          </g>
          <g id="Group_41380" data-name="Group 41380" transform="translate(9.133)">
            <path id="Path_43503" data-name="Path 43503" d="M13.449,0a11.812,11.812,0,0,0-2.631.3,11.764,11.764,0,0,1,0,22.933A11.763,11.763,0,1,0,13.449,0Z" transform="translate(-10.818 0)" fill="#ffc919"/>
          </g>
          <g id="Group_41381" data-name="Group 41381" transform="translate(7.55 4.233)">
            <path id="Path_43504" data-name="Path 43504" d="M18.852,5.027a4.214,4.214,0,0,0-8.422.223.986.986,0,0,0,1.973,0,2.271,2.271,0,0,1,.022-.314A2.24,2.24,0,1,1,14.644,7.49a.986.986,0,0,0-.986.986v3.375a.986.986,0,0,0,1.973,0V9.345A4.233,4.233,0,0,0,17.7,8.15a4.179,4.179,0,0,0,1.152-3.123Z" transform="translate(-10.431 -1.036)" fill="#fff"/>
            <path id="Path_43505" data-name="Path 43505" d="M12.182,4.271a.987.987,0,0,0,0,1.973A.987.987,0,0,0,12.182,4.271Z" transform="translate(-7.968 8.945)" fill="#fff"/>
          </g>
        </g>
      </g>
    </g>
  </g>
</svg>
