<svg id="icon_fill_facebook" xmlns="http://www.w3.org/2000/svg" width="24" height="24" viewBox="0 0 24 24">
  <path id="Icon_11_" d="M14.715,15.334H11.959c-.445,0-.585-.15-.585-.526V11.78c0-.4.167-.526.585-.526h2.756v-2.2a5.113,5.113,0,0,1,.752-2.829A4.539,4.539,0,0,1,17.945,4.37a6.825,6.825,0,0,1,2.144-.325h2.729c.39,0,.557.15.557.5V7.4c0,.35-.167.5-.557.5-.752,0-1.5,0-2.255.025-.752,0-1.142.325-1.142,1.026-.028.751,0,1.477,0,2.253h3.23c.445,0,.613.15.613.551v3.029c0,.4-.139.526-.613.526h-3.23v8.16c0,.426-.139.576-.64.576H15.3c-.418,0-.585-.15-.585-.526V15.334Z" transform="translate(-5.374 -2.045)" fill="#fff"/>
</svg>
