<svg id="icon_outline_instagram" xmlns="http://www.w3.org/2000/svg" width="24" height="24" viewBox="0 0 24 24">
  <g id="path" transform="translate(428 1106)">
    <path id="Path_30523" data-name="Path 30523" d="M13.005,7.784a5.211,5.211,0,1,0,5.211,5.211,5.21,5.21,0,0,0-5.211-5.211Zm0,8.593a3.382,3.382,0,1,1,3.382-3.382A3.381,3.381,0,0,1,13.005,16.377Z" transform="translate(-428.847 -1106.845)" fill="#fff"/>
    <path id="Path_30524" data-name="Path 30524" d="M14.123.064c-1.84-.086-6.4-.082-8.239,0a5.976,5.976,0,0,0-4.2,1.617C-.236,3.6.01,6.2.01,10c0,3.89-.217,6.422,1.678,8.316C3.618,20.242,6.247,19.99,10,19.99c3.853,0,5.183,0,6.546-.525,1.852-.719,3.251-2.375,3.388-5.349.087-1.841.082-6.4,0-8.239C19.772,2.366,17.887.237,14.123.064ZM17.036,17.04c-1.261,1.261-3.01,1.148-7.057,1.148-4.167,0-5.837.062-7.057-1.161-1.4-1.4-1.15-3.642-1.15-7.044,0-4.6-.472-7.92,4.148-8.157,1.062-.037,1.374-.05,4.047-.05L10,1.8c4.441,0,7.925-.465,8.134,4.155.047,1.054.058,1.371.058,4.039C18.2,14.114,18.275,15.8,17.036,17.04Z" transform="translate(-426 -1104.001)" fill="#fff"/>
    <circle id="Ellipse_522" data-name="Ellipse 522" cx="1.218" cy="1.218" r="1.218" transform="translate(-411.642 -1100.483)" fill="#fff"/>
  </g>
</svg>
