<svg xmlns="http://www.w3.org/2000/svg" xmlns:xlink="http://www.w3.org/1999/xlink" width="66" height="66" viewBox="0 0 66 66">
  <defs>
    <clipPath id="clip-path">
      <rect id="Rectangle_44391" data-name="Rectangle 44391" width="64" height="65" transform="translate(0.195)" fill="#fff" stroke="#707070" stroke-width="1"/>
    </clipPath>
  </defs>
  <g id="Image" transform="translate(-16 -94)">
    <rect id="Image_background" width="66" height="66" transform="translate(16 94)" fill="#fff"/>
    <g id="Mask_Group_365" data-name="Mask Group 365" transform="translate(17.805 95)" clip-path="url(#clip-path)">
      <g id="Math" transform="translate(-0.783 0.016)">
        <path id="Path_44214" data-name="Path 44214" d="M28.161,5.91c0,17.842.264,17.7-.723,19.469a5.563,5.563,0,0,1-4.84,2.781H5.91A5.563,5.563,0,0,1,.348,22.6V5.91A5.563,5.563,0,0,1,5.91.348H22.6A5.563,5.563,0,0,1,28.161,5.91Z" transform="translate(-0.348 -0.348)" fill="#6fabe6"/>
        <path id="Path_44215" data-name="Path 44215" d="M25.032,5.91c0,20.053.348,18.454-1.321,19.469A22.251,22.251,0,0,1,1.391,3.129,5.688,5.688,0,0,1,1.877.848l.9-.5H19.469A5.563,5.563,0,0,1,25.032,5.91Z" transform="translate(2.781 -0.348)" fill="#82bcf4"/>
        <path id="Path_44216" data-name="Path 44216" d="M37.2,5.91c0,17.842.264,17.7-.723,19.469a5.563,5.563,0,0,1-4.84,2.781H14.949A5.563,5.563,0,0,1,9.387,22.6V5.91A5.563,5.563,0,0,1,14.949.348H31.637A5.563,5.563,0,0,1,37.2,5.91Z" transform="translate(26.771 -0.348)" fill="#fc6"/>
        <path id="Path_44217" data-name="Path 44217" d="M34.071,5.91c0,20.053.348,18.454-1.391,19.469A22.251,22.251,0,0,1,10.43,3.129,5.688,5.688,0,0,1,10.916.848l.9-.5H28.508A5.563,5.563,0,0,1,34.071,5.91Z" transform="translate(29.9 -0.348)" fill="#ffde76"/>
        <path id="Path_44218" data-name="Path 44218" d="M28.161,14.949c0,17.842.264,17.7-.723,19.469A5.563,5.563,0,0,1,22.6,37.2H5.91A5.563,5.563,0,0,1,.348,31.637V14.949A5.563,5.563,0,0,1,5.91,9.387H22.6A5.563,5.563,0,0,1,28.161,14.949Z" transform="translate(-0.348 26.771)" fill="#db5669"/>
        <path id="Path_44219" data-name="Path 44219" d="M25.032,14.949c0,20.053.348,18.454-1.321,19.469A22.251,22.251,0,0,1,1.391,12.168a5.688,5.688,0,0,1,.487-2.281l.9-.5H19.469A5.563,5.563,0,0,1,25.032,14.949Z" transform="translate(2.781 26.771)" fill="#f26674"/>
        <path id="Path_44220" data-name="Path 44220" d="M37.2,14.949c0,17.842.264,17.7-.723,19.469a5.563,5.563,0,0,1-4.84,2.781H14.949a5.563,5.563,0,0,1-5.563-5.563V14.949a5.563,5.563,0,0,1,5.563-5.563H31.637A5.563,5.563,0,0,1,37.2,14.949Z" transform="translate(26.771 26.771)" fill="#84b749"/>
        <path id="Path_44221" data-name="Path 44221" d="M34.071,14.949c0,20.053.348,18.454-1.391,19.469A22.251,22.251,0,0,1,10.43,12.168a5.688,5.688,0,0,1,.487-2.281l.9-.5H28.508A5.563,5.563,0,0,1,34.071,14.949Z" transform="translate(29.9 26.771)" fill="#9dcc6b"/>
        <g id="Group_42028" data-name="Group 42028" transform="translate(5.563 5.563)">
          <path id="Path_44222" data-name="Path 44222" d="M17.036,7.3H12.864V3.129a1.391,1.391,0,0,0-1.391-1.391H8.692A1.391,1.391,0,0,0,7.3,3.129V7.3H3.129A1.391,1.391,0,0,0,1.738,8.692v2.781a1.391,1.391,0,0,0,1.391,1.391H7.3v4.172a1.391,1.391,0,0,0,1.391,1.391h2.781a1.391,1.391,0,0,0,1.391-1.391V12.864h4.172a1.391,1.391,0,0,0,1.391-1.391V8.692A1.391,1.391,0,0,0,17.036,7.3Z" transform="translate(-1.738 -1.738)" fill="#edebf2"/>
          <path id="Path_44223" data-name="Path 44223" d="M16.249,21.283l-3.018-2.948,3.018-2.948a1.391,1.391,0,0,0,0-1.975l-1.961-1.961a1.391,1.391,0,0,0-1.975,0L9.3,14.4,6.347,11.451a1.391,1.391,0,0,0-1.975,0L2.412,13.412a1.391,1.391,0,0,0,0,1.975L5.36,18.335,2.412,21.283a1.391,1.391,0,0,0,0,1.975l1.961,2.03a1.391,1.391,0,0,0,1.975,0L9.3,22.27l2.948,3.018a1.391,1.391,0,0,0,1.975,0l2.03-2.03a1.391,1.391,0,0,0,0-1.975Z" transform="translate(-0.952 26.167)" fill="#edebf2"/>
          <rect id="Rectangle_44390" data-name="Rectangle 44390" width="5.563" height="16.688" rx="0.348" transform="translate(52.845 5.563) rotate(90)" fill="#edebf2"/>
          <circle id="Ellipse_677" data-name="Ellipse 677" cx="2.781" cy="2.781" r="2.781" transform="translate(41.72 36.157)" fill="#edebf2"/>
          <circle id="Ellipse_678" data-name="Ellipse 678" cx="2.781" cy="2.781" r="2.781" transform="translate(41.72 47.283)" fill="#edebf2"/>
        </g>
      </g>
    </g>
  </g>
</svg>
