<svg width="56" height="56" viewBox="0 0 56 56" fill="none" xmlns="http://www.w3.org/2000/svg">
<path d="M28 56C43.464 56 56 43.464 56 28C56 12.536 43.464 0 28 0C12.536 0 0 12.536 0 28C0 43.464 12.536 56 28 56Z" fill="url(#paint0_linear_3781_54334)"/>
<path d="M29.4939 17.8224H29.0715V17.2254C33.6573 16.6254 35.2743 15.0554 35.3428 14.987L34.5883 14.226C34.1874 14.5589 33.7385 14.8295 33.2568 15.0284C31.9393 15.5934 30.5478 15.9668 29.1245 16.1374C29.1814 15.7909 29.2871 15.4543 29.4384 15.1374C30.497 15.1506 31.5474 14.951 32.5273 14.5505L32.0509 13.591C31.4808 13.8196 30.8793 13.9603 30.2669 14.008C30.9595 13.3598 31.8728 12.9995 32.8213 13H34.8378C35.0789 12.9988 35.3162 13.0602 35.5266 13.1782C35.7369 13.2961 35.913 13.4666 36.0377 13.673V15.9229C34.0823 17.1653 31.8132 17.8244 29.4964 17.8229L29.4939 17.8224ZM26.3926 40.8571V39.2501C26.3926 39.1081 26.449 38.9719 26.5494 38.8715C26.6498 38.7711 26.786 38.7147 26.928 38.7147H27.4225L27.851 37.6432H24.7196L24.2911 38.7147H24.7856C24.9276 38.7147 25.0638 38.7711 25.1642 38.8715C25.2647 38.9719 25.3211 39.1081 25.3211 39.2501V40.8571H26.3926ZM13.0005 35.5003V25.8576C13.0008 25.5735 13.1137 25.3011 13.3146 25.1002C13.5155 24.8994 13.7879 24.7864 14.072 24.7861H29.0715C29.3555 24.7865 29.6277 24.8996 29.8285 25.1004C30.0293 25.3013 30.1422 25.5736 30.1424 25.8576V35.5003C30.1422 35.7844 30.0292 36.0567 29.8283 36.2576C29.6274 36.4585 29.3551 36.5715 29.071 36.5717H23.1527L23.7026 34.0053C23.7194 33.9272 23.7185 33.8463 23.7 33.7686C23.6814 33.6908 23.6457 33.6183 23.5955 33.5561C23.5452 33.494 23.4817 33.4439 23.4096 33.4095C23.3375 33.3751 23.2586 33.3573 23.1787 33.3573H19.4288C19.3239 33.3573 19.2214 33.388 19.1338 33.4457C19.0463 33.5034 18.9776 33.5855 18.9363 33.6818L17.6978 36.5712H14.072C13.788 36.571 13.5157 36.4581 13.3148 36.2573C13.1139 36.0565 13.0009 35.7843 13.0005 35.5003ZM26.9285 27.4645H29.0715V26.3931H26.9285V27.4645ZM23.7141 27.4645H25.8571V26.3931H23.7141V27.4645ZM20.4997 27.4645H22.6427V26.3931H20.5002L20.4997 27.4645ZM17.2854 27.4645H19.4283V26.3931H17.2859L17.2854 27.4645ZM14.071 27.4645H16.2139V26.3931H14.072L14.071 27.4645ZM29.0735 21.9647C29.0735 21.9232 29.0705 21.8817 29.0705 21.8397V20.1078C28.9893 20.1544 28.9145 20.2114 28.848 20.2773C28.7317 20.3936 28.6437 20.5352 28.591 20.691C28.5383 20.8468 28.5222 21.0127 28.544 21.1757C28.5658 21.3388 28.625 21.4946 28.7168 21.6311C28.8086 21.7676 28.9307 21.8811 29.0735 21.9627V21.9647ZM37.1067 14.126V16.2154C37.1061 16.7271 37.2669 17.226 37.566 17.6411C37.8652 18.0562 38.2876 18.3665 38.7731 18.5278L39.2491 18.6863V16.7509C39.2483 16.1337 39.0348 15.5357 38.6446 15.0575C38.2543 14.5794 37.7112 14.2504 37.1067 14.126ZM40.3211 21.8402C40.3211 21.8822 40.3211 21.9237 40.3181 21.9652C40.4004 21.9182 40.4762 21.8605 40.5436 21.7937C40.6596 21.6776 40.7474 21.5364 40.8001 21.3809C40.8529 21.2254 40.8691 21.0599 40.8476 20.8971C40.8261 20.7344 40.7674 20.5787 40.6761 20.4423C40.5848 20.3059 40.4633 20.1923 40.3211 20.1103V21.8402ZM30.1429 21.8402V18.8773C32.2581 18.7765 34.3181 18.1697 36.1502 17.1079C36.298 17.6721 36.5843 18.1905 36.9831 18.616C37.3819 19.0416 37.8807 19.3608 38.4342 19.5448L39.2491 19.8163V21.8407C39.2491 23.0483 38.7694 24.2065 37.9155 25.0604C37.0616 25.9143 35.9034 26.3941 34.6958 26.3941C33.4882 26.3941 32.33 25.9143 31.4761 25.0604C30.6222 24.2065 30.1424 23.0483 30.1424 21.8407L30.1429 21.8402ZM35.4997 20.5008C35.4997 20.7127 35.5626 20.9198 35.6803 21.096C35.7981 21.2722 35.9654 21.4096 36.1612 21.4907C36.357 21.5718 36.5724 21.593 36.7802 21.5516C36.9881 21.5103 37.179 21.4083 37.3289 21.2584C37.4787 21.1086 37.5807 20.9176 37.6221 20.7098C37.6634 20.502 37.6422 20.2865 37.5611 20.0907C37.48 19.895 37.3427 19.7276 37.1665 19.6099C36.9903 19.4921 36.7831 19.4293 36.5712 19.4293C36.287 19.4293 36.0145 19.5422 35.8136 19.7431C35.6126 19.9441 35.4997 20.2166 35.4997 20.5008ZM33.1133 22.2552L32.5288 23.1552C33.0943 23.5229 33.7543 23.7186 34.4288 23.7186C35.1033 23.7186 35.7633 23.5229 36.3287 23.1552L35.7442 22.2552C35.3529 22.5097 34.8961 22.6451 34.4293 22.6451C33.9625 22.6451 33.5057 22.5097 33.1143 22.2552H33.1133ZM31.2134 20.5008C31.2134 20.7127 31.2762 20.9198 31.394 21.096C31.5117 21.2722 31.679 21.4096 31.8748 21.4907C32.0706 21.5718 32.286 21.593 32.4939 21.5516C32.7017 21.5103 32.8926 21.4083 33.0425 21.2584C33.1923 21.1086 33.2944 20.9176 33.3357 20.7098C33.3771 20.502 33.3559 20.2865 33.2748 20.0907C33.1937 19.895 33.0563 19.7276 32.8801 19.6099C32.7039 19.4921 32.4968 19.4293 32.2849 19.4293C32.0007 19.4293 31.7282 19.5422 31.5272 19.7431C31.3263 19.9441 31.2134 20.2166 31.2134 20.5008ZM34.6953 27.465C34.2294 27.4652 33.7654 27.4074 33.3138 27.293C33.2628 27.5104 33.1673 27.7148 33.0332 27.8933C32.8991 28.0718 32.7294 28.2205 32.5348 28.33C32.7823 28.7094 33.1176 29.0234 33.5123 29.2456C33.907 29.4678 34.3495 29.5915 34.8022 29.6062C35.2549 29.6209 35.7045 29.5262 36.1128 29.3302C36.5211 29.1341 36.8761 28.8425 37.1477 28.48L37.3002 28.2765C37.2067 28.2156 37.1197 28.1453 37.0407 28.0665C36.7896 27.8161 36.6289 27.4893 36.5837 27.1375C35.978 27.3541 35.3395 27.4648 34.6963 27.4645L34.6953 27.465ZM19.7818 34.4288L17.0269 40.8571H21.1382L22.5157 34.4288H19.7818ZM29.071 37.6432H29.007L28.5785 38.7147H29.6069V37.5752C29.432 37.6202 29.2521 37.6429 29.0715 37.6427L29.071 37.6432ZM24.2496 39.7861H22.4637L22.2342 40.8571H24.2496V39.7861ZM42.999 41.9291H13V43.0005H42.999V41.9291ZM42.999 37.6437V33.8938H40.3211V37.6437C40.3211 37.7857 40.2647 37.9219 40.1642 38.0223C40.0638 38.1228 39.9276 38.1792 39.7856 38.1792H32.8213C32.3953 38.1797 31.9869 38.3492 31.6856 38.6504C31.3844 38.9517 31.2149 39.3601 31.2144 39.7861V40.8571H39.7851C40.6373 40.8562 41.4544 40.5172 42.057 39.9146C42.6596 39.312 42.9986 38.4949 42.9995 37.6427L42.999 37.6437ZM22.9227 37.6437L22.6932 38.7152H23.1372L23.5656 37.6437H22.9227ZM30.1424 39.7866H27.464V40.8571H30.1424V39.7866ZM30.6779 38.1812V36.9147C31.0233 36.5243 31.2137 36.021 31.2134 35.4998V28.536H31.4184C31.7157 29.1281 32.1594 29.6343 32.7073 30.0068C33.2552 30.3793 33.8892 30.6057 34.5492 30.6644C35.2091 30.7232 35.8731 30.6124 36.4782 30.3425C37.0833 30.0727 37.6094 29.6527 38.0067 29.1225L38.4467 28.536H40.3216C41.0317 28.5368 41.7125 28.8192 42.2146 29.3214C42.7168 29.8235 42.9992 30.5043 43 31.2144V32.8214H40.3211V31.2144H39.2496V37.1072H32.8213C32.4054 37.1073 31.9952 37.2042 31.6233 37.3905C31.2514 37.5768 30.9281 37.8471 30.6789 38.1802L30.6779 38.1812ZM32.0174 32.0314C32.8505 32.5123 33.7886 32.782 34.7499 32.8168C35.7112 32.8517 36.6664 32.6507 37.5322 32.2314L37.0652 31.2669C36.3568 31.61 35.5752 31.7744 34.7886 31.7458C34.0021 31.7172 33.2345 31.4965 32.5528 31.1029L32.0174 32.0314Z" fill="white"/>
<defs>
<linearGradient id="paint0_linear_3781_54334" x1="28" y1="0" x2="28" y2="56" gradientUnits="userSpaceOnUse">
<stop stop-color="#F09819"/>
<stop offset="1" stop-color="#FF512F"/>
</linearGradient>
</defs>
</svg>
