<svg width="56" height="56" viewBox="0 0 56 56" fill="none" xmlns="http://www.w3.org/2000/svg">
<path d="M28 56C43.464 56 56 43.464 56 28C56 12.536 43.464 0 28 0C12.536 0 0 12.536 0 28C0 43.464 12.536 56 28 56Z" fill="url(#paint0_linear_3781_54344)"/>
<path d="M27.3791 24.5374L23.3169 24.0452L20.6988 22.3048C21.2293 22.4461 21.7513 22.6174 22.2622 22.8181C22.155 22.4485 21.9312 22.1233 21.6243 21.8911C21.3173 21.6588 20.9436 21.5318 20.5587 21.5291L18.9146 21.5171C18.6785 21.5155 18.4444 21.5608 18.2258 21.6502C18.0072 21.7396 17.8086 21.8714 17.6412 22.038C17.4739 22.2046 17.3412 22.4027 17.2508 22.6209C17.1605 22.8391 17.1142 23.073 17.1148 23.3091L17.1297 29.3712C17.1309 29.7747 17.2687 30.166 17.5208 30.4812C17.7728 30.7964 18.1241 31.017 18.5175 31.107H16.2705L14.7475 23.3591C14.6989 23.1326 14.5632 22.9343 14.3697 22.8068C14.1762 22.6794 13.9404 22.633 13.7131 22.6777C13.4858 22.7224 13.2851 22.8546 13.1543 23.0458C13.0235 23.2371 12.973 23.472 13.0138 23.7001L14.6768 32.1621C14.7164 32.3631 14.8246 32.5441 14.9829 32.6742C15.1413 32.8042 15.3398 32.8752 15.5447 32.875H17.9513V35.9333L15.2236 37.4273C15.1558 37.4645 15.0959 37.5146 15.0474 37.5749C14.999 37.6352 14.9629 37.7044 14.9412 37.7787C14.9195 37.8529 14.9126 37.9307 14.921 38.0076C14.9293 38.0845 14.9527 38.159 14.9899 38.2268C15.027 38.2947 15.0772 38.3545 15.1375 38.403C15.1978 38.4514 15.267 38.4876 15.3412 38.5093C15.4155 38.531 15.4933 38.5378 15.5702 38.5295C15.6471 38.5211 15.7216 38.4977 15.7894 38.4605L18.5406 36.9541L21.2919 38.4605C21.3597 38.4977 21.4342 38.5211 21.5111 38.5295C21.588 38.5378 21.6658 38.531 21.74 38.5093C21.8142 38.4876 21.8835 38.4514 21.9438 38.403C22.0041 38.3545 22.0542 38.2947 22.0914 38.2268C22.1285 38.159 22.1519 38.0845 22.1603 38.0076C22.1686 37.9307 22.1618 37.8529 22.1401 37.7787C22.1184 37.7044 22.0823 37.6352 22.0338 37.5749C21.9853 37.5146 21.9255 37.4645 21.8576 37.4273L19.13 35.9333V32.875H21.7295C21.9165 32.8751 22.0986 32.8159 22.2498 32.7059C22.4009 32.5958 22.5132 32.4406 22.5705 32.2626C22.6277 32.0847 22.627 31.8931 22.5684 31.7156C22.5099 31.538 22.3964 31.3837 22.2445 31.2748L23.0665 31.4665V37.274C23.0665 37.4422 23.0996 37.6088 23.164 37.7643C23.2284 37.9197 23.3228 38.061 23.4417 38.1799C23.5607 38.2989 23.7019 38.3933 23.8574 38.4576C24.0128 38.522 24.1794 38.5552 24.3477 38.5552C24.5159 38.5552 24.6825 38.522 24.838 38.4576C24.9934 38.3933 25.1346 38.2989 25.2536 38.1799C25.3726 38.061 25.4669 37.9197 25.5313 37.7643C25.5957 37.6088 25.6289 37.4422 25.6289 37.274V30.4498C25.6287 30.1605 25.5305 29.8797 25.3504 29.6532C25.1703 29.4267 24.9189 29.2679 24.637 29.2026L22.2478 28.6455L22.278 26.8063L19.833 24.2936L22.3449 25.9632C22.4836 26.0555 22.642 26.1139 22.8074 26.1339L27.1212 26.6567C27.2604 26.6736 27.4014 26.6629 27.5364 26.6252C27.6714 26.5875 27.7977 26.5236 27.908 26.4372C28.0183 26.3507 28.1104 26.2434 28.1792 26.1213C28.2481 25.9992 28.2921 25.8647 28.309 25.7256C28.3259 25.5865 28.3151 25.4454 28.2775 25.3104C28.2398 25.1754 28.1759 25.0492 28.0894 24.9389C28.003 24.8286 27.8956 24.7364 27.7735 24.6676C27.6515 24.5988 27.517 24.5547 27.3779 24.5378L27.3791 24.5374Z" fill="white"/>
<path d="M21.1244 20.7114C22.4254 20.7114 23.4801 19.6567 23.4801 18.3557C23.4801 17.0547 22.4254 16 21.1244 16C19.8234 16 18.7687 17.0547 18.7687 18.3557C18.7687 19.6567 19.8234 20.7114 21.1244 20.7114Z" fill="white"/>
<path d="M42.1958 27.3031H26.4199C26.2062 27.3031 26.0012 27.388 25.8501 27.5391C25.6989 27.6903 25.614 27.8953 25.614 28.109C25.614 28.3227 25.6989 28.5277 25.8501 28.6789C26.0012 28.83 26.2062 28.9149 26.4199 28.9149H26.8113V37.674C26.8113 37.9081 26.9043 38.1325 27.0697 38.298C27.2352 38.4634 27.4596 38.5564 27.6937 38.5564H27.697C27.931 38.5564 28.1554 38.4634 28.3209 38.298C28.4864 38.1325 28.5793 37.9081 28.5793 37.674V28.9128H40.0868V37.672C40.0868 37.906 40.1798 38.1304 40.3452 38.2959C40.5107 38.4614 40.7351 38.5543 40.9692 38.5543H40.9725C41.2065 38.5543 41.4309 38.4614 41.5964 38.2959C41.7619 38.1304 41.8548 37.906 41.8548 37.672V28.9128H42.1941C42.4079 28.9128 42.6129 28.8279 42.764 28.6768C42.9151 28.5257 43 28.3207 43 28.1069C43 27.8932 42.9151 27.6882 42.764 27.5371C42.6129 27.3859 42.4079 27.301 42.1941 27.301L42.1958 27.3031Z" fill="white"/>
<path d="M36.7032 25.3472H35.5026V21.242L36.5135 18.7681C36.5725 18.6235 36.5717 18.4613 36.5113 18.3173C36.4508 18.1732 36.3355 18.0591 36.1909 18C36.0463 17.941 35.8841 17.9418 35.74 18.0022C35.596 18.0627 35.4819 18.178 35.4228 18.3226L33.1022 24.002C33.0431 24.1466 33.0439 24.3088 33.1044 24.4528C33.1649 24.5969 33.2801 24.711 33.4248 24.77C33.5694 24.8291 33.7316 24.8283 33.8756 24.7678C34.0197 24.7073 34.1338 24.5921 34.1929 24.4475L34.3247 24.1247V25.9361C34.3247 26.0135 34.3399 26.09 34.3695 26.1615C34.3991 26.2329 34.4425 26.2979 34.4972 26.3526C34.5519 26.4072 34.6168 26.4506 34.6883 26.4802C34.7597 26.5098 34.8363 26.5251 34.9136 26.5251H36.7032C36.8593 26.5251 37.0091 26.463 37.1196 26.3526C37.23 26.2421 37.2921 26.0923 37.2921 25.9361C37.2921 25.7799 37.23 25.6301 37.1196 25.5197C37.0091 25.4092 36.8593 25.3472 36.7032 25.3472Z" fill="white"/>
<path d="M32.0411 25.4167H29.7754C29.6193 25.4167 29.4695 25.4788 29.359 25.5892C29.2486 25.6997 29.1865 25.8495 29.1865 26.0057C29.1865 26.1619 29.2486 26.3117 29.359 26.4221C29.4695 26.5326 29.6193 26.5946 29.7754 26.5946H32.0411C32.1973 26.5946 32.3471 26.5326 32.4575 26.4221C32.568 26.3117 32.63 26.1619 32.63 26.0057C32.63 25.8495 32.568 25.6997 32.4575 25.5892C32.3471 25.4788 32.1973 25.4167 32.0411 25.4167Z" fill="white"/>
<defs>
<linearGradient id="paint0_linear_3781_54344" x1="28" y1="0" x2="28" y2="56" gradientUnits="userSpaceOnUse">
<stop stop-color="#F09819"/>
<stop offset="1" stop-color="#FF512F"/>
</linearGradient>
</defs>
</svg>
