<svg width="56" height="56" viewBox="0 0 56 56" fill="none" xmlns="http://www.w3.org/2000/svg">
<path d="M28 56C43.464 56 56 43.464 56 28C56 12.536 43.464 0 28 0C12.536 0 0 12.536 0 28C0 43.464 12.536 56 28 56Z" fill="url(#paint0_linear_3781_54339)"/>
<path d="M28.4984 13.0035C28.101 13.0047 27.7202 13.1631 27.4392 13.4441C27.1582 13.7251 26.9998 14.1059 26.9986 14.5033V22.5025C27 22.9001 27.1584 23.2812 27.4393 23.5626C27.7202 23.844 28.1008 24.0032 28.4984 24.0054H28.9984V26.5052C28.9979 26.6012 29.025 26.6953 29.0766 26.7763C29.1281 26.8573 29.2019 26.9218 29.2891 26.962C29.3764 27.0022 29.4733 27.0164 29.5684 27.0029C29.6635 26.9895 29.7527 26.9489 29.8253 26.8861L33.1835 24.0074H41.4972C41.8953 24.004 42.2761 23.8437 42.5569 23.5613C42.8377 23.2789 42.9958 22.8973 42.997 22.4991V14.4999C42.9948 14.1022 42.8356 13.7216 42.5542 13.4407C42.2727 13.1598 41.8918 13.0014 41.4942 13L28.4984 13.0035ZM14.4999 13.9994C14.1022 14.0016 13.7216 14.1608 13.4407 14.4422C13.1598 14.7237 13.0014 15.1046 13 15.5023V31.5007C13.0012 31.8981 13.1596 32.2789 13.4406 32.5599C13.7216 32.8409 14.1024 32.9993 14.4999 33.0005H39.4973C39.8945 32.9984 40.2748 32.8397 40.5556 32.5589C40.8364 32.2781 40.9951 31.8978 40.9972 31.5007V25.0013H38.9974V30.5008C38.9974 30.6333 38.9447 30.7605 38.851 30.8543C38.7572 30.9481 38.63 31.0007 38.4974 31.0007H15.4997C15.4338 31.0011 15.3685 30.9885 15.3075 30.9635C15.2465 30.9386 15.191 30.9018 15.1443 30.8553C15.0975 30.8089 15.0605 30.7536 15.0351 30.6928C15.0098 30.6319 14.9968 30.5667 14.9968 30.5008V16.5022C14.9968 16.4362 15.0098 16.371 15.0351 16.3102C15.0605 16.2493 15.0975 16.194 15.1443 16.1476C15.191 16.1011 15.2465 16.0643 15.3075 16.0394C15.3685 16.0144 15.4338 16.0018 15.4997 16.0022H25.9987V14.5024C26.0007 14.3315 26.0325 14.1623 26.0927 14.0024L14.4999 13.9994ZM33.0165 15.5023C33.1036 15.5041 33.1886 15.5295 33.2625 15.5757L37.2621 18.0785C37.3344 18.1233 37.3941 18.1859 37.4355 18.2603C37.4769 18.3346 37.4987 18.4184 37.4987 18.5035C37.4987 18.5886 37.4769 18.6723 37.4355 18.7466C37.3941 18.821 37.3344 18.8836 37.2621 18.9284L33.2625 21.4282C33.1868 21.4751 33.0999 21.501 33.0108 21.5031C32.9217 21.5052 32.8337 21.4834 32.7558 21.4401C32.678 21.3967 32.6131 21.3334 32.568 21.2566C32.5228 21.1798 32.499 21.0923 32.499 21.0032V16.0037C32.4974 15.936 32.5097 15.8687 32.5353 15.8061C32.5609 15.7434 32.5993 15.6867 32.6479 15.6396C32.6965 15.5925 32.7544 15.5559 32.8178 15.5323C32.8812 15.5086 32.9489 15.4984 33.0165 15.5023ZM21.9991 18.002C21.204 18.0036 20.442 18.3201 19.8797 18.8823C19.3175 19.4446 19.001 20.2066 18.9994 21.0017V22.5016C18.999 22.5675 19.0116 22.6328 19.0366 22.6938C19.0615 22.7548 19.0983 22.8102 19.1448 22.857C19.1912 22.9037 19.2465 22.9409 19.3073 22.9662C19.3682 22.9915 19.4334 23.0045 19.4994 23.0045V23.5044C19.4998 23.9253 19.5892 24.3414 19.7615 24.7253C19.9338 25.1093 20.1852 25.4526 20.4992 25.7327V27.0071H19.9993C19.2046 27.0071 18.4424 27.3225 17.88 27.8839C17.3175 28.4454 17.0009 29.2071 16.9996 30.0018H27.9985C27.9972 29.2071 27.6806 28.4454 27.1181 27.8839C26.5557 27.3225 25.7935 27.0071 24.9988 27.0071H24.4988V25.7337C24.8129 25.4534 25.0644 25.1099 25.2367 24.7258C25.409 24.3416 25.4983 23.9255 25.4987 23.5044V23.0045C25.5647 23.0045 25.6299 22.9915 25.6908 22.9662C25.7516 22.9409 25.8069 22.9037 25.8533 22.857C25.8998 22.8102 25.9366 22.7548 25.9615 22.6938C25.9865 22.6328 25.9991 22.5675 25.9987 22.5016V21.0017C25.9971 20.2066 25.6806 19.4446 25.1184 18.8823C24.5561 18.3201 23.7941 18.0036 22.999 18.002H21.9991ZM23.9259 22.1366L24.4988 22.7055V23.5005C24.5093 23.7694 24.4653 24.0377 24.3696 24.2892C24.2738 24.5408 24.1283 24.7704 23.9417 24.9643C23.7552 25.1583 23.5313 25.3126 23.2837 25.4179C23.0361 25.5233 22.7697 25.5777 22.5006 25.5777C22.2314 25.5777 21.965 25.5233 21.7174 25.4179C21.4698 25.3126 21.2459 25.1583 21.0594 24.9643C20.8728 24.7704 20.7273 24.5408 20.6315 24.2892C20.5358 24.0377 20.4918 23.7694 20.5022 23.5005V23.0005H21.0022C22.0337 22.9527 23.0382 22.6552 23.9294 22.1336L23.9259 22.1366ZM21.4992 26.3247C22.1453 26.5583 22.8528 26.5583 23.499 26.3247V27.4096C23.4236 27.6066 23.2837 27.7722 23.1021 27.8795C22.9205 27.9868 22.708 28.0295 22.4991 28.0005C22.2901 28.0295 22.0776 27.9868 21.896 27.8795C21.7144 27.7722 21.5745 27.6066 21.4992 27.4096V26.3247ZM17.5045 33.9989C16.8417 34.0001 16.2062 34.2638 15.7372 34.7322C15.2682 35.2007 15.0038 35.8357 15.0018 36.4986V36.9986C15.0041 37.2048 15.0323 37.4099 15.0858 37.6091C15.386 37.5362 15.6938 37.4987 16.0027 37.4976H19.0024C19.3111 37.4979 19.6186 37.5354 19.9183 37.6091C19.9717 37.4099 19.9999 37.2048 20.0023 36.9986V36.4986C20.0015 35.8359 19.7379 35.2006 19.2693 34.732C18.8006 34.2633 18.1653 33.9997 17.5025 33.9989H17.5045ZM27.9965 33.9989C27.3341 34.0006 26.6992 34.2645 26.2308 34.7329C25.7624 35.2014 25.4985 35.8362 25.4967 36.4986V36.9986C25.4993 37.2052 25.5278 37.4106 25.5817 37.61C25.8824 37.5359 26.191 37.4983 26.5006 37.498H29.5004C29.8076 37.4983 30.1138 37.5355 30.4123 37.6086C30.4656 37.4097 30.4938 37.205 30.4962 36.9991V36.4992C30.4952 35.8365 30.2315 35.2013 29.7629 34.7328C29.2944 34.2642 28.6592 34.0005 27.9965 33.9994V33.9989ZM38.4954 33.9989C37.8328 33.9999 37.1976 34.2637 36.729 34.7323C36.2605 35.2008 35.9968 35.836 35.9957 36.4986V36.9986C35.9981 37.2048 36.0263 37.4099 36.0797 37.6091C36.3807 37.535 36.6896 37.4975 36.9996 37.4976H39.9993C40.3065 37.4988 40.6126 37.5359 40.9112 37.6081C40.9646 37.4092 40.9928 37.2044 40.9952 36.9986V36.4986C40.9935 35.8362 40.7296 35.2014 40.2611 34.7329C39.7927 34.2645 39.1579 34.0006 38.4954 33.9989ZM16.0017 38.4984C15.2066 38.4999 14.4444 38.8164 13.8822 39.3786C13.32 39.9409 13.0035 40.703 13.002 41.4981V42.498C13.002 42.6306 13.0547 42.7578 13.1484 42.8516C13.2422 42.9453 13.3694 42.998 13.5019 42.998H21.4992C21.6317 42.998 21.7589 42.9453 21.8527 42.8516C21.9464 42.7578 21.9991 42.6306 21.9991 42.498V41.4981C21.9976 40.703 21.6811 39.9409 21.1189 39.3786C20.5567 38.8164 19.7945 38.4999 18.9994 38.4984H16.0017ZM26.4976 38.4984C25.7025 38.4999 24.9404 38.8164 24.3781 39.3786C23.8159 39.9409 23.4994 40.703 23.4979 41.4981V42.498C23.4979 42.6306 23.5506 42.7578 23.6444 42.8516C23.7381 42.9453 23.8653 42.998 23.9979 42.998H31.9981C32.1307 42.998 32.2579 42.9453 32.3516 42.8516C32.4454 42.7578 32.498 42.6306 32.498 42.498V41.4981C32.4969 40.7029 32.1804 39.9406 31.6181 39.3783C31.0558 38.816 30.2936 38.4996 29.4984 38.4984H26.4976ZM37.0006 38.4984C36.2055 38.4999 35.4433 38.8164 34.8811 39.3786C34.3189 39.9409 34.0024 40.703 34.0009 41.4981V42.498C34.0009 42.6306 34.0536 42.7578 34.1473 42.8516C34.2411 42.9453 34.3683 42.998 34.5008 42.998H42.5C42.6326 42.998 42.7598 42.9453 42.8536 42.8516C42.9473 42.7578 43 42.6306 43 42.498V41.4981C43 40.7031 42.6844 39.9406 42.1225 39.3781C41.5606 38.8156 40.7983 38.4992 40.0033 38.4984H37.0006Z" fill="white"/>
<defs>
<linearGradient id="paint0_linear_3781_54339" x1="28" y1="0" x2="28" y2="56" gradientUnits="userSpaceOnUse">
<stop stop-color="#F09819"/>
<stop offset="1" stop-color="#FF512F"/>
</linearGradient>
</defs>
</svg>
