<svg id="Icon" xmlns="http://www.w3.org/2000/svg" xmlns:xlink="http://www.w3.org/1999/xlink" width="24" height="24" viewBox="0 0 24 24">
  <defs>
    <clipPath id="clip-path">
      <rect id="Rectangle_44426" data-name="Rectangle 44426" width="20" height="20" transform="translate(0.447)" fill="#fff" stroke="#707070" stroke-width="1"/>
    </clipPath>
  </defs>
  <rect id="background" width="24" height="24" fill="none"/>
  <g id="Mask_Group_368" data-name="Mask Group 368" transform="translate(1.553 2)" clip-path="url(#clip-path)">
    <g id="skyscrapper" transform="translate(0.511 0)">
      <path id="Path_44191" data-name="Path 44191" d="M12.915,5.316V8.2a.287.287,0,0,0,.573,0V5.316A.287.287,0,0,0,12.915,5.316Zm0,0" transform="translate(2.881 1.124)"/>
      <path id="Path_44192" data-name="Path 44192" d="M14.12,8.489a.287.287,0,0,0,.287-.287V5.316a.287.287,0,0,0-.573,0V8.2A.287.287,0,0,0,14.12,8.489Zm0,0" transform="translate(3.086 1.124)"/>
      <path id="Path_44193" data-name="Path 44193" d="M8.237,2.781a.287.287,0,0,0-.287.287v8.905a.287.287,0,1,0,.573,0V3.068A.287.287,0,0,0,8.237,2.781Zm0,0" transform="translate(1.773 0.62)"/>
      <path id="Path_44194" data-name="Path 44194" d="M5.935,2.781a.287.287,0,0,0-.287.287v8.905a.287.287,0,1,0,.573,0V3.068A.287.287,0,0,0,5.935,2.781Zm0,0" transform="translate(1.26 0.62)"/>
      <path id="Path_44195" data-name="Path 44195" d="M7.119,2.781a.287.287,0,0,0-.287.287v8.905a.287.287,0,1,0,.573,0V3.068A.287.287,0,0,0,7.119,2.781Zm0,0" transform="translate(1.524 0.62)"/>
      <path id="Path_44196" data-name="Path 44196" d="M1.4,12.88H4.906a.287.287,0,0,0,0-.573H1.4a.287.287,0,0,0,0,.573Zm0,0" transform="translate(0.25 2.745)"/>
      <path id="Path_44197" data-name="Path 44197" d="M1.4,13.874H4.906a.287.287,0,0,0,0-.573H1.4a.287.287,0,0,0,0,.573Zm0,0" transform="translate(0.25 2.967)"/>
      <path id="Path_44198" data-name="Path 44198" d="M1.4,14.868H4.906a.287.287,0,0,0,0-.573H1.4a.287.287,0,0,0,0,.573Zm0,0" transform="translate(0.25 3.189)"/>
      <path id="Path_44199" data-name="Path 44199" d="M1.889,4.754a.287.287,0,0,0,0,.573A.287.287,0,0,0,1.889,4.754Zm0,0" transform="translate(0.36 1.06)"/>
      <path id="Path_44200" data-name="Path 44200" d="M2.832,4.754a.287.287,0,0,0,0,.573A.287.287,0,0,0,2.832,4.754Zm0,0" transform="translate(0.57 1.06)"/>
      <path id="Path_44201" data-name="Path 44201" d="M3.775,4.754a.287.287,0,0,0,0,.573A.287.287,0,0,0,3.775,4.754Zm0,0" transform="translate(0.78 1.06)"/>
      <path id="Path_44202" data-name="Path 44202" d="M1.889,5.8a.287.287,0,0,0,0,.573A.287.287,0,0,0,1.889,5.8Zm0,0" transform="translate(0.36 1.293)"/>
      <path id="Path_44203" data-name="Path 44203" d="M2.832,5.8a.287.287,0,0,0,0,.573A.287.287,0,0,0,2.832,5.8Zm0,0" transform="translate(0.57 1.293)"/>
      <path id="Path_44204" data-name="Path 44204" d="M3.775,5.8a.287.287,0,0,0,0,.573A.287.287,0,0,0,3.775,5.8Zm0,0" transform="translate(0.78 1.293)"/>
      <path id="Path_44205" data-name="Path 44205" d="M1.889,6.84a.287.287,0,0,0,0,.573A.287.287,0,0,0,1.889,6.84Zm0,0" transform="translate(0.36 1.526)"/>
      <path id="Path_44206" data-name="Path 44206" d="M2.832,6.84a.287.287,0,0,0,0,.573A.287.287,0,0,0,2.832,6.84Zm0,0" transform="translate(0.57 1.526)"/>
      <path id="Path_44207" data-name="Path 44207" d="M3.775,6.84a.287.287,0,0,0,0,.573A.287.287,0,0,0,3.775,6.84Zm0,0" transform="translate(0.78 1.526)"/>
      <path id="Path_44208" data-name="Path 44208" d="M1.889,7.884a.287.287,0,0,0,0,.573A.287.287,0,0,0,1.889,7.884Zm0,0" transform="translate(0.36 1.759)"/>
      <path id="Path_44209" data-name="Path 44209" d="M2.832,7.884a.287.287,0,0,0,0,.573A.287.287,0,0,0,2.832,7.884Zm0,0" transform="translate(0.57 1.759)"/>
      <path id="Path_44210" data-name="Path 44210" d="M3.775,7.884a.287.287,0,0,0,0,.573A.287.287,0,0,0,3.775,7.884Zm0,0" transform="translate(0.78 1.759)"/>
      <path id="Path_44211" data-name="Path 44211" d="M1.889,8.927a.287.287,0,0,0,0,.573A.287.287,0,0,0,1.889,8.927Zm0,0" transform="translate(0.36 1.991)"/>
      <path id="Path_44212" data-name="Path 44212" d="M2.832,8.927a.287.287,0,0,0,0,.573A.287.287,0,0,0,2.832,8.927Zm0,0" transform="translate(0.57 1.991)"/>
      <path id="Path_44213" data-name="Path 44213" d="M3.775,8.927a.287.287,0,0,0,0,.573A.287.287,0,0,0,3.775,8.927Zm0,0" transform="translate(0.78 1.991)"/>
      <path id="Path_44214" data-name="Path 44214" d="M1.889,9.971a.287.287,0,0,0,0,.573A.287.287,0,0,0,1.889,9.971Zm0,0" transform="translate(0.36 2.224)"/>
      <path id="Path_44215" data-name="Path 44215" d="M2.832,9.971a.287.287,0,0,0,0,.573A.287.287,0,0,0,2.832,9.971Zm0,0" transform="translate(0.57 2.224)"/>
      <path id="Path_44216" data-name="Path 44216" d="M3.775,9.971a.287.287,0,0,0,0,.573A.287.287,0,0,0,3.775,9.971Zm0,0" transform="translate(0.78 2.224)"/>
      <path id="Path_44217" data-name="Path 44217" d="M11.734,10.481a.287.287,0,0,0,.287-.287V9.4a.287.287,0,0,0-.573,0v.8A.287.287,0,0,0,11.734,10.481Zm0,0" transform="translate(2.554 2.034)"/>
      <path id="Path_44218" data-name="Path 44218" d="M10.567,12.353a.287.287,0,0,0,.287-.287V9.412a.287.287,0,1,0-.573,0v2.654A.287.287,0,0,0,10.567,12.353Zm0,0" transform="translate(2.293 2.035)"/>
      <path id="Path_44219" data-name="Path 44219" d="M11.734,13.83a.287.287,0,0,0,.287-.287V10.927a.287.287,0,0,0-.573,0v2.616A.287.287,0,0,0,11.734,13.83Zm0,0" transform="translate(2.554 2.376)"/>
      <path id="Path_44220" data-name="Path 44220" d="M10.567,13.544a.287.287,0,0,0,.287-.287v-.8a.287.287,0,0,0-.573,0v.8A.287.287,0,0,0,10.567,13.544Zm0,0" transform="translate(2.293 2.717)"/>
      <path id="Path_44221" data-name="Path 44221" d="M10.567,15.075a.287.287,0,0,0,.287-.287v-.8a.287.287,0,0,0-.573,0v.8A.287.287,0,0,0,10.567,15.075Zm0,0" transform="translate(2.293 3.059)"/>
      <path id="Path_44222" data-name="Path 44222" d="M11.734,15.075a.287.287,0,0,0,.287-.287v-.8a.287.287,0,0,0-.573,0v.8A.287.287,0,0,0,11.734,15.075Zm0,0" transform="translate(2.554 3.059)"/>
      <path id="Path_44223" data-name="Path 44223" d="M19.514,4.854l-.42-1.185a.287.287,0,0,0-.27-.191h-.538l-1.314-2.21a.287.287,0,0,0-.246-.14h-.356V.287a.287.287,0,0,0-.573,0v.841h-.519a.287.287,0,0,0-.254.154l-1.151,2.2h-.531a.287.287,0,0,0-.27.191l-.42,1.185a.292.292,0,0,0,.27.383h.437v2.65L11.684,6.479V2.159a.287.287,0,0,0-.287-.287h-.754V.287A.287.287,0,0,0,10.357,0H6.849a.287.287,0,0,0-.287.287V1.873H5.809a.287.287,0,0,0-.287.287V4.34H4.949V1.512a.291.291,0,0,0-.415-.256L2.014,2.516a.287.287,0,0,0-.158.256V4.34H1.02a.287.287,0,0,0-.287.287v8.952H.287A.287.287,0,0,0,0,13.865v2.647a.287.287,0,0,0,.573,0v-2.36H6.231V19H.573V17.887a.287.287,0,0,0-.573,0v1.4a.287.287,0,0,0,.287.287H16.416a.287.287,0,0,0,0-.573h-.378V10.272a.287.287,0,0,0-.1-.219l-.717-.6a.284.284,0,0,0,.028-.123V6.44a.287.287,0,0,0-.573,0V8.991l-.741-.623V5.255h4.3V19h-.365a.287.287,0,0,0,0,.573h.652a.287.287,0,0,0,.287-.287V5.236h.437a.292.292,0,0,0,.27-.383ZM7.135.573H10.07v1.3H7.135ZM2.429,2.95l1.947-.974V4.34H2.429ZM1.307,13.578V4.913H2.1a.292.292,0,0,0,.041,0h2.52a.292.292,0,0,0,.042,0H5.5v8.665ZM15.465,19H11.684V10.014a.287.287,0,1,0-.573,0V19H6.8V13.865a.287.287,0,0,0-.287-.287H6.1V2.446H11.11V8.561a.287.287,0,1,0,.573,0V7.228l3.781,3.178ZM15.451,1.7h1.112l1.056,1.777h-3.1ZM13.327,4.663l.217-.612h5.077l.217.612Zm0,0" transform="translate(0 0)"/>
      <path id="Path_44224" data-name="Path 44224" d="M14.126,8.641a.287.287,0,0,0,0,.573A.287.287,0,0,0,14.126,8.641Zm0,0" transform="translate(3.089 1.927)"/>
      <path id="Path_44225" data-name="Path 44225" d="M14.126,9.772a.287.287,0,0,0,0,.573A.287.287,0,0,0,14.126,9.772Zm0,0" transform="translate(3.089 2.18)"/>
      <path id="Path_44226" data-name="Path 44226" d="M14.126,10.9a.287.287,0,0,0,0,.573A.287.287,0,0,0,14.126,10.9Zm0,0" transform="translate(3.089 2.432)"/>
      <path id="Path_44227" data-name="Path 44227" d="M14.126,12.034a.287.287,0,0,0,0,.573A.287.287,0,0,0,14.126,12.034Zm0,0" transform="translate(3.089 2.685)"/>
      <path id="Path_44228" data-name="Path 44228" d="M14.126,13.166a.287.287,0,0,0,0,.573A.287.287,0,0,0,14.126,13.166Zm0,0" transform="translate(3.089 2.937)"/>
      <path id="Path_44229" data-name="Path 44229" d="M14.126,14.3a.287.287,0,0,0,0,.573A.287.287,0,0,0,14.126,14.3Zm0,0" transform="translate(3.089 3.189)"/>
    </g>
  </g>
</svg>
