<svg width="16" height="16" viewBox="0 0 16 16" fill="none" xmlns="http://www.w3.org/2000/svg">
<path fill-rule="evenodd" clip-rule="evenodd" d="M5.24395 6.06573L8.70928 6.7704C8.97195 6.82306 9.17662 7.02773 9.22995 7.2904L9.93395 10.7557L12.2793 3.7204L5.24395 6.06573ZM9.77795 13.9997C9.76395 13.9997 9.75062 13.9991 9.73728 13.9984C9.43595 13.9804 9.18462 13.7617 9.12395 13.4664L8.01128 7.9884L2.53395 6.87506C2.23795 6.81506 2.01928 6.56373 2.00128 6.2624C1.98262 5.96106 2.16928 5.68506 2.45528 5.58973L13.122 2.0344C13.3619 1.95306 13.6259 2.0164 13.8046 2.19506C13.9833 2.37373 14.0453 2.63773 13.966 2.87773L10.41 13.5444C10.3186 13.8177 10.0633 13.9997 9.77795 13.9997Z" fill="url(#paint0_linear_7347_62407)"/>
<defs>
<linearGradient id="paint0_linear_7347_62407" x1="-0.945434" y1="-4.8831" x2="20.5938" y2="-2.32698" gradientUnits="userSpaceOnUse">
<stop stop-color="#F09819"/>
<stop offset="1" stop-color="#FF512F"/>
</linearGradient>
</defs>
</svg>
