<svg id="Icon" xmlns="http://www.w3.org/2000/svg" xmlns:xlink="http://www.w3.org/1999/xlink" width="24" height="24" viewBox="0 0 24 24">
  <defs>
    <clipPath id="clip-path">
      <rect id="Rectangle_44427" data-name="Rectangle 44427" width="20" height="20" transform="translate(0.309)" fill="#fff" stroke="#707070" stroke-width="1"/>
    </clipPath>
  </defs>
  <rect id="background" width="24" height="24" fill="none"/>
  <g id="Mask_Group_369" data-name="Mask Group 369" transform="translate(1.691 2)" clip-path="url(#clip-path)">
    <g id="building" transform="translate(0.499 0.013)">
      <g id="Group_41956" data-name="Group 41956" transform="translate(0)">
        <path id="Path_44230" data-name="Path 44230" d="M10.188,5.22V2.751a.928.928,0,0,0-.5-.823L6.215.116a.927.927,0,0,0-.859,0L1.882,1.928a.929.929,0,0,0-.5.823v7.13a.309.309,0,1,0,.617,0V2.751a.311.311,0,0,1,.167-.276L5.641.663a.312.312,0,0,1,.288,0L9.4,2.475a.311.311,0,0,1,.167.276V5.22a.309.309,0,0,0,.617,0Z" transform="translate(0.309 -0.011)" fill-rule="evenodd"/>
        <path id="Path_44231" data-name="Path 44231" d="M2.928,4.137V7.1a.722.722,0,0,0,.722.722H6.275a.309.309,0,1,0,0-.617H3.65a.1.1,0,0,1-.1-.1V4.137a.309.309,0,0,0-.617,0Zm5.025,2.5V3.52A.722.722,0,0,0,7.232,2.8H3.856a.309.309,0,0,0,0,.617H7.232a.1.1,0,0,1,.1.1V6.641a.309.309,0,0,0,.617,0Z" transform="translate(0.653 0.611)" fill-rule="evenodd"/>
        <path id="Path_44232" data-name="Path 44232" d="M16.338,8.606V7.258a.928.928,0,0,0-.573-.858L11.226,4.521a.929.929,0,0,0-.71,0L5.977,6.4a.928.928,0,0,0-.573.858v11a.309.309,0,0,0,.617,0v-11a.312.312,0,0,1,.192-.288l4.539-1.879a.312.312,0,0,1,.238,0L15.529,6.97a.311.311,0,0,1,.192.288V8.606a.309.309,0,0,0,.617,0Z" transform="translate(1.205 0.98)" fill-rule="evenodd"/>
        <path id="Path_44233" data-name="Path 44233" d="M9.962,7.984a.722.722,0,0,0-.722-.722H7.889a.722.722,0,0,0-.722.722V9.52a.722.722,0,0,0,.722.722H9.241a.722.722,0,0,0,.722-.722Zm-.617,0V9.52a.1.1,0,0,1-.1.1H7.889a.1.1,0,0,1-.1-.1V7.984a.1.1,0,0,1,.1-.1H9.241A.1.1,0,0,1,9.345,7.984Z" transform="translate(1.599 1.607)" fill-rule="evenodd"/>
        <path id="Path_44234" data-name="Path 44234" d="M9.962,11.607a.722.722,0,0,0-.722-.722H7.889a.722.722,0,0,0-.722.722v1.536a.722.722,0,0,0,.722.722H9.241a.722.722,0,0,0,.722-.722Zm-.617,0v1.536a.1.1,0,0,1-.1.1H7.889a.1.1,0,0,1-.1-.1V11.607a.1.1,0,0,1,.1-.1H9.241A.1.1,0,0,1,9.345,11.607Z" transform="translate(1.599 2.415)" fill-rule="evenodd"/>
        <path id="Path_44235" data-name="Path 44235" d="M13.091,8.7V7.984a.722.722,0,0,0-.722-.722H11.017a.722.722,0,0,0-.722.722V9.52a.722.722,0,0,0,.722.722h1.352a.309.309,0,1,0,0-.617H11.017a.1.1,0,0,1-.1-.1V7.984a.1.1,0,0,1,.1-.1h1.352a.1.1,0,0,1,.1.1V8.7a.309.309,0,1,0,.617,0Z" transform="translate(2.297 1.607)" fill-rule="evenodd"/>
        <path id="Path_44236" data-name="Path 44236" d="M11.958,10.885h-.941a.721.721,0,0,0-.722.722v1.536a.722.722,0,0,0,.722.722h.941a.309.309,0,0,0,0-.617h-.941a.1.1,0,0,1-.1-.1V11.607a.1.1,0,0,1,.1-.1h.941a.309.309,0,0,0,0-.617Z" transform="translate(2.297 2.415)" fill-rule="evenodd"/>
        <path id="Path_44237" data-name="Path 44237" d="M4.73,3.107V7.514a.309.309,0,1,0,.617,0V3.107a.309.309,0,0,0-.617,0Z" transform="translate(1.055 0.611)" fill-rule="evenodd"/>
        <path id="Path_44238" data-name="Path 44238" d="M3.237,5.217H7.645a.309.309,0,0,0,0-.617H3.237a.309.309,0,1,0,0,.617Z" transform="translate(0.653 1.013)" fill-rule="evenodd"/>
        <path id="Path_44239" data-name="Path 44239" d="M.354,11.912h0A3.033,3.033,0,0,0,0,13.358,2.325,2.325,0,0,0,2,15.9a2.325,2.325,0,0,0,2-2.538,3.046,3.046,0,0,0-.353-1.445h0a1.487,1.487,0,0,1-.155-.887h0a2.4,2.4,0,0,0,.018-.293A1.741,1.741,0,0,0,2,8.838,1.74,1.74,0,0,0,.49,10.731a2.257,2.257,0,0,0,.019.294,1.491,1.491,0,0,1-.155.888Zm.542.3a2.117,2.117,0,0,0,.225-1.26,0,0,0,0,1,0,0,1.633,1.633,0,0,1-.014-.215,1.473,1.473,0,0,1,.4-1.056A.715.715,0,0,1,2,9.455a.715.715,0,0,1,.5.219,1.472,1.472,0,0,1,.4,1.056,1.76,1.76,0,0,1-.013.218,2.113,2.113,0,0,0,.225,1.259,2.423,2.423,0,0,1,.278,1.151c0,1.041-.593,1.921-1.383,1.921S.617,14.4.617,13.358A2.415,2.415,0,0,1,.9,12.208Z" transform="translate(0 1.958)" fill-rule="evenodd"/>
        <path id="Path_44240" data-name="Path 44240" d="M12.6,11.245a3.571,3.571,0,0,0-.416,1.7c0,1.664,1.072,2.978,2.334,2.978s2.334-1.314,2.334-2.978a3.584,3.584,0,0,0-.415-1.7h0a1.842,1.842,0,0,1-.192-1.1h0a2.809,2.809,0,0,0,.021-.343A2.023,2.023,0,0,0,14.517,7.6,2.023,2.023,0,0,0,12.77,9.8a2.663,2.663,0,0,0,.022.344,1.843,1.843,0,0,1-.192,1.1Zm.542.3a2.471,2.471,0,0,0,.262-1.472v0a2.033,2.033,0,0,1-.017-.265,1.824,1.824,0,0,1,.5-1.309.861.861,0,0,1,1.27,0,1.824,1.824,0,0,1,.5,1.309,2.2,2.2,0,0,1-.016.268,2.468,2.468,0,0,0,.262,1.47,2.966,2.966,0,0,1,.34,1.407c0,1.283-.743,2.361-1.717,2.361S12.8,14.229,12.8,12.946a2.952,2.952,0,0,1,.341-1.406Z" transform="translate(2.718 1.681)" fill-rule="evenodd"/>
        <path id="Path_44241" data-name="Path 44241" d="M1.383,11.538v5.134a.309.309,0,0,0,.617,0V11.538a.309.309,0,0,0-.617,0Z" transform="translate(0.309 2.492)" fill-rule="evenodd"/>
        <path id="Path_44242" data-name="Path 44242" d="M13.839,10.767v6.147a.309.309,0,1,0,.617,0V10.767a.309.309,0,0,0-.617,0Z" transform="translate(3.087 2.32)" fill-rule="evenodd"/>
        <path id="Path_44243" data-name="Path 44243" d="M.309,16.1H19.261a.309.309,0,0,0,0-.617H.309a.309.309,0,1,0,0,.617Z" transform="translate(0 3.441)" fill-rule="evenodd"/>
      </g>
    </g>
  </g>
</svg>
