<svg width="101" height="100" viewBox="0 0 101 100" fill="none" xmlns="http://www.w3.org/2000/svg">
<path d="M84.5919 43.9127V3.23572H31.4844V43.9127C31.4844 45.1481 32.4858 46.1497 33.7212 46.1497H82.3549C83.5903 46.1497 84.5919 45.1481 84.5919 43.9127Z" fill="#BED8FB"/>
<path d="M82.979 3.23572V43.9127C82.979 45.1481 81.9774 46.1497 80.7422 46.1497H93.8918C95.1272 46.1497 96.1286 45.1481 96.1286 43.9127V3.23572H82.979Z" fill="#9DC6FB"/>
<path d="M51.3909 31.3552H42.3744C41.337 31.3552 40.4961 30.5143 40.4961 29.477V16.9344C40.4961 15.897 41.337 15.0562 42.3744 15.0562H51.3909C52.4283 15.0562 53.2691 15.897 53.2691 16.9344V29.4768C53.269 30.5143 52.4281 31.3552 51.3909 31.3552Z" fill="white"/>
<path d="M35.0596 54.5194C35.044 54.485 35.0281 54.4508 35.0123 54.4166C33.8766 51.9692 33.3233 49.2917 33.3221 46.5935L33.3198 40.9321C33.3198 33.4517 28.7922 27.0317 22.3294 24.2549C15.2867 26.582 10.2041 33.2171 10.2041 41.04L10.2019 46.5542C10.2009 49.1822 9.66211 51.7901 8.55572 54.174C8.54028 54.2072 8.52483 54.2406 8.50958 54.2741C6.06805 59.6189 9.44686 65.8817 15.2682 66.6817C15.8332 66.7593 16.4101 66.7994 16.9965 66.7994H29.9658C34.7757 65.0531 37.2951 59.4132 35.0596 54.5194Z" fill="#89808C"/>
<path d="M47.2522 54.2744C47.2369 54.2409 47.2215 54.2075 47.206 54.1741C46.0998 51.7902 45.561 49.1825 45.5598 46.5545L45.5577 41.0403C45.5577 31.2787 37.6446 23.3652 27.8832 23.3652C25.5609 23.3652 23.3438 23.8139 21.3125 24.628C27.8199 27.2357 32.4163 33.601 32.4163 41.0403L32.4184 46.5545C32.4194 49.1825 32.9584 51.7902 34.0646 54.1741C34.0801 54.2075 34.0955 54.2407 34.1108 54.2744C36.5523 59.6192 33.1735 65.882 27.3522 66.682C26.7872 66.7596 26.2102 66.7997 25.6239 66.7997H38.7653C39.3516 66.7997 39.9286 66.7596 40.4936 66.682C46.3149 65.882 49.6939 59.6192 47.2522 54.2744Z" fill="#756E78"/>
<path d="M88.1155 3.9974V2.03858C88.1155 0.91264 87.2028 0 86.0769 0H29.5659C28.44 0 27.5273 0.912836 27.5273 2.03858V3.9974C27.5273 5.12334 28.44 6.03617 29.5659 6.03617H86.0769C87.2026 6.03598 88.1155 5.12334 88.1155 3.9974Z" fill="#88A8D8"/>
<path d="M98.0559 0H84.9062C86.0322 0 86.9448 0.912836 86.9448 2.03858V3.99739C86.9448 5.12334 86.0322 6.03617 84.9062 6.03617H98.0559C99.1818 6.03617 100.094 5.12334 100.094 3.99739V2.03878C100.094 0.912836 99.1818 0 98.0559 0Z" fill="#7296D1"/>
<path d="M87.5782 16.5652H61.3103C60.4765 16.5652 59.8008 15.8893 59.8008 15.0557C59.8008 14.222 60.4765 13.5461 61.3103 13.5461H87.5782C88.4121 13.5461 89.0878 14.222 89.0878 15.0557C89.0878 15.8893 88.4121 16.5652 87.5782 16.5652Z" fill="white"/>
<path d="M87.5782 24.7147H61.3103C60.4765 24.7147 59.8008 24.0389 59.8008 23.2052C59.8008 22.3716 60.4765 21.6957 61.3103 21.6957H87.5782C88.4121 21.6957 89.0878 22.3716 89.0878 23.2052C89.0878 24.0389 88.4121 24.7147 87.5782 24.7147Z" fill="white"/>
<path d="M87.582 13.5461H82.9766V16.5652H87.582C88.4158 16.5652 89.0915 15.8893 89.0915 15.0557C89.0915 14.222 88.4158 13.5461 87.582 13.5461Z" fill="#F7F4F7"/>
<path d="M87.582 21.6956H82.9766V24.7146H87.582C88.4158 24.7146 89.0915 24.0387 89.0915 23.2051C89.0915 22.3714 88.4158 21.6956 87.582 21.6956Z" fill="#F7F4F7"/>
<path d="M70.4482 32.8642H61.3103C60.4765 32.8642 59.8008 32.1883 59.8008 31.3546C59.8008 30.521 60.4765 29.8451 61.3103 29.8451H70.4482C71.2821 29.8451 71.9578 30.521 71.9578 31.3546C71.9578 32.1883 71.2821 32.8642 70.4482 32.8642Z" fill="white"/>
<path d="M30.7774 68.6073C30.7774 68.6073 30.4563 68.4689 30.4211 68.473C29.5879 68.5682 28.7409 68.6181 27.8822 68.6181C25.0137 68.6181 22.2737 68.0738 19.7557 67.087C19.1793 67.4532 18.5312 67.7207 17.8336 67.855L16.0054 68.2069C6.71459 69.9949 0 78.1251 0 87.5866V96.3482C0 98.3651 1.63505 100 3.65193 100H8.44818C8.47379 99.1755 9.15905 98.517 9.99486 98.5385C10.7855 98.5587 11.4021 99.2199 11.4592 100H39.2296C42.4726 100 45.1014 97.3711 45.1014 94.1282V87.5866C45.1014 78.7062 39.1858 70.999 30.7774 68.6073Z" fill="#CCF49F"/>
<path d="M61.9572 69.1817L57.3277 67.8732C56.5283 67.6472 55.6921 68.0884 55.4273 68.876L52.6929 77.0225C49.8577 72.5523 45.2579 69.266 39.7531 68.2067C39.3412 68.1273 38.6137 67.9874 37.9247 67.8548C37.2271 67.7205 36.579 67.4532 36.0028 67.087C33.6796 67.9975 31.1671 68.5305 28.5391 68.6073C36.9475 70.999 42.8631 78.7062 42.8631 87.5866V94.1282C42.8631 97.3711 40.2341 100 36.9913 100H49.8868H49.8874H53.3778C56.0154 100 58.2724 98.1066 58.7311 95.5093L63.0679 70.9519C63.2067 70.1644 62.7269 69.3993 61.9572 69.1817Z" fill="#B3E59F"/>
<path d="M34.7911 66.0299C34.0413 65.156 33.5698 64.049 33.5183 62.839C33.5148 62.7561 33.5131 62.673 33.5131 62.5898V55.0656H22.264V62.5896C22.264 62.6728 22.2623 62.7559 22.2587 62.8388C22.2073 64.0488 21.7358 65.1556 20.986 66.0296C20.4296 68.9094 20.3817 71.8655 20.854 74.76C23.0199 75.6619 25.3953 76.1617 27.8884 76.1617C30.3806 76.1617 32.7551 75.6623 34.9203 74.761C35.3937 71.8665 35.3477 68.9102 34.7911 66.0299Z" fill="#FFDDCE"/>
<path d="M21.9135 75.7938C23.8727 83.2445 26.553 87.2974 27.865 91.5892C29.1771 87.2974 31.8574 83.2443 33.8166 75.7938C33.9964 75.1097 34.1401 74.419 34.2535 73.7247C32.2865 74.5437 30.1292 74.9975 27.865 74.9975C25.6008 74.9975 23.4436 74.5437 21.4766 73.7247C21.59 74.419 21.7337 75.1097 21.9135 75.7938Z" fill="white"/>
<path d="M41.2921 42.3051H38.2761V48.062C38.2619 49.0085 38.1364 49.9276 37.918 50.8101H41.2921C43.6411 50.8101 45.5452 48.9055 45.5444 46.5562C45.5438 44.2081 43.6402 42.3051 41.2921 42.3051Z" fill="#FFDDCE"/>
<path d="M17.4384 48.0446V43.0838C17.4384 42.8183 17.4788 42.5631 17.5492 42.3213H14.4269C12.0925 42.3213 10.2 44.2132 10.1992 46.5476C10.1984 48.883 12.0916 50.7767 14.4269 50.7767H17.7944C17.5776 49.8994 17.4526 48.9856 17.4384 48.0446Z" fill="#FFDDCE"/>
<path d="M22.1836 63.4965L16.0326 66.5621C15.0195 67.0671 14.677 68.3449 15.3018 69.289L16.4211 70.9798C16.8938 71.694 16.8256 72.6373 16.2547 73.2759L15.5796 74.0311C15.1501 74.5115 14.9952 75.1774 15.1696 75.7977C16.6995 81.2456 27.8836 91.5901 27.8836 91.5901C26.5716 87.2982 23.8913 83.2451 21.9321 75.7946C20.8695 71.754 20.9728 67.495 22.1836 63.4965Z" fill="#95D6A4"/>
<path d="M33.5751 63.4965L39.726 66.5621C40.7392 67.0671 41.0817 68.3449 40.4568 69.289L39.3375 70.9798C38.8648 71.694 38.933 72.6373 39.5039 73.2759L40.179 74.0311C40.6086 74.5115 40.7634 75.1774 40.589 75.7977C39.0591 81.2456 27.875 91.5901 27.875 91.5901C29.1871 87.2982 31.8673 83.2451 33.8265 75.7946C34.8889 71.754 34.7857 67.495 33.5751 63.4965Z" fill="#95D6A4"/>
<path d="M62.1855 64.2386C62.0078 64.2386 61.8271 64.2071 61.6513 64.1405C60.8716 63.8452 60.4789 62.9739 60.7739 62.1942L70.8792 35.5014C71.1744 34.7217 72.0462 34.3291 72.8255 34.6241C73.6052 34.9194 73.998 35.7907 73.7028 36.5704L63.5974 63.2632C63.3689 63.8667 62.7949 64.2386 62.1855 64.2386Z" fill="#C1A0A0"/>
<path d="M11.4683 99.9997V91.999C11.4683 91.1687 10.8286 90.4412 9.99844 90.4201C9.1466 90.3982 8.44922 91.0823 8.44922 91.9292V99.9999L11.4683 99.9997Z" fill="#B3E59F"/>
<path d="M27.882 59.9763C30.9088 59.9763 33.6735 58.8639 35.7966 57.0286C35.6777 56.1858 35.4388 55.342 35.063 54.5193C35.0474 54.4848 35.0316 54.4506 35.0157 54.4164C33.88 51.969 33.3267 49.2915 33.3255 46.5933L33.3232 40.9319C33.3232 38.768 32.9437 36.6931 32.2489 34.769C31.501 34.9405 30.7861 35.3133 30.1872 35.8989C27.3553 38.6677 23.4802 40.3743 19.2068 40.3743C19.006 40.3743 18.806 40.3706 18.6068 40.3632C17.0587 40.3051 15.7695 41.5352 15.7695 43.0845V48.0451C15.8696 54.6512 21.2524 59.9763 27.882 59.9763Z" fill="#FFECE4"/>
<path d="M39.9966 41.434C39.9966 40.7487 39.7385 40.0873 39.2722 39.5852C38.3117 38.5506 37.5167 37.5361 36.8602 36.5794C35.6039 34.7485 33.2619 34.1846 31.3828 35.0683C32.0524 36.9337 32.4173 38.9441 32.4173 41.0398L32.4194 46.554C32.4204 49.182 32.9594 51.7897 34.0656 54.1736C34.081 54.207 34.0965 54.2402 34.1117 54.2739C34.6283 55.4045 34.8817 56.5758 34.9092 57.7281C37.9414 55.5646 39.936 52.0404 39.9964 48.0451L39.9966 41.434Z" fill="#FFDDCE"/>
</svg>
