<svg xmlns="http://www.w3.org/2000/svg" xmlns:xlink="http://www.w3.org/1999/xlink" width="66" height="66" viewBox="0 0 66 66">
  <defs>
    <clipPath id="clip-path">
      <rect id="Rectangle_44388" data-name="Rectangle 44388" width="62" height="65" transform="translate(0.066)" fill="#fff" stroke="#707070" stroke-width="1"/>
    </clipPath>
  </defs>
  <g id="Image" transform="translate(-16 -94)">
    <rect id="Image_background" width="66" height="66" transform="translate(16 94)" fill="#fff"/>
    <g id="Mask_Group_363" data-name="Mask Group 363" transform="translate(15.934 94)" clip-path="url(#clip-path)">
      <g id="System_Update_1_" transform="translate(-1.923 0)">
        <path id="Path_44201" data-name="Path 44201" d="M42.043,27.974l-2.5-1.445a14.48,14.48,0,0,0,0-6.118l2.5-1.445A1.875,1.875,0,0,0,42.73,16.4l-3.75-6.5a1.875,1.875,0,0,0-2.561-.686l-2.48,1.432a16.87,16.87,0,0,0-5.321-3.039v-2.9a1.875,1.875,0,0,0-1.875-1.875h-7.5a1.875,1.875,0,0,0-1.875,1.875v2.9a16.871,16.871,0,0,0-5.321,3.039L9.566,9.223A1.875,1.875,0,0,0,7,9.909l-3.75,6.5a1.875,1.875,0,0,0,.686,2.561l2.5,1.445a14.478,14.478,0,0,0,0,6.118l-2.5,1.445a1.875,1.875,0,0,0-.686,2.561L7,37.03a1.875,1.875,0,0,0,2.561.686l2.48-1.432a16.87,16.87,0,0,0,5.321,3.039v2.9A1.875,1.875,0,0,0,19.242,44.1h7.5a1.875,1.875,0,0,0,1.875-1.875v-2.9a16.871,16.871,0,0,0,5.321-3.039l2.48,1.432a1.875,1.875,0,0,0,2.561-.686l3.75-6.5a1.875,1.875,0,0,0-.686-2.561ZM22.992,29.095a5.625,5.625,0,1,1,5.625-5.625A5.632,5.632,0,0,1,22.992,29.095Z" transform="translate(9.009 8.532)" fill="#bee3ed"/>
        <path id="Path_44202" data-name="Path 44202" d="M27.925,17.827a1.876,1.876,0,0,0-.187-1.423l-3.75-6.5a1.875,1.875,0,0,0-2.561-.686l-2.48,1.432a16.87,16.87,0,0,0-5.321-3.039v-2.9A1.875,1.875,0,0,0,11.75,2.844H8v15A5.625,5.625,0,1,1,8,29.095v15h3.75a1.875,1.875,0,0,0,1.875-1.875v-2.9a16.871,16.871,0,0,0,5.321-3.039l2.48,1.432a1.875,1.875,0,0,0,2.561-.686l3.75-6.5a1.875,1.875,0,0,0-.686-2.561l-2.5-1.445a14.483,14.483,0,0,0,0-6.118l2.5-1.445A1.876,1.876,0,0,0,27.925,17.827Z" transform="translate(24.002 8.532)" fill="#91c3d8"/>
        <path id="Path_44203" data-name="Path 44203" d="M57.646,12.846,54.995,4.891a1.875,1.875,0,1,0-3.558,1.186l.225.676a33.552,33.552,0,0,0-5.4-3.356A32.285,32.285,0,0,0,32,0,31.727,31.727,0,0,0,2.451,43.957a1.875,1.875,0,1,0,3.475-1.411A27.977,27.977,0,0,1,32,3.75a29.1,29.1,0,0,1,16.285,5.2,1.874,1.874,0,0,0-.968,3.615l7.955,2.652a1.875,1.875,0,0,0,2.372-2.372Z" transform="translate(0 0)" fill="#366ab3"/>
        <path id="Path_44204" data-name="Path 44204" d="M24.285,8.951a1.874,1.874,0,0,0-.968,3.615l7.955,2.652a1.875,1.875,0,0,0,2.372-2.372L30.993,4.891a1.875,1.875,0,0,0-3.558,1.186l.225.676a33.551,33.551,0,0,0-5.4-3.356A32.286,32.286,0,0,0,8,0V3.75a29.1,29.1,0,0,1,16.285,5.2Z" transform="translate(24.001 0)" fill="#004080"/>
        <path id="Path_44205" data-name="Path 44205" d="M56.856,5.889A1.875,1.875,0,0,0,53.381,7.3a28.026,28.026,0,0,1,2.176,10.545A28.283,28.283,0,0,1,27.306,46.1a29.1,29.1,0,0,1-16.285-5.2,1.874,1.874,0,0,0,.968-3.615L4.033,34.628A1.875,1.875,0,0,0,1.661,37l2.652,7.955A1.875,1.875,0,1,0,7.871,43.77l-.225-.676a33.561,33.561,0,0,0,5.4,3.356,32.29,32.29,0,0,0,14.256,3.4A31.766,31.766,0,0,0,49.9,40.437a31.766,31.766,0,0,0,9.409-22.592A31.756,31.756,0,0,0,56.856,5.889Z" transform="translate(4.695 14.157)" fill="#366ab3"/>
        <path id="Path_44206" data-name="Path 44206" d="M30.592,40.437A31.766,31.766,0,0,0,40,17.845,31.756,31.756,0,0,0,37.55,5.889,1.875,1.875,0,1,0,34.075,7.3a28.026,28.026,0,0,1,2.176,10.545A28.283,28.283,0,0,1,8,46.1v3.75a31.766,31.766,0,0,0,22.592-9.409Z" transform="translate(24.001 14.157)" fill="#004080"/>
      </g>
    </g>
  </g>
</svg>
