<svg xmlns="http://www.w3.org/2000/svg" width="16" height="16" viewBox="0 0 16 16">
  <g id="icon_fill_phone" transform="translate(-4 -4)">
    <path id="Path" d="M15.6,11.742,13.36,9.51a1.49,1.49,0,0,0-2.477.558,1.523,1.523,0,0,1-1.758.957A6.893,6.893,0,0,1,4.969,6.878a1.445,1.445,0,0,1,.959-1.754,1.484,1.484,0,0,0,.559-2.472L4.25.419a1.6,1.6,0,0,0-2.158,0L.574,1.934C-.945,3.529.734,7.755,4.489,11.5s7.991,5.5,9.589,3.907L15.6,13.9A1.59,1.59,0,0,0,15.6,11.742Z" transform="translate(3.983 4)" fill="#454545"/>
  </g>
</svg>
