<svg width="124" height="140" viewBox="0 0 124 140" fill="none" xmlns="http://www.w3.org/2000/svg">
<path opacity="0.04" d="M107.729 20H24.2707C19.7029 20 16 23.7029 16 28.2707V111.729C16 116.297 19.7029 120 24.2707 120H107.729C112.297 120 116 116.297 116 111.729V28.2707C116 23.7029 112.297 20 107.729 20Z" fill="#FF1A1A"/>
<mask id="mask0_1351_3544" style="mask-type:luminance" maskUnits="userSpaceOnUse" x="30" y="34" width="72" height="72">
<path d="M30.2861 34.2856H101.715V105.714H30.2861V34.2856Z" fill="white"/>
</mask>
<g mask="url(#mask0_1351_3544)">
<path d="M65.627 57.5955C65.627 57.5955 64.4728 42.224 46.0781 35.0391V57.5955H65.627Z" fill="#F0F5FA"/>
<path d="M66.3759 57.5955C66.3759 57.5955 67.5301 42.224 85.9248 35.0391V57.5955H66.3759Z" fill="#E4ECF2"/>
<path d="M66.3757 57.5939C58.3441 43.2427 39.308 38.7969 39.308 38.7969L34.7967 42.5563L61.8644 59.8495L66.3757 57.5939Z" fill="#E4ECF2"/>
<path d="M65.625 57.5939C73.6565 43.2427 92.6926 38.7969 92.6926 38.7969L97.2039 42.5563L70.1362 59.8495L65.625 57.5939Z" fill="#F0F5FA"/>
<path d="M99.4591 88.4235L73.1433 103.461C72.2132 103.987 70.8877 103.024 70.8877 101.957L69.3839 80.1528L70.8877 58.3483C70.8929 58.0574 70.9631 57.7714 71.0932 57.5112C71.2233 57.2511 71.41 57.0233 71.6395 56.8445L98.7072 41.807C99.6373 41.2806 100.211 42.2438 100.211 43.3107V86.9197C100.206 87.2106 100.135 87.4966 100.005 87.7568C99.8753 88.017 99.6886 88.2448 99.4591 88.4235Z" fill="#FF8AE0"/>
<path d="M98.7072 41.8035L94.9478 44.0592V86.9163C94.9426 87.2072 94.8723 87.4932 94.7422 87.7534C94.6121 88.0136 94.4255 88.2414 94.1959 88.4201L70.8877 101.202V101.954C70.8877 103.021 72.2132 103.984 73.1433 103.458L99.4591 88.4201C99.6886 88.2414 99.8753 88.0136 100.005 87.7534C100.135 87.4932 100.206 87.2072 100.211 86.9163V43.3073C100.211 42.2404 99.6373 41.2772 98.7072 41.8035Z" fill="#FF70D9"/>
<path d="M58.8576 103.458L32.5418 88.4201C32.3123 88.2414 32.1256 88.0136 31.9955 87.7534C31.8654 87.4932 31.7952 87.2072 31.7899 86.9163V43.3073C31.7899 42.2404 32.3636 41.2772 33.2937 41.8035L60.3613 56.8411C60.5909 57.0198 60.7775 57.2476 60.9076 57.5078C61.0377 57.768 61.108 58.054 61.1132 58.3449V101.954C61.1132 103.021 59.7877 103.984 58.8576 103.458Z" fill="#FF8AE0"/>
<path d="M60.3613 56.8421L33.2937 41.8045C32.3636 41.2782 31.7899 42.2414 31.7899 43.3083V44.0601L55.0982 56.8421C55.3277 57.0208 55.5144 57.2486 55.6445 57.5088C55.7746 57.769 55.8448 58.055 55.8501 58.3459V101.203L58.8576 103.459C59.7877 103.985 61.1132 103.022 61.1132 101.955L62.617 80.1504L61.1132 58.3459C61.108 58.055 61.0377 57.769 60.9076 57.5088C60.7775 57.2486 60.5909 57.0208 60.3613 56.8421Z" fill="#FF70D9"/>
<path d="M95.7004 59.849L76.1516 71.1272V64.3603L95.7004 53.834V59.849Z" fill="white"/>
<path d="M69.3839 104.962H62.617C62.2247 104.942 61.8539 104.777 61.5762 104.499C61.2985 104.221 61.1335 103.851 61.1132 103.458V59.0975C61.1335 58.7053 61.2985 58.3345 61.5762 58.0567C61.8539 57.779 62.2247 57.6141 62.617 57.5938H69.3839C69.7761 57.6141 70.1469 57.779 70.4247 58.0567C70.7024 58.3345 70.8674 58.7053 70.8877 59.0975V103.458C70.8674 103.851 70.7024 104.221 70.4247 104.499C70.1469 104.777 69.7761 104.942 69.3839 104.962Z" fill="#FF8AE0"/>
<path d="M69.3843 57.5938H64.873C65.6437 57.5938 65.6249 58.3268 65.6249 59.0975V103.458C65.6249 104.229 65.6437 104.962 64.873 104.962H69.3843C69.7765 104.942 70.1473 104.777 70.4251 104.499C70.7028 104.221 70.8677 103.851 70.888 103.458V59.0975C70.8677 58.7053 70.7028 58.3345 70.4251 58.0567C70.1473 57.779 69.7765 57.6141 69.3843 57.5938Z" fill="#FF70D9"/>
<path d="M70.8877 67.3686H61.1132V62.1055H70.8877V67.3686Z" fill="#FFDA45"/>
<path d="M70.8877 99.6993H61.1132V95.188H70.8877V99.6993Z" fill="#FFDA45"/>
<path d="M66.0026 57.2196C66.0026 57.2196 64.0966 42.6 45.7019 35.415V41.4301" stroke="#060606" stroke-width="1.172" stroke-miterlimit="10" stroke-linecap="round" stroke-linejoin="round"/>
<path d="M66 57.2196C66 57.2196 67.906 42.6 86.3007 35.415V41.4301" stroke="#060606" stroke-width="1.172" stroke-miterlimit="10" stroke-linecap="round" stroke-linejoin="round"/>
<path d="M50.9621 42.9322C47.1575 40.9291 43.1156 39.4134 38.932 38.4209L35.1726 42.9322" stroke="#060606" stroke-width="1.172" stroke-miterlimit="10" stroke-linecap="round" stroke-linejoin="round"/>
<path d="M66.0029 57.2187C63.5627 53.0307 60.2245 49.4357 56.2285 46.6924" stroke="#060606" stroke-width="1.172" stroke-miterlimit="10" stroke-linecap="round" stroke-linejoin="round"/>
<path d="M66 57.2179C74.0315 42.8668 93.0676 38.4209 93.0676 38.4209L96.827 42.9322" stroke="#060606" stroke-width="1.172" stroke-miterlimit="10" stroke-linecap="round" stroke-linejoin="round"/>
<path d="M69.008 104.587H62.9929C62.6007 104.566 62.2299 104.401 61.9521 104.124C61.6744 103.846 61.5095 103.475 61.4892 103.083V58.722C61.5095 58.3298 61.6744 57.959 61.9521 57.6812C62.2299 57.4035 62.6007 57.2386 62.9929 57.2183H69.008C69.4002 57.2386 69.771 57.4035 70.0487 57.6812C70.3265 57.959 70.4914 58.3298 70.5117 58.722V103.083C70.4914 103.475 70.3265 103.846 70.0487 104.124C69.771 104.401 69.4002 104.566 69.008 104.587Z" stroke="#060606" stroke-width="1.172" stroke-miterlimit="10" stroke-linecap="round" stroke-linejoin="round"/>
<path d="M70.5117 66.9927H61.4892V62.4814H70.5117V66.9927Z" stroke="#060606" stroke-width="1.172" stroke-miterlimit="10" stroke-linecap="round" stroke-linejoin="round"/>
<path d="M70.5117 100.075H61.4892V94.812H70.5117V100.075Z" stroke="#060606" stroke-width="1.172" stroke-miterlimit="10" stroke-linecap="round" stroke-linejoin="round"/>
<path d="M66 74.5112V87.2932" stroke="#060606" stroke-width="1.172" stroke-miterlimit="10" stroke-linecap="round" stroke-linejoin="round"/>
<path d="M100.588 81.2781V87.2931C100.588 87.7969 100.275 87.7976 99.8358 88.045L72.7681 103.834C71.838 104.361 70.5125 103.398 70.5125 102.331V57.9698C70.5125 57.466 70.8252 57.4653 71.2643 57.2179L98.332 42.1803C99.2621 41.654 100.588 41.8653 100.588 42.9322V74.5112" stroke="#060606" stroke-width="1.172" stroke-miterlimit="10" stroke-linecap="round" stroke-linejoin="round"/>
<path d="M59.2335 103.834L32.1659 88.0445C31.7268 87.7971 31.414 87.7964 31.414 87.2926V42.9317C31.414 41.8648 32.7395 41.6535 33.6696 42.1798L60.7373 57.2174C61.1764 57.4648 61.4892 57.4656 61.4892 57.9693V102.33C61.4892 103.398 60.1636 104.36 59.2335 103.834Z" stroke="#060606" stroke-width="1.172" stroke-miterlimit="10" stroke-linecap="round" stroke-linejoin="round"/>
<path d="M95.3242 60.2249L75.7753 71.5031V64.7362L95.3242 53.458V60.2249Z" stroke="#060606" stroke-width="1.172" stroke-miterlimit="10" stroke-linecap="round" stroke-linejoin="round"/>
</g>
</svg>
