<svg width="124" height="140" viewBox="0 0 124 140" fill="none" xmlns="http://www.w3.org/2000/svg">
<path opacity="0.04" d="M107.729 20H24.2707C19.7029 20 16 23.7029 16 28.2707V111.729C16 116.297 19.7029 120 24.2707 120H107.729C112.297 120 116 116.297 116 111.729V28.2707C116 23.7029 112.297 20 107.729 20Z" fill="#FF1A1A"/>
<path d="M79.1579 93.6835L43.8196 95.1873L36.3008 93.6835C35.2248 93.6835 34.797 92.5038 34.797 91.4279V85.4129C34.797 84.3369 35.2248 83.1572 36.3008 83.1572H79.1579C79.7357 83.217 80.2754 83.4739 80.6861 83.8846C81.0969 84.2954 81.3538 84.835 81.4135 85.4129V91.4279C81.3538 92.0057 81.0969 92.5454 80.6861 92.9561C80.2754 93.3669 79.7357 93.6238 79.1579 93.6835Z" fill="#D2CFE9"/>
<path d="M81.4143 85.4134V91.4284C81.3542 92.0061 81.0973 92.5456 80.6866 92.9563C80.2759 93.367 79.7364 93.624 79.1586 93.684H75.3992C75.8155 93.46 76.1703 93.1371 76.4325 92.7438C76.6947 92.3505 76.8563 91.8988 76.903 91.4284V85.4134C76.8432 84.8355 76.5864 84.2959 76.1756 83.8851C75.7648 83.4743 75.2252 83.2175 74.6474 83.1577H79.1586C79.7365 83.2175 80.2761 83.4743 80.6869 83.8851C81.0976 84.2959 81.3545 84.8355 81.4143 85.4134Z" fill="#C2BCE0"/>
<path d="M81.4135 95.9397V101.955C81.3538 102.533 81.0969 103.072 80.6861 103.483C80.2754 103.894 79.7357 104.151 79.1579 104.21H36.3008C35.2331 104.21 34.797 103.022 34.797 101.955V95.9397C34.797 94.8728 35.2331 93.6841 36.3008 93.6841H79.1579C79.7357 93.744 80.2752 94.0009 80.686 94.4116C81.0967 94.8224 81.3536 95.3619 81.4135 95.9397Z" fill="#978ECB"/>
<path d="M79.1586 93.6841H74.6474C75.2251 93.744 75.7647 94.0009 76.1754 94.4116C76.5862 94.8224 76.8431 95.3619 76.903 95.9397V101.955C76.8432 102.533 76.5864 103.072 76.1756 103.483C75.7648 103.894 75.2252 104.151 74.6474 104.21H79.1586C79.7365 104.151 80.2761 103.894 80.6869 103.483C81.0976 103.072 81.3545 102.533 81.4143 101.955V95.9397C81.3544 95.3619 81.0975 94.8224 80.6867 94.4116C80.276 94.0009 79.7364 93.744 79.1586 93.6841Z" fill="#8379C1"/>
<path d="M60.3609 83.1573H34.797C36.5812 80.916 36.5489 78.7122 34.797 75.6385H60.3609C60.8603 75.6172 61.3586 75.6999 61.8244 75.8813C62.2901 76.0627 62.7131 76.3389 63.0665 76.6923C63.4199 77.0457 63.6961 77.4687 63.8775 77.9345C64.0589 78.4002 64.1416 78.8986 64.1203 79.3979C64.1416 79.8973 64.0589 80.3956 63.8775 80.8614C63.6961 81.3271 63.4199 81.7501 63.0665 82.1035C62.7131 82.457 62.2901 82.7331 61.8244 82.9145C61.3586 83.0959 60.8603 83.1786 60.3609 83.1573Z" fill="#FFF5C6"/>
<path d="M59.609 79.3984C59.609 80.5014 59.5797 81.6834 58.8571 82.4059C58.1346 83.1285 56.9534 83.1578 55.8496 83.1578H60.3609C60.8603 83.1791 61.3586 83.0964 61.8244 82.915C62.2901 82.7336 62.7131 82.4575 63.0665 82.104C63.4199 81.7506 63.6961 81.3276 63.8775 80.8619C64.0589 80.3961 64.1416 79.8978 64.1203 79.3984C64.0006 78.2466 63.4661 77.1777 62.6165 76.3909C61.894 75.6683 61.4647 75.639 60.3609 75.639H55.8496C56.349 75.6177 56.8473 75.7004 57.3131 75.8818C57.7788 76.0632 58.2018 76.3394 58.5552 76.6928C58.9087 77.0462 59.1848 77.4692 59.3662 77.935C59.5476 78.4007 59.6303 78.899 59.609 79.3984Z" fill="#FEF0AE"/>
<path d="M72.3902 75.6392H37.8038C39.588 73.3978 39.5557 70.4422 37.8038 67.3685H72.3902C72.8896 67.3472 73.388 67.4299 73.8537 67.6113C74.3194 67.7927 74.7424 68.0689 75.0959 68.4223C75.4493 68.7757 75.7254 69.1987 75.9068 69.6644C76.0882 70.1302 76.1709 70.6285 76.1496 71.1279C76.1496 73.3332 74.5947 75.6392 72.3902 75.6392Z" fill="#FFF9E2"/>
<path d="M72.391 67.3685H67.8797C68.3791 67.3472 68.8774 67.4299 69.3432 67.6113C69.8089 67.7927 70.2319 68.0689 70.5853 68.4223C70.9387 68.7757 71.2149 69.1987 71.3963 69.6644C71.5777 70.1302 71.6604 70.6285 71.6391 71.1279C71.6391 73.3324 70.0842 75.6392 67.8797 75.6392H72.391C74.5955 75.6392 76.1504 73.3324 76.1504 71.1279C76.1717 70.6285 76.089 70.1302 75.9076 69.6644C75.7262 69.1987 75.45 68.7757 75.0966 68.4223C74.7432 68.0689 74.3202 67.7927 73.8544 67.6113C73.3887 67.4299 72.8903 67.3472 72.391 67.3685Z" fill="#FFF5C6"/>
<path d="M73.8951 83.1577H69.3838V93.684H73.8951V83.1577Z" fill="#8379C1"/>
<path d="M69.3835 93.6841H64.8722V104.21H69.3835V93.6841Z" fill="#8379C1"/>
<path d="M95.7011 102.707L89.6861 104.211C88.6778 104.563 87.7823 104.467 87.4304 103.459L75.4004 68.1204C75.0485 67.1122 75.144 66.2167 76.1522 65.8648L82.1673 63.6091C82.764 63.4973 83.3809 63.5837 83.9239 63.8552C84.467 64.1267 84.9063 64.5684 85.1748 65.1129L97.2049 99.6994C97.3167 100.296 97.2303 100.913 96.9588 101.456C96.6873 101.999 96.2456 102.438 95.7011 102.707Z" fill="#FE76A8"/>
<path d="M97.1987 99.6994L85.1686 65.1129C84.9001 64.5684 84.4608 64.1267 83.9177 63.8552C83.3747 63.5837 82.7578 63.4973 82.1611 63.6091L80.6573 64.361C80.7641 64.5114 80.5942 64.9325 80.6573 65.1129L92.6874 99.6994C93.0393 100.708 92.9423 102.356 91.9355 102.707L87.4242 103.459C87.6734 103.805 88.0255 104.065 88.4305 104.199C88.8354 104.334 89.2726 104.338 89.6799 104.211L95.6949 102.707C96.2394 102.438 96.6811 101.999 96.9526 101.456C97.2241 100.913 97.3105 100.296 97.1987 99.6994Z" fill="#FE5694"/>
<path d="M92.4778 86.7051L82.8192 90.0713L84.2376 94.1411L93.8962 90.7749L92.4778 86.7051Z" fill="#BBEC6C"/>
<path d="M92.4788 86.7022L88.7383 88.0059L90.1567 92.0757L93.8972 90.7721L92.4788 86.7022Z" fill="#A2E62E"/>
<path d="M64.1202 67.3676C62.1619 67.4084 60.2532 66.7494 58.7372 65.509C57.2212 64.2687 56.1973 62.5283 55.8495 60.6007L55.0976 55.3375C55.0878 55.1374 55.12 54.9375 55.1921 54.7507C55.2643 54.5638 55.3747 54.3941 55.5163 54.2524C55.658 54.1108 55.8277 54.0004 56.0145 53.9283C56.2014 53.8562 56.4013 53.824 56.6014 53.8337H71.639C71.8391 53.824 72.039 53.8562 72.2258 53.9283C72.4127 54.0004 72.5824 54.1108 72.7241 54.2524C72.8657 54.3941 72.9761 54.5638 73.0482 54.7507C73.1203 54.9375 73.1525 55.1374 73.1427 55.3375L72.3909 60.6007C72.0431 62.5283 71.0192 64.2687 69.5032 65.509C67.9872 66.7494 66.0785 67.4084 64.1202 67.3676Z" fill="#DEECF1"/>
<path d="M71.6387 53.8337H67.1274C67.3275 53.824 67.5274 53.8562 67.7143 53.9283C67.9011 54.0004 68.0709 54.1108 68.2125 54.2524C68.3541 54.3941 68.4646 54.5638 68.5367 54.7507C68.6088 54.9375 68.641 55.1374 68.6312 55.3375L67.8793 60.6007C67.6346 62.188 66.9368 63.6708 65.8698 64.8712C64.8028 66.0716 63.4119 66.9384 61.8643 67.3676C62.6135 67.456 63.3706 67.456 64.1199 67.3676C66.0782 67.4084 67.9869 66.7494 69.5029 65.509C71.0189 64.2687 72.0428 62.5283 72.3906 60.6007L73.1425 55.3375C73.1522 55.1374 73.12 54.9375 73.0479 54.7507C72.9758 54.5638 72.8654 54.3941 72.7238 54.2524C72.5821 54.1108 72.4124 54.0004 72.2255 53.9283C72.0387 53.8562 71.8388 53.824 71.6387 53.8337Z" fill="#CBE5E8"/>
<path d="M64.1202 35.0376C64.1202 35.0376 57.4179 40.1038 64.1202 45.5639C64.1202 45.5639 70.5736 39.9406 64.1202 35.0376Z" fill="#A2E62E"/>
<path d="M52.0905 42.5554C52.0905 42.5554 60.4883 41.4735 59.6093 50.0742C59.6093 50.0742 50.9943 50.5863 52.0905 42.5554Z" fill="#BBEC6C"/>
<path d="M75.3988 42.5554C75.3988 42.5554 67.7529 41.4735 68.6319 50.0742C68.6319 50.0742 76.495 50.5863 75.3988 42.5554Z" fill="#A2E62E"/>
<path d="M45.6979 93.3081H78.7806C79.3584 93.368 79.898 93.6249 80.3087 94.0357C80.7195 94.4464 80.9764 94.986 81.0363 95.5637V102.331C81.0363 103.398 79.8483 103.834 78.7806 103.834H36.6754C35.6077 103.834 34.4197 103.398 34.4197 102.331V95.5637C34.4796 94.986 34.7365 94.4464 35.1473 94.0357C35.558 93.6249 36.0976 93.368 36.6754 93.3081H41.1867" stroke="black" stroke-width="1.172" stroke-miterlimit="10" stroke-linecap="round" stroke-linejoin="round"/>
<path d="M36.6754 93.3076C35.5994 93.3076 34.4197 92.8798 34.4197 91.8039V85.037C34.4197 83.961 35.5994 83.5332 36.6754 83.5332H78.7806C79.8483 83.5332 81.0363 83.9693 81.0363 85.037V91.8039C81.0363 92.8715 79.8483 93.3076 78.7806 93.3076" stroke="black" stroke-width="1.172" stroke-miterlimit="10" stroke-linecap="round" stroke-linejoin="round"/>
<path d="M59.9836 83.5329H34.4197C36.2039 81.2915 36.1716 78.3359 34.4197 75.2622H59.9836C62.1882 75.2622 63.743 77.569 63.743 79.7735C63.7643 80.2729 63.6816 80.7712 63.5002 81.2369C63.3189 81.7027 63.0427 82.1257 62.6893 82.4791C62.3358 82.8325 61.9128 83.1087 61.4471 83.2901C60.9814 83.4715 60.483 83.5542 59.9836 83.5329Z" stroke="black" stroke-width="1.172" stroke-miterlimit="10" stroke-linecap="round" stroke-linejoin="round"/>
<path d="M72.0142 75.2633H38.1796C39.9638 73.0219 39.9315 70.8182 38.1796 67.7445H72.0142C72.5135 67.7232 73.0119 67.8059 73.4776 67.9873C73.9434 68.1687 74.3664 68.4448 74.7198 68.7983C75.0732 69.1517 75.3494 69.5747 75.5308 70.0404C75.7122 70.5062 75.7949 71.0045 75.7736 71.5039C75.7949 72.0033 75.7122 72.5016 75.5308 72.9673C75.3494 73.4331 75.0732 73.8561 74.7198 74.2095C74.3664 74.5629 73.9434 74.8391 73.4776 75.0205C73.0119 75.2019 72.5135 75.2846 72.0142 75.2633Z" stroke="black" stroke-width="1.172" stroke-miterlimit="10" stroke-linecap="round" stroke-linejoin="round"/>
<path d="M73.5182 83.5337H69.7588V93.3081H73.5182V83.5337Z" stroke="black" stroke-width="1.172" stroke-miterlimit="10" stroke-linecap="round" stroke-linejoin="round"/>
<path d="M69.7592 93.3081H65.248V103.834H69.7592V93.3081Z" stroke="black" stroke-width="1.172" stroke-miterlimit="10" stroke-linecap="round" stroke-linejoin="round"/>
<path d="M92.3173 86.5414L96.8286 100.075C97.1805 101.083 97.0835 101.98 96.0767 102.331L90.0617 104.586C89.0534 104.938 88.1579 104.091 87.806 103.083L75.0241 68.4963C74.9122 67.8996 74.9986 67.2826 75.2702 66.7396C75.5417 66.1966 75.9834 65.7573 76.5278 65.4888L82.5429 63.985C83.5496 63.6339 84.4466 63.7286 84.7985 64.7369L90.8136 82.0301" stroke="black" stroke-width="1.172" stroke-miterlimit="10" stroke-linecap="round" stroke-linejoin="round"/>
<path d="M92.4769 86.7051L82.8183 90.0713L84.2367 94.1411L93.8953 90.7749L92.4769 86.7051Z" stroke="black" stroke-width="1.17163" stroke-miterlimit="10" stroke-linecap="round" stroke-linejoin="round"/>
<path d="M63.7439 67.7436C59.695 67.7436 56.1116 64.2225 55.4732 60.2248L54.7213 55.7135C54.7116 55.5134 54.7438 55.3135 54.8159 55.1266C54.888 54.9398 54.9984 54.77 55.14 54.6284C55.2817 54.4868 55.4514 54.3763 55.6383 54.3042C55.8251 54.2321 56.025 54.1999 56.2251 54.2097H71.2627C71.4628 54.1999 71.6627 54.2321 71.8495 54.3042C72.0364 54.3763 72.2061 54.4868 72.3478 54.6284C72.4894 54.77 72.5998 54.9398 72.6719 55.1266C72.7441 55.3135 72.7763 55.5134 72.7665 55.7135L72.0146 60.2248C71.3762 64.2233 67.7928 67.7436 63.7439 67.7436Z" stroke="black" stroke-width="1.172" stroke-miterlimit="10" stroke-linecap="round" stroke-linejoin="round"/>
<path d="M63.7438 35.4136C63.7438 35.4136 57.7934 39.7279 64.4957 45.188C64.4957 45.188 70.1972 40.3166 63.7438 35.4136Z" stroke="black" stroke-width="1.172" stroke-miterlimit="10" stroke-linecap="round" stroke-linejoin="round"/>
<path d="M64.4957 45.187V54.2096L59.2325 49.6983" stroke="black" stroke-width="1.172" stroke-miterlimit="10" stroke-linecap="round" stroke-linejoin="round"/>
<path d="M52.4661 42.9315C52.4661 42.9315 60.1119 41.0976 59.233 49.6984C59.233 49.6984 51.3698 50.9623 52.4661 42.9315Z" stroke="black" stroke-width="1.172" stroke-miterlimit="10" stroke-linecap="round" stroke-linejoin="round"/>
<path d="M63.744 54.2105L69.0072 49.6992" stroke="black" stroke-width="1.172" stroke-miterlimit="10" stroke-linecap="round" stroke-linejoin="round"/>
<path d="M75.7737 42.9315C75.7737 42.9315 68.1279 41.0976 69.0068 49.6984C69.0068 49.6984 76.87 50.9623 75.7737 42.9315Z" stroke="black" stroke-width="1.172" stroke-miterlimit="10" stroke-linecap="round" stroke-linejoin="round"/>
</svg>
