<svg width="124" height="140" viewBox="0 0 124 140" fill="none" xmlns="http://www.w3.org/2000/svg">
<path opacity="0.04" d="M107.729 20H24.2707C19.7029 20 16 23.7029 16 28.2707V111.729C16 116.297 19.7029 120 24.2707 120H107.729C112.297 120 116 116.297 116 111.729V28.2707C116 23.7029 112.297 20 107.729 20Z" fill="#FF1A1A"/>
<mask id="mask0_1351_1266" style="mask-type:luminance" maskUnits="userSpaceOnUse" x="30" y="34" width="72" height="72">
<path d="M30.2861 34.2856H101.715V105.714H30.2861V34.2856Z" fill="white"/>
</mask>
<g mask="url(#mask0_1351_1266)">
<path d="M31.0382 46.3163C31.0376 44.835 31.3289 43.3682 31.8955 41.9996C32.462 40.631 33.2928 39.3875 34.3401 38.3401C35.3875 37.2927 36.6311 36.462 37.9997 35.8954C39.3683 35.3288 40.8351 35.0375 42.3164 35.0381C45.2767 35.1352 48.0893 36.3546 50.1837 38.449C52.2781 40.5434 53.4975 43.356 53.5946 46.3163C53.6134 47.8863 53.2863 49.4412 52.6366 50.8706C51.9869 52.3 51.0304 53.5688 49.8352 54.587C49.7731 54.6281 49.7222 54.684 49.687 54.7496C49.6518 54.8152 49.6334 54.8885 49.6334 54.9629C49.6334 55.0373 49.6518 55.1106 49.687 55.1762C49.7222 55.2418 49.7731 55.2977 49.8352 55.3388L52.0908 56.8426C52.4284 57.0426 51.7314 57.5945 51.3389 57.5945H42.3164C36.29 57.4824 31.0382 52.3697 31.0382 46.3163Z" fill="#7ACAA6"/>
<path d="M52.0908 56.8428L49.8352 55.339C49.7741 55.2972 49.7241 55.2411 49.6895 55.1756C49.655 55.1101 49.637 55.0371 49.637 54.9631C49.637 54.889 49.655 54.8161 49.6895 54.7506C49.7241 54.6851 49.7741 54.629 49.8352 54.5871C51.0425 53.5792 52.0074 52.3124 52.6582 50.8806C53.309 49.4488 53.6291 47.8889 53.5945 46.3165C53.5013 40.4232 48.96 35.2097 43.0682 35.0383C42.2329 35.0142 40.8464 35.6398 40.0607 35.7902C42.5578 36.2135 44.8277 37.4983 46.476 39.4213C48.1243 41.3443 49.0468 43.784 49.0833 46.3165C49.1294 48.764 48.333 51.153 46.8276 53.0834C46.6233 53.3773 46.4803 53.7095 46.4074 54.06C46.3345 54.4105 46.3331 54.7721 46.4033 55.1231C46.4735 55.4742 46.6139 55.8074 46.816 56.1029C47.0181 56.3984 47.2778 56.6501 47.5795 56.8428C47.9133 57.0405 47.9622 57.5834 47.5795 57.5947H51.3389C51.7314 57.5947 52.4284 57.0428 52.0908 56.8428Z" fill="#57BE92"/>
<path d="M85.1735 75.6391H60.3615C54.0796 75.6391 50.3345 68.4429 54.3465 63.609V62.8571C56.1906 60.7755 57.2537 58.1175 57.354 55.3384V50.8271C57.4283 46.6627 59.1157 42.6896 62.0609 39.7445C65.006 36.7993 68.9791 35.1119 73.1435 35.0376C81.6442 35.0376 88.1811 42.3263 88.1811 50.8271V56.0902C88.2622 58.8734 89.3279 61.5376 91.1886 63.609C95.2487 68.4331 91.4803 75.6391 85.1735 75.6391Z" fill="#C59191"/>
<path d="M98.7059 104.962V87.6685C98.7059 83.9956 96.0487 80.8858 92.6908 79.3978L81.4126 74.8865C79.2698 73.9685 78.4051 71.9542 78.4051 69.6234V68.1196H67.1269V69.6234C67.1269 71.9437 66.2472 73.9617 64.1194 74.8865L52.8412 79.3978C51.0958 80.1896 49.6072 81.4546 48.544 83.0493C47.4809 84.644 46.8858 86.5047 46.8262 88.4204V104.962" fill="white"/>
<path d="M61.1133 80.1502C65.0236 81.26 69.0803 81.7671 73.1434 81.654C76.9971 81.492 80.8021 80.731 84.4216 79.3983L85.9254 76.3908L81.4141 74.887C79.2712 73.969 78.4066 71.9547 78.4066 69.6239V68.1201H67.1284V69.6239C67.1284 71.9442 66.2487 73.9622 64.1209 74.887L60.3615 76.3908L61.1133 80.1502Z" fill="#FFCEBF"/>
<path d="M92.6926 79.402L84.422 75.6426V104.966H98.7077V87.6727C98.7077 83.9997 96.0505 80.8899 92.6926 79.402Z" fill="#8795DE"/>
<path d="M52.8412 79.4025L61.1119 75.6431V104.966H46.8262V87.6731C46.8262 84.0002 49.4833 80.8904 52.8412 79.4025Z" fill="#8795DE"/>
<path d="M76.1509 65.8649H73.1434C72.0276 65.8649 71.6397 65.4769 71.6397 64.3611C71.6397 63.2453 72.0276 62.1055 73.1434 62.1055H76.1509C77.2667 62.1055 77.6547 63.2453 77.6547 64.3611C77.6547 65.4769 77.2667 65.8649 76.1509 65.8649Z" fill="white"/>
<path d="M75.775 66.2408H73.5194C72.9356 66.197 72.387 65.9454 71.973 65.5314C71.5591 65.1175 71.3074 64.5689 71.2637 63.9851C71.3074 63.4014 71.5591 62.8527 71.973 62.4388C72.387 62.0249 72.9356 61.7732 73.5194 61.7295H75.775C76.3587 61.7732 76.9074 62.0249 77.3213 62.4388C77.7352 62.8527 77.9869 63.4014 78.0306 63.9851C77.9869 64.5689 77.7352 65.1175 77.3213 65.5314C76.9074 65.9454 76.3587 66.197 75.775 66.2408Z" stroke="black" stroke-width="1.172" stroke-miterlimit="10" stroke-linecap="round" stroke-linejoin="round"/>
<path d="M73.8975 87.6693C73.8975 88.2272 73.7035 88.4212 73.1456 88.4212C72.5877 88.4212 71.6419 88.2272 71.6419 87.6693C71.7318 87.3055 71.9194 86.9731 72.1844 86.7081C72.4494 86.4431 72.7818 86.2555 73.1456 86.1655C73.7035 86.1655 73.8975 87.1114 73.8975 87.6693Z" fill="black"/>
<path d="M76.9036 74.1352C77.951 74.1224 78.9809 73.8649 79.9111 73.3833C79.3801 72.9209 78.9667 72.3389 78.7053 71.6851C78.4438 71.0314 78.3416 70.3249 78.4073 69.6239V68.1201H67.1291V69.6239C67.1291 70.4622 67.4592 71.1442 67.1291 71.8795C67.9254 72.6451 68.8696 73.24 69.9039 73.6279C70.9382 74.0157 72.0408 74.1884 73.1442 74.1352H76.9036Z" fill="#FFB09E"/>
<path d="M83.6697 51.579V60.6016C83.6697 65.7068 79.7525 70.376 74.6472 70.376H70.8878C65.7825 70.376 61.8652 65.7068 61.8652 60.6016V51.579C61.8652 49.9837 62.499 48.4538 63.627 47.3257C64.755 46.1977 66.285 45.564 67.8803 45.564H77.6547C79.25 45.564 80.7799 46.1977 81.908 47.3257C83.036 48.4538 83.6697 49.9837 83.6697 51.579Z" fill="#FFCEBF"/>
<path d="M76.1509 65.8649H73.1434C72.0276 65.8649 71.6397 65.4769 71.6397 64.3611C71.6397 63.2453 72.0276 62.1055 73.1434 62.1055H76.1509C77.2667 62.1055 77.6547 63.2453 77.6547 64.3611C77.6547 65.4769 77.2667 65.8649 76.1509 65.8649Z" fill="#685E68"/>
<path d="M74.6481 43.3085C74.8827 40.3476 77.9503 38.3108 80.6631 37.2935C82.9624 38.7253 84.8592 40.7191 86.1747 43.087C87.4901 45.4548 88.1809 48.1186 88.1819 50.8273V51.5792C87.9338 51.6311 87.6744 51.5431 87.43 51.5792C86.1832 51.7569 84.9175 51.7569 83.6706 51.5792C78.0669 50.8326 74.3646 46.8844 74.6481 43.3085Z" fill="#B98080"/>
<path d="M73.1431 35.0376C76.619 35.0376 79.5889 36.8534 82.1656 38.797C79.7982 42.8383 76.4325 46.204 72.3912 48.5714C68.2822 51.0015 64.2506 51.2707 61.8649 51.579H57.3536V50.8271C57.4279 46.6627 59.1153 42.6896 62.0604 39.7445C65.0056 36.7993 68.9787 35.1119 73.1431 35.0376Z" fill="#C59191"/>
<path d="M89.6846 104.963H56.6019L54.3463 86.9181C54.3358 86.6191 54.387 86.3211 54.4966 86.0426C54.6062 85.7642 54.772 85.5114 54.9836 85.2998C55.1952 85.0882 55.4481 84.9224 55.7265 84.8128C56.0049 84.7031 56.3029 84.652 56.6019 84.6625H89.6846C89.9837 84.652 90.2817 84.7031 90.5601 84.8128C90.8385 84.9224 91.0914 85.0882 91.303 85.2998C91.5146 85.5114 91.6803 85.7642 91.79 86.0426C91.8996 86.3211 91.9508 86.6191 91.9403 86.9181L89.6846 104.963Z" fill="#EFEDEF"/>
<path d="M89.6853 84.6615H85.9259C87.1687 84.6615 87.5604 85.681 87.4296 86.9171L85.9259 104.962H89.6853L91.9409 86.9171C91.9514 86.6181 91.9002 86.3201 91.7906 86.0417C91.681 85.7633 91.5152 85.5104 91.3036 85.2988C91.092 85.0872 90.8391 84.9214 90.5607 84.8118C90.2823 84.7022 89.9843 84.651 89.6853 84.6615Z" fill="#E5E1E5"/>
<path d="M100.963 105.714H31.0382C30.46 105.714 30.2863 105.54 30.2863 104.962C30.2863 104.384 30.46 103.458 31.0382 103.458H100.963C101.541 103.458 101.715 104.384 101.715 104.962C101.715 105.54 101.541 105.714 100.963 105.714Z" fill="#C9BFC8"/>
<path d="M76.1517 94.4363C76.1372 95.2294 75.8157 95.986 75.2548 96.5469C74.6939 97.1078 73.9373 97.4294 73.1442 97.4438C72.3511 97.4292 71.5946 97.1076 71.0337 96.5467C70.4729 95.9859 70.1513 95.2294 70.1366 94.4363C70.1366 92.8183 71.5261 92.1807 73.1442 92.1807C74.7622 92.1807 76.1517 92.8183 76.1517 94.4363Z" fill="#C9BFC8"/>
<path d="M31.4141 46.6923C31.4135 45.211 31.7048 43.7442 32.2714 42.3756C32.838 41.007 33.6687 39.7634 34.7161 38.716C35.7635 37.6687 37.007 36.8379 38.3756 36.2714C39.7442 35.7048 41.211 35.4135 42.6923 35.4141C48.696 35.5005 53.181 40.6877 53.2186 46.6923C53.2374 48.2623 52.9104 49.8172 52.2606 51.2466C51.6109 52.676 50.6545 53.9448 49.4592 54.9629C49.3972 55.0041 49.3463 55.06 49.3111 55.1255C49.2759 55.1911 49.2575 55.2644 49.2575 55.3389C49.2575 55.4133 49.2759 55.4866 49.3111 55.5522C49.3463 55.6178 49.3972 55.6737 49.4592 55.7148L51.7148 56.4667C52.0524 56.6667 52.1073 57.2186 51.7148 57.2186H41.9404C35.9141 57.1058 31.4141 52.7449 31.4141 46.6923Z" stroke="black" stroke-width="1.172" stroke-miterlimit="10" stroke-linecap="round" stroke-linejoin="round"/>
<path d="M84.0451 75.2638H85.5489C87.5406 75.256 89.4485 74.4614 90.8569 73.053C92.2653 71.6446 93.0599 69.7367 93.0677 67.745C93.0677 66.1141 92.024 64.675 90.812 63.2337C89.0075 61.0953 88.5564 58.5119 88.5564 55.7149V50.4517C88.5576 48.4829 88.1583 46.5345 87.3827 44.7249C86.6072 42.9153 85.4716 41.2823 84.0451 39.9254C81.0079 37.0239 76.9673 35.4077 72.7669 35.4141C70.7831 35.3813 68.8129 35.7478 66.9736 36.4919C65.1344 37.236 63.4635 38.3424 62.0606 39.7454C60.6576 41.1484 59.5512 42.8192 58.8071 44.6585C58.063 46.4977 57.6965 48.4679 57.7293 50.4517V55.7149C57.629 58.4941 56.5658 61.152 54.7218 63.2337C50.7098 68.0675 53.7037 75.2638 59.9849 75.2638H62.2406" stroke="black" stroke-width="1.172" stroke-miterlimit="10" stroke-linecap="round" stroke-linejoin="round"/>
<path d="M47.2061 100.827V88.045C47.2061 84.3089 49.0249 81.224 52.4693 79.7744L62.2437 75.2631L63.7475 74.5112C64.8141 74.0887 65.7361 73.3673 66.403 72.4338C67.0698 71.5002 67.4531 70.394 67.5069 69.248" stroke="black" stroke-width="1.172" stroke-miterlimit="10" stroke-linecap="round" stroke-linejoin="round"/>
<path d="M78.0303 69.248C78.0796 70.3953 78.4611 71.5035 79.1285 72.4379C79.7959 73.3723 80.7205 74.0926 81.7897 74.5112L84.0454 75.2631L93.0679 79.7744C94.6707 80.4699 96.0286 81.6293 96.9666 83.1034C97.9046 84.5774 98.3799 86.2985 98.3311 88.045V104.586" stroke="black" stroke-width="1.172" stroke-miterlimit="10" stroke-linecap="round" stroke-linejoin="round"/>
<path d="M84.7979 85.0377V76.0151" stroke="black" stroke-width="1.172" stroke-miterlimit="10" stroke-linecap="round" stroke-linejoin="round"/>
<path d="M60.7374 85.0377V76.0151" stroke="black" stroke-width="1.172" stroke-miterlimit="10" stroke-linecap="round" stroke-linejoin="round"/>
<path d="M60.7374 79.7744C64.6477 80.8842 68.7043 81.3913 72.7675 81.2782C77.5532 81.1947 82.0645 80.6473 84.7976 79.7744" stroke="black" stroke-width="1.172" stroke-miterlimit="10" stroke-linecap="round" stroke-linejoin="round"/>
<path d="M84.0449 51.9551V60.9776C84.0449 66.0836 79.375 70.0002 74.2705 70.0002H71.263C66.157 70.0002 61.4886 66.0836 61.4886 60.9776V51.9551" stroke="black" stroke-width="1.172" stroke-miterlimit="10" stroke-linecap="round" stroke-linejoin="round"/>
<path d="M84.0454 58.7217C83.3357 60.1834 82.3082 61.4679 81.0379 62.4811C80.1546 63.1918 79.1289 63.7046 78.0303 63.9848" stroke="black" stroke-width="1.172" stroke-miterlimit="10" stroke-linecap="round" stroke-linejoin="round"/>
<path d="M75.775 66.2408H73.5194C72.9356 66.197 72.387 65.9454 71.973 65.5314C71.5591 65.1175 71.3074 64.5689 71.2637 63.9851C71.3074 63.4014 71.5591 62.8527 71.973 62.4388C72.387 62.0249 72.9356 61.7732 73.5194 61.7295H75.775C76.3587 61.7732 76.9074 62.0249 77.3213 62.4388C77.7352 62.8527 77.9869 63.4014 78.0306 63.9851C77.9869 64.5689 77.7352 65.1175 77.3213 65.5314C76.9074 65.9454 76.3587 66.197 75.775 66.2408Z" stroke="black" stroke-width="1.172" stroke-miterlimit="10" stroke-linecap="round" stroke-linejoin="round"/>
<path d="M78.0333 49.6992C79.8298 50.9199 81.8921 51.6933 84.0483 51.9549M84.0483 51.9549C84.0927 51.9616 84.0025 51.9488 84.0483 51.9549ZM84.0483 51.9549C85.2951 52.1327 86.5609 52.1327 87.8077 51.9549C88.0521 51.9188 88.3115 52.0067 88.5596 51.9549" stroke="black" stroke-width="1.172" stroke-miterlimit="10" stroke-linecap="round" stroke-linejoin="round"/>
<path d="M81.7897 38.4209C79.4223 42.4622 76.0566 45.8279 72.0153 48.1953C67.9063 50.6262 64.6266 51.6465 62.2408 51.9547H57.7296" stroke="black" stroke-width="1.172" stroke-miterlimit="10" stroke-linecap="round" stroke-linejoin="round"/>
<path d="M56.226 104.587L54.7222 87.2941C54.7117 86.995 54.7629 86.697 54.8725 86.4186C54.9822 86.1402 55.148 85.8873 55.3595 85.6757C55.5711 85.4642 55.824 85.2984 56.1024 85.1888C56.3808 85.0791 56.6788 85.028 56.9779 85.0385H90.0606C91.3034 85.0385 91.6952 86.058 91.5643 87.2941L90.0606 104.587" stroke="black" stroke-width="1.172" stroke-miterlimit="10" stroke-linecap="round" stroke-linejoin="round"/>
<path d="M31.4141 104.586H100.587" stroke="black" stroke-width="1.172" stroke-miterlimit="10" stroke-linecap="round" stroke-linejoin="round"/>
<path d="M76.5276 94.8122C76.5131 95.6053 76.1916 96.3619 75.6307 96.9228C75.0698 97.4837 74.3132 97.8053 73.5201 97.8197C72.727 97.8051 71.9705 97.4835 71.4097 96.9226C70.8488 96.3618 70.5272 95.6053 70.5126 94.8122C70.5272 94.0191 70.8488 93.2627 71.4097 92.7018C71.9705 92.1409 72.727 91.8193 73.5201 91.8047C74.3132 91.8192 75.0698 92.1407 75.6307 92.7016C76.1916 93.2625 76.5131 94.0191 76.5276 94.8122Z" stroke="black" stroke-width="1.172" stroke-miterlimit="10" stroke-linecap="round" stroke-linejoin="round"/>
<path d="M39.3084 46.3158C39.3084 46.894 39.1348 47.8196 38.5566 47.8196C38.1898 47.736 37.854 47.5505 37.588 47.2844C37.3219 47.0184 37.1364 46.6827 37.0528 46.3158C37.0528 45.7376 37.9784 45.564 38.5566 45.564C39.1348 45.564 39.3084 45.7376 39.3084 46.3158Z" fill="black"/>
<path d="M43.8201 46.3158C43.7365 46.6827 43.551 47.0184 43.2849 47.2844C43.0189 47.5505 42.6832 47.736 42.3163 47.8196C41.7382 47.8196 41.5645 46.894 41.5645 46.3158C41.5645 45.7376 41.7382 45.564 42.3163 45.564C42.8945 45.564 43.8201 45.7376 43.8201 46.3158Z" fill="black"/>
<path d="M47.5799 46.3158C47.5799 46.894 47.4062 47.8196 46.8281 47.8196C46.4612 47.736 46.1255 47.5505 45.8595 47.2844C45.5934 47.0184 45.4079 46.6827 45.3243 46.3158C45.3243 45.7376 46.2499 45.564 46.8281 45.564C47.4062 45.564 47.5799 45.7376 47.5799 46.3158Z" fill="black"/>
</g>
</svg>
