<svg width="24" height="24" viewBox="0 0 24 24" fill="none" xmlns="http://www.w3.org/2000/svg">
<path d="M12 24C18.6274 24 24 18.6274 24 12C24 5.37258 18.6274 0 12 0C5.37258 0 0 5.37258 0 12C0 18.6274 5.37258 24 12 24Z" fill="black" fill-opacity="0.4"/>
<path d="M14.9436 10.2976C15.2635 10.4652 15.5303 10.7116 15.7161 11.0111C15.902 11.3105 16 11.6521 16 12C16 12.3479 15.902 12.6895 15.7161 12.9889C15.5303 13.2884 15.2635 13.5348 14.9436 13.7024L11.0207 15.759C10.7102 15.922 10.3605 16.005 10.006 15.9998C9.65162 15.9945 9.30475 15.9012 8.99972 15.7291C8.69468 15.557 8.44202 15.312 8.2667 15.0183C8.09138 14.7246 7.99945 14.3924 8 14.0545V9.94289C7.99992 9.60521 8.09219 9.27334 8.26771 8.98002C8.44323 8.6867 8.69593 8.44206 9.00089 8.27025C9.30585 8.09843 9.65253 8.00536 10.0067 8.00022C10.3609 7.99509 10.7104 8.07807 11.0207 8.24097L14.9436 10.2976Z" fill="#FDFDFD"/>
</svg>
