<svg width="24" height="24" viewBox="0 0 24 24" fill="none" xmlns="http://www.w3.org/2000/svg">
<path d="M11.9998 21C8.13379 21 4.99979 18.676 4.99979 14.7V14.621C5.01247 13.7189 5.26155 12.8359 5.72217 12.0601C6.18278 11.2843 6.83882 10.643 7.62479 10.2C8.37949 9.73545 8.98615 9.06541 9.37367 8.26842C9.76119 7.47142 9.91351 6.58047 9.81279 5.7L9.37479 3L10.9998 3.716C13.9426 5.02267 16.3773 7.25583 17.9328 10.075C18.6345 11.343 19.0017 12.7688 18.9998 14.218V14.7C19.0248 15.9721 18.651 17.2201 17.9308 18.269" stroke="white" stroke-width="1.5" stroke-linecap="round" stroke-linejoin="round"/>
<path d="M11.9995 21C11.5923 20.9871 11.1917 20.894 10.8205 20.7262C10.4493 20.5583 10.1149 20.319 9.83625 20.0218C9.55764 19.7246 9.34033 19.3754 9.19675 18.9942C9.05317 18.6129 8.98614 18.2071 8.99948 17.8C8.99948 16.4 10.0155 15.279 10.9095 14.252L11.9995 13L13.0895 14.252C13.9835 15.28 14.9995 16.4 14.9995 17.8C15.0128 18.2071 14.9458 18.6129 14.8022 18.9942C14.6586 19.3754 14.4413 19.7246 14.1627 20.0218C13.8841 20.319 13.5496 20.5583 13.1785 20.7262C12.8073 20.894 12.4066 20.9871 11.9995 21Z" stroke="white" stroke-width="1.5" stroke-linecap="round" stroke-linejoin="round"/>
</svg>
