<svg width="24" height="24" viewBox="0 0 24 24" fill="none" xmlns="http://www.w3.org/2000/svg">
<g clip-path="url(#clip0_896_10436)">
<path d="M12.924 20.344H18.344C19.2288 20.344 20.0773 19.9925 20.7029 19.3669C21.3285 18.7413 21.68 17.8928 21.68 17.008C21.68 16.1232 21.3285 15.2747 20.7029 14.6491C20.0773 14.0235 19.2288 13.672 18.344 13.672C17.9016 13.672 17.4774 13.8477 17.1645 14.1605C16.8517 14.4734 16.676 14.8976 16.676 15.34V19.926M19.176 13.255V11.588C19.176 9.70849 18.4295 7.90593 17.1007 6.57673C15.7719 5.24753 13.9695 4.50053 12.09 4.5C11.159 4.49974 10.2371 4.68288 9.37693 5.03897C8.51674 5.39506 7.73513 5.91711 7.07673 6.57532C6.41834 7.23353 5.89606 8.01499 5.53973 8.87508C5.1834 9.73516 5 10.657 5 11.588V13.256M5.834 20.344C4.94958 20.3435 4.10157 19.9918 3.47638 19.3662C2.8512 18.7406 2.5 17.8924 2.5 17.008C2.5 16.1232 2.85147 15.2747 3.47709 14.6491C4.10271 14.0235 4.95124 13.672 5.836 13.672C6.27786 13.6731 6.70125 13.8494 7.01322 14.1623C7.3252 14.4752 7.50027 14.8991 7.5 15.341V18.677C7.49974 19.1185 7.32443 19.5419 7.01252 19.8544C6.7006 20.1669 6.27751 20.3429 5.836 20.344H5.834Z" stroke="white" stroke-width="2" stroke-linecap="round"/>
</g>
<defs>
<clipPath id="clip0_896_10436">
<rect width="24" height="24" fill="white"/>
</clipPath>
</defs>
</svg>
