<svg xmlns="http://www.w3.org/2000/svg" xmlns:xlink="http://www.w3.org/1999/xlink" width="66" height="66" viewBox="0 0 66 66">
  <defs>
    <clipPath id="clip-path">
      <rect id="Rectangle_44387" data-name="Rectangle 44387" width="64" height="65" transform="translate(-0.41)" fill="#fff" stroke="#707070" stroke-width="1"/>
    </clipPath>
  </defs>
  <g id="Image" transform="translate(-16 -94)">
    <rect id="Image_background" width="66" height="66" transform="translate(16 94)" fill="#fff"/>
    <g id="Mask_Group_362" data-name="Mask Group 362" transform="translate(18.41 94)" clip-path="url(#clip-path)">
      <g id="technology" transform="translate(-0.348 0)">
        <g id="Group_41947" data-name="Group 41947" transform="translate(12.361 22.308)">
          <g id="Group_41946" data-name="Group 41946">
            <path id="Path_44160" data-name="Path 44160" d="M28.582,15.768a.664.664,0,1,0,0-1.328H4.415V6.208a.627.627,0,0,0-.664-.664.627.627,0,0,0-.664.664V24a.627.627,0,0,0,.664.664A.627.627,0,0,0,4.415,24V15.768Z" transform="translate(-3.087 -5.544)" fill="#797bb1"/>
          </g>
        </g>
        <g id="Group_41949" data-name="Group 41949" transform="translate(25.241 42.624)">
          <g id="Group_41948" data-name="Group 41948">
            <path id="Path_44161" data-name="Path 44161" d="M31.935,10.622a.627.627,0,0,0-.664.664v5.577a3.515,3.515,0,0,1-3.452,3.452H6.971a.664.664,0,1,0,0,1.328H27.818a4.9,4.9,0,0,0,4.913-4.913V11.154c-.133-.133-.4-.531-.8-.531" transform="translate(-6.307 -10.622)" fill="#797bb1"/>
          </g>
        </g>
        <g id="Group_41951" data-name="Group 41951" transform="translate(25.241 9.959)">
          <g id="Group_41950" data-name="Group 41950">
            <path id="Path_44162" data-name="Path 44162" d="M27.686,2.456H6.971a.744.744,0,0,0-.664.8.627.627,0,0,0,.664.664H27.818A3.515,3.515,0,0,1,31.271,7.37v5.577a.664.664,0,1,0,1.328,0V7.37a4.989,4.989,0,0,0-4.913-4.913" transform="translate(-6.307 -2.456)" fill="#797bb1"/>
          </g>
        </g>
        <g id="Group_41953" data-name="Group 41953" transform="translate(37.989 23.105)">
          <g id="Group_41952" data-name="Group 41952">
            <path id="Path_44163" data-name="Path 44163" d="M35.254,5.743v17c-2.921,1.992-7.569,3.32-12.88,3.32s-10.092-1.328-12.88-3.32v-17A17.621,17.621,0,0,0,16.266,8.4a28.757,28.757,0,0,0,3.32.531,19.611,19.611,0,0,0,2.789.133,19.61,19.61,0,0,0,2.789-.133A22.627,22.627,0,0,0,35.254,5.743" transform="translate(-9.494 -5.743)" fill="#ff9797"/>
          </g>
        </g>
        <g id="Group_41955" data-name="Group 41955" transform="translate(0.012 43.687)">
          <g id="Group_41954" data-name="Group 41954" transform="translate(0)">
            <path id="Path_44164" data-name="Path 44164" d="M25.893,10.888c-2.39,1.726-5.975,2.789-10.225,3.187a19.611,19.611,0,0,1-2.789.133,19.611,19.611,0,0,1-2.789-.133A22.627,22.627,0,0,1,0,10.888v17c2.921,1.992,7.569,3.32,12.88,3.32s10.092-1.328,12.88-3.32v-17Z" transform="translate(0 -10.888)" fill="#d6b5b0"/>
          </g>
        </g>
        <g id="Group_41957" data-name="Group 41957" transform="translate(0.145 2.656)">
          <g id="Group_41956" data-name="Group 41956">
            <path id="Path_44165" data-name="Path 44165" d="M25.794.631v17c-2.921,1.992-7.569,3.32-12.88,3.32S2.822,19.619.033,17.627v-17a2.14,2.14,0,0,0,.93.531,16.047,16.047,0,0,0,5.71,2.257,28.757,28.757,0,0,0,3.32.531h2.789a19.611,19.611,0,0,0,2.789-.133A19.829,19.829,0,0,0,25.794.631" transform="translate(-0.033 -0.631)" fill="#b1f1a8"/>
          </g>
        </g>
        <g id="Group_41959" data-name="Group 41959" transform="translate(0.012)">
          <g id="Group_41958" data-name="Group 41958" transform="translate(0)">
            <path id="Path_44166" data-name="Path 44166" d="M25.893,2.623A22.627,22.627,0,0,1,15.8,5.809a19.611,19.611,0,0,1-2.789.133,19.611,19.611,0,0,1-2.789-.133A19.829,19.829,0,0,1,0,2.623C2.921.764,7.569-.033,12.88-.033s10.092.8,13.013,2.656" transform="translate(0 0.033)" fill="#c9f5c2"/>
          </g>
        </g>
        <g id="Group_41961" data-name="Group 41961" transform="translate(15.814 9.162)">
          <g id="Group_41960" data-name="Group 41960">
            <path id="Path_44167" data-name="Path 44167" d="M10.058,11.287l-.531.531a15.058,15.058,0,0,1-4.515,3.054c-.4.133-.664.266-1.062.4v.664a23.233,23.233,0,0,0,10.225-3.187V2.257a14.843,14.843,0,0,1-4.116,9.029" transform="translate(-3.95 -2.257)" fill="#a5e09c"/>
          </g>
        </g>
        <g id="Group_41963" data-name="Group 41963" transform="translate(15.814 50.06)">
          <g id="Group_41962" data-name="Group 41962">
            <path id="Path_44168" data-name="Path 44168" d="M10.058,21.511l-.531.531A15.058,15.058,0,0,1,5.012,25.1c-.4.133-.664.266-1.062.4v.664a23.233,23.233,0,0,0,10.225-3.187V12.481a14.843,14.843,0,0,1-4.116,9.029" transform="translate(-3.95 -12.481)" fill="#c7a8a4"/>
          </g>
        </g>
        <g id="Group_41965" data-name="Group 41965" transform="translate(53.658 29.346)">
          <g id="Group_41964" data-name="Group 41964">
            <path id="Path_44169" data-name="Path 44169" d="M19.519,16.332l-.531.531a15.058,15.058,0,0,1-4.515,3.054c-.4.133-.664.266-1.062.4v.664a23.233,23.233,0,0,0,10.225-3.187V7.3a14.21,14.21,0,0,1-4.116,9.029" transform="translate(-13.411 -7.303)" fill="#ed8c8c"/>
          </g>
        </g>
        <g id="Group_41967" data-name="Group 41967" transform="translate(0.012 41.031)">
          <g id="Group_41966" data-name="Group 41966" transform="translate(0)">
            <path id="Path_44170" data-name="Path 44170" d="M25.893,12.88A22.627,22.627,0,0,1,15.8,16.067a19.611,19.611,0,0,1-2.789.133,19.611,19.611,0,0,1-2.789-.133A22.669,22.669,0,0,1,0,12.88c2.921-1.859,7.569-2.656,12.88-2.656s10.092.8,13.013,2.656" transform="translate(0 -10.224)" fill="#e2cbc8"/>
          </g>
        </g>
        <g id="Group_41969" data-name="Group 41969" transform="translate(37.989 20.449)">
          <g id="Group_41968" data-name="Group 41968">
            <path id="Path_44171" data-name="Path 44171" d="M35.254,7.735a22.627,22.627,0,0,1-10.092,3.187,19.611,19.611,0,0,1-2.789.133,19.611,19.611,0,0,1-2.789-.133A22.627,22.627,0,0,1,9.494,7.735c2.921-1.859,7.569-2.656,12.88-2.656s9.959.8,12.88,2.656" transform="translate(-9.494 -5.079)" fill="#ffb6b6"/>
          </g>
        </g>
        <g id="Group_41971" data-name="Group 41971" transform="translate(14.884 7.782)">
          <g id="Group_41970" data-name="Group 41970">
            <path id="Path_44172" data-name="Path 44172" d="M4.382,5.151a.627.627,0,0,1-.664-.664.627.627,0,0,1,.664-.664,18.6,18.6,0,0,0,7.436-1.859.762.762,0,0,1,.93.266.762.762,0,0,1-.266.93,19.687,19.687,0,0,1-8.1,1.992Z" transform="translate(-3.718 -1.912)" fill="#a5e09c"/>
          </g>
        </g>
        <g id="Group_41973" data-name="Group 41973" transform="translate(10.502 9.693)">
          <g id="Group_41972" data-name="Group 41972">
            <path id="Path_44173" data-name="Path 44173" d="M4.614,3.851H3.286c-.266-.133-.664-.4-.664-.8a.744.744,0,0,1,.8-.664H4.481a.627.627,0,0,1,.664.664c.133.531-.133.8-.531.8Z" transform="translate(-2.622 -2.39)" fill="#a5e09c"/>
          </g>
        </g>
        <g id="Group_41975" data-name="Group 41975" transform="translate(6.616 9.128)">
          <g id="Group_41974" data-name="Group 41974">
            <path id="Path_44174" data-name="Path 44174" d="M3.545,3.877H3.412l-.531-.133a1.974,1.974,0,0,1-.8-.133c-.266-.133-.531-.531-.4-.8a.585.585,0,0,1,.8-.531,1.2,1.2,0,0,0,.664.133l.4.133h.133a.585.585,0,0,1,.531.8A.882.882,0,0,1,3.545,3.877Z" transform="translate(-1.651 -2.249)" fill="#a5e09c"/>
          </g>
        </g>
        <g id="Group_41977" data-name="Group 41977" transform="translate(14.884 16.679)">
          <g id="Group_41976" data-name="Group 41976">
            <path id="Path_44175" data-name="Path 44175" d="M4.382,7.375a.627.627,0,0,1-.664-.664.627.627,0,0,1,.664-.664,18.6,18.6,0,0,0,7.436-1.859.762.762,0,0,1,.93.266.762.762,0,0,1-.266.93,19.687,19.687,0,0,1-8.1,1.992Z" transform="translate(-3.718 -4.136)" fill="#a5e09c"/>
          </g>
        </g>
        <g id="Group_41979" data-name="Group 41979" transform="translate(10.502 18.457)">
          <g id="Group_41978" data-name="Group 41978">
            <path id="Path_44176" data-name="Path 44176" d="M4.614,6.042H3.286a.744.744,0,0,1-.664-.8c0-.4.4-.531.8-.664H4.481a.627.627,0,0,1,.664.664c.133.531-.133.8-.531.8Z" transform="translate(-2.622 -4.581)" fill="#a5e09c"/>
          </g>
        </g>
        <g id="Group_41981" data-name="Group 41981" transform="translate(6.518 17.926)">
          <g id="Group_41980" data-name="Group 41980">
            <path id="Path_44177" data-name="Path 44177" d="M3.618,6.042H3.486l-.531-.133a1.974,1.974,0,0,1-.8-.133.826.826,0,0,1-.531-.8.826.826,0,0,1,.8-.531,1.2,1.2,0,0,0,.664.133l.4.133h.133c.531.133.8.531.664.8A.678.678,0,0,1,3.618,6.042Z" transform="translate(-1.627 -4.448)" fill="#a5e09c"/>
          </g>
        </g>
        <g id="Group_41983" data-name="Group 41983" transform="translate(2.751 16.814)">
          <g id="Group_41982" data-name="Group 41982">
            <path id="Path_44178" data-name="Path 44178" d="M2.2,5.946H2.062A3.408,3.408,0,0,1,1.4,5.681l-.266-.133a.686.686,0,0,1-.4-.93.686.686,0,0,1,.93-.4l.266.133c.133,0,.266.133.531.133a.826.826,0,0,1,.531.8A.981.981,0,0,1,2.2,5.946Z" transform="translate(-0.685 -4.17)" fill="#a5e09c"/>
          </g>
        </g>
        <g id="Group_41985" data-name="Group 41985" transform="translate(52.728 28.231)">
          <g id="Group_41984" data-name="Group 41984">
            <path id="Path_44179" data-name="Path 44179" d="M13.842,10.263a.664.664,0,0,1,0-1.328,18.6,18.6,0,0,0,7.436-1.859.762.762,0,0,1,.93.266.762.762,0,0,1-.266.93,19.687,19.687,0,0,1-8.1,1.992Z" transform="translate(-13.178 -7.024)" fill="#ed8c8c"/>
          </g>
        </g>
        <g id="Group_41987" data-name="Group 41987" transform="translate(48.346 30.01)">
          <g id="Group_41986" data-name="Group 41986">
            <path id="Path_44180" data-name="Path 44180" d="M14.075,8.93H12.747a.744.744,0,0,1-.664-.8c0-.4.531-.664.8-.664h1.062a.627.627,0,0,1,.664.664C14.739,8.664,14.473,8.93,14.075,8.93Z" transform="translate(-12.083 -7.469)" fill="#ed8c8c"/>
          </g>
        </g>
        <g id="Group_41989" data-name="Group 41989" transform="translate(44.363 29.479)">
          <g id="Group_41988" data-name="Group 41988">
            <path id="Path_44181" data-name="Path 44181" d="M13.079,8.93h-.133L12.415,8.8a1.973,1.973,0,0,1-.8-.133.826.826,0,0,1-.531-.8.826.826,0,0,1,.8-.531,1.2,1.2,0,0,0,.664.133.488.488,0,0,1,.4.133h.133c.4.133.664.4.531.8C13.743,8.8,13.344,8.93,13.079,8.93Z" transform="translate(-11.087 -7.336)" fill="#ed8c8c"/>
          </g>
        </g>
        <g id="Group_41991" data-name="Group 41991" transform="translate(52.728 37.128)">
          <g id="Group_41990" data-name="Group 41990">
            <path id="Path_44182" data-name="Path 44182" d="M13.842,12.487a.664.664,0,0,1,0-1.328A18.6,18.6,0,0,0,21.278,9.3a.762.762,0,0,1,.93.266.762.762,0,0,1-.266.93,25.013,25.013,0,0,1-8.1,1.992Z" transform="translate(-13.178 -9.248)" fill="#ed8c8c"/>
          </g>
        </g>
        <g id="Group_41993" data-name="Group 41993" transform="translate(48.479 38.906)">
          <g id="Group_41992" data-name="Group 41992">
            <path id="Path_44183" data-name="Path 44183" d="M13.975,11.154h-1.2a.733.733,0,1,1,.133-1.461h1.062a.627.627,0,0,1,.664.664C14.639,10.888,14.374,11.154,13.975,11.154Z" transform="translate(-12.116 -9.693)" fill="#ed8c8c"/>
          </g>
        </g>
        <g id="Group_41995" data-name="Group 41995" transform="translate(44.363 38.375)">
          <g id="Group_41994" data-name="Group 41994">
            <path id="Path_44184" data-name="Path 44184" d="M13.079,11.154h-.133l-.531-.133a1.974,1.974,0,0,1-.8-.133.826.826,0,0,1-.531-.8.826.826,0,0,1,.8-.531,1.2,1.2,0,0,0,.664.133.488.488,0,0,1,.4.133h.133c.4.133.664.4.531.8C13.743,10.888,13.344,11.154,13.079,11.154Z" transform="translate(-11.087 -9.56)" fill="#ed8c8c"/>
          </g>
        </g>
        <g id="Group_41997" data-name="Group 41997" transform="translate(40.595 37.13)">
          <g id="Group_41996" data-name="Group 41996" transform="translate(0)">
            <path id="Path_44185" data-name="Path 44185" d="M11.656,11.025h-.133a3.408,3.408,0,0,1-.664-.266l-.266-.133A.715.715,0,0,1,11.125,9.3l.266.133c.133,0,.266.133.531.133a.826.826,0,0,1,.531.8C12.32,10.892,12.054,11.025,11.656,11.025Z" transform="translate(-10.145 -9.249)" fill="#ed8c8c"/>
          </g>
        </g>
        <g id="Group_41999" data-name="Group 41999" transform="translate(14.884 48.548)">
          <g id="Group_41998" data-name="Group 41998">
            <path id="Path_44186" data-name="Path 44186" d="M4.382,15.342a.664.664,0,1,1,0-1.328,18.6,18.6,0,0,0,7.436-1.859.762.762,0,0,1,.93.266.762.762,0,0,1-.266.93,19.687,19.687,0,0,1-8.1,1.992Z" transform="translate(-3.718 -12.103)" fill="#c7a8a4"/>
          </g>
        </g>
        <g id="Group_42001" data-name="Group 42001" transform="translate(10.502 50.459)">
          <g id="Group_42000" data-name="Group 42000">
            <path id="Path_44187" data-name="Path 44187" d="M4.614,14.042H3.286a.733.733,0,0,1,.133-1.461H4.481a.627.627,0,0,1,.664.664c.133.531-.133.8-.531.8Z" transform="translate(-2.622 -12.581)" fill="#c7a8a4"/>
          </g>
        </g>
        <g id="Group_42003" data-name="Group 42003" transform="translate(6.601 49.928)">
          <g id="Group_42002" data-name="Group 42002">
            <path id="Path_44188" data-name="Path 44188" d="M3.556,14.042H3.423l-.531-.133a1.974,1.974,0,0,1-.8-.133.592.592,0,0,1-.4-.8,1.092,1.092,0,0,1,.8-.531,1.2,1.2,0,0,0,.664.133.488.488,0,0,1,.4.133h.133a.585.585,0,0,1,.531.8A.882.882,0,0,1,3.556,14.042Z" transform="translate(-1.647 -12.448)" fill="#c7a8a4"/>
          </g>
        </g>
        <g id="Group_42005" data-name="Group 42005" transform="translate(14.884 57.444)">
          <g id="Group_42004" data-name="Group 42004">
            <path id="Path_44189" data-name="Path 44189" d="M4.382,17.566a.664.664,0,1,1,0-1.328,18.6,18.6,0,0,0,7.436-1.859.684.684,0,1,1,.664,1.2,19.687,19.687,0,0,1-8.1,1.992Z" transform="translate(-3.718 -14.327)" fill="#c7a8a4"/>
          </g>
        </g>
        <g id="Group_42007" data-name="Group 42007" transform="translate(10.502 59.355)">
          <g id="Group_42006" data-name="Group 42006">
            <path id="Path_44190" data-name="Path 44190" d="M4.614,16.266H3.286A.733.733,0,0,1,3.419,14.8H4.481a.627.627,0,0,1,.664.664.585.585,0,0,1-.531.8Z" transform="translate(-2.622 -14.805)" fill="#c7a8a4"/>
          </g>
        </g>
        <g id="Group_42009" data-name="Group 42009" transform="translate(6.601 58.691)">
          <g id="Group_42008" data-name="Group 42008">
            <path id="Path_44191" data-name="Path 44191" d="M3.556,16.232H3.423L2.892,16.1a1.974,1.974,0,0,1-.8-.133c-.4,0-.531-.4-.4-.8a.826.826,0,0,1,.8-.531,1.2,1.2,0,0,0,.664.133l.4.133h.133a.755.755,0,0,1,.531.93A.73.73,0,0,1,3.556,16.232Z" transform="translate(-1.647 -14.639)" fill="#c7a8a4"/>
          </g>
        </g>
        <g id="Group_42011" data-name="Group 42011" transform="translate(2.751 57.579)">
          <g id="Group_42010" data-name="Group 42010">
            <path id="Path_44192" data-name="Path 44192" d="M2.2,16.137H2.062a3.407,3.407,0,0,1-.664-.266l-.266-.133a.686.686,0,0,1-.4-.93.686.686,0,0,1,.93-.4l.266.133c.133,0,.266.133.531.133a.826.826,0,0,1,.531.8.981.981,0,0,1-.8.664Z" transform="translate(-0.685 -14.361)" fill="#c7a8a4"/>
          </g>
        </g>
        <g id="Group_42013" data-name="Group 42013" transform="translate(0.012 2.656)">
          <g id="Group_42012" data-name="Group 42012" transform="translate(0 0)">
            <path id="Path_44193" data-name="Path 44193" d="M6.772,3.419A14.391,14.391,0,0,1,4.78,10.059,12.6,12.6,0,0,1,0,15.1V.631a2.14,2.14,0,0,0,.93.531A17.89,17.89,0,0,0,6.772,3.419" transform="translate(0 -0.631)" fill="#c9f5c2"/>
          </g>
        </g>
        <g id="Group_42015" data-name="Group 42015" transform="translate(37.856 23.105)">
          <g id="Group_42014" data-name="Group 42014">
            <path id="Path_44194" data-name="Path 44194" d="M16.233,8.4A13.508,13.508,0,0,1,14.241,14.9a12.6,12.6,0,0,1-4.78,5.046V5.743A18.527,18.527,0,0,0,16.233,8.4" transform="translate(-9.461 -5.743)" fill="#ffb6b6"/>
          </g>
        </g>
        <g id="Group_42017" data-name="Group 42017" transform="translate(2.751 7.932)">
          <g id="Group_42016" data-name="Group 42016">
            <path id="Path_44195" data-name="Path 44195" d="M2.2,3.711H2.062c-.4-.133-.531-.133-.664-.266l-.266-.133a.686.686,0,0,1-.4-.93c.133-.266.531-.531.8-.4l.4.133c.133,0,.266.133.531.133a.826.826,0,0,1,.531.8A.981.981,0,0,1,2.2,3.711Z" transform="translate(-0.685 -1.95)" fill="#a5e09c"/>
          </g>
        </g>
        <g id="Group_42019" data-name="Group 42019" transform="translate(0 10.571)">
          <g id="Group_42018" data-name="Group 42018">
            <path id="Path_44196" data-name="Path 44196" d="M12.889,7.176H11.03C6.781,6.778,2.8,5.583.275,3.857a.656.656,0,0,1-.133-.93.569.569,0,0,1,.93-.133A21.025,21.025,0,0,0,11.03,5.716a16.183,16.183,0,0,0,3.585,0c3.984-.266,7.7-1.328,9.959-2.921a.641.641,0,0,1,.93.133.641.641,0,0,1-.133.93A22.391,22.391,0,0,1,14.615,7.044a6.49,6.49,0,0,1-1.726.133Z" transform="translate(0.003 -2.609)" fill="#a5e09c"/>
          </g>
        </g>
        <g id="Group_42021" data-name="Group 42021" transform="translate(2.751 48.816)">
          <g id="Group_42020" data-name="Group 42020">
            <path id="Path_44197" data-name="Path 44197" d="M2.2,13.813H2.062a3.407,3.407,0,0,1-.664-.266l-.266-.133a.592.592,0,0,1-.4-.8.686.686,0,0,1,.93-.4H1.93c.133,0,.266.133.531.133a.826.826,0,0,1,.531.8A.981.981,0,0,1,2.2,13.813Z" transform="translate(-0.685 -12.17)" fill="#c7a8a4"/>
          </g>
        </g>
        <g id="Group_42023" data-name="Group 42023" transform="translate(0 51.642)">
          <g id="Group_42022" data-name="Group 42022">
            <path id="Path_44198" data-name="Path 44198" d="M12.889,17.271H11.03A22.391,22.391,0,0,1,.275,14.084a.656.656,0,0,1-.133-.93.656.656,0,0,1,.93-.133,21.025,21.025,0,0,0,9.959,2.921,16.183,16.183,0,0,0,3.585,0c3.984-.266,7.7-1.328,9.959-2.921a.664.664,0,0,1,.8,1.062,22.391,22.391,0,0,1-10.756,3.187Z" transform="translate(0.003 -12.877)" fill="#c7a8a4"/>
          </g>
        </g>
        <g id="Group_42025" data-name="Group 42025" transform="translate(40.595 28.234)">
          <g id="Group_42024" data-name="Group 42024" transform="translate(0)">
            <path id="Path_44199" data-name="Path 44199" d="M11.656,8.8h-.133a3.408,3.408,0,0,1-.664-.266L10.593,8.4a.715.715,0,0,1,.531-1.328l.266.133c.133,0,.266.133.531.133a.826.826,0,0,1,.531.8C12.32,8.668,12.054,8.8,11.656,8.8Z" transform="translate(-10.145 -7.025)" fill="#ed8c8c"/>
          </g>
        </g>
        <g id="Group_42027" data-name="Group 42027" transform="translate(37.977 31.06)">
          <g id="Group_42026" data-name="Group 42026">
            <path id="Path_44200" data-name="Path 44200" d="M22.383,12.125H20.524A22.391,22.391,0,0,1,9.768,8.938a.664.664,0,0,1,.8-1.062A21.025,21.025,0,0,0,20.524,10.8a16.183,16.183,0,0,0,3.585,0c3.984-.266,7.7-1.328,9.959-2.921a.664.664,0,0,1,.8,1.062,22.391,22.391,0,0,1-10.756,3.187Z" transform="translate(-9.491 -7.731)" fill="#ed8c8c"/>
          </g>
        </g>
      </g>
    </g>
  </g>
</svg>
