<svg xmlns="http://www.w3.org/2000/svg" width="24" height="24" viewBox="0 0 24 24">
  <g id="icon_arrow_black" transform="translate(0)">
    <rect id="Rectangle_44469" data-name="Rectangle 44469" width="24" height="24" transform="translate(0)" fill="none"/>
    <path id="path9429" d="M9.675,1255.753a1.1,1.1,0,0,0-1.059.741,1.161,1.161,0,0,0,.332,1.274l6.752,5.966L8.949,1269.7a1.155,1.155,0,0,0-.436,1.1,1.128,1.128,0,0,0,.75.9,1.08,1.08,0,0,0,1.119-.277l7.73-6.821a1.161,1.161,0,0,0,0-1.731l-7.73-6.828a1.084,1.084,0,0,0-.707-.287Z" transform="translate(-1.499 -1251.752)" fill="#454545"/>
  </g>
</svg>
