<svg width="96" height="60" viewBox="0 0 96 60" fill="none" xmlns="http://www.w3.org/2000/svg">
<path d="M45.6213 36.5203C45.6213 37.2454 45.4818 37.3848 44.7565 37.3848H43.5011C42.7757 37.3848 42.6362 37.2454 42.6362 36.5203V34.15H40.712V36.8267C40.712 38.3047 41.4374 39.0291 42.9152 39.0291H45.3423C46.8209 39.0291 47.5455 38.3039 47.5455 36.8267V31.4734C47.5455 29.9953 46.8201 29.2709 45.3423 29.2709H43.4453C42.7199 29.2709 42.5804 29.1316 42.5804 28.4064V24.1963C42.5804 23.4712 42.7199 23.3318 43.4453 23.3318H44.7286C45.4539 23.3318 45.5934 23.4712 45.5934 24.1963V26.5666H47.5176V23.8899C47.5176 22.4119 46.7922 21.6875 45.3144 21.6875H42.8594C41.3808 21.6875 40.6562 22.4127 40.6562 23.8899V28.7136C40.6562 30.1916 41.3816 30.916 42.8594 30.916H44.7565C45.4818 30.916 45.6213 31.0554 45.6213 31.7805V36.5203ZM55.5003 36.9768C55.5003 37.5695 55.3864 37.6842 54.7928 37.6842H53.8799C53.332 37.6842 53.1049 37.4787 53.1049 36.8628V30.1331C53.1049 29.5173 53.3328 29.3117 53.8799 29.3117H54.7928C55.3864 29.3117 55.5003 29.4257 55.5003 30.0192V36.9768ZM54.3596 27.97C54.0951 27.9331 53.8259 27.9878 53.5973 28.1249C53.3686 28.262 53.1945 28.4732 53.1042 28.7228V27.97H51.5295V42.25H53.1042V38.277C53.1945 38.5266 53.3686 38.7378 53.5973 38.8749C53.8259 39.012 54.0951 39.0667 54.3596 39.0299H55.2724C55.5187 39.0653 55.7698 39.0429 56.0057 38.9645C56.2417 38.8862 56.4559 38.754 56.6311 38.5785C56.8063 38.4031 56.9378 38.1893 57.0148 37.9544C57.0919 37.7194 57.1125 37.4697 57.075 37.2254V29.7659C57.1121 29.5218 57.0912 29.2724 57.014 29.0377C56.9367 28.8031 56.8052 28.5896 56.63 28.4145C56.4548 28.2393 56.2408 28.1073 56.0051 28.0291C55.7693 27.9508 55.5184 27.9285 55.2724 27.9638L54.3596 27.97ZM62.0958 39.0299V27.9661H60.5211V39.0299H62.0958ZM60.4754 25.5935H62.1377V23.746H60.4715L60.4754 25.5935ZM67.8242 37.6873C67.2306 37.6873 67.1167 37.5734 67.1167 36.9799V29.9961C67.1167 29.4033 67.2306 29.2886 67.8242 29.2886H68.7371C69.2849 29.2886 69.512 29.4942 69.512 30.11V36.8621C69.512 37.4779 69.2842 37.6835 68.7371 37.6835L67.8242 37.6873ZM69.5128 23.7722V28.699C69.4224 28.4493 69.2483 28.2382 69.0197 28.1011C68.791 27.9639 68.5219 27.9092 68.2574 27.9461H67.3445C67.0985 27.9108 66.8476 27.9331 66.6119 28.0114C66.3761 28.0896 66.1621 28.2216 65.9869 28.3968C65.8117 28.5719 65.6802 28.7854 65.603 29.02C65.5257 29.2547 65.5048 29.5041 65.542 29.7482V37.2254C65.5048 37.4696 65.5257 37.7189 65.603 37.9536C65.6802 38.1883 65.8117 38.4017 65.9869 38.5769C66.1621 38.752 66.3761 38.884 66.6119 38.9623C66.8476 39.0405 67.0985 39.0629 67.3445 39.0276H68.2597C68.5242 39.0644 68.7934 39.0097 69.022 38.8726C69.2506 38.7355 69.4248 38.5243 69.5151 38.2747V39.0276H71.0898V23.7683L69.5128 23.7722ZM76.2222 32.6881V30.0192C76.2222 29.4264 76.3361 29.3117 76.9298 29.3117H78.0705C78.6641 29.3117 78.778 29.4257 78.778 30.0192V32.6881H76.2222ZM76.4501 27.9661C76.2041 27.9308 75.9532 27.9531 75.7174 28.0314C75.4817 28.1096 75.2677 28.2416 75.0925 28.4168C74.9173 28.5919 74.7858 28.8054 74.7085 29.04C74.6313 29.2747 74.6104 29.5241 74.6475 29.7682V37.2254C74.61 37.4698 74.6306 37.7195 74.7077 37.9546C74.7848 38.1896 74.9163 38.4034 75.0916 38.5789C75.267 38.7543 75.4812 38.8865 75.7173 38.9648C75.9533 39.0432 76.2046 39.0654 76.4508 39.0299H78.482C78.7282 39.0653 78.9793 39.0429 79.2153 38.9645C79.4512 38.8862 79.6654 38.754 79.8406 38.5785C80.0159 38.4031 80.1473 38.1893 80.2244 37.9544C80.3014 37.7194 80.322 37.4697 80.2845 37.2254V35.9729H78.7098V36.9737C78.7098 37.5665 78.5959 37.6812 78.0023 37.6812H76.9298C76.3361 37.6812 76.2222 37.5672 76.2222 36.9737V34.0338H80.3527V29.7682C80.3899 29.524 80.369 29.2746 80.2917 29.0398C80.2144 28.8051 80.0828 28.5916 79.9075 28.4164C79.7322 28.2412 79.5181 28.1093 79.2823 28.0311C79.0464 27.9529 78.7954 27.9306 78.5494 27.9661H76.4501ZM86.9025 27.9661C86.5262 27.9731 86.1625 28.1015 85.8661 28.3319C85.5698 28.5622 85.3569 28.8821 85.2596 29.2432V27.9661H83.6849V39.0299H85.2596V31.0454C85.2596 29.8822 85.6936 29.3348 86.6971 29.3348H87.3814V27.9661H86.9025ZM93.4298 36.9991C93.4298 37.5919 93.3159 37.7066 92.7223 37.7066H92.1024C91.5087 37.7066 91.3948 37.5926 91.3948 36.9991V36.11H89.8449V37.2254C89.8078 37.4696 89.8287 37.7189 89.9059 37.9536C89.9832 38.1883 90.1147 38.4017 90.2899 38.5769C90.4651 38.752 90.6791 38.884 90.9148 38.9623C91.1506 39.0405 91.4015 39.0629 91.6475 39.0276H93.1764C93.4226 39.0634 93.6739 39.0415 93.9101 38.9635C94.1462 38.8854 94.3607 38.7535 94.5362 38.5783C94.7118 38.4031 94.8435 38.1894 94.921 37.9545C94.9984 37.7196 95.0193 37.4699 94.982 37.2254V34.6727C95.0192 34.4285 94.9983 34.1791 94.921 33.9443C94.8437 33.7096 94.7122 33.4961 94.5369 33.3209C94.3616 33.1457 94.1475 33.0138 93.9116 32.9356C93.6758 32.8574 93.4248 32.8351 93.1787 32.8706H92.0605C91.4669 32.8706 91.353 32.7567 91.353 32.1631V29.9961C91.353 29.4033 91.4669 29.2886 92.0605 29.2886H92.6998C93.2934 29.2886 93.4074 29.4026 93.4074 29.9961V30.886H94.9572V29.7682C94.9944 29.5241 94.9735 29.2747 94.8962 29.04C94.819 28.8054 94.6875 28.5919 94.5123 28.4168C94.3371 28.2416 94.1231 28.1096 93.8874 28.0314C93.6516 27.9531 93.4007 27.9308 93.1547 27.9661H91.6048C91.3589 27.9309 91.1081 27.9534 90.8725 28.0317C90.6368 28.11 90.4229 28.242 90.2478 28.4171C90.0727 28.5923 89.9413 28.8057 89.8641 29.0403C89.7869 29.2749 89.766 29.5242 89.8031 29.7682V32.391C89.7659 32.6351 89.7868 32.8845 89.8641 33.1192C89.9414 33.3539 90.0728 33.5673 90.248 33.7425C90.4232 33.9176 90.6372 34.0496 90.873 34.1278C91.1087 34.2061 91.3596 34.2285 91.6056 34.1931H92.7239C93.3175 34.1931 93.4314 34.3071 93.4314 34.9006L93.4298 36.9991Z" fill="black"/>
<path d="M40.4612 18.7416C40.0278 21.3943 38.9443 23.6122 37.2107 25.3951C35.5204 27.1346 33.4401 28.3958 30.9697 29.1785C33.0501 29.6134 34.7186 30.6571 35.9755 32.3096C37.2757 33.9622 37.9258 35.9191 37.9258 38.1804C37.9258 38.7892 37.8608 39.4633 37.7308 40.2026C37.124 43.899 35.2604 46.8779 32.1399 49.1392C29.0628 51.4006 25.2055 52.5312 20.5681 52.5312H1L9.06127 7H27.7842C31.9015 7 35.0654 7.86975 37.2757 9.60924C39.5294 11.3487 40.6562 13.6753 40.6562 16.589C40.6562 17.2848 40.5912 18.0023 40.4612 18.7416ZM30.9697 20.1114C31.0131 19.8505 31.0347 19.4591 31.0347 18.9373C31.0347 17.4152 30.5363 16.2411 29.5395 15.4148C28.5427 14.5885 27.0908 14.1754 25.1838 14.1754H16.9275L14.8472 25.917H23.1685C25.2922 25.917 27.0474 25.4169 28.4343 24.4167C29.8212 23.373 30.6663 21.9379 30.9697 20.1114ZM28.6944 39.0937C28.781 38.4848 28.8244 38.05 28.8244 37.789C28.8244 36.2235 28.261 35.0059 27.1341 34.1361C26.0506 33.2229 24.5337 32.7663 22.5834 32.7663H13.612L11.4667 45.2906H20.6331C22.8434 45.2906 24.6637 44.747 26.094 43.6598C27.5242 42.5726 28.391 41.0506 28.6944 39.0937Z" fill="#EF994A"/>
</svg>
