<svg id="icon_menu_normal_16" xmlns="http://www.w3.org/2000/svg" width="24" height="24" viewBox="0 0 24 24">
  <rect id="background" width="24" height="24" fill="none"/>
  <path id="Path_32234" data-name="Path 32234" d="M10.139,7.086l.535.714.611-.65A2.9,2.9,0,0,1,13.4,6.219a2.958,2.958,0,0,1,2.583,1.571l.335.61.633-.289a3.651,3.651,0,0,1,1.52-.33,3.846,3.846,0,0,1,3.777,3.91A3.846,3.846,0,0,1,18.473,15.6h0a3.66,3.66,0,0,1-.74-.075l-.542-.112-.267.485a2.549,2.549,0,0,1-2.231,1.341,2.489,2.489,0,0,1-1.114-.262l-.718-.357-.308.74a3,3,0,0,1-5.621-.141l-.223-.617-.641.139a2.643,2.643,0,0,1-.561.06A2.811,2.811,0,0,1,2.75,13.94a2.885,2.885,0,0,1,1.387-2.486l.562-.335-.257-.6a3.46,3.46,0,0,1-.276-1.359A3.368,3.368,0,0,1,7.5,5.75,3.3,3.3,0,0,1,10.139,7.086Z" transform="translate(-0.5 -0.5)" fill="none" stroke="#454545" stroke-width="1.5"/>
  <path id="Path_32235" data-name="Path 32235" d="M6,13.085c-.011.029,0,.035.008.04a1.021,1.021,0,0,0,.1.061,1.071,1.071,0,0,0,.526.123c.361,0,.585-.192.585-.5V12.8c0-.286-.253-.389-.49-.464l-.031-.01c-.179-.058-.333-.108-.333-.226V12.1c0-.1.09-.175.23-.175a1.04,1.04,0,0,1,.458.117s.035.023.048-.011l.073-.2a.034.034,0,0,0-.018-.041,1.023,1.023,0,0,0-.517-.139H6.607a.5.5,0,0,0-.561.485v.006c0,.3.254.4.492.467l.038.012c.174.053.323.1.323.221v.006c0,.112-.1.195-.254.195a.852.852,0,0,1-.465-.134c-.025-.015-.04-.026-.06-.037a.029.029,0,0,0-.047.016Zm5.28,0c-.011.029,0,.035.007.04a1.015,1.015,0,0,0,.1.061,1.072,1.072,0,0,0,.526.123c.361,0,.585-.192.585-.5V12.8c0-.286-.253-.389-.49-.464l-.031-.01c-.179-.058-.333-.108-.333-.226V12.1c0-.1.09-.175.23-.175a1.04,1.04,0,0,1,.458.117s.035.023.048-.011l.073-.2a.034.034,0,0,0-.017-.041,1.023,1.023,0,0,0-.517-.139h-.036a.5.5,0,0,0-.561.485v.006c0,.3.254.4.492.467l.038.012c.174.053.323.1.323.221v.006c0,.112-.1.195-.254.195a.852.852,0,0,1-.465-.134c-.025-.015-.04-.025-.059-.037a.031.031,0,0,0-.048.016Zm3.6-.605a.742.742,0,0,1-.1.409.324.324,0,0,1-.293.143.319.319,0,0,1-.292-.143.924.924,0,0,1,0-.817.321.321,0,0,1,.292-.142.325.325,0,0,1,.293.142A.736.736,0,0,1,14.889,12.48Zm.3-.324a.724.724,0,0,0-.137-.262.662.662,0,0,0-.231-.176.839.839,0,0,0-.645,0,.667.667,0,0,0-.231.176.737.737,0,0,0-.137.262,1.21,1.21,0,0,0,0,.647.728.728,0,0,0,.137.262.645.645,0,0,0,.231.174.857.857,0,0,0,.645,0,.646.646,0,0,0,.231-.174.727.727,0,0,0,.137-.262,1.2,1.2,0,0,0,0-.647Zm2.473.829a.029.029,0,0,0-.038-.018.688.688,0,0,1-.14.04,1.083,1.083,0,0,1-.165.012.458.458,0,0,1-.344-.129.575.575,0,0,1-.129-.411.638.638,0,0,1,.115-.4.393.393,0,0,1,.334-.147,1,1,0,0,1,.318.046s.024.01.035-.021c.026-.073.046-.126.074-.206a.027.027,0,0,0-.019-.035,1.167,1.167,0,0,0-.2-.051,1.508,1.508,0,0,0-.226-.015.818.818,0,0,0-.336.065.7.7,0,0,0-.243.175.748.748,0,0,0-.146.262,1.041,1.041,0,0,0-.049.324.867.867,0,0,0,.2.6.762.762,0,0,0,.594.224,1.226,1.226,0,0,0,.426-.076.027.027,0,0,0,.012-.036Zm.527-.673a.59.59,0,0,1,.082-.24.324.324,0,0,1,.291-.148.316.316,0,0,1,.285.148.5.5,0,0,1,.068.24ZM19.2,12.1a.634.634,0,0,0-.13-.238.6.6,0,0,0-.193-.148.747.747,0,0,0-.292-.059.8.8,0,0,0-.336.065.67.67,0,0,0-.235.179.736.736,0,0,0-.138.264,1.145,1.145,0,0,0-.045.325,1.09,1.09,0,0,0,.046.325.654.654,0,0,0,.4.429,1.025,1.025,0,0,0,.37.06,1.066,1.066,0,0,0,.513-.1c.011-.006.022-.017.008-.049l-.067-.187a.029.029,0,0,0-.038-.017.985.985,0,0,1-.418.075.417.417,0,0,1-.467-.459H19.2a.03.03,0,0,0,.03-.027A1.093,1.093,0,0,0,19.2,12.1Zm-9.176.213a.6.6,0,0,1,.082-.24.324.324,0,0,1,.291-.148.317.317,0,0,1,.286.148.507.507,0,0,1,.067.24ZM11.04,12.1a.633.633,0,0,0-.13-.238.6.6,0,0,0-.193-.148.747.747,0,0,0-.292-.059.8.8,0,0,0-.336.065.67.67,0,0,0-.235.179.734.734,0,0,0-.138.264,1.153,1.153,0,0,0-.045.325,1.089,1.089,0,0,0,.046.325.654.654,0,0,0,.4.429,1.024,1.024,0,0,0,.37.06A1.066,1.066,0,0,0,11,13.2c.011-.006.022-.017.008-.049l-.066-.187a.03.03,0,0,0-.039-.017.984.984,0,0,1-.418.075.417.417,0,0,1-.467-.459h1.019a.03.03,0,0,0,.03-.027A1.092,1.092,0,0,0,11.04,12.1Zm-3.216.881a.208.208,0,0,1-.059-.06.246.246,0,0,1-.03-.132.223.223,0,0,1,.091-.2.457.457,0,0,1,.3-.074,2.094,2.094,0,0,1,.277.023V13a2.066,2.066,0,0,1-.275.037A.459.459,0,0,1,7.824,12.98Zm.406-.716c-.041,0-.095,0-.159,0a.966.966,0,0,0-.251.032.654.654,0,0,0-.213.1.476.476,0,0,0-.2.4.533.533,0,0,0,.047.233.419.419,0,0,0,.133.159.558.558,0,0,0,.208.09,1.217,1.217,0,0,0,.27.028,1.828,1.828,0,0,0,.31-.026c.1-.017.223-.042.257-.049l.071-.018a.032.032,0,0,0,.023-.033v-.932a.57.57,0,0,0-.162-.45.693.693,0,0,0-.468-.141,1.686,1.686,0,0,0-.273.025.985.985,0,0,0-.314.115.032.032,0,0,0-.009.041l.072.194a.026.026,0,0,0,.033.016l.017-.008a1.035,1.035,0,0,1,.444-.1A.41.41,0,0,1,8.314,12c.056.043.084.107.084.243v.043C8.31,12.271,8.23,12.264,8.23,12.264Zm8.22-.525a.027.027,0,0,0-.015-.037.878.878,0,0,0-.171-.029.508.508,0,0,0-.263.042.464.464,0,0,0-.172.127v-.124a.03.03,0,0,0-.029-.031h-.261a.03.03,0,0,0-.029.031v1.52a.031.031,0,0,0,.031.031h.268a.031.031,0,0,0,.031-.031v-.759a.891.891,0,0,1,.034-.267.385.385,0,0,1,.089-.15.313.313,0,0,1,.126-.076.492.492,0,0,1,.137-.019.575.575,0,0,1,.112.014c.019,0,.031-.01.037-.028C16.391,11.906,16.44,11.767,16.45,11.739Z" transform="translate(-0.5 -0.5)" fill="#454545"/>
</svg>
