<svg id="icon_menu_normal_15" xmlns="http://www.w3.org/2000/svg" width="24" height="24" viewBox="0 0 24 24">
  <rect id="background" width="24" height="24" fill="none"/>
  <g id="Group_23578" data-name="Group 23578" transform="translate(3.5 8.5)">
    <path id="Path_32222" data-name="Path 32222" d="M20.845,7.5l-8.448,9H2.5v-9Z" transform="translate(-2.5 -7.5)" fill="none" stroke="#454545" stroke-width="1"/>
    <path id="Path_32223" data-name="Path 32223" d="M12.688,9.11H11.037l.005,3.69L9.6,9.109H8.179L6.952,12.192c-.13-.785-.984-1.055-1.656-1.258-.443-.135-.914-.334-.909-.554,0-.181.252-.348.745-.323a2.806,2.806,0,0,1,1.2.309l.572-.947A4.638,4.638,0,0,0,5.044,9h0a2.332,2.332,0,0,0-1.646.571A1.285,1.285,0,0,0,3,10.483a1.206,1.206,0,0,0,.565,1.092,3.948,3.948,0,0,0,1.119.486c.457.134.83.252.825.5a.36.36,0,0,1-.108.244.749.749,0,0,1-.53.158,2.363,2.363,0,0,1-1.362-.37L3,13.554A3.678,3.678,0,0,0,4.8,14h.149a2.323,2.323,0,0,0,1.418-.426c.021-.016.04-.033.06-.049l-.062.306,1.393,0,.25-.608a2.865,2.865,0,0,0,.879.132,2.9,2.9,0,0,0,.858-.125l.174.6,2.5,0,.006-1.386h.532c1.286,0,2.046-.622,2.046-1.664C15,9.616,14.261,9.11,12.688,9.11Zm-3.8,3.154a1.562,1.562,0,0,1-.527-.088l.521-1.564h.01L9.4,12.181A1.615,1.615,0,0,1,8.885,12.264Zm3.9-.9h-.363v-1.26h.363c.483,0,.869.153.869.622,0,.486-.386.638-.869.638" transform="translate(-2.5 -7.5)" fill="#454545" fill-rule="evenodd"/>
  </g>
</svg>
