<svg width="24" height="24" viewBox="0 0 24 24" fill="none" xmlns="http://www.w3.org/2000/svg">
<g clip-path="url(#clip0_896_10284)">
<path d="M22 22L20 20M14.25 14.177L16.776 12.143C16.8452 12.0932 16.9015 12.0276 16.9404 11.9517C16.9792 11.8758 16.9995 11.7918 16.9995 11.7065C16.9995 11.6212 16.9792 11.5372 16.9404 11.4613C16.9015 11.3854 16.8452 11.3198 16.776 11.27L14.25 9.235M12.188 8L10.813 15M8.75 14.177L6.224 12.143C6.15482 12.0932 6.09848 12.0276 6.05962 11.9517C6.02076 11.8758 6.0005 11.7918 6.0005 11.7065C6.0005 11.6212 6.02076 11.5372 6.05962 11.4613C6.09848 11.3854 6.15482 11.3198 6.224 11.27L8.75 9.235M21 11.5C21 13.3789 20.4428 15.2157 19.399 16.7779C18.3551 18.3402 16.8714 19.5578 15.1355 20.2769C13.3996 20.9959 11.4895 21.184 9.64664 20.8175C7.80382 20.4509 6.11108 19.5461 4.78248 18.2175C3.45388 16.8889 2.5491 15.1962 2.18254 13.3534C1.81598 11.5105 2.00411 9.60041 2.72314 7.86451C3.44217 6.12861 4.65981 4.64491 6.22208 3.60104C7.78435 2.55717 9.62107 2 11.5 2C14.0196 2 16.4359 3.00089 18.2175 4.78249C19.9991 6.56408 21 8.98044 21 11.5Z" stroke="white" stroke-width="2" stroke-linecap="round" stroke-linejoin="round"/>
</g>
<defs>
<clipPath id="clip0_896_10284">
<rect width="24" height="24" fill="white"/>
</clipPath>
</defs>
</svg>
