<svg id="icon_menu_hover_1" xmlns="http://www.w3.org/2000/svg" width="24" height="24" viewBox="0 0 24 24">
  <rect id="background" width="24" height="24" fill="none"/>
  <path id="Path_32229" data-name="Path 32229" d="M9,5h7m-3.5,7.5H16M12.5,5V18a2.006,2.006,0,0,0,2,2H16M7,8H4A2.006,2.006,0,0,1,2,6V4A2.006,2.006,0,0,1,4,2H7A2.006,2.006,0,0,1,9,4V6A2.006,2.006,0,0,1,7,8ZM20.8,7H17.2A1.2,1.2,0,0,1,16,5.8V4.2A1.2,1.2,0,0,1,17.2,3h3.6A1.2,1.2,0,0,1,22,4.2V5.8A1.2,1.2,0,0,1,20.8,7Zm0,7.5H17.2A1.2,1.2,0,0,1,16,13.3V11.7a1.2,1.2,0,0,1,1.2-1.2h3.6A1.2,1.2,0,0,1,22,11.7v1.6A1.2,1.2,0,0,1,20.8,14.5Zm0,7.5H17.2A1.2,1.2,0,0,1,16,20.8V19.2A1.2,1.2,0,0,1,17.2,18h3.6A1.2,1.2,0,0,1,22,19.2v1.6A1.2,1.2,0,0,1,20.8,22Z" fill="none" stroke="#454545" stroke-linecap="round" stroke-linejoin="round" stroke-width="2"/>
</svg>
