<svg width="24" height="24" viewBox="0 0 24 24" fill="none" xmlns="http://www.w3.org/2000/svg">
<g clip-path="url(#clip0_896_10278)">
<path d="M16 19L21.512 14.061C21.6645 13.9296 21.7869 13.7668 21.8708 13.5838C21.9546 13.4008 21.998 13.2018 21.998 13.0005C21.998 12.7992 21.9546 12.6002 21.8708 12.4172C21.7869 12.2342 21.6645 12.0714 21.512 11.94L16 7M13.5 4L10.5 21M8.00001 19L2.48801 14.061C2.33551 13.9296 2.21315 13.7668 2.12928 13.5838C2.0454 13.4008 2.00198 13.2018 2.00198 13.0005C2.00198 12.7992 2.0454 12.6002 2.12928 12.4172C2.21315 12.2342 2.33551 12.0714 2.48801 11.94L8.00001 7" stroke="white" stroke-width="2" stroke-miterlimit="10" stroke-linecap="round" stroke-linejoin="round"/>
</g>
<defs>
<clipPath id="clip0_896_10278">
<rect width="24" height="24" fill="white"/>
</clipPath>
</defs>
</svg>
