<svg width="52" height="52" viewBox="0 0 52 52" fill="none" xmlns="http://www.w3.org/2000/svg">
<path d="M50.4719 5.63576V46.364C50.4719 48.6275 48.629 50.4705 46.3654 50.4705H5.63723C3.36605 50.4705 1.53076 48.6275 1.53076 46.364V5.63576C1.53076 3.3646 3.36605 1.5293 5.63723 1.5293H46.3654C48.629 1.5293 50.4719 3.3646 50.4719 5.63576Z" fill="#E5F4F7"/>
<path d="M50.4695 12.0834H44.7648L45.1471 12.9705C45.5907 14.0182 44.826 15.1805 43.6865 15.1805H28.3313C27.6965 15.1805 27.123 14.8058 26.8783 14.217L25.9607 12.0834H1.52832V5.63698C1.52832 3.36581 3.36361 1.53052 5.63479 1.53052H46.363C48.6265 1.53052 50.4695 3.36581 50.4695 5.63698V12.0834Z" fill="#47D681"/>
<path d="M9.63683 6.91264C9.63683 8.10559 8.66564 9.07676 7.4727 9.07676C6.27976 9.07676 5.30859 8.10559 5.30859 6.91264C5.30859 5.71206 6.27976 4.74854 7.4727 4.74854C8.66564 4.74854 9.63683 5.71206 9.63683 6.91264Z" fill="white"/>
<path d="M16.3321 6.91264C16.3321 8.10559 15.361 9.07676 14.168 9.07676C12.9751 9.07676 12.0039 8.10559 12.0039 6.91264C12.0039 5.71206 12.9751 4.74854 14.168 4.74854C15.361 4.74854 16.3321 5.71206 16.3321 6.91264Z" fill="white"/>
<path d="M23.0275 6.91264C23.0275 8.10559 22.0563 9.07676 20.8633 9.07676C19.6704 9.07676 18.6992 8.10559 18.6992 6.91264C18.6992 5.71206 19.6704 4.74854 20.8633 4.74854C22.0563 4.74854 23.0275 5.71206 23.0275 6.91264Z" fill="white"/>
<path d="M29.4537 39.8179C29.4537 41.7258 27.9204 43.2591 26.0125 43.2591C24.0869 43.2591 22.5537 41.7258 22.5537 39.8179C22.5537 37.91 24.0869 36.3591 26.0125 36.3591C27.9204 36.3591 29.4537 37.91 29.4537 39.8179Z" fill="#2C3033"/>
<path d="M11.498 28.5122C11.576 28.4212 11.6663 28.331 11.7573 28.24C11.6663 28.331 11.576 28.4212 11.498 28.5252V28.5122Z" fill="#00D67F"/>
<path d="M38.919 26.9423L34.2994 31.6789C32.0542 29.7839 29.1727 28.6422 26.0069 28.6422C22.633 28.6422 19.5696 29.9399 17.2732 32.0811C17.4154 31.9259 17.5584 31.8089 17.7014 31.6789L13.0811 26.9423C16.5199 23.8796 21.0493 22.0237 26.0069 22.0237C30.9515 22.0237 35.493 23.8796 38.919 26.9423Z" fill="#FEBB50"/>
<path d="M45.4335 40.1919C45.4855 40.8664 44.915 41.4247 44.2397 41.4247H40.0094C39.3991 41.4247 38.8669 40.9834 38.8149 40.387C38.6597 38.6343 38.1535 36.9871 37.375 35.5074C36.9857 34.7671 36.5308 34.0797 36.0123 33.4434C35.7523 33.1192 35.48 32.808 35.1948 32.5227C35.1428 32.4577 35.0778 32.4057 35.0258 32.3537C34.7918 32.1197 34.5456 31.8865 34.2993 31.6793L38.9189 26.9419C39.7364 27.6691 40.4889 28.4606 41.1771 29.3041C43.6035 32.3147 45.1482 36.0786 45.4335 40.1919Z" fill="#FB545C"/>
<path d="M17.7016 31.679C17.5586 31.8082 17.4156 31.9252 17.2733 32.0812C16.9743 32.3404 16.6891 32.6394 16.4298 32.9377C16.1958 33.1717 16.0016 33.4179 15.8066 33.6771C14.3537 35.5721 13.4062 37.8823 13.1852 40.3867C13.1332 40.9831 12.6017 41.4251 11.9915 41.4251H7.76039C7.08591 41.4251 6.51543 40.8669 6.56668 40.1917C6.87867 35.7151 8.68262 31.653 11.4983 28.5253C11.5763 28.4213 11.6665 28.3311 11.7583 28.2401C11.9655 28.0061 12.1735 27.7859 12.4067 27.5778C12.627 27.3576 12.848 27.1496 13.0812 26.9424L17.7016 31.679Z" fill="#43A2FF"/>
<path d="M24.6309 41.1822C23.8111 40.3625 23.8692 39.0166 24.757 38.271L38.3352 26.8639C38.7374 26.5251 39.2788 27.0673 38.9416 27.4695L27.5429 41.0545C26.7973 41.9439 25.4506 42.002 24.6309 41.1822Z" fill="#2C3033"/>
<path d="M27.0071 39.8115C27.0071 40.3667 26.5613 40.8125 26.0061 40.8125C25.4463 40.8125 25.0005 40.3667 25.0005 39.8115C25.0005 39.2563 25.4463 38.8059 26.0061 38.8059C26.5613 38.8059 27.0071 39.2563 27.0071 39.8115Z" fill="white"/>
</svg>
