<svg width="124" height="140" viewBox="0 0 124 140" fill="none" xmlns="http://www.w3.org/2000/svg">
<path opacity="0.04" d="M107.729 20H24.2707C19.7029 20 16 23.7029 16 28.2707V111.729C16 116.297 19.7029 120 24.2707 120H107.729C112.297 120 116 116.297 116 111.729V28.2707C116 23.7029 112.297 20 107.729 20Z" fill="#FF1A1A"/>
<path d="M97.2038 92.9333L94.1963 95.9408H34.0459V80.1514H94.9482L97.2038 82.407C95.9527 83.6046 95.1556 85.1989 94.9482 86.9183C94.7345 88.0314 94.832 89.1818 95.2299 90.2431C95.6279 91.3043 96.3109 92.2352 97.2038 92.9333Z" fill="#ECF4FF"/>
<path d="M86.6775 81.6542V88.4211C86.6775 89.3045 85.9587 90.3308 85.1737 89.9248L80.6624 87.6692C80.5557 87.5838 80.4232 87.5372 80.2865 87.5372C80.1498 87.5372 80.0172 87.5838 79.9105 87.6692L76.1511 89.9248C75.3662 90.3316 73.8955 89.3045 73.8955 88.4211V81.6542C73.9555 81.2769 74.1332 80.9283 74.4033 80.6582C74.6734 80.3881 75.022 80.2104 75.3993 80.1504H85.1737C85.5509 80.2104 85.8995 80.3881 86.1696 80.6582C86.4397 80.9283 86.6175 81.2769 86.6775 81.6542Z" fill="#BAC0C9"/>
<path d="M97.2038 82.407C95.9527 83.6046 95.1555 85.1989 94.9482 86.9183H34.0459V80.1514H94.9482L97.2038 82.407Z" fill="#BAC0C9"/>
<path d="M36.3012 87.6699C36.2902 88.3642 36.4187 89.0535 36.6793 89.6971C36.9399 90.3406 37.3272 90.9253 37.8181 91.4162C38.3091 91.9072 38.8937 92.2944 39.5373 92.555C40.1808 92.8156 40.8702 92.9442 41.5644 92.9331H97.9554C99.3035 92.9331 100.963 93.8406 100.963 95.1887C100.963 96.5369 99.3035 97.4444 97.9554 97.4444H41.5644C38.7669 97.4342 36.0784 96.3588 34.0456 94.4369C33.1015 93.5799 32.3465 92.5355 31.8287 91.3704C31.3108 90.2052 31.0416 88.945 31.0381 87.6699C31.0561 82.0699 35.9644 77.8955 41.5644 77.8955H97.9554C99.3035 77.8955 100.963 78.803 100.963 80.1511C100.963 81.4993 99.3035 82.4068 97.9554 82.4068H41.5644C40.1773 82.4348 38.8549 82.9984 37.8738 83.9794C36.8928 84.9604 36.3293 86.2829 36.3012 87.6699Z" fill="#B7E4FC"/>
<path d="M35.5494 87.67C35.5168 86.3776 35.7474 85.092 36.2272 83.8914C36.7069 82.6908 37.4256 81.6003 38.3398 80.6861C39.254 79.7719 40.3446 79.0531 41.5452 78.5734C42.7457 78.0937 44.0313 77.8631 45.3238 77.8956H41.5644C35.9644 77.8956 31.0561 82.07 31.0381 87.67C31.0416 88.945 31.3108 90.2053 31.8287 91.3705C32.3465 92.5356 33.1015 93.58 34.0456 94.4369C36.0784 96.3589 38.7669 97.4343 41.5644 97.4445H45.3238C44.0494 97.437 42.7904 97.166 41.6258 96.6484C40.4613 96.1308 39.4164 95.3779 38.5569 94.4369C37.6128 93.58 36.8578 92.5356 36.3399 91.3705C35.8221 90.2053 35.5528 88.945 35.5494 87.67Z" fill="#97CCFA"/>
<path d="M37.8045 73.3837L40.812 75.6393H95.6992V62.1055H40.0601L37.8045 63.6092C38.9838 64.5505 39.7846 65.8851 40.0601 67.3686C40.2196 68.48 40.0965 69.6136 39.7023 70.6649C39.3081 71.7162 38.6554 72.6512 37.8045 73.3837Z" fill="#ECF4FF"/>
<path d="M37.8045 63.6092C38.9838 64.5505 39.7846 65.8851 40.0601 67.3686H95.6992V62.1055H40.0601L37.8045 63.6092Z" fill="#BAC0C9"/>
<path d="M93.4445 68.1212C93.5084 70.8009 91.6001 73.3844 88.9332 73.3844H37.0535C36.4553 73.3844 35.8815 73.622 35.4585 74.045C35.0355 74.468 34.7979 75.0418 34.7979 75.64C34.7979 76.2382 35.0355 76.812 35.4585 77.235C35.8815 77.658 36.4553 77.8956 37.0535 77.8956H88.9332C91.4888 77.7885 93.908 76.7133 95.7001 74.8881C97.3723 73.2159 97.964 70.6776 97.9557 68.1212C97.9735 66.9314 97.7522 65.7502 97.3051 64.6475C96.8579 63.5449 96.194 62.5431 95.3526 61.7018C94.5112 60.8604 93.5095 60.1964 92.4069 59.7493C91.3042 59.3022 90.123 59.0809 88.9332 59.0986H37.0535C36.4553 59.0986 35.8815 59.3363 35.4585 59.7593C35.0355 60.1823 34.7979 60.7561 34.7979 61.3543C34.7979 61.9525 35.0355 62.5262 35.4585 62.9493C35.8815 63.3723 36.4553 63.6099 37.0535 63.6099H88.9332C89.5292 63.5967 90.1218 63.7043 90.6751 63.9263C91.2285 64.1484 91.7311 64.4802 92.1526 64.9017C92.5742 65.3233 92.906 65.8259 93.1281 66.3793C93.3501 66.9326 93.4577 67.5251 93.4445 68.1212Z" fill="#F5DE87"/>
<path d="M39.309 75.6404C39.3276 75.9286 39.4037 76.2101 39.5328 76.4683C39.662 76.7266 39.8415 76.9564 40.0609 77.1442C40.2486 77.3635 40.4784 77.5431 40.7367 77.6722C40.995 77.8014 41.2765 77.8775 41.5646 77.896H37.0534C36.7652 77.8775 36.4837 77.8014 36.2254 77.6722C35.9672 77.5431 35.7374 77.3635 35.5496 77.1442C35.3302 76.9564 35.1507 76.7266 35.0215 76.4683C34.8924 76.2101 34.8163 75.9286 34.7977 75.6404C34.8038 75.0441 35.0434 74.4738 35.4651 74.0521C35.8868 73.6304 36.457 73.3908 37.0534 73.3848H41.5646C40.9683 73.3908 40.3981 73.6304 39.9764 74.0521C39.5547 74.4738 39.3151 75.0441 39.309 75.6404Z" fill="#F1CE73"/>
<path d="M39.3091 61.3538C39.3275 61.642 39.4036 61.9236 39.5327 62.1818C39.6619 62.4401 39.8415 62.6699 40.061 62.8575C40.2486 63.0772 40.4783 63.2569 40.7366 63.386C40.9949 63.5152 41.2765 63.5911 41.5648 63.6094H37.0535C36.7653 63.5911 36.4837 63.5152 36.2253 63.386C35.967 63.2569 35.7373 63.0772 35.5497 62.8575C35.3302 62.6699 35.1506 62.4401 35.0214 62.1818C34.8923 61.9236 34.8163 61.642 34.7979 61.3538C34.8039 60.7574 35.0435 60.1872 35.4652 59.7655C35.8869 59.3438 36.4571 59.1042 37.0535 59.0981H41.5648C40.9684 59.1042 40.3982 59.3438 39.9765 59.7655C39.5548 60.1872 39.3152 60.7574 39.3091 61.3538Z" fill="#F1CE73"/>
<path d="M85.9261 54.5868L82.9186 56.8424H40.8134V43.3086H83.6705L85.9261 44.8124C84.7468 45.7536 83.9461 47.0882 83.6705 48.5718C83.511 49.6831 83.6341 50.8167 84.0283 51.868C84.4226 52.9193 85.0752 53.8543 85.9261 54.5868Z" fill="#ECF4FF"/>
<path d="M85.9261 44.8124C84.7468 45.7536 83.9461 47.0882 83.6705 48.5718H40.8134V43.3086H83.6705L85.9261 44.8124Z" fill="#BAC0C9"/>
<path d="M43.068 49.3234C43.0041 52.003 44.9124 54.5865 47.5793 54.5865H86.6771C87.2753 54.5865 87.849 54.8242 88.272 55.2472C88.6951 55.6702 88.9327 56.2439 88.9327 56.8421C88.9327 57.4404 88.6951 58.0141 88.272 58.4371C87.849 58.8601 87.2753 59.0978 86.6771 59.0978H47.5793C45.0237 58.9906 42.6045 57.9154 40.8124 56.0903C39.1402 54.4181 38.5485 51.8797 38.5568 49.3234C38.539 48.1336 38.7603 46.9524 39.2074 45.8497C39.6546 44.747 40.3185 43.7453 41.1599 42.9039C42.0013 42.0625 43.003 41.3986 44.1057 40.9515C45.2083 40.5043 46.3896 40.2831 47.5793 40.3008H86.6771C87.2753 40.3008 87.849 40.5384 88.272 40.9615C88.6951 41.3845 88.9327 41.9582 88.9327 42.5564C88.9327 43.1547 88.6951 43.7284 88.272 44.1514C87.849 44.5744 87.2753 44.8121 86.6771 44.8121H47.5793C46.9833 44.7988 46.3907 44.9065 45.8374 45.1285C45.2841 45.3505 44.7814 45.6823 44.3599 46.1039C43.9383 46.5255 43.6065 47.0281 43.3844 47.5814C43.1624 48.1347 43.0548 48.7273 43.068 49.3234Z" fill="#DD636E"/>
<path d="M44.5718 56.0912C46.3639 57.9164 48.7831 58.9916 51.3387 59.0988H47.5793C45.0237 58.9916 42.6045 57.9164 40.8124 56.0912C39.1395 54.4183 38.5485 51.8807 38.5568 49.3243C38.539 48.1346 38.7603 46.9533 39.2074 45.8507C39.6546 44.748 40.3185 43.7463 41.1599 42.9049C42.0013 42.0635 43.003 41.3996 44.1057 40.9524C45.2083 40.5053 46.3896 40.284 47.5793 40.3018H51.3387C46.2425 40.3018 41.5808 44.2281 41.5643 49.3243C41.6639 51.8817 42.7403 54.3036 44.5718 56.0912Z" fill="#DA4A54"/>
<path d="M88.9323 69.625V87.6701L82.1654 83.9107L76.1504 87.6701V69.625H88.9323Z" fill="#DD636E"/>
<path d="M76.1504 69.625H88.9323V74.1363H76.1504V69.625Z" fill="#DA4A54"/>
<path d="M97.9552 92.1805H97.2033C96.0462 91.0963 95.6995 89.2677 95.6995 87.6692C95.6995 86.0707 96.0469 84.2422 97.2033 83.1579H97.9552C98.886 83.1579 100.303 83.0655 100.963 82.4061C101.247 82.109 101.462 81.7526 101.592 81.3626C101.722 80.9726 101.764 80.5586 101.715 80.1504C101.663 79.1701 101.25 78.2437 100.556 77.5496C99.8619 76.8555 98.9355 76.4428 97.9552 76.391H94.9477C95.2194 76.1625 95.471 75.9109 95.6995 75.6391C97.6452 73.6216 98.7246 70.9231 98.7071 68.1203C98.7478 65.6437 97.8332 63.2465 96.1531 61.4264C94.473 59.6063 92.1565 58.5031 89.6845 58.3459C89.762 57.8477 89.762 57.3404 89.6845 56.8422C89.7083 56.441 89.6467 56.0394 89.504 55.6637C89.3613 55.2881 89.1405 54.9469 88.8564 54.6628C88.5722 54.3786 88.2311 54.1579 87.8554 54.0151C87.4798 53.8724 87.0781 53.8109 86.677 53.8346H85.9251C85.4324 53.3429 85.045 52.756 84.7865 52.1096C84.5279 51.4633 84.4037 50.7711 84.4213 50.0752C84.4036 49.3793 84.5278 48.6871 84.7863 48.0408C85.0449 47.3944 85.4323 46.8075 85.9251 46.3158H86.677C87.0845 46.3536 87.4955 46.3063 87.8838 46.1768C88.2721 46.0474 88.6292 45.8387 88.9326 45.564C89.5484 44.9459 89.6845 43.4286 89.6845 42.5564C89.7083 42.1553 89.6467 41.7536 89.504 41.378C89.3613 41.0023 89.1405 40.6612 88.8564 40.377C88.5722 40.0929 88.2311 39.8722 87.8554 39.7294C87.4798 39.5867 87.0781 39.5252 86.677 39.5489H47.5792C44.8031 39.5989 42.1546 40.724 40.1913 42.6873C38.228 44.6506 37.1029 47.2991 37.0529 50.0752C37.0483 51.3515 37.314 52.6143 37.8323 53.7806C38.3507 54.9469 39.11 55.9903 40.0604 56.8422C40.3905 57.1722 41.1988 58.067 41.5642 58.3459H37.0529C36.6518 58.3222 36.2501 58.3837 35.8745 58.5264C35.4988 58.6692 35.1577 58.8899 34.8735 59.174C34.5894 59.4582 34.3687 59.7993 34.2259 60.175C34.0832 60.5506 34.0217 60.9523 34.0454 61.3534C34.0076 61.761 34.0549 62.172 34.1843 62.5603C34.3138 62.9486 34.5225 63.3057 34.7973 63.6091C35.1005 63.884 35.4577 64.0928 35.846 64.2223C36.2343 64.3517 36.6454 64.399 37.0529 64.3609H37.8048C38.7701 65.3745 39.3086 66.7206 39.3086 68.1203C39.3086 69.5201 38.7701 70.8662 37.8048 71.8797H37.0529C35.2484 71.8797 34.0454 73.8346 34.0454 75.6391C34.0075 76.0467 34.0548 76.4577 34.1843 76.846C34.3137 77.2343 34.5225 77.5915 34.7973 77.8948C35.0289 78.1256 35.2687 77.7444 35.5492 77.8948C33.9316 78.9613 32.6041 80.4126 31.6855 82.1186C30.7669 83.8245 30.286 85.7317 30.286 87.6692C30.2311 89.0634 30.4706 90.4535 30.9888 91.749C31.507 93.0445 32.2923 94.2163 33.2935 95.188C35.4026 97.297 38.5822 98.9474 41.5642 98.9474H97.9552C99.0915 98.7768 100.144 98.2503 100.963 97.4437C101.247 97.1466 101.462 96.7902 101.592 96.4002C101.722 96.0102 101.764 95.5962 101.715 95.188C101.715 93.2647 99.8785 92.1805 97.9552 92.1805ZM99.4589 80.1504C99.4589 80.5226 99.7228 80.6384 99.4589 80.9023C99.0293 81.2761 98.5119 81.5348 97.9552 81.6542H89.6845V78.6467H97.9552C98.3473 78.6673 98.7179 78.8324 98.9956 79.11C99.2733 79.3877 99.4383 79.7583 99.4589 80.1504ZM41.5642 55.3384C40.8286 54.6775 40.2458 53.8644 39.8562 52.9555C39.4667 52.0465 39.2798 51.0637 39.3086 50.0752C39.3257 47.887 40.2025 45.7932 41.7499 44.2459C43.2973 42.6985 45.391 41.8217 47.5792 41.8046H86.677C87.3251 41.8046 88.1807 41.9091 88.1807 42.5564C88.0397 43.1054 87.7834 43.618 87.4289 44.0602C87.2033 44.2858 86.9905 44.0602 86.677 44.0602H52.8424C52.2642 44.0602 52.0905 44.2339 52.0905 44.8121C52.0905 45.3903 52.2642 46.3158 52.8424 46.3158H83.6695C83.0033 47.4249 82.1657 48.7452 82.1657 50.0752C82.1657 51.4053 83.0033 52.7256 83.6695 53.8346H47.5792C46.571 53.8346 46.0304 53.0549 45.3236 52.3309C44.6168 51.6068 43.7958 51.0843 43.8198 50.0752C43.8452 49.0862 44.2494 48.1446 44.949 47.445C45.6486 46.7454 46.5902 46.3411 47.5792 46.3158H49.083C49.6612 46.3158 49.8349 45.3903 49.8349 44.8121C49.8349 44.2339 49.6612 44.0602 49.083 44.0602H47.5792C46.0065 44.1304 44.517 44.7866 43.4038 45.8998C42.2906 47.013 41.6344 48.5025 41.5642 50.0752C41.5266 51.6542 42.7161 52.7068 43.8198 53.8346C44.2943 54.3503 44.8783 54.753 45.5289 55.0132C46.1794 55.2735 46.8801 55.3846 47.5792 55.3384H86.677C87.0539 55.3992 87.402 55.5773 87.6719 55.8472C87.9419 56.1172 88.1199 56.4653 88.1807 56.8422C88.1807 57.1564 87.6507 57.3722 87.4289 57.594C87.2071 57.8158 86.9905 58.3459 86.677 58.3459H47.5792C45.3988 58.3459 43.1063 56.8805 41.5642 55.3384ZM36.301 62.1053C36.0792 61.8835 36.301 61.6677 36.301 61.3534C36.301 60.7061 36.4041 59.8497 37.0529 59.8497H88.9326C91.1208 59.867 93.2144 60.7439 94.7618 62.2912C96.3091 63.8385 97.186 65.9322 97.2033 68.1203C97.2676 70.3433 96.4578 72.5028 94.9477 74.1354C93.4658 75.4087 91.6285 76.1961 89.6845 76.391V74.1354C90.8246 73.977 91.8812 73.4487 92.692 72.6316C93.7958 71.5038 94.9853 69.6993 94.9477 68.1203C94.8725 64.994 92.1108 62.8572 88.9326 62.8572H37.0529C36.7386 62.8572 36.5266 62.3241 36.301 62.1053ZM40.0604 64.3609H88.9326C89.9218 64.3861 90.8634 64.7902 91.5631 65.4899C92.2627 66.1895 92.6669 67.1312 92.692 68.1203C92.556 69.2673 92.0242 70.3309 91.1883 71.1279C90.7703 71.5187 90.2479 71.7799 89.6845 71.8797V69.6241C89.6845 69.0459 89.5108 68.8722 88.9326 68.8722H67.88C67.3018 68.8722 67.1281 69.0459 67.1281 69.6241C67.1281 70.2023 67.3018 70.376 67.88 70.376H75.3988V71.8797H40.0604C40.7266 70.7707 41.5642 69.4504 41.5642 68.1203C41.5642 66.7903 40.7266 65.47 40.0604 64.3609ZM76.9026 70.376H87.4289V85.4136L82.9176 83.1579C82.6685 83.1189 82.4148 83.1189 82.1657 83.1579C82.3161 83.0828 82.0003 83.1579 82.1657 83.1579L76.9026 85.4136V70.376ZM37.0529 74.1354H75.3988V76.391H37.0529C36.7386 76.391 36.5221 76.6106 36.301 76.391C36.08 76.1715 36.301 75.9534 36.301 75.6391C36.301 74.991 36.4048 74.1354 37.0529 74.1354ZM99.4589 95.9399C99.0293 96.3137 98.5119 96.5723 97.9552 96.6918H41.5642C39.0116 96.5719 36.5968 95.4986 34.7973 93.6843C33.077 91.964 32.5349 90.1046 32.5416 87.6692C32.5355 86.4826 32.7646 85.3066 33.2159 84.2091C33.6671 83.1117 34.3315 82.1146 35.1705 81.2755C36.0096 80.4365 37.0067 79.7721 38.1041 79.3209C39.2016 78.8696 40.3776 78.6405 41.5642 78.6467H75.3988V81.6542H41.5642C38.1281 81.6542 34.8785 84.2895 34.7973 87.6692C34.7567 89.3752 35.8597 90.9587 37.0529 92.1805C38.2462 93.4023 39.8604 93.6843 41.5642 93.6843H79.9101C80.4883 93.6843 80.6619 93.5106 80.6619 92.9324C80.6619 92.3542 80.4883 92.1805 79.9101 92.1805H41.5642C40.4034 92.0926 39.3235 91.5526 38.5567 90.6767C37.681 89.9098 37.141 88.83 37.0529 87.6692C37.1329 86.4991 37.6338 85.3975 38.4632 84.5682C39.2925 83.7388 40.3941 83.2379 41.5642 83.1579H75.3988V87.6692C75.3988 88.0346 75.0868 88.2309 75.3988 88.4211C75.8841 88.6001 76.4173 88.6001 76.9026 88.4211L82.1657 85.4136L88.1807 88.4211C88.4298 88.4603 88.6835 88.4603 88.9326 88.4211C89.1213 88.4211 89.5176 88.5226 89.6845 88.4211C89.9965 88.2309 89.6845 88.0346 89.6845 87.6692V83.1579H94.9477C94.062 84.505 93.5436 86.0601 93.4439 87.6692C93.5435 89.2783 94.0619 90.8334 94.9477 92.1805H83.6695C83.0913 92.1805 82.9176 92.3542 82.9176 92.9324C82.9176 93.5106 83.0913 93.6843 83.6695 93.6843H97.9552C98.3473 93.7049 98.7179 93.8699 98.9956 94.1476C99.2733 94.4253 99.4383 94.7959 99.4589 95.188C99.4589 95.5572 99.7228 95.676 99.4589 95.9399Z" fill="black"/>
</svg>
