<svg width="24" height="24" viewBox="0 0 24 24" fill="none" xmlns="http://www.w3.org/2000/svg">
<path d="M19 17.439V14.611C19 13.498 18.552 13.05 17.439 13.05H14.611C13.498 13.05 13.05 13.498 13.05 14.611V17.439C13.05 18.552 13.498 19 14.611 19H17.439C18.552 19 19 18.552 19 17.439Z" stroke="#6E6E6E" stroke-width="1.5" stroke-linecap="round" stroke-linejoin="round"/>
<path d="M19 9.564V6.386C19 5.399 18.552 5 17.439 5H14.611C13.498 5 13.05 5.399 13.05 6.386V9.557C13.05 10.551 13.498 10.943 14.611 10.943H17.439C18.552 10.95 19 10.551 19 9.564Z" stroke="#6E6E6E" stroke-width="1.5" stroke-linecap="round" stroke-linejoin="round"/>
<path d="M10.95 17.53V6.47C10.95 5.42 10.502 5 9.389 5H6.561C5.448 5 5 5.42 5 6.47V17.53C5 18.58 5.448 19 6.561 19H9.389C10.502 19 10.95 18.58 10.95 17.53Z" stroke="#6E6E6E" stroke-width="1.5" stroke-linecap="round" stroke-linejoin="round"/>
</svg>
