<svg width="24" height="24" viewBox="0 0 24 24" fill="none" xmlns="http://www.w3.org/2000/svg">
<path d="M14.4663 17.52C16.964 17.7602 18.2929 16.5914 18.9654 13.7014L19.7499 10.3552C20.5345 7.00888 19.5098 5.35175 16.1555 4.56722L14.8186 4.25501C12.1448 3.62258 10.5517 4.14293 9.61504 6.08025M14.4663 17.52C14.0661 17.488 13.6338 17.4159 13.1695 17.3039L11.8245 16.9837C8.48627 16.1911 7.45357 14.542 8.23811 11.1957L9.02264 7.84144C9.18275 7.16098 9.37488 6.56858 9.61504 6.08025M14.4663 17.52C13.97 17.8562 13.3456 18.1364 12.585 18.3846L11.3202 18.8009C8.14202 19.8256 6.46889 18.969 5.43619 15.7908L4.41149 12.6287C3.38679 9.45053 4.23537 7.76939 7.41353 6.7447L8.67839 6.32841C9.00661 6.22434 9.31884 6.13629 9.61504 6.08025M12.529 8.82611L16.4117 9.81078M11.7445 11.9242L14.066 12.5166" stroke="#6E6E6E" stroke-width="1.5" stroke-linecap="round" stroke-linejoin="round"/>
</svg>
