<svg id="icon_menu_normal_12" xmlns="http://www.w3.org/2000/svg" width="24" height="24" viewBox="0 0 24 24">
  <rect id="background" width="24" height="24" fill="none"/>
  <g id="Group_41293" data-name="Group 41293">
    <g id="icon_support">
      <rect id="Rectangle_17320" data-name="Rectangle 17320" width="24" height="24" fill="none"/>
    </g>
    <path id="Vector_14" data-name="Vector 14" d="M11.424,16.844h5.42a3.336,3.336,0,0,0,3.336-3.336h0a3.336,3.336,0,0,0-3.336-3.336h0a1.668,1.668,0,0,0-1.668,1.668v4.586m2.5-6.671V8.088A7.088,7.088,0,0,0,10.59,1h0A7.088,7.088,0,0,0,3.5,8.088V9.756m.834,7.088h0A3.336,3.336,0,0,1,1,13.508H1a3.336,3.336,0,0,1,3.336-3.336h0A1.668,1.668,0,0,1,6,11.841v3.336A1.668,1.668,0,0,1,4.336,16.844Z" transform="translate(1.5 3.5)" fill="none" stroke="#454545" stroke-linecap="round" stroke-width="1.5"/>
  </g>
</svg>
