<svg width="40" height="40" viewBox="0 0 40 40" fill="none" xmlns="http://www.w3.org/2000/svg">
<path d="M0.296875 6.30106C0.296875 2.7902 3.16828 -0.0500347 6.69078 0.000668453C10.1029 0.049731 12.8773 2.84801 12.8989 6.26036C12.911 8.17137 12.0721 9.88645 10.7391 11.0498C10.5984 11.1725 10.6188 11.3966 10.7795 11.4917L11.9667 12.1942C12.1587 12.3078 12.0781 12.602 11.8551 12.602L6.47867 12.6007C3.05375 12.537 0.296875 9.74114 0.296875 6.30106Z" fill="#7ACAA6"/>
<path d="M11.9671 12.1942L10.7798 11.4917C10.62 11.3972 10.5978 11.1734 10.7377 11.0514C12.0859 9.87571 12.9292 8.13563 12.8986 6.19922C12.8457 2.84977 10.1348 0.100315 6.78629 0.00273644C6.31144 -0.0110917 5.84801 0.0277364 5.40137 0.113596C8.29566 0.66844 10.5014 3.21961 10.5207 6.26032C10.53 7.73289 10.0339 9.08914 9.19598 10.1663C8.68996 10.8166 8.85441 11.7598 9.56363 12.1795L9.58848 12.1941C9.77832 12.3065 9.70129 12.5951 9.48387 12.6013L11.8554 12.6019C12.0785 12.602 12.1591 12.3077 11.9671 12.1942Z" fill="#57BE92"/>
<path d="M30.9992 22.8715H16.705C13.1348 22.8715 11.1811 18.7109 13.4613 15.9637L13.5881 15.8109C14.5926 14.6006 15.1425 13.0773 15.1425 11.5045V8.74797C15.1425 3.91656 19.0591 0 23.8905 0C28.7219 0 32.6385 3.91656 32.6385 8.74797V11.5975C32.6385 13.1868 33.1999 14.725 34.2236 15.9407C36.5323 18.6823 34.5834 22.8715 30.9992 22.8715Z" fill="#C59191"/>
<path d="M38.5133 29.9554V39.4054H9.19141V30.0265C9.19141 27.903 10.4641 25.9866 12.4203 25.1632L17.1539 23.1054L18.7477 22.4124C19.957 21.8866 20.7391 20.6937 20.7391 19.3749V18.7632H26.9648V19.3437C26.9648 20.6679 27.7547 21.8655 28.9727 22.3874L35.375 25.1319C37.2828 25.9772 38.5133 27.8679 38.5133 29.9554Z" fill="white"/>
<path d="M17.1539 25.3586C18.7694 25.8413 21.1473 26.3562 24.0458 26.3055C26.7654 26.258 28.9979 25.7291 30.5514 25.233L31.3232 23.3949L28.9728 22.3875C27.7551 21.8655 26.9656 20.6683 26.9656 19.3434V18.7634H20.7398V19.375C20.7398 20.6936 19.9576 21.8865 18.7485 22.4123L16.8447 23.24L17.1539 25.3586Z" fill="#FFCEBF"/>
<path d="M35.3745 25.1316L30.5516 23.0645L30.5508 23.0645V39.4052H38.5131V29.9555C38.5131 27.8682 37.2827 25.9772 35.3745 25.1316Z" fill="#8795DE"/>
<path d="M17.1539 23.1055V39.4055H9.19141V30.0266C9.19141 27.9031 10.4641 25.9867 12.4203 25.1633L17.1539 23.1055Z" fill="#8795DE"/>
<path d="M26.0102 22.1805C26.7265 22.1805 27.409 22.0367 28.0311 21.7772C27.3637 21.1612 26.965 20.2846 26.965 19.3434V18.7634H20.7392V19.3749C20.7392 19.8512 20.6366 20.311 20.4492 20.729C21.392 21.6276 22.6673 22.1805 24.0726 22.1805L26.0102 22.1805Z" fill="#FFB09E"/>
<path d="M30.0748 9.39779V14.5482C30.0748 17.4497 27.7226 19.8019 24.8211 19.8019H22.8836C19.982 19.8019 17.6299 17.4497 17.6299 14.5482V9.39779C17.6299 7.51022 19.16 5.97998 21.0477 5.97998H26.6571C28.5446 5.98006 30.0748 7.51022 30.0748 9.39779Z" fill="#FFCEBF"/>
<path d="M30.0747 12.0776C30.0723 12.0847 30.0694 12.0916 30.0673 12.0989C29.8774 12.7547 29.379 13.9937 28.1744 14.9225C27.6136 15.3551 26.9738 15.6676 26.273 15.8515C25.9554 15.9348 25.7654 16.2599 25.8487 16.5776C25.9189 16.8447 26.1597 17.0215 26.4236 17.0215C26.4735 17.0215 26.5243 17.0151 26.5749 17.0019C27.4305 16.7773 28.213 16.3946 28.9008 15.8644C29.3757 15.4981 29.76 15.0936 30.0712 14.6869C30.0724 14.6408 30.0747 14.5949 30.0747 14.5485V12.0776H30.0747Z" fill="#7A6D79"/>
<path d="M25.6211 17.4953H24.2276C23.5933 17.4953 23.0791 16.9811 23.0791 16.3468C23.0791 15.7125 23.5933 15.1982 24.2276 15.1982H25.6211C26.2554 15.1982 26.7696 15.7125 26.7696 16.3468C26.7696 16.9811 26.2554 17.4953 25.6211 17.4953Z" fill="#685E68"/>
<path d="M25.0939 4.61706C25.2273 2.93425 26.8384 1.81745 28.3804 1.23901C30.9311 2.76737 32.6387 5.55808 32.6387 8.748V9.3494C32.4977 9.37901 32.3574 9.40495 32.2187 9.42566C31.3692 9.55253 30.6458 9.49761 30.1516 9.42566C26.967 9.00144 24.9327 6.64948 25.0939 4.61706Z" fill="#B98080"/>
<path d="M23.8905 0C25.8661 0 27.6886 0.655156 29.153 1.75977C28.4225 3.03094 26.745 5.54422 23.5995 7.40484C21.2643 8.78617 19.0624 9.25031 17.7065 9.42555H15.1426V8.74789C15.1425 3.91656 19.0591 0 23.8905 0Z" fill="#C59191"/>
<path d="M33.6693 39.4053H14.6338L13.5839 29.501C13.5094 28.7985 14.0602 28.1863 14.7666 28.1863H33.5366C34.243 28.1863 34.7937 28.7985 34.7193 29.501L33.6693 39.4053Z" fill="#EFEDEF"/>
<path d="M33.5368 28.1863H31.1582C31.8646 28.1863 32.4153 28.7985 32.3409 29.501L31.2909 39.4053H33.6695L34.7195 29.501C34.794 28.7985 34.2433 28.1863 33.5368 28.1863Z" fill="#E5E1E5"/>
<path d="M39.4141 40H0.585938C0.262266 40 0 39.7377 0 39.4141C0 39.0905 0.262266 38.8281 0.585938 38.8281H39.4141C39.7377 38.8281 40 39.0905 40 39.4141C40 39.7377 39.7377 40 39.4141 40Z" fill="#C9BFC8"/>
<path d="M24.1523 35.4609C25.0719 35.4609 25.8173 34.7154 25.8173 33.7959C25.8173 32.8763 25.0719 32.1309 24.1523 32.1309C23.2328 32.1309 22.4873 32.8763 22.4873 33.7959C22.4873 34.7154 23.2328 35.4609 24.1523 35.4609Z" fill="#C9BFC8"/>
<path d="M4.21961 6.89552C4.548 6.89552 4.81422 6.6293 4.81422 6.30091C4.81422 5.97251 4.548 5.7063 4.21961 5.7063C3.89122 5.7063 3.625 5.97251 3.625 6.30091C3.625 6.6293 3.89122 6.89552 4.21961 6.89552Z" fill="white"/>
<path d="M6.59852 6.89552C6.92691 6.89552 7.19312 6.6293 7.19312 6.30091C7.19312 5.97251 6.92691 5.7063 6.59852 5.7063C6.27012 5.7063 6.00391 5.97251 6.00391 6.30091C6.00391 6.6293 6.27012 6.89552 6.59852 6.89552Z" fill="white"/>
<path d="M8.97645 6.89552C9.30484 6.89552 9.57105 6.6293 9.57105 6.30091C9.57105 5.97251 9.30484 5.7063 8.97645 5.7063C8.64805 5.7063 8.38184 5.97251 8.38184 6.30091C8.38184 6.6293 8.64805 6.89552 8.97645 6.89552Z" fill="white"/>
</svg>
