<svg width="60" height="60" viewBox="0 0 60 60" fill="none" xmlns="http://www.w3.org/2000/svg">
<rect width="60" height="60" rx="30" fill="white"/>
<path d="M10 35.6664H19.8705V38.6701H17.0388V45.8888H12.9259V38.6701H10V35.6664ZM24.8694 39.7967L22.7912 45.8888H18.8413L22.7152 35.6664H27.0049L30.9722 45.8888H26.9737L24.8694 39.7967ZM30.0286 35.6664H39.8987V38.6701H37.0679V45.8888H32.9551V38.6701H30.0286V35.6664ZM44.8993 39.7967L42.8204 45.8888H38.8705L42.7457 35.6664H47.0341L51 45.8888H47.003L44.8993 39.7967Z" fill="#486AAE"/>
<path fill-rule="evenodd" clip-rule="evenodd" d="M45.0458 16.8897C44.6773 16.165 44.1919 15.4704 43.5881 14.819C42.2312 13.3544 40.3167 12.1358 38.0511 11.2952C35.7668 10.4482 33.1614 10 30.5137 10C27.8661 10 25.2607 10.4482 22.9775 11.2952C20.7108 12.1358 18.7962 13.3545 17.4393 14.819C16.8359 15.4703 16.3489 16.1659 15.9805 16.891C18.93 16.1777 23.9754 15.236 28.6602 15.1364C29.112 15.1267 29.4232 15.2714 29.628 15.5311C29.8776 15.8473 29.8588 16.9743 29.8527 17.4786L29.7195 30.5115C29.9834 30.5202 30.2484 30.5258 30.5137 30.5258C30.7812 30.5258 31.0478 30.5215 31.3116 30.5127L31.1784 17.4785C31.1715 16.9743 31.1522 15.8472 31.4026 15.531C31.608 15.2714 31.918 15.1267 32.3698 15.1363C37.0526 15.2351 42.0968 16.177 45.0458 16.8897Z" fill="#486AAE"/>
<path fill-rule="evenodd" clip-rule="evenodd" d="M45.6732 18.5847C41.3562 17.6087 38.4733 17.4282 35.6287 17.2704C33.1492 17.1326 33.1168 18.018 33.3644 19.71C33.3806 19.8133 33.4005 19.9434 33.4241 20.0918C34.2558 25.0179 35.2915 29.2569 35.4694 29.9764C41.5142 28.5946 45.8737 24.7637 45.8737 20.2633C45.8737 19.6966 45.8052 19.1351 45.6732 18.5847ZM27.6607 19.71C27.9085 18.0181 27.8767 17.1326 25.3975 17.2704C22.5519 17.4282 19.6683 17.6086 15.3497 18.5852C15.2178 19.1357 15.1484 19.6965 15.1484 20.2632C15.1484 22.2083 15.9397 24.0904 17.437 25.7074C18.7939 27.172 20.7085 28.3907 22.9753 29.2318C23.7957 29.5355 24.6615 29.7845 25.5533 29.9836C25.7206 29.3096 26.7801 24.9823 27.6208 19.9682C27.6364 19.8721 27.6508 19.7834 27.6607 19.71Z" fill="#486AAE"/>
</svg>
