<svg width="50" height="50" viewBox="0 0 50 50" fill="none" xmlns="http://www.w3.org/2000/svg">
<path d="M37.1503 26.5869L36.8925 28.9062L36.7187 30.4687H14.8437L14.6699 28.9062L14.412 26.5869C14.1829 24.5227 14.4924 22.4343 15.3105 20.5254C16.0311 18.843 16.3584 17.0184 16.2675 15.1904L16.1318 12.4873C16.0665 11.1796 16.2677 9.8723 16.7232 8.64476C17.1786 7.41723 17.8789 6.29508 18.7813 5.34646C19.6838 4.39784 20.7696 3.64255 21.9729 3.12646C23.1762 2.61037 24.4719 2.34424 25.7812 2.34424C27.0905 2.34424 28.3861 2.61037 29.5894 3.12646C30.7928 3.64255 31.8786 4.39784 32.7811 5.34646C33.6835 6.29508 34.3837 7.41723 34.8392 8.64476C35.2947 9.8723 35.4959 11.1796 35.4306 12.4873L35.2949 15.1904C35.204 17.0184 35.5313 18.843 36.2519 20.5254C37.0703 22.4343 37.3798 24.5227 37.1503 26.5869Z" fill="#8F4D2E"/>
<path d="M37.1504 26.5869L36.8926 28.9062H28.125V20.3125L29.6875 17.1875V10.9375C29.6865 9.05413 29.0674 7.22313 27.9253 5.72557C26.7833 4.228 25.1812 3.14664 23.3652 2.64746C24.8325 2.27084 26.3677 2.24411 27.8471 2.56942C29.3266 2.89474 30.709 3.563 31.8829 4.52038C33.0568 5.47776 33.9895 6.69748 34.6057 8.08129C35.2219 9.46509 35.5045 10.9743 35.4307 12.4873L35.2949 15.1904C35.204 17.0184 35.5313 18.843 36.252 20.5254C37.0703 22.4343 37.3799 24.5227 37.1504 26.5869Z" fill="#82462A"/>
<path d="M30 27.3438C29.8563 27.3438 29.7141 27.3156 29.5814 27.2606C29.4486 27.2057 29.328 27.1251 29.2264 27.0236C29.1249 26.922 29.0443 26.8014 28.9894 26.6686C28.9344 26.5359 28.9062 26.3937 28.9062 26.25V21.0938H22.6562V26.25C22.6563 26.3937 22.6281 26.5359 22.5732 26.6686C22.5182 26.8014 22.4376 26.922 22.3361 27.0236C22.2345 27.1251 22.1139 27.2057 21.9812 27.2606C21.8484 27.3156 21.7062 27.3438 21.5625 27.3438H20.3125V32.0312H31.25V27.3438H30Z" fill="#FEC9A3"/>
<path d="M26.2523 25C27.2197 24.9894 28.155 24.6519 28.9062 24.0423V21.0938H22.6562V24.042C23.4074 24.6517 24.3428 24.9893 25.3102 25H26.2523Z" fill="#FEB784"/>
<path d="M32.8125 12.5V16.4062C32.8125 18.2711 32.0717 20.0595 30.7531 21.3781C29.4345 22.6967 27.6461 23.4375 25.7812 23.4375C23.9164 23.4375 22.128 22.6967 20.8094 21.3781C19.4908 20.0595 18.75 18.2711 18.75 16.4062V12.5C20.2861 11.4763 21.5283 10.0692 22.3535 8.41797L22.6562 7.8125L23.0996 8.18262C25.0408 9.80016 27.2784 11.0241 29.6875 11.7861C30.7078 12.1095 31.753 12.3483 32.8125 12.5Z" fill="#FEC9A3"/>
<path d="M32.8125 12.5V16.4063C32.8121 18.0383 32.2444 19.6194 31.2064 20.8788C30.1685 22.1382 28.7249 22.9975 27.123 23.3096C27.9364 22.5112 28.5822 21.5584 29.0226 20.5072C29.463 19.4559 29.689 18.3273 29.6875 17.1875V11.7862C30.7078 12.1096 31.753 12.3483 32.8125 12.5Z" fill="#FEC093"/>
<path d="M22.2656 15.625C22.0339 15.625 21.8073 15.5563 21.6146 15.4275C21.4219 15.2987 21.2717 15.1157 21.183 14.9016C21.0943 14.6874 21.0711 14.4518 21.1163 14.2245C21.1615 13.9972 21.2731 13.7884 21.437 13.6245C21.6009 13.4606 21.8097 13.349 22.037 13.3038C22.2643 13.2586 22.4999 13.2818 22.7141 13.3705C22.9282 13.4592 23.1112 13.6094 23.24 13.8021C23.3688 13.9948 23.4375 14.2214 23.4375 14.4531C23.4372 14.7638 23.3136 15.0617 23.0939 15.2814C22.8742 15.5011 22.5763 15.6247 22.2656 15.625Z" fill="#7A432A"/>
<path d="M29.2969 15.625C29.0651 15.625 28.8385 15.5563 28.6458 15.4275C28.4531 15.2987 28.3029 15.1157 28.2142 14.9016C28.1255 14.6874 28.1023 14.4518 28.1475 14.2245C28.1927 13.9972 28.3043 13.7884 28.4682 13.6245C28.6321 13.4606 28.8409 13.349 29.0683 13.3038C29.2956 13.2586 29.5312 13.2818 29.7453 13.3705C29.9595 13.4592 30.1425 13.6094 30.2713 13.8021C30.4 13.9948 30.4688 14.2214 30.4688 14.4531C30.4684 14.7638 30.3448 15.0617 30.1251 15.2814C29.9054 15.5011 29.6076 15.6247 29.2969 15.625Z" fill="#7A432A"/>
<path d="M25.7812 19.5312C25.1599 19.5306 24.5641 19.2834 24.1247 18.844C23.6854 18.4046 23.4382 17.8089 23.4375 17.1875H25C25 17.3947 25.0823 17.5934 25.2288 17.7399C25.3753 17.8864 25.574 17.9688 25.7812 17.9688C25.9885 17.9688 26.1872 17.8864 26.3337 17.7399C26.4802 17.5934 26.5625 17.3947 26.5625 17.1875H28.125C28.1243 17.8089 27.8771 18.4046 27.4378 18.844C26.9984 19.2834 26.4026 19.5306 25.7812 19.5312Z" fill="#F7A468"/>
<path d="M21.875 30.4688H29.6875V35.9375H21.875V30.4688Z" fill="#E0E0DE"/>
<path d="M41.6963 47.624C41.1421 47.7163 40.5731 47.6088 40.0907 47.3207C39.6083 47.0326 39.2439 46.5825 39.0625 46.0508L33.9023 36.3701C34.2309 37.3524 34.3032 38.4022 34.1125 39.4203C33.9218 40.4383 33.4743 41.3908 32.8125 42.1875V48.4375H18.75V42.1875C18.0786 41.3816 17.6266 40.416 17.4377 39.3842C17.2488 38.3524 17.3295 37.2893 17.6719 36.2979L12.4277 46.0508C12.2264 46.6427 11.7995 47.1311 11.2397 47.4097C10.68 47.6883 10.0329 47.7345 9.43936 47.5382C8.84576 47.3419 8.35375 46.9191 8.07045 46.3617C7.78714 45.8044 7.73549 45.1577 7.92674 44.5625L13.6631 30.2842C14.0116 29.4158 14.6122 28.6717 15.3874 28.1476C16.1626 27.6236 17.077 27.3436 18.0127 27.3438H21.0937L25.7812 35.9375L30.4687 27.3438H33.5381C34.4764 27.3444 35.393 27.6264 36.1695 28.1534C36.9459 28.6803 37.5464 29.428 37.8935 30.2998L43.5644 44.5625C43.668 44.8865 43.7007 45.2291 43.6602 45.5668C43.6198 45.9046 43.5071 46.2297 43.3299 46.5201C43.1527 46.8105 42.9151 47.0594 42.6332 47.2499C42.3514 47.4403 42.0318 47.5679 41.6963 47.624Z" fill="#EC8C8C"/>
<path d="M7.24909 44.8252L7.81256 37.5H12.5001V45.0269C12.5001 45.7242 12.223 46.393 11.7299 46.8861C11.2368 47.3792 10.568 47.6562 9.87067 47.6562C9.50838 47.6563 9.15 47.5814 8.81801 47.4364C8.48602 47.2913 8.18759 47.0792 7.94144 46.8134C7.69528 46.5476 7.50672 46.2338 7.38758 45.8916C7.26844 45.5495 7.22129 45.1864 7.24909 44.8252Z" fill="#F59898"/>
<path d="M9.65049 26.1035C9.4297 26.1587 9.22414 26.2628 9.04896 26.4081C8.87378 26.5533 8.73346 26.7361 8.63836 26.9429C8.54327 27.1496 8.49582 27.3751 8.49952 27.6026C8.50323 27.8302 8.55799 28.054 8.65977 28.2575L9.375 29.6875H6.57529C5.84759 29.6875 5.12989 29.5181 4.479 29.1927L3.70049 28.8034C3.55756 28.732 3.39874 28.6982 3.23911 28.7054C3.07947 28.7126 2.92432 28.7605 2.78839 28.8445C2.65246 28.9285 2.54026 29.0459 2.46244 29.1854C2.38462 29.325 2.34376 29.4821 2.34375 29.6419V31.8468C2.34375 32.137 2.42456 32.4214 2.57712 32.6683C2.72968 32.9151 2.94797 33.1146 3.20752 33.2444L4.479 33.8802C5.12989 34.2056 5.84759 34.375 6.57529 34.375H12.5V29.6875L11.4302 27.013C11.2936 26.6719 11.0381 26.3918 10.7109 26.2246C10.3837 26.0574 10.007 26.0144 9.65049 26.1035Z" fill="#FEC9A3"/>
<path d="M7.8125 34.375H12.5V37.5H7.8125V34.375Z" fill="#E0E0DE"/>
<path d="M41.6963 47.6241C41.1421 47.7164 40.5731 47.6089 40.0907 47.3207C39.6083 47.0326 39.244 46.5826 39.0625 46.0508L33.9023 36.3701C34.2309 37.3524 34.3032 38.4023 34.1125 39.4203C33.9218 40.4383 33.4743 41.3908 32.8125 42.1875V48.4375H19.0068C25.4551 44.2266 30.8955 38.8828 35.4619 27.7578C36.5722 28.2567 37.4444 29.1685 37.8936 30.2998L43.5645 44.5625C43.668 44.8866 43.7007 45.2291 43.6602 45.5669C43.6198 45.9046 43.5071 46.2298 43.3299 46.5202C43.1527 46.8106 42.9151 47.0594 42.6332 47.2499C42.3514 47.4404 42.0318 47.568 41.6963 47.6241Z" fill="#E07F7F"/>
<path d="M36.7188 45.3125L28.9062 43.75V32.8125L36.7188 34.375V45.3125Z" fill="#A36548"/>
<path d="M39.8438 45.3125L47.6562 43.75V32.8125L39.8438 34.375V45.3125Z" fill="#8F4D2E"/>
<path d="M36.7188 34.375H39.8438V45.3125H36.7188V34.375Z" fill="#95573A"/>
<path d="M38.2812 34.375C38.2812 33.7201 38.0489 33.0864 37.6256 32.5867C37.2023 32.087 36.6154 31.7536 35.9694 31.6459L28.9062 30.4688V32.8125L36.7188 34.375H38.2812C38.2813 33.7201 38.5136 33.0864 38.9369 32.5867C39.3602 32.087 39.9471 31.7536 40.5931 31.6459L47.6562 30.4688V32.8125L39.8438 34.375H38.2812Z" fill="#D4BD81"/>
<path d="M46.2222 45.238L43.0972 45.7589C42.9853 45.7775 42.8706 45.7716 42.7612 45.7414C42.6518 45.7113 42.5503 45.6577 42.4638 45.5844C42.3772 45.511 42.3076 45.4197 42.2599 45.3168C42.2122 45.2138 42.1875 45.1017 42.1875 44.9883V42.0845C42.1875 41.8438 42.2729 41.6108 42.4284 41.4272C42.584 41.2435 42.7997 41.1209 43.0371 41.0813L45.6906 40.6391C45.8363 40.6147 45.9856 40.6225 46.128 40.6617C46.2704 40.7009 46.4026 40.7707 46.5153 40.8662C46.6281 40.9616 46.7186 41.0805 46.7807 41.2146C46.8428 41.3486 46.875 41.4945 46.875 41.6423V44.4674C46.875 44.6523 46.8094 44.8312 46.6898 44.9723C46.5703 45.1135 46.4046 45.2076 46.2222 45.238Z" fill="#FEC9A3"/>
</svg>
