<svg xmlns="http://www.w3.org/2000/svg" xmlns:xlink="http://www.w3.org/1999/xlink" width="66" height="67" viewBox="0 0 66 67">
  <defs>
    <clipPath id="clip-path">
      <rect id="Rectangle_44367" data-name="Rectangle 44367" width="64" height="67" transform="translate(-0.45 0.215)" fill="#fff" stroke="#4d2121" stroke-width="1"/>
    </clipPath>
  </defs>
  <g id="Image" transform="translate(-16 -94)">
    <rect id="Image_background" width="66" height="66" transform="translate(16 94)" fill="#fff"/>
    <g id="Mask_Group_345" data-name="Mask Group 345" transform="translate(16.45 93.785)" clip-path="url(#clip-path)">
      <g id="help-center" transform="translate(8.658 0.41)">
        <g id="Group_41342" data-name="Group 41342" transform="translate(0 28.673)">
          <g id="Group_41333" data-name="Group 41333" transform="translate(0 7.595)">
            <g id="Group_41328" data-name="Group 41328" transform="translate(0.766 0.766)">
              <path id="Path_43460" data-name="Path 43460" d="M48.637,21.5V33.935a3.2,3.2,0,0,1-3.2,3.2H6.1a3.2,3.2,0,0,1-3.2-3.2V21.5a8,8,0,0,1,5.181-7.488L19.9,9.564H31.64l11.816,4.45A8,8,0,0,1,48.637,21.5Z" transform="translate(-2.903 -9.564)" fill="#a5b2ff"/>
            </g>
            <g id="Group_41329" data-name="Group 41329" transform="translate(0.76 5.343)">
              <path id="Path_43461" data-name="Path 43461" d="M48.636,18.045V30.479a3.2,3.2,0,0,1-3.2,3.2H6.1a3.2,3.2,0,0,1-3.2-3.2V28.831H32.85A10.937,10.937,0,0,0,43.787,17.894v-7.21a8,8,0,0,1,4.849,7.361Z" transform="translate(-2.902 -10.684)" fill="#8f9fff"/>
            </g>
            <g id="Group_41330" data-name="Group 41330">
              <path id="Path_43462" data-name="Path 43462" d="M46.015,38.48H6.682a3.971,3.971,0,0,1-3.967-3.967V22.08a8.81,8.81,0,0,1,5.678-8.2L20.21,9.426a.778.778,0,0,1,.27-.049H32.218a.778.778,0,0,1,.27.049L44.3,13.875a8.81,8.81,0,0,1,5.678,8.2V34.513a3.971,3.971,0,0,1-3.966,3.967Zm-25.4-27.572L8.933,15.31a7.269,7.269,0,0,0-4.685,6.77V34.513a2.437,2.437,0,0,0,2.434,2.435H46.015a2.437,2.437,0,0,0,2.434-2.435V22.08a7.269,7.269,0,0,0-4.685-6.77l-11.686-4.4Z" transform="translate(-2.716 -9.377)" fill="#2a44e2"/>
            </g>
            <g id="Group_41331" data-name="Group 41331" transform="translate(9.148 18.58)">
              <path id="Path_43463" data-name="Path 43463" d="M5.721,24.448a.766.766,0,0,1-.766-.766V14.69a.766.766,0,0,1,1.532,0v8.991A.766.766,0,0,1,5.721,24.448Z" transform="translate(-4.955 -13.924)" fill="#2a44e2"/>
            </g>
            <g id="Group_41332" data-name="Group 41332" transform="translate(36.586 18.58)">
              <path id="Path_43464" data-name="Path 43464" d="M12.436,24.448a.766.766,0,0,1-.766-.766V14.69a.766.766,0,0,1,1.532,0v8.991A.766.766,0,0,1,12.436,24.448Z" transform="translate(-11.67 -13.924)" fill="#2a44e2"/>
            </g>
          </g>
          <g id="Group_41334" data-name="Group 41334" transform="translate(23.635 8.625)">
            <path id="Path_43465" data-name="Path 43465" d="M8.5,16.625l5.1,3.2a1.453,1.453,0,0,0,2.088-.613l3.581-7.624L15.5,9.629Z" transform="translate(-8.5 -9.629)" fill="#fff"/>
          </g>
          <g id="Group_41335" data-name="Group 41335" transform="translate(23.628 9.798)">
            <path id="Path_43466" data-name="Path 43466" d="M19.283,10.707,15.7,18.327a1.453,1.453,0,0,1-2.086.613L8.5,15.739l1.526-1.526,1.329.838A3.2,3.2,0,0,0,15.963,13.7l1.78-3.787Z" transform="translate(-8.499 -9.916)" fill="#e9ecff"/>
          </g>
          <g id="Group_41336" data-name="Group 41336" transform="translate(12.864 8.625)">
            <path id="Path_43467" data-name="Path 43467" d="M16.635,16.625l-5.1,3.2a1.453,1.453,0,0,1-2.088-.613L5.864,11.592,9.639,9.629Z" transform="translate(-5.864 -9.629)" fill="#fff"/>
          </g>
          <g id="Group_41337" data-name="Group 41337" transform="translate(14.921 8.624)">
            <path id="Path_43468" data-name="Path 43468" d="M15.075,16.625l-5.1,3.2a1.453,1.453,0,0,1-2.088-.614l-.151-.322L9.62,17.7a2.275,2.275,0,0,0,.4-3.535L6.368,10.519l1.725-.89Z" transform="translate(-6.368 -9.629)" fill="#e9ecff"/>
          </g>
          <g id="Group_41338" data-name="Group 41338" transform="translate(22.869 7.859)">
            <path id="Path_43469" data-name="Path 43469" d="M14.955,21.4a2.224,2.224,0,0,1-1.18-.339l-5.1-3.2a.766.766,0,0,1-.134-1.19l7-7a.764.764,0,0,1,.9-.138L20.2,11.492a.765.765,0,0,1,.34,1l-3.58,7.624A2.218,2.218,0,0,1,14.955,21.4ZM10.3,17.066l4.289,2.693a.688.688,0,0,0,.988-.291l3.268-6.957L16.22,11.146Z" transform="translate(-8.313 -9.441)" fill="#2a44e2"/>
          </g>
          <g id="Group_41339" data-name="Group 41339" transform="translate(12.097 7.859)">
            <path id="Path_43470" data-name="Path 43470" d="M11.339,21.4A2.218,2.218,0,0,1,9.33,20.121L5.75,12.5a.765.765,0,0,1,.34-1L9.864,9.528a.764.764,0,0,1,.9.138l7,7a.766.766,0,0,1-.134,1.19l-5.1,3.2a2.219,2.219,0,0,1-1.181.34Zm-3.89-8.886,3.268,6.958a.687.687,0,0,0,.988.289l4.288-2.692-5.92-5.92Z" transform="translate(-5.677 -9.441)" fill="#2a44e2"/>
          </g>
          <g id="Group_41340" data-name="Group 41340" transform="translate(16.646 0.766)">
            <path id="Path_43471" data-name="Path 43471" d="M20.769,7.705v7.859l-7,7-6.982-7V7.705Z" transform="translate(-6.79 -7.705)" fill="#d2d9ff"/>
          </g>
          <g id="Group_41341" data-name="Group 41341" transform="translate(15.879)">
            <path id="Path_43472" data-name="Path 43472" d="M14.351,23.9h0a.766.766,0,0,1-.542-.224l-6.982-7a.767.767,0,0,1-.224-.542V8.284a.766.766,0,0,1,.766-.766H21.347a.766.766,0,0,1,.766.766v7.858a.765.765,0,0,1-.224.542l-7,7a.766.766,0,0,1-.542.224Zm-6.216-8.08,6.217,6.229,6.23-6.229V9.05H8.134Z" transform="translate(-6.602 -7.518)" fill="#2a44e2"/>
          </g>
        </g>
        <g id="Group_41346" data-name="Group 41346" transform="translate(10.209 2.991)">
          <g id="Group_41343" data-name="Group 41343" transform="translate(0.766 0.766)">
            <path id="Path_43473" data-name="Path 43473" d="M30.712,20.762V14.075a12.655,12.655,0,1,0-25.31,0v6.688Z" transform="translate(-5.402 -1.42)" fill="#7f8fee"/>
          </g>
          <g id="Group_41344" data-name="Group 41344" transform="translate(8.722 0.768)">
            <path id="Path_43474" data-name="Path 43474" d="M24.7,14.076v6.69H21.179V14.923A12.653,12.653,0,0,0,8.524,2.268c-.4,0-.787.02-1.175.051A12.667,12.667,0,0,1,24.7,14.075Z" transform="translate(-7.349 -1.42)" fill="#5569e8"/>
          </g>
          <g id="Group_41345" data-name="Group 41345">
            <path id="Path_43475" data-name="Path 43475" d="M31.29,22.108H5.98a.766.766,0,0,1-.766-.766V14.653a13.421,13.421,0,1,1,26.842,0v6.688a.766.766,0,0,1-.766.766ZM6.746,20.575H30.524V14.653a11.889,11.889,0,1,0-23.778,0Z" transform="translate(-5.214 -1.232)" fill="#2a44e2"/>
          </g>
        </g>
        <g id="Group_41350" data-name="Group 41350" transform="translate(11.784 14.552)">
          <g id="Group_41347" data-name="Group 41347" transform="translate(0.766 0.764)">
            <path id="Path_43476" data-name="Path 43476" d="M27.947,5.7v9.478A4.688,4.688,0,0,1,26.563,18.5c-1.828,1.817-3.224,3.224-5.043,5.043a4.683,4.683,0,0,1-3.31,1.371H15.524a4.683,4.683,0,0,1-3.31-1.371C10.4,21.722,9,20.315,7.171,18.5a4.688,4.688,0,0,1-1.384-3.323V7.811A1.092,1.092,0,0,1,7.023,6.742a7.164,7.164,0,0,0,.747.039,7.2,7.2,0,0,0,5.182-2.2,1.073,1.073,0,0,1,1.48-.075,9.3,9.3,0,0,0,6.108,2.272A9.235,9.235,0,0,0,26.2,4.847,1.079,1.079,0,0,1,27.947,5.7Z" transform="translate(-5.787 -4.249)" fill="#e9ecff"/>
          </g>
          <g id="Group_41348" data-name="Group 41348" transform="translate(4.199 1.12)">
            <path id="Path_43477" data-name="Path 43477" d="M25.354,5.428v9.478a4.688,4.688,0,0,1-1.384,3.323c-1.828,1.817-3.224,3.224-5.043,5.043a4.683,4.683,0,0,1-3.31,1.371H12.938a4.7,4.7,0,0,1-3.321-1.376L7.093,20.744l-.466-.477a4.669,4.669,0,0,0,2.675.845h2.675a4.646,4.646,0,0,0,3.481-1.553c1.724-1.53,3.258-3.253,4.885-4.885a4.636,4.636,0,0,0,1.371-3.3V5.71a9.528,9.528,0,0,0,1.92-1.155,1.077,1.077,0,0,1,1.719.872Z" transform="translate(-6.628 -4.336)" fill="#d2d9ff"/>
          </g>
          <g id="Group_41349" data-name="Group 41349">
            <path id="Path_43478" data-name="Path 43478" d="M18.789,26.254H16.1a5.483,5.483,0,0,1-3.851-1.595l-1.675-1.678c-1.1-1.1-2.136-2.14-3.367-3.364A5.49,5.49,0,0,1,5.6,15.751V8.388A1.805,1.805,0,0,1,6.2,7.03a1.919,1.919,0,0,1,1.478-.474,6.456,6.456,0,0,0,5.3-1.929,1.844,1.844,0,0,1,2.531-.12,8.566,8.566,0,0,0,5.606,2.084,8.429,8.429,0,0,0,5.2-1.775,1.845,1.845,0,0,1,2.977,1.456v9.478a5.49,5.49,0,0,1-1.61,3.866c-1.168,1.161-2.159,2.155-3.2,3.195L22.64,24.659a5.487,5.487,0,0,1-3.852,1.595ZM7.477,8.078a.375.375,0,0,0-.248.091.285.285,0,0,0-.1.219v7.363A3.942,3.942,0,0,0,8.29,18.53c1.232,1.226,2.269,2.264,3.371,3.369l1.674,1.677A3.942,3.942,0,0,0,16.1,24.722h2.686a3.945,3.945,0,0,0,2.769-1.146L23.4,21.73c1.04-1.041,2.032-2.037,3.2-3.2a3.942,3.942,0,0,0,1.158-2.779V6.273a.3.3,0,0,0-.172-.28.307.307,0,0,0-.337.037,9.952,9.952,0,0,1-6.133,2.094,10.1,10.1,0,0,1-6.609-2.458.305.305,0,0,0-.428.029A8,8,0,0,1,7.521,8.081a.334.334,0,0,0-.044,0Z" transform="translate(-5.6 -4.062)" fill="#2a44e2"/>
          </g>
        </g>
        <g id="Group_41351" data-name="Group 41351" transform="translate(7.514 0)">
          <path id="Path_43479" data-name="Path 43479" d="M36.011,23.737a.766.766,0,0,1-.766-.766v-6.36a14.579,14.579,0,1,0-29.158,0v6.36a.766.766,0,1,1-1.532,0v-6.36a16.111,16.111,0,1,1,32.223,0v6.36a.766.766,0,0,1-.766.766Z" transform="translate(-4.555 -0.5)" fill="#2a44e2"/>
        </g>
        <g id="Group_41355" data-name="Group 41355" transform="translate(33.945 17.498)">
          <g id="Group_41352" data-name="Group 41352" transform="translate(0.766 0.766)">
            <path id="Path_43480" data-name="Path 43480" d="M15.471,9.178a4.261,4.261,0,0,1-3.544,4.2.626.626,0,0,1-.716-.627V5.605a.626.626,0,0,1,.716-.626,4.268,4.268,0,0,1,3.544,4.2Z" transform="translate(-11.211 -4.97)" fill="#fff"/>
          </g>
          <g id="Group_41353" data-name="Group 41353" transform="translate(0.765 1.762)">
            <path id="Path_43481" data-name="Path 43481" d="M15.472,8.423a4.264,4.264,0,0,1-3.543,4.2.63.63,0,0,1-.719-.63v-.851a4.255,4.255,0,0,0,2.8-5.932,4.259,4.259,0,0,1,1.462,3.208Z" transform="translate(-11.211 -5.214)" fill="#e9ecff"/>
          </g>
          <g id="Group_41354" data-name="Group 41354">
            <path id="Path_43482" data-name="Path 43482" d="M12.407,14.731a1.365,1.365,0,0,1-.883-.325,1.405,1.405,0,0,1-.5-1.075V6.183a1.4,1.4,0,0,1,.5-1.075,1.364,1.364,0,0,1,1.11-.306,5.026,5.026,0,0,1,0,9.91,1.325,1.325,0,0,1-.226.019Zm.149-8.384v6.82a3.5,3.5,0,0,0,0-6.82Z" transform="translate(-11.024 -4.783)" fill="#2a44e2"/>
          </g>
        </g>
        <g id="Group_41359" data-name="Group 41359" transform="translate(7.522 17.498)">
          <g id="Group_41356" data-name="Group 41356" transform="translate(0.766 0.766)">
            <path id="Path_43483" data-name="Path 43483" d="M4.744,9.178a4.261,4.261,0,0,0,3.544,4.2A.626.626,0,0,0,9,12.752V5.605a.626.626,0,0,0-.716-.626,4.268,4.268,0,0,0-3.544,4.2Z" transform="translate(-4.744 -4.97)" fill="#fff"/>
          </g>
          <g id="Group_41357" data-name="Group 41357" transform="translate(0.766 1.762)">
            <path id="Path_43484" data-name="Path 43484" d="M4.744,8.423a4.264,4.264,0,0,0,3.543,4.2A.63.63,0,0,0,9.006,12v-.851a4.255,4.255,0,0,1-2.8-5.932A4.259,4.259,0,0,0,4.744,8.423Z" transform="translate(-4.744 -5.214)" fill="#e9ecff"/>
          </g>
          <g id="Group_41358" data-name="Group 41358">
            <path id="Path_43485" data-name="Path 43485" d="M8.966,14.731a1.335,1.335,0,0,1-.226-.019,5.026,5.026,0,0,1,0-9.91,1.362,1.362,0,0,1,1.111.306,1.4,1.4,0,0,1,.5,1.075V13.33a1.405,1.405,0,0,1-.5,1.075,1.365,1.365,0,0,1-.883.325ZM9,13.2h.01ZM8.817,6.347a3.5,3.5,0,0,0,0,6.82Z" transform="translate(-4.557 -4.783)" fill="#2a44e2"/>
          </g>
        </g>
        <g id="Group_41360" data-name="Group 41360" transform="translate(24.048 26.433)">
          <path id="Path_43486" data-name="Path 43486" d="M18.454,12.156H9.368a.766.766,0,0,1,0-1.532h9.086A2.309,2.309,0,0,0,20.76,8.317V7.736a.766.766,0,0,1,1.532,0v.582A3.842,3.842,0,0,1,18.454,12.156Z" transform="translate(-8.602 -6.97)" fill="#2a44e2"/>
        </g>
        <g id="Group_41364" data-name="Group 41364" transform="translate(21.988 28.202)">
          <g id="Group_41361" data-name="Group 41361" transform="translate(0.766 0.766)">
            <path id="Path_43487" data-name="Path 43487" d="M12.045,9.47a1.88,1.88,0,1,1-1.88-1.88A1.882,1.882,0,0,1,12.045,9.47Z" transform="translate(-8.285 -7.59)" fill="#7f8fee"/>
          </g>
          <g id="Group_41362" data-name="Group 41362" transform="translate(0.916 0.915)">
            <path id="Path_43488" data-name="Path 43488" d="M11.937,9.353a1.882,1.882,0,0,1-1.888,1.9,1.842,1.842,0,0,1-1.727-1.168,1.828,1.828,0,0,0,.7.137,1.882,1.882,0,0,0,1.888-1.9,1.829,1.829,0,0,0-.137-.7A1.861,1.861,0,0,1,11.937,9.353Z" transform="translate(-8.322 -7.627)" fill="#5569e8"/>
          </g>
          <g id="Group_41363" data-name="Group 41363">
            <path id="Path_43489" data-name="Path 43489" d="M10.744,12.715a2.656,2.656,0,1,1,2.646-2.666A2.659,2.659,0,0,1,10.744,12.715Zm0-3.78a1.124,1.124,0,1,0,1.114,1.114,1.115,1.115,0,0,0-1.114-1.114Z" transform="translate(-8.097 -7.403)" fill="#2a44e2"/>
          </g>
        </g>
      </g>
    </g>
  </g>
</svg>
