<svg xmlns="http://www.w3.org/2000/svg" width="66" height="66" viewBox="0 0 66 66">
  <g id="Image" transform="translate(-16 -94)">
    <rect id="Image_background" width="66" height="66" transform="translate(16 94)" fill="#fff"/>
    <g id="illustrate_test_automation_architect" transform="translate(16 94)">
      <rect id="Rectangle_44363" data-name="Rectangle 44363" width="66" height="66" fill="#fff"/>
      <path id="Path_43391" data-name="Path 43391" d="M3.811,10.973A2.162,2.162,0,0,1,5.973,8.811H60.027a2.162,2.162,0,0,1,2.162,2.162V47.73a2.162,2.162,0,0,1-2.162,2.162H5.973A2.162,2.162,0,0,1,3.811,47.73Z" fill="rgba(0,182,172,0.09)"/>
      <path id="Path_43392" data-name="Path 43392" d="M5.973,9.622a1.351,1.351,0,0,0-1.351,1.351V48.106a1.351,1.351,0,0,0,1.351,1.351H22.424a.811.811,0,1,1,0,1.622H5.973A2.973,2.973,0,0,1,3,48.106V10.973A2.973,2.973,0,0,1,5.973,8H60.027A2.973,2.973,0,0,1,63,10.973V48.106a2.973,2.973,0,0,1-2.973,2.973H39.12l-.007.03a13.8,13.8,0,0,0-.275,1.49,8.452,8.452,0,0,0-.055,1.771,3.126,3.126,0,0,0,.4,1.386,5.464,5.464,0,0,0,.893.974c.151.136.291.254.4.342h3.1a.811.811,0,1,1,0,1.622H23.27a.811.811,0,1,1,0-1.622h3.387c.057-.1.081-.2.166-.365a8.94,8.94,0,0,0,.473-1,8.758,8.758,0,0,0,.253-3.428c-.037-.452-.089-.865-.139-1.2a.811.811,0,0,1,.09-1.617H60.027a1.351,1.351,0,0,0,1.351-1.351V10.973a1.351,1.351,0,0,0-1.351-1.351Z" fill="#00b6ac"/>
      <path id="Path_43393" data-name="Path 43393" d="M52.33,16.919A2.573,2.573,0,1,0,54.9,19.492,2.573,2.573,0,0,0,52.33,16.919Zm-4.2,2.573a4.2,4.2,0,1,1,5.006,4.117V34.835a4.2,4.2,0,1,1-1.622,0V29.594l-5.993.014v.811a.811.811,0,0,1-.2.533l-.005.006a.81.81,0,0,1-.5.271l-2.588.358a10.537,10.537,0,0,1-.854,2.158.809.809,0,0,1,.071.282v.006a.808.808,0,0,1-.032.286l1.373,1.812a.811.811,0,0,1,.163.545v.008a.81.81,0,0,1-.236.518l-2.293,2.294a.81.81,0,0,1-.518.236H39.9a.811.811,0,0,1-.545-.163l-2.092-1.586c-.507.269-1.139.537-1.657.744-.3.119-.572.224-.788.3L34.462,41.6a.81.81,0,0,1-.271.5l-.006.005a.811.811,0,0,1-.532.2H30.409a.81.81,0,0,1-.532-.2l-.006-.005a.811.811,0,0,1-.271-.5l-.358-2.589a10.56,10.56,0,0,1-2.457-1.017l-.559.422L24.7,39.568a.811.811,0,0,1-.545.163h-.008a.811.811,0,0,1-.518-.236L21.337,37.2a.811.811,0,0,1-.236-.518v-.008a.811.811,0,0,1,.162-.545l1.577-2.085a10.533,10.533,0,0,1-1.019-2.457l-2.587-.358a.811.811,0,0,1-.5-.27l-.005-.006a.81.81,0,0,1-.2-.531l0-.812H14.222v5.224a4.195,4.195,0,1,1-1.622,0V23.609a4.195,4.195,0,1,1,1.622,0v4.38h4.3l0-.809a.811.811,0,0,1,.2-.534l0-.006a.811.811,0,0,1,.5-.271l2.591-.358a10.477,10.477,0,0,1,1.02-2.458L21.261,21.47a.811.811,0,0,1-.163-.545v-.008a.811.811,0,0,1,.236-.518l2.293-2.294a.811.811,0,0,1,.518-.236h.008a.81.81,0,0,1,.545.163l2.082,1.578a10.426,10.426,0,0,1,2.458-1.018L29.6,16a.811.811,0,0,1,.271-.5l.006-.005a.811.811,0,0,1,.532-.2h3.24a.811.811,0,0,1,.533.2l.006.005a.81.81,0,0,1,.271.5l.358,2.588a10.489,10.489,0,0,1,2.458,1.02l2.082-1.578a.811.811,0,0,1,.545-.163h.008a.81.81,0,0,1,.518.235l2.3,2.293a.811.811,0,0,1,.236.518v.008a.811.811,0,0,1-.163.545l-1.586,2.093c.269.508.537,1.141.746,1.661.12.3.225.575.306.792l2.562.354a.811.811,0,0,1,.5.27l.005.006a.811.811,0,0,1,.2.533v.808l5.993-.014V23.609A4.2,4.2,0,0,1,48.135,19.492ZM29.682,39.118h0Zm7.236-1.4,0,0Zm-23.506-20.8a2.573,2.573,0,1,0,2.573,2.573A2.574,2.574,0,0,0,13.411,16.919Zm0,19.459a2.573,2.573,0,1,0,2.574,2.573A2.573,2.573,0,0,0,13.411,36.378Zm38.919,0A2.573,2.573,0,1,0,54.9,38.952,2.573,2.573,0,0,0,52.33,36.378Z" fill="#f90" fill-rule="evenodd"/>
      <circle id="Ellipse_627" data-name="Ellipse 627" cx="7.568" cy="7.568" r="7.568" transform="translate(24.622 21.351)" fill="#dfeff7"/>
    </g>
  </g>
</svg>
