<svg id="Icon" xmlns="http://www.w3.org/2000/svg" xmlns:xlink="http://www.w3.org/1999/xlink" width="24" height="24" viewBox="0 0 24 24">
  <defs>
    <clipPath id="clip-path">
      <rect id="Rectangle_44436" data-name="Rectangle 44436" width="19" height="20" transform="translate(0.171 -0.139)" fill="#fff" stroke="#707070" stroke-width="1"/>
    </clipPath>
  </defs>
  <rect id="background" width="24" height="24" fill="none"/>
  <g id="Mask_Group_376" data-name="Mask Group 376" transform="translate(2.829 2.139)" clip-path="url(#clip-path)">
    <g id="temple_2_" data-name="temple (2)" transform="translate(1.655 -0.001)">
      <path id="Path_44351" data-name="Path 44351" d="M4.218,12.037a.239.239,0,0,0,.239-.239v-.382a.239.239,0,1,0-.477,0V11.8a.239.239,0,0,0,.239.238Z" transform="translate(-1.167 2.095)"/>
      <path id="Path_44352" data-name="Path 44352" d="M4.218,14.561a.239.239,0,0,0,.239-.239V12.455a.239.239,0,0,0-.477,0v1.866a.239.239,0,0,0,.239.239Z" transform="translate(-1.167 2.327)"/>
      <path id="Path_44353" data-name="Path 44353" d="M17.7,18.471h-.664V13.24H17.2a.453.453,0,0,0,.453-.453v-.354a.807.807,0,0,0-.807-.807H16.5V10.094a.53.53,0,0,0-.53-.53h-.015V8.276a.524.524,0,0,0-.42-.522v-1.3a.51.51,0,0,0-.486-.53h-.075V4.639a.494.494,0,0,0-.461-.53H14.4V2.821a.484.484,0,0,0-.435-.53h-.031V.923a.6.6,0,1,0-1.2,0V.969H10.774a1.07,1.07,0,0,0-1.956,0h-1.9V.923a.6.6,0,1,0-1.2,0V2.291H5.7a.484.484,0,0,0-.435.53V4.109H5.149a.493.493,0,0,0-.461.53V5.928H4.613a.51.51,0,0,0-.486.53v1.3a.524.524,0,0,0-.42.522V9.564H3.693a.53.53,0,0,0-.53.53v1.533H2.818a.807.807,0,0,0-.807.807v.4a.406.406,0,0,0,.406.406h.215v5.231H1.918a.239.239,0,0,0-.239.239v.946a.239.239,0,0,0,.239.239H17.7a.239.239,0,0,0,.239-.239V18.71A.239.239,0,0,0,17.7,18.471Zm-1.725-8.43a.053.053,0,0,1,.052.053v1.533H11.819V10.041Zm-5.351,1.585H9.159v-.186a.731.731,0,1,1,1.462,0ZM9.89,10.232a1.21,1.21,0,0,0-1.208,1.209v.186H8.329V10.041h3.013v1.585H11.1v-.186A1.21,1.21,0,0,0,9.89,10.232ZM8.725,2.291h-.4V1.447h.4Zm.808.477a1.211,1.211,0,0,0-.851,1.155v.186H8.329V2.768Zm1.809,0V4.109H11.1V3.923a1.211,1.211,0,0,0-.851-1.155Zm-.475-.477V1.447h.475v.844Zm-.246,1.818H9.159V3.923a.731.731,0,1,1,1.462,0Zm0,1.818H9.159V5.741a.731.731,0,0,1,1.462,0Zm0,1.818H9.159V7.56a.731.731,0,0,1,1.462,0Zm0,1.818H9.159V9.378a.731.731,0,0,1,1.462,0Zm-.374-1.341h1.094V9.564H11.1V9.378a1.211,1.211,0,0,0-.851-1.155Zm.851-.477V7.56A1.211,1.211,0,0,0,10.247,6.4h1.094V7.746Zm0-1.818V5.741a1.211,1.211,0,0,0-.851-1.155h1.094V5.928ZM9.533,4.587a1.211,1.211,0,0,0-.851,1.155v.186H8.329V4.587Zm0,1.818A1.211,1.211,0,0,0,8.682,7.56v.186H8.329V6.4Zm0,1.818a1.211,1.211,0,0,0-.851,1.155v.186H8.329V8.223Zm5.934.08V9.564H11.819V8.223h3.568a.08.08,0,0,1,.08.08Zm-.494-1.9a.08.08,0,0,1,.08.08V7.746H11.819V6.4Zm-.559-1.818a.08.08,0,0,1,.08.08V5.928H11.819V4.587ZM13.22.923a.12.12,0,1,1,.241,0V2.291H13.22Zm.623,1.845a.08.08,0,0,1,.08.08V4.109h-2.1V2.768Zm-1.1-.477h-.924V1.447h.924ZM9.8.811a.6.6,0,0,1,.594.594v.885h-.326V1.428a.239.239,0,0,0-.477,0v.863H9.2V1.405A.6.6,0,0,1,9.8.811Zm-2.874.635h.93v.844h-.93ZM6.2.923a.12.12,0,1,1,.241,0V2.291H6.2ZM5.743,2.848a.08.08,0,0,1,.08-.08h2.03V4.109H5.743ZM5.171,4.666a.08.08,0,0,1,.08-.08h2.6V5.928H5.171ZM4.612,6.484a.08.08,0,0,1,.08-.08h3.16V7.746H4.612ZM4.2,8.3a.08.08,0,0,1,.08-.08H7.852V9.564H4.2Zm-1.71,4.46v-.329a.329.329,0,0,1,.33-.329H4.492a.239.239,0,1,0,0-.477H3.64V10.094a.053.053,0,0,1,.052-.053h4.16v1.585H6.481a.239.239,0,1,0,0,.477H16.847a.329.329,0,0,1,.329.329v.33Zm14.067.477v5.231h-.613V13.24Zm-1.091,0v5.231H13.653V13.24Zm-2.29,0v5.231h-.613V13.24Zm-2.42,5.231H8.893V16.184a.931.931,0,1,1,1.862,0Zm-.931-3.7a1.41,1.41,0,0,0-1.408,1.409v2.287H7.472V13.24h4.612v5.231h-.852V16.184a1.41,1.41,0,0,0-1.408-1.409ZM7,13.24v5.231H6.382V13.24Zm-1.091,0v5.231H4.2V13.24Zm-2.181,0v5.231H3.11V13.24Zm13.736,6.177H2.157v-.469h15.3Z" transform="translate(-1.679 -0.325)"/>
    </g>
  </g>
</svg>
