<svg xmlns="http://www.w3.org/2000/svg" width="66" height="66" viewBox="0 0 66 66">
  <g id="Image" transform="translate(-16 -94)">
    <rect id="Image_background" width="66" height="66" transform="translate(16 94)" fill="#fff"/>
    <g id="illustrate_ui_design_for_architects" transform="translate(16 94)">
      <rect id="Rectangle_44362" data-name="Rectangle 44362" width="66" height="66" fill="#fff"/>
      <path id="Path_43390" data-name="Path 43390" d="M5.394,5.652c-.435.525-.347,1.448.446,4.707,2.311,9.494,2.088,9.083,8.427,15.539l5.724,5.829-7.267,7.326c-7.377,7.437-8.155,8.561-7.569,10.938C5.549,51.586,14.4,60.45,16,60.845c2.375.587,3.5-.192,10.939-7.592l7.332-7.29,6.882,6.869c4.245,4.236,7.506,7.127,8.509,7.542a8.119,8.119,0,0,0,10.6-4.683c1.766-4.232.8-6.086-7.529-14.452l-6.861-6.89,7.282-7.34c7.392-7.452,8.17-8.575,7.583-10.952C60.339,14.46,51.485,5.6,49.891,5.2c-2.374-.587-3.5.192-10.931,7.584l-7.323,7.282-5.6-5.55c-3.082-3.052-6.3-5.84-7.144-6.195A128.313,128.313,0,0,0,6.344,5,1.738,1.738,0,0,0,5.394,5.652Zm47.988,6.892c2.23,2.223,4.054,4.36,4.054,4.749a2.643,2.643,0,0,1-.89,1.514c-.876.793-.934.763-3.62-1.9-2.892-2.869-3.91-3.264-4.684-1.816-.417.781-.119,1.265,2.386,3.862l2.864,2.97-1.31,1.257-1.31,1.257L49.393,23c-1-.975-1.808-1.388-2.508-1.288-1.622.231-1.527,1.585.237,3.393L48.7,26.721l-1.324,1.27-1.324,1.27-2.737-2.717c-2.759-2.738-3.633-3.154-4.595-2.191-.934.935-.572,1.69,2.183,4.563l2.708,2.823-1.17,1.172-1.17,1.172L39.78,32.641c-2.968-2.88-5.284-.561-2.407,2.41l1.442,1.489-1.17,1.172-1.171,1.172-2.82-2.711c-2.87-2.759-3.624-3.121-4.558-2.186s-.573,1.69,2.183,4.563l2.708,2.823-1.17,1.172-1.17,1.172-1.487-1.443c-2.961-2.873-5.285-.563-2.416,2.4l1.433,1.48-1.267,1.324L26.641,48.8l-2.918-2.9c-2.607-2.59-3.017-2.846-3.846-2.4-1.485.8-1.107,1.8,1.785,4.717l2.713,2.741-1.269,1.326-1.269,1.326-1.572-1.537c-1.776-1.735-2.822-1.937-3.5-.673-.385.72-.195,1.16,1.138,2.636,1.551,1.719,1.576,1.8.816,2.639a2.563,2.563,0,0,1-1.473.867c-.885,0-8.8-7.867-8.8-8.747C8.452,47.938,47.821,8.5,48.679,8.5,49.036,8.5,51.152,10.322,53.382,12.544Zm-40.2-2.539c4.043,1.04,7.318,2.729,7.818,4.034.175.457-.82,1.761-3.04,3.984s-3.523,3.219-3.979,3.044c-1.3-.5-2.991-3.779-4.029-7.827C9.378,11,8.9,9.11,8.9,9.05,8.886,8.9,8.71,8.856,13.183,10.006Zm13.54,9.564,2.72,2.748-3.618,3.6-3.618,3.6-2.821-2.849-2.82-2.849,3.477-3.5a40.8,40.8,0,0,1,3.718-3.5A25.893,25.893,0,0,1,26.723,19.569ZM47.049,47.138l-3.6,3.606-3.5-3.486-3.5-3.487,3.6-3.625,3.6-3.626,3.5,3.506,3.5,3.506Zm10.387,5.577a4.614,4.614,0,0,1-4.809,4.83c-1.94,0-2.326-.19-4.588-2.26l-2.47-2.26,3.638-3.676,3.637-3.676,2.3,2.453C57.261,50.392,57.436,50.742,57.436,52.714Z" fill-rule="evenodd"/>
    </g>
  </g>
</svg>
