<svg width="86" height="22" viewBox="0 0 86 22" fill="none" xmlns="http://www.w3.org/2000/svg">
<path d="M51.0748 15.772C49.0667 15.643 47.2497 12.472 45.4924 9.4C43.096 5.213 40.1161 0 34.5626 0C29.0091 0 26.0292 5.21 23.6328 9.4C21.7561 12.679 19.9829 15.776 17.912 15.776C15.8412 15.776 14.068 12.676 12.1903 9.399C9.84858 5.309 6.93443 0.217999 1.59298 0.00899887C1.38663 0.00123587 1.18083 0.0353093 0.98788 0.109188C0.794927 0.183067 0.618772 0.295237 0.469929 0.438999C0.321061 0.584672 0.202775 0.758837 0.122061 0.951206C0.0413474 1.14358 -0.000157033 1.35024 7.61898e-07 1.559V4.533C-0.000390123 4.93839 0.149637 5.32939 0.420799 5.62967C0.691961 5.92994 1.0648 6.11795 1.46654 6.157C3.39006 6.357 5.16822 9.457 6.88764 12.463C9.3 16.677 12.3018 21.921 17.911 21.921C23.5203 21.921 26.5221 16.677 28.9344 12.463C30.7116 9.358 32.5495 6.147 34.5626 6.147C36.5757 6.147 38.4127 9.358 40.1908 12.464C42.5365 16.564 45.4566 21.664 50.806 21.911C51.0206 21.9204 51.2348 21.8862 51.4359 21.8103C51.6369 21.7345 51.8206 21.6186 51.9759 21.4696C52.1313 21.3206 52.255 21.1416 52.3396 20.9434C52.4243 20.7451 52.4682 20.5317 52.4687 20.316V17.276C52.4689 16.8947 52.3252 16.5275 52.0665 16.2484C51.8079 15.9693 51.4535 15.7991 51.0748 15.772ZM49.9538 19.255C46.5607 18.513 44.4361 14.801 42.3742 11.2C40.141 7.3 38.0323 3.615 34.5626 3.615C31.0929 3.615 28.9872 7.299 26.7501 11.201C24.4462 15.226 22.0627 19.389 17.912 19.389C13.7613 19.389 11.3778 15.226 9.073 11.2C7.12459 7.8 5.27574 4.568 2.52089 3.791V2.671C5.85917 3.417 7.96389 7.095 10.0059 10.662C12.257 14.594 14.3866 18.308 17.912 18.308C21.4375 18.308 23.5671 14.594 25.8182 10.662C28.1081 6.662 30.4707 2.534 34.5636 2.534C38.6566 2.534 41.0192 6.666 43.3091 10.663C45.2774 14.101 47.1471 17.363 49.9548 18.138L49.9538 19.255Z" fill="black"/>
<path d="M38.4473 13.8765C38.3532 13.1474 38.0577 12.4592 37.5942 11.8901C37.1306 11.321 36.5177 10.8936 35.8247 10.6565C35.1318 10.4194 34.3865 10.382 33.6735 10.5486C32.9605 10.7151 32.3081 11.0789 31.7904 11.5988C31.2727 12.1187 30.9103 12.7738 30.7444 13.4899C30.5784 14.2061 30.6155 14.9546 30.8514 15.6507C31.0873 16.3467 31.5126 16.9625 32.0791 17.4282C32.6456 17.8939 33.3307 18.1909 34.0567 18.2855C34.2244 18.3068 34.3933 18.3175 34.5624 18.3175C35.1192 18.3171 35.6695 18.1974 36.1766 17.9665C36.6837 17.7357 37.1361 17.399 37.5035 16.9787C37.8709 16.5585 38.1449 16.0645 38.3073 15.5296C38.4697 14.9947 38.5167 14.4312 38.4453 13.8765H38.4473ZM35.5501 15.3765C35.387 15.537 35.1873 15.6547 34.9684 15.7195C34.7494 15.7843 34.518 15.794 34.2944 15.7479C34.0709 15.7019 33.862 15.6014 33.6861 15.4552C33.5103 15.3091 33.3728 15.1219 33.2859 14.9099C33.1989 14.698 33.1651 14.4678 33.1874 14.2397C33.2097 14.0116 33.2875 13.7924 33.4138 13.6015C33.5402 13.4106 33.7112 13.2538 33.912 13.1448C34.1128 13.0358 34.3372 12.9781 34.5654 12.9765C34.627 12.9767 34.6885 12.9807 34.7496 12.9885C35.0084 13.0228 35.2523 13.1293 35.4538 13.296C35.6552 13.4627 35.806 13.6828 35.889 13.9313C35.972 14.1799 35.9839 14.4468 35.9233 14.7018C35.8626 14.9568 35.732 15.1895 35.5461 15.3735L35.5501 15.3765Z" fill="black"/>
<path d="M82.3724 10.2084C82.2231 8.82832 81.6883 7.51872 80.8298 6.43076C79.9713 5.3428 78.824 4.52081 77.5204 4.05966C76.2167 3.59851 74.8098 3.51698 73.462 3.82448C72.1142 4.13198 70.8804 4.81599 69.903 5.79756C68.9256 6.77913 68.2445 8.01828 67.9381 9.37199C67.6318 10.7257 67.7128 12.1388 68.1718 13.4483C68.6307 14.7578 69.449 15.9102 70.5321 16.7726C71.6151 17.6351 72.9189 18.1723 74.293 18.3224C74.5549 18.3503 74.8181 18.3644 75.0815 18.3644C76.1107 18.3639 77.1283 18.1458 78.0682 17.7245C79.0081 17.3031 79.8491 16.6878 80.5367 15.9186C81.2244 15.1494 81.7432 14.2434 82.0594 13.2597C82.3756 12.2759 82.4823 11.2363 82.3724 10.2084ZM78.4835 14.4174C77.9241 14.9783 77.2355 15.392 76.4789 15.6218C75.7223 15.8516 74.9209 15.8904 74.1457 15.7348C73.3706 15.5793 72.6456 15.2341 72.035 14.7299C71.4244 14.2257 70.9471 13.578 70.6452 12.8442C70.3433 12.1105 70.2262 11.3133 70.3044 10.5232C70.3825 9.73314 70.6534 8.97463 71.0931 8.31485C71.5328 7.65507 72.1277 7.11439 72.8251 6.74069C73.5226 6.36699 74.301 6.17181 75.0914 6.17244C75.2651 6.17254 75.4385 6.18188 75.6112 6.20044C76.5121 6.29986 77.3668 6.65307 78.0765 7.21933C78.7863 7.78559 79.3222 8.54183 79.6224 9.40083C79.9227 10.2598 79.9751 11.1866 79.7736 12.0742C79.5721 12.9618 79.1248 13.7741 78.4835 14.4174Z" fill="black"/>
<path d="M78.4091 0.547985C78.2505 0.493792 78.0829 0.471871 77.9158 0.483497C77.7488 0.495123 77.5857 0.540065 77.4361 0.615699C77.2866 0.691334 77.1535 0.796144 77.0447 0.924007C76.9359 1.05187 76.8536 1.20023 76.8025 1.3604C76.7515 1.52058 76.7327 1.68938 76.7473 1.85693C76.7619 2.02447 76.8096 2.18742 76.8876 2.33625C76.9656 2.48507 77.0724 2.61679 77.2016 2.72371C77.3309 2.83064 77.4801 2.91062 77.6405 2.95899C79.5511 3.57126 81.181 4.84943 82.2357 6.56278C83.2904 8.27613 83.7006 10.3118 83.3921 12.3022C83.0837 14.2926 82.0769 16.1068 80.5536 17.4171C79.0303 18.7274 77.0908 19.4475 75.0852 19.4475C73.0796 19.4475 71.1402 18.7274 69.6168 17.4171C68.0935 16.1068 67.0868 14.2926 66.7783 12.3022C66.4699 10.3118 66.88 8.27613 67.9347 6.56278C68.9895 4.84943 70.6193 3.57126 72.53 2.95899C72.8406 2.85028 73.0966 2.62392 73.2434 2.32822C73.3901 2.03252 73.4159 1.69092 73.3154 1.37635C73.2148 1.06179 72.9957 0.799177 72.705 0.644592C72.4143 0.490007 72.0749 0.455698 71.7594 0.548988C69.2777 1.34737 67.1618 3.01037 65.7936 5.23792C64.4253 7.46547 63.8948 10.1109 64.2977 12.6968C64.7006 15.2827 66.0104 17.6388 67.9908 19.3399C69.9712 21.0411 72.4918 21.9753 75.0977 21.974C75.3306 21.974 75.5629 21.9667 75.7946 21.952C78.3326 21.7837 80.7326 20.7313 82.5808 18.9761C84.429 17.2209 85.6095 14.873 85.9188 12.3373C86.2281 9.80152 85.6469 7.23682 84.2752 5.0854C82.9036 2.93398 80.8276 1.3307 78.4051 0.551986L78.4091 0.547985Z" fill="black"/>
<path d="M61.5591 3.47408L59.6993 0.63808C59.5997 0.486024 59.4709 0.355482 59.3204 0.254107C59.1699 0.152733 59.0007 0.0825685 58.8228 0.0477322C58.645 0.0128959 58.462 0.0140864 58.2846 0.0512379C58.1072 0.0883895 57.9389 0.160755 57.7898 0.264083C56.8994 0.913428 56.1823 1.77333 55.7019 2.76759C55.2216 3.76186 54.9928 4.85978 55.0359 5.96408V20.7371C55.0359 21.0726 55.1686 21.3943 55.4048 21.6316C55.641 21.8688 55.9613 22.0021 56.2953 22.0021H59.8915C60.2255 22.0021 60.5459 21.8688 60.782 21.6316C61.0182 21.3943 61.1509 21.0726 61.1509 20.7371V14.0741C61.1509 13.7384 61.0182 13.4166 60.7819 13.1792C60.5456 12.9419 60.2251 12.8086 59.891 12.8086C59.5568 12.8086 59.2364 12.9419 59.0001 13.1792C58.7638 13.4166 58.631 13.7384 58.631 14.0741V19.4741H57.5568V6.08708C57.5568 6.04608 57.5568 6.00408 57.5568 5.96208V5.86208C57.5568 5.84408 57.5568 5.82608 57.5568 5.80808C57.5578 4.877 57.8397 3.96809 58.3652 3.20108L59.0134 4.19008C58.7644 4.6971 58.6346 5.25475 58.634 5.82008C58.634 5.84308 58.634 5.86508 58.634 5.88808V8.16908C58.634 8.50471 58.7668 8.8266 59.0031 9.06393C59.2393 9.30125 59.5598 9.43458 59.894 9.43458C60.2281 9.43458 60.5486 9.30125 60.7849 9.06393C61.0212 8.8266 61.1539 8.50471 61.1539 8.16908V5.85408C61.1539 5.83608 61.1539 5.81808 61.1539 5.79908V5.79008C61.1547 5.62491 61.195 5.46235 61.2714 5.31608C61.5396 5.10054 61.7179 4.79201 61.7711 4.45116C61.8244 4.11031 61.7488 3.76178 61.5591 3.47408Z" fill="black"/>
</svg>
