<svg xmlns="http://www.w3.org/2000/svg" width="20" height="20" viewBox="0 0 20 20">
  <g id="icon_outline_whatsapp" transform="translate(-2 -2)">
    <path id="icon_whatsapp" d="M18.162,3.913a9.97,9.97,0,0,0-17,7.01,9.839,9.839,0,0,0,1.355,5l-.025-.047L1.075,21.009,6.354,19.63a9.858,9.858,0,0,0,4.759,1.206h0A9.906,9.906,0,0,0,18.161,3.913h0ZM11.117,19.162h0a8.256,8.256,0,0,1-4.249-1.169l.038.021-.3-.178-3.132.818L4.3,15.614,4.1,15.3a8.129,8.129,0,0,1-1.266-4.378,8.277,8.277,0,1,1,8.277,8.239h0Zm4.54-6.17c-.249-.124-1.472-.722-1.7-.806s-.395-.123-.561.125-.642.8-.787.97-.291.186-.539.063a6.86,6.86,0,0,1-2.008-1.235l.007.006A7.5,7.5,0,0,1,8.7,10.434L8.685,10.4c-.145-.247-.015-.381.109-.5s.249-.289.373-.434a1.716,1.716,0,0,0,.245-.4l0-.011a.444.444,0,0,0,.046-.2.451.451,0,0,0-.068-.238v0c-.063-.124-.56-1.343-.767-1.839s-.408-.417-.56-.425-.311-.008-.477-.008a.912.912,0,0,0-.662.309h0a2.764,2.764,0,0,0-.871,2.016c0,.017,0,.035,0,.053v0A4.811,4.811,0,0,0,7.081,11.29l-.008-.01a11.168,11.168,0,0,0,4.188,3.711l.063.029a12.431,12.431,0,0,0,1.319.494l.1.027a3.334,3.334,0,0,0,.991.147,3.435,3.435,0,0,0,.6-.052l-.021,0a2.571,2.571,0,0,0,1.673-1.166l.006-.011a2.018,2.018,0,0,0,.175-.828,2.072,2.072,0,0,0-.031-.361l0,.013c-.062-.1-.228-.165-.477-.289Z" transform="translate(0.925 0.991)" fill="#454545"/>
  </g>
</svg>
