<svg xmlns="http://www.w3.org/2000/svg" width="20" height="14" viewBox="0 0 20 14">
  <g id="icon_fill_youtube" transform="translate(-2 -5)">
    <path id="Path_30518" data-name="Path 30518" d="M19.15,6.349c-.542-.983-1.131-1.163-2.33-1.232S12.611,5,10,5s-5.626.034-6.822.116S1.394,5.365.846,6.349,0,9.021,0,12v.01c0,2.963.287,4.666.846,5.637S1.982,18.8,3.179,18.887,7.389,19,10,19s5.62-.042,6.819-.112,1.787-.261,2.33-1.243c.564-.971.849-2.674.849-5.637V12C20,9.021,19.715,7.33,19.15,6.349ZM7.5,15.818V8.182L13.75,12Z" transform="translate(2 0)" fill="#454545"/>
  </g>
</svg>
