<svg width="18" height="18" viewBox="0 0 18 18" fill="none" xmlns="http://www.w3.org/2000/svg">
<path d="M8.99625 15.75C7.15228 15.75 6.9349 15.7403 6.2153 15.7088C5.65414 15.6904 5.10024 15.5765 4.57746 15.372C3.67294 15.0205 2.95771 14.306 2.60605 13.4027C2.40914 12.8788 2.30293 12.3252 2.29198 11.7657C2.25 11.0487 2.25 10.8136 2.25 8.98653C2.25 7.13997 2.25974 6.9244 2.29198 6.20958C2.30317 5.65084 2.40938 5.09806 2.60605 4.57485C2.95733 3.67031 3.67372 2.95522 4.57971 2.60479C5.1034 2.40734 5.65712 2.30101 6.2168 2.29042C6.93265 2.25 7.16802 2.25 8.99625 2.25C10.8552 2.25 11.0689 2.25973 11.7772 2.29042C12.3383 2.3011 12.8935 2.40742 13.4188 2.60479C14.3245 2.95562 15.0408 3.67057 15.3924 4.57485C15.5927 5.10568 15.6994 5.6671 15.708 6.23428C15.75 6.95135 15.75 7.18563 15.75 9.01198C15.75 10.8383 15.7395 11.0778 15.708 11.7867C15.6969 12.3467 15.5904 12.9008 15.3932 13.4251C15.0406 14.3291 14.3243 15.0438 13.4188 15.3952C12.8943 15.5915 12.3402 15.6975 11.7802 15.7088C11.0644 15.75 10.8297 15.75 8.99625 15.75ZM8.97077 3.43488C7.13729 3.43488 6.94689 3.44386 6.23104 3.47605C5.80376 3.4817 5.38062 3.56043 4.97998 3.70883C4.38838 3.93489 3.92024 4.40044 3.69145 4.99027C3.54169 5.39468 3.46283 5.82184 3.45833 6.25299C3.4186 6.97829 3.4186 7.16841 3.4186 8.98653C3.4186 10.7829 3.42535 11.0007 3.45833 11.7216C3.46504 12.1484 3.54385 12.571 3.69145 12.9716C3.92058 13.561 4.38863 14.0262 4.97998 14.2522C5.38035 14.4016 5.80366 14.4804 6.23104 14.485C6.95664 14.5269 7.14778 14.5269 8.97077 14.5269C10.8095 14.5269 10.9999 14.518 11.7097 14.485C12.1373 14.4798 12.5608 14.4011 12.9615 14.2522C13.5496 14.0242 14.0147 13.5601 14.2433 12.9731C14.3928 12.5683 14.4717 12.1409 14.4765 11.7096H14.4847C14.5169 10.994 14.5169 10.8031 14.5169 8.97455C14.5169 7.14596 14.5087 6.95359 14.4765 6.23877C14.4697 5.81246 14.3909 5.39035 14.2433 4.99027C14.0152 4.40237 13.55 3.93734 12.9615 3.70883C12.5609 3.55969 12.1373 3.48093 11.7097 3.47605C10.9849 3.43488 10.7953 3.43488 8.97077 3.43488ZM8.99625 12.4439C7.59452 12.4448 6.3303 11.6023 5.79318 10.3095C5.25606 9.0166 5.55185 7.52794 6.54259 6.53777C7.53333 5.5476 9.02388 5.25095 10.3191 5.78618C11.6143 6.3214 12.459 7.58308 12.4593 8.98278C12.4573 10.8923 10.9085 12.4402 8.99625 12.4439ZM8.99625 6.73578C7.7543 6.73578 6.7475 7.74113 6.7475 8.98129C6.7475 10.2214 7.7543 11.2268 8.99625 11.2268C10.2382 11.2268 11.245 10.2214 11.245 8.98129C11.2421 7.74232 10.237 6.73866 8.99625 6.73578ZM12.5943 6.2021C12.1486 6.20044 11.7884 5.83876 11.7892 5.39372C11.79 4.94867 12.1516 4.58833 12.5972 4.58833C13.0429 4.58833 13.4045 4.94867 13.4053 5.39371C13.4055 5.60843 13.3201 5.81439 13.1679 5.96608C13.0157 6.11776 12.8093 6.20269 12.5943 6.2021Z" fill="black"/>
</svg>
