<svg width="18" height="18" viewBox="0 0 18 18" fill="none" xmlns="http://www.w3.org/2000/svg">
<path d="M5.5575 14.805C6.57 15.4125 7.785 15.75 9 15.75C12.7125 15.75 15.75 12.7125 15.75 9C15.75 5.2875 12.7125 2.25 9 2.25C5.2875 2.25 2.25 5.2875 2.25 9C2.25 10.215 2.5875 11.3625 3.1275 12.375L2.69044 14.056C2.49572 14.8049 3.18892 15.4817 3.93299 15.2691L5.5575 14.805Z" stroke="black" stroke-miterlimit="10" stroke-linecap="round" stroke-linejoin="round"/>
<path d="M12.0375 10.9227C12.0375 11.0321 12.0132 11.1445 11.9614 11.2538C11.9097 11.3632 11.8428 11.4665 11.7546 11.5637C11.6055 11.7277 11.4413 11.8461 11.2557 11.9221C11.0732 11.998 10.8754 12.0375 10.6625 12.0375C10.3522 12.0375 10.0206 11.9646 9.67077 11.8158C9.32094 11.6669 8.9711 11.4665 8.62431 11.2143C8.27447 10.9592 7.94288 10.6767 7.62651 10.3638C7.31318 10.0479 7.03026 9.71685 6.77777 9.37057C6.52832 9.0243 6.32755 8.67802 6.18153 8.33479C6.03551 7.98851 5.9625 7.65743 5.9625 7.34153C5.9625 7.13498 5.999 6.93754 6.07201 6.75529C6.14502 6.57 6.26062 6.3999 6.42185 6.24802C6.61654 6.05666 6.82949 5.9625 7.0546 5.9625C7.13978 5.9625 7.22496 5.98072 7.30101 6.01717C7.3801 6.05362 7.45007 6.1083 7.50483 6.18728L8.21058 7.18054C8.26534 7.25648 8.30489 7.32634 8.33227 7.39316C8.35965 7.45695 8.37486 7.52074 8.37486 7.57845C8.37486 7.65135 8.35356 7.72425 8.31097 7.79411C8.27143 7.86398 8.21363 7.93688 8.14062 8.00978L7.90942 8.24974C7.87596 8.28315 7.86075 8.32264 7.86075 8.37124C7.86075 8.39554 7.86379 8.4168 7.86987 8.4411C7.879 8.4654 7.88813 8.48363 7.89421 8.50185C7.94897 8.60209 8.04327 8.7327 8.17712 8.89065C8.31401 9.0486 8.46003 9.20959 8.61822 9.37057C8.78249 9.53156 8.94068 9.6804 9.10191 9.81709C9.2601 9.95074 9.39091 10.0419 9.49434 10.0965C9.50955 10.1026 9.5278 10.1117 9.54909 10.1208C9.57343 10.1299 9.59777 10.133 9.62514 10.133C9.67686 10.133 9.71641 10.1148 9.74987 10.0814L9.98107 9.85354C10.0571 9.7776 10.1301 9.71989 10.2001 9.68344C10.2701 9.64091 10.34 9.61965 10.4161 9.61965C10.4739 9.61965 10.5347 9.6318 10.6016 9.65914C10.6686 9.68647 10.7385 9.72596 10.8146 9.7776L11.8215 10.4914C11.9006 10.5461 11.9554 10.6099 11.9888 10.6858C12.0192 10.7617 12.0375 10.8377 12.0375 10.9227Z" stroke="black" stroke-miterlimit="10" stroke-linecap="round" stroke-linejoin="round"/>
</svg>
